<svg width="64" height="64" viewBox="0 0 64 64" fill="none" xmlns="http://www.w3.org/2000/svg">
<rect x="0.5" y="0.5" width="63" height="63" rx="31.5" fill="white"/>
<g clip-path="url(#clip0_456_25811)">
<path fill-rule="evenodd" clip-rule="evenodd" d="M11.92 33.2695C10.6286 33.2695 9.13143 33.9162 8.32 34.5869L9.06286 36.2156C9.71429 35.5929 10.7657 35.0659 11.7143 35.0659C12.6171 35.0659 13.1086 35.3773 13.1086 36.012C13.1086 36.4432 12.7771 36.6587 12.16 36.7426C9.82857 37.054 8 37.7246 8 39.6049C8 41.0899 9.01714 42.0001 10.5943 42.0001C11.7257 42.0001 12.7314 41.3414 13.2114 40.4791V41.7605H15.3143V36.3833C15.3143 34.1677 13.84 33.2695 11.92 33.2695ZM11.1314 40.2755C10.5371 40.2755 10.24 39.9761 10.24 39.4731C10.24 38.539 11.2343 38.2276 13.0514 38.024C13.0629 39.2695 12.2514 40.2755 11.1314 40.2755ZM35.1429 34.8983V33.509H33.04V41.7605H35.2914V37.7845C35.2914 35.8923 36.3771 35.3414 37.1429 35.3414C37.44 35.3414 37.84 35.4372 38.1029 35.6408L38.5143 33.4611C38.1714 33.3055 37.8057 33.2695 37.5086 33.2695C36.3543 33.2695 35.6229 33.8084 35.1429 34.8983ZM48.96 33.2695C47.7714 33.2695 46.88 34.012 46.4114 34.7186C45.9771 33.7965 45.0743 33.2695 43.9771 33.2695C42.7886 33.2695 41.9657 33.9641 41.5771 34.7546V33.509H39.4057V41.7605H41.6571V37.509C41.6571 35.9881 42.4229 35.2575 43.1314 35.2575C43.7714 35.2575 44.3657 35.6887 44.3657 36.8144V41.7605H46.6286V37.509C46.6286 35.9641 47.3714 35.2575 48.1143 35.2575C48.7086 35.2575 49.3371 35.7126 49.3371 36.8025V41.7605H51.5886V36.0599C51.5886 34.2037 50.4 33.2695 48.96 33.2695ZM23.2686 32.8983V33.509H19.8514V32.6707C19.8514 31.5809 20.4457 31.2695 20.96 31.2695C21.2571 31.2695 21.6457 31.3414 21.9657 31.533L22.6629 29.8683C22.2514 29.6168 21.5771 29.3893 20.6743 29.3893C19.2343 29.3893 17.6 30.2396 17.6 32.9102V33.521H16.2971V35.3414H17.6V41.7605H19.8514V35.3294H23.2686V41.7605H25.52V35.3294H27.5657V33.509H25.52V32.6707C25.52 31.5809 26.1143 31.2695 26.6286 31.2695C27.2 31.2695 27.6343 31.533 27.6343 31.533L28.3314 29.8683C28.3314 29.8683 27.6229 29.3893 26.3429 29.3893C24.9143 29.3773 23.2686 30.2276 23.2686 32.8983ZM28.9029 33.509H31.1543V41.7605H28.9029V33.509Z" fill="#060809"/>
<path fill-rule="evenodd" clip-rule="evenodd" d="M42.0228 22C35.9428 22 30.5257 26.4192 28.9943 32.1078H31.2C32.48 27.8683 36.8343 24.1557 42.0228 24.1557C48.3314 24.1557 53.7714 29.1856 53.7714 37.018C53.7714 38.7784 53.5543 40.3593 53.1428 41.7605H55.28L55.3028 41.6886C55.6571 40.2395 55.8286 38.6707 55.8286 37.018C55.8286 28.2874 49.76 22 42.0228 22Z" fill="#0FA0EA"/>
</g>
<rect x="0.5" y="0.5" width="63" height="63" rx="31.5" stroke="#000C33"/>
<defs>
<clipPath id="clip0_456_25811">
<rect width="48" height="20" fill="white" transform="translate(8 22)"/>
</clipPath>
</defs>
</svg>
