<svg width="64" height="64" viewBox="0 0 64 64" fill="none" xmlns="http://www.w3.org/2000/svg">
<rect width="64" height="64" rx="32" fill="white"/>
<path d="M16.9192 25H8.0829C6.93215 25 6 25.9407 6 27.1001V36.0114C6 37.1707 6.93215 38.1115 8.0829 38.1115H16.9192C18.07 38.1115 19.0009 37.1707 19.0009 36.0114V27.1001C19.0021 25.9395 18.07 25 16.9192 25Z" fill="#1677FF"/>
<path d="M16.7046 33.2333C16.1851 33.0577 15.4863 32.7888 14.7089 32.5051C15.1756 31.6859 15.549 30.7538 15.7946 29.7406H13.2315V28.8096H16.3706V28.2901H13.2315V26.7378H11.9506C11.7258 26.7378 11.7258 26.9613 11.7258 26.9613V28.2889H8.5511V28.8084H11.7258V29.7393H9.10376V30.2588H14.1882C14.0027 30.9048 13.7522 31.5127 13.4562 32.0642C11.8069 31.5152 10.0457 31.0706 8.94042 31.3445C8.23302 31.5201 7.77739 31.8333 7.50966 32.1624C6.28153 33.6693 7.1621 35.9585 9.75589 35.9585C11.2898 35.9585 12.7673 35.0964 13.9119 33.6755C15.6202 34.5032 19.0012 35.9254 19.0012 35.9254V33.899C19.0024 33.899 18.5775 33.8646 16.7046 33.2333ZM9.51395 35.0829C7.49123 35.0829 6.89314 33.4765 7.89283 32.5972C8.22688 32.3 8.83603 32.155 9.16025 32.1231C10.3614 32.004 11.474 32.4658 12.7869 33.1118C11.8646 34.3251 10.6893 35.0829 9.51395 35.0829Z" fill="white"/>
<path d="M34.2305 26.9195C34.2305 27.5974 34.7266 28.0542 35.4181 28.0542C36.1095 28.0542 36.6057 27.5974 36.6057 26.9195C36.6057 26.2538 36.1095 25.7847 35.4181 25.7847C34.7266 25.7847 34.2305 26.2538 34.2305 26.9195Z" fill="#1677FF"/>
<path d="M32.9788 26.0708H30.918V35.5937H32.9788V26.0708Z" fill="black"/>
<path d="M27.3042 26.3975H24.5385L21.4473 35.5949H23.3521L23.874 33.7945H27.1482L27.6444 35.5949H30.0834L27.3042 26.3975ZM24.3039 32.2937L25.5295 28.0542H25.5811L26.7417 32.2937H24.3039Z" fill="black"/>
<path d="M36.4493 28.6021H34.3885V35.595H36.4493V28.6021Z" fill="black"/>
<path d="M57.9889 28.6156L58.0012 28.6021H56.0583L54.8314 32.855H54.7664L53.3577 28.6021H51.0488L53.8268 35.6208L52.6663 37.7602V37.8118H54.479L57.9889 28.6156Z" fill="black"/>
<path d="M41.5759 28.4585C40.8193 28.4585 40.2323 28.7459 39.5667 29.2936V28.6022H37.5059V37.8119H39.5667V35.5288C39.9584 35.6332 40.3232 35.686 40.7665 35.686C42.6063 35.686 44.263 34.3289 44.263 31.9157C44.263 29.7505 43.0631 28.4585 41.5759 28.4585ZM40.2704 34.394C40.0358 34.394 39.8135 34.3682 39.5654 34.2896V30.507C39.9965 30.2073 40.3477 30.0637 40.7911 30.0637C41.5611 30.0637 42.174 30.6765 42.174 31.982C42.1752 33.651 41.275 34.394 40.2704 34.394Z" fill="black"/>
<path d="M50.6435 33.8463V30.9246C50.6435 29.3329 49.704 28.4585 48.0473 28.4585C46.9898 28.4585 46.2603 28.6415 44.929 29.0455L45.2938 30.6507C46.5072 30.103 47.0414 29.8684 47.6027 29.8684C48.2806 29.8684 48.5815 30.351 48.5815 31.0953V31.1469C46.2198 31.5902 45.4891 31.8383 45.0334 32.2952C44.6945 32.6341 44.5508 33.1168 44.5508 33.678C44.5508 35.0216 45.5947 35.7388 46.5723 35.7388C47.303 35.7388 47.89 35.4649 48.6859 34.8644L48.8296 35.5951H50.8904L50.6435 33.8463ZM48.5827 33.8991C48.035 34.1987 47.7218 34.3166 47.357 34.3166C46.8609 34.3166 46.5477 33.99 46.5477 33.4692C46.5477 33.274 46.587 33.0775 46.743 32.9215C46.9911 32.6734 47.4737 32.4904 48.5827 32.2301V33.8991Z" fill="black"/>
</svg>
