<svg width="64" height="64" viewBox="0 0 64 64" fill="none" xmlns="http://www.w3.org/2000/svg">
<rect width="64" height="64" rx="32" fill="#1D77FF"/>
<path d="M45.1126 25.1046L44.0871 27.4079H46.1437L45.1126 25.1046ZM33.2791 26.5319C33.4724 26.4384 33.5862 26.2351 33.5862 25.9826C33.5862 25.7352 33.4666 25.556 33.2734 25.4718C33.0973 25.3785 32.8265 25.3677 32.5668 25.3677H30.7321V26.651H32.5422C32.832 26.6511 33.0743 26.6472 33.2791 26.5319ZM9.77035 25.1046L8.75647 27.4079H10.7904L9.77035 25.1046ZM56.9754 39.8603H54.0981V38.6211H56.9637C57.2478 38.6211 57.4468 38.5866 57.5666 38.4779C57.6799 38.3811 57.7439 38.2442 57.7427 38.1011C57.7427 37.9327 57.6706 37.799 57.5606 37.719C57.4527 37.6308 57.2951 37.5906 57.0356 37.5906C55.6367 37.5466 53.8914 37.6306 53.8914 35.8019C53.8914 34.9637 54.4656 34.0814 56.0291 34.0814H58.997V32.9316H56.2396C55.4075 32.9316 54.8029 33.1163 54.3748 33.4036V32.9316H50.2963C49.6442 32.9316 48.8787 33.0814 48.5166 33.4036V32.9316H41.2331V33.4036C40.6535 33.016 39.6753 32.9316 39.2241 32.9316H34.4199V33.4036C33.9614 32.992 32.9414 32.9316 32.3201 32.9316H26.9434L25.7132 34.1658L24.5609 32.9316H16.5292V40.9961H24.4093L25.677 39.7421L26.8712 40.9961L31.7285 41V39.1029H32.2062C32.8507 39.1125 33.6107 39.0883 34.2816 38.8195V40.9958H38.288V38.8938H38.4813C38.7278 38.8938 38.7523 38.9034 38.7523 39.1319V40.9953H50.9235C51.6962 40.9953 52.504 40.8122 52.9512 40.4791V40.9953H56.8119C57.6152 40.9953 58.3999 40.8909 58.9968 40.6237V39.1215C58.635 39.612 57.9295 39.8607 56.9752 39.8607L56.9754 39.8603ZM32.27 37.9562H30.4109V39.8946H27.515L25.6803 37.9815L23.7738 39.8946H17.8721V34.1155H23.8646L25.6976 36.0099L27.5927 34.1155H32.3536C33.536 34.1155 34.8645 34.419 34.8645 36.0194C34.8645 37.6248 33.5724 37.9562 32.27 37.9562ZM41.2095 37.6941C41.42 37.9762 41.4504 38.2396 41.4565 38.749V39.8947H39.9605V39.1717C39.9605 38.824 39.9967 38.3092 39.7197 38.0404C39.5022 37.8335 39.1702 37.7841 38.6265 37.7841H37.0343V39.8947H35.5373V34.1155H38.9769C39.7315 34.1155 40.2807 34.1466 40.7697 34.3882C41.2399 34.6516 41.5358 35.0123 41.5358 35.6716C41.5357 36.5939 40.872 37.0645 40.4798 37.2091C40.8113 37.3225 41.0823 37.5258 41.2095 37.6941ZM47.3641 35.3107H43.8752V36.3613H47.2789V37.5405H43.8752V38.6903L47.3641 38.6954V39.8946H42.3914V34.1155H47.3641V35.3107ZM51.1927 39.8945H48.2909V38.6553H51.1812C51.4638 38.6553 51.6642 38.6206 51.7898 38.5121C51.8922 38.4228 51.9659 38.2928 51.9659 38.1354C51.9659 37.9669 51.8861 37.8332 51.784 37.753C51.67 37.6649 51.5127 37.625 51.2534 37.625C49.86 37.5807 48.1151 37.6648 48.1151 35.8361C48.1151 34.9979 48.6833 34.1155 50.2453 34.1155H53.2324V35.3454H50.4991C50.2282 35.3454 50.052 35.355 49.9023 35.4501C49.7389 35.5437 49.6784 35.6824 49.6784 35.8656C49.6784 36.0836 49.817 36.232 50.0043 36.2961C50.1616 36.3468 50.3303 36.3616 50.5842 36.3616L51.3863 36.3819C52.1949 36.3999 52.7503 36.5298 53.0878 36.8465C53.3777 37.1247 53.5335 37.4762 53.5335 38.0709C53.5333 39.3141 52.6953 39.8945 51.1927 39.8945ZM39.6371 35.4039C39.4571 35.3048 39.1914 35.2995 38.9263 35.2995H37.0916V36.5974H38.9018C39.1916 36.5974 39.438 36.5879 39.6371 36.4783C39.8302 36.3701 39.9458 36.1708 39.9458 35.9236C39.9458 35.6764 39.8302 35.4975 39.6371 35.4039ZM56.2842 35.2994C56.0132 35.2994 55.833 35.3089 55.6813 35.4038C55.5241 35.4975 55.4637 35.6363 55.4637 35.8196C55.4637 36.0375 55.5964 36.1859 55.7895 36.2501C55.9468 36.3008 56.1154 36.3156 56.3635 36.3156L57.1713 36.3355C57.986 36.3542 58.5301 36.4842 58.8618 36.8009C58.9222 36.8448 58.9585 36.8943 59 36.9438V35.2995H56.2844L56.2842 35.2994ZM32.3216 35.2994H30.3789V36.7713H32.3043C32.8767 36.7713 33.2327 36.5079 33.233 36.008C33.2327 35.5026 32.8595 35.2994 32.3216 35.2994ZM19.356 35.2994V36.3501H22.6269V37.5293H19.356V38.679H23.0191L24.7211 36.9836L23.0914 35.2994H19.356ZM28.9214 39.3408V34.7076L26.6339 36.9869L28.9214 39.3408ZM19.481 30.0621V31.0579H31.9288L31.9231 28.9513H32.164C32.3327 28.9568 32.3817 28.9712 32.3817 29.2293V31.058H38.8199V30.5675C39.3392 30.8255 40.1467 31.058 41.2095 31.058H43.918L44.4977 29.7747H45.7829L46.3497 31.058H51.569V29.839L52.3592 31.0579H56.5419V23H52.4027V23.9517L51.8231 23H47.5757V23.9517L47.0435 23H41.3062C40.3457 23 39.5018 23.1242 38.8198 23.4705V23H34.8605V23.4705C34.4265 23.1136 33.8352 23 33.1779 23H18.7133L17.7429 25.0813L16.7462 23H12.1903V23.9517L11.6897 23H7.80435L6.00007 26.8314V29.896L8.66806 24.1182H10.8818L13.4157 29.5886V24.1182H15.8475L17.7974 28.0377L19.5887 24.1182H22.0693V29.896H20.5422L20.5366 25.371L18.376 29.896H17.0679L14.9018 25.367V29.896H11.8712L11.2988 28.6073H8.19656L7.61817 29.896H6V31.0584H8.54582L9.1198 29.775H10.405L10.9775 31.0584H15.9863V30.0771L16.4333 31.0624H19.0335L19.4806 30.0623L19.481 30.0621ZM39.0962 24.7917C39.5777 24.3306 40.3321 24.1179 41.3588 24.1179H42.8012V25.3559H41.3891C40.8456 25.3559 40.5383 25.4308 40.2427 25.6983C39.9886 25.9415 39.8143 26.4014 39.8143 27.0069C39.8143 27.626 39.9472 28.0722 40.2239 28.3638C40.4533 28.5924 40.8703 28.6618 41.2624 28.6618H41.9318L44.0316 24.1181H46.264L48.7865 29.583V24.1182H51.0551L53.6741 28.1421V24.1182H55.2003V29.8958H53.0889L50.2648 25.5593V29.8958H47.2304L46.6507 28.607H43.5555L42.993 29.8958H41.2494C40.5253 29.8958 39.6084 29.7473 39.0891 29.2567C38.5654 28.7662 38.2932 28.1016 38.2932 27.051C38.2929 26.194 38.4555 25.4107 39.0962 24.7917ZM36.0316 24.118H37.5518V29.8958H36.0316V24.118ZM29.1775 24.118H32.6043C33.3656 24.118 33.9269 24.1367 34.4086 24.3947C34.8799 24.6528 35.1625 25.0296 35.1625 25.6739C35.1625 26.5952 34.4991 27.0711 34.1128 27.2141C34.4387 27.3291 34.7173 27.5323 34.85 27.7006C35.0604 27.988 35.0966 28.2447 35.0966 28.7606V29.8957H33.5939L33.5883 29.1671C33.5883 28.8193 33.6241 28.3193 33.3531 28.0415C33.1354 27.8384 32.8035 27.7942 32.267 27.7942H30.6676V29.8958H29.1777L29.1775 24.118ZM23.1712 24.118H28.1484V25.3211H24.6612V26.3626H28.0647V27.547H24.6612V28.7008H28.1484V29.8957H23.1712V24.118Z" fill="white"/>
</svg>
