<svg width="40" height="16" viewBox="0 0 40 16" fill="none" xmlns="http://www.w3.org/2000/svg">
<path d="M33.2104 15.9905C35.054 15.9905 35.9217 15.3051 36.6796 13.2277L40 4.1541H38.0775L35.8509 11.174H35.8119L33.5853 4.16361H31.6084L34.8116 12.7998L34.6401 13.3251C34.5189 14.077 33.826 14.6134 33.0462 14.558C32.8973 14.558 32.6086 14.5429 32.4915 14.5279V15.954C32.7298 15.9857 32.9705 16.0008 33.2104 16V15.9905ZM26.8039 11.4465C25.7955 11.4465 25.1555 10.9712 25.1555 10.2517C25.1555 9.50617 25.7727 9.07199 26.9527 9.00305L29.054 8.87391V9.5442C29.0077 10.6487 28.0505 11.5083 26.9169 11.4632C26.8787 11.4616 26.8413 11.4584 26.8039 11.4553V11.4465ZM26.2964 12.8545C27.4406 12.8846 28.5108 12.3038 29.0858 11.3396H29.1248V12.7657H30.8748V6.85905C30.8748 5.14607 29.4688 4.04238 27.304 4.04238C25.2962 4.04238 23.8112 5.16113 23.7567 6.69901H25.4604C25.6637 5.91699 26.4265 5.4012 27.2495 5.48835C28.4059 5.48835 29.054 6.01366 29.054 6.98028V7.63473L26.6957 7.7718C24.5 7.90095 23.3127 8.77645 23.3127 10.2993C23.3111 11.8435 24.5374 12.8632 26.2956 12.8632L26.2964 12.8545ZM16.1547 2.44904H18.3342C19.9753 2.44904 20.9129 3.30157 20.9129 4.80142C20.9129 6.30127 19.9753 7.16093 18.3269 7.16093H16.1547V2.44904ZM14.264 0.896106V12.7634H16.1547V8.71782H18.7725C20.9048 8.82954 22.7256 7.2362 22.8402 5.15875C22.8467 5.0407 22.8475 4.92343 22.8427 4.80538C22.9435 2.75091 21.3163 1.00624 19.2076 0.907198C19.0831 0.901652 18.9595 0.902445 18.8351 0.907991L14.264 0.896106ZM7.98838 3.11062C6.90191 3.04961 5.9724 3.71199 5.45682 3.71199C4.94124 3.71199 4.14428 3.14152 3.28471 3.15737C2.1462 3.18589 1.10853 3.79993 0.557978 4.77131C-0.613873 6.73545 0.253021 9.64324 1.38584 11.2413C1.94045 12.0337 2.60567 12.9012 3.47988 12.8703C4.30774 12.8402 4.63628 12.345 5.63654 12.345C6.6368 12.345 6.93363 12.8703 7.80865 12.8545C8.71458 12.8394 9.28546 12.0622 9.84171 11.2699C10.2337 10.7089 10.5386 10.0949 10.7476 9.44754C9.67988 8.99275 8.98783 7.96829 8.98213 6.83291C8.9984 5.83142 9.53675 4.90759 10.4118 4.38228C9.8539 3.61057 8.95855 3.13677 7.99 3.10349L7.98838 3.11062ZM7.31015 2.06239C6.83442 2.64633 6.10658 2.98147 5.34134 2.968C5.29255 2.24066 5.54628 1.5252 6.04478 0.981676C6.54084 0.420718 7.24021 0.0689312 7.99651 0C8.05018 0.747944 7.80378 1.48638 7.30852 2.06001" fill="black"/>
</svg>
