<svg width="64" height="64" viewBox="0 0 64 64" fill="none" xmlns="http://www.w3.org/2000/svg">
<rect x="0.579156" y="0.579156" width="62.8417" height="62.8417" rx="31.4208" fill="white" stroke="#000C33" stroke-width="1.15831"/>
<path d="M43.8894 39.6567C45.5486 39.6567 46.3295 39.0285 47.0117 37.1243L50 28.8076H48.2698L46.2659 35.2419H46.2307L44.2268 28.8163H42.4475L45.3305 36.7322L45.1761 37.2136C45.067 37.9028 44.4434 38.3945 43.7415 38.3437C43.6076 38.3437 43.3478 38.3299 43.2424 38.3161V39.6233C43.4568 39.6523 43.6735 39.6661 43.8894 39.6654V39.6567ZM38.1235 35.4918C37.2159 35.4918 36.6399 35.056 36.6399 34.3966C36.6399 33.7132 37.1954 33.3153 38.2574 33.2521L40.1486 33.1337V33.7481C40.1069 34.7605 39.2455 35.5484 38.2252 35.507C38.1908 35.5056 38.1571 35.5027 38.1235 35.4998V35.4918ZM37.6668 36.7823C38.6966 36.8099 39.6597 36.2775 40.1772 35.3937H40.2123V36.7009H41.7874V31.2869C41.7874 29.7168 40.5219 28.7052 38.5736 28.7052C36.7665 28.7052 35.4301 29.7306 35.3811 31.1402H36.9144C37.0974 30.4234 37.7839 29.9507 38.5246 30.0306C39.5653 30.0306 40.1486 30.512 40.1486 31.398V31.9979L38.0261 32.1235C36.05 32.2419 34.9814 33.0444 34.9814 34.4402C34.98 35.8556 36.0837 36.7903 37.666 36.7903L37.6668 36.7823ZM28.5393 27.2448H30.5008C31.9777 27.2448 32.8216 28.0262 32.8216 29.4009C32.8216 30.7757 31.9777 31.5636 30.4942 31.5636H28.5393V27.2448ZM26.8376 25.8214V36.6988H28.5393V32.9907H30.8952C32.8143 33.093 34.453 31.6326 34.5562 29.7284C34.5621 29.6202 34.5628 29.5128 34.5584 29.4046C34.6492 27.5215 33.1846 25.9223 31.2868 25.8315C31.1748 25.8264 31.0636 25.8272 30.9516 25.8323L26.8376 25.8214ZM21.1895 27.8512C20.2117 27.7952 19.3752 28.4024 18.9111 28.4024C18.4471 28.4024 17.7299 27.8795 16.9562 27.894C15.9316 27.9201 14.9977 28.483 14.5022 29.3733C13.4475 31.1736 14.2277 33.8389 15.2473 35.3037C15.7464 36.0299 16.3451 36.8251 17.1319 36.7968C17.877 36.7692 18.1727 36.3153 19.0729 36.3153C19.9731 36.3153 20.2403 36.7968 21.0278 36.7823C21.8431 36.7685 22.3569 36.056 22.8575 35.3298C23.2103 34.8157 23.4848 34.2528 23.6729 33.6595C22.7119 33.2427 22.089 32.3036 22.0839 31.263C22.0986 30.345 22.5831 29.4982 23.3706 29.0167C22.8685 28.3094 22.0627 27.8751 21.191 27.8446L21.1895 27.8512ZM20.5791 26.8904C20.151 27.4256 19.4959 27.7328 18.8072 27.7204C18.7633 27.0538 18.9916 26.398 19.4403 25.8998C19.8868 25.3856 20.5162 25.0632 21.1969 25C21.2452 25.6856 21.0234 26.3624 20.5777 26.8882" fill="black"/>
</svg>
