<svg width="64" height="64" viewBox="0 0 64 64" fill="none" xmlns="http://www.w3.org/2000/svg">
<g clip-path="url(#clip0_456_26017)">
<rect width="64" height="64" rx="32" fill="#0A6297"/>
<path fill-rule="evenodd" clip-rule="evenodd" d="M-7 0H71.9151L72 31C62.4733 26.4327 32.1619 15.5019 -7 29.1234V0Z" fill="#2C328C"/>
<path fill-rule="evenodd" clip-rule="evenodd" d="M-7 64H72V39.5892C57.7523 33.6793 32.4256 24.8239 -7 37.3697V64Z" fill="#FFF200"/>
<path fill-rule="evenodd" clip-rule="evenodd" d="M71.7493 38.3878C57.5623 33.6396 32.3436 26.525 -6.91406 36.6046V29.0305C32.123 18.2588 62.3376 26.9149 71.834 30.5145L71.7493 38.3878Z" fill="#ED1C24"/>
<path fill-rule="evenodd" clip-rule="evenodd" d="M18.1445 24.4123C20.0909 19.0324 24.5459 14.387 32.2862 14.4384C40.0265 14.4898 45.1888 18.9115 46.5821 24.6964C36.6082 23.6597 29.959 23.4783 18.1445 24.4123Z" fill="#FFF200"/>
<path d="M10.6602 48.0652L15.9282 40.207H17.8685L23.4811 48.0652H21.4259L19.827 45.6866H14.0845L12.5733 48.0652H10.6602ZM14.6164 44.8403H19.2679L17.8353 42.6672C17.4806 42.1435 17.1566 41.5995 16.8651 41.0382C16.6791 41.5695 16.4306 42.0768 16.1246 42.5494L14.6134 44.8494L14.6164 44.8403ZM32.7084 48.0652V47.231C31.9327 47.8738 30.8809 48.1952 29.553 48.1952C29.0002 48.1995 28.449 48.1355 27.9119 48.0048C27.5063 47.9216 27.1218 47.7571 26.7815 47.5212C26.5428 47.3388 26.3622 47.091 26.2617 46.8079C26.1802 46.5129 26.1455 46.2069 26.1589 45.9012V42.3801H27.8424V45.5325C27.8238 45.8752 27.8585 46.2188 27.9451 46.551C28.0809 46.8338 28.3233 47.0512 28.6191 47.1555C29.026 47.3103 29.4594 47.3832 29.8946 47.3701C30.3769 47.3739 30.8566 47.2993 31.3151 47.1494C31.6842 47.0519 32.0132 46.8404 32.255 46.545C32.4613 46.2122 32.5585 45.8234 32.5331 45.4327V42.3801H34.2166V48.0652H32.7084ZM38.2998 48.0652V42.3801H39.811V43.2415C40.1084 42.9029 40.474 42.631 40.8839 42.4436C41.2282 42.3119 41.5943 42.2463 41.9629 42.2502C42.5532 42.2517 43.1388 42.3539 43.6947 42.5524L43.1144 43.4591C42.7181 43.3203 42.3013 43.2488 41.8813 43.2475C41.5403 43.2422 41.2018 43.307 40.8869 43.438C40.6248 43.5389 40.4044 43.7252 40.2613 43.9669C40.0726 44.3113 39.9757 44.6985 39.9802 45.0912V48.0682L38.2998 48.0652ZM52.647 47.364C52.07 47.6494 51.4613 47.8655 50.8336 48.0078C50.2224 48.1358 49.5993 48.1986 48.9748 48.1952C47.8838 48.1952 47.0466 48.0441 46.4572 47.7388C45.8678 47.4335 45.5777 47.0436 45.5777 46.5691C45.5791 46.4259 45.6092 46.2844 45.6664 46.1531C45.7235 46.0217 45.8064 45.9032 45.9101 45.8045C46.1551 45.5586 46.4513 45.3697 46.7776 45.2514C47.1689 45.1086 47.5741 45.0073 47.9865 44.9491C48.3159 44.9008 48.8146 44.8494 49.4796 44.8041C50.4867 44.7525 51.4898 44.6415 52.4838 44.4716C52.4838 44.3386 52.4838 44.257 52.4838 44.2207C52.4965 44.0507 52.4578 43.8808 52.3726 43.7331C52.2874 43.5854 52.1598 43.4668 52.0063 43.3926C51.4003 43.1409 50.7452 43.0294 50.0901 43.0662C49.495 43.0369 48.8997 43.1179 48.3341 43.305C47.9554 43.4657 47.6548 43.7684 47.4969 44.1482L45.8527 44.0182C45.9946 43.626 46.2516 43.2857 46.5902 43.042C47.0408 42.7499 47.5472 42.5544 48.0772 42.4678C48.8201 42.3258 49.5755 42.2589 50.3319 42.2683C51.0251 42.2551 51.7178 42.3128 52.3992 42.4406C52.8134 42.511 53.211 42.6575 53.5719 42.8728C53.8091 43.0328 53.9916 43.2617 54.0947 43.5286C54.1629 43.8196 54.1904 44.1187 54.1763 44.4172V45.7017C54.1496 46.2702 54.1861 46.8399 54.2851 47.4003C54.3696 47.6592 54.5159 47.8936 54.7113 48.0833H52.9523C52.7784 47.8847 52.6623 47.6422 52.6168 47.3822L52.647 47.364ZM52.505 45.2121C51.5976 45.3967 50.6787 45.5188 49.7546 45.5778C49.2611 45.6063 48.7702 45.6699 48.2857 45.7682C48.0429 45.8138 47.8148 45.9175 47.6208 46.0704C47.5504 46.1245 47.4928 46.1935 47.452 46.2723C47.4113 46.3512 47.3884 46.4381 47.3851 46.5268C47.3851 46.7837 47.5573 46.9983 47.8958 47.1706C48.3672 47.3661 48.8763 47.4538 49.3859 47.4275C49.9722 47.4374 50.5565 47.3558 51.1177 47.1857C51.5444 47.0714 51.9307 46.84 52.2329 46.5178C52.4338 46.2382 52.5301 45.8969 52.505 45.5536V45.2121Z" fill="#2C328C" stroke="#2C328C" stroke-width="0.109968" stroke-miterlimit="22.93"/>
</g>
<defs>
<clipPath id="clip0_456_26017">
<rect width="64" height="64" rx="32" fill="white"/>
</clipPath>
</defs>
</svg>
