<svg width="64" height="64" viewBox="0 0 64 64" fill="none" xmlns="http://www.w3.org/2000/svg">
<rect width="64" height="64" rx="32" fill="white"/>
<path d="M49.206 22.7642H35.5847L34.1994 24.3258L29.704 29.3929V29.393L28.3187 30.9545H14.8774L16.2413 29.3732L16.8868 28.6247L18.2507 27.0434H12.0573C10.9259 27.0434 10 27.9939 10 29.1554V33.6119C10 34.7737 10.9259 35.7242 12.0573 35.7242H35.7684C36.8999 35.7242 38.4455 35.0182 39.2032 34.1554L42.7898 30.0711L49.206 22.7642Z" fill="#0B83DE"/>
<path d="M51.9436 18C53.0751 18 54.001 18.9505 54.001 20.1122V24.5686C54.001 25.7301 53.0751 26.6808 51.9436 26.6808H45.7704L47.1472 25.1113H47.1474L47.83 24.3332L49.2068 22.764H35.5856L28.3196 30.9602H14.7949L24.4942 19.9801L24.8612 19.5646C25.6214 18.704 27.1692 18 28.3007 18H51.9436V18Z" fill="#FBD500"/>
<path fill-rule="evenodd" clip-rule="evenodd" d="M14.6364 43.2997C14.6364 43.0088 14.5678 42.7569 14.431 42.5442C14.294 42.3316 14.1138 42.1693 13.8902 42.0574C14.1138 41.9455 14.287 41.7803 14.4101 41.562C14.533 41.3438 14.5945 41.0977 14.5945 40.8235V40.6724C14.5945 40.3365 14.5302 40.0569 14.4017 39.8329C14.2731 39.6091 14.0927 39.4299 13.8608 39.2957C13.6289 39.1613 13.3507 39.0649 13.0267 39.006C12.7024 38.9473 12.342 38.918 11.945 38.918C11.811 38.918 11.6712 38.9208 11.526 38.9263C11.3804 38.9319 11.2394 38.9389 11.1026 38.9473C10.9656 38.9556 10.8397 38.9656 10.7253 38.9767C10.6106 38.988 10.5169 38.9992 10.4443 39.0102C10.2822 39.0384 10.1677 39.0886 10.1006 39.1613C10.0336 39.2342 10 39.3658 10 39.5559V44.6596C10 44.85 10.0348 44.9814 10.1048 45.0541C10.1746 45.1269 10.2934 45.1771 10.4612 45.2052C10.5449 45.2219 10.6456 45.2359 10.7629 45.2472C10.8802 45.2584 11.0073 45.2681 11.1444 45.2765C11.2814 45.2849 11.4224 45.2918 11.5678 45.2976C11.7131 45.303 11.8555 45.3059 11.9953 45.3059C12.3587 45.3059 12.701 45.2779 13.0225 45.2219C13.3437 45.1662 13.6232 45.0666 13.8608 44.9239C14.0985 44.7813 14.287 44.5882 14.4268 44.3448C14.5664 44.1013 14.6364 43.7949 14.6364 43.4255V43.2997ZM13.2121 40.8907C13.2121 40.9803 13.1981 41.0657 13.1701 41.1467C13.1421 41.2278 13.0961 41.2977 13.0319 41.3568C12.9675 41.4153 12.8809 41.4629 12.7719 41.4992C12.663 41.5356 12.5246 41.5537 12.3569 41.5537H11.418V40.1016C11.4458 40.1016 11.4892 40.1004 11.5479 40.0974C11.6065 40.0946 11.668 40.0932 11.7322 40.0932H12.055C12.4854 40.0932 12.7859 40.1478 12.9563 40.2569C13.1268 40.366 13.2121 40.5353 13.2121 40.7646V40.8907ZM12.9983 43.9377C13.1631 43.8091 13.2457 43.6271 13.2457 43.3921V43.2998C13.2457 43.0983 13.1813 42.9234 13.0528 42.7751C12.9241 42.6269 12.6922 42.5527 12.3569 42.5527H11.418V44.1223H11.5646C11.6288 44.1223 11.6958 44.124 11.7658 44.1267C11.8356 44.1295 11.9027 44.131 11.9671 44.131H12.1053C12.5357 44.131 12.8334 44.0665 12.9983 43.9377ZM19.2309 42.0658C19.2309 41.7581 19.1848 41.4963 19.0925 41.2809C19.0004 41.0656 18.8704 40.8892 18.7027 40.752C18.5351 40.615 18.3296 40.5145 18.0864 40.45C17.8434 40.3856 17.5709 40.3534 17.269 40.3534C16.9894 40.3534 16.717 40.3731 16.4516 40.4123C16.186 40.4514 15.975 40.4906 15.8186 40.5296C15.7124 40.5579 15.6593 40.6192 15.6593 40.7142V41.3942C15.6593 41.4503 15.6732 41.4895 15.7013 41.5117C15.7291 41.5341 15.7653 41.5455 15.8103 41.5455H15.852C15.9192 41.5397 16.003 41.5328 16.1036 41.5244C16.2042 41.516 16.3174 41.5092 16.4433 41.5033C16.569 41.4979 16.7002 41.4937 16.8373 41.4907C16.9741 41.488 17.1097 41.4866 17.244 41.4866C17.4395 41.4866 17.5932 41.523 17.705 41.5957C17.8167 41.6685 17.8726 41.8252 17.8726 42.0658V42.368H17.42C16.6989 42.368 16.1748 42.4813 15.8479 42.7079C15.5209 42.9345 15.3574 43.2941 15.3574 43.7865V43.8624C15.3574 44.1364 15.398 44.3658 15.4789 44.5503C15.5599 44.7351 15.6677 44.8834 15.8017 44.9955C15.936 45.1073 16.0881 45.1871 16.2587 45.2345C16.4292 45.2821 16.6068 45.306 16.7911 45.306C17.0427 45.306 17.2593 45.2723 17.4409 45.2052C17.6224 45.1381 17.7943 45.0457 17.9565 44.9282V45.0625C17.9565 45.1072 17.9733 45.1465 18.0069 45.1799C18.0405 45.2136 18.0795 45.2303 18.1242 45.2303H19.0633C19.1079 45.2303 19.147 45.2136 19.1806 45.1799C19.2142 45.1465 19.2309 45.1072 19.2309 45.0625V42.0658ZM17.5746 44.2272C17.689 44.1909 17.7968 44.1475 17.8974 44.0972V43.1739H17.4195C17.2741 43.1739 17.154 43.1864 17.059 43.2115C16.9639 43.2368 16.8883 43.2746 16.8326 43.325C16.7767 43.3752 16.7376 43.4397 16.7153 43.518C16.6928 43.5964 16.6817 43.6858 16.6817 43.7866V43.8624C16.6817 44.0412 16.7249 44.1559 16.8116 44.2063C16.8983 44.2567 17.0309 44.2818 17.2099 44.2818C17.3384 44.2818 17.4599 44.2638 17.5746 44.2272ZM24.3615 45.0541V42.2587C24.3615 41.9961 24.3406 41.7482 24.2986 41.516C24.2567 41.284 24.1813 41.0824 24.0723 40.9115C23.9633 40.7409 23.8124 40.6051 23.6195 40.5045C23.4267 40.4038 23.1793 40.3534 22.8775 40.3534C22.6092 40.3534 22.3715 40.3858 22.1649 40.4507C21.958 40.5155 21.7401 40.6297 21.511 40.7932V40.5898C21.511 40.5448 21.4941 40.5052 21.4606 40.4714C21.427 40.4376 21.3879 40.4205 21.3431 40.4205H20.4042C20.3593 40.4205 20.3203 40.4372 20.2869 40.4709C20.2533 40.5045 20.2365 40.5437 20.2365 40.5884V45.0541C20.2365 45.0989 20.2545 45.1395 20.291 45.1758C20.3273 45.2122 20.3678 45.2303 20.4126 45.2303H21.427C21.4718 45.2303 21.511 45.2122 21.5444 45.1759C21.578 45.1397 21.5947 45.0992 21.5947 45.0544V41.7545C21.7401 41.6764 21.8769 41.6122 22.0056 41.562C22.1341 41.5117 22.2598 41.4866 22.3828 41.4866C22.5113 41.4866 22.6161 41.4991 22.6973 41.5244C22.7782 41.5495 22.8411 41.5927 22.8858 41.6544C22.9306 41.7156 22.9614 41.7965 22.9781 41.8969C22.9948 41.9975 23.0033 42.1203 23.0033 42.2655V45.0544C23.0033 45.0992 23.02 45.1397 23.0536 45.1759C23.0871 45.2122 23.1261 45.2303 23.171 45.2303H24.1855C24.23 45.2303 24.2706 45.2122 24.307 45.1758C24.3434 45.1395 24.3615 45.0989 24.3615 45.0541ZM28.4869 44.2401V44.987C28.4869 45.0485 28.4728 45.0919 28.4449 45.117C28.4169 45.1423 28.3721 45.1632 28.3107 45.1799C28.1933 45.208 28.041 45.2359 27.8538 45.2641C27.6665 45.2918 27.4472 45.306 27.1956 45.306C26.6031 45.306 26.1294 45.1242 25.7746 44.7602C25.4196 44.3966 25.2422 43.8705 25.2422 43.1822V42.4771C25.2422 41.7888 25.4196 41.2627 25.7746 40.8991C26.1294 40.5352 26.6031 40.3534 27.1956 40.3534C27.4472 40.3534 27.6665 40.3673 27.8538 40.3952C28.041 40.4235 28.1933 40.4514 28.3107 40.4792C28.3721 40.496 28.4169 40.5171 28.4449 40.5422C28.4728 40.5674 28.4869 40.6108 28.4869 40.6724V41.4195C28.4869 41.4642 28.4714 41.4991 28.4407 41.5244C28.4099 41.5495 28.3721 41.562 28.3276 41.562H28.3107C28.1542 41.5455 28.0048 41.5314 27.8622 41.5202C27.7196 41.5092 27.5281 41.5033 27.2879 41.5033C27.1928 41.5033 27.1035 41.5188 27.0196 41.5495C26.9356 41.5803 26.8631 41.6335 26.8016 41.709C26.74 41.7846 26.6912 41.8852 26.6548 42.0112C26.6184 42.1371 26.6003 42.2924 26.6003 42.4771V43.1822C26.6003 43.3668 26.6184 43.5221 26.6548 43.6481C26.6912 43.774 26.74 43.8747 26.8016 43.9502C26.8631 44.0259 26.9356 44.079 27.0196 44.1097C27.1035 44.1405 27.1928 44.1559 27.2879 44.1559C27.5281 44.1559 27.7196 44.1503 27.8622 44.1392C28.0048 44.128 28.1542 44.1139 28.3107 44.0971H28.3276C28.3721 44.0971 28.4099 44.1097 28.4407 44.135C28.4714 44.1602 28.4869 44.1951 28.4869 44.2401ZM33.1407 42.5359C33.1407 42.2 33.0943 41.8979 33.0019 41.6293C32.9095 41.3607 32.7751 41.1327 32.5987 40.9452C32.4223 40.7578 32.2038 40.6122 31.9436 40.5087C31.6831 40.4053 31.3819 40.3534 31.0403 40.3534C30.6987 40.3534 30.3977 40.4053 30.1373 40.5087C29.8768 40.6122 29.6569 40.7578 29.4778 40.9452C29.2985 41.1327 29.1627 41.3607 29.0704 41.6293C28.9778 41.8979 28.9316 42.2 28.9316 42.5359V43.1235C28.9316 43.4592 28.9778 43.7614 29.0704 44.03C29.1627 44.2986 29.2985 44.5266 29.4778 44.7142C29.6569 44.9017 29.8768 45.0471 30.1373 45.1507C30.3977 45.254 30.6987 45.306 31.0403 45.306C31.3819 45.306 31.6831 45.254 31.9436 45.1507C32.2038 45.0471 32.4223 44.9017 32.5987 44.7142C32.7751 44.5266 32.9095 44.2986 33.0019 44.03C33.0943 43.7614 33.1407 43.4592 33.1407 43.1235V42.5359ZM31.0394 44.1558C31.534 44.1558 31.7814 43.8117 31.7814 43.1234V42.5358C31.7814 41.8531 31.534 41.5116 31.0394 41.5116C30.7948 41.5116 30.6087 41.597 30.4809 41.7677C30.353 41.9385 30.2891 42.1945 30.2891 42.5358V43.1234C30.2891 43.4647 30.353 43.7221 30.4809 43.8956C30.6087 44.0692 30.7948 44.1558 31.0394 44.1558ZM38.129 45.0541V42.2587C38.129 41.9961 38.1078 41.7482 38.0662 41.516C38.0242 41.284 37.9486 41.0823 37.8395 40.9115C37.7305 40.7409 37.5797 40.6051 37.387 40.5045C37.1941 40.4038 36.9467 40.3534 36.645 40.3534C36.3767 40.3534 36.1391 40.3858 35.9322 40.4507C35.7254 40.5155 35.5074 40.6297 35.2783 40.7932V40.5898C35.2783 40.5448 35.2616 40.5052 35.2278 40.4714C35.1946 40.4376 35.1552 40.4205 35.1107 40.4205H34.1716C34.1268 40.4205 34.0878 40.4372 34.0542 40.4709C34.0208 40.5045 34.0039 40.5437 34.0039 40.5884V45.0541C34.0039 45.0989 34.022 45.1395 34.0584 45.1758C34.0948 45.2122 34.1352 45.2303 34.1801 45.2303H35.1946C35.2391 45.2303 35.2783 45.2122 35.3119 45.1759C35.3453 45.1397 35.3622 45.0992 35.3622 45.0544V41.7545C35.5074 41.6764 35.6444 41.6122 35.7729 41.562C35.9016 41.5117 36.0273 41.4866 36.1504 41.4866C36.2789 41.4866 36.3837 41.4991 36.4646 41.5244C36.5456 41.5495 36.6086 41.5927 36.6533 41.6544C36.6981 41.7156 36.7287 41.7965 36.7456 41.8969C36.7623 41.9975 36.7707 42.1203 36.7707 42.2655V45.0544C36.7707 45.0992 36.7874 45.1397 36.821 45.1759C36.8546 45.2122 36.8936 45.2303 36.9383 45.2303H37.9528C37.9976 45.2303 38.0381 45.2122 38.0745 45.1758C38.1107 45.1395 38.129 45.0989 38.129 45.0541ZM41.7855 44.4233V45.073C41.7855 45.1673 41.7324 45.2229 41.6262 45.2392C41.4975 45.2616 41.3857 45.2781 41.2909 45.2893C41.1958 45.3004 41.0866 45.306 40.9639 45.306C40.7358 45.306 40.5344 45.2877 40.3594 45.2514C40.1845 45.215 40.0384 45.1437 39.9217 45.0374C39.8053 44.9311 39.7163 44.7841 39.6552 44.5966C39.5943 44.4092 39.5636 44.1674 39.5636 43.8706V41.4364L38.893 41.3271C38.8481 41.316 38.8077 41.295 38.7713 41.2642C38.7349 41.2335 38.7168 41.1957 38.7168 41.1509V40.5968C38.7168 40.5521 38.7349 40.5115 38.7713 40.4751C38.8077 40.4388 38.8481 40.4205 38.893 40.4205H39.5636V39.7322C39.5636 39.6874 39.5803 39.6512 39.6136 39.6231C39.6467 39.5952 39.6858 39.5757 39.7304 39.5644L40.747 39.3883H40.7719C40.8163 39.3883 40.8525 39.4007 40.8803 39.4258C40.908 39.4511 40.9219 39.4861 40.9219 39.5307V40.4205H41.6095C41.654 40.4205 41.6932 40.4375 41.7268 40.4713C41.7604 40.5051 41.7771 40.5448 41.7771 40.5898V41.2753C41.7771 41.3207 41.7604 41.3601 41.7268 41.3939C41.6932 41.4277 41.654 41.4446 41.6095 41.4446H40.9219V43.8873C40.9219 44.0552 40.9359 44.1631 40.9639 44.2105C40.9917 44.2581 41.0699 44.2818 41.1984 44.2818H41.6095C41.7268 44.2818 41.7855 44.329 41.7855 44.4233ZM46.2621 42.0658C46.2621 41.7581 46.2161 41.4963 46.1237 41.2809C46.0316 41.0656 45.9017 40.8892 45.7341 40.752C45.5664 40.615 45.361 40.5145 45.1177 40.45C44.8747 40.3857 44.6022 40.3534 44.3004 40.3534C44.0206 40.3534 43.7483 40.3731 43.483 40.4123C43.2173 40.4514 43.0063 40.4906 42.8499 40.5296C42.7434 40.5579 42.6906 40.6192 42.6906 40.7142V41.3942C42.6906 41.4503 42.7044 41.4895 42.7324 41.5117C42.7604 41.5342 42.7967 41.5455 42.8414 41.5455H42.8834C42.9506 41.5397 43.0343 41.5328 43.1349 41.5244C43.2356 41.516 43.3487 41.5092 43.4744 41.5033C43.6003 41.4979 43.7316 41.4937 43.8686 41.4908C44.0054 41.488 44.1411 41.4866 44.2751 41.4866C44.4708 41.4866 44.6245 41.523 44.7363 41.5957C44.8481 41.6685 44.904 41.8252 44.904 42.0658V42.368H44.4513C43.73 42.368 43.2061 42.4813 42.8792 42.7079C42.5522 42.9345 42.3887 43.2941 42.3887 43.7865V43.8624C42.3887 44.1364 42.4291 44.3658 42.5103 44.5504C42.591 44.7351 42.699 44.8835 42.833 44.9955C42.9673 45.1073 43.1194 45.1871 43.2901 45.2345C43.4605 45.2821 43.6379 45.306 43.8224 45.306C44.074 45.306 44.2904 45.2723 44.4722 45.2052C44.6538 45.1381 44.8254 45.0457 44.9879 44.9283V45.0625C44.9879 45.1073 45.0046 45.1465 45.0382 45.1799C45.0716 45.2136 45.1108 45.2303 45.1555 45.2303H46.0946C46.1392 45.2303 46.1784 45.2136 46.212 45.1799C46.2454 45.1465 46.2621 45.1073 46.2621 45.0625V42.0658ZM44.6058 44.2272C44.7202 44.1909 44.828 44.1475 44.9286 44.0971V43.1738H44.4507C44.3053 43.1738 44.1852 43.1864 44.0902 43.2115C43.9951 43.2368 43.9195 43.2746 43.8638 43.325C43.8078 43.3752 43.7686 43.4396 43.7465 43.5179C43.724 43.5963 43.7129 43.6858 43.7129 43.7865V43.8623C43.7129 44.0412 43.7561 44.1559 43.8428 44.2062C43.9295 44.2566 44.0621 44.2817 44.2411 44.2817C44.3696 44.2817 44.4909 44.2638 44.6058 44.2272ZM50.3873 44.987V44.2401C50.3873 44.1951 50.3718 44.1602 50.3411 44.135C50.3103 44.1097 50.2727 44.0971 50.228 44.0971H50.2112C50.0547 44.1139 49.9052 44.128 49.7626 44.1392C49.6202 44.1503 49.4287 44.1559 49.1884 44.1559C49.0932 44.1559 49.0037 44.1405 48.9201 44.1097C48.8362 44.079 48.7634 44.0259 48.702 43.9502C48.6405 43.8747 48.5916 43.774 48.5554 43.6481C48.5188 43.5221 48.5009 43.3668 48.5009 43.1822V42.4771C48.5009 42.2924 48.5188 42.1371 48.5554 42.0112C48.5916 41.8852 48.6405 41.7846 48.702 41.709C48.7634 41.6335 48.8362 41.5803 48.9201 41.5495C49.0037 41.5188 49.0932 41.5033 49.1884 41.5033C49.4287 41.5033 49.6202 41.5092 49.7626 41.5202C49.9052 41.5314 50.0547 41.5455 50.2112 41.562H50.228C50.2727 41.562 50.3103 41.5495 50.3411 41.5244C50.3718 41.4991 50.3873 41.4642 50.3873 41.4195V40.6724C50.3873 40.6108 50.3733 40.5674 50.3453 40.5422C50.3171 40.5171 50.2727 40.496 50.2112 40.4792C50.0939 40.4514 49.9414 40.4235 49.7542 40.3952C49.5669 40.3673 49.3477 40.3534 49.0961 40.3534C48.5033 40.3534 48.03 40.5352 47.675 40.8991C47.32 41.2627 47.1426 41.7888 47.1426 42.4771V43.1822C47.1426 43.8705 47.32 44.3966 47.675 44.7602C48.03 45.1242 48.5033 45.306 49.0961 45.306C49.3477 45.306 49.5669 45.2918 49.7542 45.2641C49.9414 45.2359 50.0939 45.208 50.2112 45.1799C50.2727 45.1632 50.3171 45.1423 50.3453 45.117C50.3733 45.0919 50.3873 45.0485 50.3873 44.987ZM54.0003 44.4233V45.073C54.0003 45.1673 53.947 45.2229 53.841 45.2392C53.7124 45.2616 53.6006 45.2781 53.5057 45.2893C53.4105 45.3004 53.3015 45.306 53.1787 45.306C52.9507 45.306 52.7492 45.2877 52.5743 45.2514C52.3991 45.215 52.2532 45.1437 52.1368 45.0374C52.0201 44.9311 51.9311 44.7841 51.87 44.5966C51.8091 44.4092 51.7785 44.1674 51.7785 43.8706V41.4364L51.1078 41.3271C51.0629 41.316 51.0225 41.295 50.9861 41.2642C50.9497 41.2335 50.9316 41.1957 50.9316 41.1509V40.5968C50.9316 40.5521 50.9497 40.5115 50.9861 40.4751C51.0225 40.4388 51.0629 40.4205 51.1078 40.4205H51.7785V39.7322C51.7785 39.6874 51.7952 39.6512 51.8284 39.6231C51.8615 39.5952 51.9005 39.5757 51.9451 39.5644L52.9616 39.3883H52.9867C53.0311 39.3883 53.0673 39.4007 53.0948 39.4258C53.1229 39.4511 53.1368 39.4861 53.1368 39.5307V40.4205H53.8243C53.8689 40.4205 53.908 40.4375 53.9416 40.4713C53.9751 40.5051 53.992 40.5448 53.992 40.5898V41.2753C53.992 41.3207 53.9751 41.3601 53.9416 41.3939C53.908 41.4277 53.8689 41.4446 53.8243 41.4446H53.1368V43.8873C53.1368 44.0552 53.1507 44.1631 53.1787 44.2105C53.2066 44.2581 53.2848 44.2818 53.4134 44.2818H53.8243C53.9416 44.2818 54.0003 44.329 54.0003 44.4233Z" fill="#0B83DE"/>
</svg>
