<svg width="40" height="40" viewBox="0 0 40 40" fill="none" xmlns="http://www.w3.org/2000/svg">
<rect width="40" height="40" rx="20" fill="#F7931A"/>
<path fill-rule="evenodd" clip-rule="evenodd" d="M28.8217 17.1506C29.2197 14.489 27.1934 13.0583 24.4225 12.1039L25.3214 8.49857L23.1268 7.95171L22.2517 11.4621C21.6748 11.3182 21.0822 11.1826 20.4933 11.0482L21.3747 7.51463L19.1814 6.96777L18.2821 10.5719C17.8046 10.4632 17.3357 10.3558 16.8807 10.2426L16.8832 10.2312L13.8567 9.47547L13.2729 11.8195C13.2729 11.8195 14.9012 12.1928 14.8669 12.2157C15.7556 12.4375 15.9163 13.0258 15.8896 13.4922L14.8657 17.5995C14.9269 17.615 15.0063 17.6375 15.0939 17.6727L15.0302 17.6568L15.0301 17.6568C14.976 17.6432 14.9197 17.6291 14.8619 17.6153L13.4267 23.3691C13.3181 23.6391 13.0424 24.0443 12.4211 23.8904C12.4431 23.9223 10.8259 23.4923 10.8259 23.4923L9.73633 26.0045L12.5923 26.7165C12.9051 26.7949 13.2142 26.8755 13.5201 26.9552L13.5203 26.9553C13.734 27.011 13.9462 27.0663 14.1571 27.1202L13.2489 30.7669L15.441 31.3138L16.3404 27.7058C16.9392 27.8684 17.5204 28.0183 18.0894 28.1597L17.193 31.7506L19.3878 32.2975L20.2959 28.6577C24.0383 29.3659 26.8522 29.0804 28.0367 25.6954C28.9911 22.9701 27.9891 21.3982 26.0203 20.3731C27.4543 20.0423 28.5344 19.0992 28.8224 17.1509L28.8218 17.1504L28.8217 17.1506ZM23.8073 24.1819C23.1851 26.6823 19.2713 25.6486 17.4806 25.1756L17.4806 25.1756C17.3195 25.1331 17.1756 25.0951 17.0528 25.0646L18.258 20.2334C18.4076 20.2707 18.5905 20.3118 18.7977 20.3582C20.6499 20.7739 24.4449 21.6256 23.8074 24.1819H23.8073ZM19.1684 18.1165C20.6613 18.5149 23.9181 19.3841 24.4853 17.1115H24.4855C25.0647 14.7873 21.8996 14.0866 20.3538 13.7443C20.1799 13.7058 20.0265 13.6719 19.9012 13.6406L18.8086 18.0222C18.9118 18.048 19.0328 18.0803 19.1684 18.1165Z" fill="white"/>
</svg>
