<svg width="64" height="52" viewBox="0 0 64 52" fill="none" xmlns="http://www.w3.org/2000/svg">
<rect width="64" height="64" rx="32" fill="white"/>
<path fill-rule="evenodd" clip-rule="evenodd" d="M57.1098 29.1123C59.2132 29.1123 60.3701 30.0484 60.3701 31.8165C60.4752 33.1686 59.5287 34.3127 58.2666 34.5207L61.1063 38.369H58.8977L56.4787 34.6247H56.2684V38.369H54.4805V29.1123H57.1098ZM56.2695 33.3767H56.7954C57.9523 33.3767 58.4781 32.8567 58.4781 31.9206C58.4781 31.0885 57.9523 30.5685 56.7954 30.5685H56.2695V33.3767ZM48.2772 38.3692H53.3255V36.8091H50.0652V34.3129H53.2203V32.7527H50.0652V30.6726H53.3255V29.1125H48.2772V38.3692ZM43.0171 35.3529L40.5982 29.1124H38.7051L42.5964 38.5772H43.543L47.4343 29.1124H45.5412L43.0171 35.3529ZM21.668 33.7928C21.668 36.393 23.7714 38.5772 26.4007 38.5772C27.242 38.5772 27.9782 38.3692 28.7144 38.0572V35.977C28.1886 36.6011 27.4524 37.0171 26.611 37.0171C24.9283 37.0171 23.5611 35.769 23.5611 34.1049V33.8969C23.4559 32.2327 24.8231 30.7766 26.5058 30.6726C27.3472 30.6726 28.1886 31.0886 28.7144 31.7127V29.6325C28.0834 29.2165 27.242 29.1125 26.5058 29.1125C23.7714 28.9045 21.668 31.0886 21.668 33.7928ZM18.4079 32.6488C17.3561 32.2328 17.0406 32.0248 17.0406 31.5047C17.1458 30.8807 17.6717 30.3606 18.3027 30.4646C18.8285 30.4646 19.3544 30.7767 19.7751 31.1927L20.7216 29.9446C19.9854 29.3206 19.0389 28.9045 18.0923 28.9045C16.6199 28.8005 15.3579 29.9446 15.2527 31.4007V31.5047C15.2527 32.7528 15.7786 33.4809 17.4613 34.0009C17.882 34.1049 18.3027 34.3129 18.7234 34.521C19.0389 34.729 19.2492 35.041 19.2492 35.457C19.2492 36.1851 18.6182 36.8091 17.9872 36.8091H17.882C17.0406 36.8091 16.3044 36.2891 15.9889 35.561L14.832 36.7051C15.4631 37.8492 16.7251 38.4733 17.9872 38.4733C19.6699 38.5773 21.0371 37.3292 21.1423 35.665V35.353C21.0371 34.1049 20.5113 33.4809 18.4079 32.6488ZM12.3087 38.3692H14.0966V29.1125H12.3087V38.3692ZM4 29.1125H6.62928H7.15514C9.67925 29.2165 11.6775 31.2966 11.5723 33.7928C11.5723 35.1449 10.9413 36.393 9.88959 37.3291C8.94305 38.0572 7.78617 38.4732 6.62928 38.3692H4V29.1125ZM6.31492 36.809C7.15629 36.913 8.10283 36.601 8.73386 36.081C9.36489 35.4569 9.6804 34.6249 9.6804 33.6888C9.6804 32.8567 9.36489 32.0247 8.73386 31.4006C8.10283 30.8806 7.15629 30.5685 6.31492 30.6726H5.78906V36.809H6.31492Z" fill="black"/>
<path fill-rule="evenodd" clip-rule="evenodd" d="M34.0801 28.8979C31.4508 28.8979 29.2422 30.9781 29.2422 33.6823C29.2422 36.2825 31.3456 38.4667 34.0801 38.5707C36.8145 38.6747 38.9179 36.4905 39.0231 33.7863C38.9179 31.0821 36.8145 28.8979 34.0801 28.8979V28.8979Z" fill="#FD6020"/>
</svg>
