<svg width="64" height="64" viewBox="0 0 64 64" fill="none" xmlns="http://www.w3.org/2000/svg">
<rect width="64" height="64" rx="32" fill="white"/>
<path d="M13.6481 26.2559C14.2235 26.0672 14.839 25.9648 15.4795 25.9648C18.2746 25.9648 20.6061 27.9125 21.141 30.4999L25.1019 29.7076C24.193 25.3102 20.2308 22 15.4795 22C14.3917 22 13.3446 22.1738 12.3672 22.4941L13.6481 26.2559Z" fill="#FECA2F"/>
<path d="M8.93453 38.9998L11.3061 35.9376C10.2475 34.8669 9.57936 33.3036 9.57936 31.5612C9.57936 29.82 10.2469 28.2568 11.3052 27.1868L8.93236 24.125C7.13355 25.9442 6 28.6015 6 31.5612C6 34.5224 7.13521 37.1807 8.93453 38.9998Z" fill="#1BA7DE"/>
<path d="M21.1422 32.625C20.6055 35.212 18.2755 37.1573 15.4828 37.1573C14.8421 37.1573 14.2254 37.0545 13.6499 36.8653L12.3672 40.629C13.3461 40.9508 14.3935 41.1249 15.4828 41.1249C20.2298 41.1249 24.1894 37.817 25.1019 33.4212L21.1422 32.625Z" fill="#EC412A"/>
<path fill-rule="evenodd" clip-rule="evenodd" d="M44.1585 24.125V35.0075L46.1114 35.7903L45.1875 37.9367L43.2563 37.1605C42.822 36.9784 42.5281 36.7009 42.3049 36.3876C42.0905 36.067 41.9315 35.6288 41.9315 35.0375V24.125H44.1585ZM29.3483 32.2131C29.3968 29.101 32.047 26.6168 35.263 26.6645C37.9925 26.7059 40.2541 28.5546 40.8481 31.0135L30.2912 35.3766C29.678 34.4701 29.3295 33.3795 29.3483 32.2131ZM31.7638 32.6494C31.7494 32.5189 31.7391 32.385 31.743 32.2499C31.7733 30.4164 33.3336 28.9533 35.2283 28.9837C36.2596 28.997 37.1754 29.4537 37.7944 30.1605L31.7638 32.6494ZM37.5716 34.6699C36.9354 35.2684 36.0726 35.633 35.1199 35.6199C34.4669 35.6094 33.8619 35.4203 33.3475 35.1054L32.0721 37.0703C32.9456 37.6042 33.9754 37.9201 35.0856 37.9367C36.7017 37.9599 38.1747 37.346 39.2458 36.3324L37.5716 34.6699ZM52.2888 28.9838C51.9084 28.9838 51.5428 29.0432 51.2013 29.1541L50.4414 26.9522C51.0214 26.7649 51.6425 26.6632 52.2888 26.6632C55.1094 26.6632 57.4624 28.6006 58.002 31.1743L55.6497 31.6381C55.3327 30.1234 53.9484 28.9838 52.2888 28.9838ZM48.4246 36.5224L50.0141 34.7843C49.3042 34.1766 48.8572 33.289 48.8572 32.2997C48.8572 31.3114 49.3042 30.4242 50.0134 29.8169L48.4228 28.0788C47.2169 29.1115 46.4571 30.6205 46.4571 32.2997C46.4571 33.981 47.2175 35.4894 48.4246 36.5224ZM52.2878 35.617C53.9459 35.617 55.33 34.4784 55.6488 32.9659L58.0004 33.4316C57.4582 36.0026 55.1059 37.9374 52.2878 37.9374C51.6409 37.9374 51.0191 37.8353 50.4375 37.6472L51.1992 35.446C51.5413 35.5566 51.9072 35.617 52.2878 35.617Z" fill="black"/>
</svg>
