<svg width="64" height="64" viewBox="0 0 64 64" fill="none" xmlns="http://www.w3.org/2000/svg">
<rect width="64" height="64" rx="32" fill="white"/>
<g clip-path="url(#clip0_456_25888)">
<path d="M46.9914 31.5H42.9292C42.4774 31.5 42.1098 31.1442 42.1098 30.6989C42.1098 30.2535 42.4774 29.8615 42.9292 29.8615H49.1137V26.8467H42.9292C40.7707 26.8467 39.0145 28.5857 39.0145 30.7135C39.0145 32.8413 40.7707 34.5803 42.9292 34.5803H46.9363C47.3881 34.5803 47.7557 34.9346 47.7557 35.3799C47.7557 35.8253 47.388 36.1532 46.9363 36.1532H38.3437C37.6141 37.5296 36.9048 38.7093 35.4648 39.2991H46.9914C49.1137 39.2689 50.8497 37.494 50.8497 35.385C50.8497 33.2762 49.1137 31.5302 46.9914 31.5Z" fill="#838383"/>
<path d="M31.4188 26.8467C27.9758 26.8467 25.1716 29.6344 25.1716 33.0598V45.9841H28.2887V39.2991H31.4123C34.8553 39.2991 37.6496 36.4743 37.6496 33.0489C37.6495 29.6235 34.8618 26.8467 31.4188 26.8467ZM31.4188 36.1532H28.2887V33.0489C28.2887 31.3142 29.6862 29.9029 31.4188 29.9029C33.1514 29.9029 34.5608 31.3142 34.5608 33.0489C34.5608 34.7837 33.1514 36.1532 31.4188 36.1532Z" fill="#838383"/>
<path d="M15.3034 39.299C12.3562 39.299 9.87835 37.2235 9.20786 34.5122C9.20786 34.5122 9.01414 33.6158 9.01414 33.0254C9.01414 32.4351 9.19751 31.5294 9.19751 31.5294C9.87285 28.8248 12.3476 26.8108 15.2901 26.8108C18.7507 26.8108 21.5904 29.5908 21.5904 33.0106V34.5146H12.3961C12.9391 35.5632 14.0371 36.1531 15.3034 36.1531H23.5686L23.58 27.2844C23.58 25.9622 22.4854 24.8804 21.1474 24.8804H9.43275C8.09474 24.8804 7 25.9294 7 27.2516V38.8283C7 40.1506 8.09474 41.2651 9.43275 41.2651H21.1474C22.3481 41.2651 23.3497 40.4131 23.5432 39.299H15.3034Z" fill="#C8036F"/>
<path d="M15.2903 29.7539C14.0289 29.7539 12.9319 30.517 12.3867 31.5001H18.194C17.6488 30.517 16.5519 29.7539 15.2903 29.7539Z" fill="#C8036F"/>
<path d="M20.5959 21.1159C20.5959 18.2905 18.2198 16 15.2888 16C12.4064 16 10.062 18.2155 9.98501 20.9763C9.98375 20.9879 9.98475 20.9993 9.98475 21.0113V22.5487C9.98475 22.7326 10.1363 22.9144 10.327 22.9144H12.2795C12.4703 22.9144 12.6375 22.7326 12.6375 22.5487V21.1159C12.6375 19.705 13.8267 18.5571 15.2903 18.5571C16.754 18.5571 17.9431 19.705 17.9431 21.1159V22.5487C17.9431 22.7326 18.0979 22.9144 18.2886 22.9144H20.2412C20.4319 22.9144 20.5959 22.7326 20.5959 22.5487V21.1159Z" fill="#C8036F"/>
<path d="M34.9162 43.2969L34.634 44.8762C34.4928 45.6745 33.9635 46.0401 33.2461 46.0401C32.6385 46.0401 32.168 45.6487 32.3052 44.8775L32.5874 43.2969H33.0227L32.7403 44.8763C32.654 45.3686 32.8775 45.6488 33.3009 45.6488C33.7361 45.6488 34.1086 45.393 34.1986 44.8775L34.481 43.2969H34.9162V43.2969ZM33.2068 42.8023C33.2068 42.934 33.3088 42.9959 33.4186 42.9959C33.5558 42.9959 33.7048 42.8991 33.7048 42.717C33.7048 42.5892 33.6184 42.5234 33.5047 42.5234C33.3638 42.5234 33.2068 42.6125 33.2068 42.8023ZM34.1478 42.7984C34.1478 42.934 34.2537 42.9959 34.3674 42.9959C34.4889 42.9959 34.6498 42.8991 34.6498 42.721C34.6498 42.5932 34.5555 42.5234 34.4497 42.5234C34.3086 42.5234 34.1478 42.6125 34.1478 42.7984Z" fill="#838383"/>
<path d="M35.9681 43.2969L35.772 44.3882C35.9405 44.1636 36.2777 44.0449 36.5129 44.0449C36.9991 44.0449 37.3362 44.3264 37.3362 44.8492C37.3362 45.5892 36.8148 46.0342 36.1485 46.0342C35.8897 46.0342 35.67 45.9392 35.5368 45.6991L35.4623 45.984H35.082L35.5642 43.2969H35.9681ZM35.6623 45.1387C35.6467 45.4563 35.8544 45.6617 36.1562 45.6617C36.5365 45.6617 36.905 45.3709 36.9286 44.9295C36.9442 44.6079 36.7326 44.4179 36.4384 44.4179C36.062 44.4179 35.6857 44.7163 35.6623 45.1387Z" fill="#838383"/>
<path d="M38.1287 45.1977C38.113 45.4598 38.3208 45.6739 38.6736 45.6739C38.8697 45.6739 39.1283 45.5982 39.2695 45.4664L39.489 45.7172C39.25 45.9341 38.8971 46.0419 38.5992 46.0419C38.0425 46.0419 37.717 45.7125 37.717 45.2088C37.717 44.5385 38.2502 44.0391 38.9323 44.0391C39.5557 44.0391 39.9086 44.4112 39.6968 45.1977H38.1287ZM39.3675 44.87C39.3989 44.5423 39.2029 44.4089 38.8774 44.4089C38.5834 44.4089 38.313 44.5423 38.1953 44.87H39.3675Z" fill="#838383"/>
<path d="M40.776 44.0835L40.7563 44.3361C40.9447 44.0917 41.172 44.042 41.3797 44.042C41.5678 44.042 41.7364 44.108 41.8266 44.2047L41.5836 44.5535C41.4973 44.4762 41.4111 44.4375 41.262 44.4375C40.9837 44.4375 40.7093 44.6024 40.6466 44.955L40.4625 45.9841H40.0586L40.3997 44.0835H40.776Z" fill="#838383"/>
<path d="M43.772 44.0835L43.9758 45.5866L44.7129 44.0835H45.1637L44.1522 45.9841H43.6779L43.4859 44.7303L43.1761 45.3532L42.839 45.9841H42.3685L42.0273 44.0835H42.4822L42.6821 45.5866L43.423 44.0835H43.772Z" fill="#838383"/>
<path d="M45.6812 45.1977C45.6655 45.4598 45.8732 45.6739 46.2261 45.6739C46.4222 45.6739 46.6808 45.5982 46.8219 45.4664L47.0415 45.7172C46.8025 45.9341 46.4496 46.0419 46.1517 46.0419C45.595 46.0419 45.2695 45.7125 45.2695 45.2088C45.2695 44.5385 45.8027 44.0391 46.4848 44.0391C47.1082 44.0391 47.4611 44.4112 47.2493 45.1977H45.6812ZM46.92 44.87C46.9513 44.5423 46.7554 44.4089 46.4299 44.4089C46.1359 44.4089 45.8654 44.5423 45.7477 44.87H46.92Z" fill="#838383"/>
<path d="M48.3561 44.0833L48.0151 45.9839H47.6112L47.9524 44.0833H48.3561ZM47.9994 43.5655C47.9994 43.7011 48.1014 43.7711 48.2111 43.7711C48.3679 43.7711 48.513 43.6702 48.513 43.4805C48.513 43.3525 48.4149 43.2788 48.3092 43.2788C48.164 43.2788 47.9994 43.3719 47.9994 43.5655Z" fill="#838383"/>
<path d="M50.1484 44.5537C50.0228 44.4143 49.8623 44.3755 49.6702 44.3755C49.4034 44.3755 49.2153 44.4647 49.2153 44.6312C49.2153 44.7707 49.3682 44.829 49.5956 44.8483C49.9484 44.8792 50.3993 44.9955 50.3052 45.4875C50.2386 45.8439 49.8779 46.0531 49.376 46.0531C49.0624 46.0531 48.7605 45.9833 48.5566 45.7006L48.8193 45.4178C48.9643 45.6153 49.2192 45.6967 49.4465 45.7006C49.6386 45.7006 49.8661 45.6309 49.9013 45.4527C49.9366 45.2822 49.7837 45.2164 49.5014 45.1891C49.1721 45.1581 48.8115 45.0382 48.8115 44.6778C48.8115 44.2013 49.3328 44.0347 49.7249 44.0347C50.0228 44.0347 50.2424 44.1005 50.4227 44.2903L50.1484 44.5537Z" fill="#838383"/>
<path d="M51.4232 44.0835L51.2391 45.107C51.1803 45.4326 51.3293 45.6574 51.6664 45.6574C51.9839 45.6574 52.2544 45.3974 52.3092 45.0798L52.4856 44.0835H52.8894L52.5485 45.9841H52.1839L52.2113 45.7087C51.9838 45.9218 51.7604 46.0223 51.49 46.0223C51.0156 46.0223 50.7333 45.6862 50.8352 45.1091L51.0195 44.0835H51.4232Z" fill="#838383"/>
<path d="M54.6615 45.9842L54.8457 44.9669C54.9045 44.6376 54.791 44.4194 54.4224 44.4194C54.1009 44.4194 53.8303 44.675 53.7755 44.9888L53.5991 45.9842H53.1953L53.5365 44.0836H53.9049L53.8775 44.3613C54.101 44.156 54.3322 44.0547 54.5831 44.0547C55.0537 44.0547 55.3595 44.3782 55.2537 44.9633L55.0692 45.9842H54.6615Z" fill="#838383"/>
<path d="M56.0312 46.2464C56.0038 46.5085 56.2076 46.6146 56.5489 46.6146C56.8469 46.6146 57.1684 46.4501 57.2429 46.0318L57.3016 45.7054C57.1252 45.9495 56.8037 46.0458 56.5647 46.0458C56.0706 46.0458 55.7257 45.7551 55.7257 45.228C55.7257 44.4765 56.2901 44.0425 56.9291 44.0425C57.1998 44.0425 57.4428 44.1695 57.5291 44.3864L57.5958 44.0835H57.9878L57.6506 46.0406C57.5252 46.7652 56.9803 46.99 56.4824 46.99C55.8864 46.99 55.5572 46.705 55.6394 46.2462H56.0312V46.2464ZM56.145 45.1506C56.145 45.4758 56.3606 45.6735 56.6706 45.6735C57.5054 45.6735 57.729 44.4066 56.8938 44.4066C56.4978 44.4067 56.145 44.6971 56.145 45.1506Z" fill="#838383"/>
</g>
<defs>
<clipPath id="clip0_456_25888">
<rect width="51" height="31" fill="white" transform="translate(7 16)"/>
</clipPath>
</defs>
</svg>
