<svg width="64" height="64" viewBox="0 0 64 64" fill="none" xmlns="http://www.w3.org/2000/svg">
<rect width="64" height="64" rx="32" fill="white"/>
<path d="M39.5899 32.1561C39.5899 33.5359 38.8482 34.6751 37.4632 34.6751C36.869 34.714 36.3015 34.4225 35.9867 33.9171H35.9686V36.4457H34.3594V29.9138H35.8436V30.7538H35.8617C36.2058 30.126 36.8828 29.756 37.5969 29.8051C38.7922 29.8983 39.6847 30.9427 39.5916 32.1371C39.5907 32.1431 39.5907 32.15 39.5899 32.1561Z" fill="white"/>
<path d="M44.9358 33.4689C44.9289 33.8371 44.9583 34.2054 45.0221 34.5676H43.5474C43.5387 34.3183 43.5111 34.076 43.5111 33.8354H43.493C43.2033 34.3753 42.6306 34.7012 42.0183 34.6754C41.0973 34.6754 40.2754 34.2192 40.2754 33.2093C40.2754 31.7889 41.8217 31.619 42.6806 31.619C42.9325 31.6199 43.1834 31.6406 43.4309 31.6811C43.4214 31.0464 42.948 30.8773 42.3667 30.8773C41.851 30.8644 41.3405 30.9834 40.8825 31.2223L40.8549 30.1322C41.4474 29.9002 42.0795 29.7881 42.7151 29.8019C43.9053 29.8019 44.9332 30.3099 44.9332 31.7303L44.9358 33.4689Z" fill="white"/>
<path d="M37.5968 29.8051C36.8828 29.756 36.2058 30.1268 35.8617 30.7538H35.8436V29.9138H34.3594V36.4457H35.9686V33.9171H35.9867C36.3024 34.4225 36.869 34.7139 37.4632 34.6751C38.8482 34.6751 39.5899 33.5324 39.5899 32.156C39.6942 30.9625 38.8103 29.9103 37.6158 29.8069C37.6098 29.806 37.6037 29.8051 37.5968 29.8051ZM44.9446 33.4678V31.7343C44.9446 30.3139 43.9174 29.806 42.7264 29.806C42.0908 29.7922 41.4587 29.9043 40.8662 30.1363L40.8938 31.2264C41.3518 30.9875 41.8623 30.8685 42.378 30.8814C42.9593 30.8814 43.4328 31.0539 43.4422 31.6852C43.1947 31.6446 42.9438 31.6239 42.6919 31.6231C41.8295 31.6231 40.2867 31.7956 40.2867 33.2134C40.2867 34.2224 41.1086 34.6794 42.0296 34.6794C42.6419 34.7053 43.2146 34.3793 43.5043 33.8395H43.5224C43.5224 34.0801 43.55 34.3216 43.5587 34.5716H45.0308C44.9661 34.2069 44.9377 33.8377 44.9446 33.4678Z" fill="#0B3677"/>
<path d="M49.273 33.6361L49.0341 34.2397C48.577 35.4092 48.2286 36.5441 46.7539 36.5441C46.4167 36.5441 46.0812 36.5087 45.7526 36.4372L45.8604 35.2117C46.0648 35.2807 46.2796 35.3143 46.4952 35.3109C46.885 35.3177 47.2256 35.0478 47.3084 34.6666L45.4223 29.9053H47.1558L48.157 32.9435H48.1751L49.1307 29.9053H50.7408L49.273 33.6361ZM43.5544 34.5631C43.5457 34.313 43.5181 34.0716 43.5181 33.831H43.5C43.2103 34.3708 42.6368 34.6968 42.0253 34.6709C41.1043 34.6709 40.2824 34.2147 40.2824 33.2049C40.2824 31.7845 41.8287 31.6146 42.6876 31.6146C42.9386 31.6154 43.1896 31.6361 43.4379 31.6767C43.4285 31.0419 42.955 30.8729 42.3737 30.8729C41.8572 30.86 41.3466 30.9781 40.8895 31.2179L40.8619 30.1278C41.4544 29.8958 42.0865 29.7837 42.7221 29.7975C43.9123 29.7975 44.9403 30.3054 44.9403 31.7258V33.4593C44.9334 33.8275 44.9618 34.1949 45.0265 34.558L43.5544 34.5631ZM37.458 34.6701C36.8638 34.7089 36.2964 34.4174 35.9816 33.912H35.9635V36.4389H34.3542V29.907H35.8384V30.747H35.8565C36.2006 30.1192 36.8776 29.7492 37.5917 29.7983C38.7861 29.8924 39.6787 30.9367 39.5847 32.1312C39.5847 32.1363 39.5838 32.1415 39.5838 32.1467C39.5847 33.5231 38.8439 34.6658 37.4589 34.6658L37.458 34.6701ZM32.8278 40.2757H13.659C12.6423 40.2749 11.8187 39.4513 11.8169 38.4353V26.2151C11.8178 25.1983 12.6423 24.3747 13.659 24.3747H32.8278V40.2757ZM50.3467 23H13.659C11.8833 22.9991 10.4423 24.4376 10.4414 26.2142V38.4353C10.4431 40.211 11.8833 41.6495 13.659 41.6504H50.3441C52.1198 41.6504 53.5609 40.2119 53.5617 38.4353V26.2151C53.5617 24.4394 52.1224 23 50.3467 23Z" fill="#0B3677"/>
<path d="M36.9526 33.4419C36.3524 33.3859 35.9117 32.8537 35.9678 32.2535C35.9678 31.5558 36.3619 31.0392 36.9526 31.0392C37.521 31.066 37.9599 31.5472 37.9332 32.1155C37.9323 32.1405 37.9297 32.1664 37.9272 32.1914C37.9272 32.9314 37.5606 33.4419 36.9535 33.4419H36.9526ZM37.5969 29.8051C36.8828 29.756 36.2058 30.126 35.8617 30.7538H35.8436V29.9138H34.3594V36.4457H35.9686V33.9171H35.9867C36.3015 34.4225 36.869 34.714 37.4632 34.6752C38.8482 34.6752 39.5899 33.5325 39.5899 32.1561C39.6934 30.9625 38.8094 29.9104 37.6158 29.8069C37.6098 29.806 37.6029 29.8051 37.5969 29.8051Z" fill="white"/>
<path d="M42.4383 33.5974C42.0623 33.5974 41.776 33.4102 41.776 33.0885C41.776 32.641 42.2072 32.4719 42.7514 32.4719C42.992 32.4719 43.2248 32.4883 43.4301 32.4978C43.4594 33.0747 43.0153 33.5672 42.4383 33.5974ZM44.9332 33.4637V31.7303C44.9332 30.3099 43.9061 29.8019 42.7151 29.8019C42.0787 29.7881 41.4474 29.9002 40.8549 30.1322L40.8825 31.2223C41.3396 30.9826 41.8501 30.8644 42.3667 30.8773C42.948 30.8773 43.4214 31.0498 43.4309 31.6811C43.1826 31.6406 42.9316 31.6199 42.6806 31.619C41.8182 31.619 40.2754 31.7915 40.2754 33.2093C40.2754 34.2183 41.0973 34.6754 42.0183 34.6754C42.6298 34.7012 43.2033 34.3744 43.493 33.8354H43.5111C43.5111 34.076 43.5387 34.3175 43.5474 34.5676H45.0221C44.9565 34.2036 44.9263 33.8337 44.9332 33.4637Z" fill="white"/>
<path d="M50.7503 29.9083L49.2842 33.6365L49.0454 34.2402C48.5883 35.4096 48.2399 36.5446 46.7651 36.5446C46.4288 36.5446 46.0933 36.5092 45.7639 36.4376L45.8717 35.2121C46.0761 35.2811 46.2908 35.3156 46.5064 35.3113C46.8962 35.3182 47.2369 35.0483 47.3197 34.6671L45.4336 29.9058H47.167L48.1683 32.944H48.1864L49.1419 29.9058L50.7503 29.9083Z" fill="white"/>
<path d="M19.2569 29.9094H17.7994V30.7494H17.7822C17.4657 30.169 16.8603 29.806 16.1997 29.8008C14.7517 29.8008 14.0988 30.8357 14.0988 32.2224C13.9617 33.3694 14.781 34.4112 15.928 34.5483C16.0091 34.5578 16.091 34.563 16.1729 34.563C16.7965 34.5854 17.3881 34.2844 17.7373 33.7679H17.7555V34.0188C17.7555 34.9304 17.2553 35.3676 16.3247 35.3676C15.7754 35.3762 15.2338 35.2443 14.7508 34.9838L14.6706 36.2524C15.2433 36.4491 15.8444 36.5491 16.4498 36.5474C18.3272 36.5474 19.2569 35.9308 19.2569 34.0188V29.9094ZM15.7607 32.1965C15.7607 31.5627 16.0738 31.0349 16.6723 31.0349C17.2346 31.028 17.6959 31.4782 17.7037 32.0405C17.7037 32.0715 17.7028 32.1025 17.7003 32.1336C17.7623 32.7312 17.3277 33.2659 16.73 33.3272C16.7111 33.3289 16.6912 33.3306 16.6723 33.3315C16.1893 33.3315 15.7607 32.9201 15.7607 32.1965Z" fill="#E20613"/>
<path d="M20.3583 34.5627H21.9675V29.9057H20.3583V34.5627ZM21.9667 27.9688H20.3574V29.1485H21.9667V27.9688Z" fill="#E20613"/>
<path d="M26.4638 29.8536C26.2835 29.8216 26.1016 29.8044 25.9187 29.801C25.2987 29.7915 24.7424 30.1795 24.5389 30.7651H24.5208V29.9079H23.0547V34.5649H24.6639V32.5977C24.6639 31.6862 25.0848 31.1411 25.836 31.1411C26.0188 31.1316 26.2025 31.1498 26.381 31.1946L26.4638 29.8536Z" fill="#E20613"/>
<path d="M29.236 34.6629C30.5805 34.5189 31.5542 33.3124 31.4102 31.9679C31.2662 30.6234 30.0596 29.6506 28.7152 29.7938C27.469 29.9274 26.5246 30.9796 26.5272 32.2326C26.5238 33.5806 27.6139 34.675 28.9618 34.6776C29.0532 34.6784 29.1455 34.6733 29.236 34.6629ZM28.9756 33.5375C28.2331 33.5375 27.9295 32.9217 27.9295 32.2335C27.9295 31.5453 28.2331 30.9201 28.9756 30.9201C29.7181 30.9201 30.0217 31.5367 30.0217 32.2335C30.0217 32.9303 29.7173 33.5375 28.9756 33.5375Z" fill="#E20613"/>
</svg>
