<svg width="40" height="16" viewBox="0 0 40 16" fill="none" xmlns="http://www.w3.org/2000/svg">
<path d="M12.9485 6.80608C12.9491 6.35265 12.911 5.9 12.8348 5.45312H6.60547V8.01579H10.1733C10.1003 8.42508 9.94579 8.81524 9.71906 9.16276C9.49233 9.51027 9.19808 9.80794 8.85407 10.0378V11.7013H10.9834C12.2302 10.5433 12.9485 8.83088 12.9485 6.80608Z" fill="#4285F4"/>
<path d="M6.60491 13.3081C8.38746 13.3081 9.88836 12.7185 10.9829 11.702L8.85351 10.0385C8.26086 10.4433 7.49756 10.6743 6.60491 10.6743C4.88199 10.6743 3.41961 9.50433 2.89668 7.92773H0.703125V9.64203C1.25291 10.7441 2.09594 11.6705 3.1381 12.3178C4.18025 12.9652 5.38053 13.3081 6.60491 13.3081Z" fill="#34A853"/>
<path d="M2.89692 7.92799C2.62047 7.10185 2.62047 6.20719 2.89692 5.38104V3.66675H0.703363C0.240867 4.59381 0 5.61698 0 6.65452C0 7.69206 0.240867 8.71522 0.703363 9.64229L2.89692 7.92799Z" fill="#FBBC04"/>
<path d="M6.60491 2.63426C7.5469 2.61875 8.45713 2.97728 9.13883 3.63234L11.0241 1.73321C9.82865 0.602127 8.24491 -0.0188588 6.60491 0.000436556C5.38053 0.000492767 4.18025 0.343346 3.13809 0.990719C2.09594 1.63809 1.25291 2.5645 0.703125 3.66653L2.89668 5.38082C3.41961 3.80423 4.88199 2.63426 6.60491 2.63426Z" fill="#EA4335"/>
<path d="M18.9165 7.81787V12.5079H17.4395V0.925583H21.3569C21.8245 0.915744 22.2894 0.999284 22.7247 1.17138C23.1601 1.34348 23.5574 1.60073 23.8935 1.92828C24.2331 2.23595 24.5033 2.61327 24.6861 3.03489C24.8689 3.4565 24.9599 3.91264 24.9531 4.37265C24.9629 4.83512 24.8732 5.29424 24.6903 5.71854C24.5074 6.14285 24.2356 6.52229 23.8935 6.83088C23.2085 7.48888 22.363 7.81757 21.3569 7.81695H18.9165V7.81787ZM18.9165 2.35154V6.39469H21.3935C21.6651 6.4028 21.9354 6.35372 22.187 6.2506C22.4387 6.14749 22.6662 5.9926 22.855 5.79584C23.0428 5.61188 23.1922 5.39184 23.2941 5.14874C23.3961 4.90564 23.4486 4.64441 23.4486 4.38051C23.4486 4.1166 23.3961 3.85538 23.2941 3.61228C23.1922 3.36918 23.0428 3.14914 22.855 2.96518C22.6685 2.76427 22.4418 2.60559 22.1899 2.49964C21.9379 2.39369 21.6665 2.34289 21.3935 2.35062H18.9165V2.35154Z" fill="#676767"/>
<path d="M28.358 4.32324C29.4498 4.32324 30.3115 4.61712 30.9433 5.20488C31.5751 5.79264 31.8907 6.59849 31.8901 7.62245V12.5066H30.4773V11.4068H30.413C29.8014 12.3125 28.988 12.7653 27.9727 12.7653C27.106 12.7653 26.381 12.5066 25.7975 11.989C25.5175 11.7515 25.2936 11.454 25.1422 11.1183C24.9908 10.7826 24.9157 10.417 24.9223 10.0483C24.9223 9.22831 25.2299 8.57617 25.8452 8.09192C26.4605 7.60766 27.2819 7.36492 28.3094 7.36369C29.1865 7.36369 29.9088 7.52541 30.4763 7.84886V7.50878C30.478 7.25743 30.4241 7.00885 30.3186 6.78107C30.2131 6.5533 30.0586 6.35203 29.8663 6.19187C29.4757 5.83688 28.9666 5.64319 28.4406 5.64939C27.6155 5.64939 26.9626 5.99995 26.4819 6.70107L25.181 5.87581C25.8966 4.84077 26.9556 4.32324 28.358 4.32324ZM26.447 10.0807C26.446 10.27 26.49 10.4569 26.5752 10.6257C26.6604 10.7945 26.7844 10.9403 26.9369 11.051C27.2636 11.3099 27.6691 11.447 28.0846 11.4392C28.7079 11.4381 29.3054 11.1882 29.7461 10.7442C30.2354 10.2803 30.48 9.73597 30.48 9.11125C30.0195 8.74159 29.3773 8.55676 28.5534 8.55676C27.9534 8.55676 27.4531 8.70247 27.0525 8.99388C26.6479 9.28961 26.447 9.6491 26.447 10.0807Z" fill="#676767"/>
<path d="M40.0005 4.58203L35.0684 15.9999H33.5437L35.374 12.0048L32.1309 4.58203H33.7363L36.0804 10.2748H36.1125L38.3923 4.58203H40.0005Z" fill="#676767"/>
</svg>
