<svg width="64" height="64" viewBox="0 0 64 64" fill="none" xmlns="http://www.w3.org/2000/svg">
<rect width="64" height="64" rx="32" fill="#B3131B"/>
<path d="M17.2686 27.6519L17.4543 27.6525L17.602 27.6022L17.7498 27.5519L17.8805 27.4193L18.0112 27.2868L18.08 27.11L18.1489 26.9334L18.1513 26.6733L18.1538 26.4133L18.0926 26.3117L18.0314 26.2101L17.9249 26.1442L17.8183 26.0782H17.3582L17.2016 26.1483L17.0449 26.2184L16.9541 26.3158L16.8632 26.4133L16.7917 26.5816L16.7203 26.7498L16.7068 27.012L16.6934 27.2742L16.7598 27.4045L16.8263 27.5347L16.9546 27.593L17.0828 27.6511L17.2686 27.6519ZM46.877 35.1188H47.5449V34.71L47.6218 34.203C47.6642 33.9241 47.734 33.4824 47.7772 33.2217C47.8201 32.9608 47.8738 32.6304 47.8963 32.4872C47.9189 32.3441 47.9785 32.0344 48.0289 31.7988C48.0795 31.5632 48.1424 31.3085 48.1689 31.2327C48.1955 31.157 48.2174 31.0775 48.2177 31.0561C48.2181 31.0348 48.2749 30.8973 48.3443 30.7507L48.4704 30.4839L48.6368 30.2629L48.8032 30.0419L48.9852 29.9051C49.0852 29.8297 49.2463 29.7299 49.343 29.6831L49.5187 29.5979L49.9012 29.6006L50.2837 29.6033L50.4343 29.6516L50.5848 29.6999L50.6102 29.6842L50.6356 29.6685L50.637 29.5709C50.6377 29.5172 50.6703 29.3174 50.7097 29.1268L50.7813 28.7804L50.7009 28.7489C50.6237 28.7203 50.5459 28.6937 50.4674 28.6693L50.3145 28.621L50.0391 28.6218L49.7637 28.6224L49.5392 28.7015L49.3147 28.7804L49.1462 28.882L48.9777 28.9837L48.7586 29.2132L48.5396 29.4426L48.4218 29.6207C48.3572 29.7186 48.3002 29.7943 48.2952 29.7889C48.2902 29.7837 48.3255 29.5796 48.3734 29.3356C48.4213 29.0915 48.4612 28.8609 48.4619 28.823L48.4632 28.7541H47.331V28.7737C47.331 28.7844 47.3029 28.9806 47.2683 29.2097C47.2338 29.4388 47.1644 29.881 47.1144 30.1924C47.0542 30.5648 46.9933 30.9371 46.9316 31.3093C46.8779 31.631 46.8216 31.9524 46.7626 32.2731C46.7202 32.5002 46.6447 32.8998 46.595 33.1605C46.5452 33.4215 46.4635 33.8415 46.4134 34.0939L46.2657 34.8358L46.2092 35.1188H46.877ZM31.3682 35.1188H32.0214L32.0411 34.8424C32.052 34.6905 32.0889 34.384 32.1233 34.1616C32.1577 33.9391 32.2281 33.4955 32.2797 33.1758C32.3451 32.7805 32.4162 32.3862 32.4932 31.9929C32.5589 31.6622 32.6332 31.3335 32.6582 31.2624C32.6833 31.1913 32.7039 31.1144 32.7039 31.0913C32.7039 31.0682 32.753 30.9426 32.813 30.8121C32.873 30.6816 32.9848 30.4818 33.0616 30.3681L33.2011 30.1612L33.3877 29.9883L33.5744 29.8155L33.8046 29.7056L34.0348 29.5955L34.3868 29.5975L34.7385 29.5993L34.9115 29.6509C35.0066 29.6794 35.0928 29.7027 35.1027 29.7027C35.1128 29.7027 35.121 29.6702 35.121 29.6304C35.121 29.5907 35.1555 29.3891 35.1975 29.1825C35.2396 28.9759 35.274 28.7982 35.274 28.7875C35.274 28.7769 35.1742 28.7378 35.0522 28.7007C34.93 28.6636 34.7614 28.6248 34.6773 28.6143L34.5243 28.5954L34.3254 28.6306C34.216 28.65 34.0534 28.6927 33.964 28.7256C33.8744 28.7584 33.7268 28.8329 33.6358 28.8911C33.5449 28.9495 33.4032 29.0629 33.3213 29.1433C33.239 29.2238 33.1011 29.3861 33.0145 29.5039C32.9471 29.5954 32.88 29.6872 32.8133 29.7792L32.7695 29.8404L32.7961 29.7181C32.8107 29.6507 32.8515 29.4303 32.8866 29.2285C32.9217 29.0265 32.958 28.837 32.9667 28.8077L32.9832 28.7541H31.8161V28.8279C31.8161 28.8684 31.7816 29.1128 31.7397 29.371C31.6975 29.6292 31.6281 30.0607 31.5855 30.33C31.5428 30.5993 31.4668 31.0675 31.4169 31.3704C31.3636 31.6922 31.3075 32.0136 31.2483 32.3343C31.1332 32.9467 31.0154 33.5587 30.8949 34.1702C30.8434 34.4312 30.7817 34.7391 30.758 34.855C30.7341 34.9706 30.7146 35.0773 30.7146 35.092V35.1189H31.3682V35.1188ZM15.9742 35.1188H16.6323L16.6509 35.0705C16.6612 35.0438 16.6695 34.974 16.6695 34.9154C16.6695 34.8566 16.711 34.5513 16.7614 34.2369C16.8769 33.5207 16.9953 32.8048 17.1165 32.0895C17.1685 31.7881 17.2232 31.4871 17.2805 31.1867C17.3293 30.9344 17.4041 30.5419 17.4468 30.3148C17.4894 30.0875 17.5734 29.6553 17.6333 29.3541C17.6932 29.053 17.7497 28.7946 17.7588 28.7799L17.7755 28.7529L17.1099 28.7611L16.4443 28.7694L16.3887 29.1672C16.3584 29.3861 16.2917 29.8198 16.2407 30.131C16.1897 30.4424 16.1126 30.9176 16.0693 31.1867C16.0169 31.5086 15.9609 31.83 15.9016 32.1507C15.8527 32.4115 15.7777 32.8108 15.7349 33.038C15.6922 33.2653 15.6155 33.6646 15.5645 33.9256C15.5135 34.1865 15.4451 34.5306 15.4125 34.6906C15.3797 34.8505 15.3447 35.0122 15.3345 35.0501L15.316 35.1188H15.9742ZM7.74358 35.1188H8.48699L8.54037 34.7899C8.56967 34.609 8.62702 34.2612 8.6677 34.0173L8.83597 33.0074C8.88786 32.696 8.96568 32.2348 9.00883 31.9825C9.05198 31.73 9.12063 31.3384 9.16122 31.1123C9.2019 30.8859 9.24293 30.6932 9.25228 30.6838L9.26949 30.6667H13.2678L13.2901 30.6888L13.3123 30.711L13.2775 30.8877C13.2586 30.9849 13.2022 31.2847 13.1523 31.554C13.1025 31.8233 13.0186 32.2776 12.966 32.5639C12.9106 32.8649 12.8543 33.1658 12.7971 33.4665C12.7567 33.6768 12.675 34.1175 12.6155 34.4456C12.5561 34.7738 12.5076 35.0595 12.5077 35.0807L12.5081 35.1188H14.0012L14.0342 34.9277C14.0524 34.8226 14.0816 34.6331 14.0992 34.507C14.1167 34.3806 14.1591 34.1119 14.1933 33.9101C14.2274 33.7083 14.2956 33.3089 14.3449 33.0227C14.3942 32.7366 14.4768 32.2477 14.5283 31.9364C14.5798 31.625 14.6563 31.1707 14.6983 30.9267C14.7514 30.6203 14.8067 30.3143 14.8641 30.0087C14.9135 29.7477 14.9957 29.3072 15.0469 29.0294C15.0981 28.7518 15.1746 28.3318 15.2171 28.0961C15.2596 27.8605 15.3371 27.4336 15.3893 27.1475C15.4416 26.8615 15.5075 26.5276 15.5358 26.4055L15.5873 26.1836H14.0756L14.055 26.329C14.0438 26.4089 14.0073 26.6328 13.9739 26.8263C13.9405 27.0199 13.8799 27.364 13.8392 27.5912C13.7984 27.8185 13.7239 28.2522 13.6736 28.5552C13.6243 28.8519 13.5768 29.149 13.5312 29.4463L13.4802 29.7867L12.3706 29.8092L11.2609 29.8316L10.3316 29.8095C9.82045 29.7974 9.39937 29.785 9.39584 29.7822C9.3924 29.7792 9.40979 29.6603 9.43449 29.5179C9.46705 29.3343 9.50173 29.1511 9.53853 28.9682C9.58547 28.7339 9.63109 28.4993 9.67529 28.2644C9.71809 28.0372 9.76644 27.755 9.78294 27.6372C9.79936 27.5194 9.83386 27.3231 9.85953 27.201C9.88521 27.0791 9.93392 26.822 9.9678 26.6299C10.0016 26.4378 10.0377 26.2588 10.048 26.2322L10.0665 26.1836H8.56693L8.51902 26.4514C8.49255 26.5987 8.45734 26.8086 8.44075 26.918C8.42408 27.0274 8.36822 27.3785 8.3166 27.6983C8.26498 28.0181 8.18875 28.4932 8.14718 28.754L7.97927 29.8097C7.92024 30.1774 7.85794 30.5446 7.79256 30.9113C7.73811 31.2124 7.68261 31.5133 7.62605 31.814C7.58625 32.0244 7.51046 32.4237 7.45751 32.7015C7.40201 32.9924 7.34475 33.2832 7.28589 33.5736C7.24442 33.7756 7.19862 34.0096 7.18415 34.0937C7.16951 34.1778 7.12221 34.4207 7.0788 34.6331C7.03547 34.8456 7 35.0418 7 35.0691V35.1187H7.74358V35.1188ZM52.2571 35.2677L52.5478 35.2715L52.8232 35.2266C52.9748 35.2022 53.1675 35.1625 53.2516 35.1387C53.3357 35.1148 53.4873 35.0531 53.5881 35.0014L53.7718 34.9073L53.9298 34.7682L54.0876 34.6292L54.254 34.4075C54.3455 34.2853 54.4284 34.165 54.4381 34.1397L54.4558 34.0937L54.4404 34.2467C54.4294 34.3491 54.4153 34.4513 54.398 34.5528C54.3832 34.6369 54.3622 34.7988 54.3511 34.9123L54.3308 35.1188H55.5314V34.7058L55.6228 33.9255C55.673 33.4962 55.7475 32.9248 55.7881 32.6555C55.8286 32.3861 55.8914 32.0007 55.9274 31.7988C55.9633 31.5968 56.0272 31.2318 56.0689 30.9878C56.1109 30.7439 56.1866 30.3169 56.2373 30.0393C56.2878 29.7615 56.3689 29.3209 56.4174 29.0601C56.4657 28.7992 56.541 28.3929 56.5846 28.1573C56.6282 27.9217 56.7061 27.5086 56.7579 27.2394C56.8121 26.9585 56.8682 26.6779 56.9261 26.3978C56.9668 26.2044 57.0001 26.0356 57 26.023V26H55.6902L55.6709 26.1913C55.6603 26.2965 55.6101 26.6441 55.5595 26.964C55.4994 27.3416 55.4383 27.7189 55.376 28.0961C55.3397 28.3137 55.3039 28.5313 55.2683 28.749L55.2519 28.851L55.2003 28.829C55.1719 28.8169 55.0177 28.7741 54.8579 28.734L54.5673 28.661L54.1694 28.63L53.7715 28.5991L53.435 28.6304L53.0985 28.6618L52.7925 28.7392L52.4864 28.8165L52.1958 28.9583L51.9049 29.1001L51.6907 29.2585L51.4766 29.4171L51.2915 29.6156C51.1898 29.7246 51.0429 29.9051 50.9649 30.0165L50.8233 30.2191L50.6569 30.5652C50.5655 30.7556 50.4541 31.0077 50.4096 31.1255C50.3649 31.2434 50.2864 31.5045 50.2348 31.7058L50.1412 32.072L50.095 32.5475L50.049 33.0228L50.0835 33.4052L50.1184 33.7878L50.1592 33.9256C50.1819 34.0012 50.2293 34.1362 50.2648 34.2252L50.3294 34.3876L50.4472 34.547L50.5651 34.7065L50.6995 34.8166L50.8339 34.9269L51.0175 35.018C51.1187 35.068 51.2879 35.133 51.394 35.162C51.4999 35.1911 51.6721 35.2259 51.7766 35.2395C51.8811 35.253 52.0972 35.2658 52.2571 35.2677ZM52.7789 34.3997L52.5478 34.4118L52.3919 34.3838C52.3062 34.3684 52.169 34.3269 52.0869 34.2917L51.9379 34.228L51.8124 34.1251L51.687 34.0224L51.5006 33.6654L51.4581 33.4665L51.4158 33.2675L51.4194 32.8697L51.4229 32.4719L51.4723 32.12L51.5216 31.7681L51.5983 31.5234C51.6406 31.3887 51.6753 31.2616 51.6754 31.241C51.6758 31.2204 51.7173 31.1103 51.768 30.9963C51.8273 30.8644 51.89 30.734 51.956 30.6053C52.0088 30.5043 52.1075 30.347 52.1751 30.2556C52.2429 30.1641 52.3637 30.0264 52.4435 29.9495C52.5232 29.8727 52.65 29.7717 52.7255 29.7254L52.8624 29.6411L53.103 29.5579L53.3437 29.4746L53.8486 29.4743H54.3535L54.6441 29.555C54.8041 29.5993 54.9739 29.6508 55.0214 29.6693L55.108 29.7029L55.0911 29.7869C55.082 29.8332 55.0454 30.0362 55.0103 30.2381C54.9752 30.4401 54.9058 30.8257 54.8563 31.095C54.8068 31.3643 54.7308 31.7705 54.6873 31.9976C54.6439 32.2248 54.581 32.514 54.5474 32.6401C54.513 32.7699 54.4781 32.8993 54.4425 33.0287C54.4182 33.1161 54.3604 33.2677 54.3142 33.3652C54.2679 33.4629 54.1868 33.6048 54.134 33.6804C54.0812 33.7562 53.9921 33.8612 53.9358 33.9136C53.8795 33.9662 53.7576 34.0594 53.6651 34.121L53.4969 34.2329L53.0103 34.3873L52.7789 34.3997ZM41.9141 35.2568L42.3271 35.2449L42.5873 35.1784L42.8474 35.1117L43.0158 35.0322C43.1083 34.9887 43.2597 34.9021 43.3522 34.8402C43.4449 34.7786 43.5882 34.661 43.6707 34.5791C43.7531 34.4973 43.8755 34.3577 43.9426 34.2689C44.0097 34.1799 44.0686 34.1114 44.0735 34.1163C44.0786 34.1214 44.063 34.2626 44.0391 34.4306C44.0154 34.5988 43.9956 34.8223 43.9953 34.9275L43.9948 35.1186H45.1179L45.1351 34.6828L45.1522 34.2467L45.2323 33.6805C45.2764 33.3691 45.3476 32.9079 45.3906 32.6555C45.4334 32.4032 45.508 31.9763 45.5564 31.7069C45.6047 31.4376 45.6812 31.0177 45.7263 30.7736L45.8085 30.3299L45.8113 29.9467L45.814 29.5634L45.7274 29.3863L45.6408 29.2091L45.5233 29.0964L45.4057 28.9835L45.2129 28.8858L45.0198 28.788L44.4447 28.66L44.0488 28.6299L43.6529 28.5998L43.1431 28.6314C42.8624 28.6487 42.4679 28.683 42.2659 28.7076L41.8987 28.7521L41.3982 28.754L41.3617 28.93C41.3417 29.0267 41.286 29.2566 41.2381 29.4409C41.19 29.6252 41.1553 29.7803 41.1607 29.7858C41.1661 29.7912 41.3 29.7608 41.4581 29.7183C41.6162 29.6757 41.9523 29.6058 42.2048 29.5627L42.6637 29.4845L43.0768 29.4676L43.4899 29.4505L44.0222 29.5438L44.1997 29.6314L44.3773 29.7192L44.4768 29.8674L44.5763 30.0155L44.5749 30.2492L44.5734 30.4829L44.5207 30.7394L44.4679 30.9959L43.3668 30.9998L42.2657 31.0037L41.9054 31.1026C41.7073 31.1569 41.4878 31.2291 41.4178 31.2629C41.3477 31.2968 41.2776 31.3245 41.262 31.3245C41.2465 31.3245 41.1286 31.3898 41 31.4698L40.7664 31.6149L40.5824 31.7987C40.4811 31.8997 40.3518 32.0512 40.295 32.1353C40.2381 32.2194 40.1458 32.3952 40.0899 32.526L39.988 32.7636L39.9414 33.0307L39.8946 33.298V33.8588L39.9391 34.0922L39.9839 34.3255L40.0667 34.4779C40.1123 34.5615 40.196 34.6842 40.2525 34.7504L40.3555 34.8709L40.5385 34.982L40.7215 35.0932L40.931 35.1523C41.0463 35.1849 41.2216 35.2245 41.3208 35.2402L41.501 35.2686L41.9141 35.2567V35.2568ZM42.2966 34.4012L42.0518 34.414L41.8897 34.3726C41.8005 34.35 41.6652 34.2993 41.589 34.2602L41.4506 34.1889L41.3749 34.099C41.3333 34.0494 41.2699 33.9524 41.2337 33.8831L41.1681 33.7571L41.1553 33.4631L41.1424 33.1689L41.1942 32.9904C41.2227 32.8924 41.2897 32.7219 41.3431 32.612L41.44 32.412L41.6256 32.2278L41.8111 32.0435L42.0081 31.9487L42.2049 31.8539L42.4497 31.7957L42.6945 31.7375H44.2245L44.273 31.7575L44.3213 31.7775L44.2806 32.0177C44.2582 32.1497 44.2048 32.3885 44.1618 32.5485C44.119 32.7084 44.0432 32.9434 43.9936 33.0707C43.9439 33.1982 43.9032 33.3108 43.9032 33.3209C43.9032 33.3313 43.853 33.424 43.7915 33.5272L43.6797 33.7149L43.4962 33.8968C43.3954 33.9968 43.3016 34.0785 43.2881 34.0785C43.2746 34.0785 43.2127 34.1132 43.1506 34.1552L43.0379 34.2315L42.7897 34.3101L42.5416 34.3885L42.2966 34.4012ZM36.8806 35.2682L37.2174 35.2718L37.5997 35.2265C37.81 35.2017 38.0898 35.1603 38.2218 35.1346C38.3811 35.1026 38.5393 35.065 38.696 35.0221C38.8251 34.9856 38.9418 34.9461 38.9554 34.9346C38.9691 34.9228 39.0054 34.7839 39.0364 34.6259C39.0674 34.4679 39.1063 34.2559 39.1229 34.1551C39.1395 34.054 39.1482 33.966 39.1421 33.9594C39.1359 33.9527 39.1134 33.9613 39.092 33.9782C39.0705 33.9954 38.9204 34.0585 38.7583 34.1187L38.4637 34.2281L38.0441 34.3095L37.6244 34.3907L37.2677 34.3786L36.911 34.3663L36.7083 34.296L36.5056 34.2257L36.3491 34.0888L36.1926 33.9518L36.0887 33.7625L35.9848 33.5734L35.9352 33.3202L35.8857 33.0673L35.8862 32.7389L35.8865 32.4106L35.9465 32.0128L36.0067 31.6149L36.0703 31.4007C36.1053 31.2829 36.145 31.1453 36.1583 31.0948C36.1717 31.0442 36.2278 30.8997 36.283 30.7734C36.3381 30.6472 36.4366 30.4521 36.5017 30.3399L36.6202 30.136L36.7657 29.9852L36.9111 29.8344L37.0651 29.7389L37.2192 29.6434L37.417 29.5824C37.5258 29.5489 37.7182 29.5054 37.8444 29.4858L38.074 29.4499L38.4104 29.4669L38.747 29.4837L39.1448 29.5634L39.5427 29.6429L39.7044 29.7033C39.7934 29.7364 39.8701 29.7637 39.8749 29.7637C39.8797 29.7637 39.901 29.6501 39.9223 29.5112C39.9436 29.3724 39.9816 29.1439 40.0067 29.0036C40.0318 28.8632 40.0463 28.7423 40.0388 28.7349C40.0314 28.7275 39.9119 28.7086 39.7732 28.6928C39.6344 28.677 39.2572 28.6489 38.9351 28.6303L38.3493 28.5967L37.9361 28.6284L37.523 28.6601L37.2169 28.7244L36.9109 28.7887L36.7139 28.8675C36.6054 28.9108 36.4468 28.9891 36.3611 29.0413C36.2789 29.0912 36.1982 29.1433 36.1189 29.1975C36.0712 29.2312 35.9269 29.3625 35.7979 29.4894L35.5636 29.72L35.4326 29.9117C35.3608 30.0171 35.2363 30.2368 35.1561 30.4002L35.0103 30.697L34.8985 31.0182C34.8371 31.1949 34.7513 31.4841 34.7079 31.6608L34.629 31.9821L34.6003 32.2729L34.5717 32.5636L34.572 32.946L34.5723 33.3284L34.6012 33.5511L34.63 33.7735L34.7217 34.0024L34.8133 34.2313L34.9193 34.3967L35.025 34.5622L35.1933 34.728L35.3617 34.8936L35.5397 34.9879L35.7179 35.0817L35.9518 35.1469C36.0803 35.1825 36.2662 35.2235 36.3649 35.2378C36.4634 35.2523 36.6956 35.2657 36.8809 35.2678H36.8806V35.2682ZM27.1497 35.268L27.4864 35.2718L27.8228 35.2411C28.0081 35.2242 28.3109 35.189 28.496 35.1628C28.6813 35.1368 29.0011 35.0784 29.2068 35.0332L29.5809 34.951L29.5996 34.813C29.6097 34.7372 29.6518 34.5114 29.6929 34.3112L29.7677 33.9473L29.7511 33.9309L29.7346 33.9144L29.6202 33.9696C29.5573 33.9999 29.3613 34.0725 29.1849 34.1305L28.8638 34.2362L28.5269 34.3016L28.1901 34.3667L27.6546 34.368L27.1191 34.3689L26.9355 34.3103C26.8345 34.2781 26.686 34.2191 26.6055 34.1792L26.4591 34.1068L26.2174 33.8882L26.1231 33.7235L26.0287 33.5586L25.9696 33.3519L25.9105 33.1451L25.9102 32.7625L25.9097 32.3799L25.9621 32.0387L26.0148 31.6973L26.9357 31.6542L28.6379 31.6652L30.34 31.6761L30.3913 31.4582C30.4197 31.3382 30.4629 31.0904 30.4874 30.9074L30.5321 30.5745L30.533 30.2946L30.5341 30.0147L30.4857 29.8056L30.437 29.5967L30.3569 29.4583C30.313 29.3823 30.2352 29.272 30.1844 29.2132C30.1336 29.1545 30.0428 29.0717 29.9827 29.0293C29.9224 28.9869 29.8045 28.9155 29.7203 28.8707L29.5674 28.7894L29.3001 28.725L29.0327 28.6606L28.7035 28.6291L28.374 28.5976L28.0681 28.6176L27.7621 28.6374L27.3948 28.7079L27.0277 28.7785L26.7981 28.8702C26.6718 28.9206 26.4791 29.0127 26.3698 29.0747C26.2604 29.1368 26.109 29.2377 26.0333 29.2991C25.9575 29.3605 25.8262 29.4798 25.7418 29.5642C25.6573 29.6487 25.5321 29.8003 25.464 29.9014C25.3957 30.0024 25.2911 30.1813 25.2313 30.2991C25.1716 30.417 25.0939 30.5822 25.0585 30.6664C25.0233 30.7505 24.9589 30.9226 24.9158 31.0488C24.8726 31.1751 24.8046 31.4161 24.765 31.5844C24.7182 31.7883 24.6778 31.9936 24.6438 32.2L24.595 32.5097L24.5955 32.965L24.596 33.4203L24.6424 33.6192C24.6679 33.7286 24.717 33.8939 24.7511 33.9864C24.7851 34.079 24.8485 34.2167 24.8916 34.2925C24.9347 34.3682 25.0268 34.49 25.0962 34.5634C25.1654 34.6367 25.2912 34.748 25.3753 34.8106C25.4593 34.8731 25.6092 34.9614 25.7081 35.0064L25.888 35.0883L26.1389 35.149C26.2768 35.1824 26.485 35.2219 26.6016 35.2369C26.7179 35.2519 26.9647 35.266 27.1497 35.268ZM27.726 30.9573C26.8789 30.9573 26.1858 30.9513 26.1858 30.9438C26.1858 30.9365 26.222 30.8297 26.2662 30.7066C26.3103 30.5836 26.388 30.4006 26.4385 30.2998L26.5307 30.1166L26.7331 29.9153L26.9355 29.7139L27.1345 29.6188C27.2438 29.5665 27.3884 29.5095 27.4557 29.4922C27.5231 29.4749 27.7158 29.452 27.884 29.4413L28.1901 29.4216L28.4252 29.4519L28.6601 29.4821L28.8309 29.5602L29.0018 29.6384L29.0955 29.7394C29.1469 29.7949 29.2082 29.8767 29.2319 29.9211L29.2745 30.002L29.3027 30.1813L29.3311 30.3606L29.2987 30.6589L29.2664 30.9573H27.726ZM18.6207 37.9647L18.6392 37.9162C18.6496 37.8897 18.6579 37.8271 18.6579 37.7772C18.6579 37.7274 18.6796 37.5461 18.7061 37.3744C18.7326 37.2025 18.7947 36.8072 18.8443 36.496C18.8938 36.1846 18.9679 35.7164 19.009 35.4556C19.0481 35.2085 19.0853 34.9611 19.1207 34.7135C19.1409 34.5662 19.1655 34.4457 19.1755 34.4457C19.1853 34.4457 19.2279 34.5108 19.27 34.5903L19.3464 34.735L19.516 34.906L19.6857 35.077L19.8944 35.1605L20.1033 35.2441L20.3521 35.2763L20.601 35.3085L20.9168 35.2892L21.2327 35.2697L21.5747 35.1813L21.9168 35.0927L22.1004 35.0089C22.2014 34.963 22.3804 34.8623 22.4982 34.7856L22.7124 34.6462L22.9121 34.4464C23.0219 34.3368 23.1769 34.1607 23.2563 34.0552C23.3359 33.9499 23.4009 33.8559 23.4009 33.8467C23.4009 33.8372 23.44 33.772 23.4878 33.7015C23.5355 33.6312 23.6331 33.4357 23.7047 33.2676C23.7765 33.0994 23.8884 32.7964 23.9536 32.5944L24.0722 32.2271L24.1336 31.9091C24.1673 31.7342 24.2107 31.4451 24.23 31.2665L24.265 30.942L24.2447 30.6667L24.2245 30.3913L24.1606 30.1158L24.0968 29.8404L23.9934 29.6343L23.89 29.4281L23.6903 29.2164L23.4908 29.0047L23.0183 28.7606L22.7582 28.6982L22.4981 28.636L22.2379 28.617L21.9779 28.5979L21.6882 28.6312L21.3984 28.6644L21.162 28.7249L20.9255 28.7852L20.72 28.8804C20.607 28.9325 20.4426 29.0214 20.3547 29.0777C20.2667 29.134 20.1759 29.1986 20.153 29.2215C20.1301 29.2443 20.0751 29.2868 20.031 29.3156L19.9506 29.3682L20.0068 29.0994C20.0377 28.9516 20.0635 28.8135 20.0642 28.7923L20.0654 28.7541H18.9434L18.8451 29.3738C18.7909 29.7147 18.7055 30.2413 18.6552 30.5443C18.5443 31.2126 18.4321 31.8806 18.3185 32.5485C18.2685 32.8429 18.1858 33.3112 18.1347 33.5889C18.0836 33.8665 18.0089 34.2728 17.9685 34.4916C17.9281 34.7103 17.8521 35.1234 17.7997 35.4095C17.7378 35.7462 17.6753 36.0828 17.6122 36.4193C17.5525 36.7358 17.4914 37.0518 17.4292 37.3679C17.3791 37.6202 17.3308 37.8579 17.3215 37.8956L17.3048 37.9645H18.6207V37.9647ZM20.5398 34.4422L20.3729 34.4125L20.2058 34.3831L20.0362 34.3057L19.8665 34.2283L19.7481 34.1151L19.6296 34.0021L19.5612 33.8491C19.5236 33.765 19.4753 33.6219 19.4539 33.5312L19.4149 33.3667L19.4305 33.103L19.4462 32.8393L19.525 32.4262C19.5844 32.1103 19.6422 31.7941 19.6979 31.4777C19.7497 31.1831 19.8282 30.7515 19.8723 30.5186L19.9523 30.095L20.1277 29.9491C20.2243 29.8689 20.3771 29.7612 20.4674 29.7101L20.6316 29.6169L20.8457 29.5506L21.06 29.4843L21.6107 29.452L21.835 29.4998L22.0593 29.5475L22.2176 29.6204L22.3758 29.6933L22.5085 29.8267L22.6413 29.9601L22.7128 30.1014C22.7522 30.1791 22.8075 30.3312 22.8357 30.4394L22.8869 30.636L22.8712 31.2175L22.8555 31.7989L22.777 32.1426C22.7338 32.3317 22.6515 32.6209 22.5942 32.7851L22.49 33.0841L22.3622 33.3261C22.2919 33.4593 22.1837 33.639 22.1216 33.7257C22.0594 33.8123 21.9603 33.9249 21.9014 33.9754C21.83 34.0361 21.757 34.0947 21.6822 34.1512L21.5701 34.2349L21.0507 34.4116L20.5398 34.4422Z" fill="white"/>
</svg>
