<svg width="52" height="14" viewBox="0 0 52 14" fill="none" xmlns="http://www.w3.org/2000/svg">
<g clip-path="url(#clip0_2321_51924)">
<path d="M12.5255 2.51262C12.5161 1.76274 12.2837 1.00816 11.6219 0.586866C10.9776 0.177307 10.1209 0.185521 9.61398 0.808662C9.57291 0.859124 9.48489 0.944791 9.51071 1.01872C9.53653 1.09266 9.69613 1.07505 9.76302 1.10908C9.87802 1.16659 9.92379 1.28159 9.92027 1.40481C9.91558 1.54798 9.9144 2.91514 9.90854 4.79982C8.25035 4.79043 6.59098 4.77987 4.9328 4.77048C4.90111 4.35857 4.88937 3.8962 4.91871 3.39393C4.9457 2.93039 5.00555 2.4692 5.09591 2.01387C5.13581 1.81437 5.18158 1.61605 5.23322 1.42007C5.28955 1.20414 5.44562 0.938923 5.4292 0.712433C5.42685 0.681922 5.41981 0.65141 5.40103 0.62794C5.35644 0.572784 5.27077 0.582172 5.20271 0.599775C4.78024 0.707739 4.3695 0.933056 4.04561 1.22526C3.94586 1.31445 3.67947 1.56793 3.4389 1.99979C2.8005 3.1428 2.75004 4.76226 2.75004 4.76226C2.71718 5.80905 2.67611 7.93078 3.79213 10.1335C3.79213 10.1335 4.5737 11.6778 5.69206 12.0581C5.91269 12.1332 5.97254 12.0839 5.99131 12.0581C6.07815 11.9466 5.89156 11.7541 5.83641 11.6684C5.73431 11.5112 5.64747 11.3446 5.57237 11.172C5.41746 10.8165 5.31419 10.4398 5.23791 10.0607C5.00438 8.90598 4.853 7.73715 4.88585 6.55775H9.90854V10.9902C9.90854 11.2835 10.0282 11.5664 10.2993 11.7048C10.4624 11.7881 10.6479 11.8175 10.8298 11.8398C11.1478 11.8797 11.4728 11.9008 11.7873 11.8398C11.9716 11.8046 12.1558 11.7377 12.2931 11.6098C12.5149 11.4044 12.5185 11.1251 12.5185 10.8446C12.5185 8.61846 12.5396 6.39229 12.5361 4.16611C12.5361 3.61338 12.5314 3.06183 12.5255 2.5091V2.51262Z" fill="url(#paint0_linear_2321_51924)"/>
<path d="M5.64243 12.6155C3.61575 12.0229 2.82479 9.87535 2.39176 8.01296C2.29788 7.60692 2.20752 7.20675 2.15354 6.7925C1.99159 5.54035 1.99863 4.16381 2.40467 2.95508C2.09486 3.02432 1.95521 3.29071 1.77449 3.50663C1.1138 4.29524 1.06216 5.21646 1.03048 6.13181C0.955371 8.2817 1.74046 9.8108 1.91531 10.1394C2.30962 10.8775 2.73913 11.3634 2.86587 11.503C3.3165 12.0018 3.76948 12.348 4.11684 12.578C3.84107 12.5099 3.45146 12.382 3.03486 12.125C2.64877 11.8868 2.37299 11.6215 2.19227 11.4185C1.93057 11.0841 1.74633 10.7895 1.62663 10.5806C1.30391 10.022 0.902563 9.32614 0.69837 8.39319C0.640867 8.13149 0.602141 7.8651 0.498871 7.85454C0.349833 7.83928 0.18202 8.36972 0.14564 8.48355C0.0282879 8.85555 -0.00222367 9.19588 0.000123378 9.3766C0.00833804 10.0807 0.536424 11.4502 1.79796 12.3796C1.79796 12.3796 2.90107 13.1917 4.7881 13.2539C4.86555 13.2563 5.32205 13.2457 5.6612 13.0028C5.82784 12.8831 5.93815 12.7 5.64243 12.6143V12.6155Z" fill="url(#paint1_linear_2321_51924)"/>
<path d="M2.4086 2.94824C2.4086 2.94824 2.40742 2.95294 2.40625 2.95528C2.4086 2.95528 2.41094 2.95411 2.41329 2.95294L2.4086 2.94824Z" fill="url(#paint2_linear_2321_51924)"/>
<path d="M2.40625 2.94789L2.41212 2.95258L2.43559 2.9209L2.40625 2.94789Z" fill="url(#paint3_linear_2321_51924)"/>
<path d="M38.4624 2.25077C38.4706 1.99259 38.4624 1.61002 38.3697 1.15C38.3603 1.10071 38.3486 0.983361 38.2887 0.847232C38.257 0.7733 38.1679 0.577322 37.9601 0.44354C37.8487 0.373128 37.7243 0.330882 37.5928 0.332055C37.5013 0.332055 37.4098 0.339096 37.3194 0.339096C37.1927 0.339096 37.0659 0.342617 36.9392 0.34379C36.6927 0.346137 36.4463 0.34027 36.201 0.349658C35.9804 0.357873 35.7739 0.432978 35.6166 0.598445C35.43 0.794423 35.281 1.07372 35.0346 1.67222C34.9935 1.77079 34.9606 1.85529 34.9383 1.91279C34.8444 2.11581 33.5195 4.9886 33.0184 5.81945C32.9821 5.88165 32.8999 6.01426 32.799 6.00956C32.6969 6.01426 32.6159 5.88165 32.5795 5.81945C32.0796 4.98742 30.7535 2.11581 30.6597 1.91279C30.6374 1.85529 30.6045 1.77197 30.5634 1.67222C30.317 1.07372 30.1679 0.794423 29.9814 0.598445C29.8253 0.432978 29.6187 0.357873 29.3969 0.349658C29.1505 0.341443 28.9041 0.346137 28.6588 0.34379C28.5321 0.34379 28.4053 0.34027 28.2786 0.339096C28.187 0.339096 28.0955 0.333229 28.0051 0.332055C27.8737 0.332055 27.7505 0.373128 27.6378 0.44354C27.4301 0.577322 27.3409 0.7733 27.3092 0.847232C27.2494 0.983361 27.2377 1.10071 27.2283 1.15C27.1367 1.6112 27.1273 1.99376 27.1356 2.25077C27.0393 5.20687 26.9431 8.16063 26.8457 11.1167C26.8492 11.166 26.8586 11.2341 26.8856 11.3104C27.037 11.7434 27.5862 11.9558 28.0087 11.9617C28.4358 11.9675 28.9463 11.7645 29.127 11.3726C29.1294 11.3679 29.1622 11.2916 29.1798 11.2071C29.3054 10.6051 29.3782 5.75725 29.4052 3.64609C30.5623 6.0166 31.467 7.78862 31.886 8.57019C31.9705 8.73096 32.1524 9.05368 32.4868 9.16399C32.5831 9.19685 32.6898 9.21445 32.799 9.21563C32.9081 9.21563 33.0149 9.19685 33.1111 9.16399C33.4456 9.05368 33.6263 8.73096 33.712 8.57019C34.1298 7.78862 35.0357 6.0166 36.1928 3.64609C36.2198 5.75843 36.2926 10.6051 36.4181 11.2071C36.4357 11.2916 36.4686 11.3679 36.4709 11.3726C36.6517 11.7645 37.1621 11.9675 37.5893 11.9617C38.013 11.9558 38.561 11.7434 38.7124 11.3104C38.7394 11.2341 38.7488 11.166 38.7523 11.1167C38.656 8.16063 38.5598 5.20687 38.4624 2.25077Z" fill="url(#paint4_linear_2321_51924)"/>
<path d="M17.8499 9.24805C17.8757 9.25157 17.9015 9.25626 17.925 9.2633C17.925 9.26565 17.925 9.26682 17.9226 9.26917C17.9027 9.30203 17.8346 9.28325 17.8499 9.24805Z" fill="white"/>
<path d="M24.5388 0.685621C24.2982 0.381679 23.8875 0.369943 23.492 0.359382C23.1177 0.34882 22.6412 0.335911 22.3431 0.666845C22.1777 0.851088 22.1319 1.06819 22.1178 1.19962C22.1108 3.3812 22.1037 5.56161 22.0967 7.74319C22.1002 7.95677 22.0791 8.35929 21.8632 8.80171C21.6355 9.26877 21.3128 9.53399 21.2306 9.59853C21.2306 9.59853 20.6814 10.0327 19.9632 10.0902C19.8916 10.0961 19.8154 10.0985 19.8154 10.0985C19.7966 10.0985 19.7778 10.0985 19.759 10.0996C19.7402 10.0996 19.7215 10.0996 19.7027 10.0985C19.7027 10.0985 19.6276 10.0961 19.5548 10.0902C18.8366 10.0316 18.2874 9.59853 18.2874 9.59853C18.2041 9.53281 17.8826 9.26877 17.6549 8.80171C17.439 8.35929 17.4178 7.95677 17.4214 7.74319C17.4143 5.56161 17.4073 3.3812 17.4002 1.19962C17.3862 1.06819 17.3416 0.851088 17.1749 0.666845C16.8769 0.335911 16.4004 0.34882 16.026 0.359382C15.6317 0.369943 15.2198 0.381679 14.9793 0.685621C14.7903 0.923847 14.8056 1.2184 14.8208 1.34632V8.195C14.8208 8.83222 15.0039 9.67598 15.6153 10.4775C16.3018 11.3776 17.277 11.7789 17.5774 11.8904C18.1865 12.1169 18.7862 12.1803 18.9692 12.1979C19.2873 12.2296 19.5584 12.2307 19.759 12.2249C19.9597 12.2307 20.2308 12.2296 20.5488 12.1979C20.7319 12.1791 21.3315 12.1157 21.9406 11.8904C22.241 11.7789 23.2162 11.3776 23.9027 10.4775C24.513 9.67598 24.6972 8.83222 24.6972 8.195V1.34632C24.7125 1.2184 24.7277 0.923847 24.5388 0.685621Z" fill="url(#paint5_linear_2321_51924)"/>
<path d="M18.4102 12.0752C18.4313 12.0787 18.4512 12.0846 18.47 12.0928L18.436 12.1139L18.4113 12.0752H18.4102Z" fill="white"/>
<path d="M51.7146 3.98059C51.3836 2.881 50.7077 1.91167 49.79 1.22164C48.7491 0.440071 47.4582 0.0305116 46.1614 0C44.8647 0.0305116 43.5738 0.440071 42.5329 1.22164C41.614 1.91167 40.9381 2.881 40.6083 3.98059C39.6636 7.13737 41.0848 11.1649 44.4857 12.0556C45.0349 12.1988 45.5993 12.2598 46.1614 12.2445C46.7247 12.2598 47.2892 12.1988 47.8372 12.0556C51.2381 11.1649 52.6592 7.13737 51.7146 3.98059ZM49.1891 7.50468C48.8336 8.99975 47.8408 10.6063 46.1603 10.6239C44.4798 10.6063 43.487 8.99975 43.1314 7.50468C42.7887 6.06477 42.8521 4.36903 43.6583 3.08402C44.2169 2.19332 45.1675 1.6664 46.1591 1.65936C47.1519 1.6664 48.1013 2.19449 48.6599 3.08402C49.4661 4.36903 49.5295 6.06477 49.1868 7.50468H49.1891Z" fill="url(#paint6_linear_2321_51924)"/>
</g>
<defs>
<linearGradient id="paint0_linear_2321_51924" x1="10.1209" y1="7.49188" x2="2.07644" y2="1.40364" gradientUnits="userSpaceOnUse">
<stop offset="0.33" stop-color="#9C8837"/>
<stop offset="0.56" stop-color="#F7E59E"/>
<stop offset="0.6" stop-color="#F0DE96"/>
<stop offset="0.67" stop-color="#DECB80"/>
<stop offset="0.75" stop-color="#C0AC5D"/>
<stop offset="0.79" stop-color="#B39F4D"/>
</linearGradient>
<linearGradient id="paint1_linear_2321_51924" x1="7.1152" y1="11.4619" x2="-0.928132" y2="5.37488" gradientUnits="userSpaceOnUse">
<stop offset="0.33" stop-color="#9C8837"/>
<stop offset="0.56" stop-color="#F7E59E"/>
<stop offset="0.6" stop-color="#F0DE96"/>
<stop offset="0.67" stop-color="#DECB80"/>
<stop offset="0.75" stop-color="#C0AC5D"/>
<stop offset="0.79" stop-color="#B39F4D"/>
</linearGradient>
<linearGradient id="paint2_linear_2321_51924" x1="9.49652" y1="8.31699" x2="1.4522" y2="2.22889" gradientUnits="userSpaceOnUse">
<stop offset="0.33" stop-color="#9C8837"/>
<stop offset="0.56" stop-color="#F7E59E"/>
<stop offset="0.6" stop-color="#F0DE96"/>
<stop offset="0.67" stop-color="#DECB80"/>
<stop offset="0.75" stop-color="#C0AC5D"/>
<stop offset="0.79" stop-color="#B39F4D"/>
</linearGradient>
<linearGradient id="paint3_linear_2321_51924" x1="9.50822" y1="8.29802" x2="1.46491" y2="2.21117" gradientUnits="userSpaceOnUse">
<stop offset="0.33" stop-color="#9C8837"/>
<stop offset="0.56" stop-color="#F7E59E"/>
<stop offset="0.6" stop-color="#F0DE96"/>
<stop offset="0.67" stop-color="#DECB80"/>
<stop offset="0.75" stop-color="#C0AC5D"/>
<stop offset="0.79" stop-color="#B39F4D"/>
</linearGradient>
<linearGradient id="paint4_linear_2321_51924" x1="39.9211" y1="9.9749" x2="27.4196" y2="3.34332" gradientUnits="userSpaceOnUse">
<stop offset="0.33" stop-color="#9C8837"/>
<stop offset="0.56" stop-color="#F7E59E"/>
<stop offset="0.6" stop-color="#F0DE96"/>
<stop offset="0.67" stop-color="#DECB80"/>
<stop offset="0.75" stop-color="#C0AC5D"/>
<stop offset="0.79" stop-color="#B39F4D"/>
</linearGradient>
<linearGradient id="paint5_linear_2321_51924" x1="25.9142" y1="9.36031" x2="13.4126" y2="1.53408" gradientUnits="userSpaceOnUse">
<stop offset="0.33" stop-color="#9C8837"/>
<stop offset="0.56" stop-color="#F7E59E"/>
<stop offset="0.6" stop-color="#F0DE96"/>
<stop offset="0.67" stop-color="#DECB80"/>
<stop offset="0.75" stop-color="#C0AC5D"/>
<stop offset="0.79" stop-color="#B39F4D"/>
</linearGradient>
<linearGradient id="paint6_linear_2321_51924" x1="54.9781" y1="11.274" x2="39.4336" y2="2.25199" gradientUnits="userSpaceOnUse">
<stop offset="0.33" stop-color="#9C8837"/>
<stop offset="0.56" stop-color="#F7E59E"/>
<stop offset="0.6" stop-color="#F0DE96"/>
<stop offset="0.67" stop-color="#DECB80"/>
<stop offset="0.75" stop-color="#C0AC5D"/>
<stop offset="0.79" stop-color="#B39F4D"/>
</linearGradient>
<clipPath id="clip0_2321_51924">
<rect width="52" height="13.2549" fill="white"/>
</clipPath>
</defs>
</svg>
