<svg width="64" height="64" viewBox="0 0 64 64" fill="none" xmlns="http://www.w3.org/2000/svg">
<rect width="64" height="64" rx="32" fill="white"/>
<path d="M45.6938 31.9749C45.6938 39.9816 40.5055 44 32.2825 44H18.0001V20H32.2839C41.9787 20 45.6938 25.2961 45.6938 31.9749Z" fill="white"/>
<path d="M32.2838 42.6166H19.3828V21.3855H32.2838C39.7166 21.3855 44.3089 24.7644 44.3089 31.9749C44.3089 38.9879 40.0728 42.6166 32.2838 42.6166ZM32.2838 20H18V44H32.2838C40.5061 44 45.6943 39.9823 45.6943 31.9749C45.6936 25.2961 41.9792 20 32.2838 20Z" fill="black"/>
<path d="M25.2468 33.54H21.1172V40.8898H25.2468V33.54Z" fill="black"/>
<path d="M23.1775 27.2646C24.5951 27.2646 25.7441 28.4137 25.7441 29.8313C25.7441 31.2489 24.5951 32.398 23.1775 32.398C21.7599 32.398 20.6108 31.2489 20.6108 29.8313C20.6108 28.4137 21.7599 27.2646 23.1775 27.2646Z" fill="black"/>
<path d="M36.7431 28.7574H36.6728L36.2784 30.1061H37.1376L36.7431 28.7574ZM36.7431 28.7574H36.6728L36.2784 30.1061H37.1376L36.7431 28.7574ZM36.6728 28.7574L36.2784 30.1061H37.1376L36.7431 28.7574H36.6728ZM37.7563 32.2207L37.4878 31.2953H35.9316L35.6644 32.2207H34.4283L35.8659 27.443H37.5601L38.9978 32.2207H37.7563ZM33.9066 32.2207H30.9636V27.4456H33.8115V28.6369H32.1529V29.1893H33.7218V30.3779H32.1529V31.0328H33.906L33.9066 32.2207ZM39.5911 32.2207V27.4456H40.7823V31.0321H42.5441C42.06 24.5241 36.9414 23.1172 32.2868 23.1172H27.3269V27.4483H28.0635C29.4027 27.4483 30.2331 28.3557 30.2331 29.8148C30.2331 31.3214 29.4208 32.2254 28.0635 32.2254H27.3269V40.8897H32.2868C39.8536 40.8897 42.4838 37.3768 42.5789 32.2227L39.5911 32.2207ZM28.0601 28.6369H27.3242V31.0321H28.0601C28.5677 31.0321 29.0385 30.8848 29.0385 29.8148C29.0385 28.7708 28.5155 28.6369 28.0601 28.6369Z" fill="#D50072"/>
</svg>
