<svg width="64" height="64" viewBox="0 0 64 64" fill="none" xmlns="http://www.w3.org/2000/svg">
<rect width="64" height="64" rx="32" fill="white"/>
<path d="M53 41.5391C53 45.1069 50.076 48 46.4673 48H11V22.4618C11 18.8931 13.924 16 17.5333 16H52.9997L52.9997 41.5391L53 41.5391Z" fill="white"/>
<path d="M41.4378 32.5604C42.4509 32.5822 43.4697 32.5162 44.4787 32.5947C45.5005 32.7832 45.7467 34.313 44.8389 34.8141C44.2195 35.1441 43.4837 34.937 42.8122 34.9952H41.4378V32.5604ZM45.0644 29.8045C45.2895 30.5902 44.5236 31.2956 43.7585 31.1874H41.4378C41.4541 30.4465 41.406 29.6423 41.4614 28.9404C42.3911 28.9663 43.3293 28.8876 44.2536 28.9816C44.6507 29.0802 44.9831 29.4031 45.0644 29.8045ZM50.6494 18.1534C50.6925 19.6538 50.6556 21.2335 50.668 22.7644C50.6651 28.9882 50.6741 35.212 50.6631 41.4362C50.6223 43.7687 48.5321 45.7956 46.1898 45.8421C43.8453 45.8515 41.5004 45.8436 39.1556 45.8461V36.4369C41.7104 36.4239 44.2665 36.4634 46.8203 36.4172C48.005 36.3436 49.3026 35.5706 49.3578 34.2812C49.4973 32.9863 48.2628 32.0907 47.0908 31.9492C46.6402 31.9376 46.6534 31.8193 47.0908 31.7677C48.2086 31.5288 49.0864 30.3846 48.7575 29.2387C48.4773 28.0334 47.1303 27.567 46.0099 27.5693C43.7255 27.5539 41.4406 27.5671 39.1561 27.5627C39.1708 25.8061 39.1253 24.0476 39.1806 22.2923C39.3616 20.0019 41.5045 18.113 43.8138 18.154C46.0926 18.1536 48.3711 18.1536 50.6494 18.1535V18.1534Z" fill="url(#paint0_linear_456_26164)"/>
<path d="M13.3362 22.53C13.3945 20.2011 15.4937 18.1909 17.8329 18.1569C20.1688 18.1498 22.505 18.1559 24.8408 18.1538C24.8344 25.9457 24.8535 33.7384 24.8312 41.5298C24.7412 43.8304 22.6649 45.8022 20.3512 45.843C18.0109 45.8514 15.6704 45.8442 13.33 45.8465V36.12C15.6033 36.6512 17.9871 36.8772 20.3063 36.525C21.6925 36.3044 23.2092 35.6311 23.6786 34.2088C24.0239 32.9922 23.8295 31.7117 23.8809 30.463V27.5631H19.8674C19.8494 29.481 19.9044 31.4023 19.8384 33.3179C19.7302 34.4954 18.5511 35.2435 17.4283 35.2036C16.0357 35.2181 13.2761 34.2055 13.2761 34.2055C13.2691 30.612 13.3165 26.1118 13.3362 22.5303V22.53Z" fill="url(#paint1_linear_456_26164)"/>
<path d="M26.3423 28.7323C26.131 28.7766 26.2998 28.0206 26.2458 27.7338C26.2602 25.9205 26.2157 24.1053 26.2703 22.2933C26.4508 19.9932 28.6102 18.0996 30.9288 18.1535H37.7572C37.7507 25.9453 37.7697 33.738 37.7475 41.5295C37.6575 43.83 35.581 45.8018 33.2672 45.8426C30.9268 45.8514 28.5862 45.844 26.2457 45.8462V35.1896C27.8442 36.4867 30.0167 36.6886 32.0081 36.6921C33.5094 36.6916 35.0019 36.4626 36.4599 36.1202V34.1679C34.8168 34.9777 32.8854 35.4921 31.0641 35.0269C29.7936 34.7141 28.8713 33.4998 28.8918 32.2031C28.7446 30.8546 29.5439 29.4309 30.8838 29.03C32.5475 28.5149 34.3607 28.9089 35.9201 29.5785C36.2542 29.7515 36.5934 29.9661 36.4598 29.4138V27.8793C33.8516 27.2656 31.076 27.0398 28.4558 27.7074C27.6973 27.919 26.9584 28.2399 26.3423 28.7324V28.7323Z" fill="url(#paint2_linear_456_26164)"/>
<defs>
<linearGradient id="paint0_linear_456_26164" x1="39.077" y1="31.4077" x2="50.5954" y2="31.4077" gradientUnits="userSpaceOnUse">
<stop stop-color="#007B40"/>
<stop offset="1" stop-color="#55B330"/>
</linearGradient>
<linearGradient id="paint1_linear_456_26164" x1="13.0851" y1="32.2653" x2="24.6521" y2="32.2653" gradientUnits="userSpaceOnUse">
<stop stop-color="#1D2970"/>
<stop offset="1" stop-color="#006DBA"/>
</linearGradient>
<linearGradient id="paint2_linear_456_26164" x1="26.2288" y1="31.676" x2="37.755" y2="31.676" gradientUnits="userSpaceOnUse">
<stop stop-color="#6E2B2F"/>
<stop offset="1" stop-color="#E30138"/>
</linearGradient>
</defs>
</svg>
