<svg width="64" height="64" viewBox="0 0 64 64" fill="none" xmlns="http://www.w3.org/2000/svg">
<rect width="64" height="64" rx="32" fill="#FEB4C7"/>
<path fill-rule="evenodd" clip-rule="evenodd" d="M8.61486 37.7134H6V26H8.61486V37.7134ZM15.1422 26H12.584C12.584 28.1556 11.62 30.134 9.93928 31.4284L8.92578 32.2087L12.8528 37.7139H16.0815L12.4681 32.6483C14.1809 30.8949 15.1422 28.5359 15.1422 26ZM19.3132 37.7099H16.8438V26.002H19.3132V37.7099ZM26.7741 29.6114V30.1295C26.1077 29.6622 25.3035 29.3876 24.4361 29.3876C22.1403 29.3876 20.2793 31.3009 20.2793 33.661C20.2793 36.0212 22.1403 37.9345 24.4361 37.9345C25.3035 37.9345 26.1077 37.6599 26.7741 37.1927V37.7103H29.1327V29.6114H26.7741ZM26.7666 33.6611C26.7666 34.8119 25.8097 35.7448 24.6293 35.7448C23.4491 35.7448 22.4922 34.8119 22.4922 33.6611C22.4922 32.5103 23.4491 31.5775 24.6293 31.5775C25.8097 31.5775 26.7666 32.5103 26.7666 33.6611ZM51.657 30.1295V29.6114H54.0155V37.7103H51.657V37.1927C50.9907 37.6599 50.1864 37.9345 49.3189 37.9345C47.0232 37.9345 45.1621 36.0212 45.1621 33.661C45.1621 31.3009 47.0232 29.3876 49.3189 29.3876C50.1864 29.3876 50.9907 29.6622 51.657 30.1295ZM49.5121 35.7448C50.6925 35.7448 51.6493 34.8119 51.6493 33.6611C51.6493 32.5103 50.6925 31.5775 49.5121 31.5775C48.3318 31.5775 47.375 32.5103 47.375 33.6611C47.375 34.8119 48.3318 35.7448 49.5121 35.7448ZM55.0391 36.3596C55.0391 35.5191 55.7017 34.8379 56.5191 34.8379C57.3365 34.8379 57.9992 35.5191 57.9992 36.3596C57.9992 37.1998 57.3365 37.8812 56.5191 37.8812C55.7017 37.8812 55.0391 37.1998 55.0391 36.3596ZM40.9718 29.3936C40.0296 29.3936 39.138 29.6943 38.5418 30.5239V29.6119H36.1934V37.7103H38.5706V33.4543C38.5706 32.2227 39.374 31.6196 40.3412 31.6196C41.3778 31.6196 41.9737 32.2562 41.9737 33.4375V37.7103H44.3295V32.56C44.3295 30.6753 42.8719 29.3936 40.9718 29.3936ZM32.7821 29.6115V30.6663C33.255 30.0336 34.1359 29.612 35.0937 29.612V31.9686C35.0893 31.9686 35.0849 31.9683 35.0806 31.9681C35.0757 31.9678 35.0708 31.9676 35.0657 31.9676C34.1325 31.9676 32.7875 32.6533 32.7875 33.929V37.7103H30.3673V29.6115H32.7821Z" fill="black"/>
</svg>
