<svg width="40" height="40" viewBox="0 0 40 40" fill="none" xmlns="http://www.w3.org/2000/svg">
<circle cx="20.1673" cy="19.8333" r="17.8333" fill="white"/>
<path fill-rule="evenodd" clip-rule="evenodd" d="M0 20C0 8.95431 8.95427 0 19.9999 0H20.1161C25.405 0.0153897 30.4712 2.13118 34.2001 5.88191C37.929 9.63264 40.0153 14.7111 39.9998 20C39.9998 31.0457 31.0456 40 19.9999 40C8.95427 40 0 31.0457 0 20ZM18.2572 27.6994L20.3395 20.6776L23.5841 19.7575L24.262 17.4331L21.0659 18.4016L24.4557 6.87616V6.69214C24.4507 6.54312 24.3866 6.40223 24.2776 6.3005C24.1686 6.19876 24.0236 6.14454 23.8746 6.14976H19.5647C19.229 6.13942 18.9294 6.35913 18.8383 6.68245L14.819 20.3386L11.6229 21.3071L10.8965 23.5348L14.0926 22.5662L11.2355 32.2999H28.2814C28.6182 32.3138 28.9198 32.0927 29.0078 31.7672L29.9763 28.4258V28.2418C29.9713 28.0928 29.9072 27.9519 29.7982 27.8501C29.6892 27.7484 29.5442 27.6942 29.3952 27.6994H18.2572Z" fill="#345D9D"/>
</svg>
