<svg width="36" height="27" viewBox="0 0 36 27" fill="none" xmlns="http://www.w3.org/2000/svg">
<path d="M7.03667 26.0522V24.3224C7.04701 24.1769 7.02543 24.0309 6.97335 23.8942C6.92127 23.7575 6.8399 23.6332 6.73465 23.5295C6.6294 23.4259 6.5027 23.3453 6.36297 23.2931C6.22325 23.2409 6.07372 23.2183 5.92434 23.2268C5.72881 23.2143 5.53342 23.2532 5.35857 23.3394C5.18373 23.4257 5.03584 23.556 4.93034 23.7169C4.83417 23.5609 4.69657 23.4329 4.53204 23.3467C4.36752 23.2604 4.18216 23.219 3.99551 23.2268C3.8328 23.2188 3.67078 23.2524 3.52548 23.3242C3.38019 23.396 3.25667 23.5036 3.16718 23.6362V23.296H2.54297V26.0522H3.16422V24.5242C3.151 24.4299 3.15932 24.334 3.18857 24.2432C3.21781 24.1525 3.26727 24.0692 3.33341 23.9992C3.39955 23.9292 3.48073 23.8744 3.57115 23.8385C3.66157 23.8027 3.759 23.7868 3.85647 23.7919C4.26471 23.7919 4.4718 24.0514 4.4718 24.5184V26.0522H5.09305V24.5242C5.08013 24.429 5.08906 24.3322 5.11917 24.2408C5.14929 24.1494 5.19985 24.0657 5.26721 23.9956C5.33456 23.9256 5.41704 23.8709 5.50868 23.8357C5.60031 23.8005 5.69883 23.7855 5.79713 23.7919C6.21721 23.7919 6.41838 24.0514 6.41838 24.5184V26.0522H7.03667ZM16.2311 23.296H15.2253V22.46H14.6041V23.296H14.0301V23.8438H14.6041V25.1008C14.6041 25.7408 14.8585 26.1213 15.5862 26.1213C15.8581 26.1222 16.1247 26.0483 16.3554 25.908L16.1779 25.3948C16.0129 25.4908 15.8256 25.5443 15.6336 25.5505C15.3377 25.5505 15.2253 25.366 15.2253 25.0892V23.8438H16.2311V23.296ZM21.4763 23.2268C21.3262 23.2225 21.1778 23.2578 21.0466 23.3288C20.9154 23.3998 20.8063 23.504 20.7308 23.6305V23.296H20.1213V26.0522H20.7367V24.5069C20.7367 24.0514 20.9378 23.7977 21.3283 23.7977C21.4599 23.7959 21.5906 23.8194 21.7129 23.8669L21.9023 23.2903C21.7648 23.2465 21.6209 23.225 21.4763 23.2268ZM13.542 23.5151C13.1937 23.3133 12.7933 23.2133 12.3883 23.2268C11.6724 23.2268 11.2049 23.5613 11.2049 24.109C11.2049 24.5588 11.5481 24.8355 12.1812 24.922L12.477 24.9624C12.8143 25.0085 12.974 25.095 12.974 25.2507C12.974 25.464 12.7492 25.5851 12.3291 25.5851C11.9912 25.5946 11.6599 25.4931 11.3884 25.2968L11.0925 25.7639C11.451 26.0078 11.8803 26.1331 12.3173 26.1213C13.1338 26.1213 13.6071 25.7466 13.6071 25.2219C13.6071 24.6972 13.2344 24.4838 12.619 24.3973L12.3232 24.357C12.0569 24.3224 11.8439 24.2705 11.8439 24.086C11.8439 23.9015 12.0451 23.7631 12.3824 23.7631C12.6941 23.7666 12.9996 23.848 13.2699 23.9995L13.542 23.5151ZM30.0229 23.2268C29.8728 23.2225 29.7244 23.2578 29.5932 23.3288C29.462 23.3998 29.3529 23.504 29.2774 23.6305V23.296H28.6709V26.0522H29.2862V24.5069C29.2862 24.0514 29.4874 23.7977 29.8779 23.7977C30.0095 23.7959 30.1402 23.8194 30.2625 23.8669L30.4518 23.2903C30.3113 23.2413 30.1632 23.2159 30.014 23.2153L30.0229 23.2268ZM22.0945 24.6683C22.0872 24.862 22.1215 25.055 22.1951 25.2351C22.2687 25.4151 22.3801 25.5782 22.5221 25.7139C22.6642 25.8496 22.8337 25.9549 23.0198 26.0231C23.206 26.0912 23.4047 26.1208 23.6033 26.1098C23.9728 26.1281 24.3358 26.0109 24.621 25.7812L24.3251 25.2968C24.1124 25.4549 23.853 25.5418 23.5855 25.5448C23.3581 25.5268 23.1459 25.4261 22.9912 25.2626C22.8365 25.0992 22.7506 24.8849 22.7506 24.6626C22.7506 24.4402 22.8365 24.2259 22.9912 24.0625C23.1459 23.899 23.3581 23.7983 23.5855 23.7804C23.853 23.7833 24.1124 23.8702 24.3251 24.0283L24.621 23.544C24.3349 23.3191 23.9732 23.206 23.6062 23.2268C23.4077 23.2159 23.209 23.2454 23.0228 23.3136C22.8366 23.3818 22.6671 23.4871 22.5251 23.6228C22.3831 23.7584 22.2717 23.9215 22.1981 24.1016C22.1244 24.2816 22.0902 24.4746 22.0975 24.6683H22.0945ZM27.8574 24.6683V23.296H27.245V23.6305C27.1405 23.4994 27.0055 23.3945 26.8512 23.3243C26.6969 23.2541 26.5277 23.2207 26.3575 23.2268C25.9652 23.2268 25.589 23.3787 25.3116 23.649C25.0342 23.9194 24.8783 24.286 24.8783 24.6683C24.8783 25.0506 25.0342 25.4173 25.3116 25.6876C25.589 25.9579 25.9652 26.1098 26.3575 26.1098C26.5277 26.1159 26.6969 26.0825 26.8512 26.0123C27.0055 25.9422 27.1405 25.8372 27.245 25.7062V26.0522H27.8603L27.8574 24.6683ZM25.5676 24.6683C25.5774 24.5061 25.6357 24.3502 25.7353 24.2198C25.8349 24.0895 25.9714 23.9903 26.1281 23.9346C26.2847 23.8789 26.4547 23.8691 26.617 23.9063C26.7793 23.9436 26.9269 24.0263 27.0416 24.1442C27.1564 24.2622 27.2332 24.4103 27.2626 24.5702C27.2921 24.7302 27.2729 24.895 27.2074 25.0445C27.1419 25.194 27.033 25.3215 26.8941 25.4114C26.7552 25.5013 26.5923 25.5497 26.4255 25.5505C26.3084 25.552 26.1922 25.5298 26.0843 25.4853C25.9764 25.4409 25.8791 25.3752 25.7985 25.2923C25.718 25.2095 25.6558 25.1113 25.6161 25.0039C25.5764 24.8965 25.5599 24.7822 25.5676 24.6683ZM18.1422 23.2268C17.7499 23.2322 17.3759 23.3892 17.1024 23.6633C16.8288 23.9374 16.6783 24.3062 16.6838 24.6885C16.6893 25.0708 16.8504 25.4353 17.1316 25.7019C17.4129 25.9684 17.7913 26.1152 18.1836 26.1098C18.6053 26.1282 19.0191 25.9948 19.3463 25.735L19.0504 25.2911C18.8168 25.4736 18.5274 25.5751 18.228 25.5793C18.0246 25.5964 17.8224 25.5354 17.6644 25.4095C17.5064 25.2835 17.4051 25.1024 17.3819 24.9047H19.4823C19.4823 24.8298 19.4823 24.7548 19.4823 24.6741C19.4823 23.8092 18.9321 23.2326 18.1393 23.2326L18.1422 23.2268ZM18.1422 23.7631C18.2343 23.7612 18.3259 23.7769 18.4117 23.8095C18.4975 23.8421 18.5759 23.8908 18.6424 23.953C18.7089 24.0151 18.7621 24.0893 18.7991 24.1715C18.8362 24.2537 18.8562 24.3422 18.8581 24.4319H17.379C17.3897 24.2469 17.4743 24.0732 17.6148 23.9482C17.7552 23.8232 17.9403 23.7568 18.1304 23.7631H18.1422ZM33.5758 24.6741V22.189H32.9546V23.6305C32.8501 23.4994 32.7151 23.3945 32.5608 23.3243C32.4065 23.2541 32.2372 23.2207 32.0671 23.2268C31.6748 23.2268 31.2985 23.3787 31.0211 23.649C30.7437 23.9194 30.5879 24.286 30.5879 24.6683C30.5879 25.0506 30.7437 25.4173 31.0211 25.6876C31.2985 25.9579 31.6748 26.1098 32.0671 26.1098C32.2372 26.1159 32.4065 26.0825 32.5608 26.0123C32.7151 25.9422 32.8501 25.8372 32.9546 25.7062V26.0522H33.5699L33.5758 24.6741ZM31.2861 24.6741C31.2959 24.5119 31.3542 24.356 31.4537 24.2256C31.5533 24.0952 31.6898 23.9961 31.8465 23.9404C32.0032 23.8847 32.1731 23.8749 32.3354 23.9121C32.4978 23.9493 32.6454 24.032 32.7601 24.15C32.8748 24.2679 32.9516 24.416 32.9811 24.576C33.0105 24.7359 32.9913 24.9008 32.9258 25.0503C32.8603 25.1997 32.7514 25.3273 32.6125 25.4172C32.4736 25.5071 32.3107 25.5554 32.144 25.5563C32.0268 25.5577 31.9107 25.5355 31.8028 25.4911C31.6949 25.4467 31.5976 25.381 31.517 25.2981C31.4364 25.2152 31.3743 25.117 31.3345 25.0096C31.2948 24.9022 31.2783 24.788 31.2861 24.6741ZM10.5097 24.6741V23.296H9.88849V23.6305C9.784 23.4994 9.64902 23.3945 9.49471 23.3243C9.34039 23.2541 9.17117 23.2207 9.00099 23.2268C8.6087 23.2268 8.23247 23.3787 7.95507 23.649C7.67767 23.9194 7.52183 24.286 7.52183 24.6683C7.52183 25.0506 7.67767 25.4173 7.95507 25.6876C8.23247 25.9579 8.6087 26.1098 9.00099 26.1098C9.17117 26.1159 9.34039 26.0825 9.49471 26.0123C9.64902 25.9422 9.784 25.8372 9.88849 25.7062V26.0522H10.5038L10.5097 24.6741ZM8.22 24.6741C8.22981 24.5119 8.28809 24.356 8.38767 24.2256C8.48725 24.0952 8.62377 23.9961 8.78043 23.9404C8.9371 23.8847 9.10705 23.8749 9.26938 23.9121C9.4317 23.9493 9.57931 24.032 9.69402 24.15C9.80873 24.2679 9.88554 24.416 9.91499 24.576C9.94444 24.7359 9.92524 24.9008 9.85976 25.0503C9.79428 25.1997 9.68538 25.3273 9.54646 25.4172C9.40754 25.5071 9.24467 25.5554 9.07791 25.5563C8.96028 25.5585 8.84346 25.5369 8.73485 25.4929C8.62624 25.4488 8.52822 25.3832 8.447 25.3002C8.36578 25.2173 8.30313 25.1188 8.26304 25.011C8.22294 24.9032 8.20627 24.7885 8.21408 24.6741H8.22Z" fill="black"/>
<path d="M22.6625 2.29639H13.3438V18.6169H22.6625V2.29639Z" fill="#FF5F00"/>
<path d="M13.9345 10.4559C13.9332 8.88437 14.2988 7.33315 15.0035 5.91964C15.7082 4.50613 16.7336 3.26735 18.0022 2.29707C16.431 1.09378 14.5442 0.345522 12.5574 0.137821C10.5705 -0.0698798 8.56376 0.271354 6.76648 1.12252C4.96921 1.97369 3.45392 3.30045 2.3938 4.95117C1.33367 6.60189 0.771484 8.50997 0.771484 10.4573C0.771484 12.4047 1.33367 14.3128 2.3938 15.9635C3.45392 17.6142 4.96921 18.941 6.76648 19.7921C8.56376 20.6433 10.5705 20.9845 12.5574 20.7768C14.5442 20.5691 16.431 19.8209 18.0022 18.6176C16.7332 17.647 15.7076 16.4078 15.0028 14.9937C14.2981 13.5797 13.9327 12.0279 13.9345 10.4559Z" fill="#EB001B"/>
<path d="M35.2312 10.4558C35.2308 12.4028 34.6683 14.3104 33.6081 15.9606C32.548 17.6109 31.0329 18.9373 29.2359 19.7882C27.4389 20.6392 25.4326 20.9804 23.4461 20.7728C21.4595 20.5653 19.573 19.8174 18.002 18.6146C19.27 17.6434 20.2951 16.4043 21 14.9907C21.7049 13.5771 22.0712 12.026 22.0712 10.4543C22.0712 8.88264 21.7049 7.3315 21 5.9179C20.2951 4.50431 19.27 3.2652 18.002 2.29405C19.5732 1.09108 21.46 0.34315 23.4468 0.13572C25.4336 -0.0717097 27.4401 0.269733 29.2372 1.12103C31.0343 1.97232 32.5494 3.29913 33.6093 4.94982C34.6693 6.60052 35.2313 8.50851 35.2312 10.4558Z" fill="#F79E1B"/>
</svg>
