<svg width="64" height="64" viewBox="0 0 64 64" fill="none" xmlns="http://www.w3.org/2000/svg">
    <rect x="0.579156" y="0.579156" width="62.8417" height="62.8417" rx="31.4208" fill="#000C33" stroke="#000C33"
          stroke-width="1.15831"/>
    <path d="M25.6542 30.9919C25.6547 30.5927 25.6204 30.1942 25.5518 29.8008H19.9453V32.057H23.1565C23.0907 32.4173 22.9517 32.7608 22.7476 33.0668C22.5435 33.3727 22.2787 33.6348 21.9691 33.8372V35.3017H23.8855C25.0077 34.2822 25.6542 32.7746 25.6542 30.9919Z"
          fill="#4285F4"/>
    <path d="M19.9445 36.7164C21.5489 36.7164 22.8997 36.1973 23.8848 35.3024L21.9683 33.8378C21.4349 34.1942 20.7479 34.3976 19.9445 34.3976C18.3939 34.3976 17.0777 33.3675 16.6071 31.9795H14.6328V33.4888C15.1276 34.459 15.8864 35.2746 16.8243 35.8446C17.7623 36.4145 18.8426 36.7164 19.9445 36.7164Z"
          fill="#34A853"/>
    <path d="M16.6073 31.9797C16.3585 31.2523 16.3585 30.4647 16.6073 29.7373V28.228H14.633C14.2168 29.0442 14 29.945 14 30.8585C14 31.772 14.2168 32.6728 14.633 33.489L16.6073 31.9797Z"
          fill="#FBBC04"/>
    <path d="M19.9445 27.3192C20.7924 27.3056 21.6116 27.6212 22.2251 28.1979L23.9219 26.5259C22.846 25.5301 21.4206 24.9834 19.9445 25.0004C18.8426 25.0004 17.7623 25.3023 16.8243 25.8722C15.8864 26.4422 15.1276 27.2578 14.6328 28.228L16.6071 29.7373C17.0777 28.3493 18.3939 27.3192 19.9445 27.3192Z"
          fill="#EA4335"/>
    <path d="M31.0247 31.8822V36.0114H29.6953V25.8142H33.2211C33.6419 25.8055 34.0603 25.879 34.4522 26.0306C34.844 26.1821 35.2016 26.4086 35.5041 26.6969C35.8097 26.9678 36.0529 27.3 36.2174 27.6712C36.3819 28.0424 36.4639 28.444 36.4578 28.849C36.4665 29.2562 36.3858 29.6604 36.2212 30.0339C36.0566 30.4075 35.812 30.7416 35.5041 31.0132C34.8876 31.5926 34.1266 31.8819 33.2211 31.8814H31.0247V31.8822ZM31.0247 27.0696V30.6292H33.2541C33.4985 30.6364 33.7417 30.5931 33.9682 30.5024C34.1947 30.4116 34.3995 30.2752 34.5694 30.102C34.7385 29.94 34.8729 29.7463 34.9646 29.5323C35.0564 29.3182 35.1037 29.0883 35.1037 28.8559C35.1037 28.6236 35.0564 28.3936 34.9646 28.1796C34.8729 27.9655 34.7385 27.7718 34.5694 27.6098C34.4016 27.433 34.1975 27.2933 33.9708 27.2C33.744 27.1067 33.4997 27.062 33.2541 27.0688H31.0247V27.0696Z"
          fill="white"/>
    <path d="M39.5223 28.8066C40.5049 28.8066 41.2805 29.0654 41.8491 29.5828C42.4177 30.1003 42.7018 30.8098 42.7012 31.7113V36.0113H41.4297V35.0431H41.3719C40.8214 35.8405 40.0893 36.2391 39.1755 36.2391C38.3955 36.2391 37.7429 36.0113 37.2178 35.5557C36.9657 35.3466 36.7643 35.0847 36.628 34.7891C36.4917 34.4935 36.4241 34.1717 36.43 33.8471C36.43 33.1251 36.7069 32.551 37.2607 32.1246C37.8145 31.6983 38.5537 31.4846 39.4785 31.4835C40.2679 31.4835 40.918 31.6259 41.4288 31.9106V31.6112C41.4303 31.3899 41.3818 31.1711 41.2869 30.9705C41.1919 30.77 41.0528 30.5928 40.8797 30.4518C40.5282 30.1393 40.07 29.9687 39.5966 29.9742C38.854 29.9742 38.2664 30.2828 37.8337 30.9001L36.6629 30.1735C37.3069 29.2623 38.2601 28.8066 39.5223 28.8066ZM37.8024 33.8755C37.8015 34.0423 37.841 34.2068 37.9177 34.3554C37.9944 34.504 38.106 34.6324 38.2433 34.7299C38.5373 34.9578 38.9022 35.0785 39.2762 35.0716C39.8372 35.0707 40.3749 34.8506 40.7716 34.4597C41.2119 34.0513 41.4321 33.5721 41.4321 33.022C41.0176 32.6966 40.4396 32.5339 39.6982 32.5339C39.1582 32.5339 38.7079 32.6622 38.3473 32.9187C37.9832 33.1791 37.8024 33.4956 37.8024 33.8755Z"
          fill="white"/>
    <path d="M50.0008 29.0342L45.5619 39.0866H44.1895L45.8368 35.5692L42.918 29.0342H44.3629L46.4726 34.0461H46.5015L48.5534 29.0342H50.0008Z"
          fill="white"/>
</svg>
