<svg width="64" height="64" viewBox="0 0 64 64" fill="none" xmlns="http://www.w3.org/2000/svg">
<rect width="64" height="64" rx="32" fill="white"/>
<g clip-path="url(#clip0_456_26126)">
<path fill-rule="evenodd" clip-rule="evenodd" d="M32.0824 43.011H44.564C47.4123 43.011 47.442 39.9827 47.151 38.4883C46.9927 37.4828 45.2845 37.4986 45.0965 38.4883V39.6541C45.096 39.9111 44.9936 40.1575 44.8118 40.3393C44.6301 40.5211 44.3837 40.6234 44.1266 40.624H20.2005C19.9435 40.6234 19.6971 40.5211 19.5153 40.3393C19.3335 40.1575 19.2312 39.9111 19.2306 39.6541V38.4883C19.0426 37.4986 17.3345 37.4828 17.1761 38.4883C16.8851 39.9827 16.9148 43.011 19.7631 43.011H32.0824ZM23.2606 13.998H42.5036C43.8554 13.998 44.9619 15.1698 44.9619 16.6009V17.8439C44.9619 19.6015 42.5867 19.5936 42.5867 17.8558V17.1788C42.5867 16.9688 42.5033 16.7675 42.3548 16.619C42.2063 16.4705 42.0049 16.3871 41.795 16.3871H22.5124C22.3024 16.3871 22.101 16.4705 21.9525 16.619C21.8041 16.7675 21.7206 16.9688 21.7206 17.1788V17.8439C21.7206 19.5916 19.4523 19.5797 19.4523 17.8815V16.6028C19.4583 15.1718 20.5627 13.998 21.9146 13.998H23.2606Z" fill="#3D73B9"/>
<path fill-rule="evenodd" clip-rule="evenodd" d="M44.4765 28.2905C45.1373 28.5856 45.7001 29.063 46.0991 29.6667C46.4981 30.2704 46.7166 30.9754 46.729 31.6989C46.729 33.7931 44.9001 35.5072 42.6654 35.5072H36.3969C36.125 35.5152 35.8608 35.4159 35.6615 35.2307C35.4622 35.0455 35.3439 34.7893 35.332 34.5175V22.5861C35.3331 22.3089 35.4438 22.0434 35.64 21.8476C35.8362 21.6518 36.1019 21.5415 36.3791 21.541H41.5986C42.3812 21.5392 43.147 21.7679 43.8004 22.1985C44.4538 22.6292 44.966 23.2427 45.2729 23.9626C45.5799 24.6825 45.6681 25.4768 45.5264 26.2465C45.3848 27.0162 45.0196 27.7271 44.4765 28.2905ZM39.7994 27.3207H41.7886V27.2989C42.235 27.2288 42.6419 27.0021 42.9364 26.6594C43.2309 26.3167 43.3937 25.8803 43.3958 25.4284C43.3942 24.9271 43.1944 24.4467 42.8399 24.0921C42.4853 23.7376 42.0049 23.5378 41.5036 23.5362H37.4954V33.4328H42.5764C42.8383 33.4412 43.0992 33.3968 43.3436 33.3023C43.588 33.2078 43.811 33.0652 43.9992 32.8829C44.1874 32.7005 44.3371 32.4822 44.4393 32.2409C44.5415 31.9997 44.5941 31.7403 44.5941 31.4782C44.5941 31.2162 44.5415 30.9568 44.4393 30.7155C44.3371 30.4742 44.1874 30.2559 43.9992 30.0736C43.811 29.8913 43.588 29.7487 43.3436 29.6542C43.0992 29.5597 42.8383 29.5153 42.5764 29.5237H41.7846H39.7994C39.6551 29.5237 39.5123 29.4952 39.379 29.44C39.2457 29.3848 39.1246 29.3039 39.0226 29.2019C38.9206 29.0999 38.8397 28.9788 38.7845 28.8455C38.7293 28.7122 38.7008 28.5694 38.7008 28.4251C38.7008 28.2809 38.7293 28.138 38.7845 28.0047C38.8397 27.8715 38.9206 27.7504 39.0226 27.6483C39.1246 27.5463 39.2457 27.4654 39.379 27.4102C39.5123 27.355 39.6551 27.3266 39.7994 27.3266" fill="#1D1D1B"/>
<path d="M24.0535 46.6728C24.0535 46.5836 24.0889 46.498 24.152 46.4349C24.2151 46.3718 24.3007 46.3363 24.39 46.3363C24.4792 46.3363 24.5648 46.3718 24.6279 46.4349C24.691 46.498 24.7264 46.5836 24.7264 46.6728V48.4898C24.7259 48.8893 24.5671 49.2724 24.2848 49.555C24.0025 49.8377 23.6197 49.997 23.2202 49.9981C22.8207 49.9975 22.4376 49.8387 22.155 49.5564C21.8723 49.2741 21.713 48.8913 21.7119 48.4918V46.6748C21.7084 46.6285 21.7144 46.5821 21.7297 46.5383C21.7449 46.4945 21.769 46.4544 21.8005 46.4204C21.832 46.3863 21.8702 46.3592 21.9127 46.3406C21.9552 46.3221 22.0011 46.3125 22.0474 46.3125C22.0938 46.3125 22.1396 46.3221 22.1821 46.3406C22.2246 46.3592 22.2628 46.3863 22.2943 46.4204C22.3258 46.4544 22.3499 46.4945 22.3652 46.5383C22.3804 46.5821 22.3865 46.6285 22.3829 46.6748V48.4918C22.385 48.7136 22.4741 48.9256 22.6311 49.0822C22.7881 49.2389 23.0004 49.3275 23.2222 49.3291C23.4442 49.328 23.6569 49.2392 23.8137 49.082C23.9706 48.9248 24.0589 48.7119 24.0594 48.4898L24.0535 46.6728Z" fill="#1D1D1B"/>
<path d="M27.238 49.3272C27.3273 49.3272 27.4129 49.3626 27.476 49.4257C27.5391 49.4888 27.5745 49.5744 27.5745 49.6636C27.5745 49.7529 27.5391 49.8385 27.476 49.9016C27.4129 49.9647 27.3273 50.0001 27.238 50.0001H26.3038C25.9694 50.0001 25.6487 49.8673 25.4123 49.6308C25.1758 49.3944 25.043 49.0737 25.043 48.7393V46.6729C25.043 46.5842 25.0782 46.4991 25.1409 46.4364C25.2037 46.3736 25.2888 46.3384 25.3775 46.3384C25.4662 46.3384 25.5513 46.3736 25.614 46.4364C25.6767 46.4991 25.712 46.5842 25.712 46.6729V48.7353C25.712 48.8928 25.7745 49.0439 25.8859 49.1552C25.9973 49.2666 26.1483 49.3291 26.3058 49.3291H27.238V49.3272Z" fill="#1D1D1B"/>
<path d="M34.3376 34.3177C34.3619 34.4853 34.352 34.6561 34.3087 34.8198C34.2654 34.9835 34.1895 35.1368 34.0856 35.2705C33.9817 35.4042 33.8519 35.5155 33.7039 35.5979C33.5559 35.6802 33.3929 35.7318 33.2245 35.7497C33.0561 35.7675 32.8858 35.7512 32.7239 35.7017C32.5619 35.6523 32.4116 35.5706 32.282 35.4617C32.1523 35.3527 32.046 35.2188 31.9693 35.0678C31.8926 34.9168 31.8472 34.7519 31.8358 34.5829L30.8006 25.1L27.1566 34.3731V34.3969V34.4167V34.4365V34.4483V34.4662V34.486C27.0767 34.6258 26.9697 34.7482 26.8419 34.8462L26.8221 34.862C26.7559 34.9219 26.6828 34.9737 26.6044 35.0164L26.5807 35.0283L26.5589 35.0402H26.545H26.5292H26.5153H26.4995H26.4876H26.4738H26.4619H26.45H26.4342C26.3159 35.0824 26.1916 35.1058 26.066 35.1094H25.975C25.8338 35.1054 25.6945 35.0766 25.5633 35.0243H25.5455H25.5277H25.5118H25.4999H25.4841H25.4703H25.4604L25.4386 35.0125L25.4188 35.0006H25.4069C25.3367 34.9631 25.2704 34.9187 25.209 34.868L25.1674 34.8304L25.1358 34.8007L25.0605 34.7809L25.0229 34.7393C24.9722 34.6779 24.9278 34.6116 24.8903 34.5414V34.5295L24.8784 34.5097L24.8666 34.4879V34.4741V34.4582V34.4464V34.4286V34.4127V34.3949L21.1553 25.1L20.1241 34.5829C20.0889 34.9144 19.9235 35.2184 19.6642 35.4279C19.4049 35.6375 19.073 35.7354 18.7415 35.7003C18.41 35.6651 18.1061 35.4997 17.8965 35.2404C17.687 34.9811 17.589 34.6492 17.6242 34.3177L18.8395 23.1385C18.8689 22.8752 18.9481 22.6199 19.0731 22.3863C19.229 22.0945 19.4521 21.8439 19.724 21.6553C19.9959 21.4667 20.3088 21.3455 20.6367 21.3017H20.704C20.8101 21.2938 20.9166 21.2938 21.0227 21.3017C21.1507 21.3068 21.278 21.324 21.4027 21.3531C21.7311 21.4283 22.036 21.5827 22.291 21.8028C22.5459 22.0229 22.7432 22.3021 22.8655 22.6159L25.9809 30.4897L29.0904 22.5902C29.2367 22.2158 29.4888 21.8921 29.8161 21.6586C30.1434 21.4252 30.5316 21.2922 30.9332 21.2759C31.0393 21.2681 31.1458 21.2681 31.2519 21.2759H31.3192C31.647 21.3201 31.9598 21.4414 32.2316 21.63C32.5034 21.8185 32.7266 22.069 32.8828 22.3606C32.9435 22.4776 32.9945 22.5994 33.0352 22.7248C33.0753 22.8538 33.1024 22.9864 33.1164 23.1207L34.3376 34.3177Z" fill="#1D1D1B"/>
<path d="M21.5816 49.6257C21.5898 49.6709 21.5887 49.7173 21.5783 49.762C21.5679 49.8067 21.5484 49.8489 21.5211 49.8858C21.4938 49.9227 21.4592 49.9536 21.4195 49.9767C21.3798 49.9998 21.3358 50.0145 21.2902 50.0199C21.2446 50.0253 21.1984 50.0213 21.1544 50.0082C21.1104 49.9951 21.0695 49.9731 21.0343 49.9436C20.9992 49.9141 20.9704 49.8777 20.9498 49.8366C20.9292 49.7956 20.9172 49.7507 20.9146 49.7049L20.6276 47.2842L19.6003 49.6594C19.5651 49.7412 19.4988 49.8057 19.4161 49.8387C19.3333 49.8717 19.2409 49.8706 19.159 49.8355C19.0802 49.8016 19.0178 49.7385 18.9848 49.6594L17.9575 47.2842L17.6685 49.7049C17.6659 49.7507 17.6539 49.7956 17.6333 49.8366C17.6127 49.8777 17.584 49.9141 17.5488 49.9436C17.5136 49.9731 17.4727 49.9951 17.4287 50.0082C17.3847 50.0213 17.3385 50.0253 17.2929 50.0199C17.2473 50.0145 17.2033 49.9998 17.1636 49.9767C17.1239 49.9536 17.0893 49.9227 17.062 49.8858C17.0347 49.8489 17.0153 49.8067 17.0049 49.762C16.9944 49.7173 16.9933 49.6709 17.0015 49.6257L17.3399 46.8151C17.3508 46.7265 17.3834 46.6421 17.4349 46.5692C17.4864 46.4963 17.5551 46.4373 17.6349 46.3975C17.6559 46.386 17.6777 46.3761 17.7002 46.3678H17.7259C17.7579 46.3566 17.7912 46.3493 17.8249 46.346C17.9092 46.3343 17.9951 46.3415 18.0762 46.3672C18.1574 46.3929 18.2318 46.4364 18.294 46.4944C18.319 46.5178 18.3415 46.5437 18.3613 46.5716C18.3759 46.5918 18.3891 46.613 18.4009 46.635C18.4082 46.6471 18.4148 46.6596 18.4207 46.6726L19.2916 48.6915L20.1625 46.6567C20.1983 46.5759 20.2529 46.5048 20.3217 46.4494C20.3906 46.3939 20.4717 46.3558 20.5583 46.3381C20.591 46.3314 20.6241 46.3267 20.6573 46.3242H20.7602C20.8459 46.3339 20.9282 46.363 21.001 46.4093C21.0737 46.4556 21.1349 46.5179 21.1798 46.5914C21.1986 46.622 21.2139 46.6545 21.2254 46.6884C21.2336 46.7095 21.2396 46.7314 21.2432 46.7537C21.2441 46.7682 21.2441 46.7828 21.2432 46.7973L21.5816 49.6257Z" fill="#1D1D1B"/>
<path d="M28.7018 49.6637C28.7018 49.7529 28.6663 49.8385 28.6032 49.9016C28.5401 49.9647 28.4546 50.0002 28.3653 50.0002C28.2761 50.0002 28.1905 49.9647 28.1274 49.9016C28.0643 49.8385 28.0288 49.7529 28.0288 49.6637V47.0094H27.0728C26.9836 47.0094 26.898 46.9739 26.8349 46.9108C26.7718 46.8477 26.7363 46.7622 26.7363 46.6729C26.7363 46.5837 26.7718 46.4981 26.8349 46.435C26.898 46.3719 26.9836 46.3364 27.0728 46.3364H29.6578C29.7471 46.3364 29.8326 46.3719 29.8957 46.435C29.9588 46.4981 29.9943 46.5837 29.9943 46.6729C29.9943 46.7622 29.9588 46.8477 29.8957 46.9108C29.8326 46.9739 29.7471 47.0094 29.6578 47.0094H28.7018V49.6637Z" fill="#1D1D1B"/>
<path d="M30.7999 49.6637C30.7999 49.7529 30.7645 49.8385 30.7014 49.9016C30.6383 49.9647 30.5527 50.0002 30.4634 50.0002C30.3742 50.0002 30.2886 49.9647 30.2255 49.9016C30.1624 49.8385 30.127 49.7529 30.127 49.6637V46.6729C30.127 46.5837 30.1624 46.4981 30.2255 46.435C30.2886 46.3719 30.3742 46.3364 30.4634 46.3364C30.5527 46.3364 30.6383 46.3719 30.7014 46.435C30.7645 46.4981 30.7999 46.5837 30.7999 46.6729V49.6637Z" fill="#1D1D1B"/>
<path d="M37.6908 49.626C37.6965 49.7118 37.669 49.7966 37.6142 49.8628C37.5593 49.9291 37.4811 49.9718 37.3957 49.9822C37.3103 49.9926 37.2241 49.9699 37.155 49.9187C37.0858 49.8675 37.0388 49.7918 37.0238 49.7071L36.905 48.757H35.7491C35.7029 48.7606 35.6564 48.7546 35.6126 48.7393C35.5688 48.7241 35.5287 48.6999 35.4947 48.6684C35.4606 48.6369 35.4335 48.5987 35.4149 48.5562C35.3964 48.5138 35.3868 48.4679 35.3868 48.4215C35.3868 48.3752 35.3964 48.3293 35.4149 48.2868C35.4335 48.2444 35.4606 48.2062 35.4947 48.1747C35.5287 48.1432 35.5688 48.119 35.6126 48.1038C35.6564 48.0885 35.7029 48.0825 35.7491 48.086H36.8298L36.7981 47.8386C36.7981 47.8386 36.7981 47.8228 36.7981 47.8149C36.7894 47.7567 36.7768 47.6992 36.7605 47.6427C36.7424 47.5821 36.7192 47.5232 36.6912 47.4665C36.6324 47.3342 36.5371 47.2213 36.4166 47.1411C36.296 47.0608 36.1551 47.0165 36.0103 47.0133C35.9531 47.0137 35.896 47.0203 35.8401 47.033C35.7879 47.0461 35.7373 47.0653 35.6897 47.0904C35.5566 47.1674 35.4444 47.2759 35.363 47.4064C35.2815 47.5368 35.2333 47.6852 35.2226 47.8386L35.0128 49.7071C35.008 49.7508 34.9946 49.7931 34.9734 49.8316C34.9523 49.8701 34.9238 49.904 34.8895 49.9315C34.8552 49.959 34.8158 49.9795 34.7737 49.9917C34.7315 50.004 34.6873 50.0078 34.6436 50.003C34.6 49.9982 34.5577 49.9849 34.5192 49.9637C34.4807 49.9425 34.4467 49.914 34.4192 49.8797C34.3917 49.8455 34.3713 49.8061 34.359 49.7639C34.3467 49.7217 34.3429 49.6775 34.3477 49.6339L34.5575 47.7654C34.5798 47.501 34.6672 47.2462 34.8119 47.0238C34.9566 46.8013 35.1541 46.6182 35.3869 46.4907C35.4813 46.4432 35.581 46.4067 35.6838 46.3818C35.7908 46.3569 35.9004 46.3443 36.0103 46.3442C36.28 46.3457 36.5435 46.4242 36.7701 46.5704C36.9966 46.7166 37.1766 46.9245 37.289 47.1696C37.3349 47.2614 37.3733 47.3567 37.4038 47.4546C37.4296 47.5448 37.4488 47.6368 37.4612 47.7298C37.4631 47.7396 37.4631 47.7497 37.4612 47.7595L37.6908 49.626Z" fill="#1D1D1B"/>
<path d="M38.7174 49.6637C38.721 49.7099 38.715 49.7564 38.6997 49.8001C38.6845 49.8439 38.6603 49.8841 38.6288 49.9181C38.5973 49.9521 38.5591 49.9792 38.5166 49.9978C38.4742 50.0164 38.4283 50.0259 38.3819 50.0259C38.3356 50.0259 38.2897 50.0164 38.2472 49.9978C38.2048 49.9792 38.1666 49.9521 38.1351 49.9181C38.1036 49.8841 38.0794 49.8439 38.0642 49.8001C38.0489 49.7564 38.0429 49.7099 38.0464 49.6637V46.8926C38.0444 46.8735 38.0444 46.8543 38.0464 46.8352C38.0508 46.7981 38.0594 46.7615 38.0722 46.7264L38.0999 46.667C38.1578 46.564 38.2515 46.4858 38.3631 46.4473L38.4087 46.4354H38.4443H38.5235H38.5334C38.6021 46.4383 38.6693 46.4561 38.7305 46.4875C38.7917 46.5189 38.8453 46.5633 38.8877 46.6175L40.6691 48.8997V46.6729C40.6691 46.5837 40.7045 46.4981 40.7676 46.435C40.8307 46.3719 40.9163 46.3364 41.0055 46.3364C41.0948 46.3364 41.1804 46.3719 41.2435 46.435C41.3066 46.4981 41.342 46.5837 41.342 46.6729V49.444C41.3417 49.5143 41.3257 49.5836 41.2953 49.6469C41.2648 49.7103 41.2206 49.766 41.1659 49.8101C41.1444 49.8282 41.1212 49.8441 41.0966 49.8576C41.0833 49.8654 41.0694 49.872 41.055 49.8774L41.0273 49.8893C40.9093 49.9306 40.7798 49.9234 40.6671 49.8695L40.6235 49.8477C40.6 49.8329 40.5781 49.8157 40.5582 49.7963C40.5427 49.7828 40.5282 49.7682 40.5147 49.7527L40.5028 49.7389L38.7174 47.4488V49.6637Z" fill="#1D1D1B"/>
<path d="M43.9663 49.3271C44.0555 49.3271 44.1411 49.3626 44.2042 49.4257C44.2673 49.4888 44.3028 49.5744 44.3028 49.6636C44.3028 49.7529 44.2673 49.8385 44.2042 49.9016C44.1411 49.9647 44.0555 50.0001 43.9663 50.0001H42.9766C42.6254 50.0001 42.2886 49.8606 42.0403 49.6123C41.792 49.3639 41.6525 49.0271 41.6525 48.6759V47.6645C41.6535 47.3136 41.7934 46.9774 42.0415 46.7293C42.2896 46.4812 42.6258 46.3414 42.9766 46.3403H43.9663C44.0555 46.3403 44.1411 46.3758 44.2042 46.4389C44.2673 46.502 44.3028 46.5876 44.3028 46.6768C44.3028 46.7661 44.2673 46.8516 44.2042 46.9147C44.1411 46.9779 44.0555 47.0133 43.9663 47.0133H42.9766C42.8021 47.0154 42.6356 47.0865 42.5135 47.2112C42.4515 47.2711 42.4021 47.3428 42.3681 47.4219C42.3342 47.5011 42.3163 47.5863 42.3155 47.6724V48.6839C42.3166 48.8573 42.3859 49.0233 42.5086 49.146C42.6312 49.2686 42.7973 49.338 42.9707 49.339H43.9604L43.9663 49.3271Z" fill="#1D1D1B"/>
<path d="M45.9114 47.0074C45.6748 47.0065 45.447 47.0973 45.276 47.2608C45.1949 47.3371 45.13 47.429 45.0855 47.5311C45.0409 47.6332 45.0175 47.7432 45.0167 47.8546V48.482C45.0171 48.5933 45.0402 48.7033 45.0844 48.8053C45.1286 48.9074 45.1931 48.9994 45.274 49.0758C45.445 49.2393 45.6728 49.3301 45.9094 49.3292C46.146 49.3301 46.3737 49.2393 46.5447 49.0758C46.6259 48.9995 46.6907 48.9076 46.7352 48.8055C46.7798 48.7034 46.8032 48.5934 46.804 48.482V47.8546C46.8031 47.7434 46.7799 47.6336 46.7357 47.5315C46.6915 47.4295 46.6272 47.3375 46.5467 47.2608C46.3746 47.0977 46.1464 47.007 45.9094 47.0074M45.9094 46.3364C46.3193 46.335 46.7137 46.4925 47.0099 46.7758C47.1562 46.9145 47.2729 47.0815 47.3528 47.2665C47.4328 47.4516 47.4743 47.651 47.475 47.8526V48.48C47.4743 48.6817 47.4328 48.881 47.3528 49.0661C47.2729 49.2512 47.1562 49.4181 47.0099 49.5568C46.7137 49.8402 46.3193 49.9977 45.9094 49.9962C45.4995 49.9977 45.105 49.8402 44.8089 49.5568C44.6632 49.4177 44.5471 49.2507 44.4675 49.0657C44.3879 48.8806 44.3465 48.6815 44.3457 48.48V47.8526C44.3465 47.6512 44.3879 47.452 44.4675 47.267C44.5471 47.082 44.6632 46.9149 44.8089 46.7758C45.105 46.4925 45.4995 46.335 45.9094 46.3364Z" fill="#1D1D1B"/>
<path d="M31.7511 47.0093V49.3271H33.0495C33.1051 49.3271 33.1601 49.3161 33.2113 49.2948C33.2626 49.2735 33.3092 49.2423 33.3484 49.2029C33.3875 49.1636 33.4185 49.1169 33.4396 49.0655C33.4607 49.0141 33.4714 48.9591 33.4711 48.9035C33.4714 48.798 33.4318 48.6962 33.3603 48.6185L33.3464 48.6066C33.308 48.5667 33.2619 48.5349 33.2109 48.5131C33.1598 48.4914 33.105 48.4801 33.0495 48.48H32.6022C32.513 48.48 32.4274 48.4445 32.3643 48.3814C32.3012 48.3183 32.2657 48.2327 32.2657 48.1435C32.2657 48.0542 32.3012 47.9686 32.3643 47.9055C32.4274 47.8424 32.513 47.807 32.6022 47.807H32.7546C32.85 47.7986 32.9396 47.7573 33.008 47.6902C33.0456 47.6533 33.0755 47.6093 33.0959 47.5607C33.1163 47.5121 33.1268 47.4599 33.1267 47.4072C33.1267 47.3022 33.085 47.2015 33.0108 47.1272C32.9365 47.053 32.8359 47.0113 32.7309 47.0113H31.7511V47.0093ZM31.0781 48.1474V46.6867C31.0779 46.641 31.0874 46.5958 31.1058 46.5541C31.1244 46.5109 31.1506 46.4713 31.183 46.4373C31.2431 46.3799 31.3218 46.3462 31.4047 46.3423H32.721C33.005 46.3423 33.2773 46.4551 33.4781 46.6559C33.679 46.8567 33.7918 47.1291 33.7918 47.4131C33.7912 47.6147 33.7343 47.8121 33.6275 47.9831C33.6991 48.0255 33.7655 48.076 33.8254 48.1336L33.8472 48.1573C34.0393 48.3598 34.1463 48.6284 34.1461 48.9075C34.1456 49.1971 34.0303 49.4747 33.8255 49.6795C33.6207 49.8843 33.3431 49.9996 33.0535 50.0001H31.4146C31.3254 50.0001 31.2398 49.9646 31.1767 49.9015C31.1136 49.8384 31.0781 49.7528 31.0781 49.6636V48.1474Z" fill="#1D1D1B"/>
</g>
<defs>
<clipPath id="clip0_456_26126">
<rect width="30.4777" height="36" fill="white" transform="translate(17 14)"/>
</clipPath>
</defs>
</svg>
