<svg width="64" height="64" viewBox="0 0 64 64" fill="none" xmlns="http://www.w3.org/2000/svg">
<rect width="64" height="64" rx="32" fill="#002B6C"/>
<path d="M15.4635 25.6468C14.8368 25.2159 14.019 25 13.0101 25H9.10425C8.79496 25 8.62409 25.1547 8.59163 25.4637L7.00498 35.4235C6.98849 35.5214 7.01296 35.6108 7.07818 35.6922C7.14302 35.7736 7.22458 35.8142 7.32225 35.8142H9.17752C9.50292 35.8142 9.68178 35.6599 9.71461 35.3504L10.154 32.6653C10.17 32.5351 10.2272 32.4293 10.3249 32.3479C10.4225 32.2665 10.5446 32.2133 10.691 32.189C10.8375 32.1648 10.9756 32.1526 11.1061 32.1526C11.2361 32.1526 11.3906 32.1609 11.57 32.1771C11.7488 32.1933 11.8628 32.2012 11.9117 32.2012C13.3112 32.2012 14.4097 31.8069 15.2073 31.0173C16.0045 30.2282 16.4035 29.1338 16.4035 27.7339C16.4035 26.7737 16.0899 26.0781 15.4635 25.6466V25.6468ZM13.4497 28.6374C13.3681 29.2071 13.1568 29.5812 12.815 29.7603C12.4732 29.9396 11.985 30.0289 11.3504 30.0289L10.5447 30.0532L10.9598 27.4411C10.9922 27.2622 11.0979 27.1727 11.2771 27.1727H11.741C12.3917 27.1727 12.864 27.2665 13.1569 27.4533C13.4497 27.6406 13.5474 28.0354 13.4497 28.6374Z" fill="white"/>
<path d="M56.6822 25H54.876C54.6964 25 54.5908 25.0895 54.5585 25.2687L52.9717 35.424L52.9473 35.4728C52.9473 35.5546 52.9798 35.6315 53.0451 35.7048C53.1098 35.7779 53.1916 35.8145 53.2891 35.8145H54.9005C55.2092 35.8145 55.3801 35.6602 55.4132 35.3508L56.9998 25.3664V25.3421C56.9998 25.1142 56.8937 25.0003 56.6822 25.0003V25Z" fill="#009CDE"/>
<path d="M34.8603 28.9306C34.8603 28.8494 34.8276 28.772 34.763 28.6989C34.6977 28.6257 34.6244 28.5889 34.5432 28.5889H32.6635C32.4841 28.5889 32.3377 28.6706 32.224 28.8329L29.6364 32.6413L28.5623 28.9796C28.4805 28.7194 28.3017 28.5889 28.0253 28.5889H26.1941C26.1125 28.5889 26.0393 28.6256 25.9746 28.6989C25.9093 28.772 25.877 28.8496 25.877 28.9306C25.877 28.9634 26.0357 29.4433 26.3529 30.3709C26.6702 31.2989 27.012 32.2998 27.3782 33.3739C27.7444 34.4479 27.9355 35.0178 27.9518 35.0824C26.6172 36.9054 25.9502 37.8818 25.9502 38.0118C25.9502 38.2236 26.0558 38.3292 26.2676 38.3292H28.1473C28.3262 38.3292 28.4726 38.248 28.5867 38.0852L34.8118 29.1014C34.8441 29.0692 34.8603 29.0125 34.8603 28.9305V28.9306Z" fill="white"/>
<path d="M52.3594 28.5888H50.5041C50.276 28.5888 50.1381 28.8575 50.0893 29.3946C49.6656 28.7438 48.8931 28.418 47.7699 28.418C46.5982 28.418 45.6013 28.8575 44.7796 29.7363C43.9576 30.6151 43.5469 31.6489 43.5469 32.8368C43.5469 33.7972 43.8276 34.562 44.3889 35.1314C44.9504 35.7014 45.703 35.9858 46.6472 35.9858C47.1191 35.9858 47.5992 35.888 48.0874 35.6929C48.5756 35.4976 48.9577 35.2373 49.2349 34.9117C49.2349 34.9281 49.2183 35.001 49.1861 35.1312C49.1532 35.2616 49.1372 35.3596 49.1372 35.4241C49.1372 35.6848 49.2427 35.8147 49.4546 35.8147H51.1391C51.4479 35.8147 51.6272 35.6604 51.6758 35.3509L52.6769 28.9794C52.6929 28.8816 52.6686 28.7923 52.6036 28.7108C52.5382 28.6297 52.457 28.5888 52.3594 28.5888ZM49.1737 33.3982C48.7587 33.8051 48.2582 34.0084 47.6724 34.0084C47.2002 34.0084 46.8181 33.8784 46.525 33.6179C46.2319 33.3581 46.0855 33 46.0855 32.5438C46.0855 31.942 46.2889 31.433 46.696 31.0181C47.1022 30.603 47.6072 30.3956 48.2094 30.3956C48.6647 30.3956 49.0431 30.5298 49.3445 30.7982C49.6453 31.0669 49.7963 31.4371 49.7963 31.9092C49.7962 32.495 49.5887 32.9915 49.1737 33.3982Z" fill="#009CDE"/>
<path d="M24.6311 28.5888H22.7758C22.5476 28.5888 22.4096 28.8575 22.3607 29.3946C21.9213 28.7438 21.1482 28.418 20.0416 28.418C18.8698 28.418 17.8728 28.8575 17.0511 29.7363C16.2291 30.6151 15.8184 31.6489 15.8184 32.8368C15.8184 33.7972 16.0991 34.562 16.6606 35.1314C17.2221 35.7014 17.9746 35.9858 18.9187 35.9858C19.3741 35.9858 19.8464 35.888 20.3345 35.6929C20.8227 35.4976 21.2133 35.2373 21.5063 34.9117C21.441 35.1068 21.4086 35.2778 21.4086 35.4241C21.4086 35.6848 21.5143 35.8147 21.7259 35.8147H23.4103C23.7193 35.8147 23.8985 35.6604 23.9474 35.3509L24.9482 28.9794C24.9643 28.8816 24.94 28.7923 24.875 28.7108C24.8099 28.6297 24.7287 28.5888 24.6311 28.5888ZM21.4454 33.4103C21.0303 33.8095 20.5215 34.0084 19.9197 34.0084C19.4475 34.0084 19.0691 33.8784 18.7845 33.6179C18.4995 33.3581 18.3572 33 18.3572 32.5438C18.3572 31.942 18.5606 31.433 18.9676 31.0181C19.3742 30.603 19.8787 30.3955 20.4811 30.3955C20.9366 30.3955 21.315 30.5298 21.6163 30.7982C21.9172 31.0669 22.0679 31.4371 22.0679 31.9092C22.0678 32.5114 21.8604 33.012 21.4454 33.4103Z" fill="white"/>
<path d="M43.1941 25.6468C42.5675 25.2159 41.7499 25 40.7408 25H36.8593C36.5337 25 36.3546 25.1547 36.3222 25.4637L34.7354 35.4235C34.719 35.5214 34.7434 35.6108 34.8087 35.6922C34.8733 35.7736 34.955 35.8142 35.0527 35.8142H37.0544C37.2497 35.8142 37.3798 35.7085 37.4451 35.4969L37.8845 32.6653C37.9007 32.5351 37.9576 32.4293 38.0554 32.3479C38.1531 32.2665 38.275 32.2133 38.4216 32.189C38.568 32.1648 38.7061 32.1526 38.8366 32.1526C38.9667 32.1526 39.1212 32.1609 39.3003 32.1771C39.4793 32.1933 39.5936 32.2012 39.6421 32.2012C41.0419 32.2012 42.1402 31.8069 42.9377 31.0173C43.7352 30.2282 44.1339 29.1338 44.1339 27.7339C44.134 26.7737 43.8205 26.078 43.1941 25.6466V25.6468ZM40.692 29.6626C40.3339 29.9066 39.7968 30.0286 39.0809 30.0286L38.2996 30.0531L38.7146 27.4409C38.7468 27.2621 38.8526 27.1725 39.0319 27.1725H39.4711C39.8292 27.1725 40.114 27.1888 40.3259 27.2213C40.537 27.2539 40.7408 27.3555 40.9361 27.5263C41.1315 27.6972 41.229 27.9456 41.229 28.2709C41.229 28.9547 41.0498 29.4183 40.692 29.6626Z" fill="#009CDE"/>
</svg>
