<svg width="44" height="9" viewBox="0 0 44 9" fill="none" xmlns="http://www.w3.org/2000/svg">
<path fill-rule="evenodd" clip-rule="evenodd" d="M2.23028 0.338867C3.0931 0.338867 3.69075 0.431083 4.2537 0.927897C4.87495 1.48205 5.03599 2.23262 5.03599 2.78723C5.03599 3.08735 4.98949 3.91882 4.40363 4.50785C3.97813 4.93512 3.34507 5.18912 2.46004 5.18912H1.53337V8.04182H0V0.338867H2.23028ZM1.53337 3.89569H2.10394C2.39132 3.89569 2.75922 3.89569 3.0813 3.65332C3.35687 3.4338 3.495 3.08735 3.495 2.75254C3.495 2.32526 3.28815 2.03642 3.0695 1.87466C2.75922 1.65536 2.36841 1.63225 2.01231 1.63225H1.53337V3.89569Z" fill="#012599"/>
<path fill-rule="evenodd" clip-rule="evenodd" d="M8.78878 0.338867C9.84665 0.338867 10.3867 0.615944 10.7435 0.916128C11.33 1.41272 11.5022 2.07108 11.5022 2.64855C11.5022 3.39911 11.2037 4.05746 10.606 4.46145C10.4103 4.6003 10.134 4.72716 9.76613 4.79648L12.1574 8.04182H10.2951L8.24874 4.96057H8.10367V8.04182H6.57031V0.338867H8.78878ZM8.10367 3.8842H8.4903C8.77767 3.8842 9.96188 3.8495 9.96188 2.71788C9.96188 1.57448 8.78878 1.56293 8.51321 1.56293H8.10367V3.8842Z" fill="#012599"/>
<path d="M26.3377 2.09485C25.8893 1.49449 25.3603 1.43629 25.0841 1.43629C24.2796 1.43629 24.0269 1.94444 24.0269 2.33727C24.0269 2.52213 24.0838 2.69522 24.2684 2.85721C24.4524 3.03004 24.7051 3.12249 25.1882 3.29582C25.7858 3.50357 26.3488 3.71131 26.7403 4.06947C27.0846 4.38143 27.3956 4.90094 27.3956 5.68636C27.3956 7.18753 26.3148 8.21538 24.728 8.21538C23.314 8.21538 22.4859 7.34943 22.084 6.76019L23.0613 5.82478C23.4292 6.57558 24.1303 6.85264 24.6704 6.85264C25.3485 6.85264 25.8546 6.43694 25.8546 5.78995C25.8546 5.51302 25.7629 5.2935 25.5561 5.09711C25.2687 4.83162 24.8085 4.68163 24.3719 4.53164C23.9693 4.39279 23.4861 4.20789 23.0953 3.86172C22.8427 3.6422 22.4859 3.21494 22.4859 2.4297C22.4859 1.29786 23.2446 0.166016 24.9466 0.166016C25.4291 0.166016 26.3377 0.25845 27.1193 1.067L26.3377 2.09485Z" fill="#012599"/>
<path d="M32.1421 1.6943V8.04182H30.6087V1.68702H28.9102V0.338867H33.8531V1.6943H32.1421Z" fill="#012599"/>
<path d="M36.9018 0.338867V8.04182H35.3691V0.338867H36.9018Z" fill="#012599"/>
<path fill-rule="evenodd" clip-rule="evenodd" d="M40.6306 0.338867C41.6885 0.338867 42.2285 0.615944 42.5853 0.916128C43.1718 1.41272 43.344 2.07108 43.344 2.64855C43.344 3.39911 43.0448 4.05746 42.4471 4.46145C42.2521 4.6003 41.9758 4.72716 41.6079 4.79648L43.9992 8.04182H42.1369L40.0905 4.94647H39.9455V8.04182H38.4121V0.338867H40.6306ZM39.9455 3.8842H40.3321C40.6195 3.8842 41.8037 3.8495 41.8037 2.71788C41.8037 1.57448 40.6306 1.56293 40.355 1.56293H39.9455V3.8842Z" fill="#012599"/>
<path d="M16.44 4.19997C16.44 4.19672 16.4393 4.19355 16.4393 4.19031C16.4393 3.76029 16.7864 3.41173 17.2147 3.41173C17.643 3.41173 17.99 3.76029 17.99 4.19031C17.99 4.61891 17.6451 4.96614 17.2196 4.96896V6.0203C18.2233 6.01755 19.0361 5.19955 19.0361 4.19031C19.0361 3.17937 18.2205 2.36035 17.2147 2.36035C16.2082 2.36035 15.3926 3.17937 15.3926 4.19031C15.3926 4.19355 15.3933 4.19672 15.3933 4.19997H16.44Z" fill="#FFC835"/>
<path d="M19.898 2.8677C20.093 3.26697 20.2034 3.71581 20.2034 4.19061C20.2034 5.85178 18.8623 7.19866 17.2089 7.19866C15.5548 7.19866 14.2144 5.85178 14.2144 4.19061C14.2144 2.58912 15.4603 1.28054 17.0319 1.18833L17.7781 0.0400113C17.5921 0.014336 17.4019 0 17.2089 0C14.905 0 13.0371 1.87599 13.0371 4.19061C13.0371 6.50498 14.905 8.38116 17.2089 8.38116C19.5127 8.38116 21.3807 6.50498 21.3807 4.19061C21.3807 3.28813 21.0954 2.45283 20.6123 1.76902L19.898 2.8677Z" fill="#012599"/>
</svg>
