<svg width="59" height="20" viewBox="0 0 59 20" fill="none" xmlns="http://www.w3.org/2000/svg">
<path d="M15.4405 12.9085H12.3371L12.5486 11.7546L17.3801 11.7207L17.2038 12.8067L13.1482 16.5059H16.5337L16.3574 17.6598H11.3496L11.5612 16.472L15.4405 12.9085Z" fill="#D13239"/>
<path d="M7.25807 9.9224C7.15227 9.82059 7.0112 9.71877 6.83487 9.65089C6.65854 9.58302 6.44695 9.54908 6.27062 9.51514C6.02376 9.48121 5.81217 9.44727 5.63584 9.44727H1.68603L0.275391 17.6262H1.58024L2.10923 14.6058H4.64839C4.64839 14.6058 5.63584 14.6397 6.34116 14.3003C7.04648 13.927 7.22281 13.1125 7.22281 13.1125C7.22281 13.1125 7.29333 12.8071 7.36386 12.4338C7.43439 12.0265 7.50492 11.5514 7.54019 11.2799C7.54019 11.1781 7.57547 11.1102 7.57547 11.1102C7.57547 11.1102 7.61073 11.0423 7.61073 10.9066C7.61073 10.7369 7.57546 10.4654 7.4344 10.1939C7.39913 10.0921 7.3286 10.0242 7.25807 9.9224ZM6.23536 11.3817C6.23536 11.3817 6.12955 12.0605 5.95322 12.841C5.88269 13.1465 5.6711 13.2822 5.38897 13.3501C4.93051 13.4519 4.43678 13.418 4.43678 13.418H2.32082L2.77927 10.703H5.03631C5.24791 10.703 5.53003 10.703 5.74163 10.7369C5.95323 10.7708 6.09428 10.8048 6.12955 10.8726C6.20008 10.9405 6.23536 11.0423 6.23536 11.1441V11.3817Z" fill="#D13239"/>
<path d="M23.9381 9.44727H25.1724L23.7618 17.6601H22.4922L23.9381 9.44727Z" fill="#D13239"/>
<path d="M36.5985 17.6258H35.0821L34.6589 13.5194L32.7898 17.6258L31.3086 17.6598L30.6738 11.7546L31.9081 11.7207L32.3313 15.895L34.2004 11.7207H35.6816L36.1401 15.895L38.0092 11.7207H39.2787L36.5985 17.6258Z" fill="#D13239"/>
<path d="M21.5753 11.7881C21.2226 11.6863 20.5878 11.6523 20.0941 11.6523C19.6004 11.6523 19.3535 11.6863 19.1772 11.7202C19.1772 11.7202 18.2955 11.856 17.7665 12.4669C17.2375 13.0777 17.0965 14.4013 17.0965 14.4013C17.0965 14.4013 16.7791 15.8606 16.8849 16.3697C16.9907 16.8448 17.1318 17.3199 17.696 17.5235C18.2603 17.7272 18.754 17.7272 18.754 17.7272C18.754 17.7272 19.7767 17.795 20.5526 17.6253C21.3284 17.4557 21.7163 16.9127 21.7163 16.9127C21.7163 16.9127 21.8927 16.6751 22.0337 16.4036C22.1748 16.1321 22.2101 15.9624 22.2101 15.9285L22.2806 15.623H20.9757C20.9757 15.623 20.9052 16.4715 20.1999 16.5394C19.4946 16.6072 19.1066 16.5733 18.9656 16.5733C18.8245 16.5733 18.0839 16.6072 18.1192 15.9964V15.9624C18.1545 15.2497 18.225 15.08 18.225 15.08H22.3511L22.5274 14.0958C22.7743 12.9759 22.6333 12.1275 21.5753 11.7881ZM21.2931 13.9262H18.4718L18.5777 13.485C18.5777 13.485 18.6835 13.1456 18.8598 13.0098C19.0714 12.8741 19.3182 12.8402 19.5298 12.8062C19.7767 12.7723 20.3762 12.7383 20.9052 12.8402C21.0815 12.8741 21.2226 12.9759 21.2931 13.1117C21.3989 13.451 21.2931 13.9262 21.2931 13.9262Z" fill="#D13239"/>
<path d="M29.3702 11.7881C29.0175 11.6863 28.3827 11.6523 27.889 11.6523C27.3953 11.6523 27.1484 11.6863 26.9721 11.7202C26.9721 11.7202 26.0904 11.856 25.5614 12.4669C25.0325 13.0777 24.8914 14.4013 24.8914 14.4013C24.8914 14.4013 24.574 15.8606 24.6798 16.3697C24.7856 16.8448 24.9267 17.3199 25.4909 17.5235C26.0552 17.7272 26.5489 17.7272 26.5489 17.7272C26.5489 17.7272 27.5716 17.795 28.3475 17.6253C29.1233 17.4557 29.5112 16.9127 29.5112 16.9127C29.5112 16.9127 29.6876 16.6751 29.8286 16.4036C29.9697 16.1321 30.005 15.9624 30.005 15.9285L30.0755 15.623H28.7706C28.7706 15.623 28.7001 16.4715 27.9948 16.5394C27.2895 16.6072 26.9015 16.5733 26.7605 16.5733C26.6194 16.5733 25.8788 16.6072 25.9141 15.9964V15.9624C25.9494 15.2497 26.0199 15.08 26.0199 15.08H30.146L30.3224 14.0958C30.5692 12.9759 30.4282 12.1275 29.3702 11.7881ZM29.0881 13.9262H26.2668L26.3726 13.485C26.3726 13.485 26.4784 13.1456 26.6547 13.0098C26.8663 12.8741 27.1132 12.8402 27.3247 12.8062C27.5716 12.7723 28.1711 12.7383 28.7001 12.8402C28.8764 12.8741 29.0175 12.9759 29.0881 13.1117C29.1939 13.451 29.0881 13.9262 29.0881 13.9262Z" fill="#D13239"/>
<path d="M40.7264 11.7546L41.5375 16.0647L43.8298 11.7546H45.1347L41.8197 17.9313C41.8197 17.9313 41.2201 19.0512 40.8322 19.3227C40.4443 19.5942 40.2327 19.73 39.9153 19.7639C39.5979 19.7978 39.4921 19.7978 39.21 19.7639L38.8926 19.696L39.0689 18.5761C39.0689 18.5761 39.5979 18.6779 39.88 18.5421C40.1974 18.4403 40.4443 17.9313 40.4443 17.9313L40.5853 17.6937L39.3863 11.7207L40.7264 11.7546Z" fill="#D13239"/>
<path d="M45.5925 12.3319H46.9326L47.0031 11.8228C47.0031 11.8228 47.1442 10.9404 47.4616 10.7368C47.5674 10.6689 47.7437 10.635 47.92 10.6011C48.2727 10.5332 48.6959 10.5332 49.0838 10.5332C49.6481 10.5671 49.8597 10.5671 50.4239 10.635C50.9882 10.7029 50.8471 11.2119 50.8471 11.2119L50.7413 11.9925C50.7413 11.9925 50.7061 12.3319 50.565 12.5694C50.4592 12.7731 50.1418 12.9088 49.9655 12.9427C49.5423 13.0785 48.0259 13.4518 48.0259 13.4518L46.8621 13.7912C46.8621 13.7912 46.1215 13.9948 45.7336 14.436C45.3104 14.8772 45.1693 15.3523 45.0988 15.6238C45.0282 15.8953 44.7461 17.6601 44.7461 17.6601H51.1293L51.3409 16.4383H46.2978L46.4036 15.9292C46.4036 15.9292 46.4741 15.4202 46.6857 15.2505C46.7563 15.1826 46.7915 15.1147 47.1795 14.979C47.4263 14.9111 48.2374 14.6736 48.2374 14.6736L50.1418 14.1645C50.1418 14.1645 51.1645 13.893 51.5877 13.35C52.0109 12.807 52.152 11.7549 52.152 11.7549C52.152 11.7549 52.2578 10.7368 52.1872 10.4314C52.1167 10.1259 51.7993 9.71869 51.4114 9.58294C51.0235 9.41325 50.6355 9.31143 49.4718 9.34537C48.308 9.37931 47.7437 9.41324 47.1795 9.61687C46.6152 9.82049 46.2625 10.1938 46.0509 10.7368C45.7335 11.2459 45.5925 12.3319 45.5925 12.3319Z" fill="#B3B2B1"/>
<path d="M57.6178 14.6058L58.4995 9.44727H56.9125L51.9753 14.5379L51.7637 15.8275H56.0661L55.7487 17.6262H57.0888L57.4062 15.8275H58.6406L58.8521 14.6058H57.6178ZM56.2777 14.6058H53.4917L56.8773 11.1441L56.2777 14.6058Z" fill="#B3B2B1"/>
<path d="M10.0449 10.1254H14.1005C14.1005 10.1254 15.0174 9.41275 15.6522 8.97156C16.287 8.53038 17.4861 7.78375 17.4861 7.78375L15.1938 6.76562C15.1938 6.76562 13.2541 7.9195 12.443 8.4625C11.6319 8.97156 10.0449 10.1254 10.0449 10.1254Z" fill="#B3B2B1"/>
<path d="M18.7539 7.07129L16.8848 5.84955C16.8848 5.84955 18.5776 4.93323 20.8698 4.05085C23.1269 3.16848 24.3259 2.8291 24.3259 2.8291L24.7138 4.55992C24.7138 4.55992 22.5273 5.27261 21.293 5.81561C19.9882 6.35861 18.7539 7.07129 18.7539 7.07129Z" fill="#B3B2B1"/>
<path d="M26.0908 4.15303L25.7734 2.38828C25.7734 2.38828 28.101 1.7774 30.217 1.40409C32.3329 1.03078 35.1542 0.827148 35.1542 0.827148L34.2373 3.57609C34.2373 3.57609 31.7687 3.23671 29.4411 3.54215C27.6073 3.77971 26.0908 4.15303 26.0908 4.15303Z" fill="#B3B2B1"/>
<path d="M35.7188 3.81327L37.3057 0.79282C37.3057 0.79282 40.7618 0.724947 43.7241 1.16613C46.6865 1.60732 49.402 2.28607 49.3314 2.32001L41.8198 6.12101C41.8198 6.12101 40.0565 5.03501 37.87 4.3902C36.6004 4.01688 35.7188 3.81327 35.7188 3.81327Z" fill="#B3B2B1"/>
<path d="M43.123 6.93501L44.7806 8.15676H58.358C58.358 8.15676 58.3227 7.74951 57.9701 7.13864C57.7585 6.76533 57.3353 6.35808 56.9121 5.95083C56.771 5.81508 56.1362 5.33995 55.6778 5.03451C54.4787 4.28788 53.8087 3.98245 52.5743 3.43945L43.123 6.93501Z" fill="#B3B2B1"/>
<path d="M10.9258 11.7207C10.4321 11.7207 9.93837 11.9243 9.51517 12.128L9.58571 11.7207H8.24558L7.15234 17.5919H8.49245L9.09198 14.3339C9.23304 13.6891 9.72676 12.8406 10.7142 12.8406H11.4195L11.6311 11.6868H10.9258V11.7207Z" fill="#D13239"/>
</svg>
