<svg width="64" height="64" viewBox="0 0 64 64" fill="none" xmlns="http://www.w3.org/2000/svg">
<rect width="64" height="64" rx="32" fill="white"/>
<path d="M20.4264 33.9313H17.8834L18.0567 32.9858L22.0158 32.958L21.8713 33.8479L18.548 36.8792H21.3222L21.1778 37.8247H17.0742L17.2476 36.8514L20.4264 33.9313Z" fill="#D13239"/>
<path d="M13.7219 31.4836C13.6352 31.4002 13.5196 31.3167 13.3751 31.2611C13.2306 31.2055 13.0572 31.1777 12.9127 31.1499C12.7104 31.1221 12.537 31.0942 12.3925 31.0942H9.15593L8 37.7964H9.06924L9.50271 35.3213H11.5834C11.5834 35.3213 12.3925 35.3491 12.9705 35.071C13.5485 34.7651 13.693 34.0977 13.693 34.0977C13.693 34.0977 13.7507 33.8474 13.8085 33.5415C13.8663 33.2078 13.9241 32.8184 13.953 32.596C13.953 32.5125 13.9819 32.4569 13.9819 32.4569C13.9819 32.4569 14.0108 32.4013 14.0108 32.2901C14.0108 32.151 13.9819 31.9285 13.8663 31.7061C13.8374 31.6226 13.7796 31.567 13.7219 31.4836ZM12.8838 32.6794C12.8838 32.6794 12.7971 33.2356 12.6526 33.8752C12.5948 34.1255 12.4214 34.2367 12.1902 34.2923C11.8146 34.3758 11.41 34.348 11.41 34.348H9.6761L10.0518 32.1232H11.9013C12.0747 32.1232 12.3058 32.1232 12.4792 32.151C12.6526 32.1788 12.7682 32.2066 12.7971 32.2622C12.8549 32.3179 12.8838 32.4013 12.8838 32.4847V32.6794Z" fill="#D13239"/>
<path d="M27.39 31.0942H28.4015L27.2455 37.8242H26.2052L27.39 31.0942Z" fill="#D13239"/>
<path d="M37.7651 37.7969H36.5224L36.1757 34.4319L34.6441 37.7969L33.4303 37.8247L32.9102 32.9858L33.9216 32.958L34.2684 36.3786L35.8 32.958H37.0137L37.3894 36.3786L38.921 32.958H39.9613L37.7651 37.7969Z" fill="#D13239"/>
<path d="M25.453 33.0136C25.164 32.9302 24.6438 32.9023 24.2392 32.9023C23.8347 32.9023 23.6324 32.9302 23.4879 32.958C23.4879 32.958 22.7654 33.0692 22.3319 33.5698C21.8985 34.0704 21.7829 35.1549 21.7829 35.1549C21.7829 35.1549 21.5228 36.3507 21.6095 36.7679C21.6962 37.1572 21.8118 37.5466 22.2742 37.7134C22.7365 37.8803 23.1411 37.8803 23.1411 37.8803C23.1411 37.8803 23.9792 37.9359 24.6149 37.7968C25.2507 37.6578 25.5686 37.2128 25.5686 37.2128C25.5686 37.2128 25.7131 37.0182 25.8286 36.7957C25.9442 36.5732 25.9731 36.4342 25.9731 36.4064L26.0309 36.1561H24.9617C24.9617 36.1561 24.9039 36.8513 24.3259 36.9069C23.748 36.9626 23.4301 36.9347 23.3145 36.9347C23.1989 36.9347 22.592 36.9625 22.6209 36.462V36.4342C22.6498 35.8502 22.7076 35.7111 22.7076 35.7111H26.0887L26.2332 34.9046C26.4355 33.9869 26.3199 33.2917 25.453 33.0136ZM25.2218 34.7656H22.9099L22.9966 34.4041C22.9966 34.4041 23.0833 34.126 23.2278 34.0147C23.4012 33.9035 23.6035 33.8757 23.7769 33.8479C23.9791 33.8201 24.4704 33.7923 24.9039 33.8757C25.0484 33.9035 25.164 33.9869 25.2218 34.0982C25.3085 34.3763 25.2218 34.7656 25.2218 34.7656Z" fill="#D13239"/>
<path d="M31.8416 33.0136C31.5526 32.9302 31.0325 32.9023 30.6279 32.9023C30.2233 32.9023 30.021 32.9302 29.8765 32.958C29.8765 32.958 29.1541 33.0692 28.7206 33.5698C28.2871 34.0704 28.1715 35.1549 28.1715 35.1549C28.1715 35.1549 27.9115 36.3507 27.9982 36.7679C28.0849 37.1572 28.2004 37.5466 28.6628 37.7134C29.1252 37.8803 29.5298 37.8803 29.5298 37.8803C29.5298 37.8803 30.3678 37.9359 31.0036 37.7968C31.6393 37.6578 31.9572 37.2128 31.9572 37.2128C31.9572 37.2128 32.1017 37.0182 32.2173 36.7957C32.3329 36.5732 32.3618 36.4342 32.3618 36.4064L32.4196 36.1561H31.3504C31.3504 36.1561 31.2926 36.8513 30.7146 36.9069C30.1366 36.9626 29.8187 36.9347 29.7031 36.9347C29.5876 36.9347 28.9807 36.9625 29.0096 36.462V36.4342C29.0385 35.8502 29.0963 35.7111 29.0963 35.7111H32.4774L32.6219 34.9046C32.8242 33.9869 32.7086 33.2917 31.8416 33.0136ZM31.6104 34.7656H29.2986L29.3853 34.4041C29.3853 34.4041 29.472 34.126 29.6165 34.0147C29.7898 33.9035 29.9921 33.8757 30.1655 33.8479C30.3678 33.8201 30.8591 33.7923 31.2926 33.8757C31.437 33.9035 31.5526 33.9869 31.6104 34.0982C31.6971 34.3763 31.6104 34.7656 31.6104 34.7656Z" fill="#D13239"/>
<path d="M41.147 32.9858L41.8117 36.5176L43.69 32.9858H44.7593L42.0428 38.0472C42.0428 38.0472 41.5516 38.9649 41.2337 39.1874C40.9158 39.4098 40.7424 39.5211 40.4823 39.5489C40.2223 39.5767 40.1356 39.5767 39.9044 39.5489L39.6443 39.4933L39.7888 38.5755C39.7888 38.5755 40.2222 38.659 40.4534 38.5477C40.7135 38.4643 40.9158 38.0472 40.9158 38.0472L41.0314 37.8525L40.0489 32.958L41.147 32.9858Z" fill="#D13239"/>
<path d="M45.135 33.4584H46.2331L46.2909 33.0413C46.2909 33.0413 46.4065 32.3182 46.6666 32.1514C46.7533 32.0958 46.8978 32.068 47.0422 32.0401C47.3312 31.9845 47.678 31.9845 47.9959 31.9845C48.4583 32.0123 48.6317 32.0123 49.094 32.0679C49.5564 32.1236 49.4408 32.5407 49.4408 32.5407L49.3541 33.1803C49.3541 33.1803 49.3252 33.4584 49.2096 33.6531C49.1229 33.82 48.8629 33.9312 48.7184 33.959C48.3716 34.0702 47.129 34.3761 47.129 34.3761L46.1753 34.6542C46.1753 34.6542 45.5685 34.8211 45.2506 35.1826C44.9038 35.5442 44.7882 35.9335 44.7304 36.156C44.6726 36.3784 44.4414 37.8245 44.4414 37.8245H49.672L49.8454 36.8234H45.7129L45.7996 36.4062C45.7996 36.4062 45.8574 35.9891 46.0308 35.8501C46.0886 35.7944 46.1175 35.7388 46.4354 35.6276C46.6377 35.572 47.3023 35.3773 47.3023 35.3773L48.8629 34.9602C48.8629 34.9602 49.7009 34.7377 50.0477 34.2927C50.3945 33.8478 50.51 32.9857 50.51 32.9857C50.51 32.9857 50.5967 32.1514 50.5389 31.9011C50.4812 31.6508 50.2211 31.3171 49.9032 31.2059C49.5853 31.0668 49.2674 30.9834 48.3138 31.0112C47.3601 31.039 46.8978 31.0668 46.4354 31.2337C45.973 31.4005 45.684 31.7064 45.5106 32.1514C45.2506 32.5685 45.135 33.4584 45.135 33.4584Z" fill="#B3B2B1"/>
<path d="M54.9884 35.3213L55.7108 31.0942H54.4104L50.3647 35.2657L50.1913 36.3224H53.7169L53.4568 37.7964H54.5549L54.815 36.3224H55.8264L55.9998 35.3213H54.9884ZM53.8903 35.3213H51.6073L54.3815 32.4847L53.8903 35.3213Z" fill="#B3B2B1"/>
<path d="M16.0059 31.6511H19.3292C19.3292 31.6511 20.0805 31.0671 20.6007 30.7056C21.1208 30.344 22.1034 29.7322 22.1034 29.7322L20.225 28.8979C20.225 28.8979 18.6356 29.8435 17.9709 30.2884C17.3063 30.7056 16.0059 31.6511 16.0059 31.6511Z" fill="#B3B2B1"/>
<path d="M23.141 29.1481L21.6094 28.1469C21.6094 28.1469 22.9965 27.3961 24.8749 26.673C26.7244 25.95 27.7069 25.6719 27.7069 25.6719L28.0248 27.0902C28.0248 27.0902 26.2331 27.6742 25.2217 28.1191C24.1524 28.5641 23.141 29.1481 23.141 29.1481Z" fill="#B3B2B1"/>
<path d="M29.1546 26.7561L28.8945 25.31C28.8945 25.31 30.8018 24.8094 32.5357 24.5035C34.2696 24.1976 36.5815 24.0308 36.5815 24.0308L35.8301 26.2833C35.8301 26.2833 33.8072 26.0052 31.9 26.2555C30.3972 26.4502 29.1546 26.7561 29.1546 26.7561Z" fill="#B3B2B1"/>
<path d="M37.043 26.4781L38.3434 24.0031C38.3434 24.0031 41.1754 23.9475 43.6029 24.309C46.0303 24.6705 48.2555 25.2267 48.1977 25.2545L42.0424 28.3692C42.0424 28.3692 40.5974 27.4793 38.8058 26.9509C37.7654 26.645 37.043 26.4781 37.043 26.4781Z" fill="#B3B2B1"/>
<path d="M43.1113 29.0367L44.4695 30.0379H55.5954C55.5954 30.0379 55.5665 29.7042 55.2775 29.2036C55.1041 28.8977 54.7573 28.564 54.4105 28.2303C54.2949 28.119 53.7748 27.7297 53.3991 27.4794C52.4166 26.8676 51.8675 26.6173 50.8561 26.1724L43.1113 29.0367Z" fill="#B3B2B1"/>
<path d="M16.7269 32.958C16.3223 32.958 15.9177 33.1248 15.571 33.2917L15.6288 32.958H14.5306L13.6348 37.769H14.7329L15.2242 35.0993C15.3398 34.5709 15.7443 33.8757 16.5535 33.8757H17.1314L17.3048 32.9302H16.7269V32.958Z" fill="#D13239"/>
</svg>
