<svg width="40" height="40" viewBox="0 0 40 40" fill="none" xmlns="http://www.w3.org/2000/svg">
<rect width="40" height="40" rx="20" fill="url(#paint0_linear_2488_52955)"/>
<path d="M26.2725 22.3528C25.5185 21.9228 24.6678 21.7948 23.8244 21.7628C23.1231 21.7422 22.0704 21.2802 22.0704 19.9995C22.0704 19.0448 22.8411 18.2741 23.8351 18.2361C24.6785 18.2041 25.5291 18.0761 26.2825 17.6421C28.4112 16.4127 29.1439 13.69 27.9145 11.5586C26.6752 9.42593 23.9464 8.70058 21.8104 9.93394C20.429 10.7253 19.5784 12.2013 19.5844 13.792C19.5844 14.656 19.8937 15.448 20.2857 16.1914C20.6164 16.8094 20.7757 17.9654 19.6537 18.6148C18.8103 19.0974 17.7583 18.7961 17.2376 17.9554C16.797 17.2434 16.265 16.5801 15.5116 16.1501C13.3802 14.9174 10.6508 15.6494 9.42882 17.7748C8.2028 19.9075 8.93215 22.6289 11.0635 23.8582C12.4422 24.6496 14.1362 24.6496 15.5149 23.8582C16.265 23.4269 16.797 22.7642 17.2376 22.0528C17.5983 21.4722 18.5117 20.7295 19.6537 21.3922C20.4984 21.8715 20.7584 22.9382 20.2857 23.8195C19.897 24.5482 19.5844 25.3509 19.5844 26.2149C19.5844 28.6736 21.5784 30.663 24.0358 30.6663C26.4945 30.6663 28.4839 28.6736 28.4872 26.2149C28.4945 24.6249 27.6505 23.1489 26.2718 22.3535L26.2725 22.3528Z" fill="#E5E5E5"/>
<defs>
<linearGradient id="paint0_linear_2488_52955" x1="14.285" y1="14.2845" x2="28.6314" y2="28.6309" gradientUnits="userSpaceOnUse">
<stop stop-color="#11AAE2"/>
<stop offset="0.594" stop-color="#0880B7"/>
<stop offset="1" stop-color="#016197"/>
</linearGradient>
</defs>
</svg>
