<svg width="64" height="64" viewBox="0 0 64 64" fill="none" xmlns="http://www.w3.org/2000/svg">
<rect x="0.5" y="0.5" width="63" height="63" rx="31.5" fill="#283291"/>
<g clip-path="url(#clip0_456_25820)">
<path d="M54.1702 26.9994L56.9898 32.7295L51.0625 38.4624L54.1702 26.9994Z" fill="#008C44"/>
<path d="M52.2174 26.9994L55.0328 32.7295L49.1094 38.4624L52.2174 26.9994Z" fill="#F47920"/>
<path d="M7.01147 36.3774L9.82272 26.0114H14.3172C15.7218 26.0114 16.6601 26.239 17.1375 26.708C17.6114 27.1732 17.7028 27.9326 17.4171 29C17.2443 29.6287 16.9817 30.1565 16.6209 30.5735C16.263 30.9912 15.791 31.3215 15.2098 31.5645C15.7029 31.6858 16.0166 31.9267 16.1572 32.2879C16.2971 32.6491 16.2809 33.1759 16.1111 33.8664L15.7692 35.3144L15.7682 35.3536C15.6695 35.759 15.6987 35.976 15.8595 35.9936L15.7559 36.3774H12.7155C12.7258 36.1335 12.7447 35.9155 12.7648 35.7324C12.7869 35.545 12.8141 35.3998 12.8411 35.3L13.1246 34.2649C13.2674 33.7265 13.2763 33.351 13.1437 33.1347C13.01 32.9126 12.7105 32.8034 12.2378 32.8034H10.9601L9.98569 36.3774H7.01147ZM11.5923 30.4675H12.9609C13.4405 30.4675 13.7944 30.3974 14.0126 30.2524C14.2318 30.1062 14.3945 29.8593 14.49 29.5021C14.5889 29.1389 14.5646 28.8857 14.4227 28.7417C14.2811 28.5955 13.9422 28.5244 13.4093 28.5244H12.1193L11.5923 30.4675Z" fill="white"/>
<path d="M25.7612 28.7282L23.6887 36.3775H21.1703L21.4798 35.2569C21.0365 35.7025 20.583 36.0408 20.1257 36.2571C19.6722 36.4772 19.1935 36.5854 18.6897 36.5854C18.2732 36.5854 17.9156 36.5081 17.6277 36.3546C17.3363 36.2016 17.1194 35.969 16.9733 35.6623C16.8437 35.3938 16.7873 35.0622 16.8094 34.666C16.8327 34.2762 16.9672 33.6185 17.2165 32.6976L18.2906 28.7282H21.0454L19.9735 32.679C19.817 33.2573 19.7797 33.6637 19.856 33.8851C19.9355 34.1084 20.1478 34.2237 20.4924 34.2237C20.8395 34.2237 21.1313 34.0951 21.3723 33.8326C21.6168 33.5723 21.8055 33.1842 21.9474 32.6677L23.0104 28.7282H25.7612Z" fill="white"/>
<path d="M24.7617 36.3779L27.57 26.0119H31.4332C32.2856 26.0119 32.9453 26.0634 33.4159 26.1765C33.8854 26.2847 34.2535 26.4606 34.5272 26.7085C34.8701 27.0328 35.0802 27.4342 35.1666 27.9158C35.2478 28.3973 35.1997 28.9582 35.0218 29.6169C34.7071 30.7757 34.1556 31.6637 33.3697 32.2841C32.5814 32.8966 31.606 33.2043 30.4419 33.2043H28.634L27.7752 36.3779H24.7617ZM29.3185 30.6727H30.29C30.918 30.6727 31.3596 30.5933 31.6183 30.4401C31.8686 30.2848 32.0466 30.009 32.155 29.6169C32.2635 29.2195 32.2355 28.9417 32.0716 28.7864C31.9138 28.6319 31.5105 28.5538 30.8653 28.5538H29.8958L29.3185 30.6727Z" fill="white"/>
<path d="M38.2633 36.3774L38.2913 35.6509C37.847 35.9913 37.3972 36.2486 36.9448 36.4093C36.4944 36.5731 36.0148 36.6562 35.5011 36.6562C34.7209 36.6562 34.1768 36.4392 33.8621 36.0192C33.5514 35.5984 33.5003 34.9943 33.7124 34.2236C33.9154 33.463 34.2764 32.9031 34.7972 32.5451C35.3151 32.1829 36.18 31.9236 37.3935 31.7579C37.5474 31.7322 37.7535 31.7116 38.0117 31.6797C38.9088 31.5735 39.4124 31.3288 39.5209 30.9296C39.5774 30.7111 39.543 30.5498 39.4105 30.4509C39.2826 30.3481 39.0436 30.2976 38.6985 30.2976C38.412 30.2976 38.1816 30.3584 37.9926 30.4848C37.8038 30.6124 37.663 30.7988 37.5675 31.061H34.8817C35.1242 30.1999 35.6197 29.5493 36.3636 29.1142C37.1048 28.6716 38.0822 28.4586 39.2927 28.4586C39.8618 28.4586 40.3716 28.5131 40.8222 28.6314C41.2736 28.7447 41.6035 28.9062 41.8175 29.1017C42.0808 29.3456 42.2367 29.6237 42.2811 29.9311C42.3324 30.2378 42.2762 30.6774 42.1191 31.2527L40.9639 35.5173C40.9268 35.657 40.9197 35.7816 40.9398 35.8949C40.9639 36.0029 41.01 36.0953 41.0915 36.1614L41.0294 36.3774H38.2633ZM38.9329 32.9619C38.6403 33.0822 38.2601 33.1975 37.7876 33.3241C37.0457 33.5278 36.6282 33.7996 36.5379 34.136C36.4753 34.3522 36.5006 34.5188 36.6039 34.6454C36.7058 34.7657 36.8827 34.8265 37.1321 34.8265C37.5893 34.8265 37.9565 34.7082 38.2302 34.4746C38.5046 34.2379 38.7098 33.8664 38.8533 33.354C38.8784 33.245 38.9005 33.1666 38.9147 33.1081L38.9329 32.9619Z" fill="white"/>
<path d="M41.0505 39.3916L41.6619 37.1275H42.4503C42.7136 37.1275 42.9208 37.0743 43.0675 36.9773C43.2165 36.8766 43.3179 36.7068 43.3763 36.4782C43.4055 36.3775 43.4234 36.2715 43.4357 36.1511C43.4436 36.0235 43.4436 35.8886 43.4357 35.7324L43.015 28.7282H45.8034L45.7603 33.3693L48.1945 28.7282H50.7876L46.484 36.3405C45.9956 37.1914 45.6407 37.7759 45.4154 38.0949C45.193 38.4099 44.982 38.6548 44.777 38.8206C44.5115 39.05 44.215 39.2125 43.8949 39.3072C43.5741 39.4039 43.0857 39.4521 42.4292 39.4521C42.2402 39.4521 42.0227 39.4484 41.7876 39.4358C41.5542 39.4265 41.3051 39.4122 41.0505 39.3916Z" fill="white"/>
</g>
<rect x="0.5" y="0.5" width="63" height="63" rx="31.5" stroke="#000C33"/>
<defs>
<clipPath id="clip0_456_25820">
<rect width="50" height="13.4615" fill="white" transform="translate(7 26)"/>
</clipPath>
</defs>
</svg>
