<svg width="64" height="64" viewBox="0 0 64 64" fill="none" xmlns="http://www.w3.org/2000/svg">
<rect width="64" height="64" rx="32" fill="white"/>
<path fill-rule="evenodd" clip-rule="evenodd" d="M36.6366 31.6475H38.8374C39.5352 31.6225 39.9596 31.5692 40.1124 31.4857C40.321 31.3717 40.4611 31.1434 40.5308 30.801C40.5753 30.5731 40.5976 30.2343 40.5976 29.7841C40.5976 29.2327 40.5534 28.824 40.4644 28.5571C40.3374 28.1831 40.0333 27.9554 39.5516 27.8727C39.4565 27.8602 39.2284 27.8535 38.8672 27.8535H36.6366V31.6475ZM33.1054 38.0375V25H39.6825C40.5846 25 41.2731 25.0732 41.746 25.2195C42.8278 25.5564 43.5536 26.2462 43.9253 27.2887C44.1173 27.8358 44.2132 28.6596 44.2132 29.7595C44.2132 31.0819 44.1068 32.0323 43.8962 32.6109C43.4744 33.7551 42.606 34.4142 41.2947 34.585C41.1405 34.6106 40.4844 34.6336 39.3264 34.6519L38.7403 34.6714H36.6356V38.0375H33.1054ZM18.6642 29.1589H15.38C15.38 28.6232 15.3167 28.2637 15.1906 28.0807C14.9952 27.8099 14.4557 27.6743 13.5729 27.6743C12.7155 27.6743 12.147 27.7523 11.8697 27.9084C11.5924 28.065 11.4537 28.4055 11.4537 28.9299C11.4537 29.4045 11.5765 29.7171 11.8229 29.8669C11.9993 29.9732 12.2325 30.0356 12.5232 30.0543L13.1855 30.1008C14.605 30.1944 15.4915 30.2604 15.8451 30.2979C16.9677 30.4103 17.7815 30.7071 18.2864 31.1879C18.6838 31.5631 18.9207 32.0534 18.9963 32.6589C19.0405 33.0211 19.0625 33.4309 19.0625 33.8863C19.0625 34.9359 18.9618 35.7046 18.76 36.1917C18.3943 37.0855 17.5728 37.65 16.2947 37.8871C15.7592 37.9874 14.94 38.0376 13.8381 38.0376C11.9989 38.0376 10.717 37.9287 9.99331 37.71C9.10502 37.442 8.51941 36.8992 8.236 36.0818C8.07813 35.6267 8 34.869 8 33.8081H11.2842L11.2844 33.9857L11.2845 34.0792C11.2845 34.6453 11.4483 35.0094 11.775 35.1715C12.0014 35.2834 12.2748 35.342 12.5963 35.349H13.8036C14.4198 35.349 14.813 35.3177 14.9826 35.2547C15.2845 35.1367 15.4826 34.9468 15.5773 34.6839C15.6276 34.5221 15.6526 34.3127 15.6526 34.0564C15.6526 33.4824 15.4417 33.1332 15.0208 33.0079C14.8634 32.9584 14.1311 32.8895 12.824 32.802C11.7743 32.7275 11.0452 32.6559 10.6368 32.5864C9.56158 32.3865 8.845 31.9754 8.48743 31.3513C8.17314 30.8209 8.01591 30.0186 8.01591 28.9452C8.01591 28.1278 8.10089 27.4724 8.27069 26.9793C8.44064 26.4862 8.71451 26.1118 9.09245 25.8557C9.64608 25.4627 10.3545 25.2319 11.2169 25.1629C11.9344 25.1008 12.7304 25.069 13.606 25.069C14.9844 25.069 15.9667 25.1477 16.5523 25.3039C17.9815 25.6855 18.696 26.7546 18.696 28.5114C18.696 28.6555 18.6854 28.8709 18.6642 29.1589ZM49.3945 27.5928L51.0485 33.2443H47.7893L49.3945 27.5928ZM47.031 35.7843H51.751L52.4245 38.0375H56.0002L52.0107 25H46.6855L42.7444 38.0375H46.3968L47.031 35.7843Z" fill="#0D4383"/>
<path fill-rule="evenodd" clip-rule="evenodd" d="M28.2335 26.8344C29.6896 26.8344 30.989 27.5011 31.8433 28.5453L32.6042 26.9236C31.4141 25.8055 29.7943 25.1162 28.0077 25.1162C25.226 25.1162 22.8465 26.786 21.8699 29.1497H20.386L19.5098 31.0167H21.4187C21.4044 31.1899 21.3952 31.3632 21.3952 31.5401C21.3952 31.7541 21.4063 31.9655 21.4276 32.1745H20.4682L19.5922 34.0421H21.9154C22.9198 36.346 25.2696 37.9635 28.0077 37.9635C29.3875 37.9635 30.6679 37.5525 31.7281 36.8506V34.5617C30.8743 35.5278 29.6256 36.1384 28.2335 36.1384C26.6062 36.1384 25.1748 35.3043 24.3412 34.0421H29.2061L30.0821 32.1745H23.6254C23.5922 31.9497 23.5744 31.7201 23.5744 31.4861C23.5744 31.328 23.5826 31.1714 23.5979 31.0167H30.6251L31.5011 29.1497H24.2056C25.0125 27.7657 26.5139 26.8344 28.2335 26.8344Z" fill="#FFBE00"/>
</svg>
