<svg width="64" height="64" viewBox="0 0 64 64" fill="none" xmlns="http://www.w3.org/2000/svg">
<rect width="64" height="64" rx="32" fill="#F884A1"/>
<path fill-rule="evenodd" clip-rule="evenodd" d="M38.057 26.9131L40.133 16.7068C40.3828 15.5618 39.6959 14.408 38.5451 14.0733C37.2605 13.7562 35.967 14.4961 35.6369 15.7468L33.7554 22.1069L32.2722 15.8436C32.1562 15.2623 31.7994 14.7427 31.2909 14.408C30.7824 14.0733 30.149 13.9588 29.5513 14.0821C28.3738 14.3287 27.6066 15.6851 27.901 16.9182L28.7759 24.0114C28.0158 23.2631 27.128 23.0325 26.0992 23.6209L25.9654 23.709C25.028 24.3393 24.8372 25.6272 25.4395 26.8004C24.9409 26.828 24.4534 27.0333 24.0828 27.4082L23.9936 27.5051C23.1283 28.3858 23.2978 29.8743 24.3772 30.9401L25.2525 31.8014C25.3503 35.7908 28.6368 38.5851 32.5119 38.5851C32.5577 38.5851 32.602 38.5789 32.6439 38.5673C37.8939 38.5164 40.2011 35.4299 40.5965 30.7462C40.7213 29.2665 40.4448 28.2536 39.8649 27.6459C39.5438 27.3112 39.2048 27.1527 38.9461 27.1174L38.057 26.9131ZM37.1176 26.6973L39.1874 16.513C39.3302 15.8437 38.9287 15.1831 38.2864 14.9893C37.5371 14.8043 36.7699 15.2535 36.5647 16.0022L34.165 24.1229C34.0936 24.3783 33.826 24.5193 33.5673 24.4488C33.3635 24.3933 33.2316 24.2175 33.2198 24.0205L31.3266 16.0374C31.2552 15.6939 31.05 15.3944 30.7557 15.2007C30.4613 15.0069 30.0955 14.9452 29.7476 15.0157C29.1231 15.1478 28.6593 15.9757 28.8466 16.7156L28.8555 16.7684L29.9369 25.5698L30.6169 26.5718C30.9139 26.1644 31.3424 25.9105 31.854 25.7963C32.2822 25.7082 32.7193 25.717 33.1386 25.7875C33.2432 25.8022 33.3227 25.8231 33.3668 25.8347C33.3753 25.837 33.3826 25.8389 33.3884 25.8403L37.1176 26.6973ZM30.1896 27.6537L29.123 26.0822C29.0879 26.0451 29.0587 26.0025 29.0372 25.9557L28.5346 25.2151C27.919 24.3255 27.3213 24.0173 26.6077 24.4224L26.5095 24.4929C25.9564 24.8716 25.8851 25.77 26.456 26.6332L28.5613 29.7247C28.936 30.2707 29.6854 30.4117 30.2385 30.0417L30.3455 29.9801C30.4936 29.8845 30.6163 29.753 30.7042 29.6016C30.176 29.0673 30.0451 28.4068 30.1896 27.6537ZM31.6769 29.1917C31.6221 29.1097 31.5408 29.044 31.4407 29.0072C31.0378 28.625 31.0217 28.1478 31.2117 27.5226C31.3544 27.0646 31.631 26.8268 32.0681 26.7299C32.3536 26.6682 32.6658 26.677 32.9691 26.7299C33.0032 26.7366 33.0333 26.7421 33.0591 26.7467C33.1008 26.7542 33.131 26.7597 33.1475 26.7651L38.7677 28.0599L38.8747 28.0951C38.9639 28.1303 39.0621 28.2008 39.1602 28.2977C39.5349 28.694 39.749 29.4427 39.6419 30.6758C39.2762 34.9915 37.2422 37.6691 32.4071 37.625C32.3798 37.625 32.3531 37.6272 32.327 37.6315C29.3949 37.5551 26.9146 35.6649 26.3394 32.8709L27.0624 33.5824C27.9277 34.4015 29.2926 34.3839 30.1312 33.5383L30.2293 33.4415C30.8948 32.7558 31.0089 31.7459 30.5765 30.947C30.6404 30.913 30.7033 30.8755 30.7648 30.8344L30.8718 30.764C31.1144 30.6009 31.3182 30.3907 31.4745 30.1486C31.8003 30.3163 32.1921 30.4633 32.6569 30.5877L34.0039 30.8959C33.0048 31.4508 32.3803 32.4813 32.309 34.0579C32.2911 34.3222 32.4963 34.5423 32.7639 34.56C33.0315 34.5688 33.2546 34.375 33.2724 34.1108C33.3438 32.6839 33.9058 31.9176 34.8068 31.583C35.2885 31.4068 35.8149 31.3716 36.2787 31.4156L36.3947 31.4332C37.0103 31.5477 37.2065 30.6405 36.591 30.4996L32.8888 29.6805C32.3535 29.5361 31.9582 29.3757 31.6769 29.1917ZM24.7786 28.0776C25.1489 27.6949 25.752 27.6489 26.1866 27.9472L27.7585 30.2619C28.1896 30.8837 28.8878 31.2133 29.5937 31.201C29.9786 31.6623 29.958 32.3447 29.5245 32.7809L29.4353 32.8778C28.9714 33.3446 28.2132 33.3534 27.7404 32.8954L25.0641 30.2795C24.3237 29.5484 24.2255 28.6501 24.6894 28.1744L24.7786 28.0776ZM21.2098 47.525C21.2098 48.9959 20.0501 50 18.5335 50C17.4719 50 16.562 49.5243 16 48.7669L17.0437 47.7364C17.356 48.1327 17.8734 48.5643 18.5514 48.5643C19.1848 48.5643 19.6219 48.1944 19.6219 47.5955C19.6219 46.9613 19.1045 46.8028 18.2927 46.5738C16.8029 46.1422 16.1963 45.3759 16.1963 44.3806C16.1963 43.1299 17.1597 42.0554 18.6763 42.0554C19.6308 42.0554 20.514 42.4958 20.9065 43.3501L19.6486 44.134C19.4078 43.7465 19.0777 43.4911 18.6317 43.4911C18.1053 43.4911 17.7753 43.8434 17.7753 44.2926C17.7753 44.8298 18.257 44.9972 19.0242 45.2174C20.2285 45.5697 21.2098 46.1598 21.2098 47.525ZM21.7539 47.1903C21.7539 48.7316 23.0564 49.9999 24.6621 49.9999C26.2679 49.9999 27.5703 48.7316 27.5703 47.1903C27.5703 45.6489 26.2679 44.3806 24.6621 44.3806C23.0564 44.3806 21.7539 45.6489 21.7539 47.1903ZM24.6612 48.5906C25.4373 48.5906 26.0528 47.9829 26.0528 47.1902C26.0528 46.3975 25.4373 45.7898 24.6612 45.7898C23.8762 45.7898 23.2695 46.3975 23.2695 47.1902C23.2695 47.9917 23.8851 48.5906 24.6612 48.5906ZM31.3253 42.1526V43.5618C30.4778 43.5266 29.8623 43.9493 29.8623 44.883V45.4555C30.2012 45.1032 30.683 44.927 31.2807 44.927V46.3539C30.4421 46.3715 29.8623 46.8999 29.8623 47.6398V49.8593H28.3457V44.7949C28.3457 43.368 29.2556 42.1526 31.1023 42.1526H31.3253ZM34.6348 49.9999C33.029 49.9999 31.7266 48.7316 31.7266 47.1903C31.7266 45.6489 33.029 44.3806 34.6348 44.3806C36.2405 44.3806 37.543 45.6489 37.543 47.1903C37.543 48.7316 36.2405 49.9999 34.6348 49.9999ZM36.0275 47.1902C36.0275 47.9829 35.4208 48.5906 34.6358 48.5906C33.8597 48.5906 33.2441 47.9917 33.2441 47.1902C33.2441 46.3975 33.8597 45.7898 34.6358 45.7898C35.4119 45.7898 36.0275 46.3975 36.0275 47.1902ZM39.8352 45.1381V44.5304H38.3633V49.8591H39.8798V47.4281C39.8798 46.5474 40.4062 46.0541 41.3161 46.0541V44.4511C40.6292 44.4247 40.1385 44.6537 39.8352 45.1381ZM43.7082 45.8339V47.1374C43.7082 48.071 44.3237 48.485 45.1712 48.4586V49.8678H44.9482C43.0926 49.8678 42.1916 48.6523 42.1916 47.2255V42.8216H43.7082V43.6584C43.7082 44.3806 44.3059 44.9267 45.1266 44.9443V46.3623C44.52 46.3623 44.0472 46.1862 43.7082 45.8339ZM46.9838 49.9469C47.5369 49.9469 48.0008 49.4977 48.0008 48.9428C48.0008 48.3967 47.5458 47.9387 46.9838 47.9387C46.4218 47.9387 45.9668 48.3879 45.9668 48.9428C45.9668 49.4977 46.4218 49.9469 46.9838 49.9469Z" fill="white"/>
</svg>
