<svg width="40" height="40" viewBox="0 0 40 40" fill="none" xmlns="http://www.w3.org/2000/svg">
<rect width="40" height="40" rx="20" fill="black"/>
<path d="M30.2033 11.1203L26.8101 12.8491L10.4246 21.1951C10.3691 20.7725 10.3413 20.3467 10.3411 19.9205C10.3457 16.4603 12.1817 13.2611 15.1671 11.5117C18.1525 9.76222 21.8409 9.724 24.8619 11.4112L26.8041 10.4216L27.0938 10.2738C23.466 7.64067 18.6679 7.2649 14.6745 9.30113C10.681 11.3374 8.1671 15.4414 8.16757 19.9241C8.16757 20.2277 8.17909 20.5302 8.20214 20.8314C8.26816 21.7037 7.80362 22.5303 7.02417 22.9274L6 23.4497V25.8855L9.01528 24.3486L9.99176 23.8503L10.9539 23.3602L28.2277 14.5588L30.1687 13.5704L34.1807 11.5257V9.09103L30.2033 11.1203Z" fill="white"/>
<path d="M34.1807 13.9626L11.9352 25.2893L9.99414 26.2801L6 28.3153V30.7488L9.96672 28.7278L13.3599 26.999L29.7622 18.6412C29.8176 19.0665 29.8455 19.4951 29.8456 19.924C29.8435 23.3884 28.0053 26.592 25.0155 28.3421C22.0257 30.0922 18.3323 30.1265 15.3105 28.4322L15.1913 28.4954L13.0857 29.5684C16.7127 32.2016 21.5099 32.5782 25.5034 30.5434C29.4968 28.5086 32.0117 24.406 32.0132 19.924C32.0132 19.6176 32.0013 19.3112 31.9786 19.0084C31.9127 18.1364 32.3766 17.3101 33.1554 16.9123L34.1807 16.3901V13.9626Z" fill="white"/>
</svg>
