<svg width="36" height="36" viewBox="0 0 36 36" fill="none" xmlns="http://www.w3.org/2000/svg">
<g clip-path="url(#clip0_2485_52714)">
<path d="M11.3762 1.35749C15.8966 -0.434736 21.1622 -0.310764 25.5622 1.77086C24.3084 1.58138 23.0332 1.72423 21.7921 1.93295C18.4215 2.56613 15.2184 4.14372 12.7147 6.48735C10.314 8.83467 8.63174 11.9491 8.15666 15.2812C7.8423 17.6422 8.1336 20.1187 9.1987 22.2677C10.2962 24.5225 12.2281 26.3717 14.5566 27.3261C16.8003 28.2705 19.4029 28.2602 21.6756 27.4172C25.0856 26.1723 27.5358 22.8109 27.8159 19.2198C27.9922 16.8662 27.4167 14.3623 25.827 12.5572C24.3096 10.7901 22.0901 9.81683 19.8691 9.26284C19.75 7.08389 20.782 4.93122 22.4186 3.51424C23.3274 2.69898 24.4554 2.17941 25.6217 1.84672L25.7102 1.81637C29.0491 3.40914 31.8862 6.03587 33.6939 9.26062C35.2426 12.0061 36.0503 15.1698 35.9703 18.3213C35.955 22.3965 34.4238 26.4313 31.7988 29.5473C29.3166 32.5189 25.8449 34.6564 22.0611 35.5123C18.2672 36.3831 14.1853 36.0075 10.6347 34.4036C7.16038 32.8601 4.21693 30.1767 2.34453 26.8761C0.786871 24.1332 -0.037162 20.9706 0.0312904 17.8154C0.038731 13.8842 1.442 9.98336 3.89215 6.90922C5.84937 4.45457 8.44573 2.50285 11.3762 1.35749Z" fill="#E60000"/>
<path d="M21.7921 1.93329C23.0332 1.72458 24.3085 1.58173 25.5622 1.7712L25.7423 1.80155L25.6217 1.84707C24.4554 2.17976 23.3275 2.69933 22.4186 3.51458C20.7821 4.93157 19.7501 7.08424 19.8691 9.26319C22.0901 9.81718 24.3096 10.7904 25.8271 12.5575C27.4167 14.3627 27.9923 16.8666 27.8159 19.2202C27.5358 22.8113 25.0856 26.1726 21.6757 27.4175C19.403 28.2605 16.8003 28.2709 14.5566 27.3265C12.2281 26.3721 10.2962 24.5229 9.19873 22.268C8.13363 20.1191 7.84233 17.6426 8.15669 15.2816C8.63177 11.9495 10.3141 8.83502 12.7147 6.48769C15.2184 4.14407 18.4216 2.56648 21.7921 1.93329Z" fill="white"/>
</g>
<defs>
<clipPath id="clip0_2485_52714">
<rect width="36" height="36" fill="white"/>
</clipPath>
</defs>
</svg>
