<svg width="32" height="32" viewBox="0 0 32 32" fill="none" xmlns="http://www.w3.org/2000/svg">
<path d="M26.7171 26.7923C26.6705 26.8361 26.6254 26.8819 26.6254 26.8819C24.2958 29.1527 21.2303 30.6519 17.9938 31.104C17.9938 31.104 17.8125 31.1245 17.6572 31.1437C17.8173 31.039 18.0143 30.9098 18.0143 30.9098C18.9007 30.2839 20.6038 28.9187 22.0497 26.8142C22.0497 26.8142 22.0572 26.8032 22.0647 26.7923H26.7171ZM21.1243 26.7923C21.0935 26.834 21.0627 26.875 21.0627 26.875C19.7256 28.6622 18.2229 29.89 17.1976 30.6054C17.1976 30.6054 16.578 31.0137 16.3584 31.1567V26.7923H21.1243ZM15.6443 26.7923V31.1567C15.5103 31.0684 14.8058 30.6068 14.8044 30.6054C13.7799 29.89 12.2779 28.6622 10.9407 26.875C10.9407 26.875 10.9099 26.834 10.8785 26.7923H15.6443ZM9.93802 26.7923C9.94554 26.8032 9.95375 26.8142 9.95375 26.8142C11.0002 28.338 12.3593 29.7217 13.9912 30.9262C13.9926 30.9262 14.1506 31.0281 14.288 31.1163C14.1348 31.0951 13.9755 31.0739 13.9755 31.0739C10.7143 30.6355 7.74112 29.1855 5.37734 26.8819C5.37734 26.8819 5.33219 26.8361 5.28637 26.7923H9.93802ZM30.2039 21.4731C30.1909 21.5087 30.1765 21.5435 30.1765 21.5435C29.5336 23.1775 28.6178 24.6802 27.4537 26.0085C27.4537 26.0085 27.4455 26.0174 27.438 26.0262H22.5579C22.5804 25.9873 22.6037 25.9476 22.6037 25.9476C23.4327 24.5523 24.0147 23.0606 24.3334 21.5148C24.3334 21.5148 24.3382 21.4943 24.3423 21.4731H30.2039ZM23.5619 21.4731C23.5544 21.5039 23.5476 21.536 23.5476 21.536C23.2083 23.0961 22.5763 24.5981 21.6687 26.003C21.6687 26.003 21.6612 26.0139 21.6537 26.0262H16.3584V21.4731H23.5619ZM15.6443 21.4731V26.0262H10.3491C10.3416 26.0139 10.334 26.003 10.334 26.003C9.42709 24.5981 8.79511 23.0961 8.45586 21.536C8.45586 21.536 8.44902 21.5039 8.4415 21.4731H15.6443ZM7.66041 21.4731C7.66452 21.4943 7.6693 21.5148 7.6693 21.5148C7.98803 23.0606 8.5694 24.5523 9.39905 25.9476C9.39905 25.9476 9.42231 25.9873 9.44556 26.0262H4.56547C4.55794 26.0174 4.54974 26.0085 4.54974 26.0085C3.38494 24.6802 2.46912 23.1775 1.82687 21.5435L1.79883 21.4731H7.66041ZM30.4782 11.2663C30.4843 11.2847 30.4898 11.3025 30.4898 11.3025C30.9802 12.812 31.2305 14.392 31.234 15.9973C31.2305 17.6114 30.9782 19.1989 30.4816 20.7159C30.4816 20.7159 30.4761 20.7344 30.4707 20.7522H1.53003C1.52387 20.7344 1.5184 20.7159 1.5184 20.7159C1.02253 19.1989 0.770144 17.6114 0.766724 15.9973C0.770144 14.3927 1.02048 12.8127 1.51088 11.3025C1.51088 11.3025 1.51635 11.2847 1.52251 11.2663H30.4782ZM27.438 5.94639C27.4455 5.95528 27.4537 5.96418 27.4537 5.96418C28.6178 7.29312 29.535 8.79511 30.1765 10.4284C30.1765 10.4284 30.1909 10.464 30.2039 10.4995H24.3423C24.3382 10.479 24.3334 10.4585 24.3334 10.4585C24.0147 8.91207 23.4327 7.42102 22.6037 6.02505C22.6037 6.02505 22.5804 5.98538 22.5579 5.94639H27.438ZM21.6537 5.94639C21.6612 5.95802 21.6687 5.97033 21.6687 5.97033C22.5763 7.37383 23.2083 8.87718 23.5476 10.4366C23.5476 10.4366 23.5544 10.4681 23.5619 10.4995H16.3584V5.94639H21.6537ZM15.6443 5.94639V10.4995H8.4415C8.44902 10.4681 8.45586 10.4366 8.45586 10.4366C8.79511 8.87718 9.42709 7.37383 10.334 5.97033C10.334 5.97033 10.3416 5.95802 10.3491 5.94639H15.6443ZM9.44556 5.94639C9.42231 5.98538 9.39905 6.02505 9.39905 6.02505C8.5694 7.42102 7.98803 8.91207 7.6693 10.4585C7.6693 10.4585 7.66452 10.479 7.66041 10.4995H1.79883C1.81251 10.464 1.82687 10.4284 1.82687 10.4284C2.46912 8.79511 3.38494 7.29312 4.54974 5.96418C4.54974 5.96418 4.55794 5.95528 4.56547 5.94639H9.44556ZM22.0497 5.15846C21.0032 3.63459 19.6449 2.25161 18.0122 1.04647C18.0102 1.04578 17.8522 0.944557 17.7154 0.856325C17.8679 0.877527 18.028 0.898729 18.028 0.898729C21.2884 1.33647 24.2623 2.78647 26.6254 5.09144C26.6254 5.09144 26.6705 5.13589 26.7171 5.18035H22.0647C22.0572 5.16941 22.0497 5.15846 22.0497 5.15846ZM16.3584 0.816654C16.4931 0.904202 17.1997 1.36793 17.1997 1.36793C18.2229 2.08267 19.7256 3.31108 21.0627 5.09759C21.0627 5.09759 21.0935 5.13931 21.1243 5.18035H16.3584V0.816654ZM10.9407 5.09759C12.2779 3.31108 13.7805 2.08267 14.8051 1.36656C14.8051 1.36656 15.4255 0.959602 15.6443 0.816654V5.18035H10.8785C10.9099 5.13931 10.9407 5.09759 10.9407 5.09759ZM5.37734 5.09144C7.70692 2.81999 10.7725 1.32074 14.009 0.869318C14.009 0.869318 14.1902 0.847433 14.3462 0.828966C14.1861 0.934298 13.9905 1.0622 13.9905 1.0622C13.102 1.68939 11.399 3.05459 9.95375 5.15846C9.95375 5.15846 9.94554 5.16941 9.93802 5.18035H5.28637C5.33219 5.13589 5.37734 5.09144 5.37734 5.09144ZM15.8954 0C7.13034 0.0567684 0 7.23362 0 15.9973C0 24.8197 7.17753 31.9993 16 32C24.8218 31.9993 32 24.8197 32 15.9973C32 7.23362 24.8697 0.0567684 16.104 0H15.8954Z" fill="#8A7B7B"/>
<path d="M19.0732 12.7405C18.7456 12.8479 18.6573 13.2535 18.4439 13.9545L17.2785 17.9974C17.0534 18.8032 17.0582 19.0425 17.1889 19.2156L17.1902 19.2949H15.2409L15.2402 19.2156C15.5473 19.0637 15.6103 18.8462 15.8503 18.0522L17.0158 14.0257C17.2374 13.2384 17.2914 12.9505 17.1239 12.7432V12.6646L19.0718 12.6639L19.0732 12.7405Z" fill="#8A7B7B"/>
<path d="M2.50208 17.6054C2.62177 18.5499 3.1238 19.0198 4.20789 18.9548C4.96572 18.9097 5.34942 18.3694 5.35284 17.7948C5.35626 17.3208 5.06353 16.9207 4.52867 16.5404L4.21336 16.3325C3.55196 15.8681 2.95965 15.3763 2.96512 14.5391C2.97265 13.349 3.94456 12.5994 5.24136 12.542C5.61891 12.5249 6.09495 12.5762 6.4595 12.6712C6.64964 12.7205 6.90613 12.8053 7.01146 12.8402L6.70573 14.0015L6.61886 14.0029C6.45266 13.2916 6.14761 12.8935 5.16612 12.9729C4.476 13.029 4.15043 13.583 4.1477 14.0569C4.14428 14.5508 4.4377 14.8606 4.99376 15.219L5.30907 15.4167C6.03339 15.8886 6.65375 16.3872 6.64827 17.2689C6.63938 18.5889 5.60454 19.4186 4.08409 19.4199C3.20793 19.4199 2.39743 19.1258 2.09375 18.8563C2.10675 18.7346 2.275 18.1724 2.41932 17.6095L2.50208 17.6054Z" fill="#8A7B7B"/>
<path d="M24.7894 12.663C24.6998 12.925 24.539 13.4297 24.4105 13.8285H24.3318C24.0213 13.0214 23.2717 13.1274 22.7409 13.1274L22.6848 13.126C22.3175 13.126 22.2163 13.2102 22.1226 13.5528L21.531 15.7019H21.73C22.6308 15.7019 23.26 15.7839 23.5172 15.4324H23.5965L23.2525 16.6464H23.1745C23.0056 16.1074 22.3709 16.1656 21.5788 16.1642H21.3908L20.8593 17.9931C20.6644 18.6757 20.5994 19.0266 20.769 19.2092L20.7697 19.2954L18.8184 19.2988V19.2174C19.1583 19.0847 19.2274 18.7797 19.4538 18.0157L20.6254 13.953C20.8395 13.2143 20.8805 12.953 20.7157 12.7417L20.7136 12.663H24.7894Z" fill="#8A7B7B"/>
<path d="M30.1316 12.6635C30.0016 13.0404 29.8887 13.4117 29.7458 13.829L29.6651 13.8283C29.3655 13.0308 28.5584 13.1265 28.2069 13.1265H28.1221L26.7165 18.0025C26.5291 18.7255 26.4525 19.0292 26.6303 19.2131L26.629 19.2959H24.7228L24.7207 19.2131C25.0524 19.0565 25.129 18.7248 25.3424 17.9916L26.7534 13.1265H26.6139C26.1563 13.1265 25.43 13.0561 24.8972 13.829L24.8089 13.8283C24.9293 13.4911 25.0606 13.0793 25.2056 12.6635H30.1316Z" fill="#8A7B7B"/>
<path d="M16.1855 12.7448C15.9031 12.9445 15.7396 13.2769 15.3976 13.915C14.8204 14.9902 12.7944 19.0024 12.6412 19.2979H11.9101L11.5059 15.1175H11.4737L9.20705 19.2979H8.60243L8.04499 13.9581C7.97591 13.3316 7.94035 12.9226 7.73242 12.7386L7.73447 12.6627H9.62085L9.62017 12.7386C9.39104 12.9855 9.33427 13.253 9.3883 13.8774L9.70361 17.0524H9.72413L12.0893 12.7215H12.6207L13.0304 17.0613H13.0571C13.568 16.0812 14.291 14.6804 14.741 13.7954C15.1357 13.0204 14.9818 12.8446 14.9291 12.7448V12.6613L16.1869 12.6641L16.1855 12.7448Z" fill="#8A7B7B"/>
</svg>
