<svg width="40" height="40" viewBox="0 0 40 40" fill="none" xmlns="http://www.w3.org/2000/svg">
<g clip-path="url(#clip0_2488_52957)">
<circle cx="20" cy="20" r="20" fill="white"/>
<path fill-rule="evenodd" clip-rule="evenodd" d="M20 40C8.95375 40 0 31.0462 0 20C0 8.95375 8.95375 0 20 0C31.0462 0 40 8.95375 40 20C40 31.0462 31.0462 40 20 40ZM22.4025 17.2413V14.2838H29.17V9.77375H10.7438V14.2838H17.5112V17.24C12.0112 17.4925 7.875 18.5825 7.875 19.8875C7.875 21.1925 12.0112 22.2812 17.5112 22.535V32.0125H22.4025V22.5325C27.8938 22.28 32.02 21.1912 32.02 19.8875C32.02 18.5837 27.8938 17.495 22.4025 17.2413ZM22.4025 21.7287V21.7262C22.265 21.7362 21.5562 21.7788 19.975 21.7788C18.7125 21.7788 17.8237 21.7413 17.5112 21.7262V21.73C12.6512 21.5163 9.02375 20.67 9.02375 19.6575C9.02375 18.6462 12.6512 17.8 17.5112 17.5825V20.8875C17.8288 20.91 18.7388 20.9637 19.9963 20.9637C21.505 20.9637 22.2613 20.9013 22.4025 20.8888V17.585C27.2525 17.8013 30.8713 18.6475 30.8713 19.6575C30.8713 20.67 27.2525 21.5138 22.4025 21.7287Z" fill="#FF060A"/>
</g>
<defs>
<clipPath id="clip0_2488_52957">
<rect width="40" height="40" fill="white"/>
</clipPath>
</defs>
</svg>
