<svg width="64" height="64" viewBox="0 0 64 64" fill="none" xmlns="http://www.w3.org/2000/svg">
<rect x="0.506762" y="0.506762" width="62.9865" height="62.9865" rx="31.4932" fill="white"/>
<path d="M20.6433 20.0015H29.9617C31.2625 20.0015 32.0715 21.0607 31.768 22.3646L27.4297 40.9738C27.1235 42.2731 25.8212 43.3333 24.5195 43.3333H15.202C13.9031 43.3333 13.0922 42.2731 13.3957 40.9738L17.7359 22.3646C18.0393 21.0607 19.341 20.0015 20.6433 20.0015Z" fill="#E21836"/>
<path d="M29.1857 20H39.9016C41.2021 20 40.6157 21.0593 40.3097 22.3631L35.9721 40.9723C35.6677 42.2717 35.7626 43.3318 34.4594 43.3318H23.7435C22.4402 43.3318 21.6337 42.2717 21.9399 40.9723L26.2773 22.3631C26.5853 21.0593 27.8843 20 29.1857 20Z" fill="#00447C"/>
<path d="M39.4782 20H48.7966C50.0992 20 50.9082 21.0593 50.6023 22.3631L46.2646 40.9723C45.9584 42.2717 44.6552 43.3318 43.3528 43.3318H34.0388C32.7355 43.3318 31.9272 42.2717 32.2324 40.9723L36.5708 22.3631C36.8742 21.0593 38.175 20 39.4782 20Z" fill="#007B84"/>
<path d="M23.0777 25.9635C22.1194 25.9733 21.8364 25.9635 21.746 25.9422C21.7113 26.1072 21.0646 29.0873 21.0628 29.0898C20.9236 29.6927 20.8223 30.1225 20.4782 30.4C20.2829 30.5614 20.0548 30.6392 19.7904 30.6392C19.3655 30.6392 19.1179 30.4284 19.0764 30.0286L19.0684 29.8913C19.0684 29.8913 19.1979 29.0837 19.1979 29.0791C19.1979 29.0791 19.8765 26.3634 19.998 26.0044C20.0044 25.9839 20.0062 25.9733 20.0078 25.9635C18.6868 25.9751 18.4527 25.9635 18.4365 25.9422C18.4277 25.9715 18.395 26.1398 18.395 26.1398L17.702 29.2008L17.6425 29.4603L17.5273 30.3095C17.5273 30.5614 17.5769 30.7669 17.6754 30.9408C17.9911 31.492 18.8917 31.5746 19.4011 31.5746C20.0575 31.5746 20.6733 31.4352 21.0894 31.1808C21.8117 30.7545 22.0006 30.088 22.1692 29.4957L22.2473 29.1919C22.2473 29.1919 22.9464 26.3713 23.0652 26.0044C23.0697 25.9839 23.0715 25.9733 23.0777 25.9635ZM25.4563 28.2389C25.2878 28.2389 24.9798 28.2798 24.7031 28.4152C24.6028 28.4668 24.5078 28.5262 24.4077 28.5854L24.498 28.2594L24.4485 28.2044C23.8619 28.3231 23.7306 28.339 23.1887 28.4152L23.1432 28.4454C23.0803 28.9667 23.0244 29.3586 22.7912 30.3831C22.7024 30.7607 22.6102 31.1419 22.5177 31.5186L22.5427 31.5665C23.098 31.5372 23.2666 31.5372 23.7492 31.5451L23.7883 31.5027C23.8496 31.1889 23.8575 31.1154 23.9934 30.4798C24.0572 30.1784 24.1903 29.5163 24.2559 29.2805C24.3765 29.2247 24.4956 29.1698 24.6091 29.1698C24.8796 29.1698 24.8467 29.4055 24.8362 29.4995C24.8247 29.6572 24.7261 30.1723 24.625 30.6145L24.5576 30.9C24.5105 31.1108 24.459 31.3157 24.412 31.5247L24.4324 31.5665C24.9798 31.5372 25.1467 31.5372 25.6142 31.5451L25.6691 31.5027C25.7536 31.0126 25.7784 30.8814 25.9283 30.1677L26.0037 29.8398C26.1502 29.1981 26.2238 28.8727 26.1129 28.6077C25.9957 28.3106 25.7145 28.2389 25.4563 28.2389ZM28.1135 28.9108C27.8226 28.9666 27.637 29.0039 27.4526 29.0279C27.2697 29.0572 27.0914 29.0837 26.8103 29.1228L26.788 29.143L26.7676 29.1591C26.7383 29.3683 26.7178 29.5491 26.679 29.7618C26.646 29.9816 26.5954 30.2315 26.5129 30.5905C26.4491 30.8653 26.4162 30.961 26.3798 31.0577C26.3444 31.1544 26.3053 31.2483 26.2336 31.5186L26.2504 31.5435L26.2645 31.5665C26.5273 31.554 26.6992 31.5451 26.8759 31.5435C27.0524 31.5372 27.2352 31.5435 27.5182 31.5451L27.543 31.5249L27.5695 31.5027C27.6104 31.259 27.6166 31.1934 27.6415 31.0745C27.6663 30.947 27.709 30.7704 27.8137 30.2989C27.8632 30.0774 27.9184 29.8566 27.9697 29.6306C28.0231 29.4055 28.079 29.1838 28.1321 28.9623L28.1242 28.9356L28.1135 28.9108ZM28.1197 28.0049C27.8553 27.849 27.3913 27.8985 27.079 28.1138C26.7676 28.3249 26.7322 28.6244 26.9957 28.7823C27.2555 28.9339 27.7213 28.8888 28.0309 28.6716C28.3416 28.456 28.3805 28.1592 28.1197 28.0049ZM29.7186 31.6153C30.2535 31.6153 30.8017 31.468 31.2144 31.031C31.532 30.6765 31.6776 30.1492 31.728 29.932C31.8922 29.2122 31.7643 28.8762 31.6037 28.6715C31.3598 28.3595 30.9287 28.2594 30.4815 28.2594C30.2126 28.2594 29.5721 28.2859 29.0717 28.7468C28.7124 29.0793 28.5464 29.5304 28.4462 29.9629C28.3451 30.4036 28.2288 31.1969 28.9591 31.4921C29.1844 31.5888 29.5092 31.6153 29.7186 31.6153ZM29.6768 29.9958C29.8001 29.4507 29.9457 28.9933 30.3173 28.9933C30.6085 28.9933 30.6296 29.3336 30.5001 29.8805C30.477 30.0019 30.3707 30.4533 30.2269 30.6455C30.1265 30.7873 30.0077 30.8733 29.8764 30.8733C29.8374 30.8733 29.605 30.8733 29.6014 30.5286C29.5996 30.3584 29.6343 30.1846 29.6768 29.9958ZM33.0651 31.5452L33.1069 31.5028C33.1661 31.189 33.1759 31.1152 33.3072 30.4798C33.3728 30.1785 33.5087 29.5163 33.5725 29.2806C33.6933 29.2245 33.8103 29.1696 33.9275 29.1696C34.1962 29.1696 34.1635 29.4054 34.1528 29.4993C34.143 29.6572 34.0445 30.1721 33.9416 30.6144L33.8777 30.8999C33.8289 31.1109 33.7758 31.3156 33.7287 31.5248L33.7492 31.5665C34.2984 31.5373 34.459 31.5373 34.9291 31.5452L34.9859 31.5028C35.0683 31.0124 35.0906 30.8812 35.245 30.1678L35.3186 29.8397C35.4658 29.198 35.5403 28.8728 35.4313 28.6077C35.3107 28.3107 35.0277 28.239 34.7731 28.239C34.6043 28.239 34.2947 28.2796 34.0197 28.4153C33.9213 28.4668 33.8228 28.5261 33.726 28.5855L33.8103 28.2594L33.7651 28.2043C33.1786 28.3232 33.0446 28.3391 32.5034 28.4153L32.4618 28.4455C32.3962 28.9667 32.3428 29.3584 32.1096 30.3832C32.0207 30.7608 31.9285 31.142 31.8363 31.5187L31.8611 31.5665C32.4173 31.5373 32.5833 31.5373 33.0651 31.5452ZM37.1001 31.5664C37.1346 31.3981 37.3397 30.4001 37.3416 30.4001C37.3416 30.4001 37.5162 29.6678 37.5269 29.6412C37.5269 29.6412 37.5819 29.565 37.6368 29.5348H37.7177C38.4806 29.5348 39.3421 29.5348 40.0173 29.0385C40.4768 28.6982 40.7909 28.1955 40.9311 27.5847C40.9674 27.4349 40.9942 27.2568 40.9942 27.0786C40.9942 26.8447 40.9472 26.6132 40.8114 26.4324C40.4671 25.9511 39.7814 25.9422 38.9898 25.9386C38.9873 25.9386 38.5996 25.9422 38.5996 25.9422C37.5864 25.9547 37.1801 25.9511 37.0131 25.9307C36.999 26.0044 36.9725 26.1356 36.9725 26.1356C36.9725 26.1356 36.6095 27.8161 36.6095 27.8189C36.6095 27.8189 35.741 31.3919 35.7001 31.5603C36.5848 31.5496 36.9475 31.5496 37.1001 31.5664ZM37.7726 28.5811C37.7726 28.5811 38.1585 26.9039 38.1567 26.9103L38.1692 26.8243L38.1747 26.7587L38.3289 26.7746C38.3289 26.7746 39.1247 26.8429 39.1434 26.8447C39.4575 26.9661 39.5869 27.279 39.4965 27.6875C39.4141 28.0608 39.1717 28.3746 38.8604 28.5262C38.6039 28.6546 38.2898 28.6653 37.9662 28.6653H37.7567L37.7726 28.5811ZM40.1753 30.0269C40.0733 30.4612 39.9561 31.2545 40.6827 31.5372C40.9144 31.6357 41.122 31.665 41.333 31.6543C41.5558 31.6423 41.7622 31.5306 41.9535 31.37C41.9362 31.436 41.9189 31.5021 41.9017 31.5683L41.9346 31.6107C42.4572 31.5887 42.6194 31.5887 43.1856 31.593L43.237 31.554C43.3196 31.0684 43.3975 30.5969 43.6124 29.6679C43.7171 29.2229 43.8216 28.7822 43.929 28.339L43.9122 28.2902C43.3276 28.3985 43.1713 28.4216 42.609 28.5013L42.5663 28.536C42.5606 28.5811 42.5547 28.6245 42.5492 28.6678C42.4618 28.5267 42.335 28.4062 42.1395 28.3311C41.8894 28.2328 41.3021 28.3594 40.7972 28.8187C40.4424 29.1466 40.272 29.5959 40.1753 30.0269ZM41.4031 30.0534C41.5283 29.5181 41.6721 29.0652 42.0445 29.0652C42.2801 29.0652 42.4041 29.2823 42.3789 29.6527C42.3589 29.745 42.3373 29.8424 42.3116 29.9524C42.2744 30.1115 42.234 30.2692 42.1947 30.4271C42.1547 30.5351 42.1081 30.637 42.057 30.7049C41.9612 30.8406 41.7332 30.9248 41.6019 30.9248C41.5646 30.9248 41.3348 30.9248 41.3268 30.5862C41.325 30.4176 41.3598 30.244 41.4031 30.0534ZM47.8151 28.2859L47.7699 28.2344C47.1914 28.3515 47.0867 28.3701 46.5552 28.4418L46.5161 28.4808C46.5143 28.4872 46.5127 28.4969 46.51 28.5058L46.5082 28.4969C46.1125 29.4089 46.1241 29.2122 45.802 29.9302C45.8002 29.8975 45.8002 29.8771 45.7984 29.8423L45.7178 28.2859L45.6671 28.2344C45.0611 28.3515 45.0468 28.3701 44.4872 28.4418L44.4436 28.4808C44.4374 28.4994 44.4374 28.5199 44.4338 28.5421L44.4374 28.55C44.5074 28.9072 44.4906 28.8276 44.5608 29.3912C44.5935 29.6678 44.6371 29.946 44.6698 30.2193C44.725 30.6765 44.7559 30.9016 44.8233 31.5994C44.4454 32.2225 44.3559 32.4583 43.9921 33.0051L43.9946 33.0106L43.7383 33.4154C43.709 33.4581 43.6825 33.4873 43.6452 33.4998C43.6043 33.52 43.5512 33.5237 43.4774 33.5237H43.3354L43.1244 34.2248L43.8483 34.2373C44.2732 34.2355 44.5403 34.0369 44.6841 33.7701L45.1393 32.9908H45.132L45.1799 32.9359C45.4861 32.2774 47.8151 28.2859 47.8151 28.2859ZM40.1753 37.4949H39.8682L41.0047 33.7391H41.3818L41.5015 33.3522L41.513 33.7825C41.499 34.0484 41.7084 34.2842 42.2585 34.2451H42.8947L43.1136 33.522H42.8742C42.7366 33.522 42.6728 33.4872 42.6807 33.4128L42.6691 32.9751H41.491V32.9773C41.1101 32.9853 39.9727 33.0139 39.7424 33.0751C39.4637 33.1469 39.17 33.3579 39.17 33.3579L39.2854 32.9705H38.1834L37.9537 33.7391L36.802 37.5523H36.5785L36.3593 38.2702H38.5543L38.4807 38.5096H39.5622L39.634 38.2702H39.9375L40.1753 37.4949ZM39.2747 34.5022C39.0982 34.551 38.7698 34.699 38.7698 34.699L39.0619 33.7391H39.9375L39.7262 34.4385C39.7262 34.4385 39.4557 34.4544 39.2747 34.5022ZM39.2915 35.8735C39.2915 35.8735 39.0165 35.908 38.8354 35.9489C38.6571 36.0029 38.3228 36.173 38.3228 36.173L38.6244 35.1742H39.5046L39.2915 35.8735ZM38.8009 37.5037H37.9226L38.1772 36.6607H39.0528L38.8009 37.5037ZM40.9161 35.1742H42.1821L42.0001 35.7628H40.7173L40.5247 36.4063H41.6472L40.7973 37.602C40.7378 37.6898 40.6844 37.7209 40.6251 37.7456C40.5656 37.7758 40.4875 37.8112 40.3971 37.8112H40.0857L39.8717 38.516H40.6862C41.1096 38.516 41.3596 38.3236 41.5443 38.071L42.1271 37.2741L42.2523 38.0833C42.2788 38.2348 42.3878 38.3236 42.4617 38.3581C42.5432 38.3989 42.6275 38.469 42.7465 38.4795C42.8741 38.4849 42.9663 38.4892 43.0277 38.4892H43.4279L43.6682 37.7004H43.5103C43.4197 37.7004 43.2637 37.6852 43.2371 37.6569C43.2105 37.6224 43.2105 37.5693 43.1962 37.4885L43.0692 36.6775H42.5493L42.7774 36.4063H44.0577L44.2546 35.7628H43.0692L43.2539 35.1742H44.4356L44.6548 34.4482H41.1316L40.9161 35.1742ZM30.2233 37.6676L30.5188 36.6855H31.7332L31.9551 35.955H30.7396L30.9251 35.3505H32.113L32.3331 34.6432H29.3609L29.1454 35.3505H29.8206L29.6405 35.955H28.9634L28.739 36.698H29.414L29.0202 37.9973C28.9671 38.1693 29.0452 38.2349 29.0947 38.3148C29.1454 38.3926 29.1967 38.4441 29.3121 38.4734C29.4311 38.4999 29.5126 38.5158 29.6235 38.5158H30.9926L31.2365 37.7066L30.6296 37.7899C30.5124 37.7899 30.1879 37.7758 30.2233 37.6676ZM30.3626 32.9661L30.0548 33.5218C29.989 33.6432 29.9297 33.7186 29.8763 33.7533C29.8293 33.7826 29.7362 33.7948 29.6013 33.7948H29.4407L29.2261 34.5058H29.7593C30.0158 34.5058 30.2127 34.4118 30.3067 34.3648C30.4078 34.3108 30.4344 34.3417 30.5125 34.2664L30.6926 34.1105H32.3579L32.5789 33.3703H31.3599L31.5727 32.9661H30.3626ZM32.8211 37.6819C32.7927 37.641 32.8132 37.5691 32.8566 37.4193L33.3117 35.9142H34.9309C35.1669 35.9108 35.3372 35.9081 35.4481 35.9001C35.5671 35.8876 35.6966 35.8452 35.8376 35.769C35.9832 35.6891 36.0577 35.6049 36.1206 35.5082C36.1908 35.4118 36.3034 35.2007 36.4002 34.8753L36.9723 32.9706L35.292 32.9803C35.292 32.9803 34.7746 33.0566 34.5468 33.1408C34.317 33.2347 33.9886 33.497 33.9886 33.497L34.1403 32.9749H33.1023L31.6491 37.7899C31.5976 37.9769 31.5631 38.1126 31.5551 38.194C31.5524 38.2819 31.6659 38.3688 31.7395 38.4343C31.8265 38.4999 31.9551 38.4893 32.0784 38.4999C32.2081 38.5097 32.3925 38.5158 32.6471 38.5158H33.4448L33.6897 37.6898L32.9756 37.7572C32.8993 37.7572 32.8441 37.7164 32.8211 37.6819ZM33.6054 34.8976H35.3061L35.198 35.2361C35.1828 35.2441 35.1465 35.2194 34.9734 35.2398H33.5007L33.6054 34.8976ZM33.9461 33.7621H35.6611L35.5378 34.1699C35.5378 34.1699 34.7294 34.1619 34.6 34.1857C34.0303 34.2842 33.6976 34.5883 33.6976 34.5883L33.9461 33.7621ZM35.2361 36.3699C35.222 36.4205 35.1997 36.4514 35.1686 36.4745C35.1341 36.4967 35.0782 36.5047 34.9949 36.5047H34.7525L34.7668 36.0924H33.7588L33.718 38.1081C33.7164 38.2536 33.7304 38.3377 33.837 38.4051C33.9435 38.4893 34.2717 38.5 34.7135 38.5H35.3451L35.5731 37.7455L35.0233 37.7757L34.8404 37.7863C34.8154 37.7757 34.7916 37.7659 34.765 37.7394C34.7418 37.7164 34.7028 37.7305 34.7091 37.5851L34.7135 37.0684L35.2901 37.0445C35.6015 37.0445 35.7346 36.9433 35.8482 36.8469C35.9565 36.7545 35.992 36.6483 36.0328 36.5047L36.1296 36.0472H35.3371L35.2361 36.3699Z" fill="#FEFEFE"/>
<rect x="0.506762" y="0.506762" width="62.9865" height="62.9865" rx="31.4932" stroke="#000C33" stroke-width="1.01352"/>
</svg>
