<svg width="29" height="40" viewBox="0 0 29 40" fill="none" xmlns="http://www.w3.org/2000/svg">
<path fill-rule="evenodd" clip-rule="evenodd" d="M27.3386 16.7245C27.3386 21.6586 26.2049 25.3353 23.9395 27.731C21.6744 30.1268 18.1741 31.3242 13.4553 31.3242C9.0466 31.3242 5.70167 30.1266 3.42087 27.731C1.14002 25.3357 -0.000258779 21.723 4.40511e-08 16.8932V0.68847C0.000517691 0.506118 0.0735768 0.331364 0.2032 0.202376C0.3328 0.0733881 0.50847 0.000635293 0.691835 0H8.6859C8.86943 0.000517646 9.04519 0.0732227 9.17484 0.202234C9.30449 0.331222 9.37766 0.506047 9.37813 0.68847V17.2473C9.37813 19.2195 9.74496 20.7372 10.4915 21.808C10.8619 22.2964 11.3395 22.6943 11.8882 22.9715C12.4367 23.2484 13.0417 23.3972 13.6567 23.4063C14.272 23.4155 14.8812 23.2849 15.4377 23.0244C15.9944 22.764 16.484 22.3804 16.8689 21.9033C17.5986 20.8986 17.9624 19.4179 17.96 17.4614V14.3605H27.3386V16.7245Z" fill="#1351AE"/>
<path fill-rule="evenodd" clip-rule="evenodd" d="M26.6136 12.5492H17.9609V0.720988C17.9614 0.529929 18.0379 0.346847 18.1739 0.211765C18.3096 0.0766591 18.4936 0.000517647 18.6859 0H19.9809C19.9823 1.93953 20.7579 3.79905 22.1374 5.17011C23.5167 6.54093 25.387 7.31105 27.3372 7.31105H27.339V12.5492H26.6136Z" fill="#1351AE"/>
<path fill-rule="evenodd" clip-rule="evenodd" d="M21.8242 0H26.6143C26.8063 0.000517647 26.9906 0.0766591 27.1263 0.211765C27.2621 0.346847 27.3388 0.529929 27.3393 0.720988V5.49129C25.8767 5.49129 24.4739 4.91317 23.4395 3.88447C22.4052 2.856 21.8242 1.4607 21.8242 0.00595272V0Z" fill="#F4821F"/>
<path fill-rule="evenodd" clip-rule="evenodd" d="M28.9418 35.608V35.6164C28.9418 35.7437 28.9039 35.8684 28.8328 35.9743C28.7615 36.0802 28.6606 36.163 28.5422 36.2117C28.4239 36.2604 28.2938 36.2734 28.1679 36.2484C28.0422 36.2237 27.9269 36.1623 27.8363 36.0724C27.7458 35.9823 27.6839 35.8675 27.6589 35.7426C27.634 35.6176 27.6467 35.4882 27.6956 35.3703C27.7448 35.2527 27.8276 35.1522 27.9342 35.0814C28.0408 35.0105 28.166 34.9727 28.294 34.9727H28.9413L28.9418 35.608Z" fill="#1351AE"/>
<path fill-rule="evenodd" clip-rule="evenodd" d="M1.57105 39.1946C2.62933 39.1946 3.14053 38.6083 3.14053 37.7478V35.6737H2.38291V37.7271C2.38291 37.9424 2.29694 38.149 2.1439 38.301C1.99087 38.4532 1.78331 38.5388 1.56687 38.5388C1.35044 38.5388 1.14289 38.4532 0.989856 38.301C0.836821 38.149 0.750845 37.9424 0.750845 37.7271V35.6737H0V37.7541C0 38.6045 0.510799 39.1958 1.56948 39.1958L1.57105 39.1946ZM7.71174 39.1323V38.4843H6.03292L7.67551 36.2633V35.672H5.06328V36.3205H6.70563L5.06328 38.5346V39.1294L7.71174 39.1323ZM11.2503 39.1946C11.5482 39.2014 11.8423 39.1254 12.0993 38.9751C12.3562 38.825 12.5661 38.6061 12.7049 38.3438L12.0668 38.0381C11.9891 38.188 11.872 38.3139 11.7277 38.4026C11.5835 38.4913 11.4178 38.5391 11.2482 38.541C10.9553 38.5266 10.6788 38.4005 10.4767 38.1892C10.2743 37.9779 10.1616 37.6972 10.1616 37.4054C10.1616 37.1134 10.2743 36.8327 10.4767 36.6214C10.6788 36.4101 10.9553 36.284 11.2482 36.2697C11.4176 36.2727 11.5828 36.321 11.727 36.4094C11.871 36.4979 11.9884 36.6233 12.0668 36.7725L12.7049 36.4612C12.5661 36.1991 12.3562 35.981 12.099 35.8315C11.8421 35.6824 11.548 35.6075 11.2503 35.616C11.0096 35.609 10.7699 35.6499 10.5454 35.7367C10.3209 35.8233 10.116 35.9539 9.94327 36.1207C9.77056 36.2875 9.63315 36.4873 9.53927 36.7078C9.44538 36.9285 9.39715 37.1657 9.39715 37.4052C9.39715 37.6447 9.44538 37.8817 9.53927 38.1024C9.63315 38.3228 9.77056 38.5226 9.94327 38.6894C10.116 38.8563 10.3209 38.9868 10.5454 39.0737C10.7699 39.1603 11.0096 39.2012 11.2503 39.1941V39.1946ZM17.7188 39.1323L16.379 35.6737H15.451L14.1056 39.1323H14.9503L15.1691 38.5461H16.6604L16.8741 39.1323H17.7188ZM16.4571 37.8981H15.3724L15.9148 36.4097L16.4571 37.8981ZM22.7173 40L21.4414 37.816C21.6694 37.7612 21.8708 37.6283 22.0101 37.4405C22.1493 37.2527 22.2176 37.0221 22.2025 36.7892C22.2084 36.6372 22.1818 36.4857 22.1246 36.3447C22.0672 36.2038 21.9806 36.0763 21.8703 35.9711C21.7599 35.8657 21.6284 35.7847 21.4844 35.7337C21.3404 35.6826 21.187 35.6624 21.0348 35.6744H19.4075V39.133H20.1479V37.9035H20.6901L21.8672 39.9991L22.7173 40ZM20.9251 37.256H20.1482V36.3228H20.9225C20.9884 36.316 21.0548 36.3228 21.1178 36.3431C21.1806 36.3635 21.2385 36.3967 21.2877 36.4407C21.3366 36.4847 21.3759 36.5386 21.403 36.5986C21.4298 36.6586 21.4437 36.7235 21.4437 36.7894C21.4437 36.8551 21.4298 36.9203 21.403 36.9803C21.3759 37.0403 21.3366 37.0941 21.2877 37.1381C21.2385 37.1821 21.1806 37.2153 21.1178 37.2355C21.0548 37.256 20.9884 37.2628 20.9225 37.256H20.9251ZM25.4959 39.133C26.5856 39.133 27.3416 38.4485 27.3416 37.4064C27.3416 36.364 26.5839 35.6744 25.4959 35.6744H24.1246V39.133H25.4959ZM25.4959 38.485H24.8651V36.3228H25.4959C25.6416 36.312 25.7882 36.3327 25.9251 36.3835C26.0623 36.4341 26.1867 36.5137 26.2903 36.6165C26.3936 36.7193 26.4736 36.8431 26.5244 36.9793C26.5755 37.1155 26.5964 37.2612 26.5856 37.4064C26.5917 37.5501 26.5677 37.6937 26.5147 37.8278C26.462 37.9619 26.3816 38.0835 26.279 38.185C26.1762 38.2864 26.0533 38.3654 25.918 38.417C25.783 38.4685 25.6385 38.4913 25.4938 38.4843L25.4959 38.485Z" fill="#1351AE"/>
</svg>
