<svg width="60" height="12" viewBox="0 0 60 12" fill="none" xmlns="http://www.w3.org/2000/svg">
<path d="M18.8817 5.63325L14.3203 0.305061C14.2241 0.147107 14.0502 0.04161 13.8517 0.04161C13.5489 0.04161 13.3035 0.286894 13.3035 0.589597C13.3035 0.749083 13.3717 0.892664 13.4806 0.992835L17.6128 6.00067L13.5265 10.9134H13.0809H11.7612L15.623 6.42141C15.6254 6.41864 15.6277 6.41587 15.6301 6.4131L15.6309 6.41339C15.7385 6.2952 15.7864 6.15709 15.7838 6.02095C15.7864 5.88488 15.7385 5.74677 15.6309 5.62858L15.6301 5.6288C15.6277 5.62603 15.6254 5.62325 15.623 5.62055L11.0115 0.313743C11.0105 0.312503 11.0095 0.311262 11.0084 0.310022C10.9129 0.149296 10.7375 0.04161 10.537 0.04161H7.29823C6.9955 0.04161 6.75006 0.286894 6.75006 0.589597C6.75006 0.681451 6.76262 0.776953 6.81283 0.844147L11.1048 6.0413L7.44682 10.4285C7.42508 10.4502 7.10987 10.8993 6.55564 10.8993H2.18684C1.59269 10.8993 1.09999 10.4358 1.09999 9.82008V2.21503C1.09999 1.67908 1.59269 1.12861 2.20027 1.12861H4.91821C5.2386 1.12861 5.46638 0.909882 5.46638 0.589597C5.46638 0.269312 5.2386 0.03125 4.91821 0.03125L2.17363 0.0421207C0.873453 0.0421207 0 1.11409 0 2.20386V9.82008C0 10.9935 1.03482 11.9929 2.17363 11.9929H6.54119C6.76145 11.9929 6.96295 11.9607 7.14439 11.909C7.17029 11.9016 7.19584 11.8938 7.22087 11.8857C7.82305 11.6907 8.1865 11.2898 8.25686 11.2049L12.3736 6.40865C12.5684 6.1878 12.5943 5.86752 12.3769 5.62858L12.3761 5.6288C12.3736 5.62603 12.3714 5.62325 12.369 5.62055L8.47485 1.12861H9.82692H10.2725L14.342 6.02102L10.0596 11.1849C10.0582 11.1864 10.0608 11.1909 10.0669 11.1978C10.0269 11.2739 10.0041 11.3604 10.0041 11.4524C10.0041 11.755 10.2496 12.0004 10.5522 12.0004H13.791C13.9915 12.0004 14.1668 11.8925 14.2624 11.7319C14.2634 11.7306 14.2645 11.7294 14.2655 11.7282L18.877 6.42141C18.8794 6.41864 18.8817 6.41587 18.8841 6.4131L18.8849 6.41339C19.1022 6.17438 19.0764 5.85409 18.8817 5.63325Z" fill="#012599"/>
<rect x="21.4922" width="0.432682" height="11.9691" fill="#012599"/>
<path d="M41.8269 0.498713L39.4457 11.9691H36.5663L38.9483 0.498713H41.8269ZM54.2611 7.97941L55.7788 3.49099L56.6518 7.97941H54.2611ZM57.2865 11.9691H59.9996L57.6324 0.498713H55.1266C54.5646 0.498713 54.0901 0.829858 53.8788 1.34054L49.4783 11.9691H52.5582L53.1707 10.2562H56.9331L57.2872 11.9691H57.2865ZM49.8828 8.00866C49.8963 4.95322 45.6627 4.78432 45.6923 3.41984C45.7011 3.00425 46.0962 2.56272 46.9604 2.44968C47.3898 2.39382 48.5703 2.3506 49.9104 2.96834L50.4354 0.513342C49.7152 0.251351 48.7884 0 47.6368 0C44.6801 0 42.5989 1.57394 42.5821 3.82679C42.5633 5.49316 44.0669 6.42276 45.2003 6.97733C46.3654 7.54453 46.7571 7.90826 46.7524 8.41561C46.7443 9.19294 45.8222 9.53539 44.9621 9.54869C43.4584 9.57263 42.5862 9.1424 41.8902 8.81724L41.3477 11.354C42.047 11.6759 43.3366 11.9545 44.6747 11.9691C47.8165 11.9691 49.8727 10.4145 49.8828 8.00866ZM37.5234 0.498713L32.7413 11.9691H29.6203L27.2686 2.81474C27.1253 2.25086 27.0014 2.04472 26.5666 1.80734C25.8572 1.42033 24.6854 1.05727 23.6543 0.831188L23.725 0.498713H28.7467C29.3868 0.498713 29.9629 0.926941 30.1076 1.66836L31.3508 8.3059L34.4219 0.498713H37.5227H37.5234Z" fill="#012599"/>
</svg>
