<svg width="64" height="64" viewBox="0 0 64 64" fill="none" xmlns="http://www.w3.org/2000/svg">
<rect x="0.5" y="0.5" width="63" height="63" rx="31.5" fill="#002265"/>
<path d="M25.5605 38.1855L27.4811 26.3884H30.551L28.6306 38.1855H25.5605Z" fill="white"/>
<path d="M39.7664 26.6778C39.1594 26.4411 38.2047 26.1827 37.0155 26.1827C33.9803 26.1827 31.8438 27.7838 31.8261 30.0762C31.8068 31.7718 33.3507 32.7176 34.5146 33.2812C35.7109 33.859 36.1128 34.2287 36.1081 34.7452C36.0998 35.5353 35.1532 35.8974 34.2706 35.8974C33.0415 35.8974 32.3885 35.7191 31.3789 35.2787L30.984 35.0909L30.5547 37.7316C31.2705 38.0602 32.5976 38.3454 33.9749 38.3604C37.2005 38.3604 39.2965 36.7788 39.3211 34.3307C39.3321 32.9861 38.5141 31.9667 36.7424 31.1252C35.6696 30.5783 35.0112 30.2159 35.0187 29.6623C35.0194 29.1718 35.575 28.6471 36.7774 28.6471C37.7816 28.631 38.5085 28.8605 39.0749 29.1002L39.3506 29.2352L39.7664 26.6778Z" fill="white"/>
<path d="M43.8528 34.0027C44.1073 33.3246 45.0758 30.7054 45.0758 30.7054C45.0579 30.7364 45.3288 30.0219 45.4838 29.5797L45.691 30.5972C45.691 30.5972 46.2801 33.413 46.4015 34.0027C45.9235 34.0027 44.4523 34.0027 43.8528 34.0027ZM47.6402 26.4001H45.2677C44.5318 26.4001 43.981 26.6089 43.6587 27.378L39.0996 38.1895H42.324C42.324 38.1895 42.8501 36.735 42.9695 36.4159C43.3212 36.4159 46.4543 36.422 46.9015 36.422C46.9935 36.8336 47.2753 38.1895 47.2753 38.1895H50.1247L47.6402 26.4001Z" fill="white"/>
<path d="M22.9855 26.3983L19.9807 34.4412L19.6589 32.8063C19.099 30.9226 17.3559 28.8808 15.4062 27.8578L18.1552 38.1753L21.4042 38.1734L26.2387 26.3983H22.9855Z" fill="white"/>
<path d="M17.1907 26.3902H12.2401L12.1992 26.6346C16.0515 27.6119 18.6003 29.9707 19.6582 32.8062L18.5824 27.3856C18.3968 26.638 17.8574 26.4163 17.1907 26.3902Z" fill="#F79510"/>
<path d="M50.9989 37.4147H51.1443C51.247 37.4147 51.2681 37.3551 51.2681 37.3072C51.2681 37.2248 51.2142 37.2056 51.1306 37.2056H50.9989V37.4147ZM50.8734 37.114H51.1731C51.243 37.114 51.3963 37.1322 51.3963 37.3072C51.3963 37.3535 51.3824 37.4188 51.2821 37.4614V37.465C51.3687 37.4796 51.3733 37.5608 51.3783 37.6262C51.3847 37.7304 51.3783 37.749 51.4057 37.7858H51.2756C51.2509 37.761 51.2565 37.7417 51.2509 37.6324C51.2509 37.5704 51.243 37.5072 51.1022 37.5072H50.9989V37.7858H50.8734V37.114ZM51.1209 38.0258C51.4289 38.0258 51.6709 37.7722 51.6709 37.4553C51.6709 37.138 51.4289 36.8845 51.1209 36.8845C50.8131 36.8845 50.5714 37.138 50.5714 37.4553C50.5714 37.7722 50.8131 38.0258 51.1209 38.0258ZM51.1209 36.7824C51.5007 36.7824 51.7991 37.084 51.7991 37.4553C51.7991 37.8263 51.5007 38.1279 51.1209 38.1279C50.7413 38.1279 50.4434 37.8263 50.4434 37.4553C50.4434 37.084 50.7413 36.7824 51.1209 36.7824Z" fill="white"/>
<rect x="0.5" y="0.5" width="63" height="63" rx="31.5" stroke="#000C33"/>
</svg>
