<svg width="64" height="64" viewBox="0 0 64 64" fill="none" xmlns="http://www.w3.org/2000/svg">
<rect x="0.5" y="0.5" width="63" height="63" rx="31.5" fill="#1AAD19"/>
<path d="M28.2739 35.7117C28.134 35.7841 27.9765 35.8259 27.8091 35.8259C27.4215 35.8259 27.0846 35.6076 26.9077 35.2845L26.84 35.1328L24.0181 28.7936C23.9877 28.7247 23.9688 28.6467 23.9688 28.5708C23.9688 28.2786 24.2002 28.042 24.4856 28.042C24.6014 28.042 24.7086 28.0812 24.7947 28.1468L28.1247 30.5741C28.3679 30.7368 28.6586 30.8324 28.9711 30.8324C29.1576 30.8324 29.3354 30.7969 29.5012 30.7351L45.1608 23.6C42.3538 20.2134 37.731 18 32.4997 18C23.9391 18 17 23.9201 17 31.2235C17 35.2076 19.0877 38.7943 22.3556 41.2185C22.6177 41.4102 22.7894 41.7249 22.7894 42.0802C22.7894 42.1977 22.7648 42.3049 22.7347 42.417C22.4737 43.4136 22.056 45.0098 22.0366 45.0846C22.004 45.2096 21.9532 45.3403 21.9532 45.4712C21.9532 45.7633 22.1844 46 22.4702 46C22.5821 46 22.6738 45.9573 22.7684 45.9016L26.1617 43.8959C26.417 43.7453 26.6872 43.6516 26.985 43.6516C27.1434 43.6516 27.2964 43.6768 27.4403 43.7219C29.0233 44.188 30.7313 44.447 32.4998 44.447C41.0599 44.447 48 38.5265 48 31.2235C48 29.0114 47.3596 26.9281 46.2343 25.0955L28.3875 35.6447L28.2739 35.7117Z" fill="white"/>
<rect x="0.5" y="0.5" width="63" height="63" rx="31.5" stroke="#000C33"/>
</svg>
