<svg width="136" height="136" viewBox="0 0 136 136" fill="none" xmlns="http://www.w3.org/2000/svg">
<rect width="128" height="128" rx="64" fill="white" />
<path d="M54.0002 77.3335L51.1717 80.1619L54.0002 82.9903L56.8286 80.1619L54.0002 77.3335ZM83.7073 47.6264L80.8788 44.798L83.7073 47.6264ZM34.5051 63.4953L51.1717 80.1619L56.8286 74.5051L40.1619 57.8384L34.5051 63.4953ZM56.8286 80.1619L86.5357 50.4548L80.8788 44.798L51.1717 74.5051L56.8286 80.1619ZM84.4144 51.3335H90.6668V43.3335H84.4144V51.3335ZM86.5357 50.4548C85.9731 51.0174 85.21 51.3335 84.4144 51.3335V43.3335C83.0883 43.3335 81.8165 43.8603 80.8788 44.798L86.5357 50.4548Z" fill="#023DFF"/>
<rect x="1" y="1" width="126" height="126" rx="63" stroke="#023DFF" stroke-width="2"/>
</svg>
