<svg width="294" height="67" viewBox="0 0 294 67" fill="none" xmlns="http://www.w3.org/2000/svg">
<path d="M78.2422 14.706C78.2422 11.4298 76.9308 8.28774 74.5964 5.97112C72.262 3.65449 69.096 2.35303 65.7947 2.35303H47.4197V21.7883C46.5152 22.4506 45.716 23.2437 45.0487 24.1413V2.35303H42.6777V37.6471H49.7906V30.5883C49.7906 29.6522 50.1653 28.7545 50.8323 28.0926C51.4993 27.4307 52.4039 27.0589 53.3471 27.0589H65.2019L69.7779 36.3295C69.9716 36.7219 70.2716 37.053 70.6444 37.2858C71.0171 37.5185 71.4477 37.6436 71.888 37.6471H78.2422L72.1488 25.2707C73.9988 24.1835 75.5329 22.6384 76.6009 20.7866C77.669 18.9348 78.2345 16.8396 78.2422 14.706V14.706ZM49.7906 9.41185H65.7947C67.2095 9.41185 68.5664 9.96962 69.5668 10.9625C70.5673 11.9553 71.1293 13.3019 71.1293 14.706C71.1293 16.11 70.5673 17.4566 69.5668 18.4495C68.5664 19.4423 67.2095 20.0001 65.7947 20.0001H53.3471C52.1319 20.012 50.9283 20.2349 49.7906 20.6589V9.41185ZM74.4487 35.2942H71.7932L67.6677 26.8707C68.4748 26.7484 69.2686 26.5515 70.0387 26.2824L74.4487 35.2942ZM65.7947 24.706H53.3471C51.775 24.706 50.2674 25.3257 49.1558 26.4289C48.0442 27.532 47.4197 29.0282 47.4197 30.5883V35.2942H45.0487V30.5883C45.0487 28.4042 45.923 26.3095 47.4792 24.7651C49.0355 23.2207 51.1462 22.353 53.3471 22.353H65.7947C67.8383 22.353 69.7983 21.5473 71.2434 20.1132C72.6885 18.6791 73.5003 16.7341 73.5003 14.706C73.5003 12.6778 72.6885 10.7328 71.2434 9.29868C69.7983 7.86458 67.8383 7.05891 65.7947 7.05891H49.7906V4.70597H65.7947C68.4671 4.70597 71.0302 5.75954 72.9199 7.6349C74.8096 9.51026 75.8713 12.0538 75.8713 14.706C75.8713 17.3581 74.8096 19.9017 72.9199 21.777C71.0302 23.6524 68.4671 24.706 65.7947 24.706Z" fill="white"/>
<path d="M0 4.70597H18.2802C17.3701 5.36167 16.5699 6.15574 15.9092 7.05891H0V9.41185H14.8897C14.4625 10.5408 14.2378 11.7353 14.2258 12.9413V37.6471H21.3387V12.9413C21.3387 12.0052 21.7134 11.1075 22.3804 10.4456C23.0473 9.78369 23.9519 9.41185 24.8951 9.41185H33.1935C33.8224 9.41185 34.4254 9.16395 34.8701 8.72269C35.3147 8.28143 35.5645 7.68295 35.5645 7.05891V2.35303H0V4.70597ZM24.8951 4.70597H33.1935V7.05891H24.8951C23.3231 7.05891 21.8154 7.67865 20.7038 8.78181C19.5922 9.88496 18.9677 11.3812 18.9677 12.9413V35.2942H16.5968V12.9413C16.5968 10.7571 17.4711 8.66244 19.0273 7.11803C20.5836 5.57361 22.6943 4.70597 24.8951 4.70597Z" fill="white"/>
<path d="M273.847 1.42884e-05C268.524 -0.00629854 263.416 2.07945 259.639 5.80103C255.863 9.5226 253.725 14.5771 253.693 19.8588V20C253.693 23.9556 254.875 27.8224 257.09 31.1114C259.304 34.4004 262.452 36.9638 266.134 38.4776C269.817 39.9913 273.869 40.3874 277.778 39.6157C281.688 38.844 285.279 36.9392 288.097 34.1421C290.916 31.3451 292.835 27.7814 293.613 23.9018C294.39 20.0222 293.991 16.0009 292.466 12.3463C290.94 8.69182 288.357 5.56825 285.043 3.37062C281.729 1.17299 277.833 1.42884e-05 273.847 1.42884e-05V1.42884e-05ZM273.847 37.6471C269.132 37.6408 264.613 35.7796 261.28 32.4715C257.946 29.1634 256.071 24.6784 256.064 20C256.064 19.451 256.064 18.9333 256.064 18.4471C256.458 14.6677 258.254 11.1686 261.102 8.6292C263.95 6.08985 267.647 4.69156 271.476 4.70589C271.87 4.68136 272.266 4.68136 272.661 4.70589C269.679 4.93921 266.829 6.03035 264.462 7.84577C262.094 9.66119 260.312 12.1221 259.332 14.9274C258.352 17.7328 258.217 20.7607 258.944 23.6408C259.671 26.5208 261.229 29.1281 263.426 31.1434C265.623 33.1587 268.364 34.4946 271.315 34.9877C274.265 35.4809 277.296 35.1098 280.037 33.9198C282.778 32.7299 285.11 30.7728 286.748 28.288C288.386 25.8032 289.258 22.8985 289.258 19.9294C289.261 15.4549 287.547 11.1472 284.464 7.88217C281.381 4.61718 277.161 2.64009 272.661 2.35295C273.064 2.32954 273.468 2.32954 273.87 2.35295C278.586 2.35295 283.109 4.21219 286.444 7.52165C289.779 10.8311 291.653 15.3197 291.653 20C291.653 24.6803 289.779 29.1689 286.444 32.4784C283.109 35.7878 278.586 37.6471 273.87 37.6471H273.847ZM273.847 7.05883C276.426 7.05883 278.947 7.81782 281.091 9.23981C283.236 10.6618 284.907 12.6829 285.894 15.0476C286.881 17.4123 287.139 20.0144 286.636 22.5247C286.133 25.035 284.891 27.3409 283.067 29.1508C281.244 30.9606 278.92 32.1932 276.391 32.6925C273.861 33.1918 271.239 32.9356 268.856 31.9561C266.473 30.9766 264.437 29.3179 263.004 27.1897C261.571 25.0616 260.806 22.5595 260.806 20C260.806 16.5678 262.18 13.2762 264.626 10.8492C267.071 8.42228 270.388 7.05883 273.847 7.05883Z" fill="white"/>
<path d="M104.442 2.35303L120.683 35.2942H118.027L101.81 2.35303H99.178L87.584 25.8824H110.748L111.91 28.2354H87.9159C87.4716 28.2345 87.0359 28.3576 86.6586 28.5905C86.2813 28.8235 85.9776 29.157 85.7821 29.553L81.7988 37.6471H88.2479C88.6882 37.6436 89.1188 37.5185 89.4915 37.2858C89.8642 37.053 90.1643 36.7219 90.358 36.3295L92.2074 32.5648C92.5029 31.9725 92.959 31.4737 93.5244 31.1246C94.0898 30.7754 94.7422 30.5897 95.4082 30.5883H113.072L115.893 36.3295C116.089 36.7255 116.393 37.059 116.77 37.292C117.147 37.5249 117.583 37.648 118.027 37.6471H124.476L107.097 2.35303H104.442ZM91.4012 23.5295L100.506 5.03538L102.734 9.60008C102.14 9.65498 101.57 9.8615 101.08 10.1996C100.59 10.5376 100.196 10.9958 99.9367 11.5295L94.033 23.5295H91.4012ZM96.6648 23.5295L102.071 12.5413C102.168 12.3433 102.32 12.1765 102.509 12.06C102.698 11.9435 102.915 11.882 103.138 11.8824C103.356 11.8836 103.57 11.9461 103.755 12.0627C103.939 12.1792 104.087 12.3451 104.181 12.5413L109.61 23.5295H96.6648ZM90.0972 31.5295L88.2479 35.2942H85.5924L87.9633 30.5883H90.7848C90.5287 30.8818 90.2986 31.1967 90.0972 31.5295V31.5295Z" fill="white"/>
<path d="M156.485 4.70597V24.706C156.493 24.9563 156.416 25.2021 156.265 25.403C156.114 25.6039 155.899 25.748 155.655 25.8118C155.426 25.8928 155.176 25.9 154.942 25.8324C154.708 25.7648 154.501 25.6259 154.351 25.4354L136.925 2.35303H133.961L160.634 37.6471H163.598V2.35303H158.856C158.227 2.35303 157.624 2.60093 157.18 3.04219C156.735 3.48345 156.485 4.08193 156.485 4.70597V4.70597ZM161.227 4.70597V34.5177L156.343 28.0707C157.044 27.8359 157.652 27.3855 158.079 26.7847C158.505 26.184 158.727 25.4641 158.714 24.7295V4.70597H161.227Z" fill="white"/>
<path d="M128.033 2.35303V37.6471H132.775C133.404 37.6471 134.007 37.3992 134.452 36.958C134.896 36.5167 135.146 35.9182 135.146 35.2942V15.2942C135.129 15.0369 135.198 14.7811 135.345 14.5679C135.491 14.3546 135.705 14.1961 135.952 14.1177C136.19 14.04 136.447 14.0391 136.685 14.1152C136.924 14.1913 137.132 14.3405 137.28 14.5413L154.707 37.6471H157.67L130.997 2.35303H128.033ZM135.146 11.953C134.442 12.1846 133.832 12.6342 133.406 13.2357C132.979 13.8372 132.758 14.5587 132.775 15.2942V35.2942H130.404V5.48244L135.146 11.9295V11.953Z" fill="white"/>
<path d="M203.904 30.5883H183.751C183.5 30.5951 183.253 30.5209 183.048 30.3766C182.843 30.2323 182.69 30.0259 182.613 29.7883C182.535 29.5521 182.534 29.2973 182.611 29.0606C182.687 28.8239 182.838 28.6173 183.04 28.4706L206.275 11.1765V8.23535L170.711 34.7059V37.6471H206.275V32.9412C206.275 32.3172 206.026 31.7187 205.581 31.2774C205.136 30.8362 204.533 30.5883 203.904 30.5883ZM203.904 35.2942H173.864L180.361 30.4471C180.602 31.1452 181.06 31.7493 181.669 32.1722C182.279 32.5951 183.008 32.8149 183.751 32.8H203.904V35.2942Z" fill="white"/>
<path d="M170.711 7.05891C170.711 7.68295 170.961 8.28143 171.405 8.72269C171.85 9.16395 172.453 9.41185 173.082 9.41185H193.235C193.478 9.41797 193.713 9.49802 193.909 9.64117C194.104 9.78431 194.251 9.98364 194.328 10.2121C194.406 10.4407 194.411 10.6873 194.343 10.9187C194.274 11.1502 194.136 11.3552 193.946 11.506L170.711 28.8236V31.7648L206.275 5.2942V2.35303H170.711V7.05891ZM173.082 4.70597H203.122L196.626 9.52949V9.41185C196.388 8.71171 195.93 8.10554 195.32 7.68212C194.71 7.25871 193.979 7.04031 193.235 7.05891H173.082V4.70597Z" fill="white"/>
<path d="M246.58 30.5883H226.427C226.176 30.5951 225.929 30.5209 225.724 30.3766C225.518 30.2323 225.366 30.0259 225.289 29.7883C225.203 29.5528 225.198 29.2955 225.275 29.057C225.352 28.8184 225.507 28.6122 225.716 28.4706L248.951 11.1765V8.23535L213.387 34.7059V37.6471H248.951V32.9412C248.951 32.3172 248.701 31.7187 248.257 31.2774C247.812 30.8362 247.209 30.5883 246.58 30.5883ZM246.58 35.2942H216.54L223.037 30.4471C223.278 31.1452 223.736 31.7493 224.345 32.1722C224.955 32.5951 225.684 32.8149 226.427 32.8H246.58V35.2942Z" fill="white"/>
<path d="M213.387 7.05891C213.387 7.68295 213.637 8.28143 214.081 8.72269C214.526 9.16395 215.129 9.41185 215.758 9.41185H235.911C236.154 9.41797 236.389 9.49802 236.585 9.64117C236.78 9.78431 236.927 9.98364 237.004 10.2121C237.082 10.4407 237.087 10.6873 237.018 10.9187C236.95 11.1502 236.812 11.3552 236.622 11.506L213.387 28.8236V31.7648L248.951 5.2942V2.35303H213.387V7.05891ZM215.758 4.70597H245.774L239.301 9.52949V9.41185C239.06 8.71374 238.602 8.10966 237.993 7.68676C237.383 7.26386 236.654 7.044 235.911 7.05891H215.758V4.70597Z" fill="white"/>
<path d="M108.943 56.7H111.043C111.043 57.38 111.356 57.9667 111.983 58.46C112.623 58.9533 113.443 59.2 114.443 59.2C115.536 59.2 116.343 59.0133 116.863 58.64C117.383 58.2533 117.643 57.74 117.643 57.1C117.643 56.0733 116.843 55.4067 115.243 55.1L112.543 54.6C111.449 54.4 110.623 53.98 110.063 53.34C109.516 52.7 109.243 51.8867 109.243 50.9C109.243 49.7267 109.696 48.7533 110.603 47.98C111.509 47.1933 112.723 46.8 114.243 46.8C115.923 46.8 117.223 47.2267 118.143 48.08C119.076 48.92 119.543 49.9933 119.543 51.3H117.443C117.443 50.62 117.149 50.0333 116.563 49.54C115.976 49.0467 115.203 48.8 114.243 48.8C113.336 48.8 112.623 49.0067 112.103 49.42C111.596 49.82 111.343 50.3133 111.343 50.9C111.343 51.8867 112.043 52.52 113.443 52.8L115.643 53.2C117.056 53.4533 118.089 53.8933 118.743 54.52C119.409 55.1333 119.743 55.9933 119.743 57.1C119.743 58.3 119.283 59.2867 118.363 60.06C117.443 60.82 116.136 61.2 114.443 61.2C112.749 61.2 111.409 60.7733 110.423 59.92C109.436 59.0667 108.943 57.9933 108.943 56.7ZM122.143 61V47H131.343V49H124.243V53H130.943V55H124.243V59H131.343V61H122.143ZM144.139 56.2H146.339C146.206 56.7867 145.979 57.36 145.659 57.92C145.353 58.48 144.946 59.0133 144.439 59.52C143.933 60.0267 143.299 60.4333 142.539 60.74C141.779 61.0467 140.946 61.2 140.039 61.2C138.159 61.2 136.573 60.5267 135.279 59.18C133.986 57.8333 133.339 56.1067 133.339 54C133.339 51.8933 133.986 50.1667 135.279 48.82C136.573 47.4733 138.159 46.8 140.039 46.8C141.693 46.8 143.073 47.28 144.179 48.24C145.299 49.1867 146.019 50.34 146.339 51.7H144.139C143.793 50.7667 143.253 50.0533 142.519 49.56C141.786 49.0533 140.959 48.8 140.039 48.8C138.706 48.8 137.606 49.2733 136.739 50.22C135.873 51.1667 135.439 52.4267 135.439 54C135.439 55.5733 135.873 56.8333 136.739 57.78C137.606 58.7267 138.706 59.2 140.039 59.2C141.106 59.2 141.986 58.9133 142.679 58.34C143.386 57.7533 143.873 57.04 144.139 56.2ZM148.449 55.4V47H150.549V55.4C150.549 56.5333 150.875 57.4533 151.529 58.16C152.195 58.8533 153.035 59.2 154.049 59.2C155.062 59.2 155.895 58.8533 156.549 58.16C157.215 57.4533 157.549 56.5333 157.549 55.4V47H159.649V55.4C159.649 57.1467 159.129 58.5533 158.089 59.62C157.062 60.6733 155.715 61.2 154.049 61.2C152.382 61.2 151.029 60.6733 149.989 59.62C148.962 58.5533 148.449 57.1467 148.449 55.4ZM162.553 61V47H168.853C170.026 47 170.999 47.42 171.773 48.26C172.559 49.0867 172.953 50.1667 172.953 51.5C172.953 52.8333 172.559 53.92 171.773 54.76C170.999 55.5867 170.026 56 168.853 56H168.353L173.353 61H170.653L165.653 56H164.653V61H162.553ZM164.653 54H168.753C169.326 54 169.819 53.7667 170.233 53.3C170.646 52.8333 170.853 52.2333 170.853 51.5C170.853 50.7667 170.646 50.1667 170.233 49.7C169.819 49.2333 169.326 49 168.753 49H164.653V54ZM175.561 61V47H184.761V49H177.661V53H184.361V55H177.661V59H184.761V61H175.561Z" fill="#68E348"/>
</svg>
