<svg width="61" height="24" viewBox="0 0 61 24" fill="none" xmlns="http://www.w3.org/2000/svg">
<g clip-path="url(#clip0_170_8823)">
<path d="M11.5429 3.09423C10.8398 3.90488 9.71481 4.54427 8.58981 4.45293C8.44918 3.35683 8.99996 2.19223 9.64449 1.47291C10.3476 0.639422 11.5781 0.0457013 12.5742 3.05176e-05C12.6914 1.1418 12.2343 2.26073 11.5429 3.09423ZM12.5625 4.66987C10.9336 4.57853 9.53903 5.57187 8.76559 5.57187C7.98043 5.57187 6.79684 4.71554 5.50777 4.73837C3.83199 4.76121 2.2734 5.68604 1.41793 7.15893C-0.339881 10.1047 0.9609 14.4663 2.66012 16.864C3.49215 18.0514 4.48824 19.353 5.80074 19.3074C7.04293 19.2617 7.53512 18.5195 9.03512 18.5195C10.5468 18.5195 10.9804 19.3074 12.2929 19.2845C13.6523 19.2617 14.5078 18.0971 15.3398 16.9096C16.289 15.5624 16.6757 14.2493 16.6992 14.1808C16.6757 14.158 14.0742 13.1875 14.0507 10.2645C14.0273 7.82115 16.1015 6.65655 16.1953 6.58804C15.0234 4.89822 13.1953 4.71554 12.5625 4.66987ZM21.9726 1.35874V19.1589H24.8086V13.0733H28.7343C32.3203 13.0733 34.8398 10.6756 34.8398 7.2046C34.8398 3.73362 32.3672 1.35874 28.8281 1.35874H21.9726ZM24.8086 3.68795H28.0781C30.539 3.68795 31.9453 4.96673 31.9453 7.21602C31.9453 9.4653 30.539 10.7555 28.0664 10.7555H24.8086V3.68795ZM40.0195 19.2959C41.8007 19.2959 43.4531 18.4168 44.2031 17.0238H44.2617V19.1589H46.8867V10.2988C46.8867 7.72981 44.7773 6.07425 41.5312 6.07425C38.5195 6.07425 36.2929 7.75265 36.2109 10.059H38.7656C38.9765 8.96292 40.0195 8.24361 41.4492 8.24361C43.1836 8.24361 44.1562 9.03143 44.1562 10.4815V11.4634L40.6172 11.6689C37.3242 11.863 35.5429 13.1761 35.5429 15.4596C35.5429 17.766 37.3828 19.2959 40.0195 19.2959ZM40.7812 17.1837C39.2695 17.1837 38.3086 16.4758 38.3086 15.3911C38.3086 14.2722 39.2343 13.6213 41.0039 13.5186L44.1562 13.3245V14.3292C44.1562 15.9962 42.7031 17.1837 40.7812 17.1837ZM50.3906 24C53.1562 24 54.457 22.9724 55.5937 19.8554L60.5742 6.24551H57.6914L54.3515 16.7612H54.2929L50.9531 6.24551H47.9882L52.7929 19.2046L52.5351 19.9924C52.1015 21.3283 51.3984 21.8421 50.1445 21.8421C49.9218 21.8421 49.4882 21.8193 49.3125 21.7964V23.9315C49.4765 23.9772 50.1797 24 50.3906 24Z" fill="white" fill-opacity="0.64"/>
</g>
<defs>
<clipPath id="clip0_170_8823">
<rect width="60" height="24" fill="white" transform="translate(0.574219)"/>
</clipPath>
</defs>
</svg>
