<svg width="71" height="24" viewBox="0 0 71 24" fill="none" xmlns="http://www.w3.org/2000/svg">
<g clip-path="url(#clip0_170_8781)">
<path d="M9.48265 22.5109H12.2251V23.8795H7.90449V18.2343H9.48265V22.5109ZM13.8524 21.0729V21.0536C13.8524 19.4335 15.1673 18.1152 16.9182 18.1152C18.6691 18.1152 19.9634 19.4136 19.9634 21.0336V21.053C19.9634 22.6731 18.6484 23.9915 16.8974 23.9915C15.1466 23.9915 13.8524 22.6931 13.8524 21.0729ZM18.3644 21.0729V21.0536C18.3644 20.2385 17.7778 19.5339 16.9078 19.5339C16.0476 19.5339 15.4719 20.2288 15.4719 21.0433V21.0626C15.4719 21.8778 16.0586 22.5824 16.9188 22.5824C17.7889 22.5824 18.3657 21.8874 18.3657 21.0729H18.3644ZM21.9011 21.4043V18.2343H23.4987V21.374C23.4987 22.1892 23.9126 22.5707 24.5336 22.5707C25.1545 22.5707 25.5684 22.1975 25.5684 21.4127V18.233H27.166V21.3624C27.166 23.1833 26.1311 23.9792 24.5057 23.9792C22.8972 23.9792 21.8863 23.1749 21.8863 21.403L21.9011 21.4043ZM29.5702 18.2343H31.7551C33.7782 18.2343 34.9618 19.3924 34.9618 21.0215V21.0407C34.9618 22.6712 33.7678 23.8717 31.7246 23.8717H29.5708V18.2265L29.5702 18.2343ZM31.7854 22.4909C32.7266 22.4909 33.3533 21.9775 33.3533 21.0626V21.0433C33.3533 20.1374 32.7259 19.615 31.7854 19.615H31.1484V22.4832H31.7854V22.4909ZM37.2612 18.2343H41.8036V19.6027H38.8296V20.5691H41.5203V21.8675H38.8296V23.8801H37.2625L37.2612 18.2343ZM45.5564 22.5109H48.3078V23.8795H43.9872V18.2343H45.555L45.5564 22.5109ZM52.415 18.2002H53.9324L56.35 23.8859H54.6684L54.2544 22.8797H52.0682L51.6633 23.8859H50.014L52.4214 18.2002H52.415ZM53.801 21.6616L53.1736 20.0615L52.5366 21.6616H53.801ZM58.3803 18.2407H61.0612C61.9312 18.2407 62.5281 18.462 62.9125 18.8545C63.2462 19.1762 63.4183 19.6091 63.4183 20.1734V20.1928C63.4183 21.0581 62.9524 21.632 62.2539 21.9299L63.6097 23.9027H61.7888L60.646 22.1911H59.952V23.9027H58.3803V18.2407ZM60.9901 20.9475C61.5269 20.9475 61.8296 20.6855 61.8296 20.2835V20.2642C61.8296 19.8215 61.5062 19.6001 60.9798 19.6001H59.9481V20.9488H60.983L60.9901 20.9475ZM67.2414 22.5515H70.2865V23.8801H65.684V18.2356H70.2464V19.5641H67.2414V20.4198H69.9625V21.6577H67.2414V22.5515ZM4.46355 21.7356C4.24105 22.2284 3.77535 22.5811 3.16866 22.5811C2.30842 22.5811 1.72178 21.8733 1.72178 21.0613V21.042C1.72178 20.2268 2.29872 19.5326 3.15767 19.5326C3.80445 19.5326 4.30055 19.9187 4.503 20.4688H6.16203C5.89878 19.1202 4.70545 18.1242 3.16737 18.1242C1.41714 18.1242 0.101562 19.4432 0.101562 21.0626V21.0819C0.10415 22.7021 1.39903 24.0005 3.14926 24.0005C4.64659 24.0005 5.82051 23.034 6.12321 21.7459L4.46419 21.7356H4.46355Z" fill="white" fill-opacity="0.64"/>
<path d="M59.6133 14.6913C59.8254 13.9669 59.7446 13.3029 59.3908 12.8094C59.0674 12.3565 58.5209 12.1017 57.863 12.0651L45.4097 11.9042C45.3288 11.9042 45.2576 11.8636 45.2176 11.8038C45.1775 11.744 45.1671 11.6623 45.1871 11.5825C45.2099 11.5216 45.2495 11.4685 45.3015 11.4292C45.3535 11.3901 45.4158 11.3664 45.4808 11.3612L58.0454 11.2003C59.5331 11.136 61.1513 9.93283 61.7179 8.46328L62.4294 6.60129C62.4611 6.52486 62.4681 6.44055 62.4495 6.36001C61.6409 2.71707 58.3727 1.52676e-09 54.468 1.52676e-09C52.758 -3.29361e-05 51.0911 0.53287 49.7013 1.52383C48.3114 2.51479 47.2686 3.91401 46.7194 5.52488C46.0111 5.00179 45.1108 4.72062 44.14 4.81713C43.2978 4.90383 42.5112 5.27625 41.9126 5.87181C41.3139 6.46737 40.9395 7.24976 40.8523 8.08753C40.8104 8.51551 40.841 8.94746 40.9429 9.36531C39.5819 9.40354 38.2896 9.96866 37.3411 10.9403C36.3926 11.9119 35.8626 13.2135 35.8643 14.5678C35.8659 14.8202 35.8829 15.0722 35.9147 15.3225C35.9342 15.4435 36.0364 15.5336 36.1573 15.5336H59.1412C59.2724 15.5336 59.3999 15.4435 59.4347 15.3123L59.6069 14.6985L59.6133 14.6913Z" fill="white" fill-opacity="0.64"/>
<path d="M63.5803 6.73111L63.2362 6.74141C63.1553 6.74141 63.0842 6.80189 63.0538 6.88295L62.5687 8.56352C62.3566 9.28798 62.4374 9.95192 62.7912 10.4455C63.1146 10.8984 63.6611 11.1532 64.3189 11.1898L66.9695 11.3507C67.0504 11.3507 67.1215 11.3912 67.1616 11.4511C67.1815 11.484 67.1945 11.5206 67.1997 11.5586C67.2049 11.5967 67.2023 11.6353 67.192 11.6724C67.1693 11.7332 67.1296 11.7864 67.0776 11.8256C67.0256 11.8648 66.9634 11.8885 66.8984 11.8937L64.1365 12.0546C62.6392 12.1189 61.0307 13.3221 60.4641 14.7916L60.2616 15.305C60.2208 15.4054 60.292 15.5065 60.4039 15.5065H69.8924C70.0036 15.5065 70.1045 15.4421 70.135 15.325C70.3018 14.7285 70.3868 14.1124 70.3878 13.4933C70.3828 11.6995 69.6637 9.98072 68.3877 8.71326C67.1117 7.44581 65.3829 6.73284 63.5796 6.73047" fill="white" fill-opacity="0.64"/>
</g>
<defs>
<clipPath id="clip0_170_8781">
<rect width="70.2857" height="24" fill="white" transform="translate(0.101562)"/>
</clipPath>
</defs>
</svg>
