<svg width="79" height="24" viewBox="0 0 79 24" fill="none" xmlns="http://www.w3.org/2000/svg">
<g clip-path="url(#clip0_170_8785)">
<path d="M7.07223 11.4235V6.07328C7.07223 4.36216 8.46033 2.97639 10.1743 2.97639C11.8883 2.97639 13.2764 4.36216 13.2764 6.07328V8.76923H16.27V6.07328C16.27 2.72334 13.542 0 10.1743 0C6.81875 0 4.09082 2.72334 4.09082 6.07328V8.76923H7.07223V11.4235Z" fill="white" fill-opacity="0.64"/>
<path fill-rule="evenodd" clip-rule="evenodd" d="M11.055 5.95256C10.5722 5.54285 9.7876 5.54285 9.30478 5.95256C8.82196 6.36227 7.94081 6.55507 7.34936 6.37431C6.74583 6.19356 6.02161 6.50687 5.75605 7.08528C5.47843 7.65163 4.74214 8.18184 4.11446 8.26619C3.4868 8.35054 2.9557 8.94099 2.94363 9.5676C2.93156 10.1942 2.47288 10.9895 1.92971 11.3149C1.38654 11.6523 1.14513 12.3994 1.38654 12.9778C1.64002 13.5682 1.54345 14.472 1.18134 14.9902C0.819225 15.5083 0.903719 16.2916 1.3624 16.7254C1.83315 17.1592 2.11077 18.0148 1.99007 18.6413C1.86936 19.2559 2.25562 19.9428 2.85913 20.1476C3.46266 20.3525 4.06619 21.0273 4.21104 21.6419C4.35588 22.2564 4.99561 22.7143 5.62328 22.6662C6.25094 22.618 7.08381 22.9794 7.47006 23.4856C7.85632 23.9916 8.62883 24.1483 9.18408 23.847C9.75139 23.5457 10.6567 23.5457 11.2119 23.847C11.7671 24.1483 12.5276 23.9916 12.9139 23.4856C13.3001 22.9794 14.133 22.618 14.7607 22.6662C15.3883 22.7143 16.0281 22.2564 16.1729 21.6419C16.3177 21.0273 16.9212 20.3525 17.5248 20.1476C18.1162 19.9428 18.5145 19.268 18.3939 18.6413C18.2732 18.0269 18.5628 17.1592 19.0215 16.7254C19.4802 16.2916 19.5647 15.5083 19.2026 14.9902C18.8526 14.46 18.7559 13.5562 18.9974 12.9778C19.2388 12.3873 18.9974 11.6403 18.4542 11.3149C17.911 10.9895 17.4524 10.2063 17.4403 9.5676C17.4282 8.92895 16.8971 8.35054 16.2694 8.26619C15.6297 8.19388 14.9055 7.66368 14.6278 7.08528C14.3623 6.50687 13.6381 6.19356 13.0345 6.37431C12.419 6.55507 11.5378 6.36227 11.055 5.95256ZM4.13905 14.8218C4.13905 11.496 6.84284 8.79672 10.1743 8.79672C13.5057 8.79672 16.2095 11.496 16.2095 14.8218C16.2095 18.1476 13.5057 20.8469 10.1743 20.8469C6.84284 20.8469 4.13905 18.1476 4.13905 14.8218Z" fill="white" fill-opacity="0.64"/>
<path d="M10.5843 10.8691C10.198 10.8691 9.83589 10.9053 9.50997 10.9535C7.56663 11.2427 6.5165 12.3031 6.27509 14.0986L6.1061 15.4602C5.99746 16.4001 6.16645 17.0991 6.61306 17.6052C7.14417 18.1956 8.04945 18.6776 9.38927 18.6776H11.743C13.1069 18.6776 13.276 17.2557 13.276 17.2557H10.1497C9.72725 17.2557 9.31685 17.2195 9.02716 17.1111C8.64091 16.9665 8.3995 16.7135 8.315 16.2556C8.27879 16.0748 8.29086 15.6772 8.32707 15.4121L8.48398 14.2191C8.53227 13.9178 8.62883 13.5804 8.66505 13.4599C8.78575 13.1707 8.96681 12.8815 9.26857 12.6646C9.44962 12.5442 9.86002 12.291 10.9222 12.291H12.6483C13.8554 12.291 14.0727 10.8691 14.0727 10.8691H10.5843Z" fill="white" fill-opacity="0.64"/>
<path d="M27.2536 18.5307C27.2536 18.7838 27.1932 19.0127 27.0605 19.2055C26.9277 19.3983 26.7466 19.5549 26.5052 19.6634C26.2638 19.7718 25.9741 19.8321 25.6482 19.8321C25.3706 19.8321 25.1533 19.82 24.9602 19.7718C24.7792 19.7357 24.5861 19.6634 24.3809 19.567V18.5909C24.5861 18.6994 24.8154 18.7838 25.0326 18.844C25.2619 18.9042 25.4671 18.9283 25.6602 18.9283C25.8293 18.9283 25.95 18.9042 26.0224 18.844C26.0948 18.7838 26.131 18.7114 26.131 18.6271C26.131 18.5669 26.1189 18.5187 26.0827 18.4825C26.0466 18.4343 25.9983 18.3981 25.9379 18.3499C25.8654 18.3017 25.6844 18.2174 25.3948 18.0848C25.1292 17.9644 24.924 17.8438 24.7913 17.7353C24.6584 17.6269 24.5619 17.4943 24.4894 17.3498C24.4291 17.2051 24.3929 17.0244 24.3929 16.8317C24.3929 16.4581 24.5257 16.1568 24.8033 15.952C25.0809 15.7471 25.4551 15.6387 25.9379 15.6387C26.3604 15.6387 26.7949 15.735 27.2295 15.9279L26.8914 16.7834C26.5052 16.6026 26.1793 16.5183 25.9017 16.5183C25.7569 16.5183 25.6602 16.5425 25.5879 16.5906C25.5275 16.6388 25.4913 16.6991 25.4913 16.7834C25.4913 16.8677 25.5275 16.9401 25.612 17.0003C25.6965 17.0606 25.9258 17.181 26.2879 17.3498C26.638 17.5064 26.8794 17.6752 27.0243 17.8559C27.1812 18.0245 27.2536 18.2536 27.2536 18.5307Z" fill="white" fill-opacity="0.64"/>
<path d="M30.5612 18.5307C30.5612 18.7838 30.5009 19.0127 30.3681 19.2055C30.2353 19.3983 30.0542 19.5549 29.8128 19.6634C29.5715 19.7718 29.2817 19.8321 28.9559 19.8321C28.6903 19.8321 28.4609 19.82 28.2678 19.7718C28.0868 19.7357 27.8937 19.6634 27.6885 19.567V18.5909C27.8937 18.6994 28.123 18.7838 28.3403 18.844C28.5696 18.9042 28.7748 18.9283 28.968 18.9283C29.1369 18.9283 29.2576 18.9042 29.33 18.844C29.4024 18.7838 29.4507 18.7114 29.4507 18.6271C29.4507 18.5669 29.4386 18.5187 29.4024 18.4825C29.3663 18.4343 29.318 18.3981 29.2576 18.3499C29.1852 18.3017 29.0041 18.2174 28.7145 18.0848C28.4489 17.9644 28.2437 17.8438 28.1109 17.7353C27.9781 17.6269 27.8816 17.4943 27.8212 17.3498C27.7608 17.2051 27.7247 17.0244 27.7247 16.8317C27.7247 16.4581 27.8574 16.1568 28.1351 15.952C28.4126 15.7471 28.7868 15.6387 29.2697 15.6387C29.6921 15.6387 30.1267 15.735 30.5612 15.9279L30.2232 16.7834C29.837 16.6026 29.5111 16.5183 29.2334 16.5183C29.0886 16.5183 28.98 16.5425 28.9196 16.5906C28.8593 16.6388 28.823 16.6991 28.823 16.7834C28.823 16.8677 28.8593 16.9401 28.9438 17.0003C29.0282 17.0606 29.2455 17.181 29.6197 17.3498C29.9698 17.5064 30.2232 17.6752 30.356 17.8559C30.4888 18.0245 30.5612 18.2536 30.5612 18.5307Z" fill="white" fill-opacity="0.64"/>
<path d="M31.1885 19.7723V15.6873H32.2868V18.8806H33.856V19.7723H31.1885Z" fill="white" fill-opacity="0.64"/>
<path d="M36.4031 15.8914C35.8961 15.8914 35.4857 16.0601 35.196 16.3854C34.9063 16.7108 34.7494 17.1567 34.7494 17.7351C34.7494 18.3135 34.8942 18.7714 35.1598 19.0967C35.4375 19.4221 35.8358 19.5787 36.3548 19.5787C36.6927 19.5787 37.0187 19.5305 37.2963 19.4462V19.6992C37.0308 19.7957 36.6927 19.8438 36.2823 19.8438C35.7029 19.8438 35.2563 19.6631 34.9305 19.2895C34.6046 18.916 34.4355 18.3978 34.4355 17.7351C34.4355 17.3253 34.5201 16.9517 34.677 16.6385C34.8339 16.3252 35.0632 16.0721 35.3529 15.9034C35.6427 15.7348 35.9927 15.6504 36.3789 15.6504C36.7772 15.6504 37.1393 15.7227 37.4532 15.8793L37.3445 16.1324C37.0428 15.9637 36.7289 15.8914 36.4031 15.8914Z" fill="white" fill-opacity="0.64"/>
<path d="M40.4469 19.7723H38.2139V15.6873H40.4469V15.9524H38.5035V17.4949H40.3382V17.76H38.5035V19.5073H40.4469V19.7723Z" fill="white" fill-opacity="0.64"/>
<path d="M41.6535 17.9885V19.7599H41.376V15.6748H42.3537C42.8607 15.6748 43.2348 15.7713 43.4763 15.952C43.7176 16.1448 43.8384 16.4219 43.8384 16.7955C43.8384 17.0726 43.7659 17.3016 43.6211 17.4824C43.4763 17.6752 43.259 17.8078 42.9572 17.892L44.0677 19.7478H43.7297L42.6795 17.9764H41.6535V17.9885ZM41.6535 17.7475H42.4382C42.7882 17.7475 43.0538 17.6752 43.2348 17.5186C43.428 17.3619 43.5245 17.1329 43.5245 16.8437C43.5245 16.5304 43.428 16.3015 43.2469 16.1689C43.0659 16.0243 42.752 15.952 42.3295 15.952H41.6535V17.7475Z" fill="white" fill-opacity="0.64"/>
<path d="M45.843 19.772H45.5533V15.9642H44.2256V15.6991H47.1708V15.9642H45.843V19.772Z" fill="white" fill-opacity="0.64"/>
<path d="M47.7734 19.7723V15.6873H48.0631V19.7723H47.7734Z" fill="white" fill-opacity="0.64"/>
<path d="M49.4992 19.7723H49.2217V15.6873H51.4668V15.9524H49.5113V17.6876H51.3581V17.9527H49.5113V19.7723H49.4992Z" fill="white" fill-opacity="0.64"/>
<path d="M52.0947 19.7723V15.6873H52.3844V19.7723H52.0947Z" fill="white" fill-opacity="0.64"/>
<path d="M55.2815 15.8914C54.7746 15.8914 54.3642 16.0601 54.0745 16.3854C53.7848 16.7108 53.6279 17.1567 53.6279 17.7351C53.6279 18.3135 53.7728 18.7714 54.0504 19.0967C54.328 19.4221 54.7263 19.5787 55.2453 19.5787C55.5834 19.5787 55.9092 19.5305 56.1869 19.4462V19.6992C55.9213 19.7957 55.5834 19.8438 55.173 19.8438C54.5936 19.8438 54.147 19.6631 53.821 19.2895C53.4951 18.916 53.3262 18.3978 53.3262 17.7351C53.3262 17.3253 53.4106 16.9517 53.5676 16.6385C53.7245 16.3252 53.9538 16.0721 54.2435 15.9034C54.5332 15.7348 54.8832 15.6504 55.2695 15.6504C55.6678 15.6504 56.03 15.7227 56.3438 15.8793L56.2231 16.1324C55.9213 15.9637 55.6075 15.8914 55.2815 15.8914Z" fill="white" fill-opacity="0.64"/>
<path d="M59.0587 18.3261H57.3929L56.8256 19.76H56.5117L58.1533 15.663H58.3344L59.9397 19.76H59.6139L59.0587 18.3261ZM57.5015 18.073H58.9621L58.4068 16.6029C58.3585 16.4825 58.3102 16.3258 58.2379 16.1209C58.1896 16.3016 58.1292 16.4583 58.0689 16.6029L57.5015 18.073Z" fill="white" fill-opacity="0.64"/>
<path d="M61.594 19.772H61.3043V15.9642H59.9766V15.6991H62.9217V15.9642H61.594V19.772Z" fill="white" fill-opacity="0.64"/>
<path d="M65.7594 19.7723H63.5264V15.6873H65.7594V15.9524H63.8039V17.4949H65.6507V17.76H63.8039V19.5073H65.7594V19.7723Z" fill="white" fill-opacity="0.64"/>
<path fill-rule="evenodd" clip-rule="evenodd" d="M36.0988 5.12965H36.4488C37.8369 5.1417 38.7664 5.53936 39.2974 6.12982C39.744 6.62388 39.9009 7.31073 39.7923 8.22654L39.6234 9.5039L39.5992 9.63646C39.2853 11.4801 37.9939 12.4803 35.5555 12.5044H35.2055C33.8054 12.4923 32.876 12.0585 32.3448 11.468C31.9103 10.986 31.7534 10.3232 31.862 9.44363L32.0311 8.16629C32.3086 6.19007 33.6123 5.15376 36.0988 5.12965ZM37.5835 9.39544L37.7404 8.22654C37.8248 7.59994 37.7524 7.15408 37.5352 6.84077C37.2575 6.46722 36.7506 6.40697 36.3764 6.40697H36.0143C35.459 6.40697 35.0124 6.55157 34.6866 6.86487C34.3606 7.19023 34.1554 7.64813 34.071 8.27474L33.914 9.44363C33.8416 9.97384 33.8778 10.3715 34.0106 10.6486C34.2158 11.0222 34.6866 11.2511 35.3384 11.2511H35.7125C36.3644 11.2511 36.835 11.0101 37.1489 10.6125C37.3783 10.3112 37.511 9.91356 37.5835 9.39544ZM62.0143 5.28629H65.1767C66.7579 5.28629 67.7959 5.62369 68.3633 6.26235C68.7858 6.74437 68.9548 7.39507 68.8461 8.25063C68.8461 8.25063 68.6771 9.67255 68.665 9.75692C68.5927 10.2148 68.4598 10.6004 68.2788 10.9258C67.9409 11.4921 67.2649 12.3838 64.7904 12.3838H62.3522C61.5193 12.3838 61.1331 12.0826 61.2055 11.5524L61.471 9.56409L61.7487 7.31072H62.7867C63.5351 7.31072 63.7282 7.94938 63.6799 8.34703L63.342 11.0825H64.5369C65.4422 11.0825 66.4682 10.8655 66.6493 9.44363L66.7941 8.34703C66.9872 6.97332 66.3234 6.56361 65.0922 6.56361H63.9092H62.9799C62.1832 6.56361 62.0262 5.97315 62.0143 5.5032V5.28629ZM77.9716 6.12982C77.4404 5.53936 76.511 5.1417 75.1229 5.12965H74.7728C72.2863 5.15376 70.9827 6.19007 70.7051 8.16629L70.5361 9.44363C70.4275 10.3232 70.5844 10.986 71.019 11.468C71.55 12.0585 72.4795 12.4923 73.8797 12.5044H74.2297C76.6679 12.4803 77.9595 11.4801 78.2733 9.63646L78.2974 9.5039L78.4664 8.22654C78.563 7.31073 78.4061 6.62388 77.9716 6.12982ZM76.4144 8.22654L76.2575 9.39544C76.1851 9.91356 76.0523 10.3112 75.823 10.6125C75.5092 11.0101 75.0384 11.2511 74.3866 11.2511H74.0003C73.3485 11.2511 72.8778 11.0222 72.6726 10.6486C72.5398 10.3715 72.5036 9.97384 72.576 9.44363L72.7329 8.27474C72.8174 7.64813 73.0227 7.19023 73.3485 6.86487C73.6624 6.55157 74.1211 6.40697 74.6763 6.40697H75.0384C75.4126 6.40697 75.9196 6.46722 76.1971 6.84077C76.4265 7.15408 76.4989 7.59994 76.4144 8.22654ZM56.148 5.12965H56.498C57.8983 5.1417 58.8156 5.53936 59.3467 6.12982C59.7933 6.62388 59.9503 7.31073 59.8416 8.22654L59.6726 9.5039L59.6484 9.63646C59.3347 11.4801 58.0431 12.4803 55.6049 12.5044H55.2548C53.8546 12.4923 52.9252 12.0585 52.3941 11.468C51.9596 10.986 51.8026 10.3232 51.9113 9.44363L52.0803 8.16629C52.3579 6.19007 53.6615 5.15376 56.148 5.12965ZM57.6448 9.39544L57.8017 8.22654C57.8862 7.59994 57.8137 7.15408 57.5965 6.84077C57.3188 6.46722 56.8119 6.40697 56.4377 6.40697H56.0755C55.5203 6.40697 55.0737 6.55157 54.7478 6.86487C54.4099 7.19023 54.2167 7.64813 54.1323 8.27474L53.9754 9.44363C53.9029 9.97384 53.9391 10.3715 54.0719 10.6486C54.2771 11.0222 54.7478 11.2511 55.3997 11.2511H55.7738C56.4257 11.2511 56.8963 11.0101 57.2102 10.6125C57.4396 10.3112 57.5723 9.91356 57.6448 9.39544ZM48.6279 5.68398L45.8879 8.78088L43.9687 5.70808C43.7876 5.41888 43.4134 5.28633 42.8582 5.28633H41.9891L41.12 12.3718H42.1823C42.5323 12.3718 42.7858 12.2273 42.9307 12.0947C43.1599 11.9019 43.3049 11.6247 43.3411 11.3355L43.7273 8.22657L45.1396 10.9137C45.1999 11.0102 45.3689 11.2391 45.5983 11.2391H45.6223C45.8637 11.2391 46.0689 11.0102 46.1293 10.9378L48.2779 8.22657L47.7588 12.3598H48.7848C49.1348 12.3598 49.3883 12.2152 49.5332 12.0826C49.7504 11.8898 49.9074 11.6127 49.9436 11.3235L50.692 5.27428H49.7867C49.2556 5.28633 48.8573 5.41888 48.6279 5.68398ZM27.1787 5.35863C27.4805 5.31043 27.8064 5.28634 28.1564 5.28634V5.27428H31.3551C31.3551 5.27428 31.1499 6.56364 30.0515 6.56364H28.4703C27.5047 6.56364 27.1184 6.7926 26.9614 6.9131C26.6839 7.10591 26.5148 7.38306 26.4062 7.63611C26.37 7.73252 26.2855 8.04582 26.2372 8.32297L26.0924 9.40744C26.0562 9.63646 26.0562 9.99793 26.0804 10.1667C26.1648 10.5884 26.37 10.8173 26.7321 10.9499C26.9977 11.0463 27.3718 11.0825 27.7581 11.0825H30.5947C30.5947 11.0825 30.4498 12.3839 29.2065 12.3839H27.058C25.8389 12.3839 25.0181 11.9381 24.5353 11.4078C24.1249 10.9499 23.9801 10.3112 24.0766 9.45572L24.2336 8.21452C24.4628 6.58775 25.4044 5.62374 27.1787 5.35863Z" fill="white" fill-opacity="0.64"/>
</g>
<defs>
<clipPath id="clip0_170_8785">
<rect width="77.5385" height="24" fill="white" transform="translate(0.956055)"/>
</clipPath>
</defs>
</svg>
