<svg width="80" height="24" viewBox="0 0 80 24" fill="none" xmlns="http://www.w3.org/2000/svg">
<g clip-path="url(#clip0_170_8717)">
<path d="M38.8277 10.8767C39.0382 11.0171 39.3538 11.1223 39.6695 11.1223C40.1606 11.1223 40.4412 10.8767 40.4412 10.4907C40.4412 10.1399 40.2307 9.96437 39.7397 9.75388C39.1434 9.54331 38.7576 9.22757 38.7576 8.70127C38.7576 8.13981 39.2486 7.71875 39.9501 7.71875C40.3359 7.71875 40.5814 7.78899 40.7569 7.89423L40.6165 8.28021C40.5114 8.21004 40.2658 8.10473 39.915 8.10473C39.424 8.10473 39.2135 8.42054 39.2135 8.66619C39.2135 9.01701 39.424 9.19249 39.9501 9.3679C40.5815 9.61355 40.8621 9.89421 40.8621 10.4556C40.8621 11.0171 40.4412 11.5083 39.5994 11.5083C39.2486 11.5083 38.8628 11.403 38.6523 11.2626L38.8277 10.8767Z" fill="white" fill-opacity="0.64"/>
<path d="M41.8447 10.211C41.8447 10.8426 42.2655 11.1233 42.7566 11.1233C43.1074 11.1233 43.3178 11.0531 43.4932 10.9829L43.5634 11.3338C43.3879 11.404 43.1074 11.5092 42.6864 11.5092C41.8797 11.5092 41.3887 10.9829 41.3887 10.1759C41.3887 9.36886 41.8797 8.7373 42.6163 8.7373C43.4581 8.7373 43.7037 9.50926 43.7037 9.9654C43.7037 10.0706 43.7037 10.1408 43.7037 10.211H41.8447ZM43.2477 9.89516C43.2477 9.57942 43.1074 9.12328 42.5813 9.12328C42.0902 9.12328 41.8797 9.57942 41.8447 9.89516H43.2477Z" fill="white" fill-opacity="0.64"/>
<path d="M46.1944 11.369C46.0542 11.4391 45.7735 11.5093 45.4228 11.5093C44.6161 11.5093 44.125 10.983 44.125 10.176C44.125 9.36893 44.6862 8.77246 45.528 8.77246C45.8086 8.77246 46.0542 8.84263 46.1944 8.91279L46.0892 9.26368C45.984 9.19352 45.8086 9.12335 45.528 9.12335C44.9318 9.12335 44.581 9.5795 44.581 10.1409C44.581 10.7374 44.9668 11.1233 45.4929 11.1233C45.7735 11.1233 45.9489 11.0532 46.0892 10.983L46.1944 11.369Z" fill="white" fill-opacity="0.64"/>
<path d="M48.9304 10.7374C48.9304 11.0181 48.9304 11.2637 48.9655 11.4391H48.5446L48.5095 11.0181C48.4043 11.2286 48.0886 11.5093 47.6326 11.5093C47.2117 11.5093 46.7207 11.2637 46.7207 10.3514V8.80754H47.2117V10.2461C47.2117 10.7374 47.3871 11.0882 47.808 11.0882C48.1237 11.0882 48.3692 10.8778 48.4394 10.6321C48.4745 10.5619 48.4745 10.4918 48.4745 10.3865V8.77246H48.9655V10.7374" fill="white" fill-opacity="0.64"/>
<path d="M49.7363 9.64973C49.7363 9.33392 49.7363 9.08835 49.7012 8.8427H50.1221L50.1572 9.36901C50.2623 9.01818 50.578 8.80762 50.8937 8.80762C50.9288 8.80762 50.9989 8.80762 51.034 8.80762V9.26376C50.9639 9.26376 50.9288 9.26376 50.8586 9.26376C50.5079 9.26376 50.2974 9.50941 50.2273 9.86023C50.2273 9.93039 50.2273 10.0006 50.2273 10.1059V11.5094H49.7363V9.64973Z" fill="white" fill-opacity="0.64"/>
<path d="M51.7708 8.35037C51.5954 8.35037 51.4551 8.21004 51.4551 8.03456C51.4551 7.85915 51.5954 7.71875 51.7708 7.71875C51.9462 7.71875 52.0865 7.85915 52.0865 8.03456C52.0865 8.21004 51.9812 8.35037 51.7708 8.35037ZM52.0163 11.4732H51.5603V8.8416H52.0514V11.4732H52.0163Z" fill="white" fill-opacity="0.64"/>
<path d="M53.3847 8.21083V8.84238H54.0862V9.19328H53.3847V10.6319C53.3847 10.9477 53.4899 11.1582 53.7355 11.1582C53.8757 11.1582 53.9459 11.1582 54.0161 11.1231L54.0512 11.474C53.9459 11.5091 53.8057 11.5441 53.6302 11.5441C53.4198 11.5441 53.2444 11.474 53.1041 11.3336C52.9638 11.1933 52.9287 10.9477 52.9287 10.6319V9.19328H52.5078V8.84238H52.9287V8.35116L53.3847 8.21083Z" fill="white" fill-opacity="0.64"/>
<path d="M54.858 8.8427L55.4192 10.3865C55.4893 10.562 55.5595 10.7725 55.5946 10.9129C55.6296 10.7725 55.6998 10.562 55.7699 10.3515L56.2961 8.80762H56.7872L56.0506 10.7023C55.6998 11.6146 55.4893 12.0708 55.1386 12.3515C54.8931 12.562 54.6826 12.6322 54.5423 12.6672L54.4371 12.2813C54.5423 12.2463 54.7177 12.176 54.858 12.0357C54.9983 11.9304 55.1386 11.755 55.2438 11.5094C55.2789 11.4743 55.2789 11.4392 55.2789 11.4041C55.2789 11.3691 55.2789 11.334 55.2438 11.2988L54.2617 8.87778H54.858" fill="white" fill-opacity="0.64"/>
<path d="M38.8277 16.3161C39.0382 16.4565 39.3538 16.5618 39.6695 16.5618C40.1606 16.5618 40.4412 16.3161 40.4412 15.9301C40.4412 15.5793 40.2307 15.4038 39.7397 15.1933C39.1434 14.9828 38.7576 14.667 38.7576 14.1407C38.7576 13.5793 39.2486 13.1582 39.9501 13.1582C40.3359 13.1582 40.5814 13.2284 40.7569 13.3337L40.6165 13.7197C40.5114 13.6494 40.2658 13.5442 39.915 13.5442C39.424 13.5442 39.2135 13.86 39.2135 14.1056C39.2135 14.4565 39.424 14.6319 39.9501 14.8074C40.5815 15.0529 40.8621 15.3337 40.8621 15.895C40.8621 16.4564 40.4412 16.9477 39.5994 16.9477C39.2486 16.9477 38.8628 16.8424 38.6523 16.7021L38.8277 16.3161Z" fill="white" fill-opacity="0.64"/>
<path d="M42.0908 13.6494V14.281H42.7923V14.6319H42.0908V16.0354C42.0908 16.3512 42.196 16.5617 42.4415 16.5617C42.5818 16.5617 42.652 16.5617 42.7221 16.5266L42.7572 16.8775C42.652 16.9126 42.5117 16.9477 42.3363 16.9477C42.1259 16.9477 41.9505 16.8775 41.8102 16.7371C41.6699 16.5968 41.6348 16.3512 41.6348 16.0354V14.5968H41.2139V14.2459H41.6348V13.7547L42.0908 13.6494Z" fill="white" fill-opacity="0.64"/>
<path d="M45.1769 16.2803C45.1769 16.526 45.1769 16.7365 45.2119 16.912H44.7911L44.756 16.5961C44.6157 16.8066 44.3351 16.9821 43.9493 16.9821C43.4232 16.9821 43.1426 16.5961 43.1426 16.2102C43.1426 15.5786 43.7038 15.2277 44.7209 15.2277V15.1576C44.7209 14.947 44.6508 14.5259 44.1247 14.5611C43.8791 14.5611 43.6336 14.6312 43.4232 14.7716L43.3179 14.4558C43.5283 14.3154 43.844 14.2453 44.1948 14.2453C45.0015 14.2453 45.2119 14.8067 45.2119 15.333V16.2803H45.1769ZM44.7209 15.5786C44.1948 15.5786 43.5985 15.6488 43.5985 16.1751C43.5985 16.4909 43.809 16.6312 44.0545 16.6312C44.4053 16.6312 44.6157 16.4207 44.6859 16.1751C44.6859 16.14 44.7209 16.0698 44.7209 16.0348V15.5786Z" fill="white" fill-opacity="0.64"/>
<path d="M45.9482 14.9827C45.9482 14.7021 45.9482 14.4915 45.9131 14.281H46.334L46.3691 14.7021C46.5093 14.4564 46.7899 14.2108 47.2459 14.2108C47.5967 14.2108 48.1929 14.4213 48.1929 15.3336V16.9125H47.7019V15.4038C47.7019 14.9827 47.5265 14.6318 47.1057 14.6318C46.7899 14.6318 46.5444 14.8424 46.4743 15.1231C46.4392 15.1933 46.4392 15.2634 46.4392 15.3336V16.9125H45.9482V14.9827Z" fill="white" fill-opacity="0.64"/>
<path d="M51.2444 13.0527V16.2457C51.2444 16.4914 51.2444 16.7369 51.2794 16.9124H50.8586L50.8235 16.4563C50.6832 16.7369 50.3675 16.9826 49.9466 16.9826C49.3152 16.9826 48.8242 16.4563 48.8242 15.6493C48.8242 14.7721 49.3854 14.2457 50.0167 14.2457C50.4377 14.2457 50.6832 14.4212 50.8235 14.6317V13.0527H51.2444ZM50.7533 15.3334C50.7533 15.2633 50.7533 15.1931 50.7182 15.1229C50.6481 14.8071 50.4026 14.5615 50.0167 14.5615C49.5257 14.5615 49.21 14.9825 49.21 15.5791C49.21 16.1054 49.4906 16.5615 49.9816 16.5615C50.2973 16.5615 50.5779 16.351 50.6832 16.0001C50.7182 15.9299 50.7182 15.8597 50.7182 15.7896V15.3334H50.7533Z" fill="white" fill-opacity="0.64"/>
<path d="M53.9114 16.2803C53.9114 16.526 53.9114 16.7365 53.9465 16.912H53.5255L53.4905 16.5961C53.3502 16.8066 53.0695 16.9821 52.6837 16.9821C52.1576 16.9821 51.877 16.5961 51.877 16.2102C51.877 15.5786 52.4382 15.2277 53.4554 15.2277V15.1576C53.4554 14.947 53.3852 14.5259 52.8591 14.5611C52.6135 14.5611 52.368 14.6312 52.1576 14.7716L52.0524 14.4558C52.2628 14.3154 52.5785 14.2453 52.9293 14.2453C53.736 14.2453 53.9465 14.8067 53.9465 15.333V16.2803H53.9114ZM53.4203 15.5786C52.8942 15.5786 52.2979 15.6488 52.2979 16.1751C52.2979 16.4909 52.5084 16.6312 52.7539 16.6312C53.1046 16.6312 53.3151 16.4207 53.3852 16.1751C53.3852 16.14 53.4203 16.0698 53.4203 16.0348V15.5786Z" fill="white" fill-opacity="0.64"/>
<path d="M54.6825 15.0874C54.6825 14.7716 54.6825 14.5259 54.6475 14.2804H55.0684L55.1035 14.8067H55.1385C55.2437 14.4558 55.5594 14.2453 55.8751 14.2453C55.9101 14.2453 55.9452 14.2453 56.0154 14.2453V14.7014C55.9452 14.7014 55.9101 14.7014 55.84 14.7014C55.4892 14.7014 55.2788 14.947 55.2086 15.2979C55.2086 15.368 55.2086 15.4382 55.2086 15.5435V16.947H54.7176L54.6825 15.0874Z" fill="white" fill-opacity="0.64"/>
<path d="M58.6809 13.0527V16.2457C58.6809 16.4914 58.6809 16.7369 58.7159 16.9124H58.295L58.2599 16.4563C58.1196 16.7369 57.8039 16.9826 57.348 16.9826C56.7166 16.9826 56.2256 16.4563 56.2256 15.6493C56.2256 14.7721 56.7517 14.2457 57.4181 14.2457C57.839 14.2457 58.0845 14.4212 58.2249 14.6317V13.0527H58.6809ZM58.2249 15.3334C58.2249 15.2633 58.2249 15.1931 58.1898 15.1229C58.1196 14.8071 57.839 14.5615 57.4883 14.5615C56.9973 14.5615 56.7166 14.9825 56.7166 15.5791C56.7166 16.1054 56.9973 16.5615 57.4883 16.5615C57.8039 16.5615 58.1196 16.351 58.1898 16.0001C58.1898 15.9299 58.2249 15.8597 58.2249 15.7896V15.3334Z" fill="white" fill-opacity="0.64"/>
<path d="M59.4177 16.4213C59.558 16.5266 59.8036 16.5968 60.0491 16.5968C60.3998 16.5968 60.5402 16.4213 60.5402 16.2108C60.5402 15.9652 60.3998 15.8599 60.0491 15.7196C59.558 15.5441 59.3476 15.2985 59.3476 14.9827C59.3476 14.5617 59.6983 14.2108 60.2595 14.2108C60.5402 14.2108 60.7506 14.281 60.8909 14.3862L60.7857 14.7371C60.6804 14.667 60.5051 14.5967 60.2595 14.5967C59.9789 14.5967 59.8387 14.7722 59.8387 14.9476C59.8387 15.1582 59.9789 15.2634 60.3297 15.4038C60.7857 15.5793 61.0312 15.7897 61.0312 16.2108C61.0312 16.6669 60.6804 17.0178 60.0491 17.0178C59.7685 17.0178 59.4879 16.9477 59.3125 16.8424L59.4177 16.4213Z" fill="white" fill-opacity="0.64"/>
<path d="M65.3802 16.8064C65.2049 16.8766 64.8541 16.9819 64.3981 16.9819C63.381 16.9819 62.5742 16.3152 62.5742 15.1223C62.5742 13.9643 63.3459 13.1924 64.5034 13.1924C64.9593 13.1924 65.24 13.2977 65.3802 13.3679L65.2751 13.7538C65.0997 13.6836 64.8541 13.6134 64.5385 13.6134C63.6616 13.6134 63.1004 14.1749 63.1004 15.1223C63.1004 16.0345 63.6265 16.5959 64.5034 16.5959C64.784 16.5959 65.0997 16.5258 65.2751 16.4556L65.3802 16.8064Z" fill="white" fill-opacity="0.64"/>
<path d="M66.959 16.9828C66.2575 16.9828 65.6963 16.4564 65.6963 15.6143C65.6963 14.7371 66.2925 14.2108 66.9941 14.2108C67.7657 14.2108 68.2568 14.7722 68.2568 15.5441C68.2568 16.5266 67.5904 16.9828 66.959 16.9828ZM66.959 16.5968C67.415 16.5968 67.7657 16.1757 67.7657 15.5793C67.7657 15.1231 67.5553 14.5617 66.959 14.5617C66.3978 14.5617 66.1523 15.088 66.1523 15.5793C66.1874 16.1757 66.503 16.5968 66.959 16.5968Z" fill="white" fill-opacity="0.64"/>
<path d="M71.0622 16.1757C71.0622 16.4564 71.0622 16.702 71.0975 16.8774H70.6767L70.6415 16.4564C70.5361 16.6669 70.2205 16.9477 69.7645 16.9477C69.3436 16.9477 68.8525 16.702 68.8525 15.7897V14.2459H69.3436V15.6845C69.3436 16.1757 69.4839 16.5266 69.9399 16.5266C70.2555 16.5266 70.466 16.3161 70.5712 16.0705C70.6062 16.0002 70.6062 15.9301 70.6062 15.8248V14.2108H71.0975V16.1757" fill="white" fill-opacity="0.64"/>
<path d="M71.8693 14.9827C71.8693 14.7021 71.8693 14.4915 71.834 14.281H72.2547L72.29 14.7021C72.4305 14.4564 72.7107 14.2108 73.1667 14.2108C73.5175 14.2108 74.114 14.4213 74.114 15.3336V16.9125H73.6227V15.4038C73.6227 14.9827 73.4476 14.6318 73.0269 14.6318C72.7107 14.6318 72.4657 14.8424 72.3952 15.1231C72.3599 15.1933 72.3599 15.2634 72.3599 15.3336V16.9125H71.8693V14.9827Z" fill="white" fill-opacity="0.64"/>
<path d="M76.7806 16.8073C76.6401 16.8774 76.3945 16.9477 76.0091 16.9477C75.2022 16.9477 74.7109 16.4213 74.7109 15.6143C74.7109 14.8073 75.2721 14.2108 76.1142 14.2108C76.3945 14.2108 76.6401 14.281 76.7806 14.3512L76.6754 14.7021C76.5702 14.6319 76.3945 14.5617 76.1142 14.5617C75.5178 14.5617 75.1669 15.0178 75.1669 15.5793C75.1669 16.1757 75.5531 16.5617 76.0789 16.5617C76.3599 16.5617 76.5349 16.4915 76.6754 16.4213L76.7806 16.8073Z" fill="white" fill-opacity="0.64"/>
<path d="M77.5516 13.7898C77.3758 13.7898 77.2354 13.6494 77.2354 13.474C77.2354 13.2986 77.3758 13.1582 77.5516 13.1582C77.7266 13.1582 77.8671 13.2986 77.8671 13.474C77.8671 13.6494 77.7619 13.7898 77.5516 13.7898ZM77.7972 16.9126H77.3059V14.2811H77.7972V16.9126Z" fill="white" fill-opacity="0.64"/>
<path d="M79.0948 13.0527H78.6035V16.9124H79.0948V13.0527Z" fill="white" fill-opacity="0.64"/>
<path fill-rule="evenodd" clip-rule="evenodd" d="M36.3731 15.1579L30.5154 16.9968V7.40349H26.8325V17.0175H30.4494L8.20765 24L0 1.64912L29.5685 0L36.3731 15.1579ZM15.0823 10.6666C15.0823 11.228 14.942 11.7193 14.6965 12.1754C14.451 12.5965 14.1002 12.9824 13.6442 13.2632C13.1882 13.5438 12.627 13.7544 11.9957 13.8947C11.3644 14.035 10.6628 14.1053 9.85609 14.1053H9.29492V16.9825H5.64706V7.40349H9.92626C11.5397 7.40349 12.8024 7.68422 13.7144 8.21053C14.6263 8.73683 15.0823 9.57895 15.0823 10.6666ZM11.5748 10.7017C11.5748 9.85961 10.9434 9.43855 9.71576 9.43855H9.25984V12H9.68068C10.277 12 10.768 11.8947 11.0837 11.6842C11.3994 11.5088 11.5748 11.1579 11.5748 10.7017ZM22.2031 17.1575C22.9397 17.1575 23.571 17.0874 24.1322 16.982C24.5331 16.9069 24.6834 16.8675 24.9412 16.8L24.9412 16.7999C25.0443 16.773 25.1645 16.7415 25.3248 16.7014V14.2804C24.9036 14.4748 24.4825 14.5794 24.0889 14.6772L23.9919 14.7013C23.571 14.8067 23.115 14.8417 22.6941 14.8417C22.2732 14.8417 21.8874 14.7716 21.5016 14.6663C21.1157 14.561 20.8001 14.3856 20.5195 14.175C20.2389 13.9645 20.0284 13.6838 19.853 13.3681C19.6776 13.0172 19.6075 12.6312 19.6075 12.2101C19.6075 11.3329 19.853 10.7014 20.3791 10.2452C20.9053 9.82419 21.5717 9.57854 22.4135 9.57854C22.9046 9.57854 23.3957 9.64871 23.8516 9.78911C24.3076 9.89435 24.7285 10.0698 25.0793 10.2803V7.71889C24.6233 7.54348 24.6233 7.54348 24.027 7.40315C23.4307 7.29784 22.7642 7.26275 22.0627 7.26275C21.1508 7.26275 20.309 7.36807 19.5374 7.61365C18.7657 7.85929 18.0993 8.21012 17.538 8.63118C16.9769 9.08732 16.5559 9.61362 16.2403 10.2102C15.9246 10.8417 15.7843 11.5084 15.7843 12.2452C15.7843 12.9821 15.9246 13.6487 16.2052 14.2804C16.4858 14.8768 16.9067 15.4031 17.4679 15.8242C18.0291 16.2452 18.6955 16.561 19.5023 16.8066C20.274 17.0523 21.1859 17.1575 22.2031 17.1575ZM30.2701 5.89437C30.691 5.54349 30.9015 5.01718 30.9015 4.3856C30.9015 3.71893 30.691 3.19261 30.2701 2.84174C29.8492 2.45577 29.3231 2.28033 28.6917 2.28033C28.0604 2.28033 27.5342 2.45577 27.1133 2.84174C26.6925 3.2277 26.482 3.71893 26.482 4.3856C26.482 5.01718 26.6925 5.54349 27.1133 5.89437C27.5342 6.28033 28.0604 6.45577 28.6917 6.45577C29.3231 6.45577 29.8492 6.24524 30.2701 5.89437Z" fill="white" fill-opacity="0.64"/>
</g>
<defs>
<clipPath id="clip0_170_8717">
<rect width="79.7647" height="24" fill="white"/>
</clipPath>
</defs>
</svg>
