<svg width="37" height="28" viewBox="0 0 37 28" fill="none" xmlns="http://www.w3.org/2000/svg">
<g clip-path="url(#clip0_170_8806)">
<path d="M8.14288 26.4446C8.14288 25.9238 8.48581 25.496 9.04612 25.496C9.58146 25.496 9.94289 25.9054 9.94289 26.4446C9.94289 26.9838 9.58146 27.3931 9.04612 27.3931C8.48581 27.3931 8.14288 26.9653 8.14288 26.4446ZM10.5531 26.4446V24.9632H9.90579V25.3229C9.70046 25.0561 9.38896 24.8887 8.96554 24.8887C8.13075 24.8887 7.47635 25.54 7.47635 26.4446C7.47635 27.3498 8.13075 28.0004 8.96554 28.0004C9.38896 28.0004 9.70046 27.833 9.90579 27.5663V27.9259H10.5531V26.4446ZM32.4267 26.4446C32.4267 25.9238 32.7695 25.496 33.3298 25.496C33.8659 25.496 34.2266 25.9054 34.2266 26.4446C34.2266 26.9838 33.8659 27.3931 33.3298 27.3931C32.7695 27.3931 32.4267 26.9653 32.4267 26.4446ZM34.8375 26.4446V23.7734H34.1896V25.3229C33.9842 25.0561 33.6727 24.8887 33.2493 24.8887C32.4145 24.8887 31.7601 25.54 31.7601 26.4446C31.7601 27.3498 32.4145 28.0004 33.2493 28.0004C33.6727 28.0004 33.9842 27.833 34.1896 27.5663V27.9259H34.8375V26.4446ZM18.5878 25.4655C19.0048 25.4655 19.2729 25.7259 19.3412 26.1842H17.7965C17.8656 25.7564 18.1266 25.4655 18.5878 25.4655ZM18.6006 24.8887C17.7281 24.8887 17.1179 25.5209 17.1179 26.4446C17.1179 27.3868 17.753 28.0004 18.6441 28.0004C19.0925 28.0004 19.5031 27.889 19.8645 27.5854L19.5473 27.1079C19.2978 27.3059 18.9799 27.4179 18.6811 27.4179C18.2641 27.4179 17.8842 27.2257 17.7908 26.6922H20.0014C20.0078 26.612 20.0143 26.5311 20.0143 26.4446C20.0078 25.5209 19.4347 24.8887 18.6006 24.8887ZM26.4165 26.4446C26.4165 25.9238 26.7594 25.496 27.3197 25.496C27.855 25.496 28.2165 25.9054 28.2165 26.4446C28.2165 26.9838 27.855 27.3931 27.3197 27.3931C26.7594 27.3931 26.4165 26.9653 26.4165 26.4446ZM28.8266 26.4446V24.9632H28.1794V25.3229C27.9733 25.0561 27.6625 24.8887 27.2391 24.8887C26.4043 24.8887 25.7499 25.54 25.7499 26.4446C25.7499 27.3498 26.4043 28.0004 27.2391 28.0004C27.6625 28.0004 27.9733 27.833 28.1794 27.5663V27.9259H28.8266V26.4446ZM22.7609 26.4446C22.7609 27.3434 23.3897 28.0004 24.3491 28.0004C24.7975 28.0004 25.0963 27.9011 25.4199 27.6471L25.1091 27.1264C24.866 27.3002 24.6108 27.3931 24.3299 27.3931C23.8131 27.3868 23.4331 27.015 23.4331 26.4446C23.4331 25.8741 23.8131 25.5024 24.3299 25.496C24.6108 25.496 24.866 25.5889 25.1091 25.7628L25.4199 25.242C25.0963 24.988 24.7975 24.8887 24.3491 24.8887C23.3897 24.8887 22.7609 25.5457 22.7609 26.4446ZM31.1064 24.8887C30.7329 24.8887 30.4898 25.0625 30.3215 25.3229V24.9632H29.6799V27.9259H30.328V26.265C30.328 25.7748 30.5397 25.5024 30.9631 25.5024C31.0943 25.5024 31.2311 25.5209 31.368 25.5769L31.5676 24.9696C31.4243 24.9135 31.2376 24.8887 31.1064 24.8887ZM13.7545 25.1987C13.443 24.9944 13.0139 24.8887 12.5405 24.8887C11.7863 24.8887 11.3009 25.2484 11.3009 25.8373C11.3009 26.3204 11.6623 26.6184 12.3281 26.7113L12.6339 26.7546C12.9889 26.8043 13.1564 26.8972 13.1564 27.0646C13.1564 27.2938 12.9198 27.4243 12.4778 27.4243C12.0294 27.4243 11.7058 27.2818 11.4876 27.1143L11.1825 27.6159C11.5376 27.8763 11.986 28.0004 12.4714 28.0004C13.3311 28.0004 13.8294 27.5975 13.8294 27.0334C13.8294 26.5127 13.4373 26.2402 12.7893 26.1473L12.4842 26.1033C12.2041 26.0664 11.9795 26.0111 11.9795 25.8125C11.9795 25.5953 12.1912 25.4655 12.5463 25.4655C12.9262 25.4655 13.294 25.6081 13.4744 25.7195L13.7545 25.1987ZM22.1065 24.8887C21.7329 24.8887 21.4899 25.0625 21.3223 25.3229V24.9632H20.6807V27.9259H21.328V26.265C21.328 25.7748 21.5398 25.5024 21.9632 25.5024C22.0943 25.5024 22.2312 25.5209 22.3681 25.5769L22.5677 24.9696C22.4244 24.9135 22.2376 24.8887 22.1065 24.8887ZM16.5825 24.9632H15.5239V24.0643H14.8695V24.9632H14.2657V25.5521H14.8695V26.9036C14.8695 27.5911 15.1375 28.0004 15.9032 28.0004C16.184 28.0004 16.5076 27.9139 16.713 27.7713L16.5262 27.2193C16.333 27.3307 16.1212 27.3868 15.953 27.3868C15.6294 27.3868 15.5239 27.1881 15.5239 26.8908V25.5521H16.5825V24.9632ZM6.90392 27.9259V26.0664C6.90392 25.3662 6.45553 24.8951 5.73269 24.8887C5.35273 24.8823 4.96065 25.0001 4.68621 25.4159C4.4809 25.0873 4.15725 24.8887 3.70245 24.8887C3.38451 24.8887 3.0737 24.9816 2.83061 25.3286V24.9632H2.18262V27.9259H2.83632V26.2835C2.83632 25.7691 3.12289 25.496 3.56558 25.496C3.99543 25.496 4.21286 25.7748 4.21286 26.2771V27.9259H4.86726V26.2835C4.86726 25.7691 5.16595 25.496 5.59582 25.496C6.03779 25.496 6.24952 25.7748 6.24952 26.2771V27.9259H6.90392Z" fill="white" fill-opacity="0.64"/>
<circle cx="25.3413" cy="11.2778" r="11.2778" fill="white" fill-opacity="0.64"/>
<path fill-rule="evenodd" clip-rule="evenodd" d="M18.3412 20.1207C20.9474 18.0549 22.619 14.8615 22.619 11.2777C22.619 7.69387 20.9474 4.50048 18.3413 2.43472C15.7351 4.50048 14.0635 7.69388 14.0635 11.2777C14.0635 14.8615 15.7351 18.0549 18.3412 20.1207Z" fill="white" fill-opacity="0.64"/>
<path fill-rule="evenodd" clip-rule="evenodd" d="M18.3412 2.43476C16.418 0.91034 13.9859 0 11.3413 0C5.11271 0 0.0634766 5.04923 0.0634766 11.2778C0.0634766 17.5063 5.11271 22.5556 11.3413 22.5556C17.1805 22.5556 21.9833 18.1178 22.5608 12.4309C22.2448 15.542 20.6643 18.2793 18.3412 20.1207C15.7351 18.0549 14.0635 14.8615 14.0635 11.2777C14.0635 7.6939 15.7351 4.50052 18.3412 2.43476Z" fill="white" fill-opacity="0.64"/>
</g>
<defs>
<clipPath id="clip0_170_8806">
<rect width="36.5556" height="28" fill="white" transform="translate(0.0634766)"/>
</clipPath>
</defs>
</svg>
