<svg width="64" height="24" viewBox="0 0 64 24" fill="none" xmlns="http://www.w3.org/2000/svg">
<g clip-path="url(#clip0_170_8749)">
<path fill-rule="evenodd" clip-rule="evenodd" d="M59.9216 0.8H3.94443C2.40834 0.8 1.13301 2.07814 1.13301 3.69231V20.3077C1.13301 21.9218 2.40834 23.2 3.94443 23.2H59.9216C61.4576 23.2 62.733 21.9218 62.733 20.3077V3.69231C62.733 2.07814 61.4576 0.8 59.9216 0.8ZM3.94443 0H59.9216C61.916 0 63.533 1.6531 63.533 3.69231V20.3077C63.533 22.3469 61.916 24 59.9216 24H3.94443C1.9499 24 0.333008 22.3469 0.333008 20.3077V3.69231C0.333008 1.6531 1.9499 0 3.94443 0Z" fill="white" fill-opacity="0.64"/>
<path fill-rule="evenodd" clip-rule="evenodd" d="M24.333 0H3.93302C1.94478 0 0.333008 1.61177 0.333008 3.6V20.4C0.333008 22.3882 1.94478 24 3.93302 24H24.333V0ZM16.2613 5.79874L15.9888 4.91797L15.7161 5.79874H14.8335L15.5474 6.34328L15.2747 7.22385L15.9888 6.67931L16.7027 7.22385L16.4299 6.34328L17.144 5.79874H16.2613ZM12.3575 3.59961L12.6301 4.48039H13.5128L12.7988 5.02471L13.0715 5.90549L12.3575 5.36082L11.6437 5.90549L11.9164 5.02471L11.2022 4.48039H12.0848L12.3575 3.59961ZM12.6301 18.9748L12.3574 18.0938L12.0847 18.9748H11.2021L11.9163 19.519L11.6436 20.3996L12.3574 19.8554L13.0714 20.3996L12.7987 19.519L13.5127 18.9748H12.6301ZM19.1969 15.2806L18.9245 14.3996L18.6517 15.2806H17.769L18.4831 15.8249L18.2104 16.7054L18.9245 16.1614L19.6385 16.7054L19.3656 15.8249L20.0796 15.2806H19.1969ZM19.6197 10.8469L19.8923 11.7276H20.7749L20.0609 12.2719L20.3336 13.1528L19.6197 12.6086L18.9057 13.1528L19.1786 12.2719L18.4644 11.7276H19.3469L19.6197 10.8469ZM5.36895 11.7276L5.09636 10.8469L4.82358 11.7276H3.94092L4.655 12.2719L4.38223 13.1528L5.09636 12.6086L5.8103 13.1528L5.53738 12.2719L6.25147 11.7276H5.36895ZM5.69792 14.3996L5.97051 15.2806H6.85303L6.13913 15.8249L6.41167 16.7054L5.69792 16.1614L4.98383 16.7054L5.25656 15.8249L4.54247 15.2806H5.42519L5.69792 14.3996ZM18.9245 7.2L19.1969 8.08105H20.0796L19.3656 8.62537L19.6385 9.50593L18.9245 8.96177L18.2104 9.50593L18.4831 8.62537L17.769 8.08105H18.6517L18.9245 7.2ZM6.2705 8.08105L5.99792 7.2L5.72519 8.08105H4.84247L5.55656 8.62537L5.28383 9.50593L5.99792 8.96177L6.71167 9.50593L6.43913 8.62537L7.15303 8.08105H6.2705ZM16.9216 18.315L16.649 17.4344L16.3763 18.315H15.4937L16.2077 18.8597L15.9348 19.7403L16.649 19.1961L17.3629 19.7403L17.09 18.8597L17.8041 18.315H16.9216ZM8.3395 18.3155L8.06679 17.4344L7.79406 18.3155H6.91161L7.62565 18.8596L7.35294 19.7403L8.06679 19.1963L8.78086 19.7403L8.50814 18.8596L9.22222 18.3155H8.3395ZM8.72711 4.91797L8.99959 5.79874H9.88239L9.16831 6.34328L9.44119 7.22385L8.72711 6.67931L8.01314 7.22385L8.28586 6.34328L7.57178 5.79874H8.45431L8.72711 4.91797ZM13.9894 11.4818H14.247C14.5315 11.4818 14.7623 11.7201 14.7623 12.0136V14.1409C14.7623 14.4346 14.5315 14.6727 14.247 14.6727H10.468C10.1834 14.6727 9.95264 14.4346 9.95264 14.1409V12.0136C9.95264 11.7201 10.1834 11.4818 10.468 11.4818H10.7256V10.6841C10.7256 9.75568 11.4578 9 12.3574 9C13.2571 9 13.9894 9.75568 13.9894 10.6841V11.4818ZM11.5845 11.4818H13.1305V10.6841C13.1305 10.2442 12.7837 9.8864 12.3574 9.8864C11.9313 9.8864 11.5845 10.2442 11.5845 10.6841V11.4818Z" fill="white" fill-opacity="0.64"/>
<path d="M31.2745 16.262C31.2489 16.1628 31.2135 16.0717 31.1686 15.9884C31.1238 15.9053 31.0661 15.8333 30.9955 15.7724C30.925 15.7116 30.8417 15.6653 30.7454 15.6332C30.6525 15.5981 30.5434 15.5804 30.4184 15.5804C30.2355 15.5804 30.0769 15.6173 29.9422 15.6908C29.8108 15.7645 29.7033 15.8636 29.6199 15.9884C29.5366 16.1101 29.4741 16.2493 29.4323 16.406C29.3939 16.5629 29.3746 16.7228 29.3746 16.886C29.3746 17.0492 29.3939 17.2092 29.4323 17.366C29.4741 17.5229 29.5366 17.6636 29.6199 17.7884C29.7033 17.91 29.8108 18.0077 29.9422 18.0812C30.0769 18.1548 30.2355 18.1916 30.4184 18.1916C30.553 18.1916 30.6717 18.1692 30.7742 18.1244C30.8769 18.0764 30.965 18.0125 31.0388 17.9324C31.1126 17.8493 31.1702 17.7533 31.2119 17.6444C31.2537 17.5356 31.281 17.4188 31.2937 17.294H31.8805C31.8678 17.4989 31.8228 17.6861 31.7458 17.8556C31.6722 18.0253 31.571 18.1724 31.4429 18.2972C31.3146 18.4189 31.1638 18.5132 30.9907 18.5804C30.8175 18.6476 30.6267 18.6812 30.4184 18.6812C30.1618 18.6812 29.931 18.6348 29.7258 18.542C29.5238 18.446 29.3522 18.3164 29.2111 18.1532C29.07 17.99 28.961 17.7997 28.884 17.582C28.8103 17.3645 28.7734 17.1324 28.7734 16.886C28.7734 16.6428 28.8103 16.4124 28.884 16.1948C28.961 15.9773 29.07 15.7868 29.2111 15.6236C29.3522 15.4604 29.5238 15.3308 29.7258 15.2348C29.931 15.1388 30.1618 15.0908 30.4184 15.0908C30.6107 15.0908 30.7919 15.1181 30.9618 15.1724C31.1318 15.2237 31.281 15.3005 31.4091 15.4028C31.5406 15.5021 31.6464 15.6236 31.7266 15.7676C31.8068 15.9116 31.8565 16.0764 31.8757 16.262H31.2745Z" fill="white" fill-opacity="0.64"/>
<path d="M33.8891 15.5804C33.7063 15.5804 33.5476 15.6173 33.4129 15.6908C33.2815 15.7645 33.174 15.8636 33.0907 15.9884C33.0073 16.1101 32.9448 16.2493 32.903 16.406C32.8645 16.5629 32.8453 16.7228 32.8453 16.886C32.8453 17.0492 32.8645 17.2092 32.903 17.366C32.9448 17.5229 33.0073 17.6636 33.0907 17.7884C33.174 17.91 33.2815 18.0077 33.4129 18.0812C33.5476 18.1548 33.7063 18.1916 33.8891 18.1916C34.0718 18.1916 34.2289 18.1548 34.3605 18.0812C34.4951 18.0077 34.6041 17.91 34.6874 17.7884C34.7709 17.6636 34.8318 17.5229 34.8703 17.366C34.9119 17.2092 34.9328 17.0492 34.9328 16.886C34.9328 16.7228 34.9119 16.5629 34.8703 16.406C34.8318 16.2493 34.7709 16.1101 34.6874 15.9884C34.6041 15.8636 34.4951 15.7645 34.3605 15.6908C34.2289 15.6173 34.0718 15.5804 33.8891 15.5804ZM33.8891 15.0908C34.1456 15.0908 34.3749 15.1388 34.5769 15.2348C34.7821 15.3308 34.9552 15.4604 35.0963 15.6236C35.2374 15.7868 35.3448 15.9773 35.4186 16.1948C35.4955 16.4124 35.534 16.6428 35.534 16.886C35.534 17.1324 35.4955 17.3645 35.4186 17.582C35.3448 17.7997 35.2374 17.99 35.0963 18.1532C34.9552 18.3164 34.7821 18.446 34.5769 18.542C34.3749 18.6348 34.1456 18.6812 33.8891 18.6812C33.6325 18.6812 33.4017 18.6348 33.1965 18.542C32.9945 18.446 32.8229 18.3164 32.6818 18.1532C32.5407 17.99 32.4317 17.7997 32.3547 17.582C32.281 17.3645 32.2441 17.1324 32.2441 16.886C32.2441 16.6428 32.281 16.4124 32.3547 16.1948C32.4317 15.9773 32.5407 15.7868 32.6818 15.6236C32.8229 15.4604 32.9945 15.3308 33.1965 15.2348C33.4017 15.1388 33.6325 15.0908 33.8891 15.0908Z" fill="white" fill-opacity="0.64"/>
<path d="M36.0713 15.1729H36.9178L37.8653 17.8561H37.875L38.7984 15.1729H39.6353V18.6001H39.063V15.9553H39.0533L38.101 18.6001H37.6056L36.6533 15.9553H36.6436V18.6001H36.0713V15.1729Z" fill="white" fill-opacity="0.64"/>
<path d="M40.3545 15.1729H41.8695C42.1132 15.1729 42.3121 15.2081 42.4659 15.2785C42.6199 15.3489 42.7385 15.4369 42.8219 15.5425C42.9052 15.6481 42.9614 15.7633 42.9902 15.8881C43.0223 16.0129 43.0383 16.1281 43.0383 16.2337C43.0383 16.3393 43.0223 16.4545 42.9902 16.5793C42.9614 16.7009 42.9052 16.8145 42.8219 16.9201C42.7385 17.0257 42.6199 17.1137 42.4659 17.1841C42.3121 17.2513 42.1132 17.2849 41.8695 17.2849H40.9557V18.6001H40.3545V15.1729ZM40.9557 16.7953H41.8359C41.9032 16.7953 41.9721 16.7857 42.0427 16.7665C42.1132 16.7473 42.1775 16.7169 42.2351 16.6753C42.296 16.6305 42.3441 16.5729 42.3794 16.5025C42.4179 16.4289 42.4371 16.3377 42.4371 16.2289C42.4371 16.1169 42.4211 16.0241 42.3891 15.9505C42.357 15.8769 42.3136 15.8193 42.2592 15.7777C42.2047 15.7329 42.1421 15.7025 42.0715 15.6865C42.0011 15.6705 41.9257 15.6625 41.8455 15.6625H40.9557V16.7953Z" fill="white" fill-opacity="0.64"/>
<path d="M43.5635 15.1729H44.1647V18.0817H45.9106V18.6001H43.5635V15.1729Z" fill="white" fill-opacity="0.64"/>
<path d="M46.3252 15.1729H46.9264V18.6001H46.3252V15.1729Z" fill="white" fill-opacity="0.64"/>
<path d="M48.5825 15.1729H49.2222L50.5449 18.6001H49.9004L49.5781 17.6929H48.2074L47.8851 18.6001H47.2646L48.5825 15.1729ZM48.3708 17.2369H49.4194L48.9047 15.7633H48.8903L48.3708 17.2369Z" fill="white" fill-opacity="0.64"/>
<path d="M50.8477 15.1729H51.4825L53.0505 17.6977H53.0601V15.1729H53.6325V18.6001H52.9976L51.4345 16.0801H51.4201V18.6001H50.8477V15.1729Z" fill="white" fill-opacity="0.64"/>
<path d="M54.0156 15.1729H56.7957V15.6913H55.7039V18.6001H55.1027V15.6913H54.0156V15.1729Z" fill="white" fill-opacity="0.64"/>
<path fill-rule="evenodd" clip-rule="evenodd" d="M28.5898 9.35799C28.5898 11.0525 29.8904 12.1154 31.488 12.1154C32.4995 12.1154 33.2782 11.7079 33.8562 11.0764V8.99039H31.2712V10.1333H32.4995V10.5809C32.2827 10.7567 31.9054 10.9006 31.488 10.9006C30.613 10.9006 29.9948 10.2292 29.9948 9.35799C29.9948 8.48679 30.613 7.81542 31.488 7.81542C31.9937 7.81542 32.4032 8.09519 32.6199 8.44687L33.776 7.83942C33.3826 7.17605 32.6601 6.60059 31.488 6.60059C29.8904 6.60059 28.5898 7.6636 28.5898 9.35799ZM34.667 12.0195V6.68851H36.915C38.6008 6.68851 39.813 7.69557 39.813 9.35007C39.813 11.0045 38.6008 12.0195 36.923 12.0195H34.667ZM36.0479 10.8206H36.915C37.8542 10.8206 38.4002 10.1413 38.4002 9.35007C38.4002 8.52679 37.9024 7.88742 36.923 7.88742H36.0479V10.8206ZM40.5035 12.0195V6.68851H43.1849C44.3891 6.68851 45.0474 7.49575 45.0474 8.46287C45.0474 9.42199 44.3891 10.2133 43.1849 10.2133H41.8844V12.0195H40.5035ZM43.6426 8.45487C43.6426 8.08719 43.3695 7.84739 43.0002 7.84739H41.8844V9.04639H43.0002C43.3695 9.04639 43.6426 8.81447 43.6426 8.45487ZM48.652 12.0195L47.7529 10.2133H47.0464V12.0195H45.6656V6.68851H48.347C49.5351 6.68851 50.2094 7.47178 50.2094 8.46287C50.2094 9.38999 49.6395 9.88551 49.1418 10.0614L50.2335 12.0195H48.652ZM48.8046 8.44687C48.8046 8.07927 48.4995 7.84739 48.1382 7.84739H47.0464V9.04639H48.1382C48.4995 9.04639 48.8046 8.81447 48.8046 8.44687Z" fill="white" fill-opacity="0.64"/>
</g>
<defs>
<clipPath id="clip0_170_8749">
<rect width="63.2" height="24" fill="white" transform="translate(0.333008)"/>
</clipPath>
</defs>
</svg>
