<svg width="61" height="24" viewBox="0 0 61 24" fill="none" xmlns="http://www.w3.org/2000/svg">
<g clip-path="url(#clip0_170_8825)">
<path d="M28.7259 11.7253V18.7602H26.4941V1.38691H32.4132C33.1198 1.37215 33.8222 1.49746 34.4801 1.7556C35.1379 2.01375 35.7381 2.39962 36.246 2.89094C36.7591 3.35243 37.1675 3.91841 37.4436 4.55083C37.7198 5.18324 37.8574 5.86744 37.8471 6.55745C37.8618 7.25115 37.7263 7.93982 37.45 8.57628C37.1736 9.21271 36.763 9.78185 36.246 10.2447C35.211 11.2317 33.9334 11.7247 32.4132 11.7238H28.7259V11.7253ZM28.7259 3.52582V9.59045H32.4687C32.879 9.60262 33.2873 9.529 33.6676 9.37437C34.0478 9.21965 34.3915 8.98737 34.6769 8.69217C34.9607 8.41626 35.1863 8.08621 35.3404 7.72156C35.4944 7.35692 35.5738 6.96508 35.5738 6.56923C35.5738 6.17338 35.4944 5.78154 35.3404 5.4169C35.1863 5.05226 34.9607 4.72221 34.6769 4.44626C34.3951 4.14491 34.0526 3.90688 33.6719 3.74796C33.2912 3.58904 32.8811 3.51285 32.4687 3.52444H28.7259V3.52582Z" fill="white" fill-opacity="0.64"/>
<path d="M42.9898 6.48532C44.6394 6.48532 45.9415 6.92613 46.8962 7.80776C47.8508 8.68937 48.3276 9.89811 48.3267 11.434V18.7601H46.1919V17.1105H46.0949C45.1708 18.469 43.9417 19.1483 42.4077 19.1483C41.0981 19.1483 40.0025 18.7601 39.1209 17.9839C38.6979 17.6276 38.3595 17.1814 38.1308 16.6778C37.902 16.1742 37.7885 15.6259 37.7985 15.0729C37.7985 13.8429 38.2634 12.8646 39.193 12.1383C40.1227 11.4119 41.3638 11.0478 42.9164 11.0459C44.2416 11.0459 45.333 11.2885 46.1906 11.7737V11.2635C46.1931 10.8866 46.1117 10.5137 45.9523 10.1721C45.7928 9.8304 45.5594 9.52843 45.2687 9.28826C44.6786 8.75571 43.9094 8.46522 43.1145 8.47452C41.8679 8.47452 40.8814 9.00034 40.155 10.0521L38.1894 8.81417C39.2706 7.26159 40.8708 6.48532 42.9898 6.48532ZM40.1024 15.1214C40.1008 15.4054 40.1673 15.6857 40.296 15.9388C40.4247 16.192 40.6122 16.4108 40.8426 16.5769C41.3362 16.9652 41.9488 17.1708 42.5768 17.1591C43.5185 17.1575 44.4213 16.7827 45.0872 16.1167C45.8265 15.4208 46.1961 14.6043 46.1961 13.6672C45.5002 13.1127 44.5299 12.8355 43.2851 12.8355C42.3785 12.8355 41.6226 13.0541 41.0173 13.4912C40.406 13.9347 40.1024 14.474 40.1024 15.1214Z" fill="white" fill-opacity="0.64"/>
<path d="M60.5803 6.87305L53.1281 23.9996H50.8242L53.5897 18.0071L48.6895 6.87305H51.1153L54.6571 15.4121H54.7056L58.1503 6.87305H60.5803Z" fill="white" fill-opacity="0.64"/>
<path fill-rule="evenodd" clip-rule="evenodd" d="M13.9512 5.44844C12.9212 4.46586 11.5458 3.92808 10.1225 3.95133C7.51954 3.95133 5.31013 5.70586 4.51976 8.07032V8.07141C4.10204 9.31064 4.10204 10.6526 4.51976 11.8918L4.51958 11.8919C5.30981 14.2567 7.51935 16.0115 10.1225 16.0115C11.4713 16.0115 12.6246 15.6649 13.5201 15.0577L13.5206 15.0581V15.0566C14.0404 14.7118 14.485 14.2653 14.8276 13.7441C15.1702 13.2228 15.4036 12.6375 15.514 12.0236H10.123V8.17969H19.5353C19.6506 8.84999 19.708 9.52893 19.7073 10.2091C19.7073 13.2463 18.6219 15.8149 16.738 17.5518H16.7361L16.7374 17.5529C15.0838 19.0777 12.8159 19.9621 10.1225 19.9621C8.27251 19.962 6.45894 19.4477 4.88426 18.4767C3.30958 17.5056 2.03579 16.116 1.20508 14.463V14.4627C0.506431 13.0723 0.142578 11.5377 0.142578 9.98162C0.142578 8.42531 0.506523 6.89058 1.20534 5.5H1.20543L1.20508 5.49973C2.03579 3.8467 3.30958 2.4571 4.88426 1.48606C6.45894 0.515013 8.27251 0.000739138 10.1225 0.000654823C12.6005 -0.0282878 14.9935 0.90318 16.7998 2.59978L13.9512 5.44844Z" fill="white" fill-opacity="0.64"/>
</g>
<defs>
<clipPath id="clip0_170_8825">
<rect width="60.8571" height="24" fill="white" transform="translate(0.142578)"/>
</clipPath>
</defs>
</svg>
