<svg width="63" height="20" viewBox="0 0 63 20" fill="none" xmlns="http://www.w3.org/2000/svg">
<g clip-path="url(#clip0_170_8817)">
<path d="M26.7283 19.7112H21.7666L24.8701 0.350677H29.8314L26.7283 19.7112Z" fill="white" fill-opacity="0.64"/>
<path d="M44.7157 0.824255C43.737 0.432522 42.1848 0 40.2655 0C35.3657 0 31.9152 2.63619 31.894 6.40515C31.8534 9.18591 34.3645 10.7304 36.2426 11.6575C38.1621 12.605 38.8147 13.2234 38.8147 14.0679C38.7951 15.3649 37.2636 15.9627 35.835 15.9627C33.8541 15.9627 32.7927 15.6545 31.1797 14.9329L30.5263 14.6236L29.832 18.9696C30.9957 19.5045 33.1397 19.9792 35.3657 20C40.5718 20 43.9611 17.4046 44.0013 13.3882C44.0211 11.1843 42.6951 9.49545 39.8365 8.11552C38.1011 7.22967 37.0383 6.63235 37.0383 5.72598C37.0587 4.902 37.9372 4.05804 39.8962 4.05804C41.5092 4.0167 42.6943 4.40788 43.5921 4.79935L44.0409 5.00493L44.7157 0.824255Z" fill="white" fill-opacity="0.64"/>
<path d="M51.3103 12.8525C51.719 11.7402 53.2912 7.43554 53.2912 7.43554C53.2706 7.47687 53.6991 6.30277 53.9441 5.58199L54.2908 7.25021C54.2908 7.25021 55.2304 11.8845 55.4344 12.8525C54.659 12.8525 52.2903 12.8525 51.3103 12.8525ZM57.4349 0.350677H53.5971C52.4135 0.350677 51.5143 0.700527 51.0038 1.95703L43.6338 19.7109H48.84C48.84 19.7109 49.6971 17.3214 49.8813 16.8067C50.4524 16.8067 55.517 16.8067 56.2517 16.8067C56.3942 17.4865 56.8437 19.7109 56.8437 19.7109H61.4377L57.4349 0.350677Z" fill="white" fill-opacity="0.64"/>
<path d="M17.623 0.350677L12.7639 13.5527L12.2329 10.8752C11.3345 7.78567 8.51713 4.42897 5.37305 2.75993L9.82382 19.6906H15.0706L22.8695 0.350677H17.623Z" fill="white" fill-opacity="0.64"/>
<path d="M8.25203 0.350677H0.269168L0.1875 0.741862C6.41463 2.34848 10.5388 6.22119 12.2331 10.876L10.4978 1.9781C10.212 0.741589 9.33405 0.391466 8.25203 0.350677Z" fill="white" fill-opacity="0.64"/>
</g>
<defs>
<clipPath id="clip0_170_8817">
<rect width="61.8182" height="20" fill="white" transform="translate(0.1875)"/>
</clipPath>
</defs>
</svg>
