<svg width="1680" height="1342" viewBox="0 0 1680 1342" fill="none" xmlns="http://www.w3.org/2000/svg">
<g clip-path="url(#clip0_412_26278)">
<path d="M591.11 1012.55L654.874 987.8L618.618 943.363L639.528 912.471L646.495 821.54L596.826 793.008L497.42 831.597L710.042 287.261L192.872 488.536C182.36 463.787 164.653 420.62 154.596 387.993C152.236 380.439 150.378 373.547 149.222 368.059C148.34 362.448 147.222 350.988 149.307 335.745L156.625 282L121.155 323.025C120.899 323.319 95.2962 352.959 72.1961 387.491C64.4044 398.325 57.4659 409.776 51.5795 421.511C43.4276 436.819 38.0625 450.355 35.6265 461.758C35.4938 462.27 35.2473 463.218 34.925 464.554C31.9865 475.104 29.8159 485.768 28.4699 496.214C26.7352 509.409 26.6215 519.779 26.8395 526.243C26.6594 535.542 27.048 544.405 28.0054 552.699L-220.968 649.602L65.7883 999.146L-156.653 1085.49L-110.548 1111.98L-124.292 1290.25L-33.3706 1254.95L-47.8638 1443.29L285.339 1313.95C285.737 1319.02 290.562 1346.44 290.562 1346.44C290.562 1346.44 305.709 1337.62 314.06 1332.22C322.686 1326.63 337.113 1317.3 348.762 1313.84C357.758 1311.14 367.379 1309.35 374.773 1308.09C401.133 1303.57 428.338 1300.93 457.4 1300.07L433.466 1322.84L509.079 1306.34C525.061 1302.86 544.834 1289.09 552.644 1283.3C553.829 1282.4 555.014 1281.49 556.189 1280.54L556 1286.57L593.859 1251.91C604.485 1242.18 611.888 1219.71 615.347 1207.21C618.362 1196.39 619.717 1182.83 619.262 1167.98C618.494 1142.8 609.518 1118.61 593.991 1099.85C589.167 1094.02 584.171 1090.45 580.162 1087.58C579.631 1087.2 579.11 1086.82 578.588 1086.45L578.095 1086.09L570.465 1081.7L570.977 1081.5L591.129 1012.52L591.11 1012.55Z" fill="#9A4DFF"/>
<path d="M-202.228 654.512L690.013 307.261L310.325 1279.3L-202.228 654.512Z" fill="#100024"/>
<path d="M306.799 1257.07L-183.488 659.422L669.993 327.262L306.799 1257.07Z" fill="white"/>
<path d="M-164.739 664.332L649.964 347.262L303.273 1234.84L-164.739 664.332Z" fill="url(#paint0_radial_412_26278)"/>
<path d="M237.433 1303.4C190.332 1303.4 165.905 1276.07 153.705 1253.14C148.719 1243.77 144.776 1233.4 141.98 1222.29L133.345 1222.01L131.629 1210.43L114.396 1205.83L122.852 1176.94L121.013 1176.79L121.411 1172.07C130.605 1062.04 108.832 1011.34 95.0309 990.909C83.078 973.212 74.4617 954.462 69.4094 935.163C61.6083 905.343 52.973 853.076 55.8356 772.79C20.2612 748.59 8.32728 714.532 7.8249 713.063L7.0666 710.835V710.181C5.21821 702.627 4.20396 694.541 4.04282 686.048L-5.55933 693.726L-1.7488 659.583C1.43612 631.023 14.7919 603.382 25.4272 585.221C25.9391 584.339 26.451 583.486 26.9533 582.652C27.4557 581.818 27.9392 581.022 28.4131 580.244C33.4085 572.121 37.0389 567.211 37.1906 567.012L40.8874 562.026C38.8304 551.343 37.9299 539.286 38.2048 526.148C37.9868 520.11 38.0816 510.309 39.7404 497.693C41.0295 487.683 43.1149 477.493 45.9301 467.407C46.3188 465.777 46.5937 464.725 46.6884 464.374C48.8876 453.928 53.9303 441.265 61.6746 426.724C67.3335 415.416 74.0162 404.401 81.5235 393.965C104.093 360.21 129.477 330.759 129.733 330.466L140.169 318.399L138.018 334.21C135.714 351.111 137.023 363.926 138.018 370.116C139.241 376.002 141.212 383.358 143.724 391.387C154.359 425.871 173.346 471.787 183.716 496.1L185.905 501.219H186.085C198.996 501.219 212.437 503.598 223.887 505.92C231.575 507.475 239.215 509.532 246.627 512.044L298.894 477.588L303.122 474.744L354.317 441.018C355.104 440.43 355.711 440.042 356.08 439.814L392.176 423.89L383.816 440.791C383.996 444.686 384.555 458.308 384.46 476.602C384.536 482.981 384.422 489.55 384.119 496.043C382.953 535.295 378.223 588.614 362.488 621.591C370.128 637.914 379.076 664.683 381.351 678.275C383.579 691.1 391.152 716.817 391.474 717.907L400.849 749.557L377.711 737.822C377.161 741.869 376.412 746.04 375.484 750.268C374.28 755.756 372.763 761.396 370.848 767.51C370.393 768.96 369.929 770.382 369.455 771.775C368.232 775.387 366.82 779.207 365.152 783.444C364.678 784.638 364.213 785.795 363.758 786.923C363.294 788.07 362.829 789.179 362.374 790.259C361.654 791.975 360.905 793.691 360.166 795.349L358.782 798.402C358.45 799.122 358.137 799.805 357.824 800.468C357.635 800.876 357.398 801.369 357.18 801.842C356.564 803.132 355.948 804.364 355.35 805.501C355.066 806.07 354.772 806.658 354.507 807.17C353.625 808.885 353.123 809.805 353.123 809.805L347.568 819.938C350.061 821.198 352.583 822.412 355.104 823.587C404.944 846.754 438.452 877.086 457.78 898.452C478.899 921.779 488.188 939.704 488.567 940.453L490.539 944.301L482.823 949.202C486.975 954.756 490.918 960.463 494.577 966.245C510.103 990.767 528.123 1028.87 525.734 1071.12L524.369 1095.29L515.155 1096.56L508.293 1076.54C508.312 1082.96 508.169 1090.25 507.743 1098.3C506.15 1128.87 500.141 1176.78 480.519 1231.39L475.069 1246.57L464.462 1234.42C464.462 1234.42 463.893 1233.79 462.813 1232.65L362.592 1229.41C361.161 1231.02 359.673 1232.57 358.147 1234.08C364.82 1232.91 371.635 1232.31 378.479 1232.31C390.688 1232.31 402.65 1234.18 414.053 1237.85C438.831 1238.19 460.026 1244.44 477.06 1256.41L480.936 1259.14L470.036 1274.65L466.159 1271.92C451.874 1261.88 433.599 1256.79 411.845 1256.79C400.574 1256.79 388.204 1258.17 375.076 1260.87C341.985 1267.69 311.501 1281.52 296.278 1289.15C286.609 1294.01 276.524 1297.67 266.286 1300.04C262.675 1301.03 259.301 1301.76 255.964 1302.27C251.746 1302.93 247.386 1303.26 243.006 1303.26H242.608C240.731 1303.33 239.035 1303.37 237.442 1303.37L237.433 1303.4Z" fill="#100024"/>
<path d="M471.609 1228.2L137.449 1217.41L130.852 1172.86C140.387 1058.76 116.652 1005.99 102.879 985.601C91.9501 969.42 83.5234 951.657 78.5754 932.765C56.2999 847.645 67.5609 735.632 67.5609 735.632L279.111 779.027C292.571 796.127 314.695 815.274 351.094 832.194C444.784 875.75 480.121 944.785 480.121 944.785C480.121 944.785 468.49 929.76 453.609 929.76C453.609 929.76 520.615 993.667 516.274 1070.6C516.274 1070.6 508.833 1048.88 497.041 1045.16C497.041 1045.16 508.833 1124.57 471.6 1228.19" fill="#9A4DFF"/>
<path d="M215.498 1180.4C215.498 1180.4 232.058 1180.5 273.083 1147.61C284.562 1138.41 272.59 1178.95 261.68 1188.81C254.22 1195.55 243.67 1197.39 233.736 1198.95C222.465 1200.73 211.205 1202.49 199.934 1204.26C190.123 1205.81 179.308 1207.16 170.91 1201.86C191.062 1157.26 202.674 1108.07 198.721 1059.29C198.162 1052.36 197.289 1045.47 196.417 1038.58C195.659 1032.57 194.901 1026.57 194.142 1020.56C191.678 1001.04 188.635 973.601 183.251 954.671C183.251 954.671 230.835 1020.22 213.394 1122.88L202.73 1170.99C201.1 1178.34 208.958 1184.13 215.489 1180.4H215.498Z" fill="#461691"/>
<path d="M427.779 1177.24C390.091 1153.38 343.521 1143.93 299.51 1151.22C309.141 1137.63 312.648 1119.87 308.904 1103.64C308.382 1106.9 305.738 1109.43 302.856 1111.04C299.975 1112.65 296.761 1113.59 293.861 1115.16C283.149 1120.98 278.931 1134.15 277.434 1146.25C275.936 1158.34 276.059 1171.12 270.268 1181.84C299.756 1173.34 330.269 1164.82 360.725 1168.68C382.033 1171.38 401.977 1180.06 420.707 1190.23C425.229 1192.69 441.978 1206.14 444.509 1198.48C447.296 1190.04 433.381 1180.77 427.788 1177.24H427.779Z" fill="#461691"/>
<path d="M127.041 1173.33L115.704 1172.38C124.994 1061.19 102.766 1009.63 88.6894 988.786C76.983 971.449 68.5373 953.088 63.5987 934.206C41.3233 849.076 51.9681 739.68 52.4326 735.063L63.7504 736.201C63.6367 737.31 52.8591 848.204 74.6038 931.324C79.22 948.955 87.1254 966.15 98.121 982.416C113.031 1004.49 136.624 1058.65 127.041 1173.32V1173.33Z" fill="#100024"/>
<path d="M407.257 1066.41C418.556 1068.71 429.921 1073.08 437.39 1081.87C410.574 1074.23 381.796 1073.6 354.677 1080.09C327.558 1086.56 302.164 1100.13 281.708 1119.06C283.509 1094.75 290.05 1071.07 298.78 1048.39C301.794 1040.55 336.013 961.941 334.43 970.984C331.217 989.354 324.297 1018.75 322.847 1024.37C318.999 1039.32 316.98 1055.14 320.582 1070.14C320.582 1070.14 348.298 1054.4 407.247 1066.41H407.257Z" fill="#461691"/>
<path d="M237.432 1298.66C192.882 1298.66 169.63 1272.99 157.885 1250.92C144.823 1226.37 143.079 1201.63 143.013 1200.58L142.53 1193.13L149.478 1195.86C162.776 1201.08 187.952 1199.68 222.295 1191.8C247.433 1186.02 269.054 1178.65 271.32 1177.87C331.596 1150.62 383.834 1164.9 417.058 1181.69C442.812 1194.72 461.097 1210.89 469.685 1219.34C502.975 1121.69 492.472 1046.63 492.358 1045.86L491.249 1038.37L498.472 1040.64C503.487 1042.23 507.705 1046.14 511.079 1050.58C504.501 985.677 450.935 933.76 450.338 933.192L441.788 925.021H453.608C456.718 925.021 459.675 925.561 462.452 926.443C458.32 920.926 453.191 914.566 446.983 907.722C428.556 887.418 396.621 858.583 349.103 836.488C321.766 823.777 285.064 801.454 265.424 767.263C253.404 746.343 253.49 730.864 253.499 730.22L262.978 730.352L258.239 730.286L262.978 730.333C262.978 730.476 263.035 744.381 274.021 763.187C292.533 794.885 327.245 815.871 353.104 827.891C402.223 850.725 435.229 880.603 454.272 901.636C475.002 924.538 483.988 941.893 484.358 942.623L476.386 947.685C476.348 947.638 474.765 945.638 472.13 943.22C477.666 949.998 484.15 958.643 490.586 968.795C505.743 992.729 523.335 1029.87 521.013 1070.86L519.648 1095.03L511.8 1072.13C510.634 1068.76 507.25 1060.95 502.823 1055.41C503.477 1064.57 504.008 1079.17 503.022 1098.07C501.449 1128.32 495.496 1175.73 476.074 1229.8L473.344 1237.39L468.035 1231.31C467.827 1231.08 446.784 1207.27 412.48 1190.01C392.479 1179.95 371.938 1174.04 351.416 1172.45C325.823 1170.47 300.116 1175.23 275.026 1186.61L274.628 1186.77C274.4 1186.85 251.423 1194.84 224.494 1201.03C193.033 1208.26 169.165 1210.2 153.326 1206.85C154.71 1215.59 158.17 1231.38 166.388 1246.73C182.36 1276.55 208.143 1290.79 242.959 1289.05C259.063 1288.24 274.855 1284.02 289.889 1276.47C305.737 1268.53 337.511 1254.12 372.194 1246.97C414.849 1238.18 449.21 1242.66 474.329 1260.32L468.879 1268.07C445.987 1251.99 414.1 1248.01 374.109 1256.26C340.487 1263.2 309.576 1277.22 294.145 1284.95C277.917 1293.09 260.855 1297.66 243.433 1298.53C241.395 1298.63 239.385 1298.68 237.432 1298.68V1298.66Z" fill="#100024"/>
<path d="M261.244 1195.93L253.869 1187.27C266.116 1176.85 271.367 1140.87 272.363 1127.89L272.429 1127.36C288.553 1033.7 331.065 962.899 331.492 962.197L341.217 968.103C340.8 968.785 299.463 1037.72 283.68 1129.03C283.178 1135.44 278.998 1180.81 261.244 1195.94V1195.93Z" fill="#100024"/>
<path d="M80.4996 887.968C83.2864 905.494 87.296 922.585 92.9928 932.405C92.9928 932.405 92.1492 915.514 96.7939 903.267C101.439 891.02 95.1066 969.562 132.264 1010.52C132.264 1010.52 125.088 991.516 133.108 965.761C133.108 965.761 139.629 1029.68 199.82 1119.74L199.375 1044.05L180.957 958.709C180.957 958.709 202.124 929.77 206.835 897.361C206.835 897.361 212.057 913.04 204.218 934.481C204.218 934.481 240.532 886.385 246.532 806.847L231.527 776.837L161.8 805.416L82.2058 759.585L78.4711 793.482C75.0018 824.933 75.5421 856.725 80.5091 887.977L80.4996 887.968Z" fill="#EDEDEE"/>
<path d="M78.4615 793.473L82.1962 759.576L161.791 805.407L231.518 776.828L246.523 806.838C244.997 827.019 241.527 845.171 237.186 861.029C237.357 861.076 237.527 861.114 237.698 861.162C238.589 861.399 239.518 861.636 240.523 861.778C245.546 862.46 250.295 862.811 254.618 862.811C258.153 862.811 260.504 862.584 261.774 862.46C262.04 862.432 262.248 862.413 262.381 862.404L273.083 862.877L263.935 857.152C261.31 855.503 258.694 853.522 256.912 851.901C257.85 852.195 258.769 852.413 259.679 852.555C259.679 852.555 260.751 852.716 260.76 852.716L261.442 852.83L261.727 852.868H261.774L263.357 853.076L264.969 853.266L265.007 853.285L266.874 853.474C267.007 853.484 268.021 853.588 268.334 853.617C268.808 853.654 269.291 853.702 269.765 853.73C270.211 853.768 270.665 853.797 271.12 853.825C271.12 853.825 272.258 853.891 272.666 853.92C273.064 853.939 273.462 853.958 273.86 853.977C274.419 854.005 274.988 854.024 275.557 854.043L276.533 854.062C277.159 854.072 277.784 854.091 278.419 854.091H279.168C284.22 854.091 289.339 853.778 294.401 853.152H294.486C295.121 853.067 295.756 852.982 296.401 852.887H298.23L299.007 852.527H299.102L300.116 852.308C300.846 852.185 301.567 852.053 302.287 851.92C303.131 851.759 303.974 851.598 304.828 851.417C305.823 851.209 306.932 850.896 308.23 850.479C313.558 848.735 318.562 846.166 323.112 842.849C325.264 841.285 327.293 839.559 329.179 837.711L331.406 867.892L351.009 832.147C314.667 815.236 292.552 796.099 279.111 779.018L67.5608 735.623C67.5608 735.623 64.9256 761.88 64.7266 798.629L77.2482 806.649C77.5705 802.25 77.9686 797.843 78.452 793.454L78.4615 793.473Z" fill="#461691"/>
<path d="M231.518 776.837L161.791 805.416L82.1963 759.585L78.4617 793.482C77.9782 797.871 77.5801 802.269 77.2578 806.677L95.3625 818.269L90.1112 800.364C97.647 805.255 103.96 808.734 108.946 810.715L109.012 810.762C109.249 810.923 109.524 811.094 109.761 811.236L109.951 811.35C109.951 811.35 110.349 811.587 110.595 811.738C112.823 813.227 120.851 818.44 135.278 826.137C136.198 826.63 137.136 827.123 138.103 827.635C151.573 834.715 176.123 844.981 194.048 852.479C196.597 853.55 199.024 854.564 201.289 855.512L210.038 859.19L203.195 848.972C203.261 849 204.673 849.654 204.673 849.654C205.621 850.09 206.569 850.526 207.517 850.943C207.83 851.085 208.143 851.218 208.446 851.341L209.128 851.635C209.982 852.005 210.844 852.375 211.716 852.735C212.029 852.858 213.527 853.455 213.527 853.455C214.323 853.777 215.119 854.09 215.915 854.394C216.266 854.526 216.626 854.659 216.968 854.782L217.906 855.133C218.655 855.408 219.394 855.683 220.134 855.948C220.541 856.09 220.939 856.232 221.337 856.365L222.456 856.744C223.091 856.962 223.717 857.18 224.342 857.389C224.807 857.541 225.262 857.683 225.717 857.825L226.911 858.195C227.461 858.365 228.001 858.545 228.541 858.706C229.082 858.868 229.622 859.019 230.2 859.18L231.328 859.503C231.793 859.635 232.248 859.768 232.703 859.891C233.413 860.09 234.124 860.27 234.826 860.441L235.802 860.697C236.143 860.782 236.475 860.877 236.826 860.962C236.959 860.991 237.091 861.029 237.224 861.067C241.565 845.209 245.035 827.056 246.561 806.876L231.556 776.866L231.518 776.837Z" fill="#DCC5FF"/>
<path d="M355.293 989.933C369.227 1007.28 377.787 1028.87 379.531 1051.05C388.488 1035.23 396.375 1018.47 399.332 1000.54C402.29 982.606 399.892 963.221 389.645 948.197C406.659 957.809 420.868 972.312 430.139 989.506C425.191 952.548 402.953 918.272 371.218 898.698C383.114 901.248 394.574 905.808 404.963 912.13C396.214 907.002 390.375 898.196 382.962 891.276C374.469 883.352 369.104 878.812 358.715 873.608C348.336 868.404 336.743 862.328 325.567 859.152C340.174 865.418 353.284 875.124 363.549 887.257C359.189 887.485 350.715 883.551 340.535 887.485C368.507 896.973 384.052 914.813 398.195 940.737C386.507 927.059 368.412 919.106 350.421 919.732C360.336 922.32 374.573 941.391 377.844 951.107C384.488 970.823 389.332 994.151 385.171 1014.53C379.853 1005.27 364.431 995.45 355.284 989.933" fill="#461691"/>
<path d="M291.936 1002.14C289.102 1018.46 283.292 1034.27 274.884 1048.54C276.429 1036.34 274.23 1023.7 268.647 1012.74C267.633 1026.14 263.225 1039.28 255.945 1050.59C256.466 1028.7 250.732 1006.71 239.603 987.866C241.622 1003.07 240.068 1018.74 235.091 1033.25C234.883 1024.81 231.224 999.762 228.911 991.629L231.29 1055.96C235.944 1044.7 240.656 1031.41 243.366 1019.53C249.262 1042.69 250.419 1067.04 246.741 1090.67C258.561 1075.92 265.775 1057.53 267.102 1038.67C271.083 1050.18 271.557 1062.88 268.457 1074.66C275.405 1063.64 282.401 1052.54 287.178 1040.42C291.946 1028.29 294.41 1014.95 291.955 1002.16L291.936 1002.14Z" fill="#461691"/>
<path d="M435.286 1113.03C443.115 1121.8 447.172 1133.83 446.253 1145.56C454.936 1129.68 463.912 1111.88 459.656 1094.3C466.87 1100.17 471.22 1109.41 471.135 1118.72C474.358 1102.68 475.42 1086.18 474.282 1069.85C480.045 1095.83 477.448 1123.6 466.955 1148.06C467.865 1137.75 467.163 1127.29 464.879 1117.2C458.936 1136.61 447.163 1154.19 431.475 1167.07C438.727 1155.79 440.186 1140.99 435.267 1128.51C438.461 1136.62 423.049 1151.24 416.442 1152.68C415.977 1148.14 425.921 1140.12 428.347 1135.86C432.319 1128.89 434.765 1121.05 435.286 1113.04V1113.03Z" fill="#461691"/>
<path d="M281.955 1136.12L273.633 1131.58C291.093 1099.57 325.246 1080.04 372.394 1075.1C407.485 1071.42 437.04 1076.98 438.282 1077.21L436.5 1086.52C436.206 1086.47 406.887 1080.98 373.161 1084.55C328.743 1089.25 298.06 1106.61 281.965 1136.12H281.955Z" fill="#100024"/>
<path d="M302.003 1177.08C286.457 1199.59 260.172 1214.3 232.873 1215.78C249.774 1213.91 266.836 1217.05 283.841 1216.52C300.837 1215.99 319.207 1210.73 328.771 1196.67C317.842 1215.72 299.188 1230.19 278.012 1236.02C301.5 1236.04 324.989 1232.55 347.454 1225.68C356.914 1222.79 367.161 1218.42 371 1209.31C361.985 1225.91 347.672 1239.58 330.686 1247.84C359.474 1233.92 394.422 1233.46 423.57 1246.6C383.92 1244.51 345.103 1258.47 309.548 1276.13C292.031 1284.83 274.561 1294.62 255.234 1297.63C228.996 1301.7 201.384 1292.21 181.915 1274.14C162.454 1256.07 151.051 1230.07 149.07 1203.59C157.222 1208.89 167.658 1209.59 177.222 1207.83C186.787 1206.08 195.773 1202.11 204.844 1198.61C232.674 1187.88 262.154 1181.44 291.917 1179.57" fill="#F8FFFF"/>
<path d="M106.898 983.449C106.898 983.449 153.648 1041.42 150.378 1130.06C150.378 1130.06 143.686 1153.57 158.369 1156.29C173.052 1159.01 183.924 1157.92 183.924 1157.92L172.502 1193.26L161.08 1213.39L120.302 1202.52L133.354 1157.93C133.354 1157.93 119.401 1019.35 106.889 983.459L106.898 983.449Z" fill="#461691"/>
<path d="M178.805 940.092C194.815 978.577 204.512 1019.64 208.048 1061.2C209.782 1082.22 211.707 1103.8 206.891 1124.67C203.451 1140.31 197.934 1155.79 189.583 1169.49C186.891 1174.05 183.602 1178.56 180.189 1182.6L178.104 1181.7C179.27 1168.33 181.147 1156.29 182.322 1143.46C183.99 1128.77 184.796 1113.79 186.616 1099.12C188 1086.72 189.82 1074.37 189.867 1061.8C190.019 1051.75 189.829 1041.67 189.261 1031.57C187.99 1006.19 184.834 980.823 179.924 955.846C178.948 950.823 177.867 945.789 176.673 940.832L178.824 940.083L178.805 940.092Z" fill="#100024"/>
<path d="M128.833 951.174C139.023 979.658 149.573 1007.86 161.156 1035.74C166.872 1049.35 174.891 1062.03 179.697 1075.92C182.218 1082.71 184.616 1089.5 187.156 1096.2C189.848 1103.1 192.237 1109.62 196.597 1115.88L195.507 1117.88C186.929 1116.77 179.687 1110.94 173.772 1105.12C165.194 1096.26 158.672 1086.28 153.857 1075.21C149.279 1064.47 147.118 1052.8 143.942 1041.7C135.809 1012.19 130.179 982.056 126.596 951.676L128.814 951.174H128.833Z" fill="#100024"/>
<path d="M375.028 610.226C390.934 577.628 395.692 524.025 396.868 484.592C397.171 478.137 397.285 471.616 397.209 465.236C397.304 446.193 398.138 450.146 397.986 446.98L386.858 443.454L372.64 430.856C372.298 431.065 370.981 431.131 370.232 431.691L318.828 464.952L314.591 467.805C314.591 467.805 382.697 626.321 375.038 610.216L375.028 610.226Z" fill="#9A4DFF"/>
<path d="M62.0726 531.153C68.0158 488.091 94.9739 439.691 99.9692 430.99L101.467 429.492L109.401 364.609L88.0922 393.046C58.063 433.132 47.7784 472.432 44.4418 498.318C41.873 517.864 43.2 530.376 43.2569 530.897L62.0726 531.153V531.153Z" fill="#100024"/>
<path d="M393.427 718.457C393.105 717.366 385.503 691.527 383.256 678.607C380.962 664.92 371.825 637.696 364.166 621.601C380.071 589.003 384.83 535.4 386.005 495.967C386.308 489.512 386.422 482.991 386.346 476.611C386.441 457.568 385.834 443.615 385.683 440.459L389.19 424.297L358.213 436.374C357.872 436.582 341.606 442.753 340.866 443.312L307.975 476.327L303.738 479.18L331.444 845.436L336.772 838.27L355.246 808.904C355.246 808.904 355.739 808.004 356.601 806.317C356.857 805.814 357.151 805.236 357.455 804.639C358.042 803.52 358.649 802.307 359.256 801.046C359.474 800.582 359.701 800.098 359.9 799.681C360.213 799.018 360.526 798.345 360.848 797.634L362.232 794.582C362.943 792.989 363.673 791.302 364.422 789.529C364.877 788.458 365.332 787.359 365.796 786.221C366.251 785.093 366.715 783.946 367.18 782.761C368.839 778.553 370.242 774.761 371.455 771.178C371.919 769.794 372.384 768.382 372.829 766.951C374.725 760.894 376.223 755.301 377.417 749.87C378.545 744.76 379.389 739.746 379.958 734.921L401.569 745.879L393.446 718.447L393.427 718.457Z" fill="#100024"/>
<path d="M329.198 815.265C327.311 817.123 325.283 818.838 323.131 820.402C318.581 823.72 313.577 826.289 308.249 828.033C306.951 828.459 305.842 828.763 304.846 828.971C303.993 829.151 303.15 829.313 302.306 829.474C301.586 829.606 300.856 829.739 300.135 829.862L299.121 830.08H299.026L298.249 830.441H296.42C295.766 830.535 295.131 830.611 294.505 830.696H294.42C289.358 831.332 284.239 831.644 279.187 831.644H278.438C277.803 831.644 277.178 831.625 276.552 831.616L275.576 831.597C274.997 831.578 274.438 831.559 273.879 831.531C273.481 831.512 273.083 831.493 272.684 831.474C272.286 831.455 271.139 831.379 271.139 831.379C270.684 831.351 270.229 831.322 269.784 831.284C269.31 831.246 268.827 831.208 268.353 831.17C268.04 831.142 267.026 831.047 266.893 831.028L265.026 830.839L264.988 830.82L263.376 830.63L261.793 830.422H261.746L261.461 830.384L260.779 830.27L259.698 830.109C258.788 829.967 257.869 829.749 256.931 829.455C258.713 831.076 261.329 833.057 263.954 834.706L273.102 840.431L262.4 839.957C262.267 839.957 262.059 839.986 261.793 840.014C260.533 840.138 258.172 840.365 254.637 840.365C250.314 840.365 245.575 840.014 240.542 839.332C239.537 839.19 238.608 838.953 237.717 838.716C237.413 838.64 237.11 838.555 236.807 838.479C236.466 838.393 236.124 838.308 235.783 838.213L234.807 837.957C234.105 837.777 233.404 837.597 232.683 837.408C232.228 837.284 231.774 837.152 231.309 837.019L230.181 836.697C229.612 836.536 229.072 836.384 228.522 836.223C227.982 836.062 227.442 835.891 226.892 835.711L225.698 835.341C225.243 835.199 224.788 835.057 224.323 834.905C223.697 834.697 223.062 834.479 222.437 834.261L221.318 833.881C220.93 833.749 220.522 833.616 220.114 833.464C219.375 833.199 218.626 832.924 217.887 832.649L216.948 832.298C216.607 832.175 216.247 832.043 215.896 831.91C215.1 831.606 214.304 831.284 213.508 830.971C213.508 830.971 212.01 830.374 211.697 830.251C210.825 829.891 209.972 829.521 209.109 829.151L208.427 828.858C208.124 828.734 207.811 828.602 207.498 828.459C206.55 828.042 205.602 827.606 204.654 827.17C204.654 827.17 203.242 826.526 203.176 826.488L210.019 836.706L201.27 833.028C199.014 832.08 196.578 831.066 194.028 829.995C176.104 822.497 151.553 812.232 138.084 805.151C137.117 804.639 136.179 804.146 135.259 803.653C120.832 795.956 112.804 790.743 110.576 789.255C110.33 789.103 109.932 788.866 109.932 788.866L109.742 788.752C109.505 788.601 109.23 788.43 108.993 788.278L108.927 788.231C103.941 786.25 97.6279 782.781 90.0922 777.88L95.3435 795.786L64.6318 776.117C23.5597 752.277 10.166 714.077 9.6162 712.456L8.96216 710.523V709.954C6.82941 701.328 5.81515 691.982 5.9289 682.114L-3.16138 689.385L0.137281 659.792C3.28428 631.563 16.5169 604.179 27.0669 586.178C27.5788 585.306 28.0811 584.453 28.5835 583.629C29.0764 582.804 29.5598 582.008 30.0338 581.24C34.9912 573.183 38.5743 568.339 38.7259 568.14L42.9251 562.481C34.2803 519.238 47.693 467.967 48.5461 464.801C58.8118 415.823 128.235 335.11 131.183 331.698L137.449 324.456L136.16 333.944C133.818 351.13 135.155 364.173 136.169 370.457C137.401 376.41 139.401 383.841 141.932 391.946C152.587 426.506 171.601 472.498 181.99 496.83L184.673 503.115C185.147 503.115 185.621 503.105 186.104 503.105C198.853 503.105 212.171 505.465 223.527 507.769C231.442 509.361 239.3 511.503 246.911 514.129L299.955 479.161L304.192 476.308L355.426 442.563C356.175 442.004 356.734 441.634 357.075 441.426L383.313 426.553L381.91 440.44C382.062 443.597 382.668 457.55 382.574 476.593C382.649 482.972 382.536 489.503 382.232 495.949C381.057 535.381 376.299 588.984 360.393 621.582C368.052 637.677 377.199 664.901 379.483 678.588C381.73 691.508 389.332 717.338 389.654 718.438L397.778 745.87L376.166 734.912C375.597 739.737 374.744 744.751 373.625 749.86C372.431 755.292 370.924 760.884 369.038 766.941C368.592 768.373 368.128 769.785 367.663 771.169C366.45 774.752 365.047 778.544 363.388 782.752C362.924 783.937 362.459 785.093 362.004 786.212C361.54 787.349 361.085 788.449 360.63 789.52C359.881 791.293 359.151 792.98 358.44 794.572L357.056 797.625C356.734 798.335 356.421 799.008 356.108 799.672C355.919 800.089 355.691 800.572 355.464 801.037C354.857 802.307 354.251 803.52 353.663 804.629C353.36 805.227 353.066 805.805 352.81 806.307C351.947 807.994 351.454 808.895 351.454 808.895L331.425 845.427L329.198 815.246V815.265Z" fill="#100024"/>
<path d="M52.6789 529.854C59.4468 480.791 91.4192 426.847 92.386 425.16L92.4524 425.093L95.6752 398.732C66.992 437.018 57.0581 474.545 53.8353 499.55C51.3898 518.186 52.6789 529.854 52.6789 529.854V529.854Z" fill="#F276FF"/>
<path d="M265.613 516.584C276.893 522.831 297.263 535.533 318.6 555.324L321.245 549.201L327.302 535.21L363.474 451.985C363.474 451.985 363.151 452.184 362.573 452.63L310.998 486.602V486.669L265.613 516.584V516.584Z" fill="#70818C"/>
<path d="M366.365 532.566V532.367C368.943 514.252 370.621 494.593 370.232 474.602L364.696 484.925V484.991L361.985 490.081C362.687 505.617 363.464 534.945 360.952 562.604C362.952 553.315 364.82 543.201 366.365 532.566Z" fill="#F276FF"/>
<path d="M22.0621 653.441C22.0621 653.441 14.0714 680.967 21.228 708.172C21.228 708.295 21.2943 708.371 21.2943 708.494C21.2943 708.494 33.3515 743.888 71.1913 765.671L75.5137 768.638L74.4142 751.424C74.4142 751.424 99.9409 771.605 113.932 776.951C113.932 776.951 122.956 780.695 133.013 782.619C134.368 780.107 135.98 777.529 137.98 775.14C142.88 769.207 150.027 764.638 160.028 766.183C160.028 766.183 161.44 757.092 171.952 758.704C182.455 760.315 224.617 769.15 224.617 769.15C224.617 769.15 231.385 771.339 228.162 781.396C228.162 781.396 237.764 795.188 257.746 785.52C257.945 782.941 258.457 778.941 260.324 777.074C261.736 775.662 263.68 775.396 265.737 775.595L303.775 785.975C305.188 786.42 306.61 786.942 307.776 787.652C308.998 788.297 309.965 789.131 310.61 790.164C312.543 793.321 311.321 796.999 309.197 799.776C313.956 804.904 322.24 804.25 326.108 798.411C327.928 795.662 329.738 792.648 331.501 789.33L334.98 780.174C334.98 780.174 340.07 795.52 340.648 802.999C340.648 802.999 341.426 801.586 342.715 798.999C343.359 797.776 344.127 796.231 344.971 794.42C345.549 793.198 346.127 791.909 346.781 790.487C348.393 786.942 350.127 782.818 351.938 778.24C353.748 773.662 355.616 768.638 357.293 763.282C358.905 758.126 360.393 752.78 361.616 747.225C363.938 736.656 365.227 725.632 364.516 715.186L377.863 721.954C377.863 721.954 369.806 694.75 367.35 680.636C365.294 668.332 355.947 640.161 348.336 624.937C348.269 624.871 348.269 624.814 348.269 624.814C347.246 622.615 346.146 620.681 345.179 619.136C345.179 619.136 345.113 619.013 344.98 618.748C344.279 617.392 341.824 612.624 337.435 605.79C317.453 608.691 303.728 626.283 303.728 626.283C307.785 623.895 311.652 622.738 315.198 622.482H315.264C338.724 620.805 350.848 658.066 350.848 658.066C346.393 659.678 337.179 672.379 337.179 672.379C331.188 680.114 325.444 685.271 320.032 688.56C318.999 689.204 317.908 689.783 316.875 690.295L314.809 691.261C314.231 691.517 313.709 691.716 313.198 691.906L307.975 693.328C307.595 693.394 307.14 693.517 306.752 693.517C295.216 695.717 284.382 690.626 279.291 687.783C279.225 687.915 279.159 688.105 279.035 688.238C278.704 689.015 278.325 689.716 277.87 690.361C276.903 691.972 275.746 693.394 274.457 694.617C273.945 695.129 273.424 695.584 272.912 695.972C272.135 696.617 271.301 697.195 270.467 697.707C269.888 698.096 269.244 698.484 268.656 698.807C261.499 702.551 254.153 702.551 254.153 702.551C254.153 702.551 249.831 712.475 247.708 718.343C245.584 724.276 244.997 736.646 255.253 735.556C265.443 734.523 266.789 718.343 266.789 718.343C272.144 730.722 263.822 737.746 263.822 737.746C244.485 750.315 239.385 730.466 239.385 730.466C233.451 734.789 219.783 734.789 219.783 734.789C189.934 732.665 195.09 707.65 195.09 707.65C199.469 730.21 221.394 729.954 229.451 726.987C237.508 724.021 244.21 708.485 243.698 700.683C243.442 696.882 238.93 691.726 236.153 686.693C234.418 683.669 233.252 680.626 233.963 677.991C234.03 677.735 234.086 677.479 234.219 677.28L234.286 677.214C234.674 676.18 235.385 675.214 236.475 674.313C237.309 673.602 238.343 672.958 239.632 672.379C239.698 672.379 239.755 672.313 239.831 672.313C254.779 665.678 272.381 676.503 272.381 676.503L292.941 623.317C296.041 617.26 299.32 612.293 302.486 608.236C302.531 608.191 302.572 608.147 302.61 608.103C306.866 602.757 311.055 598.889 315.122 596.178C319.311 593.335 323.311 591.666 326.98 590.823C311.378 570.386 285.529 543.637 248.466 527.902C247.243 527.39 245.954 526.869 244.731 526.414C236.996 523.646 229.072 521.456 221.072 519.845C208.37 517.266 193.735 514.755 180.843 515.589C173.298 516.101 165.819 519.134 158.795 521.579C153.317 523.447 147.771 525.39 142.425 527.646C142.359 527.646 142.302 527.646 142.302 527.712C139.781 528.745 137.402 529.902 134.947 531.068C135.079 530.869 135.402 530.48 135.856 529.845C137.269 527.978 140.302 524.11 144.681 519.721C151.004 513.409 160.028 505.93 170.663 501.674C160.739 478.403 141.079 430.961 130.179 395.624C126.889 385.121 124.444 375.642 123.221 368.229C123.221 368.229 123.155 368.429 123.088 368.817C116.709 395.112 105.363 450.364 115.031 477.18H97.3057L120.842 535.201L121.486 536.812C121.486 536.812 74.7459 582.453 66.6889 610.947C66.6889 610.947 54.8307 589.477 48.641 575.495C48.641 575.495 17.2468 617.847 12.4126 661.166L22.0811 653.431L22.0621 653.441ZM290.628 718.096C291.529 716.94 294.552 718.352 297.462 721.186C297.917 721.698 298.372 722.153 298.752 722.675C298.752 722.675 309.709 735.888 319.7 751.045C318.544 749.756 308.998 739.054 295.396 726.485C295.007 726.096 294.619 725.774 294.173 725.386C291.33 722.485 289.718 719.196 290.628 718.106V718.096ZM285.728 701.461C286.306 700.105 289.652 700.494 293.14 702.295C293.718 702.617 294.24 702.873 294.752 703.262C294.752 703.262 308.742 712.219 322.212 723.442C320.8 722.532 308.809 715.452 292.439 707.906C291.984 707.707 291.472 707.451 290.95 707.195C287.472 705.394 285.149 702.816 285.728 701.461ZM190.701 687.603C167.563 682.901 149.895 681.091 149.895 681.091C170.976 680.446 191.28 681.991 191.28 681.991C191.991 682.057 192.768 682.124 193.536 682.247C198.304 683.024 201.924 684.892 201.659 686.503C201.403 688.114 197.337 688.759 192.635 687.991C191.924 687.858 191.28 687.735 190.701 687.603ZM135.003 706.816C154.994 700.371 174.786 696.247 174.786 696.247C175.488 696.048 176.265 695.916 177.042 695.859C181.81 695.214 185.877 696.058 186.066 697.669C186.256 699.214 182.512 701.015 177.753 701.593C177.042 701.66 176.398 701.726 175.81 701.792C153.762 703.603 137.003 706.503 135.003 706.826V706.816ZM122.501 602.387C133.003 590.851 151.506 586.14 163.175 584.273C169.431 583.24 173.677 583.05 173.677 583.05C163.563 573.893 147.762 576.026 147.762 576.026C153.118 568.547 164.331 566.936 164.331 566.936C204.038 566.936 213.318 612.065 234.276 620.634C255.224 629.212 257.035 614.42 257.035 614.42C256.902 624.922 259.414 618.956 257.035 624.435H256.969C247.679 645.838 225.698 635.649 225.698 635.649L222.987 660.919C222.788 660.986 222.664 661.043 222.475 661.175C218.285 662.986 214.295 664.597 210.484 665.877C209.517 666.199 208.617 666.521 207.707 666.787C205.65 667.488 203.65 668.076 201.716 668.597C201.261 668.721 200.882 668.853 200.493 668.976C200.048 669.1 199.659 669.232 199.27 669.299C197.849 669.687 196.493 670.01 195.138 670.332C193.915 670.588 192.692 670.844 191.526 671.043C191.393 671.043 191.27 671.109 191.138 671.109C189.393 671.432 187.716 671.687 186.104 671.887C185.137 671.953 184.237 672.086 183.261 672.142C176.038 672.721 169.791 672.076 164.502 670.654C162.511 670.076 160.634 669.431 158.966 668.654C158.056 668.266 157.156 667.82 156.388 667.431C154.776 666.597 153.298 665.63 151.876 664.531C146.975 660.863 143.373 656.284 140.662 651.384C136.596 644.104 134.539 636.303 133.307 630.303C128.984 609.866 122.482 602.387 122.482 602.387H122.501Z" fill="#9A4DFF"/>
<path d="M138.615 604.511L138.681 604.577C139.003 605.487 142.16 613.866 145.326 624.435C146.359 620.957 147.648 617.667 149.127 614.568C152.027 608.255 155.772 602.776 159.895 598.387C153.705 599.676 146.549 601.61 138.624 604.511H138.615Z" fill="white"/>
<path d="M201.849 655.564C205.071 654.853 208.427 654.019 212.038 652.853C212.038 652.853 212.038 652.73 212.105 652.531C212.493 650.663 214.418 639.895 209.527 628.16L208.37 626.748C208.304 632.161 207.593 637.838 206.114 643.573C205.47 646.095 204.702 648.54 203.801 650.862C203.214 652.474 202.569 654.019 201.858 655.564H201.849Z" fill="white"/>
<path d="M324.724 663.166C324.335 666.778 323.691 670.522 322.601 674.256C323.7 673.346 324.667 672.446 325.634 671.545C327.312 669.868 341.236 656.588 340.715 655.232C340.715 655.232 331.435 632.796 318.022 630.672C323.558 638.729 326.146 650.398 324.724 663.166Z" fill="white"/>
<path d="M190.664 634.056C189.27 631.535 187.194 629.146 184.483 627.222C179.687 623.819 174.161 622.71 169.725 623.8H169.696C169.696 623.8 163.895 612.321 169.952 603.572C174.625 600.548 179.914 599.259 185.052 600.586C196.446 603.515 202.673 617.601 199.289 632.293C197.621 633.923 194.967 635.146 190.654 634.056H190.664Z" fill="white"/>
<path d="M286.95 664.654C287.784 673.489 291.784 680.19 297.453 681.091C302.486 681.802 307.576 677.802 310.998 671.223L310.354 670.579C305.974 674.057 298.429 672.967 292.884 667.735C291.405 666.323 290.173 664.711 289.339 663.033C289.272 662.967 289.272 662.901 289.272 662.901C288.694 661.877 288.306 660.844 287.983 659.811C287.604 661.422 287.206 662.901 286.95 664.645V664.654Z" fill="#8BC53F"/>
<path d="M312.695 658.559C311.785 656.227 310.278 653.905 308.164 651.924C304.42 648.407 299.756 646.767 295.756 647.156H295.737C295.737 647.156 294.998 644.995 294.771 642.028C297.832 636.767 300.572 634.084 300.922 633.762C302.145 633.402 303.368 633.212 304.61 633.402C312.212 634.539 316.781 646.066 314.875 659.166C314.193 659.033 313.491 658.881 312.695 658.559V658.559Z" fill="white"/>
<path d="M255.205 679.944C254.532 682.057 258.106 685.11 263.187 686.74C268.267 688.361 272.941 687.963 273.623 685.849C274.296 683.735 270.722 680.693 265.642 679.053C260.561 677.432 255.878 677.83 255.205 679.944V679.944Z" fill="white"/>
<path d="M171.109 654.919C177.943 656.654 184.967 654.009 190.445 648.54L189.934 648.218C187.934 650.274 185.099 651.44 181.877 651.564H181.81C178.009 651.82 173.687 650.53 169.876 647.829C162.653 642.739 159.819 634.416 163.042 628.748C162.53 628.17 162.009 627.459 161.554 626.748C160.009 624.226 158.919 621.269 158.208 618.814C157.753 619.98 157.374 621.136 157.051 622.359C153.184 637.383 159.497 651.952 171.099 654.919H171.109Z" fill="#8BC53F"/>
<path d="M265.613 516.584C276.893 522.831 297.263 535.532 318.6 555.324L321.245 549.201C310.998 531.343 292.04 512.65 292.04 512.65L310.998 486.668L265.613 516.584Z" fill="#4D5E62"/>
<path d="M97.2866 477.19L120.823 535.21H120.889L112.955 486.669L137.97 497.048C106.699 453.663 121.524 376.306 123.079 368.827C116.699 395.121 105.353 450.374 115.022 477.19H97.2961H97.2866Z" fill="#461691"/>
<path d="M210.493 665.877L235.565 687.735C235.764 687.413 235.887 687.024 236.143 686.702C233.565 682.124 232.276 677.678 236.466 674.323C237.3 673.612 238.333 672.967 239.622 672.389C239.688 672.389 239.745 672.323 239.821 672.323C239.11 670.455 237.954 668.654 237.044 666.787C235.243 663.043 233.309 659.109 233.053 654.853C232.987 653.63 233.755 644.028 233.698 644.028C252.002 646.929 257.035 624.435 257.035 624.435H256.968C247.679 645.838 225.698 635.649 225.698 635.649L222.987 660.919C222.787 660.986 222.664 661.043 222.475 661.175C218.285 662.986 214.294 664.597 210.484 665.877H210.493Z" fill="#100024"/>
<path d="M147.771 576.017C147.771 576.017 154.672 578.017 163.175 584.273C169.431 583.24 173.677 583.05 173.677 583.05C163.563 573.894 147.762 576.026 147.762 576.026L147.771 576.017Z" fill="#4D5E62"/>
<path d="M303.709 626.293C307.766 623.904 311.633 622.748 315.178 622.492H315.245C321.491 619.914 333.681 616.046 344.961 618.748C344.26 617.392 341.805 612.624 337.416 605.79C317.434 608.691 303.709 626.283 303.709 626.283V626.293Z" fill="#461691"/>
<path d="M254.779 702.532C272.855 702.693 280.988 694.323 283.917 690.114C282.05 689.28 280.495 688.503 279.282 687.792C279.215 687.925 279.149 688.114 279.026 688.247C278.77 689.024 278.315 689.726 277.86 690.37C276.893 691.982 275.737 693.404 274.448 694.626C273.993 695.138 273.481 695.593 272.903 695.982C272.125 696.626 271.291 697.205 270.457 697.716C269.879 698.171 269.291 698.494 268.646 698.816C262.694 701.925 256.665 702.446 254.788 702.532H254.779Z" fill="#979B9D"/>
<path d="M254.134 702.56C254.134 702.56 254.409 702.56 254.779 702.532C254.542 702.532 254.362 702.56 254.134 702.56Z" fill="#979B9D"/>
<path d="M210.493 733.12C210.493 733.12 225.963 740.666 236.854 736.666C236.854 736.666 248.911 751.367 263.803 737.765C244.466 750.334 239.366 730.485 239.366 730.485C233.432 734.808 219.764 734.808 219.764 734.808C216.219 734.552 213.195 733.974 210.607 733.13H210.484L210.493 733.12Z" fill="#979B9D"/>
<path d="M203.792 650.863C203.204 652.474 202.56 654.019 201.849 655.564C205.071 654.853 208.427 654.019 212.038 652.853C212.038 652.853 212.038 652.73 212.105 652.531C208.816 652.73 205.981 651.886 203.792 650.853V650.863Z" fill="#A6A8AB"/>
<path d="M138.681 604.567C139.003 605.477 142.16 613.857 145.326 624.426C146.359 620.947 147.648 617.658 149.127 614.558C144.871 607.212 139.458 604.823 138.681 604.567V604.567Z" fill="#A6A8AB"/>
<path d="M322.601 674.266C323.7 673.356 324.667 672.455 325.634 671.555C327.312 669.877 341.236 656.597 340.715 655.242C334.591 659.687 328.914 662.01 324.733 663.166C324.345 666.778 323.7 670.522 322.61 674.256L322.601 674.266Z" fill="#A6A8AB"/>
<path d="M52.6789 529.854C59.4468 480.791 91.4192 426.847 92.3861 425.16C90.7083 426.771 67.1816 449.53 53.8353 499.55C51.3898 518.186 52.6789 529.854 52.6789 529.854V529.854Z" fill="#E91EF4"/>
<path d="M366.365 532.565V532.366C366.753 507.551 364.819 486.602 364.687 484.991L361.976 490.081C362.677 505.617 363.455 534.945 360.943 562.604C362.943 553.315 364.81 543.201 366.355 532.565H366.365Z" fill="#E91EF4"/>
<path d="M163.497 644.796C170.388 653.498 180.834 651.763 181.801 651.564C178 651.82 173.677 650.531 169.867 647.829C162.644 642.739 159.81 634.416 163.032 628.748C162.521 628.17 161.999 627.459 161.544 626.748C161.544 626.748 156.189 635.639 163.487 644.796H163.497Z" fill="#517230"/>
<path d="M289.33 663.042C289.841 665.043 296.297 685.602 310.344 670.588C305.965 674.066 298.42 672.976 292.875 667.744C291.396 666.332 290.164 664.72 289.33 663.042Z" fill="#517230"/>
<path d="M155.535 492.214C155.525 492.602 155.478 493.001 155.383 493.408C154.928 495.332 153.535 497.503 152.748 499.342C149.885 506.081 147.117 512.84 144.662 519.741C150.985 513.428 160.009 505.949 170.644 501.693C160.72 478.422 141.06 430.98 130.159 395.643C130.662 397.282 129.676 400.695 129.61 402.429C129.392 407.406 129.42 412.392 129.648 417.368C130.33 432.155 133.686 446.213 139.837 459.682C142.359 465.218 145.648 470.346 148.653 475.626C151.269 480.223 155.677 486.716 155.535 492.214V492.214Z" fill="#DCC5FF"/>
<path d="M142.416 527.665C165.497 520.963 245.622 506.195 315.122 596.188C319.311 593.344 323.311 591.676 326.98 590.832C311.377 570.396 285.528 543.646 248.466 527.911C247.243 527.399 245.954 526.878 244.731 526.423C236.996 523.655 229.072 521.465 221.072 519.854C208.37 517.276 193.735 514.764 180.843 515.598C173.298 516.11 165.819 519.143 158.795 521.589C153.317 523.456 147.771 525.399 142.425 527.655L142.416 527.665Z" fill="#DCC5FF"/>
<path d="M363.663 702.56L355.928 699.593C355.928 699.593 359.019 718.352 361.597 747.234C363.919 736.665 365.208 725.641 364.497 715.196L377.844 721.963C377.844 721.963 369.787 694.759 367.332 680.645C365.275 668.341 355.928 640.17 348.317 624.947C350.052 630.236 364.365 674.332 363.663 702.56V702.56Z" fill="#DCC5FF"/>
<path d="M327.302 535.21L363.474 451.985C363.474 451.985 363.151 452.184 362.573 452.63C358.384 455.521 341.369 468.289 334.203 484.991C326.023 504.072 327.302 535.21 327.302 535.21Z" fill="#A6BAC3"/>
<path d="M103.42 656.076C101.031 643.962 95.6849 636.739 95.6849 636.739C122.501 635.127 140.681 651.374 140.681 651.374C143.392 656.275 146.994 660.853 151.895 664.522C153.317 665.555 154.795 666.522 156.407 667.422C157.184 667.811 158.085 668.256 158.985 668.645C160.663 669.422 162.53 670.057 164.521 670.645C169.81 672.067 176.057 672.711 183.28 672.133C184.246 672.067 185.147 671.934 186.123 671.877C187.735 671.678 189.412 671.422 191.156 671.1C191.28 671.1 191.412 671.034 191.545 671.034C192.702 670.835 193.934 670.579 195.157 670.323C196.512 670 197.868 669.678 199.289 669.289C199.669 669.223 200.067 669.09 200.512 668.967C200.901 668.901 201.289 668.768 201.735 668.645V668.579C203.669 668.067 205.669 667.479 207.726 666.768C212.37 665.356 217.271 663.413 222.484 661.157C232.352 664.768 236.475 674.304 236.475 674.304C227.641 681.46 243.177 693.508 243.698 700.665C244.21 708.466 237.508 724.002 229.451 726.969C221.394 729.936 199.469 730.191 195.09 707.632C195.09 707.632 191.09 727.101 210.626 733.092C213.204 733.926 216.238 734.504 219.783 734.77C219.783 734.77 233.451 734.77 239.385 730.447C239.385 730.447 244.475 750.306 263.822 737.727C263.822 737.727 272.135 730.703 266.789 718.324C266.789 718.324 265.433 734.504 255.253 735.538C245.006 736.637 245.584 724.258 247.708 718.324C249.831 712.456 254.153 702.532 254.153 702.532H254.798C256.665 702.409 262.732 701.887 268.656 698.788C269.301 698.466 269.888 698.143 270.467 697.688C271.301 697.176 272.144 696.589 272.912 695.954C273.49 695.565 274.012 695.11 274.457 694.598C275.737 693.375 276.903 691.954 277.87 690.342C278.325 689.698 278.78 688.987 279.035 688.219C279.159 688.086 279.225 687.897 279.291 687.764C280.514 688.475 282.059 689.252 283.927 690.086C289.595 692.598 297.974 695.176 306.752 693.499C307.14 693.499 307.586 693.375 307.975 693.309L313.198 691.887C313.709 691.698 314.297 691.499 314.809 691.243L316.875 690.276C317.899 689.764 318.932 689.176 320.032 688.541C339.89 692.598 343.625 708.456 343.625 708.456C326.667 702.845 320.221 710.845 320.221 710.845C320.221 710.845 354.45 711.679 357.284 763.254C355.606 768.61 353.739 773.633 351.928 778.212C350.118 782.79 348.383 786.913 346.772 790.458C346.127 791.88 345.549 793.169 344.961 794.392C344.127 796.203 343.35 797.748 342.705 798.971C341.416 801.549 340.639 802.971 340.639 802.971C340.061 795.492 334.971 780.145 334.971 780.145L331.492 789.302C330.117 792.714 328.591 795.691 327.037 798.26C321.88 806.772 313.861 813.208 304.401 816.307C303.595 816.573 302.875 816.781 302.297 816.905C288.192 819.881 273.5 820.118 259.319 817.521C264.381 816.07 269.329 814.222 274.106 812.014C178.066 809.075 133.003 782.6 133.003 782.6C122.946 780.667 113.922 776.932 113.922 776.932C99.9314 771.586 74.4047 751.405 74.4047 751.405L75.5042 768.619L71.1819 765.652C33.342 743.86 21.2849 708.475 21.2849 708.475C21.2849 708.352 21.2185 708.276 21.2185 708.153C47.1339 633.563 103.41 656.066 103.41 656.066L103.42 656.076Z" fill="#F8F3FF"/>
<path d="M119.515 629.127C122.975 626.141 118.652 617.402 117.572 614.207C116.169 610.055 114.33 605.923 110.87 603.069C106.538 599.496 102.822 601.638 99.9029 605.496C94.2914 612.909 98.8034 621.26 105.495 625.876C108.538 627.98 113.562 630.663 117.373 630.046C118.292 629.904 118.993 629.582 119.515 629.136V629.127Z" fill="#A6BAC3"/>
<path d="M338.497 689.517C336.354 687.66 339.027 682.238 339.71 680.247C340.582 677.669 341.729 675.1 343.881 673.327C346.573 671.109 348.876 672.436 350.696 674.835C354.184 679.441 351.378 684.626 347.217 687.498C345.321 688.797 342.203 690.475 339.843 690.086C339.274 690.001 338.828 689.792 338.506 689.517H338.497Z" fill="#A6BAC3"/>
<path d="M233.954 678C234.02 677.745 234.077 677.489 234.21 677.29C233.3 678.256 233.375 678.389 233.954 678Z" fill="#A6BAC3"/>
<path d="M220.456 670.493C220.456 670.493 215.261 669.337 212.806 674.256C210.351 679.176 218.143 685.925 224.323 687.792C230.503 689.66 227.072 675.508 220.456 670.493Z" fill="white"/>
<path d="M135.923 690.181C136.643 681.602 122.472 679.773 116.529 678.588C104.301 676.181 90.5661 667.413 77.6747 671.365C64.1294 675.498 74.2908 691.451 80.3288 697.954C89.6561 708.02 97.8933 709.622 110.87 706.75C119.211 704.902 133.477 701.527 135.743 691.394C135.837 690.968 135.904 690.57 135.932 690.181H135.923Z" fill="white"/>
<path d="M314.866 726.153C317.548 722.523 323.776 726.703 326.534 728.296C332.184 731.566 340.639 732.865 344.355 738.874C348.27 745.197 338.743 747.964 334.108 748.448C326.951 749.187 323.15 746.979 319.018 741.358C316.373 737.737 311.899 731.471 314.506 726.694C314.61 726.495 314.724 726.305 314.856 726.144L314.866 726.153Z" fill="white"/>
<path d="M249.613 753.405C249.613 753.405 233.281 760.069 208.92 743.528C208.92 743.528 218.304 754.789 229.262 758.211L231.944 759.121H239.527L243.66 757.51L246.182 756.097L249.622 753.405H249.613Z" fill="white"/>
<path d="M249.613 753.405C249.613 753.405 235.916 767.32 208.92 743.528C208.92 743.528 231.082 774.989 249.613 753.405Z" fill="#461691"/>
<path d="M206.237 573.932C214.001 575.761 221.84 578.633 228.418 583.193C235.3 587.97 243.385 593.638 247.224 601.326C247.888 602.643 248.513 604.349 248.636 606.008C248.731 607.307 248.532 608.587 247.793 609.658C246.978 610.833 244.153 611.743 242.788 611.743C241.243 611.752 239.925 610.985 238.797 609.999C236.665 608.113 234.835 605.695 232.968 603.563C227.309 597.089 222.048 590.283 216.275 583.903C214.607 582.055 212.901 580.245 211.128 578.491C210.048 577.42 207.706 574.292 206.228 573.941L206.237 573.932Z" fill="#A6BAC3"/>
<path d="M290.619 718.096C291.519 716.94 294.543 718.352 297.453 721.186C297.908 721.698 298.363 722.153 298.742 722.674C298.742 722.674 309.7 735.888 319.691 751.045C318.534 749.756 308.989 739.054 295.387 726.485C294.998 726.096 294.609 725.774 294.164 725.385C291.32 722.485 289.709 719.196 290.619 718.106V718.096Z" fill="#100024"/>
<path d="M285.727 701.461C286.306 700.105 289.652 700.494 293.14 702.295C293.718 702.617 294.24 702.873 294.751 703.262C294.751 703.262 308.742 712.219 322.212 723.442C320.799 722.532 308.809 715.452 292.439 707.906C291.984 707.707 291.472 707.451 290.95 707.195C287.472 705.394 285.149 702.816 285.727 701.461V701.461Z" fill="#100024"/>
<path d="M190.701 687.602C167.563 682.901 149.895 681.09 149.895 681.09C170.976 680.446 191.28 681.991 191.28 681.991C191.991 682.057 192.768 682.124 193.536 682.247C198.304 683.024 201.925 684.891 201.659 686.503C201.403 688.114 197.337 688.759 192.635 687.991C191.924 687.858 191.28 687.735 190.701 687.602V687.602Z" fill="#100024"/>
<path d="M135.003 706.817C154.994 700.371 174.786 696.248 174.786 696.248C175.488 696.049 176.265 695.916 177.042 695.859C181.81 695.214 185.877 696.058 186.066 697.669C186.256 699.214 182.512 701.015 177.753 701.594C177.042 701.66 176.398 701.726 175.81 701.793C153.762 703.603 137.003 706.504 135.003 706.826V706.817Z" fill="#100024"/>
<path d="M114.766 774.06C122.842 778.676 109.05 774.183 117.126 778.799C117.126 778.799 142.008 795.861 193.63 817.549C184.227 809.122 185.327 804.25 183.877 795.852C165.62 794.562 147.639 789.434 131.439 780.913" fill="#EDEDEE"/>
<path d="M243.442 827.36C243.613 827.398 243.783 827.436 243.954 827.474C243.774 827.474 243.603 827.417 243.442 827.36Z" fill="#EDEDEE"/>
<path d="M243.442 827.36C223.726 823.104 199.621 813.17 184.057 800.345L190.881 800.752C219.28 801.605 237.214 803.293 265.319 807.473C266.789 807.691 268.656 808.383 268.561 809.862C268.457 811.463 273.85 812.089 272.239 812.08C264.153 812.013 248.542 815.549 243.518 821.89C242.797 822.8 242.105 823.833 242.039 824.99C241.982 825.976 242.551 827.028 243.433 827.369L243.442 827.36Z" fill="#EDEDEE"/>
<path d="M12.3936 661.175C17.2278 617.857 48.622 575.505 48.622 575.505C54.8117 589.496 66.6698 610.956 66.6698 610.956L64.5371 618.776C64.5371 618.776 30.6405 640.416 36.5648 687.735L45.1432 674.266C45.1432 674.266 45.7214 704.437 62.3569 736.665C62.3569 736.665 59.1341 726.476 61.845 711.973C61.845 711.973 74.9923 747.045 137.98 775.15C136.169 777.311 134.672 779.633 133.401 781.918C146.245 788.401 160.141 792.781 174.379 794.838C172.663 790.326 172.255 785.321 173.374 780.629C184.616 788.411 205.507 803.624 235.461 805.378C269.746 807.378 283.538 797.984 299.965 794.278C294.078 797.624 288.192 800.961 282.306 804.307C294.562 805.482 307.226 801.624 316.743 793.823C326.269 786.022 332.534 774.363 333.795 762.116C342.07 773.557 344.648 788.913 340.591 802.44C340.497 801.492 340.336 800.43 340.127 799.312C340.127 799.302 340.127 799.293 340.127 799.274C340.08 798.999 340.023 798.714 339.966 798.421C339.966 798.421 339.966 798.42 339.966 798.411C339.909 798.136 339.852 797.852 339.795 797.567C339.795 797.558 339.795 797.548 339.795 797.529C339.729 797.236 339.672 796.932 339.606 796.638C339.539 796.354 339.473 796.06 339.407 795.766C339.407 795.757 339.407 795.738 339.407 795.728C339.34 795.435 339.274 795.141 339.198 794.847C339.198 794.837 339.198 794.819 339.198 794.809C339.122 794.515 339.056 794.212 338.98 793.918C338.98 793.909 338.98 793.899 338.98 793.89C338.904 793.586 338.828 793.292 338.753 792.989C338.753 792.989 338.753 792.989 338.753 792.98C338.677 792.676 338.601 792.382 338.525 792.089C338.525 792.079 338.525 792.07 338.525 792.06C338.449 791.766 338.373 791.472 338.298 791.188C338.298 791.179 338.298 791.16 338.288 791.15C338.212 790.856 338.136 790.572 338.051 790.288C338.051 790.288 338.051 790.288 338.051 790.278C337.966 789.984 337.89 789.69 337.805 789.397C337.805 789.397 337.805 789.397 337.805 789.387C337.644 788.799 337.482 788.221 337.321 787.662C337.321 787.662 337.321 787.662 337.321 787.652C337.16 787.103 337.008 786.572 336.857 786.06C336.857 786.06 336.857 786.06 336.857 786.051C336.516 784.904 336.203 783.87 335.928 783.008C335.928 782.989 335.918 782.97 335.909 782.951C335.824 782.667 335.738 782.401 335.662 782.155C335.662 782.136 335.662 782.126 335.653 782.107C335.606 781.956 335.558 781.813 335.52 781.69C335.34 781.112 335.198 780.695 335.132 780.477C335.094 780.373 335.075 780.306 335.075 780.306L331.596 789.463C330.222 792.875 328.695 795.852 327.141 798.421C321.984 806.933 313.965 813.369 304.505 816.468C303.7 816.734 302.979 816.942 302.401 817.066C301.643 817.227 300.884 817.369 300.126 817.521C299.396 817.653 298.657 817.786 297.927 817.909C297.169 818.032 296.41 818.156 295.642 818.269C295.576 818.269 295.519 818.288 295.453 818.298C294.723 818.402 293.984 818.506 293.254 818.592C293.168 818.601 293.083 818.611 292.998 818.62C292.268 818.705 291.548 818.791 290.818 818.867C290.732 818.867 290.647 818.885 290.562 818.895C289.822 818.971 289.083 819.037 288.344 819.094C288.306 819.094 288.268 819.094 288.23 819.094C285.14 819.34 282.05 819.464 278.95 819.454C278.836 819.454 278.723 819.454 278.609 819.454C278.04 819.454 277.462 819.435 276.893 819.426C276.599 819.426 276.305 819.416 276.021 819.407C275.519 819.388 275.016 819.369 274.514 819.35C274.154 819.331 273.794 819.322 273.424 819.303C272.959 819.274 272.495 819.246 272.04 819.217C271.632 819.189 271.225 819.16 270.827 819.132C270.4 819.103 269.964 819.066 269.538 819.028C269.092 818.99 268.656 818.942 268.22 818.904C267.822 818.867 267.414 818.829 267.016 818.781C266.533 818.724 266.059 818.667 265.575 818.611C265.215 818.563 264.846 818.525 264.485 818.478C263.936 818.402 263.386 818.326 262.836 818.241C262.542 818.193 262.248 818.156 261.954 818.108C261.111 817.976 260.267 817.833 259.424 817.682C264.485 816.231 269.433 814.383 274.211 812.174C273.632 812.155 273.054 812.137 272.476 812.118C272.713 812.193 272.722 812.222 272.343 812.222C264.258 812.155 248.646 815.691 243.622 822.023C242.902 822.933 242.21 823.966 242.143 825.123C242.087 826.108 242.655 827.161 243.537 827.502C224.067 823.303 200.313 813.558 184.739 800.951C184.72 800.951 184.701 800.951 184.682 800.942C185.431 806.62 186.332 811.056 193.735 817.691C142.113 796.003 117.23 778.941 117.23 778.941C116.083 778.287 115.391 777.813 114.993 777.482C114.368 777.235 114.026 777.093 114.026 777.093C100.036 771.747 74.5089 751.566 74.5089 751.566L75.6084 768.78L71.2861 765.813C33.4462 744.021 21.389 708.636 21.389 708.636C21.389 708.513 21.3227 708.437 21.3227 708.314C14.1661 681.109 22.1568 653.583 22.1568 653.583L12.4883 661.317L12.3936 661.175Z" fill="#461691"/>
<path d="M243.442 827.36C243.613 827.398 243.783 827.436 243.954 827.474C243.774 827.474 243.603 827.417 243.442 827.36Z" fill="#979B9D"/>
<path d="M243.442 827.36C243.613 827.398 243.783 827.436 243.954 827.474C243.774 827.474 243.603 827.417 243.442 827.36Z" fill="#979B9D"/>
<path d="M333.795 762.098C332.534 774.344 326.259 786.004 316.743 793.805C307.216 801.606 294.562 805.464 282.306 804.288C288.192 800.942 294.079 797.606 299.965 794.26C283.538 797.975 269.746 807.369 235.461 805.36C205.517 803.615 184.625 788.392 173.374 780.61C172.255 785.302 172.663 790.316 174.379 794.819C160.141 792.762 146.245 788.383 133.401 781.899C134.672 779.615 136.16 777.292 137.98 775.131C74.9924 747.026 61.8451 711.954 61.8451 711.954C59.1341 726.457 62.357 736.647 62.357 736.647C45.7215 704.419 45.1433 674.247 45.1433 674.247L36.5649 687.717C35.6454 680.399 35.6833 673.688 36.4037 667.583H19.3227C17.9388 678.105 17.2847 693.177 21.228 708.153C21.228 708.276 21.2943 708.352 21.2943 708.476C21.2943 708.476 33.3515 743.87 71.1913 765.652L75.5137 768.619L74.4142 751.406C74.4142 751.406 99.9409 771.586 113.932 776.932C113.932 776.932 114.273 777.074 114.899 777.321C115.287 777.662 115.979 778.127 117.136 778.781C117.136 778.781 142.018 795.843 193.64 817.53C186.237 810.895 185.346 806.459 184.588 800.781C184.607 800.781 184.625 800.781 184.644 800.791C200.218 813.388 223.972 823.132 243.442 827.341C242.561 827 241.992 825.948 242.049 824.962C242.115 823.796 242.798 822.772 243.527 821.862C248.551 815.53 264.163 811.995 272.249 812.061C272.628 812.061 272.618 812.033 272.381 811.957C272.959 811.976 273.528 811.995 274.116 812.014C269.339 814.222 264.391 816.071 259.329 817.521C260.172 817.673 261.016 817.815 261.86 817.947C262.154 817.995 262.447 818.033 262.741 818.08C263.291 818.166 263.841 818.241 264.391 818.317C264.751 818.365 265.12 818.412 265.481 818.45C265.964 818.507 266.438 818.573 266.921 818.621C267.32 818.668 267.727 818.706 268.125 818.744C268.561 818.791 269.007 818.829 269.443 818.867C269.869 818.905 270.305 818.943 270.732 818.971C271.14 819 271.547 819.028 271.945 819.057C272.41 819.085 272.865 819.113 273.329 819.142C273.689 819.161 274.05 819.18 274.419 819.189C274.922 819.208 275.424 819.227 275.926 819.246C276.22 819.246 276.514 819.256 276.798 819.265C277.367 819.275 277.945 819.294 278.514 819.294C278.628 819.294 278.742 819.294 278.855 819.294C281.955 819.294 285.045 819.18 288.135 818.933C288.173 818.933 288.211 818.933 288.249 818.933C288.988 818.876 289.728 818.801 290.467 818.734C290.552 818.734 290.638 818.715 290.723 818.706C291.453 818.63 292.173 818.545 292.903 818.459C292.988 818.45 293.074 818.44 293.159 818.431C293.898 818.336 294.628 818.241 295.358 818.137C295.415 818.137 295.481 818.118 295.548 818.109C296.306 817.995 297.074 817.881 297.832 817.748C298.572 817.625 299.301 817.493 300.031 817.36C300.79 817.218 301.548 817.066 302.306 816.905C302.884 816.782 303.605 816.573 304.411 816.308C313.861 813.208 321.89 806.772 327.046 798.26C328.601 795.691 330.127 792.724 331.501 789.302L334.98 780.146C334.98 780.146 334.999 780.202 335.037 780.316C335.103 780.534 335.245 780.951 335.426 781.53C335.463 781.662 335.511 781.804 335.558 781.947C335.558 781.966 335.558 781.975 335.568 781.994C335.644 782.24 335.729 782.506 335.814 782.79C335.814 782.809 335.824 782.828 335.833 782.847C336.099 783.71 336.421 784.743 336.762 785.89C336.762 785.89 336.762 785.89 336.762 785.899C336.914 786.411 337.065 786.942 337.227 787.492C337.227 787.492 337.227 787.492 337.227 787.501C337.388 788.06 337.549 788.629 337.71 789.217C337.71 789.217 337.71 789.226 337.71 789.236C337.795 789.53 337.871 789.824 337.956 790.117C337.956 790.117 337.956 790.117 337.956 790.127C338.032 790.411 338.118 790.705 338.193 790.989C338.193 790.999 338.193 791.018 338.203 791.027C338.279 791.321 338.355 791.606 338.43 791.899C338.43 791.909 338.43 791.918 338.43 791.928C338.506 792.222 338.582 792.525 338.658 792.819C338.658 792.819 338.658 792.819 338.658 792.828C338.734 793.132 338.81 793.426 338.885 793.729C338.885 793.738 338.885 793.748 338.885 793.757C338.961 794.051 339.028 794.355 339.103 794.648C339.103 794.658 339.103 794.677 339.103 794.686C339.17 794.98 339.246 795.274 339.312 795.568C339.312 795.577 339.312 795.596 339.312 795.606C339.378 795.9 339.445 796.184 339.511 796.478C339.577 796.781 339.644 797.084 339.701 797.378C339.701 797.378 339.701 797.407 339.701 797.416C339.757 797.701 339.814 797.985 339.871 798.26C339.871 798.26 339.871 798.26 339.871 798.269C339.928 798.554 339.985 798.838 340.032 799.122C340.032 799.132 340.032 799.141 340.032 799.16C340.241 800.279 340.392 801.34 340.497 802.288C344.554 788.762 341.975 773.416 333.7 761.965L333.795 762.098Z" fill="#DCC5FF"/>
<g style="mix-blend-mode:multiply" opacity="0.6">
<path d="M258.57 624.037C265.888 626.066 275.433 625.393 281.054 625.089C294.562 624.378 321.653 623.412 335.141 624.341C357.843 625.895 390.432 637.82 402.138 643.858C406.878 646.303 409.769 651.706 408.299 656.834C405.058 668.143 393.844 681.29 393.844 681.29C373.72 707.67 350.63 718.049 335.909 722.125C323.804 725.481 310.752 723.613 300.335 716.589C299.899 716.295 299.463 715.992 299.036 715.689C290.003 709.243 282.846 700.409 278.505 690.2C276.305 685.015 272.751 672.143 270.116 668.541C262.438 658.038 253.101 658.787 242.039 665.64C228.608 673.963 206.162 690.124 201.422 692.077C155.317 711.082 122.975 670.256 101.296 637.203C87.2959 615.857 80.054 598.093 81.3432 589.686C82.0256 585.231 85.4476 581.619 89.8932 580.88C117.249 576.339 195.668 588.321 229.119 610.843C241.101 618.037 251.006 621.942 258.57 624.037V624.037Z" fill="#4D5E62"/>
</g>
<path d="M88.803 590.804C88.803 590.804 40.034 634.663 15.9765 667.716L15.531 689.119C32.3466 677.423 86.13 627.507 101.059 628.729C101.059 628.729 86.4996 604.141 88.803 590.814V590.804Z" fill="url(#paint1_linear_412_26278)"/>
<path d="M88.9832 597.487L15.152 675.053L13.8154 664.048L83.8708 586.838L88.9832 597.487Z" fill="#FFF0A4"/>
<path d="M86.6514 599.648C85.8741 602.387 86.0163 620.122 88.4334 631.876C88.5946 632.644 89.7226 632.559 90.4335 632.236L100.282 628.151C100.946 627.857 101.249 627.07 100.965 626.407L89.2297 599.43C88.8789 598.615 87.8457 598.368 87.1633 598.937L87.0874 599.003C86.8789 599.174 86.7272 599.401 86.6514 599.657V599.648Z" fill="#461691"/>
<path d="M8.05227 706.627L7.56885 666.692L8.49778 665.422C32.451 632.52 77.9119 583.647 78.3763 583.154L89.2202 571.514L86.5092 587.192C85.0874 595.439 97.0119 615.307 104.86 625.895L111.088 634.293L100.671 633.449C99.8745 633.393 95.0498 633.753 77.9498 647.355C66.7362 656.275 53.826 667.962 42.4323 678.266C31.0197 688.598 21.1616 697.508 15.389 701.527L8.05227 706.627V706.627ZM17.0857 669.735L17.3037 687.934C22.4507 683.564 28.9533 677.678 36.072 671.242C61.7029 648.056 80.8314 631.269 93.2298 625.847C88.6136 618.985 81.4759 607.373 78.4142 597.117C65.03 611.8 35.2378 645.061 17.0857 669.735V669.735Z" fill="#100024"/>
<path d="M262.362 615.506C269.68 617.534 279.225 616.861 284.846 616.558C298.354 615.847 325.444 614.88 338.933 615.809C361.635 617.364 394.223 629.288 405.93 635.326C410.669 637.772 413.56 643.175 412.091 648.303C408.849 659.611 397.636 672.759 397.636 672.759C377.512 699.138 354.421 709.518 339.701 713.594C327.596 716.949 314.544 715.082 304.126 708.058C303.69 707.764 303.254 707.461 302.828 707.158C293.794 700.712 286.638 691.878 282.296 681.669C280.097 676.484 276.543 663.611 273.908 660.009C266.23 649.507 256.893 650.256 245.831 657.109C232.399 665.431 209.953 681.593 205.214 683.546C159.108 702.551 126.766 661.725 105.088 628.672C91.0877 607.326 83.8458 589.562 85.1349 581.154C85.8174 576.699 89.2393 573.088 93.6849 572.348C121.041 567.808 199.46 579.789 232.911 602.311C244.893 609.506 254.798 613.411 262.362 615.506V615.506Z" fill="url(#paint2_linear_412_26278)"/>
<path d="M405.92 635.336C394.214 629.298 361.625 617.373 338.923 615.819C325.435 614.89 298.344 615.857 284.837 616.568C283.633 616.634 282.24 616.71 280.732 616.776C282.761 617.345 284.799 617.885 286.856 618.217C293.027 619.231 299.264 619.743 305.51 620.075C317.985 620.738 330.506 620.634 342.924 622.094C357.815 623.848 372.327 627.876 386.773 631.895C391.238 633.137 395.873 634.464 399.371 637.507C403.664 641.241 405.627 647.099 405.835 652.787C405.958 656.19 405.532 659.564 404.887 662.91C407.74 658.521 410.669 653.242 412.082 648.313C413.551 643.185 410.669 637.782 405.92 635.336V635.336Z" fill="#FFF0A4"/>
<path d="M327.473 708.968C309.548 707.167 292.941 695.432 285.263 679.129C281.548 671.233 279.548 662.048 273.007 656.256C263.377 647.735 248.068 650.427 236.911 656.834C225.755 663.242 216.399 672.74 204.512 677.659C185.82 685.385 163.791 680.238 146.767 669.309C129.743 658.379 116.738 642.36 104.026 626.625L103.827 626.748C104.235 627.383 104.652 628.018 105.069 628.663C126.747 661.716 159.089 702.551 205.195 683.536C209.934 681.584 232.38 665.422 245.812 657.1C256.874 650.246 266.211 649.498 273.889 660C276.524 663.602 280.078 676.475 282.277 681.66C286.619 691.868 293.775 700.703 302.809 707.148C303.235 707.452 303.671 707.755 304.107 708.049C306.202 709.461 308.42 710.665 310.705 711.66C314.24 712.798 317.785 713.85 321.35 714.722C327.397 715.632 333.663 715.253 339.682 713.585C348.431 711.158 360.137 706.513 372.422 697.603C373.777 694.608 374.621 691.404 374.773 688.115C364.005 702.561 345.398 710.75 327.473 708.949V708.968Z" fill="#92680D"/>
<path d="M90.4432 602.434C88.3199 597.145 91.0878 590.861 95.5808 587.344C100.074 583.827 105.865 582.51 111.505 581.647C143.61 576.756 176.275 583.609 207.697 591.828C192.351 583.401 175.242 578.585 157.961 575.799C140.681 573.012 123.145 572.216 105.657 571.429C102.301 571.277 98.9078 571.126 95.6187 571.799C92.3295 572.472 89.0972 574.055 87.1256 576.775C83.5804 581.638 84.9549 588.453 87.2014 594.036" fill="#FFF0A4"/>
<path d="M263.064 612.966C270.808 614.994 279.197 614.198 287.292 613.838C295.709 613.449 304.117 613.155 312.544 612.975C325.169 612.814 338.184 612.359 350.725 614.71C369.54 618.226 387.882 624.132 405.285 632.075L406.745 632.796L407.115 632.976C412.138 635.535 415.636 641.09 415.048 646.824C414.954 648.028 414.546 649.346 414.176 650.445C411.323 658.701 406.299 666.019 400.991 672.863C390.631 686.456 377.957 698.579 362.905 706.845C355.341 711.072 347.388 714.352 338.952 716.523C325.985 719.774 311.596 717.063 300.884 709.025C292.022 702.598 284.837 693.84 280.372 683.83C277.841 678.057 276.201 671.697 273.898 665.962C273.282 664.427 272.685 662.939 271.803 661.583C271.547 661.251 270.751 660.256 270.476 659.905L269.519 658.891C263.215 651.886 254.002 654.844 246.76 659.147C232.911 666.863 220.892 677.327 207.242 685.422C200.18 688.607 192.616 690.427 184.91 690.911C150.881 692.475 126.065 663.848 108.339 638.303C101.097 627.819 94.2157 617.051 88.8127 605.477C86.1112 599.572 83.5803 593.43 82.5471 586.889C81.1822 579.761 84.2439 572.159 91.7891 569.988C96.6707 568.879 101.732 568.803 106.605 568.68C127.837 568.69 148.909 571.799 169.62 576.187C186.199 579.827 202.579 584.415 218.171 591.306C224.001 593.837 229.726 597.013 235.072 600.463C243.84 605.667 253.291 610.217 263.054 612.956L263.064 612.966ZM261.651 618.056C251.177 615.127 241.528 610.52 232.257 605.051C227.034 601.686 221.698 598.719 215.982 596.235C200.825 589.543 184.682 585.031 168.483 581.486C148.179 577.202 127.43 574.14 106.671 574.131C102.424 574.178 98.2158 574.405 94.1493 575.031C88.9644 575.969 86.898 581.126 87.9596 586.112C88.9264 592.036 91.2298 597.686 93.7512 603.202C99.0025 614.482 105.704 624.985 112.766 635.26C128.672 657.877 149.193 683.233 178.673 685.622C186.654 686.209 194.815 684.74 202.256 681.877C206.152 680.569 209.252 678.19 212.768 676.105C223.025 669.754 234.361 662.237 244.409 655.355C254.466 648.426 265.68 646.208 274.457 656.483C275.547 657.801 276.789 659.393 277.462 660.957C281.481 669.564 283.026 678.91 287.936 687.015C298.192 704.541 317.018 716.637 337.701 711.347C349.502 708.286 360.782 702.74 370.659 695.565C380.716 688.437 389.294 679.252 396.821 669.526C401.731 663.232 406.536 656.256 409.143 648.768C409.446 647.933 409.683 647.137 409.769 646.294C410.138 642.616 407.655 639.033 404.347 637.497C390.849 630.976 376.431 626.246 361.948 622.454C353.957 620.463 345.833 618.843 337.625 618.34C321.056 617.601 304.174 618.274 287.548 619.023C278.969 619.44 270.277 620.293 261.651 618.046V618.056Z" fill="#100024"/>
<path d="M275.538 649.583C275.538 649.583 258.646 642.236 239.888 658.578C239.888 658.578 243.622 658.076 251.149 655.896C256.978 654.208 253.443 650.587 275.538 649.583Z" fill="#100024"/>
<path d="M224.38 617.193C230.978 623.44 234.02 632.634 232.124 641.516C230.229 650.398 224.115 662.322 207.877 671.356C175.64 689.299 151.288 667.09 140.738 651.658C124.084 627.317 121.013 608.586 120.453 602.652C120.292 600.937 120.709 599.221 121.686 597.799C123.885 594.595 132.378 591.107 143.222 590.766C166.132 590.045 198.872 593.022 224.38 617.184V617.193Z" fill="#E91EF4"/>
<path d="M121.079 595.742L148.805 590.956L168.938 593.306L129.003 628.198L121.079 595.742Z" fill="#F276FF"/>
<path d="M176.322 676.19L233.034 632.9L232.115 641.516C232.115 641.516 218.939 677.195 183.365 677.583C178.824 677.631 176.322 676.19 176.322 676.19V676.19Z" fill="#F276FF"/>
<path d="M295.624 629.895C306.003 625.013 324.658 622.776 358.023 632.502C358.023 632.502 388.697 639.194 383.882 661.109C382.981 665.223 380.906 668.976 378.109 672.123C368.422 683.015 336.355 715.471 311.245 699.119C311.245 699.119 286.676 685.053 283.301 652.199C282.344 642.919 287.188 633.876 295.633 629.904L295.624 629.895Z" fill="#E91EF4"/>
<path d="M303.709 626.293C303.709 626.293 289.993 631.374 284.742 639.459C281.301 644.758 286.941 664.645 286.941 664.645L333.473 626.132" fill="#F276FF"/>
<path d="M382.725 661.953L321.463 702.333L338.715 702.077L383.133 668.607" fill="#F276FF"/>
<path d="M224.636 616.918C232.153 624.274 237.944 634.265 234.617 645.09C228.807 668.597 200.275 686.569 176.512 682.986C156.502 680.029 140.928 665.137 130.738 648.587C126.084 641.383 122.131 633.705 119.411 625.487C117.174 618.909 115.543 612.141 114.908 604.965C114.102 599.477 116.15 594.112 121.003 591.325C130.634 585.723 141.942 586.235 152.587 586.984C179.033 588.794 205.621 597.989 224.636 616.909V616.918ZM224.115 617.468C214.636 608.586 203.252 601.562 190.929 597.42C178.597 593.155 165.525 591.325 152.501 591.145C145.989 591.107 139.411 591.031 133.136 592.624C129.363 593.619 125.316 594.87 122.529 597.685C120.965 599.468 120.832 601.885 121.249 604.16C123.259 617.809 128.918 630.748 135.875 642.587C137.032 644.426 138.577 646.966 139.828 648.739C148.473 661.981 161.649 673.64 177.64 676.152C197.981 679.555 224.285 663.744 229.793 643.687C232.551 634.758 231.12 624.122 224.124 617.468H224.115Z" fill="#100024"/>
<path d="M295.463 629.554C312.762 620.871 338.355 624.833 356.734 628.729C366.128 630.502 375.484 633.544 382.64 640.379C392.716 649.867 391.825 665.403 383.484 675.792C382.735 676.721 381.218 678.512 380.441 679.403C372.374 688.892 362.554 696.494 351.502 702.38C336.07 710.57 318.686 712.532 304.638 700.191C293.918 691.138 286.259 678.693 282.865 665.128C282.315 663.005 281.927 660.55 281.529 658.389C281.434 657.261 281.159 654.986 281.055 653.858C279.5 642.938 286.088 634.246 295.463 629.544V629.554ZM295.785 630.236C287.377 634.331 283.349 644.464 284.751 653.403C285.083 655.384 285.292 657.839 285.841 659.773C289.387 676.247 300.268 692.333 315.397 700.105C326.004 705.196 338.231 701.669 348.042 696.2C358.194 690.541 367.095 682.778 375.076 674.361C377.048 672.256 379.048 670.171 380.517 667.678C390.508 650.17 376.052 638.151 360.033 633.478C357.673 632.834 353.985 631.81 351.578 631.137C334.042 626.824 312.923 622.72 295.785 630.217V630.236Z" fill="#100024"/>
<path d="M154.274 622.691L262.741 485.759L538.89 378.277L190.265 660.18L154.274 622.691Z" fill="#E91EF4"/>
<path d="M307.368 662.939L665.548 338.58L597.726 512.281L338.212 678.238L307.368 662.939Z" fill="#E91EF4"/>
<path d="M610.087 508.063L340.013 680.513L338.411 678.067L603.84 498.565L610.087 508.063Z" fill="#100024"/>
<path d="M306.363 661.848L672.695 319.138L680.401 327.518L308.373 664.029L306.363 661.848Z" fill="#100024"/>
<path d="M300.771 470.915L166.104 632.142L179.858 648.389L466.121 406.449L300.771 470.915Z" fill="#F276FF"/>
<path d="M653.377 369.784L320.335 665.517L329.776 672.683L610.674 479.541L653.377 369.784Z" fill="#F276FF"/>
<path d="M551.611 374.05L190.977 661.053L189.555 659.308L544.445 365.225L551.611 374.05Z" fill="#100024"/>
<path d="M153.317 621.933L264.533 473.958L273.462 481.01L155.222 623.44L153.317 621.933Z" fill="#100024"/>
<path d="M-22.0528 1256.24L-2.19447 1230.66L-111.562 1273.11L-98.6519 1105.7L-130.359 1087.49L595.868 805.577L634.599 827.824L628.409 908.594L608.845 937.495L601.48 940.358L636.154 982.852L581.764 1003.97L561.611 1072.95L544.142 1079.73L571.886 1095.67L564.351 1193.44L-35.1337 1426.15L-22.0528 1256.24Z" fill="#100024"/>
<path fill-rule="evenodd" clip-rule="evenodd" d="M572.209 871.882L619.31 853.607L620.731 835.161L594.759 820.241L477.723 865.673L502.501 879.911L485.117 886.659L483.6 906.281L530.691 888.005L572.209 871.882ZM468.974 911.96L440.509 923.012L392.934 941.477L345.956 959.714L347.464 940.093L364.744 933.382L339.966 919.154L472.377 867.75L468.974 911.96ZM328.477 966.5L331.511 962.112L334.724 921.182L189.649 977.505L209.062 1012.85L268.191 989.904L328.477 966.5ZM133.913 1042.03L181.004 1023.74L182.436 1005.31L156.463 990.387L48.7451 1032.2L45.2948 1076.43L64.3474 1069.03L133.913 1042.03ZM-99.6663 1089.81L-36.6125 1065.34L-40.006 1109.54L-87.0498 1127.8L-84.7844 1098.36L-99.6663 1089.81ZM19.8724 1207.85L-96.7088 1253.11L-88.4716 1146.24L-41.4183 1127.97L-46.2241 1190.62L2.81032 1171.59L24.7824 1144.14L19.8724 1207.85ZM35.6642 1201.72L43.8825 1094.86L132.529 1060.46L179.583 1042.19L171.317 1149.06L124.302 1167.31L129.051 1104.69L87.5423 1120.81L82.6797 1183.47L35.6642 1201.72ZM185.99 1143.37L188.986 1104.48L251.291 1014.35L311.557 990.957L254.087 1074.05L304.467 1054.48L326.553 1027L321.643 1090.71L185.99 1143.37ZM336.316 1085.02L459.286 1037.28L464.206 973.562L442.224 1001.01L386.687 1022.57L388.071 1004.09L430.707 987.534L433.76 943.751L344.535 978.16L336.316 1085.02ZM617.897 872.044L615.442 904.073L600.181 926.623L579.65 934.595L614.324 977.099L565.962 995.867L531.288 953.373L525.449 955.638L520.975 1013.34L473.96 1031.58L482.188 924.728L617.897 872.044Z" fill="url(#paint3_linear_412_26278)"/>
<path d="M83.9118 1244.15L112.377 1233.1L115.77 1188.9L17.3698 1227.09L-9.13324 1261.23L-10.6404 1280.85L36.3371 1262.61L83.9118 1244.15Z" fill="white"/>
<path d="M-20.2898 1406.15L102.69 1358.42L107.6 1294.7L85.6276 1322.15L30.2044 1343.67L34.9438 1281.05L-12.0621 1299.3L-20.2898 1406.15Z" fill="white"/>
<path d="M125.581 1245.86L117.363 1352.72L164.369 1334.47L169.232 1271.81L210.749 1255.69L206 1318.31L253.016 1300.06L261.272 1193.19L214.219 1211.45L125.581 1245.86Z" fill="white"/>
<path d="M215.612 1193.03L262.703 1174.74L264.125 1156.3L238.162 1141.39L130.444 1183.2L126.994 1227.43L146.046 1220.03L215.612 1193.03Z" fill="white"/>
<path d="M308.079 1278.69L355.094 1260.43L363.379 1153.55L316.278 1171.84L308.079 1278.69Z" fill="white"/>
<path d="M364.81 1135.1L411.152 1117.12L414.631 1072.88L263.376 1131.6L278.268 1140.15L275.945 1169.61L317.69 1153.4L364.81 1135.1Z" fill="white"/>
<path d="M424.347 1129.89L420.963 1174.09L509.496 1139.72L508.103 1158.15L438.651 1185.11L416.101 1236.75L551.753 1184.1L558.009 1103L532.037 1088.08L471.448 1111.6L424.347 1129.89Z" fill="white"/>
<path d="M550.71 1062.95L564.844 1014.57L453.864 1057.65L427.257 1091.83L425.75 1111.45L472.841 1093.18L550.71 1062.95Z" fill="white"/>
<path d="M377.208 1262.84L417.38 1247.28L433.257 1240.77L432.309 1247.12L378.479 1268.88L377.208 1262.84Z" fill="#100024"/>
<path d="M557.754 1141.4C556.285 1146.21 553.735 1150.64 550.19 1154.21C506.397 1198.29 432.045 1177.03 388.536 1174.8C373.806 1174.05 359.161 1176.78 345.929 1183.4C340.706 1186.02 334.317 1190 330.118 1194.2L309.207 1215.14L326.914 1213.08C321.672 1219.37 317.056 1226 313.681 1232.36C296.288 1264.86 293.292 1294.01 298.401 1328.06C300.534 1328.79 325.103 1309.01 345.483 1302.95C354.365 1300.29 363.702 1298.45 372.83 1296.9C408.177 1290.84 442.813 1288.4 478.643 1288.41C481.183 1288.41 483.942 1288.18 486.757 1287.85L470.738 1303.09L506.644 1295.25C518.966 1292.57 536 1281.49 545.801 1274.21C549.128 1271.72 552.313 1269.04 555.375 1266.23C559.726 1262.25 564.133 1257.71 568.408 1252.9L568.19 1260L586.153 1243.55C594.561 1235.84 601.49 1214.57 604.362 1204.18C607.073 1194.45 608.277 1181.93 607.86 1168.34C607.177 1146 599.442 1124.34 585.195 1107.13C580.74 1101.75 576.067 1098.72 571.868 1095.67L557.745 1141.4H557.754Z" fill="#100024"/>
<path d="M572.313 1114.62C572.143 1114.48 571.735 1114.35 571.564 1114.21L570.01 1134.79C568.92 1147.4 565.413 1159.69 559.564 1170.9C559.469 1171.07 559.384 1171.26 559.289 1171.43C538.777 1210.52 514.378 1213.69 514.378 1213.69C514.378 1213.69 534.056 1207.39 547.033 1185.06C553.09 1174.69 558.038 1162.87 561.659 1153.19L559.735 1153.93C554.72 1160.42 548.948 1166.15 542.919 1170.62C516.501 1190.17 479.467 1190.23 442.395 1191.34C453.96 1195.28 467.78 1202.17 467.837 1202.2L475.941 1205.84C475.941 1205.84 458.339 1208.14 444.462 1214.68C436.935 1218.22 430.518 1222.01 426.148 1224.78C427.826 1225.03 429.978 1225.36 432.698 1225.79C447.248 1228.02 472.14 1244.08 472.188 1244.1L463.069 1244.39C463.069 1244.39 456.396 1244.92 445.286 1250.09C438.566 1253.24 432.291 1258.89 428.423 1262.8C430.717 1263.29 433.713 1264.06 437.504 1265.24C448.86 1268.83 460.765 1273.66 460.813 1273.67L465.922 1275.72C465.922 1275.72 469.524 1278.1 478.643 1278.11C487.771 1278.11 518.577 1271.74 518.577 1271.74L504.454 1285.18C504.454 1285.18 517.677 1282.31 539.658 1265.94C561.631 1249.58 579.65 1220.99 579.65 1220.99L579.186 1235.96C579.186 1235.96 586.797 1229 594.447 1201.41C597.584 1190.1 597.11 1173.62 595.451 1158.11C593.641 1141.17 585.347 1125.56 572.294 1114.62H572.313Z" fill="#9A4DFF"/>
<path d="M413.646 1270.64C413.693 1270.6 430.433 1250.24 442.67 1244.51C447.182 1242.39 451.069 1241 454.178 1240.05C448.263 1237.01 439.514 1233.1 431.77 1231.9C417.106 1229.63 416.309 1228.97 416.3 1228.95L408.869 1228.4L416.3 1223.97C416.3 1223.97 427.04 1216.05 441.817 1209.09C447.571 1206.38 452.481 1204.69 456.377 1203.64C392.868 1174.76 327.265 1206.62 309.89 1275.87C308.506 1282.04 306.875 1291.96 306.316 1305.58C306.202 1308.49 306.24 1311.25 306.392 1313.8C306.392 1313.8 345.35 1262.04 374.697 1251.73C404.063 1241.4 405.778 1244.2 405.778 1244.2C405.778 1244.2 375.237 1247.4 348.365 1274.87C342.308 1281.09 337.445 1287.09 333.559 1292.7C336.687 1290.9 340.175 1289.03 344.014 1287.08C379.579 1269.24 392.385 1270.31 392.385 1270.31C392.385 1270.31 376.944 1274.06 355.076 1285.86C350.81 1288.17 347.047 1290.32 343.748 1292.35C375.522 1281.76 414.632 1281.46 452.49 1277.38L452.784 1277.19C448.348 1275.51 441.903 1273.12 435.627 1271.16C423.314 1267.26 424.746 1267.57 413.636 1270.64H413.646Z" fill="#9A4DFF"/>
<path d="M531.459 1205.63C518.113 1216.44 504.406 1214.58 504.406 1214.58C504.406 1214.58 520.416 1208.66 534.663 1190.57C540.407 1183.31 544.711 1174.53 547.858 1166.62C552.085 1162.93 556.114 1158.63 559.735 1153.94L561.659 1153.2C558.038 1162.88 553.09 1174.7 547.033 1185.07C534.057 1207.4 514.378 1213.7 514.378 1213.7C514.378 1213.7 521.592 1212.76 531.478 1205.62H531.459V1205.63ZM460.481 1228.54C477.638 1235.18 489.307 1245.53 489.307 1245.53L472.188 1244.13C472.188 1244.13 447.249 1228.05 432.698 1225.82C429.969 1225.39 427.826 1225.06 426.149 1224.81C426.149 1224.81 443.315 1221.88 460.481 1228.55V1228.54ZM466.965 1265.79C478.245 1270.53 494.046 1269.88 507.942 1267.05C521.829 1264.2 529.725 1257.85 529.725 1257.85L518.587 1271.76C518.587 1271.76 487.771 1278.14 478.652 1278.13C469.524 1278.13 465.932 1275.74 465.932 1275.74L460.822 1273.69C460.822 1273.69 448.87 1268.85 437.514 1265.26C433.713 1264.07 430.727 1263.3 428.433 1262.82C430.395 1260.86 432.954 1258.44 435.874 1256.12C441.599 1257.6 457.808 1261.93 466.974 1265.78L466.965 1265.79ZM551.157 1250.22C572.029 1230.57 578.996 1211.56 578.996 1211.56L579.669 1221C579.669 1221 561.65 1249.6 539.678 1265.95C517.686 1282.32 504.473 1285.19 504.473 1285.19L514.265 1275.86C514.265 1275.86 530.312 1269.85 551.166 1250.22H551.157ZM571.555 1114.23L571.783 1111.57C575.726 1113.67 579.337 1117.44 582.427 1121.59C589.404 1130.96 593.546 1142.12 594.968 1153.71C597.006 1170.44 597.916 1189.04 594.466 1201.43C586.816 1229.02 579.205 1235.98 579.205 1235.98L579.451 1228.04C583.138 1220.95 596.504 1192.7 593.755 1161.62C593.48 1158.51 593.177 1155.61 592.873 1152.9C591.338 1139.18 585.034 1126.38 574.873 1117.03C572.882 1115.2 571.555 1114.24 571.555 1114.24V1114.23ZM306.392 1313.82C306.392 1313.82 319.122 1296.91 335.521 1280.49C330.772 1283.32 326.497 1286.7 322.99 1290.65C314.582 1300.2 309.425 1307.23 306.316 1312.29C306.326 1312.81 306.364 1313.32 306.392 1313.82V1313.82ZM348.365 1274.89C342.308 1281.11 337.445 1287.11 333.559 1292.72C336.687 1290.92 340.175 1289.05 344.014 1287.1C379.579 1269.26 392.385 1270.33 392.385 1270.33C392.385 1270.33 376.944 1274.08 355.076 1285.88C350.81 1288.19 347.047 1290.34 343.748 1292.37C375.522 1281.78 414.632 1281.48 452.49 1277.4L452.784 1277.21C448.348 1275.53 441.903 1273.14 435.627 1271.18C423.314 1267.28 424.746 1267.59 413.636 1270.66C413.684 1270.62 430.424 1250.26 442.661 1244.53C447.173 1242.41 451.059 1241.02 454.168 1240.07L453.818 1239.89C450.917 1240.19 435.39 1242.17 424.698 1251.55C412.85 1261.96 405.475 1270.41 405.475 1270.41L396.641 1271.22L403.608 1265.02C403.608 1265.02 374.46 1264.63 349.275 1274C348.971 1274.3 348.658 1274.59 348.355 1274.9L348.365 1274.89Z" fill="#461691"/>
<path d="M388.015 1185.08C355.417 1183.44 337.407 1201.45 337.407 1201.45L355.72 1199.3C321.046 1225.68 307.757 1263.3 306.07 1305.58C306.013 1307.05 305.994 1308.46 306.003 1309.85L305.444 1317.15C305.444 1317.15 308.515 1304.94 344.023 1287.09C379.588 1269.25 392.394 1270.32 392.394 1270.32C392.394 1270.32 376.953 1274.07 355.085 1285.87C350.289 1288.45 346.147 1290.87 342.573 1293.07C370.356 1284.78 417.058 1280.77 422.063 1280.37H422.31L422.442 1280.36H422.49C432.49 1279.54 442.576 1278.72 452.547 1277.64L452.661 1277.6L453.372 1277.14L452.889 1276.96C450.671 1276.11 447.96 1275.11 445.002 1274.05C442.054 1272.99 438.869 1271.91 435.751 1270.92L434.992 1270.68C429.447 1268.92 426.822 1268.09 424.376 1268.04C422.158 1268 420.12 1268.56 416.262 1269.65L414.385 1270.18C417.333 1266.69 431.883 1249.85 442.794 1244.75C445.031 1243.68 447.125 1242.81 449.04 1242.07C450.974 1241.35 452.718 1240.76 454.254 1240.3L454.31 1239.83C451.334 1238.3 447.675 1236.56 443.77 1235.04C439.865 1233.53 435.722 1232.24 431.817 1231.64C417.257 1229.38 416.49 1228.76 416.48 1228.75L416.347 1228.7L409.712 1228.2C411.674 1227.05 414.736 1225.44 416.471 1224.17C416.897 1223.87 427.466 1216.15 441.94 1209.33C444.803 1207.98 447.457 1206.89 449.893 1206C452.329 1205.1 454.519 1204.42 456.453 1203.9L456.5 1203.42C452.69 1201.68 448.86 1200.17 445.04 1198.86C431.893 1193.72 409.314 1186.17 388.034 1185.08H388.015ZM305.435 1317.15L305.34 1318.34C305.387 1317.96 305.473 1317.56 305.567 1317.17L305.435 1317.15Z" fill="white"/>
<path d="M424.708 1251.52C412.859 1261.93 405.485 1270.39 405.485 1270.39L396.65 1271.19L403.617 1264.99C403.617 1264.99 346.327 1264.22 322.99 1290.63C314.032 1300.79 308.79 1308.09 305.738 1313.23L305.425 1317.14C305.425 1317.14 308.496 1304.94 344.004 1287.09C379.569 1269.25 392.375 1270.32 392.375 1270.32C392.375 1270.32 376.934 1274.07 355.066 1285.87C350.27 1288.45 346.128 1290.87 342.554 1293.07C370.337 1284.78 417.039 1280.77 422.044 1280.37H422.291L422.423 1280.36H422.471C432.471 1279.54 442.557 1278.72 452.528 1277.64L452.642 1277.6L453.353 1277.14L452.87 1276.96C450.652 1276.11 447.941 1275.11 444.983 1274.05C442.035 1272.99 438.85 1271.91 435.732 1270.92L434.973 1270.68C429.428 1268.92 426.803 1268.09 424.357 1268.04C422.139 1268 420.101 1268.56 416.243 1269.65L414.366 1270.18C417.314 1266.69 431.864 1249.85 442.775 1244.74C445.012 1243.68 447.107 1242.81 449.021 1242.07C450.955 1241.35 452.699 1240.76 454.235 1240.3L454.292 1239.83C454.292 1239.83 436.528 1241.14 424.698 1251.53L424.708 1251.52ZM384.669 1190.29C384.669 1190.29 378.991 1189.13 360.81 1193.41C342.658 1197.68 337.407 1201.45 337.407 1201.45L355.72 1199.3C366.706 1194.08 384.678 1190.29 384.678 1190.29H384.669ZM305.435 1317.14L305.34 1318.33C305.387 1317.95 305.473 1317.55 305.567 1317.16L305.435 1317.14Z" fill="#DCC5FF"/>
<path d="M234.049 509.105V521.342L629.945 367.253L462.386 796.222L479.041 784.847L649.964 347.262L234.049 509.105Z" fill="#100024"/>
<path d="M215.214 504.252L235.376 508.65L649.964 347.262L479.04 784.847H491.249L669.993 327.262L215.214 504.252Z" fill="white"/>
</g>
<g filter="url(#filter0_f_412_26278)">
<path d="M146.774 638.692L255.241 501.759L531.391 394.278L182.766 676.181L146.774 638.692Z" fill="#FF4DCD"/>
</g>
<g filter="url(#filter1_f_412_26278)">
<path d="M299.868 678.94L658.048 354.581L590.226 528.282L330.713 694.239L299.868 678.94Z" fill="#FF4DCD"/>
</g>
<rect width="1680" height="1342" fill="url(#paint4_linear_412_26278)"/>
<defs>
<filter id="filter0_f_412_26278" x="96.7742" y="344.278" width="484.616" height="381.903" filterUnits="userSpaceOnUse" color-interpolation-filters="sRGB">
<feFlood flood-opacity="0" result="BackgroundImageFix"/>
<feBlend mode="normal" in="SourceGraphic" in2="BackgroundImageFix" result="shape"/>
<feGaussianBlur stdDeviation="25" result="effect1_foregroundBlur_412_26278"/>
</filter>
<filter id="filter1_f_412_26278" x="249.868" y="304.581" width="458.18" height="439.658" filterUnits="userSpaceOnUse" color-interpolation-filters="sRGB">
<feFlood flood-opacity="0" result="BackgroundImageFix"/>
<feBlend mode="normal" in="SourceGraphic" in2="BackgroundImageFix" result="shape"/>
<feGaussianBlur stdDeviation="25" result="effect1_foregroundBlur_412_26278"/>
</filter>
<radialGradient id="paint0_radial_412_26278" cx="0" cy="0" r="1" gradientUnits="userSpaceOnUse" gradientTransform="translate(204.355 855.388) rotate(-122.957) scale(314.863 289.011)">
<stop stop-color="#9A4DFF"/>
<stop offset="0.753162" stop-color="#100024"/>
</radialGradient>
<linearGradient id="paint1_linear_412_26278" x1="10.5967" y1="604.459" x2="109.336" y2="635.566" gradientUnits="userSpaceOnUse">
<stop stop-color="#EDB524"/>
<stop offset="0.333333" stop-color="#FFF0A4"/>
<stop offset="0.666667" stop-color="#DFBB5F"/>
<stop offset="1" stop-color="#D29E18"/>
</linearGradient>
<linearGradient id="paint2_linear_412_26278" x1="66.0945" y1="591.371" x2="313.473" y2="795.365" gradientUnits="userSpaceOnUse">
<stop stop-color="#EDB524"/>
<stop offset="0.333333" stop-color="#FFF0A4"/>
<stop offset="0.666667" stop-color="#DFBB5F"/>
<stop offset="1" stop-color="#D29E18"/>
</linearGradient>
<linearGradient id="paint3_linear_412_26278" x1="-141.228" y1="880.361" x2="529.399" y2="1284.54" gradientUnits="userSpaceOnUse">
<stop stop-color="#EDB524"/>
<stop offset="0.333333" stop-color="#FFF0A4"/>
<stop offset="0.666667" stop-color="#DFBB5F"/>
<stop offset="1" stop-color="#D29E18"/>
</linearGradient>
<linearGradient id="paint4_linear_412_26278" x1="840" y1="0" x2="840" y2="1212.06" gradientUnits="userSpaceOnUse">
<stop stop-color="#100024" stop-opacity="0.8"/>
<stop offset="1" stop-color="#100024"/>
</linearGradient>
<clipPath id="clip0_412_26278">
<rect width="931.01" height="1161.29" fill="white" transform="translate(-220.968 282)"/>
</clipPath>
</defs>
</svg>
