<svg width="1680" height="178" viewBox="0 0 1680 178" fill="none" xmlns="http://www.w3.org/2000/svg">
<path d="M1680 0.415095H0V0.740291H19.3695L10.3006 2.05966H0V2.38485H8.06131L0 3.56485V4.15949H39.1869L29.0431 5.72043H0V6.06421H26.8263L15.7643 7.77381H0V8.12688H13.4803L1.38834 9.99443H0V10.5612L1.29877 10.3568H44.494L31.9765 12.4009H0V12.7725H29.6701L15.9211 15.0117H0V15.402H13.5475L0 17.604V18.2637H44.1357L28.3042 20.9953H0V21.4134H25.9082L8.35242 24.4517H0V24.8884H5.82206L0 25.8919V26.4122L8.73309 24.8884H56.362L37.933 28.2797H0V28.7443H35.4474L14.7791 32.5444H0V33.0276H12.1368L0.156748 35.2203L0 35.2482V35.8707L15.3613 33.0183H65.5206L43.7326 37.3016H0V37.8219H41.0903L16.3466 42.6812H0V43.2387H13.5251L0.156748 45.8774L0 45.9053V46.6486L17.1303 43.248H70.5141L44.1581 48.8135H0V49.4174H41.2918L10.8828 55.8377H0V56.4974H7.7926L0.156748 58.1048L0 58.1327V59.0246L11.868 56.4881H69.3945L36.6342 63.9583H0V64.683H33.4321L0.134355 72.2833L0 72.3205V73.3797L37.6642 64.6923H97.9226L62.3856 73.5005H0V74.3181H59.0939L16.66 84.8359H0V85.765H12.8981L0 88.9612V90.2341L17.8245 85.765H84.7558L37.7762 98.5127H0V99.6091H33.7456L0 108.761V110.294L38.963 99.5998H110.462L57.8623 115.376H0V116.677H53.5406L0.111963 132.686L0 132.723V134.591L59.0715 116.668H136.214L76.5153 136.672H0V138.27H71.7681L0.111963 162.279L0 162.316V166.46H87.7564L58.6013 177.526L58.0639 177.73H64.9608L94.2726 166.46H187.851L162.1 177.73H168.504L193.897 166.46H287.923L266.135 177.73H272.114L293.566 166.46H387.996L370.149 177.73H375.724L393.258 166.46H488.023L474.117 177.73H479.357L492.972 166.46H588.028L578.063 177.73H583.034L592.73 166.46H687.988L682.032 177.591L681.965 177.73H686.734L692.512 166.46H787.904L785.821 177.61V177.73H790.479L792.315 166.46H887.752L889.588 177.73H894.268L892.164 166.46H987.556L993.266 177.637L993.311 177.73H998.08L992.057 166.46H1087.31L1096.94 177.656L1097.01 177.73H1101.98L1092.02 166.46H1187.07L1200.62 177.665L1200.69 177.73H1205.93L1192.02 166.46H1286.79L1304.25 177.675L1304.34 177.73H1309.92L1292.07 166.46H1386.48L1407.86 177.684L1407.95 177.73H1413.93L1392.14 166.46H1486.17L1511.47 177.693L1511.56 177.73H1517.99L1492.24 166.46H1585.82L1615.04 177.702L1615.13 177.73H1622.03L1592.33 166.46H1680.09V162.316L1608.32 138.27H1680.09V136.672H1603.57L1543.88 116.668H1621.02L1679.64 134.461L1680.09 134.6V132.733L1626.55 116.677H1680.09V115.376H1622.23L1569.63 99.5998H1641.13L1679.64 110.173L1680.07 110.294V108.761L1646.32 99.5998H1680.07V98.5034H1642.29L1595.31 85.7557H1662.24L1680.07 90.2248V88.9519L1667.17 85.7557H1680.07V84.8266H1663.41L1620.97 74.3088H1680.04V73.4912H1617.66L1582.12 64.683H1642.38L1679.62 73.2682L1680.04 73.3611V72.3019L1646.61 64.683H1680.04V63.9583H1643.43L1610.67 56.4881H1668.2L1680.04 59.0153V58.1234L1672.27 56.4788H1680.04V55.8191H1669.16L1638.75 49.3989H1680.04V48.7949H1635.91L1609.55 43.2294H1662.91L1680.04 46.63V45.8867L1666.52 43.2294H1680.04V42.6719H1663.7L1638.95 37.8126H1680.04V37.2923H1636.31L1614.52 33.009H1664.68L1680.04 35.8614V35.2389L1667.91 33.009H1680.04V32.5258H1665.29L1644.62 28.7257H1680.04V28.2611H1642.11L1623.68 24.8698H1671.31L1680.02 26.3936V25.8733L1674.22 24.8698H1680.02V24.4331H1671.69L1654.14 21.3949H1680.04V20.9768H1651.74L1635.91 18.2451H1680.04V17.5761L1666.5 15.3648H1680.04V14.9746H1664.12L1650.37 12.7354H1680.04V12.3637H1648.09L1635.57 10.3196H1678.77L1680.04 10.5147V9.95726H1678.66L1666.56 8.099H1680.02V7.74593H1664.28L1653.22 6.03633H1680.02V5.69256H1650.98L1640.84 4.13162H1680.02V3.53697L1671.98 2.35698H1680.02V2.03178H1669.74L1660.68 0.703125H1680.02V0.37793L1680 0.415095ZM564.135 2.05966L567.113 0.730999H608.405L605.852 2.05966H564.135V2.05966ZM606.614 2.05966L609.144 0.730999H650.481L648.376 2.05966H606.614ZM649.092 2.05966L651.153 0.730999H692.534L690.899 2.05966H649.092ZM691.571 2.05966L693.183 0.730999H734.61L733.445 2.05966H691.594H691.571ZM734.05 2.05966L735.192 0.730999H776.64L775.924 2.05966H734.05ZM776.551 2.05966L777.223 0.730999H818.694L818.447 2.05966H776.551ZM861.307 0.730999H902.778L903.449 2.05966H861.553L861.307 0.730999ZM100.431 49.4174L72.2831 55.8377H14.9358L45.009 49.4174H100.431V49.4174ZM818.761 3.825L818.985 2.38485H860.993L861.239 3.825H818.761ZM1581.38 37.3016L1561.1 33.0183H1611.43L1633 37.3016H1581.38V37.3016ZM1576.95 48.8042L1552.54 43.2387H1606.1L1632.17 48.8042H1576.93H1576.95ZM1513.8 136.663L1461.11 116.659H1538.64L1597.6 136.663H1513.8V136.663ZM796.883 138.261H883.139L887.394 164.407H792.606L796.861 138.261H796.883ZM218.887 116.668L166.197 136.672H82.4269L141.386 116.668H218.909H218.887ZM162.391 64.683L129.944 73.4912H66.7522L101.886 64.683H162.391ZM87.3309 28.735L68.0061 32.5351H17.9812L38.4256 28.735H87.3309ZM1456.3 116.668L1508.29 136.672H1424.12L1378.44 116.668H1456.3ZM1373.96 116.668L1419.02 136.672H1334.46L1295.77 116.668H1373.94H1373.96ZM1291.62 116.668L1329.71 136.672H1244.82L1213.14 116.668H1291.6H1291.62ZM1209.26 116.668L1240.39 136.672H1155.21L1130.51 116.668H1209.24H1209.26ZM1126.88 116.668L1151.04 136.672H1065.64L1047.95 116.668H1126.88V116.668ZM1044.48 116.668L1061.67 136.672H976.091L965.387 116.668H1044.48V116.668ZM962.051 116.668L972.284 136.672H886.588L882.871 116.668H962.073H962.051ZM384.166 116.668L345.494 136.672H260.94L305.994 116.668H384.166ZM301.516 116.668L255.835 136.672H171.661L223.657 116.668H301.516ZM159.569 49.4174L133.661 55.8377H76.0898L103.924 49.4174H159.547H159.569ZM99.3109 37.8312H151.262L129.922 42.6905H76.5153L99.3109 37.8312V37.8312ZM118.927 33.0276L98.6391 37.3109H47.0243L68.5883 33.0276H118.927V33.0276ZM1526.5 37.3109L1507.71 33.0276H1558.21L1578.27 37.3109H1526.48H1526.5ZM1457.71 115.376L1416.17 99.5998H1488.34L1534.83 115.376H1457.73H1457.71ZM797.152 136.672L800.421 116.668H879.646L882.915 136.672H797.174H797.152ZM226.881 64.6923L197.525 73.5005H134.064L166.153 64.6923H226.904H226.881ZM184.447 43.248L161.988 48.8135H106.544L130.683 43.248H184.447ZM953.34 99.5998L961.401 115.376H882.624L879.691 99.5998H953.34ZM493.867 99.5998L468.877 115.376H390.817L420.845 99.5998H493.845H493.867ZM417.195 99.5998L386.697 115.376H308.927L344.442 99.5998H417.195ZM198.644 74.3088H262.62L231.248 84.8266H164.003L198.644 74.3088V74.3088ZM218.686 49.4081L195.039 55.8284H137.244L162.861 49.4081H218.708H218.686ZM172.311 33.0183L153.523 37.3016H101.729L121.793 33.0183H172.311ZM92.4588 28.2704L109.522 24.8791H157.442L141.386 28.2704H92.4588V28.2704ZM1493.31 42.6812L1473.7 37.8219H1525.83L1546.92 42.6812H1493.31V42.6812ZM1375.93 85.7464L1409.07 98.4941H1336.95L1307.84 85.7464H1375.93V85.7464ZM1304.34 85.7464L1333.05 98.4941H1260.66L1236 85.7464H1304.34ZM1232.75 85.7464L1257.03 98.4941H1184.36L1164.17 85.7464H1232.73H1232.75ZM1161.14 85.7464L1180.98 98.4941H1108.09L1092.35 85.7464H1161.12H1161.14ZM1089.53 85.7464L1104.94 98.4941H1031.87L1020.58 85.7464H1089.53ZM1017.9 85.7464L1028.87 98.4941H955.669L948.839 85.7464H1017.9V85.7464ZM800.578 115.358L803.153 99.5812H876.825L879.4 115.358H800.6H800.578ZM291.327 64.6738L265.038 73.4819H201.309L230.33 64.6738H291.327V64.6738ZM241.392 43.2294L220.88 48.7949H165.235L187.448 43.2294H241.392ZM946.241 85.7371L952.758 98.4848H879.467L877.093 85.7371H946.241ZM659.371 85.7371L648.085 98.4848H575.018L590.424 85.7371H659.371ZM515.79 85.7371L495.592 98.4848H422.928L447.201 85.7371H515.767H515.79ZM277.824 49.4174L256.417 55.8377H198.398L221.776 49.4174H277.824V49.4174ZM225.694 33.0276L208.407 37.3109H156.434L175.02 33.0276H225.694V33.0276ZM144.029 28.2797L159.905 24.8884H207.982L193.113 28.2797H144.029ZM1008.07 74.3088L1017.11 84.8266H948.346L942.726 74.3088H1008.07V74.3088ZM803.332 98.5034L805.415 85.7557H874.585L876.668 98.5034H803.355H803.332ZM466.123 74.3088L445.791 84.8266H377.74L401.409 74.3088H466.123ZM398.296 74.3088L374.291 84.8266H306.487L333.828 74.3088H398.296ZM355.817 64.683L332.619 73.4912H268.643L294.596 64.683H355.817V64.683ZM298.381 43.2387L279.817 48.8042H223.948L244.213 43.2387H298.358H298.381ZM1416.71 37.3016L1400.92 33.0183H1451.75L1468.84 37.3016H1416.69H1416.71ZM1385.4 64.683L1411.36 73.4912H1347.38L1324.18 64.683H1385.4ZM1321.16 64.683L1344.04 73.4912H1279.82L1259.71 64.683H1321.16V64.683ZM1256.92 64.683L1276.76 73.4912H1212.31L1195.27 64.683H1256.92ZM1192.65 64.683L1209.42 73.4912H1144.77L1130.82 64.683H1192.65ZM1128.38 64.683L1142.09 73.4912H1077.26L1066.4 64.683H1128.38ZM1064.09 64.683L1074.73 73.4912H1009.77L1001.98 64.683H1064.09ZM940.397 74.3088L945.771 84.8266H876.937L874.988 74.3088H940.397V74.3088ZM669.492 74.3088L660.199 84.8266H591.566L604.263 74.3088H669.492V74.3088ZM533.928 74.3088L517.268 84.8266H448.993L469.012 74.3088H533.928ZM420.263 64.683L400.155 73.4912H335.933L358.818 64.683H420.263ZM336.918 49.4081L317.773 55.8284H259.53L280.69 49.4081H336.941H336.918ZM279.056 33.0183L263.269 37.3016H211.117L228.202 33.0183H279.033H279.056ZM195.576 28.2704L210.266 24.8791H258.477L244.795 28.2704H195.554H195.576ZM999.782 64.683L1007.35 73.4912H942.278L937.553 64.683H999.782ZM805.549 84.8173L807.251 74.2995H872.682L874.384 84.8173H805.527H805.549ZM613.578 64.683L602.718 73.4912H537.891L551.595 64.683H613.578ZM484.709 64.683L467.668 73.4912H403.222L423.062 64.683H484.709V64.683ZM355.325 43.2387L338.71 48.8042H282.661L301 43.2387H355.325ZM1379.76 42.6812L1363.55 37.8219H1416.01L1433.73 42.6812H1379.76V42.6812ZM1054.17 56.4788L1063.2 63.949H1001.3L994.699 56.4788H1054.17V56.4788ZM935.471 64.683L939.972 73.4912H874.832L873.197 64.683H935.471ZM678.001 64.683L670.209 73.4912H605.248L615.884 64.683H678.001ZM438.983 56.4788L421.92 63.949H360.699L380.113 56.4788H438.961H438.983ZM396.034 49.3989L379.128 55.8191H320.684L339.605 49.3989H396.034V49.3989ZM332.44 33.009L318.153 37.2923H265.844L281.452 33.009H332.44ZM247.146 28.2611L260.672 24.8698H309.017L296.522 28.2611H247.146V28.2611ZM1340.33 49.3989L1359.25 55.8191H1300.8L1283.9 49.3989H1340.33V49.3989ZM1281.39 49.3989L1298.07 55.8191H1239.43L1224.76 49.3989H1281.37H1281.39ZM1222.45 49.3989L1236.92 55.8191H1178.09L1165.69 49.3989H1222.48H1222.45ZM1163.52 49.3989L1175.74 55.8191H1116.76L1106.59 49.3989H1163.52V49.3989ZM1104.56 49.3989L1114.54 55.8191H1055.41L1047.48 49.3989H1104.53H1104.56ZM992.706 56.4788L999.133 63.949H937.15L933.142 56.4788H992.706V56.4788ZM807.363 73.4819L808.796 64.6738H871.092L872.525 73.4819H807.363V73.4819ZM623.677 56.4788L614.451 63.949H552.693L564.314 56.4788H623.655H623.677ZM500.54 56.4788L486.097 63.949H424.697L441.536 56.4788H500.563H500.54ZM412.247 43.2387L397.58 48.8042H341.329L357.743 43.2387H412.247ZM1307.39 20.9953L1298.27 18.2637H1344.72L1354.68 20.9953H1307.39ZM1045.6 49.4081L1053.34 55.8284H994.094L988.407 49.4081H1045.57H1045.6ZM931.238 56.4881L935.068 63.9583H873.018L871.63 56.4881H931.238ZM685.234 56.4881L678.628 63.9583H616.735L625.759 56.4881H685.234ZM573.339 49.4081L563.172 55.8284H504.19L516.417 49.4081H573.361H573.339ZM385.823 33.0183L373.037 37.3016H320.549L334.656 33.0183H385.801H385.823ZM298.739 28.2704L311.077 24.8791H359.557L348.271 28.2704H298.739ZM1345.88 32.5258L1333.21 28.7257H1382.87L1396.71 32.5258H1345.86H1345.88ZM1094.97 43.2387L1103.64 48.8042H1046.76L1039.89 43.2387H1094.97V43.2387ZM986.638 49.4081L992.146 55.8284H932.806L929.38 49.4081H986.638ZM808.93 63.9583L810.14 56.4881H869.771L870.98 63.9583H808.908H808.93ZM632.432 49.4081L624.506 55.8284H565.367L575.354 49.4081H632.41H632.432ZM1306.2 37.8219L1320.53 42.6812H1266.21L1253.4 37.8219H1306.2ZM1251.29 37.8219L1263.95 42.6812H1209.47L1198.36 37.8219H1251.32H1251.29ZM1196.39 37.8219L1207.34 42.6812H1152.7L1143.3 37.8219H1196.39ZM1141.48 37.8219L1150.75 42.6812H1095.98L1088.28 37.8219H1141.5H1141.48ZM1038.19 43.2387L1044.9 48.8042H987.914L982.988 43.2387H1038.16H1038.19ZM927.656 49.4081L930.947 55.8284H871.54L870.353 49.4081H927.656V49.4081ZM691.526 49.4081L685.839 55.8284H626.588L634.336 49.4081H691.504H691.526ZM583.124 43.2387L574.301 48.8042H517.559L528.15 43.2387H583.102H583.124ZM439.207 33.0183L427.921 37.3016H375.277L387.906 33.0183H439.207ZM350.309 28.2704L361.483 24.8791H410.097L399.975 28.2704H350.309ZM1292.68 32.5258L1281.35 28.7257H1331.17L1343.69 32.5258H1292.7H1292.68ZM1292.05 33.009L1304.68 37.2923H1252.03L1240.75 33.009H1292.05ZM1086.55 37.8126L1094.12 42.6719H1039.22L1033.21 37.8126H1086.55V37.8126ZM981.331 43.2294L986.123 48.7949H929.066L926.088 43.2294H981.353H981.331ZM810.252 55.8098L811.304 49.3896H868.629L869.681 55.8098H810.274H810.252ZM640.024 43.2294L633.149 48.7949H576.272L584.938 43.2294H640.024V43.2294ZM536.637 37.8126L527.232 42.6719H472.595L483.544 37.8126H536.637V37.8126ZM400.513 28.7257H450.471L440.461 32.5258H389.317L400.513 28.7257V28.7257ZM763.093 28.2611L764.817 24.8698H814.148L813.521 28.2611H763.093V28.2611ZM760.921 32.5165L762.869 28.7164H813.454L812.737 32.5165H760.921ZM814.036 32.5165L814.663 28.7164H865.248L865.875 32.5165H814.036V32.5165ZM865.74 24.8698H915.071L916.795 28.2611H866.367L865.74 24.8698V24.8698ZM1132.3 32.9997L1140.45 37.283H1087.4L1080.62 32.9997H1132.3ZM1031.6 37.8033L1037.47 42.6627H982.473L978.173 37.8033H1031.6ZM924.476 43.2201L927.32 48.7856H870.196L869.166 43.2201H924.476ZM696.945 43.2201L692.019 48.7856H635.03L641.748 43.2201H696.923H696.945ZM591.678 37.8033L583.975 42.6627H529.203L538.473 37.8033H591.7H591.678ZM654.691 32.5165L659.281 28.7164H709.776L706.417 32.5165H654.691ZM867.173 32.5165L866.457 28.7164H917.042L918.99 32.5165H867.173ZM920.333 32.5165L918.296 28.7164H968.836L972.105 32.5165H920.333V32.5165ZM973.493 32.5165L970.134 28.7164H1020.63L1025.22 32.5165H973.493ZM976.651 37.8033L980.838 42.6627H925.775L923.177 37.8033H976.673H976.651ZM1030.95 37.283H977.703L973.919 32.9997H1025.8L1030.97 37.283H1030.95ZM811.371 48.7856L812.289 43.2201H867.599L868.495 48.7856H811.371ZM646.696 37.8033L640.695 42.6627H585.789L593.357 37.8033H646.696ZM545.908 32.9997L537.622 37.283H484.686L494.338 32.9997H545.908V32.9997ZM452.24 28.7164H502.332L493.643 32.5165H442.365L452.24 28.7164V28.7164ZM453.427 28.2518L462.227 24.8605H511.087L503.339 28.2518H453.404H453.427ZM505.019 28.2518L512.655 24.8605H561.627L555.066 28.2518H505.019ZM556.611 28.2518L563.06 24.8605H612.145L606.771 28.2518H556.611ZM601.576 32.5073L607.487 28.7071H657.893L653.213 32.5073H601.576ZM652.608 32.9904L647.323 37.2737H594.164L600.837 32.9904H652.631H652.608ZM600.03 32.5073H548.505L555.738 28.7071H606.054L600.03 32.5073ZM599.269 32.9904L592.484 37.2737H539.436L547.587 32.9904H599.269ZM495.435 32.5073L503.989 28.7071H554.193L546.848 32.5073H495.435ZM701.715 37.794L697.416 42.6534H642.42L648.286 37.794H701.715ZM648.913 37.2737L654.086 32.9904H705.97L702.185 37.2737H648.913ZM756.733 37.794L754.136 42.6534H699.073L703.26 37.794H756.756H756.733ZM757.002 37.2737H703.685L707.358 32.9904H759.286L757.002 37.2737ZM755.703 42.6534L758.189 37.794H811.729L810.834 42.6534H755.703V42.6534ZM812.356 42.6534L813.14 37.794H866.703L867.487 42.6534H812.356V42.6534ZM868.047 37.2737L867.241 32.9904H919.214L921.408 37.2737H868.047ZM920.557 32.9904H972.486L976.158 37.2737H922.841L920.557 32.9904ZM921.677 37.794L924.162 42.6534H869.032L868.136 37.794H921.677V37.794ZM758.458 37.2737L760.652 32.9904H812.625L811.819 37.2737H758.458ZM658.475 28.2426H608.226L613.511 24.8512H662.685L658.497 28.2426H658.475ZM753.822 43.2108L750.844 48.7763H693.788L698.58 43.2108H753.845H753.822ZM810.722 43.2108L809.692 48.7763H752.568L755.412 43.2108H810.722ZM1073.81 28.6978H1124.13L1131.36 32.498H1079.84L1073.81 28.6978V28.6978ZM1073.1 28.2333L1067.72 24.8419H1116.81L1123.25 28.2333H1073.1V28.2333ZM1026.65 32.4887L1021.97 28.6885H1072.38L1078.29 32.4887H1026.65ZM1079.03 32.9718L1085.7 37.2551H1032.54L1027.26 32.9718H1079.05H1079.03ZM1124.78 28.224L1118.22 24.8326H1167.19L1174.82 28.224H1124.78V28.224ZM1184.43 32.4794H1133.02L1125.67 28.6792H1175.88L1184.43 32.4794V32.4794ZM1176.48 28.224L1168.73 24.8326H1217.59L1226.39 28.224H1176.46H1176.48ZM1237.5 32.4794H1186.22L1177.53 28.6792H1227.63L1237.5 32.4794ZM1229.42 28.6792H1279.38L1290.57 32.4794H1239.43L1229.42 28.6792V28.6792ZM1228.21 28.2147L1219.27 24.8234H1268.02L1278.01 28.2147H1228.21ZM1021.39 28.2147L1017.2 24.8234H1066.38L1071.66 28.2147H1021.41H1021.39ZM969.709 28.2147L966.708 24.8234H1015.95L1020.05 28.2147H969.709ZM918.027 28.2147L916.213 24.8234H965.499L968.41 28.2147H918.027ZM813.252 37.2458L813.946 32.9625H865.942L866.636 37.2458H813.252V37.2458ZM707.806 32.4794L711.075 28.6792H761.615L759.577 32.4794H707.806V32.4794ZM761.861 28.224H711.478L714.389 24.8326H763.675L761.861 28.224ZM710.179 28.224H659.841L663.939 24.8326H713.18L710.179 28.224ZM612.861 24.396H563.911L569.689 21.3577H617.653L612.839 24.396H612.861ZM562.501 24.396H513.662L520.492 21.3577H568.367L562.501 24.396ZM512.14 24.396H463.414L471.296 21.3577H519.059L512.14 24.396V24.396ZM413.165 24.396L422.122 21.3577H469.773L461.779 24.396H413.165ZM460.614 24.8326L451.68 28.224H401.879L411.866 24.8326H460.614ZM492.569 32.9625L482.783 37.2458H430.004L441.133 32.9625H492.569ZM1185.55 32.9625L1195.2 37.2458H1142.27L1133.98 32.9625H1185.55ZM1238.8 32.9625L1249.93 37.2458H1197.15L1187.36 32.9625H1238.8ZM1218.15 24.396L1210.16 21.3577H1257.81L1266.77 24.396H1218.15V24.396ZM1167.77 24.396L1160.85 21.3577H1208.61L1216.5 24.396H1167.77ZM1117.41 24.396L1111.54 21.3577H1159.42L1166.25 24.396H1117.41V24.396ZM1067.05 24.396L1062.23 21.3577H1110.2L1115.98 24.396H1067.05ZM1016.69 24.396L1012.95 21.3577H1061L1065.73 24.396H1016.71H1016.69ZM966.35 24.396L963.663 21.3577H1011.78L1015.46 24.396H966.35ZM814.752 28.224L815.312 24.8326H864.643L865.203 28.224H814.752V28.224ZM664.499 24.396L668.171 21.3577H716.293L713.605 24.396H664.499ZM663.245 24.396H614.227L618.952 21.3577H667.007L663.267 24.396H663.245ZM521.455 20.9396L527.613 18.2079H574.481L569.196 20.9396H521.455ZM472.393 20.9396L479.491 18.2079H526.269L520.022 20.9396H472.393V20.9396ZM423.331 20.9396L431.392 18.2079H478.058L470.848 20.9396H423.331ZM428.638 37.7661H481.596L470.49 42.6255H416.009L428.66 37.7661H428.638ZM750.553 49.3524L747.127 55.7727H687.787L693.295 49.3524H750.553ZM809.602 49.3524L808.415 55.7727H749.008L752.3 49.3524H809.602ZM1306.9 37.2458L1294.11 32.9625H1345.25L1359.36 37.2458H1306.87H1306.9ZM1279.96 28.2147L1269.84 24.8234H1318.45L1329.62 28.2147H1279.96V28.2147ZM1209.06 20.9396L1201.85 18.2079H1248.52L1256.58 20.9396H1209.06ZM1159.89 20.9396L1153.64 18.2079H1200.42L1207.52 20.9396H1159.89ZM1110.74 20.9396L1105.45 18.2079H1152.32L1158.48 20.9396H1110.74ZM916.012 24.396L914.377 21.3577H962.543L965.163 24.396H916.012ZM865.673 24.396L865.113 21.3577H913.302L914.847 24.396H865.651H865.673ZM814.237 24.396H765.041L766.586 21.3577H814.797L814.237 24.396ZM763.899 24.396H714.747L717.367 21.3577H765.534L763.899 24.396ZM618.325 20.9396H570.495L575.712 18.2079H622.669L618.348 20.9396H618.325ZM429.825 18.2079L421.674 20.9396H374.269L383.271 18.2079H429.825ZM420.42 21.3577L411.373 24.396H362.893L372.903 21.3577H420.442H420.42ZM348.764 28.6792H398.587L387.257 32.4794H336.269L348.786 28.6792H348.764ZM526.135 43.1923L515.364 48.7577H458.778L471.318 43.1923H526.135V43.1923ZM1268.51 24.396L1259.45 21.3577H1306.99L1316.99 24.396H1268.51V24.396ZM1258.21 20.9396L1250.06 18.2079H1296.62L1305.62 20.9396H1258.21ZM1061.56 20.9396L1057.24 18.2079H1104.2L1109.42 20.9396H1061.59H1061.56ZM1012.41 20.9396L1009.03 18.2079H1056.05L1060.31 20.9396H1012.39H1012.41ZM963.26 20.9396L960.841 18.2079H1007.93L1011.25 20.9396H963.26ZM914.131 20.9396L912.675 18.2079H959.811L962.163 20.9396H914.131V20.9396ZM815.335 24.396L815.827 21.3577H864.038L864.531 24.396H815.335ZM717.703 20.9396L720.054 18.2079H767.191L765.735 20.9396H717.703V20.9396ZM716.606 20.9396H668.619L671.933 18.2079H719.024L716.606 20.9396V20.9396ZM667.454 20.9396H619.534L623.789 18.2079H670.813L667.432 20.9396H667.454ZM575.22 17.8084H528.464L534.04 15.3369H579.989L575.22 17.8084ZM527.165 17.8084H480.521L486.948 15.3369H532.808L527.165 17.8084V17.8084ZM479.088 17.8084H432.534L439.812 15.3369H485.582L479.066 17.8084H479.088ZM431.012 17.8084H384.569L392.72 15.3369H438.379L431.012 17.8084ZM325.207 20.9396L335.171 18.2079H381.614L372.5 20.9396H325.207ZM373.709 37.7661H426.511L413.702 42.6255H359.378L373.709 37.7661ZM469.191 43.183L456.472 48.7485H400.043L414.508 43.183H469.168H469.191ZM514.222 49.3524L501.817 55.7727H442.992L457.457 49.3524H514.245H514.222ZM746.746 56.4324L742.738 63.9026H680.756L687.182 56.4324H746.746ZM808.259 56.4324L806.87 63.9026H744.821L748.65 56.4324H808.259ZM1151.76 43.1923L1162.35 48.7577H1105.61L1096.79 43.1923H1151.74H1151.76ZM1208.57 43.1923L1221.11 48.7577H1164.52L1153.75 43.1923H1208.57V43.1923ZM1265.36 43.1923L1279.82 48.7577H1223.39L1210.67 43.1923H1265.34H1265.36ZM1322.14 43.1923L1338.56 48.7577H1282.31L1267.64 43.1923H1322.14V43.1923ZM1322.95 42.6348L1308.44 37.7754H1361.09L1377.12 42.6348H1322.97H1322.95ZM1331.66 28.224L1320.38 24.8326H1368.86L1381.19 28.224H1331.66ZM1248.88 17.8084L1241.51 15.3369H1287.17L1295.32 17.8084H1248.88ZM1200.8 17.8084L1194.28 15.3369H1240.05L1247.33 17.8084H1200.78H1200.8ZM1152.72 17.8084L1147.08 15.3369H1192.94L1199.37 17.8084H1152.72ZM1104.67 17.8084L1099.9 15.3369H1145.85L1151.42 17.8084H1104.69H1104.67ZM1056.61 17.8084L1052.7 15.3369H1098.73L1103.44 17.8084H1056.61ZM1008.56 17.8084L1005.51 15.3369H1051.62L1055.47 17.8084H1008.56ZM865.024 20.9396L864.509 18.2079H911.69L913.078 20.9396H865.024ZM815.917 20.9396L816.365 18.2079H863.546L863.994 20.9396H815.917V20.9396ZM814.887 20.9396H766.832L768.221 18.2079H815.402L814.887 20.9396ZM624.461 17.8084L628.312 15.3369H674.418L671.373 17.8084H624.461ZM623.319 17.8084H576.496L581.198 15.3369H627.237L623.319 17.8084ZM487.978 14.9467L493.8 12.7075H538.832L533.704 14.9467H487.956H487.978ZM440.999 14.9467L447.604 12.7075H492.546L486.635 14.9467H440.976H440.999ZM394.019 14.9467L401.409 12.7075H446.261L439.566 14.9467H394.019ZM347.062 14.9467L355.235 12.7075H399.998L392.519 14.9467H347.084H347.062ZM391.22 15.3369L382.98 17.8084H336.649L345.651 15.3369H391.22ZM371.134 21.3577L361.012 24.396H312.667L323.729 21.3577H371.134V21.3577ZM297.059 28.6792H346.726L334.052 32.4794H283.198L297.037 28.6792H297.059ZM455.151 49.3524L440.484 55.7727H381.838L398.52 49.3524H455.128H455.151ZM1341.25 48.7485L1324.63 43.183H1378.95L1397.29 48.7485H1341.25V48.7485ZM1361.8 37.2458L1347.52 32.9625H1398.5L1414.11 37.2458H1361.8ZM1318.94 24.396L1308.82 21.3577H1356.25L1367.31 24.396H1318.97H1318.94ZM1296.98 17.8084L1288.74 15.3369H1334.3L1343.31 17.8084H1296.98ZM1287.46 14.9467L1279.98 12.7075H1324.74L1332.92 14.9467H1287.46ZM1240.39 14.9467L1233.69 12.7075H1278.55L1285.94 14.9467H1240.39V14.9467ZM1193.32 14.9467L1187.41 12.7075H1232.35L1238.96 14.9467H1193.3H1193.32ZM1146.25 14.9467L1141.12 12.7075H1186.16L1191.98 14.9467H1146.23H1146.25ZM960.55 17.8084L958.356 15.3369H1004.53L1007.51 17.8084H960.55V17.8084ZM912.518 17.8084L911.197 15.3369H957.415L959.543 17.8084H912.518ZM864.486 17.8084L864.038 15.3369H910.279L911.555 17.8084H864.509H864.486ZM768.467 17.8084L769.721 15.3369H815.962L815.491 17.8084H768.445H768.467ZM767.482 17.8084H720.457L722.585 15.3369H768.803L767.482 17.8084ZM719.45 17.8084H672.47L675.449 15.3369H721.622L719.427 17.8084H719.45ZM580.818 14.9467H534.98L540.018 12.7075H585.139L580.795 14.9467H580.818ZM288.729 17.8084L298.582 15.3369H344.039L334.925 17.8084H288.707H288.729ZM333.47 18.2079L323.393 20.9396H276.234L287.139 18.2079H333.47ZM318.892 37.7661H371.537L357.027 42.6255H302.881L318.915 37.7661H318.892ZM562.187 56.4231L550.341 63.8933H488.74L502.959 56.4231H562.165H562.187ZM742.447 64.6273L737.745 73.4354H672.672L680.241 64.6273H742.469H742.447ZM806.826 64.6273L805.191 73.4354H740.051L744.552 64.6273H806.826ZM1399.33 49.3524L1420.49 55.7727H1362.25L1343.1 49.3524H1399.35H1399.33ZM1356.65 20.9396L1346.58 18.2079H1392.91L1403.81 20.9396H1356.65V20.9396ZM1345.1 17.8084L1335.98 15.3369H1381.44L1391.29 17.8084H1345.07H1345.1ZM1099.23 14.9467L1094.88 12.7075H1140L1145.04 14.9467H1099.2H1099.23ZM1052.18 14.9467L1048.62 12.7075H1093.81L1098.09 14.9467H1052.18V14.9467ZM1005.13 14.9467L1002.36 12.7075H1047.61L1051.11 14.9467H1005.11H1005.13ZM958.087 14.9467L956.094 12.7075H1001.42L1004.13 14.9467H958.087ZM816.544 17.8084L816.947 15.3369H863.188L863.591 17.8084H816.544ZM676.008 14.9467L678.718 12.7075H724.04L722.047 14.9467H676.008ZM675.001 14.9467H629.006L632.5 12.7075H677.755L674.978 14.9467H675.001ZM627.954 14.9467H582.049L586.326 12.7075H631.514L627.954 14.9467V14.9467ZM539.795 12.3358H494.875L500.182 10.2918H544.452L539.795 12.3358ZM493.643 12.3358H448.814L454.815 10.2918H498.995L493.621 12.3358H493.643ZM447.492 12.3358H402.752L409.47 10.2918H453.583L447.492 12.3358ZM401.341 12.3358H356.691L364.125 10.2918H408.126L401.319 12.3358H401.341ZM355.19 12.3358H310.652L318.78 10.2918H362.692L355.168 12.3358H355.19ZM353.824 12.7075L345.562 14.9467H300.217L309.174 12.7075H353.824ZM321.938 21.3577L310.764 24.396H262.553L274.667 21.3577H321.96H321.938ZM245.445 28.6792H294.977L280.982 32.4794H230.307L245.467 28.6792H245.445ZM549.267 64.6273L535.316 73.4354H470.669L487.441 64.6273H549.267V64.6273ZM1115.71 56.4231L1127.33 63.8933H1065.57L1056.35 56.4231H1115.69H1115.71ZM1177.13 56.4231L1191.35 63.8933H1129.77L1117.93 56.4231H1177.13V56.4231ZM1238.53 56.4231L1255.35 63.8933H1193.95L1179.5 56.4231H1238.53V56.4231ZM1299.93 56.4231L1319.37 63.8933H1258.17L1241.11 56.4231H1299.95H1299.93ZM1361.33 56.4231L1383.37 63.8933H1322.37L1302.69 56.4231H1361.33V56.4231ZM1400.27 48.7485L1381.71 43.183H1435.85L1456.12 48.7485H1400.25H1400.27ZM1399.22 32.4794L1385.22 28.6792H1434.76L1449.92 32.4794H1399.22ZM1383.52 28.224L1371.03 24.8326H1419.37L1432.9 28.224H1383.52ZM1369.44 24.396L1358.26 21.3577H1405.56L1417.67 24.396H1369.46H1369.44ZM1334.64 14.956L1326.38 12.7168H1371.03L1379.98 14.956H1334.64ZM1325.01 12.3451L1317.49 10.301H1361.4L1369.53 12.3451H1324.99H1325.01ZM1278.86 12.3451L1272.05 10.301H1316.05L1323.49 12.3451H1278.86V12.3451ZM1232.71 12.3451L1226.62 10.301H1270.71L1277.43 12.3451H1232.69H1232.71ZM1186.56 12.3451L1181.18 10.301H1225.36L1231.37 12.3451H1186.54H1186.56ZM1140.41 12.3451L1135.75 10.301H1180.02L1185.33 12.3451H1140.41V12.3451ZM1094.26 12.3451L1090.32 10.301H1134.67L1139.27 12.3451H1094.26V12.3451ZM1048.11 12.3451L1044.88 10.301H1089.31L1093.18 12.3451H1048.11V12.3451ZM911.108 14.956L909.898 12.7168H955.266L957.191 14.956H911.108ZM864.083 14.956L863.658 12.7168H909.047L910.189 14.956H864.083ZM817.059 14.956L817.417 12.7168H862.807L863.165 14.956H817.037H817.059ZM816.163 14.956H770.057L771.199 12.7168H816.589L816.163 14.956ZM769.139 14.956H723.055L724.981 12.7168H770.348L769.139 14.956ZM587.065 12.3451L590.939 10.301H635.366L632.141 12.3451H587.065V12.3451ZM585.99 12.3451H540.981L545.572 10.301H589.931L585.99 12.3451V12.3451ZM317.28 10.301L309.062 12.3451H264.635L273.48 10.301H317.302H317.28ZM253.282 14.956L263 12.7168H307.539L298.493 14.956H253.26H253.282ZM296.947 15.3462L286.983 17.8177H240.899L251.625 15.3462H296.97H296.947ZM285.371 18.2172L274.331 20.9489H227.284L239.152 18.2172H285.371ZM264.098 37.7754H316.563L300.351 42.6348H246.385L264.098 37.7754V37.7754ZM318.892 56.4324H377.538L357.855 63.9026H296.858L318.87 56.4324H318.892ZM737.386 74.2531L731.766 84.7708H662.998L672.045 74.2531H737.386V74.2531ZM805.124 74.2531L803.176 84.7708H734.341L739.715 74.2531H805.124V74.2531ZM1422.73 56.4324L1447.36 63.9026H1386.59L1364.29 56.4324H1422.73ZM1423.7 55.7727L1402.29 49.3524H1458.34L1481.71 55.7727H1423.7V55.7727ZM1405.89 20.9396L1394.85 18.2079H1441.07L1452.94 20.9396H1405.89ZM1393.24 17.8084L1383.28 15.3369H1428.62L1439.35 17.8084H1393.26H1393.24ZM1381.71 14.9467L1372.66 12.7075H1417.2L1426.92 14.9467H1381.69H1381.71ZM1371.16 12.3358L1362.94 10.2918H1406.77L1415.61 12.3358H1371.18H1371.16ZM1001.95 12.3358L999.446 10.2918H1043.94L1047.12 12.3358H1001.98H1001.95ZM955.825 12.3358L954.012 10.2918H998.55L1001.01 12.3358H955.825ZM909.697 12.3358L908.6 10.2918H953.183L954.93 12.3358H909.697ZM863.568 12.3358L863.188 10.2918H907.793L908.846 12.3358H863.591H863.568ZM771.356 12.3358L772.408 10.2918H817.014L816.633 12.3358H771.378H771.356ZM725.272 12.3358L727.019 10.2918H771.602L770.505 12.3358H725.272ZM724.376 12.3358H679.188L681.651 10.2918H726.19L724.376 12.3358ZM678.248 12.3358H633.104L636.284 10.2918H680.778L678.27 12.3358H678.248ZM545.303 9.93868H501.145L505.982 8.08042H549.558L545.303 9.93868ZM499.981 9.93868H455.912L461.398 8.08042H504.885L499.981 9.93868ZM454.658 9.93868H410.679L416.815 8.08042H460.234L454.68 9.93868H454.658ZM409.336 9.93868H365.424L372.209 8.08042H415.538L409.336 9.93868V9.93868ZM364.013 9.93868H320.213L327.648 8.08042H370.888L364.013 9.93868ZM318.691 9.93868H274.98L283.064 8.08042H326.214L318.691 9.93868ZM229.77 9.93868L238.503 8.08042H281.564L273.39 9.93868H229.792H229.77ZM272.584 21.367L260.336 24.4052H212.259L225.426 21.367H272.584ZM193.673 28.6885H243.049L227.71 32.4887H177.192L193.673 28.6885ZM601.799 74.2624L588.812 84.7801H520.335L536.704 74.2624H601.799ZM1436.62 42.6441L1418.7 37.7847H1471.01L1490.42 42.6441H1436.64H1436.62ZM1452.42 32.4887L1437.09 28.6885H1486.46L1502.94 32.4887H1452.42ZM1435.23 28.2333L1421.55 24.8419H1469.76L1484.45 28.2333H1435.2H1435.23ZM1419.8 24.4052L1407.55 21.367H1454.71L1467.88 24.4052H1419.8V24.4052ZM1406.77 9.94797L1398.59 8.08971H1441.65L1450.39 9.94797H1406.79H1406.77ZM1361.44 9.94797L1353.92 8.08971H1397.07L1405.15 9.94797H1361.44ZM1316.12 9.94797L1309.25 8.08971H1352.49L1359.92 9.94797H1316.12ZM1270.8 9.94797L1264.6 8.08971H1307.93L1314.71 9.94797H1270.82H1270.8ZM1225.48 9.94797L1219.92 8.08971H1263.34L1269.48 9.94797H1225.48ZM1180.15 9.94797L1175.25 8.08971H1218.74L1224.22 9.94797H1180.15ZM1134.85 9.94797L1130.6 8.08971H1174.18L1179.01 9.94797H1134.85ZM1089.55 9.94797L1085.95 8.08971H1129.59L1133.78 9.94797H1089.55ZM1044.25 9.94797L1041.3 8.08971H1085.01L1088.55 9.94797H1044.23H1044.25ZM998.953 9.94797L996.647 8.08971H1040.42L1043.34 9.94797H998.976H998.953ZM817.44 12.3451L817.776 10.301H862.381L862.717 12.3451H817.44V12.3451ZM636.821 9.94797L639.71 8.08971H683.487L681.181 9.94797H636.821V9.94797ZM635.881 9.94797H591.566L595.104 8.08971H638.814L635.858 9.94797H635.881ZM590.581 9.94797H546.333L550.521 8.08971H594.164L590.558 9.94797H590.581ZM271.801 10.3103L262.866 12.3544H218.529L228.09 10.3103H271.801V10.3103ZM261.209 12.7261L251.379 14.9653H206.258L216.76 12.7261H261.209V12.7261ZM249.677 15.3555L238.839 17.827H192.867L204.444 15.3555H249.677ZM237.092 18.2265L225.112 20.9582H178.2L191.008 18.2265H237.092ZM209.146 37.7847H261.455L243.541 42.6441H189.754L209.169 37.7847H209.146ZM257.447 56.4417H315.892L293.589 63.9119H232.815L257.447 56.4417V56.4417ZM266.314 74.2624H330.559L302.859 84.7801H235.323L266.314 74.2624V74.2624ZM587.692 85.7093L571.95 98.4569H499.062L518.902 85.7093H587.67H587.692ZM731.228 85.7093L724.399 98.4569H651.197L662.17 85.7093H731.228V85.7093ZM802.974 85.7093L800.6 98.4569H727.31L733.826 85.7093H802.974ZM1075.83 74.2624L1088.52 84.7801H1019.89L1010.6 74.2624H1075.83V74.2624ZM1143.45 74.2624L1159.82 84.7801H1091.35L1078.36 74.2624H1143.45ZM1211.08 74.2624L1231.1 84.7801H1162.82L1146.16 74.2624H1211.08ZM1278.68 74.2624L1302.35 84.7801H1234.3L1213.97 74.2624H1278.66H1278.68ZM1346.28 74.2624L1373.63 84.7801H1305.82L1281.82 74.2624H1346.28ZM1413.86 74.2624L1444.86 84.7801H1377.32L1349.62 74.2624H1413.86V74.2624ZM1449.74 64.6366L1478.76 73.4447H1415.03L1388.74 64.6366H1449.74ZM1450.79 63.9119L1425.87 56.4417H1484.09L1511.29 63.9119H1450.77H1450.79ZM1459.19 48.767L1438.68 43.2015H1492.64L1514.86 48.767H1459.21H1459.19ZM1455.07 20.9582L1443.09 18.2265H1489.17L1501.98 20.9582H1455.07ZM1441.32 17.827L1430.48 15.3555H1475.71L1487.29 17.827H1441.32ZM1428.78 14.9653L1418.95 12.7261H1463.37L1473.88 14.9653H1428.76H1428.78ZM1417.31 12.3544L1408.38 10.3103H1452.09L1461.65 12.3544H1417.34H1417.31ZM953.676 9.95726L952.019 8.099H995.841L998.103 9.95726H953.676ZM908.398 9.95726L907.39 8.099H951.235L952.825 9.95726H908.376H908.398ZM863.12 9.95726L862.762 8.099H906.629L907.592 9.95726H863.12V9.95726ZM817.059 9.95726H772.587L773.55 8.099H817.417L817.059 9.95726V9.95726ZM771.781 9.95726H727.332L728.922 8.099H772.766L771.759 9.95726H771.781ZM726.503 9.95726H682.077L684.338 8.099H728.161L726.503 9.95726ZM550.364 7.74593H506.9L511.334 6.03633H554.26L550.364 7.74593V7.74593ZM505.825 7.74593H462.451L467.467 6.03633H510.304L505.803 7.74593H505.825ZM461.286 7.74593H417.979L423.6 6.03633H466.369L461.286 7.74593V7.74593ZM416.748 7.74593H373.53L379.733 6.03633H422.413L416.725 7.74593H416.748ZM372.209 7.74593H329.081L335.888 6.03633H378.501L372.209 7.74593ZM327.67 7.74593H284.632L292.021 6.03633H334.544L327.67 7.74593V7.74593ZM283.131 7.74593H240.182L248.176 6.03633H290.61L283.131 7.74593V7.74593ZM238.592 7.74593H195.733L204.31 6.03633H246.654L238.57 7.74593H238.592ZM236.935 8.099L228.113 9.95726H184.604L193.987 8.099H236.935V8.099ZM172.512 12.3637L182.768 10.3196H226.389L216.737 12.3637H172.512V12.3637ZM223.321 21.3856L210.02 24.4238H162.077L176.296 21.3856H223.321ZM141.991 28.7071H191.21L174.55 32.5073H124.189L141.991 28.7071V28.7071ZM372.276 85.7278L343.166 98.4755H271.039L304.18 85.7278H372.276ZM444.111 85.7278L419.457 98.4755H347.062L375.769 85.7278H444.111V85.7278ZM1485.1 55.8006L1461.45 49.3803H1517.3L1542.91 55.8006H1485.12H1485.1ZM1471.73 37.2737L1454.44 32.9904H1505.11L1523.7 37.2737H1471.73V37.2737ZM1472.15 24.8512H1520.23L1536.11 28.2426H1487.02L1472.15 24.8512V24.8512ZM1470.23 24.4145L1456.93 21.3763H1503.95L1518.17 24.4145H1470.23ZM1463.51 12.3544L1453.86 10.3103H1497.48L1507.73 12.3544H1463.51V12.3544ZM1452.13 9.95726L1443.31 8.099H1486.26L1495.64 9.95726H1452.13ZM1441.65 7.74593L1433.57 6.03633H1475.91L1484.49 7.74593H1441.63H1441.65ZM1397.12 7.74593L1389.64 6.03633H1432.07L1440.06 7.74593H1397.12V7.74593ZM1352.58 7.74593L1345.7 6.03633H1388.23L1395.61 7.74593H1352.58V7.74593ZM1308.04 7.74593L1301.75 6.03633H1344.36L1351.17 7.74593H1308.04ZM1263.5 7.74593L1257.81 6.03633H1300.49L1306.69 7.74593H1263.48H1263.5ZM1218.96 7.74593L1213.88 6.03633H1256.65L1262.27 7.74593H1218.96ZM1174.42 7.74593L1169.92 6.03633H1212.76L1217.8 7.74593H1174.42ZM1129.88 7.74593L1125.99 6.03633H1168.91L1173.35 7.74593H1129.88V7.74593ZM1085.34 7.74593L1082.05 6.03633H1125.05L1128.88 7.74593H1085.34V7.74593ZM1040.81 7.74593L1038.1 6.03633H1081.16L1084.4 7.74593H1040.81ZM996.289 7.74593L994.184 6.03633H1037.29L1039.95 7.74593H996.289ZM951.772 7.74593L950.272 6.03633H993.423L995.483 7.74593H951.772ZM907.256 7.74593L906.338 6.03633H949.511L950.966 7.74593H907.234H907.256ZM817.887 9.95726L818.201 8.099H862.09L862.404 9.95726H817.91H817.887ZM729.28 7.74593L730.736 6.03633H773.931L773.013 7.74593H729.28V7.74593ZM684.809 7.74593L686.869 6.03633H730.019L728.519 7.74593H684.809ZM684.002 7.74593H640.337L643.002 6.03633H686.107L684.002 7.74593ZM639.486 7.74593H595.888L599.135 6.03633H642.196L639.486 7.74593V7.74593ZM594.97 7.74593H551.439L555.268 6.03633H598.261L594.97 7.74593ZM202.787 6.03633L194.121 7.74593H151.374L160.554 6.03633H202.809H202.787ZM215.036 12.7354L204.421 14.9746H159.435L170.721 12.7354H215.058H215.036ZM202.585 15.3648L190.874 17.8363H145.036L157.464 15.3648H202.585ZM188.993 18.2358L176.05 20.9675H129.272L143.021 18.2358H188.993ZM154.374 37.794H206.504L186.888 42.6534H133.28L154.374 37.794ZM254.402 56.4509L229.479 63.9212H168.952L196.159 56.4509H254.379H254.402ZM232.681 85.7186H300.508L266.919 98.4662H195.106L232.681 85.7186ZM570.696 99.5626L551.237 115.339H472.93L497.473 99.5626H570.696V99.5626ZM647.323 99.5626L633.373 115.339H554.842L573.898 99.5626H647.323ZM723.928 99.5626L715.486 115.339H636.821L650.391 99.5626H723.951H723.928ZM800.488 99.5626L797.555 115.339H718.778L726.839 99.5626H800.488ZM1447.7 85.7186L1485.27 98.4662H1413.46L1379.87 85.7186H1447.7V85.7186ZM1481.54 74.2717L1516.18 84.7894H1448.93L1417.56 74.2717H1481.54V74.2717ZM1482.68 73.454L1453.32 64.6459H1514.07L1546.16 73.454H1482.7H1482.68ZM1505.74 32.498L1489.08 28.6978H1538.3L1556.1 32.498H1505.74ZM1504.33 20.9582L1491.39 18.2265H1537.36L1551.11 20.9582H1504.33ZM1489.48 17.827L1477.77 15.3555H1522.89L1535.32 17.827H1489.48V17.827ZM1475.96 14.9653L1465.35 12.7261H1509.68L1520.97 14.9653H1475.98H1475.96ZM1486.26 7.73664L1477.59 6.02704H1519.85L1529.03 7.73664H1486.28H1486.26ZM862.807 7.73664L862.493 6.02704H905.689L906.562 7.73664H862.807ZM818.313 7.73664L818.582 6.02704H861.799L862.068 7.73664H818.29H818.313ZM817.574 7.73664H773.819L774.692 6.02704H817.887L817.574 7.73664ZM555.133 5.68326H512.319L516.394 4.12233H558.716L555.156 5.68326H555.133ZM511.311 5.68326H468.564L473.177 4.12233H515.431L511.311 5.68326ZM467.489 5.68326H424.831L429.982 4.12233H472.169L467.511 5.68326H467.489ZM423.667 5.68326H381.076L386.764 4.12233H428.862L423.644 5.68326H423.667ZM379.845 5.68326H337.344L343.591 4.12233H385.622L379.867 5.68326H379.845ZM336.022 5.68326H293.611L300.396 4.12233H342.337L336.022 5.68326ZM292.2 5.68326H249.878L257.201 4.12233H299.075L292.223 5.68326H292.2ZM248.378 5.68326H206.123L213.983 4.12233H255.768L248.356 5.68326H248.378ZM204.556 5.68326H162.391L170.81 4.12233H212.505L204.556 5.68326V5.68326ZM118.658 5.68326L127.615 4.12233H169.22L160.711 5.68326H118.636H118.658ZM192.352 8.08042L182.88 9.93868H139.483L149.515 8.08042H192.374H192.352ZM181.044 10.301L170.676 12.3451H126.563L137.535 10.301H181.044V10.301ZM174.102 21.367L159.726 24.4052H111.94L127.212 21.367H174.102ZM90.3763 28.6885H139.438L121.435 32.4887H71.0291L90.1524 28.6885H90.3763ZM340.77 99.5533L304.74 115.33H227.284L268.285 99.5533H340.747H340.77ZM1030.06 99.5533L1043.63 115.33H964.962L956.52 99.5533H1030.08H1030.06ZM1106.5 99.5533L1125.56 115.33H1047.03L1033.08 99.5533H1106.5ZM1182.93 99.5533L1207.47 115.33H1129.17L1109.71 99.5533H1182.93ZM1259.36 99.5533L1289.38 115.33H1211.32L1186.33 99.5533H1259.33H1259.36ZM1335.76 99.5533L1371.27 115.33H1293.5L1263.01 99.5533H1335.76ZM1412.14 99.5533L1453.14 115.33H1375.69L1339.66 99.5533H1412.12H1412.14ZM1515.12 63.9119L1487.6 56.4417H1545.6L1575.4 63.9119H1515.12ZM1518.21 48.767L1495.75 43.2015H1549.52L1573.66 48.767H1518.21ZM1522.76 24.8419H1570.68L1587.72 28.2333H1538.79L1522.74 24.8419H1522.76ZM1520.7 24.4052L1506.32 21.367H1553.21L1568.49 24.4052H1520.7V24.4052ZM1509.75 12.3451L1499.38 10.301H1542.89L1553.86 12.3451H1509.75V12.3451ZM1497.52 9.94797L1488.05 8.08971H1530.91L1540.94 9.94797H1497.55H1497.52ZM1519.67 5.68326L1511.16 4.12233H1552.77L1561.72 5.68326H1519.65H1519.67ZM1475.85 5.68326L1467.9 4.12233H1509.59L1518.01 5.68326H1475.85ZM1432.03 5.68326L1424.61 4.12233H1466.4L1474.26 5.68326H1432H1432.03ZM1388.2 5.68326L1381.35 4.12233H1423.22L1430.55 5.68326H1388.23H1388.2ZM1344.38 5.68326L1338.07 4.12233H1380.01L1386.79 5.68326H1344.38V5.68326ZM1300.56 5.68326L1294.8 4.12233H1336.83L1343.08 5.68326H1300.58H1300.56ZM1256.74 5.68326L1251.52 4.12233H1293.62L1299.3 5.68326H1256.71H1256.74ZM1212.91 5.68326L1208.26 4.12233H1250.44L1255.59 5.68326H1212.94H1212.91ZM1169.09 5.68326L1164.97 4.12233H1207.23L1211.84 5.68326H1169.09V5.68326ZM1125.27 5.68326L1121.71 4.12233H1164.03L1168.11 5.68326H1125.29H1125.27ZM1081.45 5.68326L1078.42 4.12233H1120.81L1124.33 5.68326H1081.45ZM1037.63 5.68326L1035.14 4.12233H1077.57L1080.55 5.68326H1037.6H1037.63ZM993.826 5.68326L991.9 4.12233H1034.4L1036.84 5.68326H993.848H993.826ZM950.026 5.68326L948.637 4.12233H991.183L993.064 5.68326H950.026V5.68326ZM906.226 5.68326L905.397 4.12233H947.966L949.309 5.68326H906.226ZM862.449 5.68326L862.157 4.12233H904.748L905.554 5.68326H862.471H862.449ZM774.894 5.68326L775.7 4.12233H818.29L817.999 5.68326H774.894ZM774.2 5.68326H731.139L732.482 4.12233H775.051L774.222 5.68326H774.2ZM730.4 5.68326H687.361L689.242 4.12233H731.788L730.4 5.68326ZM686.6 5.68326H643.606L646.047 4.12233H688.548L686.622 5.68326H686.6ZM642.8 5.68326H599.851L602.829 4.12233H645.263L642.778 5.68326H642.8ZM599 5.68326H556.119L559.634 4.12233H602.023L599 5.68326V5.68326ZM158.897 6.02704L149.627 7.73664H106.969L116.732 6.02704H158.897ZM94.2726 9.94797L104.931 8.08971H147.701L137.58 9.94797H94.2726ZM168.795 12.7261L157.397 14.9653H112.523L124.57 12.7261H168.795ZM155.427 15.3555L142.864 17.827H97.1388L110.44 15.3555H155.427ZM140.827 18.2265L126.921 20.9582H80.2772L94.9891 18.2265H140.827ZM192.845 56.4509L165.324 63.9212H105.043L134.848 56.4509H192.845V56.4509ZM195.017 74.2717L159.95 84.7894H92.9962L131.287 74.2717H194.994H195.017ZM161.159 85.7186H228.695L190.65 98.4662H119.151L161.159 85.7186ZM264.075 99.5626L222.515 115.339H145.417L191.904 99.5626H264.075ZM467.064 116.631L435.378 136.635H350.488L388.578 116.631H467.041H467.064ZM549.67 116.631L524.971 136.635H439.789L470.915 116.631H549.647H549.67ZM632.253 116.631L614.563 136.635H529.158L553.32 116.631H632.253ZM714.815 116.631L704.111 136.635H618.527L635.724 116.631H714.815ZM797.353 116.631L793.636 136.635H707.918L718.151 116.631H797.353V116.631ZM1519.29 85.7186L1561.3 98.4662H1489.8L1451.75 85.7186H1519.29ZM1549.16 74.2717L1587.45 84.7894H1520.5L1485.43 74.2717H1549.14H1549.16ZM1576.3 49.371L1604.13 55.7913H1546.56L1520.65 49.371H1576.28H1576.3ZM1550.33 42.6534L1528.98 37.794H1580.94L1603.73 42.6534H1550.33ZM1559.01 32.498L1541.01 28.6978H1590.07L1609.19 32.498H1558.99H1559.01ZM1553.55 20.9582L1539.64 18.2265H1585.48L1600.19 20.9582H1553.55ZM1537.61 17.827L1525.04 15.3555H1570.03L1583.33 17.827H1537.61V17.827ZM1523.07 14.9653L1511.68 12.7261H1555.9L1567.97 14.9653H1523.1H1523.07ZM1542.87 9.94797L1532.75 8.08971H1575.52L1586.18 9.94797H1542.87ZM1530.82 7.73664L1521.55 6.02704H1563.72L1573.48 7.73664H1530.82V7.73664ZM818.671 5.68326L818.917 4.12233H861.508L861.754 5.68326H818.649H818.671ZM559.5 3.78784H517.29L521.03 2.34769H562.792L559.5 3.78784ZM516.35 3.78784H474.207L478.439 2.34769H520.134L516.35 3.78784ZM473.199 3.78784H431.124L435.871 2.34769H477.498L473.199 3.78784V3.78784ZM430.049 3.78784H388.04L393.28 2.34769H434.841L430.049 3.78784V3.78784ZM386.898 3.78784H344.979L350.712 2.34769H392.205L386.898 3.78784ZM343.748 3.78784H301.896L308.144 2.34769H349.548L343.748 3.78784ZM300.597 3.78784H258.835L265.575 2.34769H306.912L300.597 3.78784ZM257.425 3.78784H215.752L222.985 2.34769H264.232L257.425 3.78784ZM214.274 3.78784H172.669L180.417 2.34769H221.597L214.274 3.78784ZM171.124 3.78784H129.608L137.848 2.34769H178.939L171.124 3.78784V3.78784ZM127.951 3.78784H86.5248L95.2579 2.34769H136.281L127.951 3.78784ZM126.003 4.12233L116.956 5.68326H74.9702L84.4647 4.12233H125.98H126.003ZM92.2125 10.3103H135.609L124.525 12.3544H80.5236L92.2125 10.3103V10.3103ZM124.794 21.3763L109.365 24.4145H61.4675L77.7917 21.3763H124.547H124.794ZM107.126 24.8512L89.8836 28.2426H40.8888L59.1163 24.8512H106.902H107.126ZM1550.28 73.454L1517.83 64.6459H1578.34L1613.47 73.454H1550.28ZM1590.56 28.2426L1573.32 24.8512H1621.11L1639.34 28.2426H1590.56ZM1571.11 24.4145L1555.68 21.3763H1602.43L1618.76 24.4145H1571.11ZM1555.92 12.3544L1544.84 10.3103H1588.24L1599.92 12.3544H1555.92ZM1563.51 5.69256L1554.47 4.13162H1595.98L1605.48 5.69256H1563.49H1563.51ZM1552.52 3.79713L1544.19 2.35698H1585.21L1593.95 3.79713H1552.52ZM1509.35 3.79713L1501.53 2.35698H1542.62L1550.86 3.79713H1509.35ZM1466.2 3.79713L1458.87 2.35698H1500.05L1507.78 3.79713H1466.17H1466.2ZM1423.05 3.79713L1416.24 2.35698H1457.49L1464.72 3.79713H1423.05ZM1379.9 3.79713L1373.58 2.35698H1414.92L1421.66 3.79713H1379.9ZM1336.74 3.79713L1330.95 2.35698H1372.35L1378.6 3.79713H1336.74V3.79713ZM1293.59 3.79713L1288.29 2.35698H1329.76L1335.49 3.79713H1293.57H1293.59ZM1250.44 3.79713L1245.65 2.35698H1287.21L1292.45 3.79713H1250.44ZM1207.29 3.79713L1202.99 2.35698H1244.62L1249.37 3.79713H1207.29V3.79713ZM1164.14 3.79713L1160.36 2.35698H1202.05L1206.29 3.79713H1164.14V3.79713ZM1120.99 3.79713L1117.7 2.35698H1159.46L1163.2 3.79713H1120.99V3.79713ZM1077.84 3.79713L1075.07 2.35698H1116.87L1120.12 3.79713H1077.84ZM1034.69 3.79713L1032.41 2.35698H1074.28L1077.01 3.79713H1034.67H1034.69ZM991.542 3.79713L989.773 2.35698H1031.69L1033.93 3.79713H991.542V3.79713ZM948.414 3.79713L947.137 2.35698H989.101L990.847 3.79713H948.414ZM905.286 3.79713L904.524 2.35698H946.51L947.742 3.79713H905.286V3.79713ZM862.157 3.79713L861.889 2.35698H903.897L904.636 3.79713H862.157ZM818.402 3.79713H775.924L776.663 2.35698H818.671L818.402 3.79713ZM775.274 3.79713H732.818L734.05 2.35698H776.036L775.274 3.79713V3.79713ZM732.146 3.79713H689.713L691.459 2.35698H733.423L732.146 3.79713ZM689.018 3.79713H646.629L648.869 2.35698H690.787L689.018 3.79713ZM645.868 3.79713H603.524L606.256 2.35698H648.13L645.846 3.79713H645.868ZM602.718 3.79713H560.44L563.687 2.35698H605.494L602.718 3.79713ZM93.3769 2.39414L84.5542 3.83429H43.1952L52.4209 2.39414H93.3545H93.3769ZM114.739 6.0735L104.864 7.7831H62.296L72.6638 6.0735H114.739ZM102.827 8.12688L92.0333 9.98514H48.8381L60.1464 8.12688H102.804H102.827ZM122.286 12.7632L110.104 15.0024H65.319L78.15 12.7632H122.263H122.286ZM107.999 15.3927L94.5637 17.8642H48.9501L63.1022 15.3927H107.977H107.999ZM92.3916 18.2637L77.523 20.9953H30.9913L46.6437 18.2637H92.3468H92.3916ZM96.1983 37.8219L73.1564 42.6812H19.9294L44.4044 37.8219H96.176H96.1983ZM47.8752 48.8042L73.9402 43.2387H127.503L103.095 48.8042H47.8305H47.8752ZM131.041 56.4788L100.901 63.949H40.8216L73.2236 56.4788H130.996H131.041ZM126.966 74.2995L88.2266 84.8173H21.5416L63.5052 74.2995H126.943H126.966ZM156.636 85.7464L114.135 98.4941H42.9489L89.391 85.7464H156.636ZM187.179 99.5905L140.11 115.367H63.3485L115.322 99.5905H187.157H187.179ZM252.252 138.261L192.531 164.407H99.5796L167.563 138.261H252.252ZM342.471 138.261L291.909 164.407H198.532L257.425 138.261H342.471ZM432.669 138.261L391.242 164.407H297.485L347.286 138.261H432.669ZM522.843 138.261L490.576 164.407H396.46L437.147 138.261H522.843V138.261ZM612.973 138.261L589.842 164.407H495.457L527.053 138.261H612.996H612.973ZM703.081 138.261L689.086 164.407H594.477L616.959 138.261H703.081ZM793.144 138.261L788.284 164.407H693.542L706.91 138.261H793.144ZM973.157 138.261L986.526 164.407H891.783L886.924 138.261H973.157ZM1063.11 138.261L1085.59 164.407H990.982L976.986 138.261H1063.11ZM1153.04 138.261L1184.63 164.407H1090.25L1067.12 138.261H1153.06H1153.04ZM1242.92 138.261L1283.61 164.407H1189.49L1157.22 138.261H1242.92ZM1332.78 138.261L1382.58 164.407H1288.82L1247.4 138.261H1332.78ZM1422.64 138.261L1481.54 164.407H1388.16L1337.6 138.261H1422.64V138.261ZM1512.48 138.261L1580.47 164.407H1487.54L1427.82 138.261H1512.5H1512.48ZM1564.7 99.5905L1616.67 115.367H1539.93L1492.87 99.5905H1564.7V99.5905ZM1590.65 85.7464L1637.1 98.4941H1565.93L1523.43 85.7464H1590.68H1590.65ZM1616.54 74.2995L1658.5 84.8173H1591.84L1553.1 74.2995H1616.54V74.2995ZM1606.8 56.4788L1639.2 63.949H1579.17L1549.03 56.4788H1606.8ZM1635.01 49.3989L1665.09 55.8191H1607.74L1579.59 49.3989H1635.01V49.3989ZM1635.62 37.8126L1660.09 42.6719H1606.89L1583.85 37.8126H1635.62ZM1641.6 28.7257L1662.04 32.5258H1612.02L1592.69 28.7257H1641.6V28.7257ZM1602.52 20.986L1587.65 18.2544H1633.36L1649.01 20.986H1602.5H1602.52ZM1585.48 17.8549L1572.05 15.3834H1616.92L1631.07 17.8549H1585.48ZM1569.94 14.9932L1557.76 12.7539H1601.87L1614.7 14.9932H1569.94ZM1587.99 9.97585L1577.2 8.11759H1619.85L1631.16 9.97585H1587.97H1587.99ZM1575.16 7.76452L1565.28 6.05492H1607.36L1617.73 7.76452H1575.16ZM1595.47 3.81571L1586.65 2.37556H1627.58L1636.8 3.81571H1595.47V3.81571ZM1584.63 2.05036L1576.5 0.721708H1616.97L1625.47 2.05036H1584.63ZM1542.08 2.05036L1534.4 0.721708H1574.96L1583.02 2.05036H1542.11H1542.08ZM1499.54 2.05036L1492.33 0.721708H1532.95L1540.54 2.05036H1499.54ZM1456.99 2.05036L1450.25 0.721708H1490.94L1498.08 2.05036H1456.99ZM1414.45 2.05036L1408.18 0.721708H1448.93L1455.6 2.05036H1414.45V2.05036ZM1371.9 2.05036L1366.08 0.721708H1406.92L1413.15 2.05036H1371.9ZM1329.36 2.05036L1324 0.721708H1364.91L1370.67 2.05036H1329.36ZM1286.81 2.05036L1281.93 0.721708H1322.91L1328.19 2.05036H1286.81ZM1244.26 2.05036L1239.85 0.721708H1280.9L1285.73 2.05036H1244.29H1244.26ZM1201.72 2.05036L1197.75 0.721708H1238.87L1243.23 2.05036H1201.72V2.05036ZM1159.17 2.05036L1155.68 0.721708H1196.86L1200.78 2.05036H1159.19H1159.17ZM1116.63 2.05036L1113.6 0.721708H1154.85L1158.3 2.05036H1116.65H1116.63ZM1074.1 2.05036L1071.53 0.721708H1112.82L1115.8 2.05036H1074.08H1074.1ZM1031.58 2.05036L1029.47 0.721708H1070.81L1073.34 2.05036H1031.58ZM989.056 2.05036L987.421 0.721708H1028.8L1030.86 2.05036H989.056ZM946.533 2.05036L945.368 0.721708H986.794L988.407 2.05036H946.555H946.533ZM904.009 2.05036L903.293 0.721708H944.741L945.883 2.05036H904.009ZM563.262 2.05036H521.612L525.06 0.721708H566.285L563.262 2.05036ZM520.716 2.05036H479.133L483.052 0.721708H524.232L520.738 2.05036H520.716ZM478.17 2.05036H436.654L441.021 0.721708H482.134L478.17 2.05036ZM435.624 2.05036H394.176L399.013 0.721708H440.058L435.647 2.05036H435.624ZM393.079 2.05036H351.697L356.982 0.721708H397.96L393.079 2.05036V2.05036ZM350.533 2.05036H309.219L314.973 0.721708H355.885L350.533 2.05036V2.05036ZM307.987 2.05036H266.762L272.965 0.721708H313.809L307.987 2.05036ZM265.441 2.05036H224.284L230.957 0.721708H271.711L265.441 2.05036V2.05036ZM222.895 2.05036H181.805L188.948 0.721708H229.635L222.895 2.05036ZM180.349 2.05036H139.349L146.94 0.721708H187.56L180.349 2.05036ZM137.804 2.05036H96.8925L104.954 0.721708H145.507L137.826 2.05036H137.804ZM95.2579 2.05036H54.5482L63.0574 0.721708H103.521L95.3922 2.05036H95.2579ZM12.0696 2.05966L21.049 0.740291H61.4451L52.8464 2.06895H12.0696V2.05966ZM41.0231 4.15949H82.4717L72.8653 5.72043H30.9913L41.0231 4.15949ZM17.8469 7.77381L28.7968 6.06421H70.7828L60.3255 7.77381H17.8469ZM3.6052 9.99443L15.5628 8.13617H58.1534L46.7108 9.99443H3.6052ZM46.6213 10.3568H89.9284L78.1276 12.4009H34.2382L46.6213 10.3568V10.3568ZM18.3395 15.0117L31.9542 12.7725H75.9555L62.9902 15.0117H18.3619H18.3395ZM75.2165 21.4227L58.7132 24.461H11.2187L28.5953 21.4227H75.2165V21.4227ZM1621.26 24.461L1604.76 21.4227H1651.38L1668.76 24.461H1621.26ZM1617.01 15.021L1604.04 12.7818H1648.05L1661.66 15.021H1617.01ZM1601.87 12.4102L1590.07 10.3661H1633.38L1645.76 12.4102H1601.87V12.4102ZM1633.29 10.013L1621.85 8.15475H1664.41L1676.37 10.013H1633.27H1633.29ZM1619.7 7.80168L1609.24 6.09208H1651.23L1662.18 7.80168H1619.72H1619.7ZM1607.11 5.7483L1597.51 4.18736H1638.95L1648.99 5.7483H1607.11ZM1627.15 2.07824L1618.56 0.749582H1658.95L1667.93 2.07824H1627.18H1627.15ZM819.029 2.07824L819.253 0.749582H860.724L860.948 2.07824H819.052H819.029ZM16.0107 15.3927H60.7733L46.4645 17.8642H1.00766L16.0107 15.3927ZM77.7245 138.261H162.01L93.1306 164.407H0.649384L77.7245 138.261ZM1586.87 164.407L1517.99 138.261H1602.28L1679.35 164.407H1586.87ZM1633.54 17.8642L1619.23 15.3927H1663.99L1678.99 17.8642H1633.54V17.8642ZM9.85272 2.39414H50.7191L41.3814 3.83429H0.134355L9.87511 2.39414H9.85272ZM1638.62 3.83429L1629.28 2.39414H1670.13L1679.84 3.83429H1638.6H1638.62Z" fill="url(#paint0_linear_215_21672)"/>
<rect width="1680" height="178" fill="url(#paint1_linear_215_21672)"/>
<defs>
<linearGradient id="paint0_linear_215_21672" x1="840.011" y1="177.721" x2="840.011" y2="0.415088" gradientUnits="userSpaceOnUse">
<stop stop-color="#9B3EFF"/>
<stop offset="0.22" stop-color="#9F43FF"/>
<stop offset="0.5" stop-color="#AD54FF"/>
<stop offset="0.82" stop-color="#C36FFF"/>
<stop offset="1" stop-color="#D282FF"/>
</linearGradient>
<linearGradient id="paint1_linear_215_21672" x1="840" y1="0" x2="840" y2="178" gradientUnits="userSpaceOnUse">
<stop offset="0.317708" stop-color="#100024"/>
<stop offset="1" stop-color="#100024" stop-opacity="0"/>
</linearGradient>
</defs>
</svg>
