<svg width="1680" height="1122" viewBox="0 0 1680 1122" fill="none" xmlns="http://www.w3.org/2000/svg">
<g clip-path="url(#clip0_192_32218)">
<rect width="1680" height="1122" fill="url(#paint0_linear_192_32218)"/>
<g opacity="0.4" clip-path="url(#clip1_192_32218)">
<path d="M1680 944.415H0V944.74H19.3695L10.3006 946.06H0V946.385H8.06131L0 947.565V948.159H39.1869L29.0431 949.72H0V950.064H26.8263L15.7643 951.774H0V952.127H13.4803L1.38834 953.994H0V954.561L1.29877 954.357H44.494L31.9765 956.401H0V956.773H29.6701L15.9211 959.012H0V959.402H13.5475L0 961.604V962.264H44.1357L28.3042 964.995H0V965.413H25.9082L8.35242 968.452H0V968.888H5.82206L0 969.892V970.412L8.73309 968.888H56.362L37.933 972.28H0V972.744H35.4474L14.7791 976.544H0V977.028H12.1368L0.156748 979.22L0 979.248V979.871L15.3613 977.018H65.5206L43.7326 981.302H0V981.822H41.0903L16.3466 986.681H0V987.239H13.5251L0.156748 989.877L0 989.905V990.649L17.1303 987.248H70.5141L44.1581 992.813H0V993.417H41.2918L10.8828 999.838H0V1000.5H7.7926L0.156748 1002.1L0 1002.13V1003.02L11.868 1000.49H69.3945L36.6342 1007.96H0V1008.68H33.4321L0.134355 1016.28L0 1016.32V1017.38L37.6642 1008.69H97.9226L62.3856 1017.5H0V1018.32H59.0939L16.66 1028.84H0V1029.77H12.8981L0 1032.96V1034.23L17.8245 1029.77H84.7558L37.7762 1042.51H0V1043.61H33.7456L0 1052.76V1054.29L38.963 1043.6H110.462L57.8623 1059.38H0V1060.68H53.5406L0.111963 1076.69L0 1076.72V1078.59L59.0715 1060.67H136.214L76.5153 1080.67H0V1082.27H71.7681L0.111963 1106.28L0 1106.32V1110.46H87.7564L58.6013 1121.53L58.0639 1121.73H64.9608L94.2726 1110.46H187.851L162.1 1121.73H168.504L193.897 1110.46H287.923L266.135 1121.73H272.114L293.566 1110.46H387.996L370.149 1121.73H375.724L393.258 1110.46H488.023L474.117 1121.73H479.357L492.972 1110.46H588.028L578.063 1121.73H583.034L592.73 1110.46H687.988L682.032 1121.59L681.965 1121.73H686.734L692.512 1110.46H787.904L785.821 1121.61V1121.73H790.479L792.315 1110.46H887.752L889.588 1121.73H894.268L892.164 1110.46H987.556L993.266 1121.64L993.311 1121.73H998.08L992.057 1110.46H1087.31L1096.94 1121.66L1097.01 1121.73H1101.98L1092.02 1110.46H1187.07L1200.62 1121.67L1200.69 1121.73H1205.93L1192.02 1110.46H1286.79L1304.25 1121.67L1304.34 1121.73H1309.92L1292.07 1110.46H1386.48L1407.86 1121.68L1407.95 1121.73H1413.93L1392.14 1110.46H1486.17L1511.47 1121.69L1511.56 1121.73H1517.99L1492.24 1110.46H1585.82L1615.04 1121.7L1615.13 1121.73H1622.03L1592.33 1110.46H1680.09V1106.32L1608.32 1082.27H1680.09V1080.67H1603.57L1543.88 1060.67H1621.02L1679.64 1078.46L1680.09 1078.6V1076.73L1626.55 1060.68H1680.09V1059.38H1622.23L1569.63 1043.6H1641.13L1679.64 1054.17L1680.07 1054.29V1052.76L1646.32 1043.6H1680.07V1042.5H1642.29L1595.31 1029.76H1662.24L1680.07 1034.22V1032.95L1667.17 1029.76H1680.07V1028.83H1663.41L1620.97 1018.31H1680.04V1017.49H1617.66L1582.12 1008.68H1642.38L1679.62 1017.27L1680.04 1017.36V1016.3L1646.61 1008.68H1680.04V1007.96H1643.43L1610.67 1000.49H1668.2L1680.04 1003.02V1002.12L1672.27 1000.48H1680.04V999.819H1669.16L1638.75 993.399H1680.04V992.795H1635.91L1609.55 987.229H1662.91L1680.04 990.63V989.887L1666.52 987.229H1680.04V986.672H1663.7L1638.95 981.813H1680.04V981.292H1636.31L1614.52 977.009H1664.68L1680.04 979.861V979.239L1667.91 977.009H1680.04V976.526H1665.29L1644.62 972.726H1680.04V972.261H1642.11L1623.68 968.87H1671.31L1680.02 970.394V969.873L1674.22 968.87H1680.02V968.433H1671.69L1654.14 965.395H1680.04V964.977H1651.74L1635.91 962.245H1680.04V961.576L1666.5 959.365H1680.04V958.975H1664.12L1650.37 956.735H1680.04V956.364H1648.09L1635.57 954.32H1678.77L1680.04 954.515V953.957H1678.66L1666.56 952.099H1680.02V951.746H1664.28L1653.22 950.036H1680.02V949.693H1650.98L1640.84 948.132H1680.02V947.537L1671.98 946.357H1680.02V946.032H1669.74L1660.68 944.703H1680.02V944.378L1680 944.415ZM564.135 946.06L567.113 944.731H608.405L605.852 946.06H564.135ZM606.614 946.06L609.144 944.731H650.481L648.376 946.06H606.614ZM649.092 946.06L651.153 944.731H692.534L690.899 946.06H649.092ZM691.571 946.06L693.183 944.731H734.61L733.445 946.06H691.594H691.571ZM734.05 946.06L735.192 944.731H776.64L775.924 946.06H734.05ZM776.551 946.06L777.223 944.731H818.694L818.447 946.06H776.551ZM861.307 944.731H902.778L903.449 946.06H861.553L861.307 944.731ZM100.431 993.417L72.2831 999.838H14.9358L45.009 993.417H100.431ZM818.761 947.825L818.985 946.385H860.993L861.239 947.825H818.761ZM1581.38 981.302L1561.1 977.018H1611.43L1633 981.302H1581.38ZM1576.95 992.804L1552.54 987.239H1606.1L1632.17 992.804H1576.93H1576.95ZM1513.8 1080.66L1461.11 1060.66H1538.64L1597.6 1080.66H1513.8ZM796.883 1082.26H883.139L887.394 1108.41H792.606L796.861 1082.26H796.883ZM218.887 1060.67L166.197 1080.67H82.4269L141.386 1060.67H218.909H218.887ZM162.391 1008.68L129.944 1017.49H66.7522L101.886 1008.68H162.391ZM87.3309 972.735L68.0061 976.535H17.9812L38.4256 972.735H87.3309ZM1456.3 1060.67L1508.29 1080.67H1424.12L1378.44 1060.67H1456.3ZM1373.96 1060.67L1419.02 1080.67H1334.46L1295.77 1060.67H1373.94H1373.96ZM1291.62 1060.67L1329.71 1080.67H1244.82L1213.14 1060.67H1291.6H1291.62ZM1209.26 1060.67L1240.39 1080.67H1155.21L1130.51 1060.67H1209.24H1209.26ZM1126.88 1060.67L1151.04 1080.67H1065.64L1047.95 1060.67H1126.88ZM1044.48 1060.67L1061.67 1080.67H976.091L965.387 1060.67H1044.48ZM962.051 1060.67L972.284 1080.67H886.588L882.871 1060.67H962.073H962.051ZM384.166 1060.67L345.494 1080.67H260.94L305.994 1060.67H384.166ZM301.516 1060.67L255.835 1080.67H171.661L223.657 1060.67H301.516ZM159.569 993.417L133.661 999.838H76.0898L103.924 993.417H159.547H159.569ZM99.3109 981.831H151.262L129.922 986.691H76.5153L99.3109 981.831ZM118.927 977.028L98.6391 981.311H47.0243L68.5883 977.028H118.927ZM1526.5 981.311L1507.71 977.028H1558.21L1578.27 981.311H1526.48H1526.5ZM1457.71 1059.38L1416.17 1043.6H1488.34L1534.83 1059.38H1457.73H1457.71ZM797.152 1080.67L800.421 1060.67H879.646L882.915 1080.67H797.174H797.152ZM226.881 1008.69L197.525 1017.5H134.064L166.153 1008.69H226.904H226.881ZM184.447 987.248L161.988 992.813H106.544L130.683 987.248H184.447ZM953.34 1043.6L961.401 1059.38H882.624L879.691 1043.6H953.34ZM493.867 1043.6L468.877 1059.38H390.817L420.845 1043.6H493.845H493.867ZM417.195 1043.6L386.697 1059.38H308.927L344.442 1043.6H417.195ZM198.644 1018.31H262.62L231.248 1028.83H164.003L198.644 1018.31ZM218.686 993.408L195.039 999.828H137.244L162.861 993.408H218.708H218.686ZM172.311 977.018L153.523 981.302H101.729L121.793 977.018H172.311ZM92.4588 972.27L109.522 968.879H157.442L141.386 972.27H92.4588ZM1493.31 986.681L1473.7 981.822H1525.83L1546.92 986.681H1493.31ZM1375.93 1029.75L1409.07 1042.49H1336.95L1307.84 1029.75H1375.93ZM1304.34 1029.75L1333.05 1042.49H1260.66L1236 1029.75H1304.34ZM1232.75 1029.75L1257.03 1042.49H1184.36L1164.17 1029.75H1232.73H1232.75ZM1161.14 1029.75L1180.98 1042.49H1108.09L1092.35 1029.75H1161.12H1161.14ZM1089.53 1029.75L1104.94 1042.49H1031.87L1020.58 1029.75H1089.53ZM1017.9 1029.75L1028.87 1042.49H955.669L948.839 1029.75H1017.9ZM800.578 1059.36L803.153 1043.58H876.825L879.4 1059.36H800.6H800.578ZM291.327 1008.67L265.038 1017.48H201.309L230.33 1008.67H291.327ZM241.392 987.229L220.88 992.795H165.235L187.448 987.229H241.392ZM946.241 1029.74L952.758 1042.48H879.467L877.093 1029.74H946.241ZM659.371 1029.74L648.085 1042.48H575.018L590.424 1029.74H659.371ZM515.79 1029.74L495.592 1042.48H422.928L447.201 1029.74H515.767H515.79ZM277.824 993.417L256.417 999.838H198.398L221.776 993.417H277.824ZM225.694 977.028L208.407 981.311H156.434L175.02 977.028H225.694ZM144.029 972.28L159.905 968.888H207.982L193.113 972.28H144.029ZM1008.07 1018.31L1017.11 1028.83H948.346L942.726 1018.31H1008.07ZM803.332 1042.5L805.415 1029.76H874.585L876.668 1042.5H803.355H803.332ZM466.123 1018.31L445.791 1028.83H377.74L401.409 1018.31H466.123ZM398.296 1018.31L374.291 1028.83H306.487L333.828 1018.31H398.296ZM355.817 1008.68L332.619 1017.49H268.643L294.596 1008.68H355.817ZM298.381 987.239L279.817 992.804H223.948L244.213 987.239H298.358H298.381ZM1416.71 981.302L1400.92 977.018H1451.75L1468.84 981.302H1416.69H1416.71ZM1385.4 1008.68L1411.36 1017.49H1347.38L1324.18 1008.68H1385.4ZM1321.16 1008.68L1344.04 1017.49H1279.82L1259.71 1008.68H1321.16ZM1256.92 1008.68L1276.76 1017.49H1212.31L1195.27 1008.68H1256.92ZM1192.65 1008.68L1209.42 1017.49H1144.77L1130.82 1008.68H1192.65ZM1128.38 1008.68L1142.09 1017.49H1077.26L1066.4 1008.68H1128.38ZM1064.09 1008.68L1074.73 1017.49H1009.77L1001.98 1008.68H1064.09ZM940.397 1018.31L945.771 1028.83H876.937L874.988 1018.31H940.397ZM669.492 1018.31L660.199 1028.83H591.566L604.263 1018.31H669.492ZM533.928 1018.31L517.268 1028.83H448.993L469.012 1018.31H533.928ZM420.263 1008.68L400.155 1017.49H335.933L358.818 1008.68H420.263ZM336.918 993.408L317.773 999.828H259.53L280.69 993.408H336.941H336.918ZM279.056 977.018L263.269 981.302H211.117L228.202 977.018H279.033H279.056ZM195.576 972.27L210.266 968.879H258.477L244.795 972.27H195.554H195.576ZM999.782 1008.68L1007.35 1017.49H942.278L937.553 1008.68H999.782ZM805.549 1028.82L807.251 1018.3H872.682L874.384 1028.82H805.527H805.549ZM613.578 1008.68L602.718 1017.49H537.891L551.595 1008.68H613.578ZM484.709 1008.68L467.668 1017.49H403.222L423.062 1008.68H484.709ZM355.325 987.239L338.71 992.804H282.661L301 987.239H355.325ZM1379.76 986.681L1363.55 981.822H1416.01L1433.73 986.681H1379.76ZM1054.17 1000.48L1063.2 1007.95H1001.3L994.699 1000.48H1054.17ZM935.471 1008.68L939.971 1017.49H874.832L873.197 1008.68H935.471ZM678.001 1008.68L670.209 1017.49H605.248L615.884 1008.68H678.001ZM438.983 1000.48L421.92 1007.95H360.699L380.113 1000.48H438.961H438.983ZM396.034 993.399L379.128 999.819H320.684L339.605 993.399H396.034ZM332.44 977.009L318.153 981.292H265.844L281.452 977.009H332.44ZM247.146 972.261L260.672 968.87H309.017L296.522 972.261H247.146ZM1340.33 993.399L1359.25 999.819H1300.8L1283.9 993.399H1340.33ZM1281.39 993.399L1298.07 999.819H1239.43L1224.76 993.399H1281.37H1281.39ZM1222.45 993.399L1236.92 999.819H1178.09L1165.69 993.399H1222.48H1222.45ZM1163.52 993.399L1175.74 999.819H1116.76L1106.59 993.399H1163.52ZM1104.56 993.399L1114.54 999.819H1055.41L1047.48 993.399H1104.53H1104.56ZM992.706 1000.48L999.133 1007.95H937.15L933.142 1000.48H992.706ZM807.363 1017.48L808.796 1008.67H871.092L872.525 1017.48H807.363ZM623.677 1000.48L614.451 1007.95H552.693L564.314 1000.48H623.655H623.677ZM500.54 1000.48L486.097 1007.95H424.697L441.536 1000.48H500.563H500.54ZM412.247 987.239L397.579 992.804H341.329L357.743 987.239H412.247ZM1307.39 964.995L1298.27 962.264H1344.72L1354.68 964.995H1307.39ZM1045.6 993.408L1053.34 999.828H994.094L988.407 993.408H1045.57H1045.6ZM931.238 1000.49L935.068 1007.96H873.018L871.63 1000.49H931.238ZM685.234 1000.49L678.628 1007.96H616.735L625.759 1000.49H685.234ZM573.339 993.408L563.172 999.828H504.19L516.417 993.408H573.361H573.339ZM385.823 977.018L373.037 981.302H320.549L334.656 977.018H385.801H385.823ZM298.739 972.27L311.077 968.879H359.557L348.271 972.27H298.739ZM1345.88 976.526L1333.21 972.726H1382.87L1396.71 976.526H1345.86H1345.88ZM1094.97 987.239L1103.64 992.804H1046.76L1039.89 987.239H1094.97ZM986.638 993.408L992.146 999.828H932.806L929.38 993.408H986.638ZM808.93 1007.96L810.14 1000.49H869.771L870.98 1007.96H808.908H808.93ZM632.432 993.408L624.505 999.828H565.367L575.354 993.408H632.41H632.432ZM1306.2 981.822L1320.53 986.681H1266.21L1253.4 981.822H1306.2ZM1251.29 981.822L1263.95 986.681H1209.47L1198.36 981.822H1251.32H1251.29ZM1196.39 981.822L1207.34 986.681H1152.7L1143.3 981.822H1196.39ZM1141.48 981.822L1150.75 986.681H1095.98L1088.28 981.822H1141.5H1141.48ZM1038.19 987.239L1044.9 992.804H987.914L982.988 987.239H1038.16H1038.19ZM927.656 993.408L930.947 999.828H871.54L870.353 993.408H927.656ZM691.526 993.408L685.839 999.828H626.588L634.336 993.408H691.504H691.526ZM583.124 987.239L574.301 992.804H517.559L528.15 987.239H583.102H583.124ZM439.207 977.018L427.921 981.302H375.277L387.906 977.018H439.207ZM350.309 972.27L361.483 968.879H410.097L399.975 972.27H350.309ZM1292.68 976.526L1281.35 972.726H1331.17L1343.69 976.526H1292.7H1292.68ZM1292.05 977.009L1304.68 981.292H1252.03L1240.75 977.009H1292.05ZM1086.55 981.813L1094.12 986.672H1039.22L1033.21 981.813H1086.55ZM981.331 987.229L986.123 992.795H929.066L926.088 987.229H981.353H981.331ZM810.252 999.81L811.304 993.39H868.629L869.681 999.81H810.274H810.252ZM640.023 987.229L633.149 992.795H576.272L584.938 987.229H640.023ZM536.637 981.813L527.232 986.672H472.595L483.544 981.813H536.637ZM400.513 972.726H450.471L440.461 976.526H389.317L400.513 972.726ZM763.093 972.261L764.817 968.87H814.148L813.521 972.261H763.093ZM760.921 976.517L762.869 972.716H813.454L812.737 976.517H760.921ZM814.036 976.517L814.663 972.716H865.248L865.875 976.517H814.036ZM865.74 968.87H915.071L916.795 972.261H866.367L865.74 968.87ZM1132.3 977L1140.45 981.283H1087.4L1080.62 977H1132.3ZM1031.6 981.803L1037.47 986.663H982.473L978.173 981.803H1031.6ZM924.476 987.22L927.32 992.786H870.196L869.166 987.22H924.476ZM696.945 987.22L692.019 992.786H635.03L641.748 987.22H696.923H696.945ZM591.678 981.803L583.975 986.663H529.203L538.473 981.803H591.7H591.678ZM654.691 976.517L659.281 972.716H709.776L706.417 976.517H654.691ZM867.173 976.517L866.457 972.716H917.042L918.99 976.517H867.173ZM920.333 976.517L918.296 972.716H968.836L972.105 976.517H920.333ZM973.493 976.517L970.134 972.716H1020.63L1025.22 976.517H973.493ZM976.651 981.803L980.838 986.663H925.775L923.177 981.803H976.673H976.651ZM1030.95 981.283H977.703L973.919 977H1025.8L1030.97 981.283H1030.95ZM811.371 992.786L812.289 987.22H867.599L868.495 992.786H811.371ZM646.696 981.803L640.695 986.663H585.789L593.357 981.803H646.696ZM545.908 977L537.622 981.283H484.686L494.338 977H545.908ZM452.24 972.716H502.332L493.643 976.517H442.365L452.24 972.716ZM453.427 972.252L462.227 968.861H511.087L503.339 972.252H453.404H453.427ZM505.019 972.252L512.655 968.861H561.627L555.066 972.252H505.019ZM556.611 972.252L563.06 968.861H612.145L606.771 972.252H556.611ZM601.576 976.507L607.487 972.707H657.893L653.213 976.507H601.576ZM652.608 976.99L647.323 981.274H594.164L600.837 976.99H652.631H652.608ZM600.03 976.507H548.505L555.738 972.707H606.054L600.03 976.507ZM599.269 976.99L592.484 981.274H539.436L547.587 976.99H599.269ZM495.435 976.507L503.989 972.707H554.193L546.848 976.507H495.435ZM701.715 981.794L697.416 986.653H642.42L648.286 981.794H701.715ZM648.913 981.274L654.086 976.99H705.969L702.185 981.274H648.913ZM756.733 981.794L754.136 986.653H699.073L703.26 981.794H756.756H756.733ZM757.002 981.274H703.685L707.358 976.99H759.286L757.002 981.274ZM755.703 986.653L758.189 981.794H811.729L810.834 986.653H755.703ZM812.357 986.653L813.14 981.794H866.703L867.487 986.653H812.357ZM868.047 981.274L867.241 976.99H919.214L921.408 981.274H868.047ZM920.557 976.99H972.486L976.158 981.274H922.841L920.557 976.99ZM921.677 981.794L924.162 986.653H869.032L868.136 981.794H921.677ZM758.458 981.274L760.652 976.99H812.625L811.819 981.274H758.458ZM658.475 972.243H608.226L613.511 968.851H662.685L658.497 972.243H658.475ZM753.822 987.211L750.844 992.776H693.788L698.58 987.211H753.845H753.822ZM810.722 987.211L809.692 992.776H752.568L755.412 987.211H810.722ZM1073.81 972.698H1124.13L1131.36 976.498H1079.84L1073.81 972.698ZM1073.1 972.233L1067.72 968.842H1116.81L1123.25 972.233H1073.1ZM1026.65 976.489L1021.97 972.689H1072.38L1078.29 976.489H1026.65ZM1079.03 976.972L1085.7 981.255H1032.54L1027.26 976.972H1079.05H1079.03ZM1124.78 972.224L1118.22 968.833H1167.19L1174.82 972.224H1124.78ZM1184.43 976.479H1133.02L1125.67 972.679H1175.88L1184.43 976.479ZM1176.48 972.224L1168.73 968.833H1217.59L1226.39 972.224H1176.46H1176.48ZM1237.5 976.479H1186.22L1177.53 972.679H1227.63L1237.5 976.479ZM1229.42 972.679H1279.38L1290.57 976.479H1239.43L1229.42 972.679ZM1228.21 972.215L1219.27 968.823H1268.02L1278.01 972.215H1228.21ZM1021.39 972.215L1017.2 968.823H1066.38L1071.66 972.215H1021.41H1021.39ZM969.709 972.215L966.708 968.823H1015.95L1020.05 972.215H969.709ZM918.027 972.215L916.213 968.823H965.499L968.41 972.215H918.027ZM813.252 981.246L813.946 976.963H865.942L866.636 981.246H813.252ZM707.806 976.479L711.075 972.679H761.615L759.577 976.479H707.806ZM761.861 972.224H711.478L714.389 968.833H763.675L761.861 972.224ZM710.179 972.224H659.841L663.939 968.833H713.18L710.179 972.224ZM612.861 968.396H563.911L569.689 965.358H617.653L612.839 968.396H612.861ZM562.501 968.396H513.662L520.492 965.358H568.367L562.501 968.396ZM512.14 968.396H463.414L471.296 965.358H519.059L512.14 968.396ZM413.165 968.396L422.122 965.358H469.773L461.779 968.396H413.165ZM460.615 968.833L451.68 972.224H401.879L411.866 968.833H460.615ZM492.569 976.963L482.783 981.246H430.004L441.133 976.963H492.569ZM1185.55 976.963L1195.2 981.246H1142.27L1133.98 976.963H1185.55ZM1238.8 976.963L1249.93 981.246H1197.15L1187.36 976.963H1238.8ZM1218.15 968.396L1210.16 965.358H1257.81L1266.77 968.396H1218.15ZM1167.77 968.396L1160.85 965.358H1208.61L1216.5 968.396H1167.77ZM1117.41 968.396L1111.54 965.358H1159.42L1166.25 968.396H1117.41ZM1067.05 968.396L1062.23 965.358H1110.2L1115.98 968.396H1067.05ZM1016.69 968.396L1012.95 965.358H1061L1065.73 968.396H1016.71H1016.69ZM966.35 968.396L963.663 965.358H1011.78L1015.46 968.396H966.35ZM814.753 972.224L815.312 968.833H864.643L865.203 972.224H814.753ZM664.499 968.396L668.171 965.358H716.292L713.605 968.396H664.499ZM663.245 968.396H614.227L618.952 965.358H667.007L663.267 968.396H663.245ZM521.455 964.94L527.613 962.208H574.481L569.196 964.94H521.455ZM472.393 964.94L479.491 962.208H526.269L520.022 964.94H472.393ZM423.331 964.94L431.392 962.208H478.058L470.848 964.94H423.331ZM428.638 981.766H481.596L470.49 986.625H416.009L428.66 981.766H428.638ZM750.553 993.352L747.127 999.773H687.787L693.295 993.352H750.553ZM809.602 993.352L808.415 999.773H749.008L752.3 993.352H809.602ZM1306.9 981.246L1294.11 976.963H1345.25L1359.36 981.246H1306.87H1306.9ZM1279.96 972.215L1269.84 968.823H1318.45L1329.62 972.215H1279.96ZM1209.06 964.94L1201.85 962.208H1248.52L1256.58 964.94H1209.06ZM1159.89 964.94L1153.64 962.208H1200.42L1207.52 964.94H1159.89ZM1110.74 964.94L1105.45 962.208H1152.32L1158.48 964.94H1110.74ZM916.012 968.396L914.377 965.358H962.543L965.163 968.396H916.012ZM865.673 968.396L865.113 965.358H913.302L914.847 968.396H865.651H865.673ZM814.237 968.396H765.041L766.586 965.358H814.797L814.237 968.396ZM763.899 968.396H714.747L717.367 965.358H765.534L763.899 968.396ZM618.325 964.94H570.495L575.712 962.208H622.669L618.348 964.94H618.325ZM429.825 962.208L421.674 964.94H374.269L383.271 962.208H429.825ZM420.42 965.358L411.373 968.396H362.893L372.903 965.358H420.442H420.42ZM348.764 972.679H398.587L387.257 976.479H336.269L348.786 972.679H348.764ZM526.135 987.192L515.364 992.758H458.778L471.318 987.192H526.135ZM1268.51 968.396L1259.45 965.358H1306.99L1316.99 968.396H1268.51ZM1258.21 964.94L1250.06 962.208H1296.62L1305.62 964.94H1258.21ZM1061.56 964.94L1057.24 962.208H1104.2L1109.42 964.94H1061.59H1061.56ZM1012.41 964.94L1009.03 962.208H1056.05L1060.31 964.94H1012.39H1012.41ZM963.26 964.94L960.841 962.208H1007.93L1011.25 964.94H963.26ZM914.131 964.94L912.675 962.208H959.811L962.163 964.94H914.131ZM815.335 968.396L815.827 965.358H864.038L864.531 968.396H815.335ZM717.703 964.94L720.054 962.208H767.191L765.735 964.94H717.703ZM716.606 964.94H668.619L671.933 962.208H719.024L716.606 964.94ZM667.454 964.94H619.534L623.789 962.208H670.813L667.432 964.94H667.454ZM575.22 961.808H528.464L534.04 959.337H579.989L575.22 961.808ZM527.165 961.808H480.521L486.948 959.337H532.808L527.165 961.808ZM479.088 961.808H432.534L439.812 959.337H485.582L479.066 961.808H479.088ZM431.012 961.808H384.569L392.72 959.337H438.379L431.012 961.808ZM325.207 964.94L335.171 962.208H381.614L372.5 964.94H325.207ZM373.709 981.766H426.511L413.702 986.625H359.378L373.709 981.766ZM469.191 987.183L456.472 992.748H400.043L414.508 987.183H469.168H469.191ZM514.222 993.352L501.817 999.773H442.992L457.457 993.352H514.245H514.222ZM746.746 1000.43L742.738 1007.9H680.756L687.182 1000.43H746.746ZM808.259 1000.43L806.87 1007.9H744.821L748.65 1000.43H808.259ZM1151.76 987.192L1162.35 992.758H1105.61L1096.79 987.192H1151.74H1151.76ZM1208.57 987.192L1221.11 992.758H1164.52L1153.75 987.192H1208.57ZM1265.36 987.192L1279.82 992.758H1223.39L1210.67 987.192H1265.34H1265.36ZM1322.15 987.192L1338.56 992.758H1282.31L1267.64 987.192H1322.15ZM1322.95 986.635L1308.44 981.775H1361.09L1377.12 986.635H1322.97H1322.95ZM1331.66 972.224L1320.38 968.833H1368.86L1381.19 972.224H1331.66ZM1248.88 961.808L1241.51 959.337H1287.17L1295.32 961.808H1248.88ZM1200.8 961.808L1194.28 959.337H1240.05L1247.33 961.808H1200.78H1200.8ZM1152.72 961.808L1147.08 959.337H1192.94L1199.37 961.808H1152.72ZM1104.67 961.808L1099.9 959.337H1145.85L1151.42 961.808H1104.69H1104.67ZM1056.61 961.808L1052.7 959.337H1098.73L1103.44 961.808H1056.61ZM1008.56 961.808L1005.51 959.337H1051.62L1055.47 961.808H1008.56ZM865.024 964.94L864.509 962.208H911.69L913.078 964.94H865.024ZM815.917 964.94L816.365 962.208H863.546L863.994 964.94H815.917ZM814.887 964.94H766.832L768.221 962.208H815.402L814.887 964.94ZM624.461 961.808L628.312 959.337H674.418L671.373 961.808H624.461ZM623.319 961.808H576.496L581.198 959.337H627.237L623.319 961.808ZM487.978 958.947L493.8 956.707H538.832L533.704 958.947H487.956H487.978ZM440.999 958.947L447.604 956.707H492.546L486.635 958.947H440.976H440.999ZM394.019 958.947L401.409 956.707H446.261L439.566 958.947H394.019ZM347.062 958.947L355.235 956.707H399.998L392.519 958.947H347.084H347.062ZM391.22 959.337L382.98 961.808H336.649L345.651 959.337H391.22ZM371.134 965.358L361.012 968.396H312.667L323.729 965.358H371.134ZM297.059 972.679H346.726L334.052 976.479H283.198L297.037 972.679H297.059ZM455.151 993.352L440.484 999.773H381.838L398.52 993.352H455.128H455.151ZM1341.25 992.748L1324.63 987.183H1378.95L1397.29 992.748H1341.25ZM1361.8 981.246L1347.52 976.963H1398.5L1414.11 981.246H1361.8ZM1318.94 968.396L1308.82 965.358H1356.25L1367.31 968.396H1318.97H1318.94ZM1296.98 961.808L1288.74 959.337H1334.3L1343.31 961.808H1296.98ZM1287.46 958.947L1279.98 956.707H1324.74L1332.92 958.947H1287.46ZM1240.39 958.947L1233.69 956.707H1278.55L1285.94 958.947H1240.39ZM1193.32 958.947L1187.41 956.707H1232.35L1238.96 958.947H1193.3H1193.32ZM1146.25 958.947L1141.12 956.707H1186.16L1191.98 958.947H1146.23H1146.25ZM960.55 961.808L958.356 959.337H1004.53L1007.51 961.808H960.55ZM912.518 961.808L911.197 959.337H957.415L959.543 961.808H912.518ZM864.486 961.808L864.038 959.337H910.279L911.555 961.808H864.509H864.486ZM768.467 961.808L769.721 959.337H815.962L815.491 961.808H768.445H768.467ZM767.482 961.808H720.457L722.585 959.337H768.803L767.482 961.808ZM719.45 961.808H672.47L675.449 959.337H721.622L719.427 961.808H719.45ZM580.818 958.947H534.98L540.018 956.707H585.139L580.795 958.947H580.818ZM288.729 961.808L298.582 959.337H344.039L334.925 961.808H288.707H288.729ZM333.47 962.208L323.393 964.94H276.234L287.139 962.208H333.47ZM318.892 981.766H371.537L357.027 986.625H302.881L318.915 981.766H318.892ZM562.187 1000.42L550.341 1007.89H488.74L502.959 1000.42H562.165H562.187ZM742.447 1008.63L737.745 1017.44H672.672L680.24 1008.63H742.469H742.447ZM806.826 1008.63L805.191 1017.44H740.051L744.552 1008.63H806.826ZM1399.33 993.352L1420.49 999.773H1362.25L1343.1 993.352H1399.35H1399.33ZM1356.65 964.94L1346.58 962.208H1392.91L1403.81 964.94H1356.65ZM1345.1 961.808L1335.98 959.337H1381.44L1391.29 961.808H1345.07H1345.1ZM1099.23 958.947L1094.88 956.707H1140L1145.04 958.947H1099.2H1099.23ZM1052.18 958.947L1048.62 956.707H1093.81L1098.09 958.947H1052.18ZM1005.13 958.947L1002.36 956.707H1047.61L1051.11 958.947H1005.11H1005.13ZM958.087 958.947L956.094 956.707H1001.42L1004.13 958.947H958.087ZM816.544 961.808L816.947 959.337H863.188L863.591 961.808H816.544ZM676.008 958.947L678.718 956.707H724.04L722.047 958.947H676.008ZM675.001 958.947H629.006L632.5 956.707H677.755L674.978 958.947H675.001ZM627.954 958.947H582.049L586.326 956.707H631.514L627.954 958.947ZM539.794 956.336H494.875L500.182 954.292H544.452L539.794 956.336ZM493.643 956.336H448.814L454.815 954.292H498.995L493.621 956.336H493.643ZM447.492 956.336H402.752L409.47 954.292H453.583L447.492 956.336ZM401.341 956.336H356.691L364.125 954.292H408.126L401.319 956.336H401.341ZM355.19 956.336H310.652L318.78 954.292H362.692L355.168 956.336H355.19ZM353.824 956.707L345.562 958.947H300.217L309.174 956.707H353.824ZM321.938 965.358L310.764 968.396H262.552L274.667 965.358H321.96H321.938ZM245.445 972.679H294.977L280.982 976.479H230.307L245.467 972.679H245.445ZM549.267 1008.63L535.316 1017.44H470.669L487.441 1008.63H549.267ZM1115.71 1000.42L1127.33 1007.89H1065.57L1056.35 1000.42H1115.69H1115.71ZM1177.13 1000.42L1191.35 1007.89H1129.77L1117.93 1000.42H1177.13ZM1238.53 1000.42L1255.35 1007.89H1193.95L1179.5 1000.42H1238.53ZM1299.93 1000.42L1319.37 1007.89H1258.17L1241.11 1000.42H1299.95H1299.93ZM1361.33 1000.42L1383.37 1007.89H1322.37L1302.69 1000.42H1361.33ZM1400.27 992.748L1381.71 987.183H1435.85L1456.12 992.748H1400.25H1400.27ZM1399.22 976.479L1385.22 972.679H1434.76L1449.92 976.479H1399.22ZM1383.52 972.224L1371.03 968.833H1419.37L1432.9 972.224H1383.52ZM1369.44 968.396L1358.26 965.358H1405.56L1417.67 968.396H1369.46H1369.44ZM1334.64 958.956L1326.38 956.717H1371.03L1379.98 958.956H1334.64ZM1325.01 956.345L1317.49 954.301H1361.4L1369.53 956.345H1324.99H1325.01ZM1278.86 956.345L1272.05 954.301H1316.05L1323.49 956.345H1278.86ZM1232.71 956.345L1226.62 954.301H1270.71L1277.43 956.345H1232.69H1232.71ZM1186.56 956.345L1181.18 954.301H1225.36L1231.37 956.345H1186.54H1186.56ZM1140.41 956.345L1135.75 954.301H1180.02L1185.33 956.345H1140.41ZM1094.26 956.345L1090.32 954.301H1134.67L1139.27 956.345H1094.26ZM1048.11 956.345L1044.88 954.301H1089.31L1093.18 956.345H1048.11ZM911.108 958.956L909.898 956.717H955.266L957.191 958.956H911.108ZM864.083 958.956L863.658 956.717H909.047L910.189 958.956H864.083ZM817.059 958.956L817.417 956.717H862.807L863.165 958.956H817.036H817.059ZM816.163 958.956H770.057L771.199 956.717H816.589L816.163 958.956ZM769.139 958.956H723.055L724.981 956.717H770.348L769.139 958.956ZM587.065 956.345L590.939 954.301H635.366L632.141 956.345H587.065ZM585.99 956.345H540.981L545.572 954.301H589.931L585.99 956.345ZM317.28 954.301L309.062 956.345H264.635L273.48 954.301H317.302H317.28ZM253.282 958.956L263 956.717H307.539L298.493 958.956H253.26H253.282ZM296.947 959.346L286.983 961.818H240.899L251.625 959.346H296.97H296.947ZM285.371 962.217L274.331 964.949H227.284L239.152 962.217H285.371ZM264.098 981.775H316.563L300.351 986.635H246.385L264.098 981.775ZM318.892 1000.43H377.538L357.855 1007.9H296.858L318.87 1000.43H318.892ZM737.386 1018.25L731.766 1028.77H662.998L672.045 1018.25H737.386ZM805.124 1018.25L803.176 1028.77H734.341L739.715 1018.25H805.124ZM1422.73 1000.43L1447.36 1007.9H1386.59L1364.29 1000.43H1422.73ZM1423.7 999.773L1402.29 993.352H1458.34L1481.71 999.773H1423.7ZM1405.89 964.94L1394.85 962.208H1441.07L1452.94 964.94H1405.89ZM1393.24 961.808L1383.28 959.337H1428.62L1439.35 961.808H1393.26H1393.24ZM1381.71 958.947L1372.66 956.707H1417.2L1426.92 958.947H1381.69H1381.71ZM1371.16 956.336L1362.94 954.292H1406.77L1415.61 956.336H1371.18H1371.16ZM1001.95 956.336L999.446 954.292H1043.94L1047.12 956.336H1001.98H1001.95ZM955.826 956.336L954.012 954.292H998.55L1001.01 956.336H955.826ZM909.697 956.336L908.6 954.292H953.183L954.93 956.336H909.697ZM863.568 956.336L863.188 954.292H907.793L908.846 956.336H863.591H863.568ZM771.356 956.336L772.408 954.292H817.014L816.633 956.336H771.378H771.356ZM725.272 956.336L727.019 954.292H771.602L770.505 956.336H725.272ZM724.376 956.336H679.188L681.651 954.292H726.19L724.376 956.336ZM678.248 956.336H633.104L636.284 954.292H680.778L678.27 956.336H678.248ZM545.303 953.939H501.145L505.982 952.08H549.558L545.303 953.939ZM499.981 953.939H455.912L461.398 952.08H504.885L499.981 953.939ZM454.658 953.939H410.679L416.815 952.08H460.234L454.68 953.939H454.658ZM409.336 953.939H365.424L372.209 952.08H415.538L409.336 953.939ZM364.013 953.939H320.213L327.648 952.08H370.888L364.013 953.939ZM318.691 953.939H274.98L283.064 952.08H326.214L318.691 953.939ZM229.77 953.939L238.503 952.08H281.564L273.39 953.939H229.792H229.77ZM272.584 965.367L260.336 968.405H212.259L225.426 965.367H272.584ZM193.673 972.689H243.049L227.71 976.489H177.192L193.673 972.689ZM601.799 1018.26L588.812 1028.78H520.335L536.704 1018.26H601.799ZM1436.62 986.644L1418.7 981.785H1471.01L1490.42 986.644H1436.64H1436.62ZM1452.42 976.489L1437.09 972.689H1486.46L1502.94 976.489H1452.42ZM1435.23 972.233L1421.55 968.842H1469.76L1484.45 972.233H1435.2H1435.23ZM1419.8 968.405L1407.55 965.367H1454.71L1467.88 968.405H1419.8ZM1406.77 953.948L1398.59 952.09H1441.65L1450.39 953.948H1406.79H1406.77ZM1361.44 953.948L1353.92 952.09H1397.07L1405.15 953.948H1361.44ZM1316.12 953.948L1309.25 952.09H1352.49L1359.92 953.948H1316.12ZM1270.8 953.948L1264.6 952.09H1307.93L1314.71 953.948H1270.82H1270.8ZM1225.48 953.948L1219.92 952.09H1263.34L1269.48 953.948H1225.48ZM1180.15 953.948L1175.25 952.09H1218.74L1224.22 953.948H1180.15ZM1134.85 953.948L1130.6 952.09H1174.18L1179.01 953.948H1134.85ZM1089.55 953.948L1085.95 952.09H1129.59L1133.78 953.948H1089.55ZM1044.25 953.948L1041.3 952.09H1085.01L1088.55 953.948H1044.23H1044.25ZM998.953 953.948L996.647 952.09H1040.42L1043.34 953.948H998.976H998.953ZM817.44 956.345L817.776 954.301H862.381L862.717 956.345H817.44ZM636.821 953.948L639.71 952.09H683.487L681.181 953.948H636.821ZM635.881 953.948H591.566L595.104 952.09H638.814L635.858 953.948H635.881ZM590.581 953.948H546.333L550.521 952.09H594.164L590.558 953.948H590.581ZM271.801 954.31L262.866 956.354H218.529L228.09 954.31H271.801ZM261.209 956.726L251.379 958.965H206.258L216.76 956.726H261.209ZM249.677 959.356L238.839 961.827H192.867L204.444 959.356H249.677ZM237.092 962.227L225.112 964.958H178.2L191.008 962.227H237.092ZM209.146 981.785H261.455L243.541 986.644H189.754L209.169 981.785H209.146ZM257.447 1000.44H315.892L293.589 1007.91H232.815L257.447 1000.44ZM266.314 1018.26H330.559L302.859 1028.78H235.323L266.314 1018.26ZM587.692 1029.71L571.95 1042.46H499.062L518.902 1029.71H587.67H587.692ZM731.228 1029.71L724.399 1042.46H651.197L662.17 1029.71H731.228ZM802.974 1029.71L800.6 1042.46H727.31L733.826 1029.71H802.974ZM1075.83 1018.26L1088.52 1028.78H1019.89L1010.6 1018.26H1075.83ZM1143.45 1018.26L1159.82 1028.78H1091.35L1078.36 1018.26H1143.45ZM1211.08 1018.26L1231.1 1028.78H1162.82L1146.16 1018.26H1211.08ZM1278.68 1018.26L1302.35 1028.78H1234.3L1213.97 1018.26H1278.66H1278.68ZM1346.28 1018.26L1373.63 1028.78H1305.82L1281.82 1018.26H1346.28ZM1413.86 1018.26L1444.86 1028.78H1377.32L1349.62 1018.26H1413.86ZM1449.74 1008.64L1478.76 1017.44H1415.03L1388.74 1008.64H1449.74ZM1450.79 1007.91L1425.87 1000.44H1484.09L1511.29 1007.91H1450.77H1450.79ZM1459.19 992.767L1438.68 987.202H1492.64L1514.86 992.767H1459.21H1459.19ZM1455.07 964.958L1443.09 962.227H1489.17L1501.98 964.958H1455.07ZM1441.32 961.827L1430.48 959.356H1475.71L1487.29 961.827H1441.32ZM1428.78 958.965L1418.95 956.726H1463.37L1473.88 958.965H1428.76H1428.78ZM1417.31 956.354L1408.38 954.31H1452.09L1461.65 956.354H1417.34H1417.31ZM953.676 953.957L952.019 952.099H995.841L998.103 953.957H953.676ZM908.398 953.957L907.39 952.099H951.235L952.825 953.957H908.376H908.398ZM863.12 953.957L862.762 952.099H906.629L907.592 953.957H863.12ZM817.059 953.957H772.587L773.55 952.099H817.417L817.059 953.957ZM771.781 953.957H727.332L728.922 952.099H772.766L771.759 953.957H771.781ZM726.503 953.957H682.077L684.338 952.099H728.161L726.503 953.957ZM550.364 951.746H506.9L511.334 950.036H554.26L550.364 951.746ZM505.825 951.746H462.451L467.467 950.036H510.304L505.803 951.746H505.825ZM461.286 951.746H417.979L423.6 950.036H466.369L461.286 951.746ZM416.748 951.746H373.53L379.733 950.036H422.413L416.725 951.746H416.748ZM372.209 951.746H329.081L335.888 950.036H378.501L372.209 951.746ZM327.67 951.746H284.632L292.021 950.036H334.544L327.67 951.746ZM283.131 951.746H240.182L248.176 950.036H290.61L283.131 951.746ZM238.592 951.746H195.733L204.31 950.036H246.654L238.57 951.746H238.592ZM236.935 952.099L228.113 953.957H184.604L193.987 952.099H236.935ZM172.512 956.364L182.768 954.32H226.389L216.737 956.364H172.512ZM223.321 965.386L210.02 968.424H162.077L176.296 965.386H223.321ZM141.991 972.707H191.21L174.55 976.507H124.189L141.991 972.707ZM372.276 1029.73L343.166 1042.48H271.039L304.18 1029.73H372.276ZM444.111 1029.73L419.457 1042.48H347.062L375.769 1029.73H444.111ZM1485.1 999.801L1461.45 993.38H1517.3L1542.91 999.801H1485.12H1485.1ZM1471.73 981.274L1454.44 976.99H1505.11L1523.7 981.274H1471.73ZM1472.15 968.851H1520.23L1536.11 972.243H1487.02L1472.15 968.851ZM1470.23 968.415L1456.93 965.376H1503.95L1518.17 968.415H1470.23ZM1463.51 956.354L1453.86 954.31H1497.48L1507.73 956.354H1463.51ZM1452.13 953.957L1443.31 952.099H1486.26L1495.64 953.957H1452.13ZM1441.65 951.746L1433.57 950.036H1475.91L1484.49 951.746H1441.63H1441.65ZM1397.12 951.746L1389.64 950.036H1432.07L1440.06 951.746H1397.12ZM1352.58 951.746L1345.7 950.036H1388.23L1395.61 951.746H1352.58ZM1308.04 951.746L1301.75 950.036H1344.36L1351.17 951.746H1308.04ZM1263.5 951.746L1257.81 950.036H1300.49L1306.69 951.746H1263.48H1263.5ZM1218.96 951.746L1213.88 950.036H1256.65L1262.27 951.746H1218.96ZM1174.42 951.746L1169.92 950.036H1212.76L1217.8 951.746H1174.42ZM1129.88 951.746L1125.99 950.036H1168.91L1173.35 951.746H1129.88ZM1085.34 951.746L1082.05 950.036H1125.05L1128.88 951.746H1085.34ZM1040.81 951.746L1038.1 950.036H1081.16L1084.4 951.746H1040.81ZM996.289 951.746L994.184 950.036H1037.29L1039.95 951.746H996.289ZM951.772 951.746L950.272 950.036H993.423L995.483 951.746H951.772ZM907.256 951.746L906.338 950.036H949.511L950.966 951.746H907.234H907.256ZM817.887 953.957L818.201 952.099H862.09L862.404 953.957H817.91H817.887ZM729.28 951.746L730.736 950.036H773.931L773.013 951.746H729.28ZM684.809 951.746L686.869 950.036H730.019L728.519 951.746H684.809ZM684.002 951.746H640.337L643.002 950.036H686.107L684.002 951.746ZM639.486 951.746H595.888L599.135 950.036H642.196L639.486 951.746ZM594.97 951.746H551.439L555.268 950.036H598.261L594.97 951.746ZM202.787 950.036L194.121 951.746H151.374L160.554 950.036H202.809H202.787ZM215.036 956.735L204.421 958.975H159.435L170.721 956.735H215.058H215.036ZM202.585 959.365L190.874 961.836H145.036L157.464 959.365H202.585ZM188.993 962.236L176.05 964.967H129.272L143.021 962.236H188.993ZM154.374 981.794H206.504L186.888 986.653H133.28L154.374 981.794ZM254.402 1000.45L229.479 1007.92H168.952L196.159 1000.45H254.379H254.402ZM232.681 1029.72H300.508L266.919 1042.47H195.106L232.681 1029.72ZM570.696 1043.56L551.237 1059.34H472.93L497.473 1043.56H570.696ZM647.323 1043.56L633.373 1059.34H554.842L573.898 1043.56H647.323ZM723.928 1043.56L715.486 1059.34H636.821L650.391 1043.56H723.951H723.928ZM800.488 1043.56L797.555 1059.34H718.778L726.839 1043.56H800.488ZM1447.7 1029.72L1485.27 1042.47H1413.46L1379.87 1029.72H1447.7ZM1481.54 1018.27L1516.18 1028.79H1448.93L1417.56 1018.27H1481.54ZM1482.68 1017.45L1453.32 1008.65H1514.07L1546.16 1017.45H1482.7H1482.68ZM1505.74 976.498L1489.08 972.698H1538.3L1556.1 976.498H1505.74ZM1504.33 964.958L1491.39 962.227H1537.36L1551.11 964.958H1504.33ZM1489.48 961.827L1477.77 959.356H1522.89L1535.32 961.827H1489.48ZM1475.96 958.965L1465.35 956.726H1509.68L1520.97 958.965H1475.98H1475.96ZM1486.26 951.737L1477.59 950.027H1519.85L1529.03 951.737H1486.28H1486.26ZM862.807 951.737L862.493 950.027H905.689L906.562 951.737H862.807ZM818.313 951.737L818.582 950.027H861.799L862.068 951.737H818.29H818.313ZM817.574 951.737H773.819L774.692 950.027H817.887L817.574 951.737ZM555.133 949.683H512.319L516.394 948.122H558.716L555.156 949.683H555.133ZM511.311 949.683H468.564L473.177 948.122H515.431L511.311 949.683ZM467.489 949.683H424.831L429.982 948.122H472.169L467.511 949.683H467.489ZM423.667 949.683H381.076L386.764 948.122H428.862L423.644 949.683H423.667ZM379.845 949.683H337.344L343.591 948.122H385.622L379.867 949.683H379.845ZM336.022 949.683H293.611L300.396 948.122H342.337L336.022 949.683ZM292.2 949.683H249.878L257.201 948.122H299.075L292.223 949.683H292.2ZM248.378 949.683H206.123L213.983 948.122H255.768L248.356 949.683H248.378ZM204.556 949.683H162.391L170.81 948.122H212.505L204.556 949.683ZM118.658 949.683L127.615 948.122H169.22L160.711 949.683H118.636H118.658ZM192.352 952.08L182.88 953.939H139.483L149.515 952.08H192.374H192.352ZM181.044 954.301L170.676 956.345H126.563L137.535 954.301H181.044ZM174.102 965.367L159.726 968.405H111.94L127.212 965.367H174.102ZM90.3763 972.689H139.438L121.435 976.489H71.0291L90.1524 972.689H90.3763ZM340.77 1043.55L304.74 1059.33H227.284L268.285 1043.55H340.747H340.77ZM1030.06 1043.55L1043.63 1059.33H964.962L956.52 1043.55H1030.08H1030.06ZM1106.5 1043.55L1125.56 1059.33H1047.03L1033.08 1043.55H1106.5ZM1182.93 1043.55L1207.47 1059.33H1129.17L1109.71 1043.55H1182.93ZM1259.36 1043.55L1289.38 1059.33H1211.32L1186.33 1043.55H1259.33H1259.36ZM1335.76 1043.55L1371.27 1059.33H1293.51L1263.01 1043.55H1335.76ZM1412.14 1043.55L1453.14 1059.33H1375.69L1339.66 1043.55H1412.12H1412.14ZM1515.12 1007.91L1487.6 1000.44H1545.6L1575.4 1007.91H1515.12ZM1518.21 992.767L1495.75 987.202H1549.52L1573.66 992.767H1518.21ZM1522.76 968.842H1570.68L1587.72 972.233H1538.79L1522.74 968.842H1522.76ZM1520.7 968.405L1506.32 965.367H1553.21L1568.49 968.405H1520.7ZM1509.75 956.345L1499.38 954.301H1542.89L1553.86 956.345H1509.75ZM1497.52 953.948L1488.05 952.09H1530.91L1540.94 953.948H1497.55H1497.52ZM1519.67 949.683L1511.16 948.122H1552.77L1561.72 949.683H1519.65H1519.67ZM1475.85 949.683L1467.9 948.122H1509.59L1518.01 949.683H1475.85ZM1432.03 949.683L1424.61 948.122H1466.4L1474.26 949.683H1432H1432.03ZM1388.2 949.683L1381.35 948.122H1423.22L1430.55 949.683H1388.23H1388.2ZM1344.38 949.683L1338.07 948.122H1380.01L1386.79 949.683H1344.38ZM1300.56 949.683L1294.8 948.122H1336.83L1343.08 949.683H1300.58H1300.56ZM1256.74 949.683L1251.52 948.122H1293.62L1299.3 949.683H1256.71H1256.74ZM1212.91 949.683L1208.26 948.122H1250.44L1255.59 949.683H1212.94H1212.91ZM1169.09 949.683L1164.97 948.122H1207.23L1211.84 949.683H1169.09ZM1125.27 949.683L1121.71 948.122H1164.03L1168.11 949.683H1125.29H1125.27ZM1081.45 949.683L1078.42 948.122H1120.81L1124.33 949.683H1081.45ZM1037.63 949.683L1035.14 948.122H1077.57L1080.55 949.683H1037.6H1037.63ZM993.826 949.683L991.9 948.122H1034.4L1036.84 949.683H993.848H993.826ZM950.026 949.683L948.638 948.122H991.183L993.064 949.683H950.026ZM906.226 949.683L905.397 948.122H947.966L949.309 949.683H906.226ZM862.449 949.683L862.157 948.122H904.748L905.554 949.683H862.471H862.449ZM774.894 949.683L775.7 948.122H818.29L817.999 949.683H774.894ZM774.2 949.683H731.139L732.482 948.122H775.05L774.222 949.683H774.2ZM730.4 949.683H687.361L689.242 948.122H731.788L730.4 949.683ZM686.6 949.683H643.606L646.047 948.122H688.548L686.622 949.683H686.6ZM642.8 949.683H599.851L602.829 948.122H645.263L642.778 949.683H642.8ZM599 949.683H556.119L559.634 948.122H602.023L599 949.683ZM158.897 950.027L149.627 951.737H106.969L116.732 950.027H158.897ZM94.2726 953.948L104.931 952.09H147.701L137.58 953.948H94.2726ZM168.795 956.726L157.397 958.965H112.522L124.57 956.726H168.795ZM155.427 959.356L142.864 961.827H97.1388L110.44 959.356H155.427ZM140.827 962.227L126.921 964.958H80.2772L94.9891 962.227H140.827ZM192.845 1000.45L165.324 1007.92H105.043L134.848 1000.45H192.845ZM195.017 1018.27L159.95 1028.79H92.9962L131.287 1018.27H194.994H195.017ZM161.159 1029.72H228.695L190.65 1042.47H119.151L161.159 1029.72ZM264.075 1043.56L222.515 1059.34H145.417L191.904 1043.56H264.075ZM467.064 1060.63L435.378 1080.63H350.488L388.578 1060.63H467.041H467.064ZM549.67 1060.63L524.971 1080.63H439.789L470.915 1060.63H549.647H549.67ZM632.253 1060.63L614.563 1080.63H529.158L553.32 1060.63H632.253ZM714.815 1060.63L704.111 1080.63H618.527L635.724 1060.63H714.815ZM797.353 1060.63L793.636 1080.63H707.918L718.151 1060.63H797.353ZM1519.29 1029.72L1561.3 1042.47H1489.8L1451.75 1029.72H1519.29ZM1549.16 1018.27L1587.45 1028.79H1520.5L1485.43 1018.27H1549.14H1549.16ZM1576.3 993.371L1604.13 999.791H1546.56L1520.65 993.371H1576.28H1576.3ZM1550.32 986.653L1528.98 981.794H1580.94L1603.73 986.653H1550.32ZM1559.01 976.498L1541.01 972.698H1590.07L1609.19 976.498H1558.99H1559.01ZM1553.55 964.958L1539.64 962.227H1585.48L1600.19 964.958H1553.55ZM1537.61 961.827L1525.04 959.356H1570.03L1583.33 961.827H1537.61ZM1523.07 958.965L1511.68 956.726H1555.9L1567.97 958.965H1523.1H1523.07ZM1542.87 953.948L1532.75 952.09H1575.52L1586.18 953.948H1542.87ZM1530.82 951.737L1521.55 950.027H1563.72L1573.48 951.737H1530.82ZM818.671 949.683L818.917 948.122H861.508L861.754 949.683H818.649H818.671ZM559.5 947.788H517.29L521.03 946.348H562.792L559.5 947.788ZM516.349 947.788H474.207L478.439 946.348H520.134L516.349 947.788ZM473.199 947.788H431.124L435.871 946.348H477.498L473.199 947.788ZM430.049 947.788H388.04L393.28 946.348H434.841L430.049 947.788ZM386.898 947.788H344.979L350.712 946.348H392.205L386.898 947.788ZM343.748 947.788H301.896L308.144 946.348H349.548L343.748 947.788ZM300.597 947.788H258.835L265.576 946.348H306.912L300.597 947.788ZM257.425 947.788H215.752L222.985 946.348H264.232L257.425 947.788ZM214.274 947.788H172.669L180.417 946.348H221.597L214.274 947.788ZM171.124 947.788H129.608L137.848 946.348H178.939L171.124 947.788ZM127.951 947.788H86.5248L95.2579 946.348H136.281L127.951 947.788ZM126.003 948.122L116.956 949.683H74.9702L84.4647 948.122H125.98H126.003ZM92.2125 954.31H135.609L124.525 956.354H80.5236L92.2125 954.31ZM124.794 965.376L109.365 968.415H61.4675L77.7917 965.376H124.547H124.794ZM107.126 968.851L89.8836 972.243H40.8888L59.1163 968.851H106.902H107.126ZM1550.28 1017.45L1517.83 1008.65H1578.34L1613.47 1017.45H1550.28ZM1590.56 972.243L1573.32 968.851H1621.11L1639.34 972.243H1590.56ZM1571.11 968.415L1555.68 965.376H1602.43L1618.76 968.415H1571.11ZM1555.92 956.354L1544.84 954.31H1588.24L1599.92 956.354H1555.92ZM1563.51 949.693L1554.47 948.132H1595.98L1605.48 949.693H1563.49H1563.51ZM1552.52 947.797L1544.19 946.357H1585.21L1593.95 947.797H1552.52ZM1509.35 947.797L1501.53 946.357H1542.62L1550.86 947.797H1509.35ZM1466.2 947.797L1458.87 946.357H1500.05L1507.78 947.797H1466.17H1466.2ZM1423.05 947.797L1416.24 946.357H1457.49L1464.72 947.797H1423.05ZM1379.9 947.797L1373.58 946.357H1414.92L1421.66 947.797H1379.9ZM1336.74 947.797L1330.95 946.357H1372.35L1378.6 947.797H1336.74ZM1293.59 947.797L1288.29 946.357H1329.76L1335.49 947.797H1293.57H1293.59ZM1250.44 947.797L1245.65 946.357H1287.21L1292.45 947.797H1250.44ZM1207.29 947.797L1202.99 946.357H1244.62L1249.37 947.797H1207.29ZM1164.14 947.797L1160.36 946.357H1202.05L1206.29 947.797H1164.14ZM1120.99 947.797L1117.7 946.357H1159.46L1163.2 947.797H1120.99ZM1077.84 947.797L1075.07 946.357H1116.87L1120.12 947.797H1077.84ZM1034.69 947.797L1032.41 946.357H1074.28L1077.01 947.797H1034.67H1034.69ZM991.542 947.797L989.773 946.357H1031.69L1033.93 947.797H991.542ZM948.414 947.797L947.137 946.357H989.101L990.847 947.797H948.414ZM905.286 947.797L904.524 946.357H946.51L947.742 947.797H905.286ZM862.157 947.797L861.889 946.357H903.897L904.636 947.797H862.157ZM818.402 947.797H775.924L776.663 946.357H818.671L818.402 947.797ZM775.274 947.797H732.818L734.05 946.357H776.036L775.274 947.797ZM732.146 947.797H689.713L691.459 946.357H733.423L732.146 947.797ZM689.018 947.797H646.629L648.869 946.357H690.787L689.018 947.797ZM645.868 947.797H603.524L606.256 946.357H648.13L645.846 947.797H645.868ZM602.718 947.797H560.44L563.687 946.357H605.494L602.718 947.797ZM93.3769 946.394L84.5542 947.834H43.1952L52.4209 946.394H93.3545H93.3769ZM114.739 950.073L104.864 951.783H62.296L72.6638 950.073H114.739ZM102.827 952.127L92.0333 953.985H48.8381L60.1464 952.127H102.804H102.827ZM122.286 956.763L110.104 959.002H65.319L78.15 956.763H122.263H122.286ZM107.999 959.393L94.5637 961.864H48.9501L63.1022 959.393H107.977H107.999ZM92.3916 962.264L77.523 964.995H30.9913L46.6437 962.264H92.3468H92.3916ZM96.1983 981.822L73.1564 986.681H19.9294L44.4044 981.822H96.1759H96.1983ZM47.8752 992.804L73.9402 987.239H127.503L103.095 992.804H47.8305H47.8752ZM131.041 1000.48L100.901 1007.95H40.8216L73.2236 1000.48H130.996H131.041ZM126.966 1018.3L88.2266 1028.82H21.5416L63.5052 1018.3H126.943H126.966ZM156.636 1029.75L114.135 1042.49H42.9489L89.391 1029.75H156.636ZM187.179 1043.59L140.11 1059.37H63.3485L115.322 1043.59H187.157H187.179ZM252.252 1082.26L192.531 1108.41H99.5796L167.563 1082.26H252.252ZM342.471 1082.26L291.909 1108.41H198.532L257.425 1082.26H342.471ZM432.669 1082.26L391.242 1108.41H297.485L347.286 1082.26H432.669ZM522.843 1082.26L490.576 1108.41H396.46L437.147 1082.26H522.843ZM612.973 1082.26L589.842 1108.41H495.457L527.053 1082.26H612.996H612.973ZM703.081 1082.26L689.086 1108.41H594.477L616.959 1082.26H703.081ZM793.144 1082.26L788.284 1108.41H693.542L706.91 1082.26H793.144ZM973.157 1082.26L986.526 1108.41H891.783L886.924 1082.26H973.157ZM1063.11 1082.26L1085.59 1108.41H990.982L976.986 1082.26H1063.11ZM1153.04 1082.26L1184.63 1108.41H1090.25L1067.12 1082.26H1153.06H1153.04ZM1242.92 1082.26L1283.61 1108.41H1189.49L1157.22 1082.26H1242.92ZM1332.78 1082.26L1382.58 1108.41H1288.82L1247.4 1082.26H1332.78ZM1422.64 1082.26L1481.54 1108.41H1388.16L1337.6 1082.26H1422.64ZM1512.48 1082.26L1580.47 1108.41H1487.54L1427.82 1082.26H1512.5H1512.48ZM1564.7 1043.59L1616.67 1059.37H1539.93L1492.87 1043.59H1564.7ZM1590.65 1029.75L1637.1 1042.49H1565.93L1523.43 1029.75H1590.68H1590.65ZM1616.54 1018.3L1658.5 1028.82H1591.84L1553.1 1018.3H1616.54ZM1606.8 1000.48L1639.2 1007.95H1579.17L1549.03 1000.48H1606.8ZM1635.01 993.399L1665.09 999.819H1607.74L1579.59 993.399H1635.01ZM1635.62 981.813L1660.09 986.672H1606.89L1583.85 981.813H1635.62ZM1641.6 972.726L1662.04 976.526H1612.02L1592.69 972.726H1641.6ZM1602.52 964.986L1587.65 962.254H1633.36L1649.01 964.986H1602.5H1602.52ZM1585.48 961.855L1572.05 959.383H1616.92L1631.07 961.855H1585.48ZM1569.94 958.993L1557.76 956.754H1601.87L1614.7 958.993H1569.94ZM1587.99 953.976L1577.2 952.118H1619.85L1631.16 953.976H1587.97H1587.99ZM1575.16 951.765L1565.28 950.055H1607.36L1617.73 951.765H1575.16ZM1595.47 947.816L1586.65 946.376H1627.58L1636.8 947.816H1595.47ZM1584.63 946.05L1576.5 944.722H1616.97L1625.47 946.05H1584.63ZM1542.08 946.05L1534.4 944.722H1574.96L1583.02 946.05H1542.11H1542.08ZM1499.54 946.05L1492.33 944.722H1532.95L1540.54 946.05H1499.54ZM1456.99 946.05L1450.25 944.722H1490.94L1498.08 946.05H1456.99ZM1414.45 946.05L1408.18 944.722H1448.93L1455.6 946.05H1414.45ZM1371.9 946.05L1366.08 944.722H1406.92L1413.15 946.05H1371.9ZM1329.36 946.05L1324 944.722H1364.91L1370.67 946.05H1329.36ZM1286.81 946.05L1281.93 944.722H1322.91L1328.19 946.05H1286.81ZM1244.26 946.05L1239.85 944.722H1280.9L1285.73 946.05H1244.29H1244.26ZM1201.72 946.05L1197.75 944.722H1238.87L1243.23 946.05H1201.72ZM1159.17 946.05L1155.68 944.722H1196.86L1200.78 946.05H1159.19H1159.17ZM1116.63 946.05L1113.6 944.722H1154.85L1158.3 946.05H1116.65H1116.63ZM1074.1 946.05L1071.53 944.722H1112.82L1115.8 946.05H1074.08H1074.1ZM1031.58 946.05L1029.47 944.722H1070.81L1073.34 946.05H1031.58ZM989.056 946.05L987.421 944.722H1028.8L1030.86 946.05H989.056ZM946.533 946.05L945.368 944.722H986.794L988.407 946.05H946.555H946.533ZM904.009 946.05L903.293 944.722H944.741L945.883 946.05H904.009ZM563.262 946.05H521.612L525.06 944.722H566.285L563.262 946.05ZM520.716 946.05H479.133L483.052 944.722H524.232L520.738 946.05H520.716ZM478.17 946.05H436.654L441.021 944.722H482.134L478.17 946.05ZM435.624 946.05H394.176L399.013 944.722H440.058L435.647 946.05H435.624ZM393.079 946.05H351.697L356.982 944.722H397.96L393.079 946.05ZM350.533 946.05H309.219L314.973 944.722H355.885L350.533 946.05ZM307.987 946.05H266.762L272.965 944.722H313.809L307.987 946.05ZM265.441 946.05H224.284L230.957 944.722H271.711L265.441 946.05ZM222.895 946.05H181.805L188.948 944.722H229.635L222.895 946.05ZM180.35 946.05H139.349L146.94 944.722H187.56L180.35 946.05ZM137.804 946.05H96.8925L104.954 944.722H145.507L137.826 946.05H137.804ZM95.2579 946.05H54.5482L63.0574 944.722H103.521L95.3922 946.05H95.2579ZM12.0696 946.06L21.049 944.74H61.4451L52.8464 946.069H12.0696V946.06ZM41.0231 948.159H82.4717L72.8653 949.72H30.9913L41.0231 948.159ZM17.8469 951.774L28.7968 950.064H70.7828L60.3255 951.774H17.8469ZM3.6052 953.994L15.5628 952.136H58.1534L46.7108 953.994H3.6052ZM46.6213 954.357H89.9284L78.1276 956.401H34.2382L46.6213 954.357ZM18.3395 959.012L31.9542 956.773H75.9555L62.9902 959.012H18.3619H18.3395ZM75.2165 965.423L58.7132 968.461H11.2187L28.5953 965.423H75.2165ZM1621.26 968.461L1604.76 965.423H1651.38L1668.76 968.461H1621.26ZM1617.01 959.021L1604.04 956.782H1648.05L1661.66 959.021H1617.01ZM1601.87 956.41L1590.07 954.366H1633.38L1645.76 956.41H1601.87ZM1633.29 954.013L1621.85 952.155H1664.41L1676.37 954.013H1633.27H1633.29ZM1619.7 951.802L1609.24 950.092H1651.23L1662.18 951.802H1619.72H1619.7ZM1607.11 949.748L1597.51 948.187H1638.95L1648.99 949.748H1607.11ZM1627.15 946.078L1618.56 944.75H1658.95L1667.93 946.078H1627.18H1627.15ZM819.029 946.078L819.253 944.75H860.724L860.948 946.078H819.052H819.029ZM16.0107 959.393H60.7733L46.4645 961.864H1.00766L16.0107 959.393ZM77.7245 1082.26H162.01L93.1306 1108.41H0.649384L77.7245 1082.26ZM1586.87 1108.41L1517.99 1082.26H1602.28L1679.35 1108.41H1586.87ZM1633.54 961.864L1619.23 959.393H1663.99L1678.99 961.864H1633.54ZM9.85272 946.394H50.7191L41.3814 947.834H0.134355L9.87511 946.394H9.85272ZM1638.62 947.834L1629.28 946.394H1670.13L1679.84 947.834H1638.6H1638.62Z" fill="url(#paint1_linear_192_32218)"/>
<rect y="944" width="1680" height="178" fill="url(#paint2_linear_192_32218)"/>
</g>
</g>
<defs>
<linearGradient id="paint0_linear_192_32218" x1="840" y1="0" x2="840" y2="1122" gradientUnits="userSpaceOnUse">
<stop offset="0.0573948" stop-color="#100024"/>
<stop offset="0.526042" stop-color="#100024" stop-opacity="0"/>
<stop offset="1" stop-color="#100024"/>
</linearGradient>
<linearGradient id="paint1_linear_192_32218" x1="840.011" y1="1121.72" x2="840.011" y2="944.415" gradientUnits="userSpaceOnUse">
<stop stop-color="#9B3EFF"/>
<stop offset="0.22" stop-color="#9F43FF"/>
<stop offset="0.5" stop-color="#AD54FF"/>
<stop offset="0.82" stop-color="#C36FFF"/>
<stop offset="1" stop-color="#D282FF"/>
</linearGradient>
<linearGradient id="paint2_linear_192_32218" x1="840" y1="944" x2="840" y2="1122" gradientUnits="userSpaceOnUse">
<stop offset="0.317708" stop-color="#100024"/>
<stop offset="1" stop-color="#100024" stop-opacity="0"/>
</linearGradient>
<clipPath id="clip0_192_32218">
<rect width="1680" height="1122" fill="white"/>
</clipPath>
<clipPath id="clip1_192_32218">
<rect width="1681" height="178" fill="white" transform="translate(0 944)"/>
</clipPath>
</defs>
</svg>
