<svg width="400" height="400" viewBox="0 0 400 400" fill="none" xmlns="http://www.w3.org/2000/svg">
<rect width="400" height="400" fill="#1A1A1A"/>
<path d="M181.812 177.765H177.518L177.518 220.412H181.812L181.812 177.765Z" fill="white"/>
<path d="M206.012 198.03C207.148 197.511 208.095 196.654 208.723 195.575C209.36 194.447 209.682 193.168 209.655 191.873C209.655 189.272 208.77 187.338 207.001 186.071C205.232 184.805 202.533 184.171 198.904 184.169H188.407L188.407 187.892H192.095L192.095 210.288H188.407L188.407 214.011H198.735C202.878 214.011 205.99 213.268 208.071 211.782C210.151 210.297 211.19 208.135 211.187 205.298C211.187 203.569 210.742 202.074 209.852 200.814C208.962 199.553 207.682 198.626 206.012 198.03ZM196.568 187.885H199.519C201.326 187.885 202.725 188.238 203.716 188.945C204.707 189.652 205.199 190.705 205.192 192.103C205.192 195.099 203.31 196.598 199.548 196.599H196.568L196.568 187.885ZM205.548 208.536C204.785 209.291 203.805 209.789 202.746 209.962C201.294 210.203 199.823 210.313 198.351 210.288H196.568L196.568 200.309H199.439C201.898 200.309 203.71 200.714 204.874 201.526C206.039 202.338 206.622 203.567 206.625 205.215C206.625 206.697 206.266 207.804 205.548 208.536Z" fill="white"/>
<path d="M233.223 200.542C233.223 197.809 232.58 195.808 231.294 194.542C230.008 193.275 227.972 192.642 225.186 192.642C223.113 192.642 221.324 193.047 219.821 193.859C218.284 194.702 217.035 195.988 216.237 197.548L220.156 198.519C220.592 197.751 221.23 197.117 222.001 196.687C222.746 196.285 223.673 196.083 224.782 196.082C226.353 196.082 227.482 196.432 228.168 197.132C228.854 197.831 229.197 198.993 229.197 200.618L229.197 202.856C227.529 201.695 225.546 201.073 223.515 201.074C222.261 201.083 221.025 201.366 219.893 201.904C218.742 202.418 217.753 203.236 217.032 204.27C216.358 205.274 215.99 206.453 215.972 207.662C215.955 208.871 216.288 210.06 216.932 211.083C217.586 212.096 218.485 212.927 219.546 213.5C220.607 214.073 221.795 214.368 223 214.359C225.428 214.359 227.632 213.389 229.612 211.448L229.612 214.003H236.699L236.699 210.363H233.223L233.223 200.542ZM229.204 208.7C227.449 210.377 225.568 211.215 223.563 211.214C222.481 211.214 221.596 210.887 220.909 210.234C220.571 209.904 220.305 209.507 220.128 209.068C219.951 208.63 219.867 208.16 219.881 207.687C219.895 207.215 220.007 206.75 220.21 206.323C220.412 205.896 220.701 205.516 221.058 205.206C221.833 204.529 222.831 204.166 223.86 204.186C225.641 204.186 227.424 204.879 229.208 206.265L229.204 208.7Z" fill="white"/>
<path d="M264.374 214.01L264.374 210.366H260.886L260.886 200.01C260.886 197.582 260.441 195.793 259.549 194.644C258.658 193.496 257.282 192.921 255.422 192.921C253.179 192.921 250.782 193.852 248.229 195.714L248.229 193.198H240.538L240.538 196.862H244.201L244.201 210.366H240.538L240.538 214.01H251.824L251.824 210.366H248.24L248.24 199.298C250.509 197.504 252.554 196.607 254.376 196.607C255.237 196.607 255.851 196.891 256.22 197.457C256.589 198.024 256.78 198.962 256.792 200.271L256.792 214.013L264.374 214.01Z" fill="white"/>
<path d="M291.686 196.606L291.686 193.199H280.165L280.165 196.606H283.451L275.868 202.981L275.868 184.169H268.048L268.048 187.774H271.77L271.77 210.368H268.048L268.048 214.011H279.392L279.392 210.368H275.868L275.868 203.516L286.282 214.011H291.686L291.686 210.368H288.044L280.698 203.061L288.479 196.606H291.686Z" fill="white"/>
<path d="M166.97 199.56H160.399L160.399 203.183H166.219C165.423 205.276 164.011 207.079 162.169 208.353C160.328 209.628 158.144 210.315 155.904 210.323C149.787 210.323 144.828 205.295 144.828 199.091C144.828 192.887 149.787 187.859 155.904 187.859C157.98 187.865 160.012 188.455 161.769 189.561C163.525 190.668 164.935 192.246 165.838 194.116H170.174C169.209 191.22 167.359 188.702 164.884 186.916C162.409 185.131 159.435 184.17 156.384 184.169H155.429C153.52 184.169 151.629 184.546 149.866 185.276C148.102 186.007 146.5 187.078 145.15 188.428C143.801 189.778 142.73 191.381 142 193.145C141.269 194.909 140.894 196.8 140.894 198.709L140.894 199.473C140.894 203.329 142.425 207.026 145.151 209.753C147.877 212.479 151.574 214.011 155.429 214.011H156.384C160.223 214.01 163.907 212.49 166.63 209.783C169.353 207.075 170.894 203.4 170.917 199.56H166.97Z" fill="white"/>
<path d="M133.337 199.56H126.766L126.766 203.183H132.586C131.789 205.276 130.377 207.078 128.536 208.353C126.695 209.628 124.511 210.314 122.271 210.323C116.152 210.323 111.193 205.295 111.193 199.091C111.193 192.887 116.152 187.859 122.271 187.859C124.347 187.865 126.379 188.455 128.135 189.562C129.891 190.668 131.301 192.246 132.203 194.116H136.54C135.576 191.22 133.725 188.702 131.25 186.917C128.776 185.132 125.802 184.171 122.751 184.169H121.794C117.939 184.17 114.242 185.702 111.516 188.429C108.79 191.155 107.259 194.853 107.259 198.709L107.259 199.473C107.259 203.328 108.791 207.026 111.517 209.752C114.242 212.478 117.939 214.01 121.794 214.011H122.751C126.591 214.011 130.274 212.491 132.997 209.783C135.72 207.076 137.261 203.4 137.284 199.56H133.337Z" fill="white"/>
</svg>
