<svg width="400" height="400" viewBox="0 0 400 400" fill="none" xmlns="http://www.w3.org/2000/svg">
<rect width="400" height="400" fill="#FF4630"/>
<g clip-path="url(#clip0_193_21642)">
<path d="M151.75 187.179C153.027 187.179 154.052 186.829 154.825 186.132C155.597 185.435 155.982 184.492 155.982 183.303C155.982 182.323 155.641 181.566 154.957 181.03C154.273 180.494 153.384 180.229 152.283 180.229C151.066 180.229 150.047 180.579 149.231 181.276C148.414 181.973 148.004 182.843 148.004 183.88C148.004 184.918 148.316 185.728 148.941 186.308C149.565 186.889 150.498 187.176 151.747 187.176L151.75 187.179Z" fill="white"/>
<path d="M208.197 187.179C209.474 187.179 210.499 186.829 211.271 186.132C212.044 185.435 212.428 184.492 212.428 183.303C212.428 182.323 212.088 181.566 211.404 181.03C210.719 180.494 209.83 180.229 208.73 180.229C207.513 180.229 206.494 180.579 205.677 181.276C204.861 181.973 204.451 182.843 204.451 183.88C204.451 184.918 204.763 185.728 205.387 186.308C206.012 186.889 206.945 187.176 208.194 187.176L208.197 187.179Z" fill="white"/>
<path d="M229.803 189.805H224.814C228.674 186.39 230.607 182.379 230.607 177.775C230.607 176.114 230.251 174.732 229.538 173.632C228.825 172.535 227.845 171.983 226.599 171.983C224.906 171.983 223.323 172.784 221.854 174.389C220.384 175.994 219.129 178.147 218.089 180.85C217.048 183.552 216.275 186.538 215.771 189.805H213.233C211.896 189.805 211.227 190.637 211.227 192.299C211.227 193.012 211.382 193.532 211.694 193.86C212.006 194.188 212.608 194.349 213.497 194.349H215.235C215.147 195.686 215.102 197.007 215.102 198.316C215.102 199.268 215.143 200.173 215.225 201.034C214.961 201.128 214.708 201.302 214.481 201.57C213.144 203.175 212.075 204.348 211.274 205.089C210.473 205.833 209.805 206.202 209.269 206.202C208.704 206.202 208.304 205.965 208.067 205.489C207.831 205.013 207.711 204.332 207.711 203.44C207.711 202.282 208.067 200.069 208.78 196.802C209.345 194.1 209.625 192.378 209.625 191.634C209.625 190.625 208.868 190.12 207.352 190.12C206.371 190.12 205.658 190.3 205.214 190.656C204.769 191.013 204.413 191.665 204.145 192.618C203.609 194.431 203.17 196.383 202.83 198.476C202.543 200.233 202.379 201.721 202.332 202.945C201.471 203.906 200.736 204.641 200.134 205.139C199.273 205.852 198.381 206.208 197.46 206.208C196.599 206.208 195.864 205.962 195.256 205.474C194.647 204.985 194.281 204.338 194.165 203.534C196.186 202.465 197.611 201.248 198.441 199.88C199.273 198.514 199.689 197.013 199.689 195.38C199.689 193.895 199.235 192.646 198.33 191.637C197.425 190.628 196.23 190.123 194.745 190.123C193.14 190.123 191.418 190.962 189.577 192.64C187.735 194.317 186.102 197.013 184.677 200.725C184.677 199.091 184.721 197.502 184.809 195.957C188.76 191.65 191.611 187.885 193.364 184.662C195.117 181.439 195.994 178.327 195.994 175.328C195.994 173.458 195.571 171.935 194.723 170.762C193.878 169.589 192.771 169.003 191.402 169.003C188.848 169.003 186.657 170.69 184.831 174.061C183.005 177.432 181.624 181.597 180.688 186.557C179.751 191.517 179.285 196.285 179.285 200.857C179.285 201.456 179.288 202.018 179.297 202.55C178.313 203.683 177.5 204.54 176.857 205.111C176.04 205.839 175.333 206.202 174.741 206.202C173.88 206.202 173.448 205.609 173.448 204.42C173.448 203.588 173.728 201.882 174.293 199.296C174.946 196.266 175.274 194.172 175.274 193.015C175.274 191.085 174.309 190.12 172.379 190.12C171.398 190.12 170.323 190.461 169.15 191.145C167.977 191.829 166.782 192.971 165.565 194.576C164.348 196.181 163.247 198.259 162.266 200.813C162.386 199.508 162.534 198.407 162.711 197.518C162.891 196.626 163.127 195.588 163.424 194.399C163.868 192.738 164.092 191.665 164.092 191.192C164.092 190.776 163.972 190.496 163.736 190.344C163.499 190.196 163.083 190.12 162.487 190.12C161.387 190.12 160.535 190.322 159.927 190.723C159.318 191.123 158.88 191.754 158.612 192.618C157.59 195.85 157.051 199.249 156.978 202.812C156.124 203.796 155.405 204.556 154.825 205.092C154.024 205.836 153.355 206.205 152.819 206.205C152.255 206.205 151.854 205.969 151.618 205.492C151.381 205.016 151.261 204.335 151.261 203.443C151.261 202.286 151.618 200.072 152.33 196.805C152.895 194.103 153.175 192.381 153.175 191.637C153.175 190.628 152.419 190.123 150.902 190.123C149.921 190.123 149.209 190.303 148.764 190.66C148.319 191.016 147.963 191.669 147.695 192.621C147.159 194.434 146.721 196.386 146.38 198.48C146.093 200.245 145.926 201.737 145.882 202.964C145.062 203.894 144.372 204.616 143.82 205.117C143.019 205.846 142.335 206.208 141.77 206.208C141.414 206.208 141.124 206.076 140.903 205.808C140.682 205.54 140.569 205.183 140.569 204.739C140.569 203.402 140.909 201.027 141.594 197.609C142.038 195.263 142.262 193.778 142.262 193.154C142.262 192.113 141.534 191.593 140.08 191.593C139.396 191.593 138.743 191.653 138.119 191.773C137.97 191.12 137.784 190.666 137.561 190.414C137.337 190.161 136.898 190.035 136.246 190.035C134.196 190.035 132.257 190.682 130.431 191.974C128.605 193.267 127.142 194.976 126.042 197.098C125.178 198.77 124.657 200.517 124.474 202.342C122.892 203.433 121.189 204.66 119.36 206.032L119.849 202.645C120.353 199.29 120.65 197.136 120.741 196.184C120.829 195.383 120.659 194.765 120.227 194.336C119.795 193.907 119.253 193.69 118.6 193.69H110.269C109.525 193.69 108.932 193.926 108.487 194.402C108.043 194.879 107.819 195.531 107.819 196.364C107.819 197.285 108.043 197.947 108.487 198.347C108.932 198.748 109.572 198.949 110.405 198.949H114.948L114.324 204.386C112.098 205.306 109.957 205.767 107.907 205.767C104.224 205.767 101.408 204.796 99.466 202.85C97.5204 200.904 96.5492 198.149 96.5492 194.585C96.5492 191.022 97.1136 188.134 98.2425 185.652C99.3714 183.174 100.863 181.307 102.72 180.061C104.577 178.813 106.589 178.192 108.759 178.192C110.54 178.192 111.811 178.532 112.568 179.216C113.325 179.901 113.703 180.866 113.703 182.111C113.703 182.587 113.615 183.24 113.435 184.072C113.315 184.785 113.255 185.29 113.255 185.586C113.255 186.27 113.501 186.803 113.99 187.191C114.479 187.579 115.125 187.771 115.929 187.771C117.118 187.771 118.029 187.245 118.669 186.188C119.306 185.135 119.628 183.732 119.628 181.979C119.628 179.305 118.761 177.16 117.02 175.54C115.283 173.922 112.675 173.112 109.2 173.112C105.725 173.112 102.301 174.042 99.3745 175.896C96.4483 177.753 94.1559 180.367 92.491 183.738C90.8323 187.096 89.9999 190.981 89.9999 195.377C89.9999 198.524 90.6967 201.286 92.0936 203.664C93.4905 206.041 95.4487 207.873 97.9745 209.166C100.497 210.459 103.423 211.105 106.75 211.105C109.008 211.105 111.31 210.617 113.656 209.636L113.523 210.484C110.405 212.89 107.992 215.028 106.283 216.901C104.574 218.771 103.411 220.42 102.786 221.845C102.162 223.271 101.85 224.68 101.85 226.077C101.85 227.591 102.326 228.817 103.275 229.754C104.224 230.69 105.457 231.157 106.974 231.157C109.796 231.157 112.126 229.388 113.968 225.856C115.809 222.321 117.31 217.481 118.468 211.332C121.091 209.522 123.216 208.069 124.866 206.956C125.14 207.763 125.528 208.482 126.042 209.106C127.139 210.443 128.612 211.112 130.453 211.112C132.799 211.112 134.745 209.866 136.29 207.369C136.706 208.526 137.321 209.44 138.138 210.109C138.954 210.777 139.853 211.112 140.834 211.112C142.111 211.112 143.432 210.591 144.8 209.554C145.422 209.081 146.027 208.551 146.62 207.977C146.781 208.365 146.97 208.728 147.184 209.062C148.061 210.427 149.464 211.112 151.394 211.112C153.324 211.112 155.247 210.14 157.331 208.204C157.423 208.63 157.53 209.008 157.653 209.33C158.114 210.519 158.908 211.112 160.037 211.112C160.958 211.112 161.633 210.866 162.065 210.377C162.493 209.888 162.875 208.945 163.2 207.548C163.644 205.735 164.231 204.014 164.959 202.38C165.688 200.747 166.4 199.432 167.097 198.439C167.794 197.445 168.336 196.947 168.724 196.947C169.052 196.947 169.213 197.187 169.213 197.66C169.213 198.372 169.021 199.665 168.633 201.535C168.217 203.673 168.008 205.158 168.008 205.991C168.008 207.656 168.393 208.923 169.166 209.8C169.938 210.676 171.083 211.115 172.596 211.115C174.466 211.115 176.138 210.61 177.61 209.601C178.307 209.122 178.982 208.576 179.638 207.971C179.802 208.892 180.048 209.607 180.372 210.112C180.801 210.781 181.479 211.115 182.4 211.115C183.321 211.115 183.995 210.869 184.427 210.38C184.856 209.891 185.238 208.948 185.563 207.552C186.039 205.622 186.692 203.742 187.524 201.917C188.356 200.091 189.255 198.596 190.22 197.439C191.185 196.282 192.068 195.702 192.872 195.702C193.2 195.702 193.474 195.834 193.695 196.102C193.916 196.37 194.029 196.771 194.029 197.303C194.029 198.224 193.745 199.003 193.184 199.643C192.62 200.283 191.683 200.882 190.378 201.447C189.189 201.951 188.596 202.784 188.596 203.941C188.596 206.111 189.293 207.848 190.69 209.153C192.087 210.462 193.928 211.115 196.214 211.115C198.084 211.115 199.705 210.626 201.07 209.645C201.739 209.166 202.401 208.608 203.063 207.971C203.227 208.362 203.416 208.728 203.631 209.065C204.507 210.43 205.911 211.115 207.84 211.115C210.395 211.115 213.141 209.317 216.083 205.723C216.118 205.682 216.149 205.638 216.181 205.593C216.43 206.3 216.723 206.962 217.061 207.57C218.366 209.932 220.431 211.112 223.254 211.112C225.215 211.112 226.965 210.475 228.51 209.198C228.955 208.841 229.289 208.397 229.513 207.861C229.737 207.325 229.847 206.776 229.847 206.211C229.847 205.647 229.737 205.165 229.513 204.764C229.289 204.364 228.999 204.162 228.643 204.162C228.315 204.162 227.99 204.31 227.662 204.606C227.129 205.083 226.533 205.467 225.88 205.764C225.228 206.06 224.663 206.208 224.187 206.208C223.266 206.208 222.544 205.95 222.027 205.429C221.507 204.909 221.135 204.048 220.914 202.847C220.69 201.642 220.58 199.974 220.58 197.833C220.58 197.001 220.608 195.844 220.668 194.358H226.104C229.459 194.358 231.14 193.334 231.14 191.284C231.14 190.719 231.036 190.335 230.828 190.127C230.62 189.919 230.279 189.814 229.803 189.814L229.803 189.805ZM186.789 181.897C187.398 179.298 188.029 177.233 188.681 175.704C189.334 174.174 189.93 173.408 190.463 173.408C190.848 173.408 191.147 173.66 191.355 174.165C191.563 174.669 191.667 175.398 191.667 176.347C191.667 178.425 191.065 180.743 189.864 183.297C188.662 185.851 187.139 188.213 185.298 190.382C185.682 187.323 186.181 184.495 186.789 181.893L186.789 181.897ZM110.004 224.201C109.083 225.954 108.235 226.831 107.466 226.831C106.633 226.831 106.217 226.25 106.217 225.093C106.217 223.936 106.715 222.533 107.709 220.972C108.702 219.414 110.329 217.667 112.587 215.737C111.786 219.629 110.922 222.451 110.001 224.204L110.004 224.201ZM135.221 202.371C134.953 203.648 134.524 204.673 133.928 205.445C133.332 206.218 132.711 206.602 132.058 206.602C131.405 206.602 130.891 206.379 130.522 205.934C130.15 205.489 129.964 204.805 129.964 203.884C129.964 202.223 130.277 200.646 130.901 199.161C131.525 197.676 132.364 196.48 133.417 195.575C134.47 194.67 135.621 194.201 136.87 194.172L135.221 202.371ZM221.116 189.14C221.444 186.734 221.85 184.542 222.342 182.568C222.831 180.594 223.351 179.049 223.903 177.936C224.452 176.823 224.95 176.265 225.395 176.265C226.047 176.265 226.375 177.142 226.375 178.895C226.375 180.44 225.937 182.155 225.06 184.041C224.184 185.926 222.869 187.626 221.119 189.143L221.116 189.14Z" fill="white"/>
<path d="M236.933 202.816C235.567 202.816 234.505 203.216 233.748 204.017C232.991 204.818 232.613 205.887 232.613 207.224C232.613 208.381 232.947 209.318 233.615 210.03C234.284 210.743 235.271 211.099 236.579 211.099C237.888 211.099 238.97 210.693 239.742 209.873C240.515 209.056 240.899 207.965 240.899 206.6C240.899 205.351 240.565 204.408 239.897 203.771C239.228 203.134 238.241 202.812 236.933 202.812L236.933 202.816Z" fill="white"/>
<path d="M309.262 190.852C308.773 190.363 308.051 190.117 307.102 190.117C306.153 190.117 305.052 190.451 303.895 191.12C302.738 191.788 301.555 192.911 300.354 194.484C299.153 196.058 298.058 198.092 297.078 200.589C297.166 200.053 297.33 199.252 297.567 198.183C298.131 195.689 298.412 193.967 298.412 193.015C298.412 192.063 298.197 191.309 297.765 190.833C297.333 190.357 296.598 190.12 295.561 190.12C294.524 190.12 293.414 190.514 292.241 191.3C291.068 192.088 289.923 193.283 288.81 194.885C287.697 196.49 286.738 198.448 285.937 200.766C286.057 199.46 286.205 198.366 286.382 197.493C286.562 196.616 286.798 195.585 287.095 194.396C287.539 192.734 287.763 191.662 287.763 191.189C287.763 190.773 287.643 190.492 287.407 190.341C287.17 190.193 286.754 190.117 286.158 190.117C285.058 190.117 284.206 190.319 283.598 190.719C282.989 191.12 282.551 191.751 282.283 192.615C281.766 194.248 281.375 195.925 281.103 197.644C279.776 197.937 278.593 198.12 277.562 198.186C277.326 195.9 276.515 193.977 275.134 192.416C273.753 190.858 271.934 190.076 269.676 190.076C267.834 190.076 266.157 190.574 264.64 191.568C263.127 192.564 261.938 193.945 261.077 195.711C260.216 197.477 259.784 199.492 259.784 201.75C259.784 202.311 259.825 202.856 259.898 203.389C259.087 204.146 258.271 204.767 257.444 205.247C256.035 206.063 254.72 206.473 253.503 206.473C250.501 206.473 249.003 204.751 249.003 201.305C249.003 200.056 249.183 198.915 249.539 197.874C249.896 196.834 250.372 196.011 250.964 195.402C251.557 194.793 252.197 194.488 252.882 194.488C253.238 194.488 253.512 194.592 253.705 194.8C253.897 195.008 253.995 195.304 253.995 195.692C253.995 196.08 253.919 196.493 253.771 196.941C253.739 197.061 253.695 197.253 253.638 197.521C253.579 197.789 253.55 198.026 253.55 198.234C253.55 198.71 253.72 199.079 254.061 199.347C254.402 199.615 254.856 199.747 255.42 199.747C256.312 199.747 257.031 199.318 257.58 198.454C258.129 197.594 258.403 196.54 258.403 195.292C258.403 193.778 257.949 192.536 257.044 191.571C256.139 190.606 254.868 190.123 253.235 190.123C251.601 190.123 249.984 190.612 248.467 191.593C246.954 192.574 245.721 193.97 244.768 195.78C243.816 197.594 243.343 199.7 243.343 202.106C243.343 204.808 244.153 206.984 245.771 208.633C247.389 210.282 249.653 211.105 252.566 211.105C254.376 211.105 256.256 210.639 258.201 209.702C259.377 209.138 260.449 208.425 261.427 207.57C262.013 208.457 262.748 209.207 263.637 209.812C264.899 210.673 266.422 211.105 268.203 211.105C270.313 211.105 272.199 210.355 273.86 208.857C275.522 207.356 276.638 205.36 277.203 202.866C278.414 202.815 279.558 202.67 280.652 202.45C280.64 202.841 280.63 203.232 280.63 203.626C280.63 206.24 280.861 208.141 281.321 209.33C281.781 210.519 282.576 211.112 283.705 211.112C284.626 211.112 285.3 210.866 285.732 210.377C286.161 209.888 286.543 208.945 286.868 207.548C287.252 205.943 287.766 204.31 288.406 202.648C289.043 200.986 289.705 199.618 290.39 198.549C291.074 197.48 291.638 196.944 292.083 196.944C292.411 196.944 292.572 197.184 292.572 197.657C292.572 198.253 292.452 199.498 292.215 201.4C291.919 203.537 291.771 205.171 291.771 206.3C291.771 207.637 292.017 208.772 292.506 209.708C292.994 210.645 293.732 211.112 294.71 211.112C295.687 211.112 296.349 210.875 296.781 210.399C297.21 209.923 297.592 208.974 297.917 207.548C298.361 205.735 298.941 204.014 299.654 202.38C300.367 200.747 301.079 199.432 301.792 198.439C302.505 197.445 303.053 196.947 303.441 196.947C303.769 196.947 303.93 197.187 303.93 197.66C303.93 198.312 303.75 199.829 303.394 202.204C302.978 204.938 302.769 206.896 302.769 208.084C302.769 209.094 302.993 209.85 303.438 210.358C303.883 210.862 304.595 211.115 305.576 211.115C306.616 211.115 307.364 210.869 307.827 210.38C308.288 209.891 308.518 209.081 308.518 207.952C308.518 205.962 308.606 204.159 308.786 202.538C308.966 200.92 309.202 199.205 309.498 197.392C309.826 195.254 309.987 193.797 309.987 193.024C309.987 192.075 309.741 191.353 309.253 190.864L309.262 190.852ZM271.035 205.221C270.338 205.994 269.512 206.379 268.563 206.379C267.702 206.379 266.952 205.95 266.311 205.086C265.671 204.225 265.353 202.976 265.353 201.343C265.353 199.265 265.747 197.653 266.532 196.509C267.317 195.364 268.307 194.793 269.496 194.793H269.72C269.632 195.27 269.588 195.746 269.588 196.219C269.588 197.348 269.834 198.417 270.322 199.426C270.811 200.435 271.517 201.251 272.438 201.876C272.199 203.332 271.732 204.446 271.035 205.218L271.035 205.221Z" fill="white"/>
</g>
<defs>
<clipPath id="clip0_193_21642">
<rect width="220" height="62.1508" fill="white" transform="translate(89.9999 169)"/>
</clipPath>
</defs>
</svg>
