<svg width="400" height="400" viewBox="0 0 400 400" fill="none" xmlns="http://www.w3.org/2000/svg">
<rect width="400" height="400" fill="#FFCC48"/>
<g clip-path="url(#clip0_193_12680)">
<path d="M249.443 134.573H237.347V146.652H249.443V134.573Z" fill="black"/>
<path d="M237.347 128.243H231.009V134.573H237.347V128.243Z" fill="black"/>
<path fill-rule="evenodd" clip-rule="evenodd" d="M231.679 146.675H231.723V146.653C245.56 146.72 256.763 157.93 256.763 171.77C256.763 182.959 249.443 192.431 239.311 195.685C237.325 196.376 235.116 196.777 232.661 196.866C232.304 196.888 231.969 196.888 231.612 196.888H231.612H231.59H231.545H221.111L231.924 165.486H222.105L214.019 189.84L205.434 165.508H197.177L188.531 189.856L180.439 165.486H170.62L181.433 196.888H164.349C152.677 196.888 143.237 187.438 143.237 175.804C143.237 164.17 152.677 154.721 164.371 154.721C164.371 136.089 179.48 121 198.137 121C209.206 121 219.025 126.349 225.162 134.595V146.675H213.067V158.755H225.162V165.485H231.902V158.755H225.162V146.675H231.679ZM194.72 196.888H207.772L201.294 178.043L194.72 196.888Z" fill="black"/>
</g>
<path d="M50 268.255H71.9877V262.932H56.0411V254.326H71.0993V249.003H56.0411V240.53H71.9877V235.207H50V268.255Z" fill="black"/>
<path d="M75.9288 268.255H81.7478V254.104C81.7478 252.537 82.192 251.28 83.0804 250.334C83.9984 249.387 85.1829 248.914 86.6339 248.914C88.085 248.914 89.2547 249.387 90.1431 250.334C91.0611 251.25 91.5201 252.507 91.5201 254.104V268.255H97.3391V252.729C97.3391 250.925 96.9541 249.343 96.1841 247.983C95.4142 246.593 94.3333 245.513 92.9415 244.744C91.5793 243.975 90.0098 243.591 88.2331 243.591C86.7228 243.591 85.3606 243.887 84.1465 244.478C82.9619 245.069 82.0439 245.942 81.3924 247.095V244.123H75.9288V268.255Z" fill="black"/>
<path d="M113.897 268.788C115.645 268.788 117.259 268.492 118.739 267.9C120.22 267.279 121.493 266.437 122.559 265.372C123.625 264.278 124.395 263.05 124.869 261.69L119.761 259.383C119.287 260.655 118.532 261.66 117.495 262.4C116.489 263.109 115.289 263.464 113.897 263.464C112.624 263.464 111.484 263.154 110.477 262.533C109.5 261.912 108.73 261.054 108.167 259.96C107.605 258.836 107.323 257.579 107.323 256.189C107.323 254.77 107.605 253.513 108.167 252.419C108.73 251.324 109.5 250.467 110.477 249.846C111.484 249.225 112.624 248.914 113.897 248.914C115.289 248.914 116.489 249.284 117.495 250.023C118.532 250.762 119.287 251.738 119.761 252.951L124.869 250.733C124.366 249.313 123.581 248.071 122.515 247.007C121.449 245.912 120.175 245.069 118.695 244.478C117.214 243.887 115.615 243.591 113.897 243.591C111.499 243.591 109.337 244.138 107.412 245.232C105.517 246.326 104.022 247.82 102.926 249.713C101.83 251.605 101.282 253.749 101.282 256.145C101.282 258.54 101.83 260.699 102.926 262.622C104.022 264.514 105.517 266.022 107.412 267.146C109.337 268.241 111.499 268.788 113.897 268.788Z" fill="black"/>
<path d="M129.284 268.255H135.103V254.814C135.103 252.98 135.607 251.561 136.614 250.555C137.65 249.52 138.983 249.003 140.611 249.003H142.699V243.857H141.278C139.797 243.857 138.494 244.123 137.369 244.655C136.243 245.188 135.37 246.149 134.748 247.539V244.123H129.284V268.255Z" fill="black"/>
<path d="M148.83 278.059C151.11 278.059 153.005 277.408 154.516 276.107C156.056 274.835 157.284 273.031 158.202 270.695L168.73 244.123H162.422L156.204 260.758L149.94 244.123H143.677L153.227 268.255L152.694 269.542C152.221 270.547 151.673 271.361 151.051 271.982C150.459 272.603 149.496 272.913 148.164 272.913C147.69 272.913 147.186 272.869 146.653 272.78C146.12 272.721 145.647 272.632 145.232 272.514V277.394C145.735 277.63 146.298 277.793 146.92 277.882C147.542 278 148.178 278.059 148.83 278.059Z" fill="black"/>
<path d="M171.925 277.127H177.744V265.949C178.633 266.865 179.714 267.575 180.987 268.078C182.26 268.551 183.637 268.788 185.118 268.788C187.457 268.788 189.545 268.241 191.381 267.146C193.217 266.022 194.668 264.514 195.734 262.622C196.8 260.699 197.333 258.555 197.333 256.189C197.333 253.823 196.8 251.694 195.734 249.801C194.668 247.879 193.217 246.371 191.381 245.277C189.545 244.153 187.472 243.591 185.162 243.591C183.504 243.591 182.009 243.887 180.676 244.478C179.343 245.069 178.248 245.898 177.389 246.962V244.123H171.925V277.127ZM184.452 263.464C183.178 263.464 182.023 263.154 180.987 262.533C179.98 261.912 179.18 261.054 178.588 259.96C178.026 258.866 177.744 257.609 177.744 256.189C177.744 254.77 178.026 253.513 178.588 252.419C179.18 251.324 179.98 250.467 180.987 249.846C182.023 249.225 183.178 248.914 184.452 248.914C185.784 248.914 186.954 249.239 187.961 249.89C188.997 250.511 189.812 251.369 190.404 252.463C190.996 253.557 191.292 254.799 191.292 256.189C191.292 257.579 190.996 258.836 190.404 259.96C189.812 261.054 188.997 261.912 187.961 262.533C186.954 263.154 185.784 263.464 184.452 263.464Z" fill="black"/>
<path d="M212.352 268.521C212.796 268.521 213.285 268.492 213.818 268.433C214.351 268.374 214.825 268.314 215.239 268.255V263.287C214.677 263.376 214.158 263.42 213.685 263.42C212.263 263.42 211.227 263.095 210.575 262.444C209.924 261.793 209.598 260.862 209.598 259.649V249.313H215.15V244.123H209.598V238.622H203.779V240.486C203.779 241.669 203.453 242.571 202.802 243.192C202.15 243.813 201.232 244.123 200.048 244.123H199.604V249.313H203.779V259.96C203.779 262.651 204.519 264.751 206 266.259C207.51 267.767 209.628 268.521 212.352 268.521Z" fill="black"/>
<path d="M230.928 268.788C233.386 268.788 235.533 268.241 237.369 267.146C239.235 266.022 240.538 264.603 241.278 262.888L236.57 260.581C236.037 261.498 235.296 262.252 234.349 262.843C233.431 263.405 232.305 263.686 230.973 263.686C229.226 263.686 227.76 263.154 226.575 262.089C225.391 261.025 224.71 259.605 224.532 257.831H241.944C242.063 257.505 242.137 257.136 242.166 256.722C242.226 256.278 242.255 255.834 242.255 255.391C242.255 253.232 241.796 251.265 240.878 249.491C239.96 247.716 238.628 246.297 236.881 245.232C235.133 244.138 233.001 243.591 230.484 243.591C228.234 243.591 226.19 244.138 224.354 245.232C222.548 246.326 221.112 247.82 220.046 249.713C219.009 251.576 218.491 253.72 218.491 256.145C218.491 258.481 219.009 260.611 220.046 262.533C221.082 264.455 222.533 265.978 224.399 267.102C226.264 268.226 228.441 268.788 230.928 268.788ZM230.484 248.382C232.024 248.382 233.297 248.855 234.304 249.801C235.341 250.718 235.918 251.916 236.037 253.395H224.665C224.991 251.798 225.672 250.57 226.708 249.713C227.775 248.825 229.033 248.382 230.484 248.382Z" fill="black"/>
<path d="M257.904 268.788C259.474 268.788 260.925 268.521 262.258 267.989C263.59 267.427 264.701 266.629 265.589 265.594V268.255H271.097V234.674H265.278V246.563C263.472 244.582 260.999 243.591 257.86 243.591C255.58 243.591 253.507 244.153 251.641 245.277C249.805 246.371 248.354 247.879 247.288 249.801C246.222 251.694 245.689 253.823 245.689 256.189C245.689 258.555 246.222 260.699 247.288 262.622C248.354 264.514 249.805 266.022 251.641 267.146C253.477 268.241 255.565 268.788 257.904 268.788ZM258.526 263.464C257.223 263.464 256.054 263.154 255.017 262.533C253.981 261.912 253.166 261.054 252.574 259.96C252.011 258.836 251.73 257.579 251.73 256.189C251.73 254.799 252.011 253.557 252.574 252.463C253.166 251.369 253.981 250.511 255.017 249.89C256.054 249.239 257.223 248.914 258.526 248.914C259.829 248.914 260.984 249.225 261.991 249.846C263.028 250.467 263.827 251.324 264.39 252.419C264.982 253.513 265.278 254.77 265.278 256.189C265.278 257.609 264.982 258.866 264.39 259.96C263.827 261.054 263.028 261.912 261.991 262.533C260.984 263.154 259.829 263.464 258.526 263.464Z" fill="black"/>
<path d="M283.174 268.255H290.103L296.455 244.478L302.807 268.255H309.736L318.62 235.207H312.135L306.005 260.049L299.609 235.207H293.346L286.905 260.049L280.775 235.207H274.29L283.174 268.255Z" fill="black"/>
<path d="M321.798 241.417H327.617V235.207H321.798V241.417ZM321.798 268.255H327.617V244.123H321.798V268.255Z" fill="black"/>
<path d="M332.989 268.255H338.808V234.674H332.989V268.255Z" fill="black"/>
<path d="M344.181 268.255H350V234.674H344.181V268.255Z" fill="black"/>
<defs>
<clipPath id="clip0_193_12680">
<rect width="113.526" height="83.1762" fill="white" transform="translate(143.237 121)"/>
</clipPath>
</defs>
</svg>
