<svg width="400" height="400" viewBox="0 0 400 400" fill="none" xmlns="http://www.w3.org/2000/svg">
<rect width="400" height="400" fill="black"/>
<path d="M200 92C152.034 92 113.146 130.887 113.146 178.854C113.146 214.733 134.9 245.523 165.935 258.763V258.645L167.663 230.725L172.475 221.87L172.091 206.08L174.598 198.954L172.283 197.225L172.091 190.878L167.663 180.678C167.663 180.678 162.852 182.215 164.004 187.613C165.156 193.011 163.918 195.134 163.62 197.204C163.321 199.274 158.552 211.297 160.878 215.992C163.193 220.686 164.719 227.397 160.942 233.744C160.942 233.744 147.297 224.249 144.822 220.91L144.395 212.279C144.395 212.279 149.249 206.774 147.851 203.541L147.201 184.231C147.201 184.231 149.793 177.755 156.482 173.232C156.482 173.232 154.647 172.154 154.647 164.494L151.948 160.29L151.842 155.436L157.016 151.339L158.637 153.068C158.637 153.068 166.618 140.553 170.501 136.777L170.714 131.485L181.714 119.621L185.917 118.437C185.917 118.437 182.791 103.437 199.616 103.33C199.616 103.33 212.674 103.33 211.917 118.757L215.48 119.621L226.16 131.058L226.704 136.777L238.685 152.524L240.947 151.446L245.801 155.436L245.587 160.941L242.995 163.747L242.568 171.834L241.811 173.562L250.154 181.948L250.868 204.683L248.148 206.966L253.29 212.546L253.578 220.835L238.141 233.275L233.137 232.699L229.755 260.47C263.073 248.329 286.854 216.365 286.854 178.854C286.854 130.887 247.967 92 200 92Z" fill="white"/>
<path d="M236.348 215.992C236.572 215.544 236.796 215.095 236.85 214.594C236.914 213.986 236.722 213.378 236.498 212.812L235.89 211.628C233.564 206.859 232.71 187.079 232.71 187.079L233.927 186.471C232.22 184.028 228.55 170.351 228.55 170.351L222.34 162.797C219.577 159.757 215.832 156.428 216.024 152.331C216.227 148.213 219.204 150.251 218.542 140.393C218.35 137.534 214.339 134.653 211.469 134.707C208.599 134.771 205.985 137.033 204.289 139.348C203.041 141.044 202.71 143.69 202.795 145.792C202.891 147.893 203.478 149.472 205.292 150.539C205.121 156.034 202.71 157.677 199.872 158.338C197.045 158.999 193.716 160.664 193.716 160.664C193.716 160.664 185.555 171.823 184.061 174.32C182.567 176.816 182.226 189.64 183.4 194.793C184.562 199.957 183.069 207.617 183.069 207.617C179.74 211.778 184.904 215.608 184.904 215.608C191.401 218.435 190.729 210.113 190.398 207.787C190.068 205.462 189.395 195.465 189.897 188.808C190.398 182.151 195.893 185.65 195.893 185.65L196.223 197.471H197.717C197.717 197.471 198.048 198.634 198.048 199.306C198.048 199.978 198.549 206.635 196.554 210.956C194.559 215.288 197.056 217.944 197.056 218.947C197.056 219.95 196.725 225.444 195.893 226.607C195.06 227.77 194.058 233.264 194.058 235.761C194.058 238.257 187.966 263.233 187.582 264.812C191.636 265.388 195.775 265.708 200 265.708C201.846 265.708 203.681 265.633 205.505 265.516C205.676 265.174 205.836 264.833 205.975 264.481C206.945 262.048 207.329 259.424 207.703 256.831C208.535 251.134 209.357 245.437 210.189 239.751C210.349 238.663 210.519 237.553 211.085 236.614C211.65 235.675 212.749 234.971 213.816 235.185C214.894 235.398 215.758 237.19 215.096 238.055C217.241 246.397 219.396 254.911 219.524 263.478C225.072 262.209 230.417 260.406 235.495 258.122C235.271 246.333 234.481 234.534 232.924 222.862C234.065 220.579 235.207 218.285 236.359 216.002L236.348 215.992Z" fill="#FF0000"/>
<path d="M65.8762 292.174C67.6246 292.202 69.2946 292.213 70.875 292.213C73.5817 292.213 75.7 292.202 77.2355 292.174C77.0674 293.922 76.8993 296.399 76.7312 299.605C76.5574 302.81 76.4566 305.231 76.4173 306.862C74.9491 307.131 73.733 307.327 72.7691 307.445C71.8052 307.568 70.6452 307.675 69.2946 307.77C67.9385 307.865 66.7336 307.916 65.6744 307.916C63.9372 307.916 62.2336 307.776 60.558 307.495C58.8824 307.215 57.3861 306.761 56.0635 306.134C54.741 305.506 53.6426 304.66 52.7572 303.584C51.8717 302.508 51.1937 301.241 50.7173 299.773C50.241 298.305 50 296.786 50 295.211C50 292.617 50.6445 290.213 51.9334 287.988C53.2223 285.769 55.0772 284.009 57.4982 282.709C59.9191 281.414 63.0462 280.764 66.8737 280.764C69.6701 280.764 72.7691 281.1 76.1652 281.778C76.1652 283.645 76.2492 285.718 76.4117 288.005C75.4927 287.696 74.7473 287.467 74.1813 287.304C73.6153 287.147 72.9485 286.996 72.1919 286.861C71.4298 286.727 70.7124 286.626 70.0288 286.564C69.3451 286.503 68.7342 286.469 68.2018 286.469C66.7952 286.469 65.4671 286.671 64.2174 287.074C62.9677 287.478 61.8917 288.094 60.9895 288.935C60.0872 289.77 59.4148 290.773 58.9664 291.933C58.5181 293.093 58.2939 294.32 58.2939 295.609C58.2939 296.898 58.5517 298.097 59.0617 299.123C59.5717 300.148 60.3842 300.933 61.4938 301.471C62.6034 302.009 63.8419 302.278 65.2093 302.278C66.3469 302.278 67.591 302.11 68.9472 301.779L69.1657 297.621C68.3363 297.582 67.8432 297.565 67.6863 297.565L65.652 297.582L65.7865 295.228C65.7977 294.97 65.8201 294.606 65.8426 294.124C65.8706 293.648 65.8818 292.992 65.8818 292.163L65.8762 292.174Z" fill="white"/>
<path d="M74.854 307.417L76.4455 304.66L86.3535 286.004L87.407 283.914C87.7152 283.303 88.1411 282.418 88.6903 281.269C90.9375 281.297 92.5795 281.308 93.6107 281.308C95.4095 281.308 97.0795 281.297 98.6094 281.269L101.406 289.255L107.094 304.615L108.204 307.412C105.99 307.389 104.651 307.373 104.174 307.373C103.098 307.373 101.524 307.384 99.4388 307.412C98.8784 305.305 98.0659 302.828 97.0123 299.981H87.3678C86.2582 302.228 85.1094 304.705 83.9213 307.412C81.5452 307.389 80.0882 307.373 79.5502 307.373C78.5807 307.373 77.0116 307.384 74.854 307.412V307.417ZM89.6822 294.41H95.6337C94.1543 289.91 93.3473 287.433 93.2072 286.974C92.3666 288.846 91.6493 290.381 91.0664 291.58L89.6878 294.41H89.6822Z" fill="white"/>
<path d="M106.388 307.417L106.864 303.55L108.041 290.123L108.629 281.274C110.989 281.302 112.838 281.314 114.183 281.314C115.298 281.314 117.002 281.302 119.294 281.274C119.462 282.373 119.602 283.208 119.714 283.774C119.826 284.34 120.112 285.455 120.566 287.108C121.02 288.761 121.378 290.19 121.653 291.401C121.928 292.606 122.337 294.674 122.886 297.599C123.446 295.593 123.962 293.872 124.421 292.426C124.881 290.986 125.458 289.344 126.147 287.506C126.837 285.668 127.274 284.463 127.464 283.897C127.649 283.331 127.902 282.457 128.221 281.28C130.138 281.308 132.015 281.319 133.853 281.319C135.103 281.319 136.84 281.308 139.065 281.28C138.824 285.584 138.661 289.283 138.588 292.37C138.42 298.423 138.342 302.586 138.342 304.862C138.342 305.332 138.353 306.19 138.381 307.428C136.694 307.406 135.512 307.389 134.839 307.389C133.859 307.389 132.648 307.4 131.219 307.428C131.326 306.28 131.454 303.545 131.606 299.218C131.763 294.898 131.841 292.135 131.841 290.936C131.841 290.415 131.83 289.686 131.802 288.75L129.291 296.545L125.682 307.423C124.024 307.4 122.88 307.384 122.253 307.384C121.463 307.384 120.246 307.395 118.616 307.423L116.256 296.887L114.872 291.278C114.822 291.059 114.766 290.79 114.698 290.471C114.637 290.151 114.53 289.591 114.39 288.784L113.908 294.091L113.269 304.968L113.213 307.423C111.454 307.4 110.327 307.384 109.84 307.384C109.173 307.384 108.024 307.395 106.393 307.423L106.388 307.417Z" fill="white"/>
<path d="M140.667 307.417C140.987 304.122 141.222 301.365 141.368 299.14C141.514 296.915 141.665 293.968 141.811 290.28C141.956 286.598 142.029 284.155 142.029 282.956L142.012 281.269C145.027 281.297 148.67 281.308 152.946 281.308C156.891 281.308 160.371 281.297 163.38 281.269L163.341 281.897C163.33 282.048 163.296 282.603 163.246 283.555L163.128 285.635C163.1 286.083 163.089 286.531 163.089 286.991C160.623 286.89 158.555 286.839 156.885 286.839C155.047 286.839 153.803 286.839 153.159 286.851C152.514 286.856 151.506 286.884 150.144 286.935L149.914 291.339C151.421 291.379 153.176 291.396 155.182 291.396C155.899 291.396 157.799 291.351 160.892 291.261C160.763 292.897 160.646 294.842 160.528 297.1C158.32 297.072 156.622 297.061 155.434 297.061C153.674 297.061 151.702 297.106 149.516 297.196L149.286 301.853H151.489C152.139 301.853 153.484 301.836 155.529 301.797L159.491 301.701C160.08 301.69 161.06 301.64 162.439 301.55C162.288 303.439 162.159 305.394 162.058 307.412C158.942 307.389 155.524 307.373 151.808 307.373L143.38 307.389L140.662 307.406L140.667 307.417Z" fill="white"/>
<path d="M163.795 307.417C164.529 297.162 164.899 289.272 164.899 283.74L164.882 281.269C167.118 281.297 168.614 281.308 169.365 281.308C169.713 281.308 171.086 281.297 173.484 281.269C173.255 284.144 173.07 286.862 172.924 289.428C172.745 293.004 172.616 296.344 172.537 299.454C172.459 302.564 172.42 305.215 172.42 307.412L168.497 307.373C167.729 307.373 166.16 307.384 163.789 307.412L163.795 307.417Z" fill="#FF0000"/>
<path d="M174.325 307.417L174.706 303.393L175.451 289.753L175.664 284.255V281.269C177.648 281.297 179.397 281.308 180.921 281.308C182.008 281.308 183.538 281.297 185.505 281.269L193.681 296.136L194.808 298.322C194.953 296.175 195.099 293.166 195.25 289.299C195.402 285.427 195.475 282.754 195.475 281.269C197.044 281.297 198.299 281.308 199.246 281.308C199.678 281.308 200.927 281.297 202.995 281.269L202.536 286.979L201.673 302.838L201.555 307.417C199.896 307.394 198.338 307.378 196.898 307.378C195.699 307.378 194.034 307.389 191.916 307.417C191.255 306.167 190.762 305.259 190.442 304.693L187.231 299.229C186.172 297.442 185.197 295.727 184.306 294.096C183.717 293.059 183.112 291.922 182.49 290.683L182.075 299.767L181.879 307.411C180.299 307.389 179.094 307.372 178.265 307.372C177.564 307.372 176.247 307.383 174.325 307.411V307.417Z" fill="#FF0000"/>
<path d="M203.449 307.019C203.281 304.301 203.091 302.121 202.872 300.485C204.307 301.124 205.579 301.566 206.7 301.818C207.821 302.071 208.801 302.194 209.647 302.194C210.763 302.194 211.648 302.031 212.304 301.706C212.965 301.381 213.29 300.899 213.29 300.261C213.29 300.042 213.256 299.835 213.195 299.639C213.133 299.442 213.01 299.218 212.831 298.966C212.651 298.714 212.393 298.445 212.063 298.153L208.454 295.01C207.608 294.292 207.019 293.777 206.689 293.457C206.01 292.807 205.484 292.202 205.103 291.636C204.727 291.076 204.453 290.504 204.279 289.921C204.105 289.338 204.021 288.722 204.021 288.072C204.021 287.293 204.156 286.531 204.43 285.785C204.705 285.04 205.114 284.34 205.669 283.689C206.218 283.039 206.946 282.479 207.854 282.003C208.762 281.532 209.732 281.207 210.768 281.033C211.805 280.859 212.87 280.775 213.968 280.775C216.126 280.775 218.474 281.022 221.018 281.521C221.057 282.401 221.102 283.208 221.152 283.942C221.203 284.676 221.326 285.965 221.517 287.803C220.34 287.332 219.27 287.001 218.3 286.817C217.331 286.632 216.496 286.536 215.789 286.536C214.792 286.536 213.968 286.721 213.307 287.091C212.651 287.461 212.321 287.921 212.321 288.47C212.321 288.727 212.371 288.974 212.472 289.215C212.573 289.456 212.763 289.742 213.049 290.067C213.329 290.392 213.699 290.751 214.159 291.137C214.618 291.53 215.341 292.107 216.322 292.869L217.7 293.962C218.11 294.292 218.547 294.696 219.023 295.167C219.494 295.637 219.903 296.102 220.25 296.568C220.598 297.033 220.861 297.447 221.046 297.834C221.231 298.215 221.365 298.602 221.455 298.994C221.545 299.386 221.59 299.801 221.59 300.249C221.59 301.398 221.315 302.491 220.766 303.533C220.217 304.576 219.438 305.427 218.429 306.1C217.42 306.772 216.311 307.238 215.106 307.507C213.901 307.776 212.623 307.91 211.284 307.91C209.216 307.91 206.604 307.607 203.449 307.008V307.019Z" fill="#FF0000"/>
<path d="M222.615 307.417C223.349 297.162 223.719 289.272 223.719 283.74L223.702 281.269C225.938 281.297 227.434 281.308 228.185 281.308C228.533 281.308 229.906 281.297 232.304 281.269C232.074 284.144 231.889 286.862 231.744 289.428C231.564 293.004 231.435 296.344 231.357 299.454C231.279 302.564 231.239 305.215 231.239 307.412L227.317 307.373C226.549 307.373 224.98 307.384 222.609 307.412L222.615 307.417Z" fill="#FF0000"/>
<path d="M233.161 307.417C233.442 304.503 233.638 302.177 233.739 300.423C233.89 297.817 234.047 294.449 234.198 290.308C234.316 287.141 234.372 284.872 234.372 283.51V281.268C235.868 281.308 237.157 281.324 238.239 281.324C239.32 281.324 240.66 281.296 242.358 281.24C244.056 281.184 245.653 281.156 247.144 281.156C248.853 281.156 250.355 281.257 251.644 281.464C252.932 281.666 254.137 282.092 255.253 282.731C256.368 283.37 257.304 284.205 258.06 285.242C258.817 286.278 259.388 287.483 259.786 288.873C260.184 290.257 260.38 291.686 260.38 293.154C260.38 294.623 260.229 295.984 259.921 297.318C259.612 298.652 259.187 299.857 258.637 300.927C258.088 301.998 257.449 302.922 256.71 303.696C255.975 304.469 255.135 305.13 254.193 305.679C253.493 306.089 252.781 306.408 252.069 306.638C251.352 306.867 250.377 307.052 249.139 307.193C247.76 307.344 246.196 307.422 244.448 307.422L236.709 307.366C235.98 307.366 234.798 307.383 233.167 307.422L233.161 307.417ZM241.444 301.65C242.145 301.712 242.879 301.745 243.647 301.745C244.947 301.745 246.112 301.628 247.132 301.398C248.152 301.168 249.049 300.675 249.822 299.924C250.596 299.173 251.167 298.204 251.537 297.021C251.907 295.839 252.092 294.628 252.092 293.39C252.092 291.871 251.817 290.588 251.268 289.551C250.719 288.509 249.985 287.786 249.077 287.377C248.163 286.968 246.919 286.766 245.35 286.766C244.431 286.766 243.344 286.805 242.094 286.884L241.45 301.65H241.444Z" fill="#FF0000"/>
<path d="M260.616 307.417C260.935 304.122 261.171 301.365 261.316 299.14C261.462 296.915 261.613 293.967 261.759 290.28C261.905 286.598 261.978 284.155 261.978 282.955L261.961 281.269C264.976 281.297 268.618 281.308 272.894 281.308C276.839 281.308 280.32 281.297 283.329 281.269L283.29 281.896C283.278 282.048 283.245 282.602 283.194 283.555L283.077 285.634C283.049 286.082 283.037 286.531 283.037 286.99C280.572 286.889 278.504 286.839 276.834 286.839C274.996 286.839 273.752 286.839 273.107 286.85C272.463 286.856 271.454 286.884 270.092 286.934L269.857 291.339C271.364 291.378 273.118 291.395 275.125 291.395C275.842 291.395 277.742 291.35 280.835 291.261C280.706 292.897 280.589 294.841 280.471 297.1C278.263 297.072 276.565 297.061 275.377 297.061C273.617 297.061 271.645 297.106 269.459 297.195L269.229 301.852H271.432C272.082 301.852 273.427 301.835 275.472 301.796L279.434 301.701C280.023 301.69 281.003 301.639 282.382 301.549C282.231 303.438 282.102 305.394 282.001 307.411C278.885 307.389 275.466 307.372 271.751 307.372L263.323 307.389L260.605 307.406L260.616 307.417Z" fill="#FF0000"/>
<path d="M283.631 307.417C283.732 305.707 283.822 303.393 283.9 300.484L287.845 300.54C288.266 300.54 289.375 300.524 291.18 300.484C291.079 301.874 290.961 304.189 290.832 307.417L287.498 307.377C287.257 307.377 285.968 307.389 283.631 307.417Z" fill="#FF0000"/>
<path d="M293.567 281.274C295.557 281.302 296.963 281.314 297.782 281.314C298.802 281.314 300.163 281.302 301.861 281.274L301.29 289.417C301.178 290.947 301.088 292.387 301.032 293.727C300.976 295.066 300.948 295.991 300.948 296.506C300.948 297.476 301.015 298.288 301.161 298.938C301.301 299.588 301.559 300.143 301.929 300.597C302.299 301.051 302.814 301.393 303.47 301.623C304.125 301.852 304.815 301.97 305.526 301.97C306.137 301.97 306.714 301.886 307.247 301.718C307.667 301.583 308.043 301.393 308.373 301.146C308.665 300.916 308.922 300.653 309.141 300.35C309.41 299.986 309.645 299.532 309.847 298.983C310.049 298.468 310.206 297.795 310.307 296.977C310.424 296.142 310.576 294.242 310.766 291.278C310.934 288.756 311.058 286.441 311.147 284.345C311.226 282.306 311.293 281.291 311.36 281.291H319.805L318.875 294.892C318.864 295.15 318.858 295.357 318.858 295.525C318.808 298.182 318.645 300.053 318.371 301.146C318.096 302.239 317.642 303.186 317.003 303.993C316.365 304.8 315.434 305.523 314.207 306.167C312.98 306.812 311.59 307.271 310.032 307.535C308.474 307.804 306.894 307.938 305.302 307.938C303.873 307.938 302.495 307.837 301.167 307.63C299.939 307.428 298.835 307.131 297.849 306.739C296.868 306.352 296.011 305.893 295.282 305.372C294.615 304.884 294.105 304.391 293.747 303.887C293.388 303.382 293.108 302.777 292.906 302.077C292.676 301.286 292.559 300.435 292.559 299.527C292.559 299.218 292.57 298.759 292.598 298.137C292.626 297.52 292.682 296.629 292.772 295.464L293.024 292.398C293.086 291.591 293.158 290.415 293.237 288.857L293.584 281.291L293.567 281.274Z" fill="#FF0000"/>
<path d="M316.656 307.417L318.248 304.66L328.156 286.004L329.209 283.914C329.517 283.303 329.943 282.418 330.493 281.269C332.74 281.297 334.382 281.308 335.413 281.308C337.212 281.308 338.882 281.297 340.412 281.269L343.208 289.255L348.891 304.615L350 307.412C347.787 307.389 346.447 307.373 345.971 307.373C344.895 307.373 343.32 307.384 341.235 307.412C340.675 305.305 339.862 302.828 338.809 299.981H329.164C328.055 302.228 326.906 304.705 325.718 307.412C323.342 307.389 321.885 307.373 321.347 307.373C320.377 307.373 318.808 307.384 316.651 307.412L316.656 307.417ZM331.484 294.41H337.436C335.956 289.91 335.149 287.433 335.009 286.974C334.169 288.846 333.451 290.381 332.869 291.58L331.49 294.41H331.484Z" fill="#FF0000"/>
</svg>
