<svg width="24" height="16" viewBox="0 0 24 16" fill="none" xmlns="http://www.w3.org/2000/svg">
<rect width="24" height="16" fill="#FAFAFA"/>
<path fill-rule="evenodd" clip-rule="evenodd" d="M24 14.0869V10.6087H18.7895L24 14.0869Z" fill="#012169"/>
<path fill-rule="evenodd" clip-rule="evenodd" d="M17.6842 10.6087L24 14.7826L24 16L15.7895 10.6087H17.6842Z" fill="#C8102E"/>
<path fill-rule="evenodd" clip-rule="evenodd" d="M14.3682 16H21.1577L14.3682 11.4783V16Z" fill="#012169"/>
<path fill-rule="evenodd" clip-rule="evenodd" d="M9.63135 16H2.99977L9.63135 11.4783L9.63135 16Z" fill="#012169"/>
<path fill-rule="evenodd" clip-rule="evenodd" d="M9.63135 10.6087L1.79977 16L-0.000231743 16L7.98924 10.6087H9.63135Z" fill="#C8102E"/>
<path fill-rule="evenodd" clip-rule="evenodd" d="M-7.72476e-05 14.0869V10.6087H5.21045L-7.72476e-05 14.0869Z" fill="#012169"/>
<rect y="6.43481" width="24" height="3.13043" fill="#C8102E"/>
<rect x="10.5791" width="2.84211" height="16" fill="#C8102E"/>
<path fill-rule="evenodd" clip-rule="evenodd" d="M24.0001 1.91309V5.39135H18.7896L24.0001 1.91309Z" fill="#012169"/>
<path fill-rule="evenodd" clip-rule="evenodd" d="M14.3687 5.3913L22.2002 0L24.0002 0L16.0108 5.3913H14.3687Z" fill="#C8102E"/>
<path fill-rule="evenodd" clip-rule="evenodd" d="M14.3687 0H21.0002L14.3687 4.52174L14.3687 0Z" fill="#012169"/>
<path fill-rule="evenodd" clip-rule="evenodd" d="M9.63176 0H2.84229L9.63176 4.52174V0Z" fill="#012169"/>
<path fill-rule="evenodd" clip-rule="evenodd" d="M6.31579 5.3913L0 1.21739L0 0L8.21053 5.3913H6.31579Z" fill="#C8102E"/>
<path fill-rule="evenodd" clip-rule="evenodd" d="M0 1.91309V5.39135H5.21053L0 1.91309Z" fill="#012169"/>
</svg>
