<svg width="24" height="16" viewBox="0 0 24 16" fill="none" xmlns="http://www.w3.org/2000/svg">
<mask id="mask0_170_8164" style="mask-type:alpha" maskUnits="userSpaceOnUse" x="0" y="0" width="24" height="16">
<rect width="24" height="16" rx="2" fill="#D9D9D9"/>
</mask>
<g mask="url(#mask0_170_8164)">
<path d="M9.76128 -0.799805H-2.44824V5.29797H9.76128V-0.799805Z" fill="#00237C"/>
<path d="M0.90414 -0.799805H-2.44824V1.1202L13.9137 11.2002L17.8946 9.67131L0.90414 -0.799805Z" fill="white"/>
<path d="M-2.44824 -0.639648V0.675907L14.1232 10.8981L14.7708 9.97368L-2.44824 -0.639648Z" fill="#CF142B"/>
<path d="M26.9986 -0.799805H14.77V5.29797H26.9986V-0.799805Z" fill="#00237C"/>
<path d="M23.6272 -0.799805H26.9796V1.1202L10.6177 11.2002L6.63672 9.67131L23.6272 -0.799805Z" fill="white"/>
<path d="M26.9793 -0.639648V0.675907L10.4079 10.8981L9.76025 9.97368L26.9793 -0.639648Z" fill="#CF142B"/>
<path d="M26.9986 11.4839H14.77V17.5817H26.9986V11.4839Z" fill="#00237C"/>
<path d="M23.6272 17.5998H26.9796V15.6798L10.6177 5.58203L6.63672 7.11092L23.6272 17.5998Z" fill="white"/>
<path d="M26.9793 17.4396V16.1063L10.4079 5.90186L9.76025 6.80852L26.9793 17.4396Z" fill="#CF142B"/>
<path d="M9.76128 11.4839H-2.44824V17.5817H9.76128V11.4839Z" fill="#00237C"/>
<path d="M0.90414 17.5998H-2.44824V15.6798L13.9137 5.58203L17.8946 7.11092L0.90414 17.5998Z" fill="white"/>
<path d="M-2.44824 17.4396V16.1063L14.1232 5.90186L14.7708 6.80852L-2.44824 17.4396Z" fill="#CF142B"/>
<path d="M26.9803 5.29797H14.7899V-0.799805H9.70414V5.29797H-2.44824V11.3602H9.70414V17.6002H14.7899V11.3602H26.9803V5.29797Z" fill="white"/>
<path d="M26.9803 6.54242H13.7041V-0.799805H10.7708V6.54242H-2.44824V10.1158H10.7708V17.6002H13.7041V10.1158H26.9803V6.54242Z" fill="#CF142B"/>
</g>
</svg>
