<svg width="24" height="24" viewBox="0 0 24 24" fill="none" xmlns="http://www.w3.org/2000/svg">
<path d="M15.289 11.5995C15.289 10.8836 14.7522 10.3019 14.1257 10.3019C13.4545 10.3019 12.9176 10.8836 12.9176 11.5995C12.9176 12.2706 13.4545 12.8523 14.1257 12.8523C14.7522 12.8523 15.289 12.2706 15.289 11.5995ZM9.91975 10.3019C9.29333 10.3019 8.75639 10.8836 8.75639 11.5995C8.75639 12.2706 9.29333 12.8523 9.91975 12.8523C10.5909 12.8523 11.0831 12.2706 11.0831 11.5995C11.1278 10.8836 10.5909 10.3019 9.91975 10.3019ZM22.0455 3.05334C22.0455 1.75575 20.9716 0.681885 19.674 0.681885H4.3267C3.02912 0.681885 2 1.75575 2 3.05334V18.5348C2 19.8772 3.02912 20.9064 4.3267 20.9064H17.3025L16.7208 18.8033C20.0767 21.8907 19.1371 21.0853 22.0455 23.591V3.05334ZM18.7792 13.9262C18.7792 13.9262 17.7947 15.5817 15.2443 15.6712C15.2443 15.6712 14.8416 15.1791 14.4837 14.7316C16.005 14.3289 16.5867 13.3892 16.5867 13.3892C16.0944 13.7024 15.6471 13.8814 15.2443 14.0605C12.7834 15.0895 10.054 14.7316 8.08522 13.6577C8.08522 13.613 7.81676 13.4788 7.63779 13.3445C7.63779 13.3445 8.17472 14.2842 9.65128 14.7316C9.29333 15.1342 8.89063 15.6712 8.89063 15.6712C6.3402 15.5817 5.40057 13.9262 5.40057 13.9262C5.40057 10.2124 7.01136 7.2593 7.01136 7.2593C8.66691 6.00646 10.233 6.05121 10.233 6.05121L10.3672 6.18543C8.30895 6.76711 7.36932 7.662 7.36932 7.662C7.36932 7.662 7.59304 7.52776 8.04048 7.34879C10.6804 6.18543 13.8572 6.18543 16.5867 7.662C16.5867 7.662 15.6918 6.81186 13.723 6.23018L13.902 6.05121C13.902 6.05121 15.468 6.00646 17.1236 7.2593C17.1236 7.2593 18.7792 10.2124 18.7792 13.9262Z" fill="#100024"/>
</svg>
