<svg width="24" height="24" viewBox="0 0 24 24" fill="none" xmlns="http://www.w3.org/2000/svg">
<path d="M10.6131 9.703V12.794C10.2158 12.6912 9.80068 12.6772 9.39731 12.7529C8.99393 12.8286 8.61217 12.9922 8.27912 13.232C7.95001 13.4679 7.67874 13.7754 7.48577 14.1314C7.2928 14.4874 7.18316 14.8825 7.16512 15.287C7.11812 15.989 7.38312 16.677 7.89312 17.173C8.40212 17.669 9.10612 17.925 9.82312 17.875C10.1789 17.902 10.5364 17.8527 10.8717 17.7304C11.2069 17.6082 11.5122 17.4157 11.7671 17.166C12.2771 16.663 12.5371 15.966 12.4771 15.258V3H15.6021C16.1341 6.236 17.7861 6.987 20.0001 7.333V10.434C18.4699 10.3127 16.9914 9.82426 15.6901 9.01V15.135C15.6891 17.906 14.0101 21 9.84612 21C8.27443 20.9958 6.76862 20.3682 5.65912 19.255C5.11718 18.7111 4.69104 18.0631 4.40643 17.35C4.12181 16.6369 3.98461 15.8736 4.00312 15.106C4.0298 14.3058 4.22797 13.5207 4.58423 12.8037C4.94048 12.0867 5.44651 11.4546 6.06812 10.95C6.69776 10.4379 7.42715 10.0626 8.20983 9.84789C8.99251 9.6332 9.81132 9.58385 10.6141 9.703H10.6131Z" fill="#100024"/>
</svg>
