<svg width="24" height="24" viewBox="0 0 24 24" fill="none" xmlns="http://www.w3.org/2000/svg">
<path d="M20.6429 1C21.2976 1 21.8542 1.22917 22.3125 1.6875C22.7708 2.14583 23 2.70238 23 3.35714V20.6429C23 21.2976 22.7708 21.8542 22.3125 22.3125C21.8542 22.7708 21.2976 23 20.6429 23H13.9152V15.5357H16.7634L17.3036 12H13.9152V9.69196C13.9152 8.44792 14.5699 7.82589 15.8795 7.82589H17.4018V4.83036C16.4851 4.66667 15.5848 4.58482 14.7009 4.58482C13.7515 4.58482 12.933 4.76488 12.2455 5.125C11.5908 5.48512 11.067 6.02529 10.6741 6.74554C10.2812 7.46578 10.0848 8.31696 10.0848 9.29911V12H6.99107V15.5357H10.0848V23H3.35714C2.70238 23 2.14583 22.7708 1.6875 22.3125C1.22917 21.8542 1 21.2976 1 20.6429V3.35714C1 2.70238 1.22917 2.14583 1.6875 1.6875C2.14583 1.22917 2.70238 1 3.35714 1H20.6429Z" fill="url(#paint0_linear_1_1532)"/>
<defs>
<linearGradient id="paint0_linear_1_1532" x1="12.0853" y1="0.999999" x2="12.1206" y2="24.1956" gradientUnits="userSpaceOnUse">
<stop stop-color="#FFF0A4"/>
<stop offset="0.411458" stop-color="#DFBB5F"/>
<stop offset="0.677083" stop-color="#EDB524"/>
<stop offset="1" stop-color="#D29E18"/>
</linearGradient>
</defs>
</svg>
