<svg width="28" height="24" viewBox="0 0 28 24" fill="none" xmlns="http://www.w3.org/2000/svg">
<path d="M26.4762 5.8125C26.5714 6.1875 26.6508 6.65625 26.7143 7.21875C26.8095 7.78125 26.873 8.34375 26.9048 8.90625C26.9365 9.4375 26.9524 9.9375 26.9524 10.4062C26.9842 10.875 27 11.2656 27 11.5781V12C27 14.8125 26.8254 16.8906 26.4762 18.2344C26.3175 18.7656 26.0318 19.2344 25.619 19.6406C25.2063 20.0469 24.7143 20.3281 24.1429 20.4844C23.5397 20.6406 22.3968 20.7656 20.7143 20.8594C19.0318 20.9219 17.492 20.9687 16.0952 21H14C8.57143 21 5.19048 20.8281 3.85714 20.4844C2.61905 20.1406 1.84127 19.3906 1.52381 18.2344C1.36508 17.6406 1.2381 16.8281 1.14286 15.7969C1.07937 14.7344 1.03175 13.8437 1 13.125V12C1 9.21875 1.17461 7.15625 1.52381 5.8125C1.68254 5.25 1.96825 4.76563 2.38095 4.35938C2.79365 3.95312 3.28571 3.67187 3.85714 3.51562C4.46032 3.35938 5.60318 3.25 7.28571 3.1875C8.96823 3.09375 10.508 3.03125 11.9048 3H14C19.4286 3 22.8095 3.17188 24.1429 3.51562C24.7143 3.67187 25.2063 3.95312 25.619 4.35938C26.0318 4.76563 26.3175 5.25 26.4762 5.8125ZM11.3333 15.8438L18.1429 12L11.3333 8.20312V15.8438Z" fill="url(#paint0_linear_1_1517)"/>
<defs>
<linearGradient id="paint0_linear_1_1517" x1="14.1008" y1="3" x2="14.1208" y2="21.9782" gradientUnits="userSpaceOnUse">
<stop stop-color="#FFF0A4"/>
<stop offset="0.411458" stop-color="#DFBB5F"/>
<stop offset="0.677083" stop-color="#EDB524"/>
<stop offset="1" stop-color="#D29E18"/>
</linearGradient>
</defs>
</svg>
