<svg width="24" height="24" viewBox="0 0 24 24" fill="none" xmlns="http://www.w3.org/2000/svg">
<path d="M21.5156 6.875C21.5469 7 21.5625 7.20312 21.5625 7.48438C21.5625 9.14062 21.25 10.7969 20.625 12.4531C20 14.0781 19.1094 15.5781 17.9531 16.9531C16.8281 18.2969 15.3594 19.3906 13.5469 20.2344C11.7344 21.0781 9.7344 21.5 7.54688 21.5C4.79687 21.5 2.28125 20.7656 0 19.2969C0.34375 19.3281 0.734375 19.3438 1.17188 19.3438C3.45313 19.3438 5.5 18.6406 7.3125 17.2344C6.21875 17.2344 5.25 16.9219 4.40625 16.2969C3.59375 15.6406 3.03125 14.8281 2.71875 13.8594C3.03125 13.8906 3.32812 13.9062 3.60938 13.9062C4.04687 13.9062 4.48438 13.8594 4.92188 13.7656C4.17188 13.6094 3.5 13.2969 2.90625 12.8281C2.3125 12.3594 1.84375 11.7969 1.5 11.1406C1.15625 10.4531 0.984375 9.71877 0.984375 8.9375V8.84375C1.67188 9.25 2.40625 9.46875 3.1875 9.5C1.71875 8.5 0.984375 7.125 0.984375 5.375C0.984375 4.5 1.21875 3.67188 1.6875 2.89062C2.90625 4.42188 4.39063 5.64063 6.14062 6.54688C7.92188 7.45312 9.81248 7.95312 11.8125 8.04688C11.75 7.67188 11.7188 7.29688 11.7188 6.92188C11.7188 5.57812 12.1875 4.42188 13.125 3.45312C14.0938 2.48437 15.25 2 16.5938 2C18.0313 2 19.2344 2.51562 20.2031 3.54688C21.3281 3.32812 22.375 2.9375 23.3438 2.375C22.9688 3.53125 22.25 4.4375 21.1875 5.09375C22.125 4.96875 23.0625 4.70313 24 4.29688C23.3125 5.29687 22.4844 6.15625 21.5156 6.875Z" fill="#100024"/>
</svg>
