<svg width="24" height="24" viewBox="0 0 24 24" fill="none" xmlns="http://www.w3.org/2000/svg">
<path d="M12.0246 6.32812C8.8817 6.32812 6.37723 8.8817 6.37723 11.9754C6.37723 15.1183 8.8817 17.6228 12.0246 17.6228C15.1183 17.6228 17.6719 15.1183 17.6719 11.9754C17.6719 8.8817 15.1183 6.32812 12.0246 6.32812ZM12.0246 15.6585C10.0112 15.6585 8.34152 14.0379 8.34152 11.9754C8.34152 9.96205 9.96205 8.34152 12.0246 8.34152C14.0379 8.34152 15.6585 9.96205 15.6585 11.9754C15.6585 14.0379 14.0379 15.6585 12.0246 15.6585ZM19.1942 6.1317C19.1942 5.39509 18.6049 4.8058 17.8683 4.8058C17.1317 4.8058 16.5424 5.39509 16.5424 6.1317C16.5424 6.8683 17.1317 7.45759 17.8683 7.45759C18.6049 7.45759 19.1942 6.8683 19.1942 6.1317ZM22.9263 7.45759C22.8281 5.68973 22.4353 4.1183 21.1585 2.84152C19.8817 1.56473 18.3103 1.17188 16.5424 1.07366C14.7254 0.975446 9.27455 0.975446 7.45759 1.07366C5.68973 1.17188 4.16741 1.56473 2.84152 2.84152C1.56473 4.1183 1.17188 5.68973 1.07366 7.45759C0.975446 9.27455 0.975446 14.7254 1.07366 16.5424C1.17188 18.3103 1.56473 19.8326 2.84152 21.1585C4.16741 22.4353 5.68973 22.8281 7.45759 22.9263C9.27455 23.0246 14.7254 23.0246 16.5424 22.9263C18.3103 22.8281 19.8817 22.4353 21.1585 21.1585C22.4353 19.8326 22.8281 18.3103 22.9263 16.5424C23.0246 14.7254 23.0246 9.27455 22.9263 7.45759ZM20.5692 18.4576C20.2254 19.4397 19.4397 20.1763 18.5067 20.5692C17.0335 21.1585 13.596 21.0112 12.0246 21.0112C10.404 21.0112 6.96652 21.1585 5.54241 20.5692C4.56027 20.1763 3.82366 19.4397 3.4308 18.4576C2.84152 17.0335 2.98884 13.596 2.98884 11.9754C2.98884 10.404 2.84152 6.96652 3.4308 5.4933C3.82366 4.56027 4.56027 3.82366 5.54241 3.4308C6.96652 2.84152 10.404 2.98884 12.0246 2.98884C13.596 2.98884 17.0335 2.84152 18.5067 3.4308C19.4397 3.77455 20.1763 4.56027 20.5692 5.4933C21.1585 6.96652 21.0112 10.404 21.0112 11.9754C21.0112 13.596 21.1585 17.0335 20.5692 18.4576Z" fill="#100024"/>
</svg>
