<svg width="116" height="144" viewBox="0 0 116 144" fill="none" xmlns="http://www.w3.org/2000/svg">
<g clip-path="url(#clip0_1_13242)">
<path d="M100.698 90.5881L108.604 87.5192L104.109 82.009L106.701 78.1784L107.565 66.9029L101.406 63.365L89.0801 68.15L115.445 0.652339L51.3162 25.6105C50.0127 22.5415 47.817 17.1888 46.5699 13.1432C46.2773 12.2064 46.0469 11.3519 45.9035 10.6713C45.7942 9.9755 45.6555 8.55446 45.9141 6.66444L46.8215 0L42.4232 5.08707C42.3915 5.12351 39.2167 8.79894 36.3523 13.0809C35.3862 14.4243 34.5258 15.8442 33.7959 17.2993C32.785 19.1976 32.1198 20.876 31.8177 22.29C31.8012 22.3535 31.7707 22.471 31.7307 22.6367C31.3663 23.945 31.0972 25.2673 30.9303 26.5625C30.7152 28.1987 30.7011 29.4845 30.7281 30.2862C30.7058 31.4392 30.754 32.5382 30.8727 33.5667L0 45.5826L35.5578 88.9261L7.97499 99.6327L13.6921 102.918L11.9878 125.023L23.2621 120.646L21.4649 144L62.782 127.962C62.8314 128.591 63.4297 131.991 63.4297 131.991C63.4297 131.991 65.3079 130.897 66.3435 130.227C67.4131 129.535 69.202 128.377 70.6465 127.948C71.762 127.614 72.955 127.392 73.8718 127.235C77.1405 126.675 80.5139 126.347 84.1176 126.241L81.1498 129.064L90.5258 127.018C92.5075 126.587 94.9594 124.879 95.9279 124.161C96.0748 124.05 96.2218 123.936 96.3675 123.819L96.344 124.566L101.038 120.269C102.356 119.062 103.274 116.276 103.703 114.726C104.077 113.385 104.245 111.703 104.189 109.861C104.093 106.739 102.98 103.74 101.055 101.413C100.457 100.691 99.8372 100.247 99.34 99.8913C99.2742 99.8443 99.2096 99.7973 99.1449 99.7514L99.0838 99.7068L98.1376 99.1626L98.2011 99.1379L100.7 90.5846L100.698 90.5881Z" fill="#9A4DFF"/>
<path d="M2.32373 46.1919L112.962 3.13281L65.8804 123.666L2.32373 46.1919Z" fill="#100024"/>
<path d="M65.4431 120.909L4.64746 46.8011L110.479 5.61328L65.4431 120.909Z" fill="white"/>
<path d="M6.97217 47.4084L107.995 8.0918L65.0056 118.151L6.97217 47.4084Z" fill="url(#paint0_radial_1_13242)"/>
<path d="M56.8415 126.654C51.001 126.654 47.972 123.265 46.4593 120.422C45.841 119.26 45.3521 117.974 45.0053 116.596L43.9345 116.562L43.7218 115.126L41.585 114.556L42.6334 110.973L42.4054 110.954L42.4547 110.369C43.5949 96.725 40.895 90.4379 39.1836 87.9049C37.7015 85.7105 36.6331 83.3856 36.0066 80.9925C35.0392 77.2947 33.9685 70.8136 34.3234 60.8581C29.9122 57.8574 28.4324 53.6342 28.3701 53.452L28.2761 53.1758V53.0947C28.0469 52.1579 27.9211 51.1553 27.9011 50.1022L26.7104 51.0542L27.183 46.8205C27.5779 43.2791 29.234 39.8516 30.5528 37.5996C30.6163 37.4903 30.6797 37.3845 30.742 37.2811C30.8043 37.1776 30.8643 37.0789 30.923 36.9825C31.5425 35.9752 31.9926 35.3664 32.0114 35.3417L32.4698 34.7234C32.2148 33.3988 32.1031 31.9037 32.1372 30.2746C32.1102 29.5259 32.1219 28.3105 32.3276 26.7461C32.4875 25.5049 32.7461 24.2413 33.0951 22.9907C33.1433 22.7886 33.1774 22.6581 33.1892 22.6146C33.4619 21.3193 34.0872 19.749 35.0475 17.946C35.7492 16.5437 36.5778 15.1779 37.5087 13.8838C40.3073 9.6983 43.455 6.04637 43.4867 6.00994L44.7808 4.51367L44.514 6.47422C44.2284 8.56993 44.3906 10.159 44.514 10.9266C44.6656 11.6565 44.9101 12.5686 45.2216 13.5641C46.5404 17.8402 48.8947 23.5338 50.1805 26.5486L50.4521 27.1833H50.4744C52.0753 27.1833 53.742 27.4784 55.1618 27.7663C56.1151 27.9591 57.0624 28.2141 57.9816 28.5256L64.4627 24.2531L64.9869 23.9005L71.3351 19.7185C71.4327 19.6456 71.5079 19.5974 71.5538 19.5692L76.0296 17.5945L74.9929 19.6902C75.0153 20.1733 75.0846 21.8624 75.0729 24.1309C75.0823 24.9219 75.0682 25.7364 75.0305 26.5416C74.886 31.4088 74.2995 38.0204 72.3483 42.1096C73.2957 44.1336 74.4052 47.4529 74.6873 49.1384C74.9636 50.7287 75.9027 53.9175 75.9426 54.0526L77.1051 57.9773L74.236 56.5221C74.1678 57.024 74.075 57.5412 73.9598 58.0654C73.8105 58.746 73.6224 59.4453 73.385 60.2034C73.3286 60.3833 73.271 60.5596 73.2122 60.7324C73.0606 61.1802 72.8855 61.6539 72.6786 62.1793C72.6198 62.3274 72.5622 62.4708 72.5058 62.6106C72.4482 62.7528 72.3906 62.8904 72.3342 63.0244C72.2449 63.2371 72.152 63.4499 72.0603 63.6555L71.8887 64.034C71.8476 64.1233 71.8088 64.208 71.77 64.2903C71.7465 64.3408 71.7171 64.4019 71.6901 64.4607C71.6137 64.6205 71.5373 64.7733 71.4633 64.9144C71.428 64.9849 71.3916 65.0578 71.3586 65.1212C71.2493 65.334 71.187 65.448 71.187 65.448L70.4983 66.7045C70.8074 66.8608 71.12 67.0113 71.4327 67.157C77.6129 70.0297 81.7679 73.7909 84.1645 76.4402C86.7832 79.3328 87.9351 81.5555 87.9821 81.6483L88.2266 82.1256L87.2698 82.7332C87.7847 83.422 88.2736 84.1296 88.7273 84.8466C90.6526 87.8873 92.887 92.6123 92.5908 97.851L92.4215 100.848L91.2791 101.006L90.4281 98.5234C90.4304 99.3191 90.4128 100.223 90.3599 101.222C90.1625 105.013 89.4173 110.953 86.9842 117.724L86.3084 119.607L84.9931 118.101C84.9931 118.101 84.9226 118.022 84.7886 117.881L72.3612 117.479C72.1838 117.679 71.9992 117.871 71.81 118.058C72.6375 117.913 73.4826 117.838 74.3312 117.838C75.8451 117.838 77.3284 118.07 78.7424 118.526C81.8149 118.568 84.443 119.343 86.5552 120.827L87.0359 121.166L85.6842 123.089L85.2035 122.75C83.4322 121.506 81.1661 120.874 78.4685 120.874C77.071 120.874 75.5371 121.045 73.9092 121.38C69.806 122.226 66.0259 123.941 64.1382 124.887C62.9394 125.489 61.6887 125.943 60.4193 126.238C59.9715 126.36 59.5531 126.451 59.1393 126.514C58.6163 126.595 58.0756 126.636 57.5326 126.636H57.4832C57.2505 126.646 57.0401 126.65 56.8426 126.65L56.8415 126.654Z" fill="#100024"/>
<path d="M85.8797 117.329L44.4439 115.99L43.6258 110.466C44.8082 96.3177 41.8651 89.7743 40.1572 87.2461C38.802 85.2397 37.7571 83.037 37.1435 80.6945C34.3814 70.1395 35.7777 56.25 35.7777 56.25L62.01 61.6309C63.679 63.7513 66.4224 66.1256 70.9359 68.2237C82.5534 73.6245 86.9352 82.1849 86.9352 82.1849C86.9352 82.1849 85.493 80.3219 83.6477 80.3219C83.6477 80.3219 91.9565 88.2463 91.4181 97.7858C91.4181 97.7858 90.4955 95.093 89.0333 94.631C89.0333 94.631 90.4955 104.478 85.8786 117.327" fill="#9A4DFF"/>
<path d="M54.1218 111.403C54.1218 111.403 56.1752 111.414 61.2623 107.337C62.6856 106.196 61.2011 111.223 59.8483 112.445C58.9232 113.281 57.615 113.509 56.3832 113.703C54.9857 113.923 53.5893 114.141 52.1918 114.361C50.9753 114.553 49.6342 114.721 48.5928 114.064C51.0916 108.534 52.5315 102.433 52.0414 96.3848C51.972 95.5256 51.8639 94.6711 51.7557 93.8166C51.6617 93.0714 51.5677 92.3274 51.4736 91.5822C51.168 89.1621 50.7907 85.7594 50.1231 83.4121C50.1231 83.4121 56.0236 91.5399 53.8608 104.27L52.5385 110.236C52.3364 111.147 53.3108 111.865 54.1206 111.403H54.1218Z" fill="#461691"/>
<path d="M80.4445 111.009C75.7711 108.05 69.9965 106.878 64.5392 107.782C65.7333 106.098 66.1682 103.895 65.704 101.883C65.6393 102.287 65.3114 102.601 64.9541 102.801C64.5967 102.999 64.1983 103.116 63.8386 103.311C62.5104 104.033 61.9874 105.666 61.8017 107.166C61.616 108.666 61.6312 110.25 60.9131 111.58C64.5697 110.525 68.3533 109.469 72.1298 109.947C74.7721 110.282 77.2451 111.359 79.5676 112.62C80.1283 112.924 82.2052 114.592 82.519 113.643C82.8646 112.596 81.1391 111.447 80.4456 111.009H80.4445Z" fill="#461691"/>
<path d="M43.1533 110.525L41.7476 110.407C42.8994 96.6188 40.1432 90.2259 38.3977 87.6412C36.9461 85.4915 35.8988 83.2147 35.2865 80.8734C32.5243 70.3172 33.8443 56.7521 33.9019 56.1797L35.3053 56.3207C35.2912 56.4583 33.9548 70.2091 36.6511 80.516C37.2235 82.7023 38.2038 84.8344 39.5672 86.8514C41.4161 89.5888 44.3416 96.305 43.1533 110.524V110.525Z" fill="#100024"/>
<path d="M77.9 97.266C79.3011 97.5516 80.7104 98.0935 81.6366 99.1831C78.3114 98.2357 74.7429 98.1581 71.3801 98.9621C68.0174 99.7649 64.8685 101.447 62.332 103.795C62.5554 100.78 63.3664 97.8443 64.4489 95.0316C64.8227 94.0596 69.0658 84.3121 68.8695 85.4334C68.4711 87.7113 67.613 91.3562 67.4332 92.0532C66.956 93.9068 66.7056 95.8685 67.1523 97.7291C67.1523 97.7291 70.5891 95.7768 77.8988 97.266H77.9Z" fill="#461691"/>
<path d="M56.8417 126.067C51.3174 126.067 48.4342 122.884 46.9779 120.146C45.3582 117.102 45.1419 114.034 45.1337 113.905L45.0737 112.981L45.9353 113.32C47.5844 113.967 50.7062 113.793 54.9646 112.815C58.0817 112.1 60.7628 111.185 61.0437 111.089C68.518 107.71 74.9955 109.481 79.1152 111.563C82.3088 113.177 84.5761 115.183 85.641 116.231C89.7689 104.122 88.4666 94.8144 88.4525 94.7192L88.315 93.7907L89.2106 94.0728C89.8324 94.2691 90.3554 94.7545 90.7739 95.3046C89.9582 87.2567 83.3161 80.8191 83.242 80.7486L82.1818 79.7354H83.6475C84.033 79.7354 84.3998 79.8024 84.7442 79.9117C84.2317 79.2277 83.5958 78.439 82.8259 77.5903C80.541 75.0727 76.5811 71.4971 70.6889 68.7573C67.2991 67.1811 62.748 64.4131 60.3126 60.1735C58.8222 57.5794 58.8328 55.66 58.834 55.5801L60.0093 55.5965L59.4217 55.5883L60.0093 55.5942C60.0093 55.6118 60.0164 57.3361 61.3787 59.6681C63.6742 63.5986 67.9785 66.2009 71.1849 67.6913C77.2758 70.5228 81.3685 74.2276 83.7298 76.8358C86.3004 79.6755 87.4146 81.8276 87.4605 81.9181L86.472 82.5458C86.4673 82.5399 86.271 82.2919 85.9442 81.9922C86.6307 82.8326 87.4346 83.9045 88.2327 85.1634C90.1121 88.1312 92.2937 92.7364 92.0057 97.8199L91.8364 100.817L90.8632 97.9774C90.7186 97.559 90.299 96.5905 89.7501 95.904C89.8312 97.0395 89.897 98.8495 89.7748 101.193C89.5797 104.944 88.8416 110.823 86.4332 117.528L86.0947 118.469L85.4365 117.716C85.4106 117.686 82.8013 114.735 78.5475 112.595C76.0675 111.346 73.5204 110.614 70.9757 110.417C67.8022 110.171 64.6145 110.761 61.5033 112.173L61.4539 112.193C61.4257 112.202 58.5766 113.193 55.2373 113.96C51.3362 114.857 48.3766 115.098 46.4125 114.682C46.5841 115.766 47.0131 117.724 48.0322 119.627C50.0127 123.325 53.2097 125.091 57.5269 124.875C59.5239 124.775 61.4821 124.251 63.3463 123.315C65.3115 122.33 69.2514 120.544 73.5521 119.657C78.8414 118.567 83.1021 119.123 86.2169 121.312L85.5411 122.274C82.7025 120.279 78.7485 119.787 73.7896 120.809C69.6205 121.67 65.7875 123.408 63.874 124.367C61.8618 125.376 59.7461 125.942 57.5857 126.05C57.333 126.063 57.0838 126.069 56.8417 126.069V126.067Z" fill="#100024"/>
<path d="M59.7943 113.326L58.8799 112.253C60.3985 110.96 61.0496 106.499 61.1731 104.889L61.1813 104.824C63.1806 93.2097 68.4522 84.4307 68.5051 84.3438L69.7111 85.076C69.6593 85.1606 64.5335 93.708 62.5765 105.031C62.5142 105.826 61.9958 111.452 59.7943 113.328V113.326Z" fill="#100024"/>
<path d="M37.3821 75.1401C37.7277 77.3134 38.2249 79.4326 38.9313 80.6503C38.9313 80.6503 38.8267 78.5558 39.4026 77.0372C39.9785 75.5186 39.1934 85.2578 43.8009 90.3367C43.8009 90.3367 42.9111 87.98 43.9055 84.7865C43.9055 84.7865 44.7142 92.7121 52.1779 103.879L52.1226 94.494L49.8389 83.912C49.8389 83.912 52.4635 80.3236 53.0477 76.3049C53.0477 76.3049 53.6953 78.249 52.7232 80.9077C52.7232 80.9077 57.2262 74.9438 57.9702 65.0812L56.1095 61.3599L47.4634 64.9037L37.5937 59.2207L37.1306 63.4239C36.7004 67.3238 36.7674 71.2661 37.3833 75.1413L37.3821 75.1401Z" fill="#EDEDEE"/>
<path d="M37.1294 63.4234L37.5925 59.2202L47.4622 64.9032L56.1084 61.3594L57.969 65.0807C57.7798 67.5831 57.3496 69.8339 56.8112 71.8003C56.8324 71.8062 56.8535 71.8109 56.8747 71.8168C56.9852 71.8462 57.1004 71.8756 57.225 71.8932C57.8479 71.9778 58.4368 72.0213 58.9728 72.0213C59.4112 72.0213 59.7027 71.9931 59.8602 71.9778C59.8931 71.9743 59.919 71.972 59.9354 71.9708L61.2624 72.0296L60.1282 71.3196C59.8026 71.1151 59.4782 70.8694 59.2572 70.6685C59.3736 70.7049 59.4876 70.7319 59.6004 70.7496C59.6004 70.7496 59.7332 70.7695 59.7344 70.7695L59.819 70.7836L59.8543 70.7883H59.8602L60.0565 70.8142L60.2563 70.8377L60.261 70.8401L60.4925 70.8636C60.509 70.8647 60.6348 70.8777 60.6736 70.8812C60.7323 70.8859 60.7923 70.8918 60.851 70.8953C60.9063 70.9 60.9627 70.9035 61.0191 70.9071C61.0191 70.9071 61.1602 70.9153 61.2107 70.9188C61.2601 70.9212 61.3094 70.9235 61.3588 70.9259C61.4282 70.9294 61.4987 70.9317 61.5692 70.9341L61.6903 70.9364C61.7678 70.9376 61.8454 70.94 61.9242 70.94H62.017C62.6435 70.94 63.2782 70.9012 63.9059 70.8236H63.9164C63.9952 70.813 64.0739 70.8025 64.1539 70.7907H64.3807L64.4771 70.746H64.4888L64.6146 70.719C64.7051 70.7037 64.7945 70.6873 64.8838 70.6708C64.9884 70.6508 65.093 70.6308 65.1988 70.6085C65.3222 70.5826 65.4597 70.5439 65.6207 70.4921C66.2813 70.2759 66.9019 69.9573 67.4661 69.546C67.7329 69.352 67.9845 69.1381 68.2184 68.9089L68.4946 72.6513L70.9253 68.219C66.4188 66.1221 63.6767 63.749 62.01 61.6309L35.7777 56.25C35.7777 56.25 35.451 59.5058 35.4263 64.0628L36.979 65.0572C37.0189 64.5118 37.0683 63.9652 37.1282 63.421L37.1294 63.4234Z" fill="#461691"/>
<path d="M56.1082 61.3599L47.4621 64.9037L37.5924 59.2207L37.1293 63.4239C37.0693 63.9681 37.0199 64.5135 36.98 65.06L39.225 66.4975L38.5738 64.2772C39.5082 64.8837 40.291 65.3151 40.9093 65.5607L40.9175 65.5666C40.9469 65.5866 40.981 65.6078 41.0104 65.6254L41.0339 65.6395C41.0339 65.6395 41.0833 65.6689 41.1138 65.6877C41.39 65.8722 42.3856 66.5187 44.1745 67.4731C44.2885 67.5342 44.4049 67.5953 44.5248 67.6588C46.195 68.5368 49.2393 69.8098 51.4619 70.7395C51.7781 70.8723 52.079 70.9981 52.3599 71.1156L53.4448 71.5717L52.5962 70.3046C52.6044 70.3081 52.7795 70.3892 52.7795 70.3892C52.8971 70.4433 53.0146 70.4973 53.1321 70.5491C53.1709 70.5667 53.2097 70.5832 53.2473 70.5984L53.3319 70.6349C53.4377 70.6807 53.5447 70.7266 53.6528 70.7712C53.6916 70.7865 53.8773 70.8605 53.8773 70.8605C53.9761 70.9005 54.0748 70.9393 54.1735 70.9769C54.217 70.9934 54.2617 71.0098 54.304 71.0251L54.4204 71.0686C54.5132 71.1027 54.6049 71.1368 54.6966 71.1697C54.7471 71.1873 54.7965 71.2049 54.8458 71.2214L54.9845 71.2684C55.0633 71.2954 55.1409 71.3225 55.2184 71.3483C55.276 71.3671 55.3325 71.3848 55.3889 71.4024L55.537 71.4482C55.6051 71.4694 55.6721 71.4917 55.7391 71.5117C55.8061 71.5317 55.8731 71.5505 55.9448 71.5705L56.0847 71.6104C56.1423 71.6269 56.1987 71.6433 56.2551 71.6586C56.3433 71.6833 56.4314 71.7056 56.5184 71.7268L56.6395 71.7585C56.6818 71.7691 56.7229 71.7809 56.7664 71.7914C56.7829 71.795 56.7993 71.7997 56.8158 71.8044C57.3541 69.838 57.7843 67.5871 57.9735 65.0847L56.1129 61.3634L56.1082 61.3599Z" fill="#DCC5FF"/>
<path d="M71.4565 87.7832C73.1843 89.9342 74.2457 92.6117 74.462 95.3621C75.5727 93.4004 76.5506 91.3223 76.9174 89.0985C77.2841 86.8746 76.9867 84.471 75.7161 82.608C77.8259 83.7998 79.5878 85.5982 80.7374 87.7303C80.1238 83.1475 77.3664 78.8973 73.4312 76.4701C74.9063 76.7863 76.3273 77.3517 77.6155 78.1356C76.5307 77.4998 75.8066 76.4078 74.8875 75.5498C73.8343 74.5672 73.169 74.0042 71.8808 73.3589C70.5938 72.7136 69.1563 71.9602 67.7705 71.5664C69.5818 72.3433 71.2073 73.5469 72.4803 75.0514C71.9396 75.0796 70.8888 74.5919 69.6264 75.0796C73.095 76.2562 75.0226 78.4683 76.7763 81.683C75.3271 79.9869 73.0832 79.0007 70.8524 79.0783C72.0818 79.3992 73.8472 81.7641 74.2528 82.9688C75.0767 85.4136 75.6773 88.3062 75.1613 90.8333C74.5019 89.685 72.5896 88.4673 71.4553 87.7832" fill="#461691"/>
<path d="M63.6003 89.2975C63.2489 91.3215 62.5283 93.2809 61.4858 95.051C61.6774 93.5383 61.4047 91.9703 60.7124 90.6116C60.5866 92.2735 60.0401 93.9026 59.1374 95.3049C59.202 92.5909 58.4909 89.864 57.111 87.5273C57.3614 89.4127 57.1686 91.3556 56.5515 93.1551C56.5257 92.1078 56.072 89.0025 55.7852 87.994L56.0802 95.9713C56.6573 94.575 57.2415 92.9271 57.5776 91.4531C58.3087 94.3258 58.4521 97.3453 57.9961 100.274C59.4618 98.4455 60.3562 96.1653 60.5208 93.8274C61.0145 95.2543 61.0732 96.8293 60.6889 98.2892C61.5504 96.9234 62.4179 95.547 63.0103 94.0437C63.6015 92.5404 63.9071 90.8854 63.6026 89.2998L63.6003 89.2975Z" fill="#461691"/>
<path d="M81.3752 103.047C82.3461 104.136 82.8492 105.627 82.7352 107.081C83.8118 105.112 84.9249 102.905 84.3972 100.725C85.2916 101.453 85.8311 102.599 85.8205 103.754C86.2202 101.764 86.3518 99.7185 86.2108 97.6934C86.9254 100.915 86.6034 104.359 85.3022 107.391C85.415 106.113 85.3281 104.816 85.0448 103.564C84.3078 105.972 82.848 108.152 80.9027 109.749C81.8019 108.351 81.9829 106.515 81.3729 104.967C81.769 105.973 79.8578 107.785 79.0386 107.964C78.981 107.401 80.214 106.406 80.5149 105.879C81.0073 105.015 81.3106 104.042 81.3752 103.048V103.047Z" fill="#461691"/>
<path d="M62.3626 105.911L61.3306 105.348C63.4956 101.379 67.7305 98.9574 73.5769 98.345C77.9282 97.889 81.593 98.5778 81.747 98.6071L81.526 99.7614C81.4896 99.7543 77.8541 99.0738 73.6721 99.5169C68.1643 100.1 64.3595 102.252 62.3637 105.911H62.3626Z" fill="#100024"/>
<path d="M64.8484 110.99C62.9208 113.781 59.6615 115.605 56.2763 115.788C58.3721 115.557 60.4878 115.946 62.5964 115.88C64.7039 115.814 66.9818 115.162 68.1677 113.419C66.8125 115.781 64.4993 117.575 61.8735 118.299C64.7861 118.301 67.6987 117.867 70.4844 117.016C71.6574 116.658 72.928 116.116 73.4041 114.987C72.2863 117.045 70.5114 118.74 68.4051 119.763C71.9748 118.038 76.3084 117.98 79.9227 119.611C75.0061 119.351 70.1929 121.082 65.784 123.272C63.6119 124.351 61.4457 125.565 59.0491 125.938C55.7956 126.443 52.3717 125.265 49.9575 123.025C47.5444 120.785 46.1304 117.561 45.8848 114.277C46.8956 114.934 48.1897 115.021 49.3757 114.803C50.5616 114.586 51.6759 114.093 52.8007 113.66C56.2517 112.329 59.9071 111.53 63.5978 111.298" fill="#F8FFFF"/>
<path d="M40.6555 86.9805C40.6555 86.9805 46.4525 94.1691 46.047 105.16C46.047 105.16 45.2171 108.075 47.0378 108.412C48.8585 108.75 50.2067 108.615 50.2067 108.615L48.7903 112.998L47.374 115.493L42.3175 114.145L43.936 108.616C43.936 108.616 42.2058 91.4317 40.6543 86.9816L40.6555 86.9805Z" fill="#461691"/>
<path d="M49.5721 81.6027C51.5573 86.3748 52.7597 91.4666 53.1981 96.6195C53.4132 99.2265 53.6518 101.903 53.0547 104.49C52.6281 106.429 51.944 108.35 50.9085 110.048C50.5747 110.614 50.1668 111.173 49.7437 111.674L49.4851 111.562C49.6297 109.904 49.8624 108.411 50.0081 106.821C50.215 104.999 50.3149 103.142 50.5406 101.322C50.7122 99.7848 50.9379 98.2532 50.9438 96.6947C50.9626 95.4488 50.9391 94.1982 50.8685 92.9464C50.711 89.7987 50.3196 86.6534 49.7108 83.5562C49.5897 82.9333 49.4557 82.3091 49.3076 81.6944L49.5744 81.6016L49.5721 81.6027Z" fill="#100024"/>
<path d="M43.375 82.9766C44.6386 86.5086 45.9468 90.0054 47.3831 93.4633C48.0919 95.15 49.0862 96.7227 49.6822 98.4446C49.9948 99.2874 50.2922 100.129 50.6072 100.96C50.941 101.816 51.2372 102.624 51.7779 103.4L51.6427 103.648C50.579 103.511 49.681 102.788 48.9475 102.066C47.8838 100.967 47.0752 99.7293 46.4781 98.3565C45.9104 97.0248 45.6424 95.5779 45.2486 94.2015C44.2401 90.5425 43.542 86.806 43.0977 83.0389L43.3727 82.9766H43.375Z" fill="#100024"/>
<path d="M73.9034 40.6989C75.8757 36.6567 76.4658 30.0099 76.6115 25.1203C76.6491 24.3199 76.6632 23.5112 76.6538 22.7202C76.6656 20.3588 76.769 20.8489 76.7502 20.4564L75.3703 20.0191L73.6072 18.457C73.5649 18.4829 73.4015 18.4911 73.3087 18.5605L66.9346 22.6849L66.4092 23.0387C66.4092 23.0387 74.8543 42.6947 73.9046 40.6977L73.9034 40.6989Z" fill="#9A4DFF"/>
<path d="M35.0967 30.8937C35.8337 25.5539 39.1765 19.5524 39.7959 18.4734L39.9816 18.2877L40.9654 10.2422L38.3231 13.7683C34.5995 18.739 33.3242 23.6122 32.9105 26.8222C32.592 29.2458 32.7565 30.7973 32.7636 30.862L35.0967 30.8937Z" fill="#100024"/>
<path d="M76.185 54.1203C76.145 53.9851 75.2024 50.781 74.9238 49.1789C74.6393 47.4817 73.5063 44.106 72.5566 42.1102C74.5289 38.068 75.1189 31.4212 75.2647 26.5316C75.3023 25.7312 75.3164 24.9225 75.307 24.1315C75.3187 21.7701 75.2435 20.04 75.2247 19.6486L75.6596 17.6445L71.8184 19.142C71.7761 19.1678 69.7591 19.933 69.6675 20.0024L65.5889 24.0962L65.0635 24.45L68.4991 69.8657L69.1597 68.9771L71.4505 65.3358C71.4505 65.3358 71.5116 65.2241 71.6186 65.0149C71.6503 64.9526 71.6868 64.8809 71.7244 64.8069C71.7973 64.6682 71.8725 64.5177 71.9477 64.3614C71.9747 64.3038 72.003 64.2439 72.0276 64.1921C72.0664 64.1099 72.1052 64.0264 72.1452 63.9383L72.3168 63.5598C72.4049 63.3623 72.4954 63.1531 72.5883 62.9333C72.6447 62.8005 72.7011 62.6641 72.7587 62.5231C72.8151 62.3832 72.8727 62.241 72.9303 62.0941C73.136 61.5722 73.31 61.1021 73.4604 60.6578C73.518 60.4862 73.5756 60.311 73.6309 60.1335C73.8659 59.3825 74.0517 58.689 74.1998 58.0155C74.3396 57.382 74.4442 56.7602 74.5148 56.1619L77.1946 57.5207L76.1873 54.1191L76.185 54.1203Z" fill="#100024"/>
<path d="M68.2204 66.124C67.9865 66.3543 67.7349 66.5671 67.4681 66.761C66.9039 67.1724 66.2833 67.4909 65.6228 67.7072C65.4617 67.7601 65.3242 67.7977 65.2008 67.8236C65.095 67.8459 64.9904 67.8659 64.8858 67.8859C64.7965 67.9023 64.706 67.9188 64.6166 67.934L64.4909 67.9611H64.4791L64.3827 68.0058H64.1559C64.0748 68.0175 63.996 68.0269 63.9184 68.0375H63.9079C63.2802 68.1162 62.6455 68.155 62.019 68.155H61.9262C61.8474 68.155 61.7698 68.1527 61.6923 68.1515L61.5712 68.1491C61.4995 68.1468 61.4301 68.1444 61.3608 68.1409C61.3114 68.1386 61.2621 68.1362 61.2127 68.1339C61.1633 68.1315 61.0211 68.1221 61.0211 68.1221C60.9647 68.1186 60.9083 68.1151 60.853 68.1104C60.7943 68.1057 60.7343 68.101 60.6756 68.0963C60.6368 68.0927 60.511 68.081 60.4945 68.0786L60.263 68.0551L60.2583 68.0528L60.0585 68.0293L59.8622 68.0034H59.8563L59.8211 67.9987L59.7364 67.9846L59.6024 67.9646C59.4896 67.947 59.3756 67.9199 59.2592 67.8835C59.4802 68.0845 59.8046 68.3302 60.1302 68.5347L61.2644 69.2446L59.9374 69.1858C59.921 69.1858 59.8951 69.1894 59.8622 69.1929C59.7059 69.2082 59.4132 69.2364 58.9748 69.2364C58.4388 69.2364 57.8511 69.1929 57.227 69.1083C57.1024 69.0906 56.9872 69.0612 56.8767 69.0319C56.8391 69.0225 56.8015 69.0119 56.7639 69.0025C56.7216 68.9919 56.6792 68.9813 56.6369 68.9696L56.5159 68.9378C56.4289 68.9155 56.3419 68.8932 56.2526 68.8697C56.1962 68.8544 56.1397 68.8379 56.0821 68.8215L55.9423 68.7815C55.8718 68.7615 55.8048 68.7427 55.7366 68.7227C55.6696 68.7028 55.6026 68.6816 55.5344 68.6593L55.3863 68.6134C55.3299 68.5958 55.2735 68.5782 55.2159 68.5594C55.1383 68.5335 55.0596 68.5065 54.982 68.4794L54.8433 68.4324C54.7951 68.416 54.7446 68.3995 54.694 68.3807C54.6023 68.3478 54.5095 68.3137 54.4178 68.2796L54.3014 68.2361C54.2591 68.2208 54.2145 68.2044 54.171 68.1879C54.0722 68.1503 53.9735 68.1104 53.8748 68.0716C53.8748 68.0716 53.6891 67.9975 53.6503 67.9822C53.5421 67.9376 53.4364 67.8917 53.3294 67.8459L53.2448 67.8095C53.2072 67.7942 53.1684 67.7777 53.1296 67.7601C53.012 67.7084 52.8945 67.6543 52.777 67.6002C52.777 67.6002 52.6018 67.5203 52.5936 67.5156L53.4422 68.7827L52.3574 68.3266C52.0776 68.2091 51.7755 68.0833 51.4594 67.9505C49.2367 67.0208 46.1925 65.7478 44.5222 64.8698C44.4023 64.8063 44.286 64.7452 44.172 64.6841C42.383 63.7297 41.3875 63.0832 41.1113 62.8987C41.0807 62.8799 41.0313 62.8505 41.0313 62.8505L41.0078 62.8364C40.9784 62.8176 40.9444 62.7964 40.915 62.7776L40.9067 62.7718C40.2885 62.5261 39.5057 62.0959 38.5713 61.4882L39.2224 63.7085L35.4142 61.2696C30.3212 58.3135 28.6604 53.5767 28.5922 53.3757L28.5111 53.1359V53.0654C28.2467 51.9958 28.1209 50.8369 28.135 49.6133L27.0078 50.5148L27.4168 46.8453C27.8071 43.345 29.4479 39.9493 30.7561 37.7172C30.8196 37.6091 30.8819 37.5033 30.9442 37.4011C31.0053 37.2988 31.0652 37.2001 31.124 37.1049C31.7387 36.1058 32.183 35.5052 32.2018 35.4805L32.7225 34.7788C31.6506 29.4167 33.3138 23.059 33.4195 22.6664C34.6925 16.5932 43.301 6.58481 43.6666 6.16167L44.4435 5.26367L44.2836 6.44023C43.9933 8.57121 44.159 10.1885 44.2848 10.9678C44.4376 11.706 44.6856 12.6275 44.9994 13.6324C46.3206 17.9179 48.6784 23.6208 49.9666 26.6381L50.2993 27.4173C50.358 27.4173 50.4168 27.4162 50.4767 27.4162C52.0576 27.4162 53.709 27.7088 55.1172 27.9944C56.0986 28.1919 57.073 28.4576 58.0168 28.7831L64.5943 24.4471L65.1197 24.0933L71.4726 19.909C71.5655 19.8396 71.6348 19.7938 71.6772 19.7679L74.9306 17.9237L74.7567 19.6457C74.7755 20.0371 74.8507 21.7673 74.8389 24.1286C74.8484 24.9196 74.8342 25.7295 74.7966 26.5287C74.6509 31.4184 74.0608 38.0652 72.0885 42.1073C73.0383 44.1031 74.1725 47.4788 74.4558 49.1761C74.7343 50.7781 75.677 53.981 75.717 54.1174L76.7243 57.519L74.0444 56.1602C73.9739 56.7585 73.8681 57.3803 73.7294 58.0138C73.5813 58.6873 73.3944 59.3808 73.1605 60.1318C73.1053 60.3093 73.0477 60.4845 72.9901 60.6561C72.8396 61.1004 72.6657 61.5705 72.46 62.0924C72.4024 62.2393 72.3448 62.3827 72.2884 62.5214C72.2308 62.6624 72.1744 62.7988 72.1179 62.9316C72.0251 63.1514 71.9346 63.3606 71.8464 63.5581L71.6748 63.9366C71.6348 64.0247 71.5961 64.1082 71.5573 64.1904C71.5338 64.2422 71.5056 64.3021 71.4773 64.3597C71.4021 64.5172 71.3269 64.6676 71.254 64.8052C71.2164 64.8792 71.18 64.9509 71.1482 65.0132C71.0413 65.2224 70.9802 65.3341 70.9802 65.3341L68.4966 69.864L68.2204 66.1216V66.124Z" fill="#100024"/>
<path d="M33.9322 30.7357C34.7715 24.6519 38.736 17.9628 38.8559 17.7535L38.8642 17.7453L39.2638 14.4766C35.7071 19.2239 34.4753 23.8773 34.0756 26.978C33.7724 29.2888 33.9322 30.7357 33.9322 30.7357Z" fill="#F276FF"/>
<path d="M60.3364 29.0884C61.7351 29.863 64.261 31.438 66.9068 33.8922L67.2348 33.1329L67.9858 31.398L72.4711 21.0781C72.4711 21.0781 72.4311 21.1028 72.3594 21.1581L65.9642 25.3706V25.3789L60.3364 29.0884Z" fill="#70818C"/>
<path d="M72.8294 31.0703V31.0456C73.1491 28.7995 73.3571 26.3617 73.3089 23.8828L72.6225 25.1628V25.171L72.2863 25.8022C72.3733 27.7287 72.4697 31.3653 72.1582 34.7951C72.4062 33.6432 72.6378 32.3891 72.8294 31.0703Z" fill="#F276FF"/>
<path d="M30.136 46.0595C30.136 46.0595 29.1451 49.4729 30.0326 52.8462C30.0326 52.8615 30.0408 52.8709 30.0408 52.8862C30.0408 52.8862 31.5359 57.2751 36.228 59.9761L36.764 60.344L36.6276 58.2095C36.6276 58.2095 39.793 60.7119 41.5278 61.3748C41.5278 61.3748 42.6468 61.8391 43.8939 62.0777C44.062 61.7662 44.2618 61.4465 44.5098 61.1503C45.1175 60.4145 46.0037 59.848 47.2437 60.0396C47.2437 60.0396 47.4189 58.9124 48.7224 59.1122C50.0247 59.312 55.2528 60.4075 55.2528 60.4075C55.2528 60.4075 56.092 60.679 55.6924 61.9261C55.6924 61.9261 56.8831 63.6362 59.3608 62.4374C59.3855 62.1177 59.4489 61.6216 59.6805 61.3901C59.8556 61.215 60.0966 61.182 60.3516 61.2067L65.0685 62.4938C65.2436 62.549 65.4199 62.6137 65.5645 62.7018C65.7161 62.7817 65.836 62.8852 65.9159 63.0133C66.1557 63.4047 66.0041 63.8607 65.7408 64.2051C66.3308 64.841 67.3581 64.7599 67.8377 64.0359C68.0633 63.695 68.2878 63.3212 68.5065 62.9099L68.9378 61.7744C68.9378 61.7744 69.569 63.6774 69.6407 64.6048C69.6407 64.6048 69.7371 64.4296 69.8969 64.1088C69.9769 63.9571 70.0721 63.7655 70.1767 63.541C70.2484 63.3894 70.3201 63.2296 70.4012 63.0533C70.601 62.6137 70.8161 62.1024 71.0406 61.5347C71.2651 60.967 71.4966 60.344 71.7047 59.6799C71.9045 59.0405 72.089 58.3776 72.2407 57.6888C72.5286 56.3782 72.6885 55.0113 72.6003 53.716L74.2553 54.5552C74.2553 54.5552 73.2562 51.1819 72.9518 49.4317C72.6967 47.9061 71.5378 44.4128 70.5939 42.5252C70.5857 42.5169 70.5857 42.5099 70.5857 42.5099C70.4588 42.2372 70.3224 41.9974 70.2025 41.8058C70.2025 41.8058 70.1943 41.7905 70.1778 41.7576C70.0909 41.5895 69.7864 40.9983 69.2422 40.1509C66.7645 40.5105 65.0626 42.6921 65.0626 42.6921C65.5656 42.3959 66.0452 42.2525 66.4848 42.2207H66.493C69.4021 42.0127 70.9054 46.6331 70.9054 46.6331C70.353 46.8329 69.2105 48.408 69.2105 48.408C68.4677 49.3671 67.7554 50.0065 67.0842 50.4143C66.9561 50.4943 66.8209 50.566 66.6928 50.6294L66.4366 50.7493C66.3649 50.7811 66.3003 50.8057 66.2368 50.8293L65.5891 51.0056C65.5421 51.0138 65.4857 51.0291 65.4375 51.0291C64.0071 51.3018 62.6636 50.6706 62.0324 50.318C62.0242 50.3344 62.016 50.3579 62.0007 50.3744C61.9596 50.4708 61.9125 50.5577 61.8561 50.6377C61.7362 50.8375 61.5928 51.0138 61.433 51.1654C61.3695 51.2289 61.3049 51.2853 61.2414 51.3335C61.145 51.4134 61.0416 51.4851 60.9381 51.5486C60.8664 51.5968 60.7865 51.645 60.7136 51.6849C59.8262 52.1492 58.9153 52.1492 58.9153 52.1492C58.9153 52.1492 58.3793 53.3798 58.116 54.1074C57.8528 54.8432 57.7799 56.3771 59.0517 56.2419C60.3152 56.1138 60.4821 54.1074 60.4821 54.1074C61.1462 55.6425 60.1142 56.5134 60.1142 56.5134C57.7164 58.072 57.0841 55.6107 57.0841 55.6107C56.3483 56.1467 54.6534 56.1467 54.6534 56.1467C50.9521 55.8834 51.5915 52.7816 51.5915 52.7816C52.1345 55.579 54.8532 55.5472 55.8523 55.1794C56.8513 54.8115 57.6823 52.885 57.6189 51.9177C57.5871 51.4463 57.0276 50.8069 56.6833 50.1828C56.4682 49.8078 56.3236 49.4305 56.4117 49.1038C56.42 49.0721 56.427 49.0403 56.4435 49.0156L56.4517 49.0074C56.4999 48.8793 56.588 48.7594 56.7232 48.6477C56.8266 48.5596 56.9548 48.4797 57.1146 48.408C57.1228 48.408 57.1299 48.3997 57.1393 48.3997C58.9929 47.577 61.1756 48.9193 61.1756 48.9193L63.725 42.3242C64.1093 41.5731 64.516 40.9572 64.9086 40.4541C64.9141 40.4486 64.9192 40.4432 64.9239 40.4377C65.4516 39.7747 65.9711 39.2952 66.4754 38.959C66.9949 38.6064 67.4909 38.3995 67.9458 38.2949C66.0111 35.7608 62.8058 32.4439 58.2101 30.4927C58.0585 30.4293 57.8986 30.3646 57.747 30.3082C56.7879 29.965 55.8052 29.6935 54.8132 29.4937C53.2382 29.1739 51.4234 28.8625 49.8249 28.9659C48.8893 29.0294 47.9619 29.4055 47.0909 29.7087C46.4116 29.9403 45.724 30.1813 45.061 30.461C45.0528 30.461 45.0458 30.461 45.0458 30.4692C44.7331 30.5973 44.4381 30.7407 44.1337 30.8853C44.1501 30.8606 44.1901 30.8124 44.2465 30.7337C44.4216 30.5021 44.7978 30.0226 45.3408 29.4784C46.1248 28.6956 47.2437 27.7682 48.5625 27.2404C47.3319 24.3549 44.8941 18.4721 43.5424 14.0902C43.1346 12.7879 42.8313 11.6125 42.6797 10.6934C42.6797 10.6934 42.6715 10.718 42.6633 10.7662C41.8722 14.0268 40.4653 20.8781 41.6642 24.2032H39.4662L42.3847 31.3978L42.4646 31.5976C42.4646 31.5976 36.6688 37.2571 35.6697 40.7903C35.6697 40.7903 34.1993 38.128 33.4318 36.3943C33.4318 36.3943 29.5389 41.646 28.9395 47.0175L30.1383 46.0584L30.136 46.0595ZM63.4382 54.0768C63.5498 53.9334 63.9248 54.1086 64.2856 54.46C64.3421 54.5235 64.3985 54.5799 64.4455 54.6446C64.4455 54.6446 65.8042 56.283 67.0431 58.1625C66.8997 58.0026 65.7161 56.6756 64.0294 55.1171C63.9812 55.0689 63.933 55.0289 63.8778 54.9807C63.5252 54.621 63.3253 54.2132 63.4382 54.078V54.0768ZM62.8305 52.014C62.9022 51.846 63.3171 51.8941 63.7497 52.1175C63.8214 52.1574 63.886 52.1892 63.9495 52.2374C63.9495 52.2374 65.6843 53.3481 67.3546 54.7398C67.1794 54.6269 65.6926 53.7489 63.6627 52.8133C63.6063 52.7886 63.5428 52.7569 63.4782 52.7251C63.0468 52.5018 62.7588 52.1821 62.8305 52.014ZM51.0473 50.2956C48.1782 49.7126 45.9872 49.4881 45.9872 49.4881C48.6013 49.4082 51.119 49.5998 51.119 49.5998C51.2071 49.608 51.3035 49.6162 51.3987 49.6315C51.9899 49.7279 52.4389 49.9595 52.406 50.1593C52.3743 50.3591 51.87 50.439 51.2871 50.3438C51.1989 50.3274 51.119 50.3121 51.0473 50.2956ZM44.1407 52.6781C46.6196 51.8789 49.0738 51.3676 49.0738 51.3676C49.1608 51.3429 49.2572 51.3264 49.3535 51.3194C49.9448 51.2395 50.449 51.3441 50.4725 51.5439C50.496 51.7355 50.0317 51.9588 49.4417 52.0305C49.3535 52.0387 49.2736 52.0469 49.2007 52.0552C46.4668 52.2797 44.3887 52.6393 44.1407 52.6793V52.6781ZM42.5904 39.7289C43.8927 38.2985 46.1871 37.7143 47.634 37.4827C48.4097 37.3546 48.9363 37.3311 48.9363 37.3311C47.6821 36.1957 45.7228 36.4602 45.7228 36.4602C46.3869 35.5328 47.7774 35.333 47.7774 35.333C52.701 35.333 53.8517 40.929 56.4505 41.9915C59.0481 43.0552 59.2726 41.2209 59.2726 41.2209C59.2562 42.5233 59.5676 41.7835 59.2726 42.4629H59.2644C58.1125 45.1169 55.3868 43.8533 55.3868 43.8533L55.0506 46.9869C55.026 46.9951 55.0107 47.0022 54.9872 47.0187C54.4676 47.2431 53.9728 47.443 53.5003 47.6016C53.3804 47.6416 53.2688 47.6816 53.1559 47.7145C52.9009 47.8015 52.6529 47.8743 52.4131 47.939C52.3567 47.9543 52.3096 47.9707 52.2615 47.986C52.2062 48.0013 52.158 48.0177 52.1098 48.026C51.9335 48.0741 51.7654 48.1141 51.5974 48.1541C51.4457 48.1858 51.2941 48.2175 51.1495 48.2422C51.1331 48.2422 51.1178 48.2505 51.1013 48.2505C50.8851 48.2904 50.677 48.3222 50.4772 48.3468C50.3573 48.3551 50.2457 48.3715 50.1246 48.3786C49.229 48.4503 48.4544 48.3703 47.7985 48.194C47.5517 48.1223 47.319 48.0424 47.1121 47.946C46.9993 47.8978 46.8876 47.8426 46.7924 47.7944C46.5926 47.691 46.4092 47.5711 46.2329 47.4347C45.6252 46.9799 45.1786 46.4122 44.8424 45.8045C44.3382 44.9018 44.0831 43.9344 43.9303 43.1904C43.3943 40.6563 42.588 39.7289 42.588 39.7289H42.5904Z" fill="#9A4DFF"/>
<path d="M44.5884 39.9917L44.5966 39.9999C44.6366 40.1128 45.028 41.1518 45.4206 42.4624C45.5487 42.031 45.7085 41.6232 45.8919 41.2388C46.2515 40.456 46.7158 39.7766 47.2271 39.2324C46.4596 39.3923 45.5722 39.6321 44.5896 39.9917H44.5884Z" fill="white"/>
<path d="M52.4292 46.3232C52.8288 46.235 53.2449 46.1316 53.6927 45.987C53.6927 45.987 53.6927 45.9717 53.701 45.947C53.7492 45.7155 53.9878 44.3803 53.3813 42.9251L53.2379 42.75C53.2296 43.4211 53.1415 44.1252 52.9581 44.8363C52.8782 45.149 52.783 45.4522 52.6713 45.7402C52.5985 45.94 52.5185 46.1316 52.4304 46.3232H52.4292Z" fill="white"/>
<path d="M67.666 47.2655C67.6178 47.7134 67.5378 48.1776 67.4027 48.6408C67.539 48.5279 67.6589 48.4163 67.7788 48.3046C67.9868 48.0965 69.7135 46.4498 69.6488 46.2818C69.6488 46.2818 68.4981 43.4996 66.835 43.2363C67.5214 44.2354 67.8423 45.6823 67.666 47.2655Z" fill="white"/>
<path d="M51.0423 43.6562C50.8695 43.3436 50.6121 43.0474 50.2759 42.8088C49.6812 42.3868 48.9959 42.2493 48.4459 42.3844H48.4423C48.4423 42.3844 47.723 40.961 48.4741 39.8762C49.0535 39.5012 49.7094 39.3414 50.3465 39.5059C51.7593 39.8691 52.5315 41.6157 52.1119 43.4376C51.905 43.6397 51.5759 43.7914 51.0411 43.6562H51.0423Z" fill="white"/>
<path d="M62.9819 47.4502C63.0854 48.5457 63.5814 49.3767 64.2843 49.4884C64.9084 49.5765 65.5396 49.0805 65.9639 48.2648L65.884 48.1848C65.3409 48.6162 64.4053 48.481 63.7177 47.8322C63.5344 47.6571 63.3816 47.4573 63.2781 47.2492C63.2699 47.241 63.2699 47.2328 63.2699 47.2328C63.1982 47.1058 63.15 46.9777 63.11 46.8496C63.063 47.0494 63.0137 47.2328 62.9819 47.4491V47.4502Z" fill="#8BC53F"/>
<path d="M66.1743 46.6951C66.0615 46.406 65.8746 46.118 65.6125 45.8724C65.1482 45.4363 64.5699 45.233 64.0739 45.2812H64.0715C64.0715 45.2812 63.9799 45.0132 63.9517 44.6453C64.3313 43.9929 64.671 43.6603 64.7145 43.6203C64.8661 43.5757 65.0177 43.5522 65.1717 43.5757C66.1144 43.7167 66.6809 45.146 66.4446 46.7704C66.36 46.7539 66.273 46.7351 66.1743 46.6951Z" fill="white"/>
<path d="M59.0457 49.3454C58.9623 49.6075 59.4054 49.986 60.0354 50.1881C60.6654 50.3891 61.2449 50.3398 61.3295 50.0776C61.413 49.8155 60.9698 49.4382 60.3398 49.2349C59.7098 49.0339 59.1292 49.0833 59.0457 49.3454Z" fill="white"/>
<path d="M48.6176 46.2427C49.4651 46.4578 50.336 46.1298 51.0154 45.4516L50.9519 45.4117C50.7039 45.6667 50.3525 45.8113 49.9528 45.8266H49.9446C49.4733 45.8583 48.9373 45.6985 48.4648 45.3635C47.5692 44.7323 47.2177 43.7003 47.6173 42.9974C47.5539 42.9257 47.4892 42.8376 47.4328 42.7494C47.2412 42.4368 47.1061 42.07 47.0179 41.7656C46.9615 41.9102 46.9145 42.0536 46.8745 42.2052C46.3949 44.0682 47.1778 45.8748 48.6164 46.2427H48.6176Z" fill="#8BC53F"/>
<path d="M60.3364 29.0884C61.7351 29.863 64.261 31.438 66.9068 33.8922L67.2348 33.1329C65.9642 30.9185 63.6134 28.6006 63.6134 28.6006L65.9642 25.3789L60.3364 29.0884Z" fill="#4D5E62"/>
<path d="M39.4639 24.2046L42.3823 31.3991H42.3906L41.4068 25.38L44.5086 26.667C40.631 21.2873 42.4693 11.695 42.6621 10.7676C41.8711 14.0281 40.4641 20.8794 41.663 24.2046H39.465H39.4639Z" fill="#461691"/>
<path d="M53.5012 47.6017L56.6101 50.3121C56.6348 50.2722 56.65 50.224 56.6818 50.184C56.3621 49.6163 56.2022 49.065 56.7217 48.6489C56.8252 48.5608 56.9533 48.4809 57.1131 48.4092C57.1214 48.4092 57.1284 48.4009 57.1378 48.4009C57.0497 48.1694 56.9063 47.9461 56.7934 47.7145C56.5701 47.2502 56.3303 46.7625 56.2986 46.2347C56.2904 46.0831 56.3856 44.8924 56.3785 44.8924C58.6482 45.2521 59.2723 42.4629 59.2723 42.4629H59.2641C58.1122 45.1169 55.3865 43.8534 55.3865 43.8534L55.0503 46.9869C55.0256 46.9952 55.0104 47.0022 54.9869 47.0187C54.4673 47.2432 53.9725 47.443 53.5 47.6017H53.5012Z" fill="#100024"/>
<path d="M45.7238 36.4591C45.7238 36.4591 46.5795 36.7071 47.6338 37.4829C48.4096 37.3548 48.9362 37.3313 48.9362 37.3313C47.682 36.1958 45.7227 36.4603 45.7227 36.4603L45.7238 36.4591Z" fill="#4D5E62"/>
<path d="M65.0601 42.6928C65.5631 42.3966 66.0427 42.2532 66.4823 42.2214H66.4905C67.2651 41.9017 68.7766 41.4222 70.1753 41.7571C70.0884 41.5891 69.7839 40.9978 69.2397 40.1504C66.762 40.5101 65.0601 42.6916 65.0601 42.6916V42.6928Z" fill="#461691"/>
<path d="M58.9927 52.1461C61.2341 52.1661 62.2426 51.1282 62.6058 50.6063C62.3743 50.5029 62.1815 50.4065 62.031 50.3184C62.0228 50.3348 62.0146 50.3583 61.9993 50.3748C61.9676 50.4712 61.9112 50.5581 61.8547 50.6381C61.7349 50.8379 61.5915 51.0142 61.4316 51.1658C61.3752 51.2293 61.3117 51.2857 61.24 51.3339C61.1436 51.4138 61.0402 51.4855 60.9368 51.549C60.8651 51.6054 60.7922 51.6454 60.7123 51.6853C59.9741 52.0709 59.2266 52.1355 58.9939 52.1461H58.9927Z" fill="#979B9D"/>
<path d="M58.9131 52.15C58.9131 52.15 58.9472 52.15 58.993 52.1465C58.9636 52.1465 58.9413 52.15 58.9131 52.15Z" fill="#979B9D"/>
<path d="M53.5012 55.94C53.5012 55.94 55.4194 56.8756 56.7699 56.3796C56.7699 56.3796 58.265 58.2027 60.1115 56.516C57.7138 58.0745 57.0814 55.6133 57.0814 55.6133C56.3456 56.1493 54.6507 56.1493 54.6507 56.1493C54.2111 56.1175 53.8362 56.0458 53.5153 55.9412H53.5L53.5012 55.94Z" fill="#979B9D"/>
<path d="M52.6702 45.7395C52.5973 45.9393 52.5174 46.1309 52.4292 46.3224C52.8288 46.2343 53.2449 46.1309 53.6927 45.9863C53.6927 45.9863 53.6927 45.971 53.701 45.9463C53.2931 45.971 52.9417 45.8664 52.6702 45.7383V45.7395Z" fill="#A6A8AB"/>
<path d="M44.5967 40C44.6366 40.1128 45.028 41.1519 45.4206 42.4624C45.5487 42.0311 45.7086 41.6232 45.892 41.2389C45.3642 40.3279 44.6931 40.0317 44.5967 40Z" fill="#A6A8AB"/>
<path d="M67.4028 48.6422C67.5392 48.5294 67.6591 48.4177 67.779 48.306C67.987 48.098 69.7136 46.4513 69.649 46.2832C68.8897 46.8345 68.1856 47.1224 67.6673 47.2658C67.6191 47.7136 67.5392 48.1779 67.404 48.641L67.4028 48.6422Z" fill="#A6A8AB"/>
<path d="M33.9322 30.7341C34.7715 24.6503 38.736 17.9612 38.8559 17.752C38.6479 17.9518 35.7306 20.7739 34.0756 26.9764C33.7724 29.2872 33.9322 30.7341 33.9322 30.7341Z" fill="#E91EF4"/>
<path d="M72.8295 31.0711V31.0465C72.8777 27.9693 72.638 25.3717 72.6215 25.1719L72.2853 25.8031C72.3723 27.7295 72.4687 31.3662 72.1572 34.7959C72.4052 33.6441 72.6368 32.3899 72.8284 31.0711H72.8295Z" fill="#E91EF4"/>
<path d="M47.6738 44.9879C48.5283 46.0669 49.8236 45.8518 49.9435 45.8272C49.4721 45.8589 48.9362 45.699 48.4637 45.3641C47.568 44.7329 47.2166 43.7009 47.6162 42.998C47.5527 42.9263 47.4881 42.8382 47.4317 42.75C47.4317 42.75 46.7676 43.8525 47.6726 44.9879H47.6738Z" fill="#517230"/>
<path d="M63.2769 47.25C63.3403 47.498 64.1408 50.0474 65.8827 48.1856C65.3397 48.617 64.4041 48.4818 63.7165 47.833C63.5331 47.6579 63.3803 47.458 63.2769 47.25Z" fill="#517230"/>
<path d="M46.6863 26.0666C46.6851 26.1148 46.6792 26.1642 46.6675 26.2147C46.6111 26.4533 46.4383 26.7225 46.3407 26.9505C45.9858 27.7862 45.6425 28.6243 45.3381 29.4799C46.1221 28.6971 47.2411 27.7698 48.5598 27.242C47.3292 24.3564 44.8915 18.4736 43.5398 14.0918C43.6021 14.2951 43.4798 14.7183 43.4716 14.9334C43.4446 15.5505 43.4481 16.1687 43.4763 16.7858C43.5609 18.6194 43.977 20.3625 44.7398 22.0327C45.0525 22.7191 45.4604 23.355 45.833 24.0097C46.1574 24.5798 46.7039 25.3849 46.6863 26.0666Z" fill="#DCC5FF"/>
<path d="M45.0596 30.4637C47.9216 29.6327 57.8572 27.8015 66.4751 38.9606C66.9946 38.608 67.4906 38.4011 67.9455 38.2965C66.0108 35.7624 62.8055 32.4454 58.2098 30.4943C58.0582 30.4308 57.8983 30.3662 57.7467 30.3098C56.7876 29.9666 55.8049 29.695 54.8129 29.4952C53.2379 29.1755 51.4231 28.864 49.8246 28.9675C48.889 29.0309 47.9616 29.4071 47.0906 29.7103C46.4113 29.9419 45.7237 30.1828 45.0607 30.4626L45.0596 30.4637Z" fill="#DCC5FF"/>
<path d="M72.4943 52.1494L71.5351 51.7816C71.5351 51.7816 71.9183 54.1076 72.238 57.689C72.526 56.3785 72.6858 55.0115 72.5977 53.7162L74.2526 54.5555C74.2526 54.5555 73.2536 51.1821 72.9491 49.432C72.6941 47.9063 71.5351 44.4131 70.5913 42.5254C70.8064 43.1813 72.5812 48.6491 72.4943 52.1494Z" fill="#DCC5FF"/>
<path d="M67.9856 31.398L72.4708 21.0781C72.4708 21.0781 72.4309 21.1028 72.3592 21.1581C71.8397 21.5165 69.7298 23.0998 68.8413 25.1708C67.8269 27.5369 67.9856 31.398 67.9856 31.398Z" fill="#A6BAC3"/>
<path d="M40.2242 46.3863C39.928 44.8842 39.2651 43.9885 39.2651 43.9885C42.5902 43.7887 44.8446 45.8033 44.8446 45.8033C45.1808 46.411 45.6274 46.9787 46.2351 47.4336C46.4114 47.5617 46.5948 47.6816 46.7946 47.7933C46.891 47.8415 47.0026 47.8967 47.1143 47.9449C47.3223 48.0413 47.5539 48.12 47.8007 48.1929C48.4566 48.3692 49.2312 48.4491 50.1268 48.3774C50.2467 48.3692 50.3584 48.3528 50.4794 48.3457C50.6792 48.321 50.8873 48.2893 51.1036 48.2493C51.1188 48.2493 51.1353 48.2411 51.1518 48.2411C51.2951 48.2164 51.4479 48.1847 51.5996 48.1529C51.7677 48.113 51.9357 48.073 52.112 48.0248C52.1591 48.0166 52.2084 48.0001 52.2637 47.9849C52.3119 47.9766 52.36 47.9602 52.4153 47.9449V47.9367C52.6551 47.8732 52.9031 47.8003 53.1581 47.7122C53.7341 47.537 54.3417 47.2961 54.9882 47.0163C56.2118 47.4642 56.7231 48.6466 56.7231 48.6466C55.6276 49.534 57.5541 51.0279 57.6187 51.9153C57.6822 52.8827 56.8512 54.8091 55.8521 55.177C54.853 55.5449 52.1344 55.5767 51.5913 52.7793C51.5913 52.7793 51.0953 55.1935 53.5178 55.9363C53.8375 56.0398 54.2136 56.1115 54.6532 56.1444C54.6532 56.1444 56.3481 56.1444 57.0839 55.6084C57.0839 55.6084 57.7151 58.0708 60.1141 56.5111C60.1141 56.5111 61.1449 55.6401 60.482 54.1051C60.482 54.1051 60.3139 56.1115 59.0515 56.2396C57.7809 56.3759 57.8526 54.8409 58.1159 54.1051C58.3792 53.3775 58.9152 52.1469 58.9152 52.1469H58.9951C59.2267 52.1316 59.9789 52.067 60.7135 51.6826C60.7934 51.6427 60.8663 51.6027 60.938 51.5463C61.0414 51.4828 61.1461 51.4099 61.2413 51.3312C61.313 51.283 61.3776 51.2266 61.4328 51.1631C61.5915 51.0115 61.7361 50.8352 61.856 50.6354C61.9124 50.5554 61.9688 50.4673 62.0006 50.3721C62.0158 50.3556 62.0241 50.3321 62.0323 50.3156C62.1839 50.4038 62.3755 50.5002 62.6071 50.6036C63.3099 50.9151 64.349 51.2348 65.4374 51.0268C65.4856 51.0268 65.5408 51.0115 65.589 51.0033L66.2367 50.8269C66.3001 50.8034 66.373 50.7787 66.4365 50.747L66.6927 50.6271C66.8196 50.5637 66.9478 50.4908 67.0841 50.412C69.5465 50.9151 70.0096 52.8815 70.0096 52.8815C67.9069 52.1857 67.1076 53.1777 67.1076 53.1777C67.1076 53.1777 71.3519 53.2811 71.7034 59.6764C71.4953 60.3405 71.2638 60.9635 71.0393 61.5312C70.8148 62.0989 70.5997 62.6102 70.3999 63.0498C70.3199 63.2261 70.2482 63.3859 70.1754 63.5376C70.0719 63.7621 69.9755 63.9536 69.8956 64.1053C69.7358 64.425 69.6394 64.6013 69.6394 64.6013C69.5677 63.6739 68.9365 61.771 68.9365 61.771L68.5051 62.9064C68.3347 63.3295 68.1455 63.6986 67.9527 64.0171C67.3133 65.0726 66.3189 65.8707 65.1459 66.2551C65.046 66.288 64.9567 66.3138 64.885 66.3291C63.136 66.6982 61.3141 66.7276 59.5558 66.4055C60.1834 66.2257 60.797 65.9965 61.3894 65.7226C49.4804 65.3582 43.8926 62.0754 43.8926 62.0754C42.6455 61.8356 41.5265 61.3725 41.5265 61.3725C39.7916 60.7096 36.6263 58.2072 36.6263 58.2072L36.7627 60.3417L36.2267 59.9738C31.5346 57.2716 30.0395 52.8839 30.0395 52.8839C30.0395 52.8686 30.0312 52.8592 30.0312 52.8439C33.2448 43.5948 40.223 46.3852 40.223 46.3852L40.2242 46.3863Z" fill="#F8F3FF"/>
<path d="M42.2202 43.0452C42.6492 42.6749 42.1132 41.5912 41.9792 41.1951C41.8053 40.6803 41.5772 40.1678 41.1482 39.814C40.6111 39.3709 40.1503 39.6366 39.7883 40.1149C39.0925 41.0341 39.652 42.0696 40.4818 42.642C40.8591 42.903 41.482 43.2356 41.9545 43.1592C42.0686 43.1416 42.1555 43.1016 42.2202 43.0464V43.0452Z" fill="#A6BAC3"/>
<path d="M69.3737 50.5328C69.1081 50.3024 69.4395 49.6301 69.5242 49.3832C69.6323 49.0635 69.7745 48.745 70.0413 48.5252C70.3751 48.2502 70.6608 48.4147 70.8864 48.7121C71.319 49.2833 70.971 49.9263 70.4551 50.2824C70.22 50.4434 69.8333 50.6515 69.5406 50.6033C69.4701 50.5927 69.4148 50.5669 69.3749 50.5328H69.3737Z" fill="#A6BAC3"/>
<path d="M56.4105 49.1057C56.4187 49.074 56.4258 49.0423 56.4423 49.0176C56.3294 49.1375 56.3388 49.1539 56.4105 49.1057Z" fill="#A6BAC3"/>
<path d="M54.7365 48.1748C54.7365 48.1748 54.0924 48.0314 53.788 48.6414C53.4836 49.2515 54.4497 50.0883 55.2161 50.3199C55.9825 50.5515 55.557 48.7966 54.7365 48.1748Z" fill="white"/>
<path d="M44.2546 50.6145C44.3439 49.5508 42.5867 49.324 41.8497 49.177C40.3335 48.8785 38.6303 47.7913 37.0318 48.2814C35.3522 48.7939 36.6122 50.772 37.3609 51.5784C38.5175 52.8266 39.5389 53.0253 41.148 52.6691C42.1824 52.4399 43.9513 52.0215 44.2322 50.765C44.244 50.7121 44.2522 50.6627 44.2557 50.6145H44.2546Z" fill="white"/>
<path d="M66.4437 55.0752C66.7763 54.6251 67.5485 55.1434 67.8906 55.3409C68.5911 55.7464 69.6395 55.9074 70.1003 56.6526C70.5857 57.4366 69.4045 57.7798 68.8297 57.8397C67.9423 57.9314 67.4709 57.6576 66.9585 56.9606C66.6305 56.5116 66.0758 55.7346 66.399 55.1422C66.4119 55.1176 66.426 55.094 66.4425 55.0741L66.4437 55.0752Z" fill="white"/>
<path d="M58.3521 58.4552C58.3521 58.4552 56.3269 59.2815 53.3062 57.2305C53.3062 57.2305 54.4698 58.6268 55.8285 59.0511L56.1612 59.164H57.1015L57.6139 58.9642L57.9266 58.789L58.3533 58.4552H58.3521Z" fill="white"/>
<path d="M58.3521 58.4552C58.3521 58.4552 56.6537 60.1807 53.3062 57.2305C53.3062 57.2305 56.0542 61.1316 58.3521 58.4552Z" fill="#461691"/>
<path d="M52.9738 36.2012C53.9365 36.428 54.9085 36.7842 55.7242 37.3495C56.5776 37.9419 57.5802 38.6448 58.0562 39.598C58.1385 39.7614 58.2161 39.973 58.2313 40.1787C58.2431 40.3397 58.2184 40.4984 58.1267 40.6312C58.0256 40.7769 57.6754 40.8898 57.5061 40.8898C57.3145 40.891 57.1512 40.7958 57.0113 40.6735C56.7468 40.4396 56.52 40.1399 56.2884 39.8754C55.5867 39.0726 54.9344 38.2287 54.2186 37.4377C54.0117 37.2085 53.8001 36.984 53.5803 36.7665C53.4463 36.6337 53.156 36.2458 52.9727 36.2023L52.9738 36.2012Z" fill="#A6BAC3"/>
<path d="M63.4368 54.0775C63.5485 53.9341 63.9234 54.1093 64.2843 54.4607C64.3407 54.5242 64.3971 54.5806 64.4441 54.6452C64.4441 54.6452 65.8029 56.2837 67.0417 58.1632C66.8983 58.0033 65.7147 56.6763 64.028 55.1177C63.9799 55.0695 63.9317 55.0296 63.8764 54.9814C63.5238 54.6217 63.324 54.2139 63.4368 54.0787V54.0775Z" fill="#100024"/>
<path d="M62.8303 52.0146C62.902 51.8465 63.3169 51.8947 63.7494 52.118C63.8211 52.158 63.8858 52.1897 63.9492 52.2379C63.9492 52.2379 65.6841 53.3487 67.3543 54.7403C67.1792 54.6275 65.6923 53.7495 63.6625 52.8139C63.606 52.7892 63.5426 52.7574 63.4779 52.7257C63.0466 52.5024 62.7586 52.1827 62.8303 52.0146Z" fill="#100024"/>
<path d="M51.0473 50.2957C48.1782 49.7127 45.9873 49.4883 45.9873 49.4883C48.6014 49.4083 51.119 49.5999 51.119 49.5999C51.2072 49.6081 51.3036 49.6164 51.3988 49.6316C51.99 49.728 52.439 49.9596 52.4061 50.1594C52.3743 50.3592 51.8701 50.4391 51.2871 50.3439C51.199 50.3275 51.119 50.3122 51.0473 50.2957Z" fill="#100024"/>
<path d="M44.1406 52.6787C46.6195 51.8794 49.0737 51.3681 49.0737 51.3681C49.1607 51.3434 49.2571 51.327 49.3535 51.3199C49.9447 51.24 50.4489 51.3446 50.4724 51.5444C50.4959 51.736 50.0317 51.9593 49.4416 52.031C49.3535 52.0393 49.2735 52.0475 49.2007 52.0557C46.4667 52.2802 44.3886 52.6399 44.1406 52.6798V52.6787Z" fill="#100024"/>
<path d="M41.631 61.0156C42.6325 61.588 40.9223 61.0309 41.9237 61.6033C41.9237 61.6033 45.0091 63.719 51.4102 66.4083C50.2443 65.3634 50.3806 64.7592 50.2008 63.7178C47.937 63.558 45.7073 62.9221 43.6985 61.8654" fill="#EDEDEE"/>
<path d="M57.5869 67.625C57.6081 67.6297 57.6292 67.6344 57.6504 67.6391C57.6281 67.6391 57.6069 67.6321 57.5869 67.625Z" fill="#EDEDEE"/>
<path d="M57.5869 67.6252C55.1421 67.0975 52.1531 65.8657 50.2231 64.2754L51.0694 64.3259C54.5909 64.4317 56.8147 64.6409 60.2997 65.1593C60.4819 65.1863 60.7135 65.2721 60.7017 65.4555C60.6888 65.6541 61.3576 65.7317 61.1578 65.7305C60.1552 65.7223 58.2193 66.1607 57.5963 66.947C57.507 67.0599 57.4212 67.188 57.413 67.3314C57.4059 67.4536 57.4764 67.5841 57.5858 67.6264L57.5869 67.6252Z" fill="#EDEDEE"/>
<path d="M28.937 47.0196C29.5365 41.6481 33.4293 36.3965 33.4293 36.3965C34.1969 38.1314 35.6673 40.7924 35.6673 40.7924L35.4028 41.7621C35.4028 41.7621 31.1996 44.4455 31.9342 50.313L32.998 48.6428C32.998 48.6428 33.0697 52.3841 35.1325 56.3804C35.1325 56.3804 34.7328 55.1168 35.069 53.3185C35.069 53.3185 36.6993 57.6674 44.5097 61.1525C44.2852 61.4204 44.0995 61.7084 43.942 61.9917C45.5346 62.7956 47.2577 63.3387 49.0232 63.5937C48.8104 63.0342 48.7599 62.4136 48.8986 61.8318C50.2926 62.7968 52.8831 64.6833 56.5974 64.9008C60.8487 65.1488 62.5589 63.984 64.5959 63.5244C63.8659 63.9393 63.136 64.353 62.4061 64.7679C63.9259 64.9137 65.4962 64.4353 66.6763 63.468C67.8576 62.5006 68.6345 61.0549 68.7908 59.5363C69.8169 60.955 70.1366 62.8591 69.6336 64.5364C69.6218 64.4188 69.6018 64.2872 69.576 64.1485C69.576 64.1473 69.576 64.1462 69.576 64.1438C69.5701 64.1097 69.563 64.0745 69.556 64.038C69.556 64.038 69.556 64.038 69.556 64.0368C69.5489 64.0028 69.5419 63.9675 69.5348 63.9322C69.5348 63.9311 69.5348 63.9299 69.5348 63.9275C69.5266 63.8911 69.5196 63.8535 69.5113 63.817C69.5031 63.7818 69.4949 63.7454 69.4866 63.7089C69.4866 63.7077 69.4866 63.7054 69.4866 63.7042C69.4784 63.6678 69.4702 63.6313 69.4608 63.5949C69.4608 63.5937 69.4608 63.5914 69.4608 63.5902C69.4514 63.5538 69.4431 63.5162 69.4337 63.4797C69.4337 63.4785 69.4337 63.4774 69.4337 63.4762C69.4243 63.4386 69.4149 63.4021 69.4055 63.3645C69.4055 63.3645 69.4055 63.3645 69.4055 63.3634C69.3961 63.3257 69.3867 63.2893 69.3773 63.2529C69.3773 63.2517 69.3773 63.2505 69.3773 63.2493C69.3679 63.2129 69.3585 63.1765 69.3491 63.1412C69.3491 63.14 69.3491 63.1377 69.3479 63.1365C69.3385 63.1001 69.3291 63.0648 69.3186 63.0295C69.3186 63.0295 69.3186 63.0295 69.3186 63.0284C69.308 62.9919 69.2986 62.9555 69.288 62.9191C69.288 62.9191 69.288 62.9191 69.288 62.9179C69.268 62.845 69.248 62.7733 69.2281 62.704C69.2281 62.704 69.2281 62.704 69.2281 62.7028C69.2081 62.6346 69.1893 62.5688 69.1705 62.5053C69.1705 62.5053 69.1705 62.5053 69.1705 62.5041C69.1281 62.3619 69.0894 62.2338 69.0553 62.1268C69.0553 62.1245 69.0541 62.1221 69.0529 62.1198C69.0423 62.0845 69.0318 62.0516 69.0224 62.0211C69.0224 62.0187 69.0224 62.0175 69.0212 62.0152C69.0153 61.9964 69.0094 61.9787 69.0047 61.9635C68.9824 61.8918 68.9648 61.8401 68.9565 61.813C68.9518 61.8001 68.9495 61.7919 68.9495 61.7919L68.5181 62.9273C68.3477 63.3504 68.1585 63.7195 67.9657 64.038C67.3263 65.0935 66.3319 65.8916 65.1589 66.276C65.059 66.3089 64.9696 66.3347 64.8979 66.35C64.8039 66.37 64.7099 66.3876 64.6158 66.4064C64.5253 66.4229 64.4337 66.4393 64.3431 66.4546C64.2491 66.4699 64.1551 66.4852 64.0599 66.4993C64.0517 66.4993 64.0446 66.5016 64.0364 66.5028C63.9459 66.5157 63.8542 66.5287 63.7637 66.5392C63.7531 66.5404 63.7425 66.5416 63.7319 66.5428C63.6414 66.5533 63.5521 66.5639 63.4616 66.5733C63.451 66.5733 63.4405 66.5757 63.4299 66.5769C63.3382 66.5863 63.2465 66.5945 63.1548 66.6015C63.1501 66.6015 63.1454 66.6015 63.1407 66.6015C62.7576 66.6321 62.3744 66.6474 61.99 66.6462C61.9759 66.6462 61.9618 66.6462 61.9477 66.6462C61.8772 66.6462 61.8055 66.6439 61.735 66.6427C61.6985 66.6427 61.6621 66.6415 61.6268 66.6403C61.5645 66.638 61.5022 66.6356 61.4399 66.6333C61.3953 66.6309 61.3506 66.6298 61.3048 66.6274C61.2472 66.6239 61.1896 66.6203 61.1332 66.6168C61.0826 66.6133 61.0321 66.6098 60.9827 66.6062C60.9298 66.6027 60.8758 66.598 60.8229 66.5933C60.7676 66.5886 60.7136 66.5827 60.6595 66.578C60.6101 66.5733 60.5596 66.5686 60.5102 66.5627C60.4503 66.5557 60.3915 66.5486 60.3316 66.5416C60.2869 66.5357 60.2411 66.531 60.1964 66.5251C60.1282 66.5157 60.06 66.5063 59.9919 66.4958C59.9554 66.4899 59.919 66.4852 59.8826 66.4793C59.778 66.4628 59.6733 66.4452 59.5687 66.4264C60.1964 66.2466 60.8099 66.0174 61.4023 65.7435C61.3306 65.7412 61.2589 65.7388 61.1872 65.7365C61.2166 65.7459 61.2178 65.7494 61.1708 65.7494C60.1682 65.7412 58.2323 66.1796 57.6094 66.9647C57.52 67.0776 57.4342 67.2057 57.426 67.3491C57.419 67.4713 57.4895 67.6018 57.5988 67.6441C55.1845 67.1234 52.239 65.9151 50.3079 64.3518C50.3055 64.3518 50.3032 64.3518 50.3008 64.3507C50.3937 65.0547 50.5053 65.6048 51.4233 66.4276C45.0222 63.7383 41.9368 61.6226 41.9368 61.6226C41.7946 61.5415 41.7087 61.4827 41.6594 61.4416C41.5818 61.411 41.5395 61.3934 41.5395 61.3934C39.8046 60.7305 36.6393 58.2281 36.6393 58.2281L36.7757 60.3626L36.2397 59.9947C31.5475 57.2925 30.0525 52.9048 30.0525 52.9048C30.0525 52.8895 30.0442 52.8801 30.0442 52.8648C29.1568 49.4915 30.1477 46.0781 30.1477 46.0781L28.9488 47.0372L28.937 47.0196Z" fill="#461691"/>
<path d="M57.5869 67.627C57.6081 67.6317 57.6292 67.6364 57.6504 67.6411C57.6281 67.6411 57.6069 67.634 57.5869 67.627Z" fill="#979B9D"/>
<path d="M57.5869 67.625C57.6081 67.6297 57.6292 67.6344 57.6504 67.6391C57.6281 67.6391 57.6069 67.6321 57.5869 67.625Z" fill="#979B9D"/>
<path d="M68.7908 59.5323C68.6345 61.0509 67.8564 62.4966 66.6763 63.4639C65.495 64.4313 63.9259 64.9097 62.4061 64.7639C63.136 64.349 63.8659 63.9353 64.5958 63.5203C62.5589 63.9811 60.8487 65.1459 56.5973 64.8967C52.8843 64.6805 50.2937 62.7928 48.8986 61.8278C48.7599 62.4096 48.8104 63.0314 49.0231 63.5897C47.2577 63.3346 45.5346 62.7916 43.942 61.9876C44.0995 61.7044 44.284 61.4164 44.5097 61.1484C36.6992 57.6634 35.069 53.3145 35.069 53.3145C34.7328 55.1128 35.1324 56.3764 35.1324 56.3764C33.0696 52.38 32.9979 48.6388 32.9979 48.6388L31.9342 50.309C31.8202 49.4016 31.8249 48.5694 31.9142 47.8125H29.7962C29.6246 49.1172 29.5435 50.986 30.0324 52.8431C30.0324 52.8584 30.0407 52.8678 30.0407 52.8831C30.0407 52.8831 31.5358 57.272 36.2279 59.973L36.7639 60.3409L36.6275 58.2064C36.6275 58.2064 39.7928 60.7088 41.5277 61.3717C41.5277 61.3717 41.57 61.3894 41.6476 61.4199C41.6958 61.4623 41.7816 61.5198 41.925 61.601C41.925 61.601 45.0104 63.7166 51.4115 66.4059C50.4936 65.5832 50.3831 65.0331 50.289 64.329C50.2914 64.329 50.2937 64.329 50.2961 64.3302C52.2272 65.8923 55.1728 67.1006 57.587 67.6224C57.4777 67.5801 57.4072 67.4497 57.4142 67.3274C57.4225 67.1829 57.5071 67.0559 57.5976 66.9431C58.2205 66.1579 60.1564 65.7195 61.159 65.7277C61.206 65.7277 61.2048 65.7242 61.1755 65.7148C61.2472 65.7171 61.3177 65.7195 61.3906 65.7219C60.7982 65.9957 60.1846 66.2249 59.557 66.4048C59.6616 66.4236 59.7662 66.4412 59.8708 66.4576C59.9072 66.4635 59.9437 66.4682 59.9801 66.4741C60.0483 66.4847 60.1164 66.4941 60.1846 66.5035C60.2293 66.5094 60.2751 66.5152 60.3198 66.5199C60.3797 66.527 60.4385 66.5352 60.4984 66.5411C60.5478 66.547 60.5983 66.5517 60.6477 66.5564C60.7018 66.5623 60.757 66.567 60.8111 66.5717C60.864 66.5764 60.918 66.5811 60.9709 66.5846C61.0215 66.5881 61.072 66.5916 61.1214 66.5952C61.179 66.5987 61.2354 66.6022 61.293 66.6057C61.3377 66.6081 61.3823 66.6104 61.4282 66.6116C61.4905 66.614 61.5528 66.6163 61.6151 66.6187C61.6515 66.6187 61.6879 66.6198 61.7232 66.621C61.7937 66.6222 61.8654 66.6245 61.9359 66.6245C61.95 66.6245 61.9641 66.6245 61.9782 66.6245C62.3626 66.6245 62.7458 66.6104 63.129 66.5799C63.1337 66.5799 63.1384 66.5799 63.1431 66.5799C63.2347 66.5728 63.3264 66.5634 63.4181 66.5552C63.4287 66.5552 63.4393 66.5528 63.4498 66.5517C63.5403 66.5423 63.6297 66.5317 63.7202 66.5211C63.7307 66.5199 63.7413 66.5188 63.7519 66.5176C63.8436 66.5058 63.9341 66.4941 64.0246 66.4811C64.0316 66.4811 64.0399 66.4788 64.0481 66.4776C64.1421 66.4635 64.2373 66.4494 64.3314 66.433C64.423 66.4177 64.5136 66.4012 64.6041 66.3848C64.6981 66.3671 64.7921 66.3483 64.8861 66.3283C64.9578 66.3131 65.0472 66.2872 65.1471 66.2543C66.3189 65.8699 67.3145 65.0719 67.9539 64.0164C68.1467 63.6978 68.3359 63.3299 68.5063 62.9056L68.9377 61.7702C68.9377 61.7702 68.9401 61.7773 68.9448 61.7914C68.953 61.8184 68.9706 61.8701 68.9929 61.9418C68.9976 61.9583 69.0035 61.9759 69.0094 61.9935C69.0094 61.9959 69.0094 61.9971 69.0106 61.9994C69.02 62.03 69.0306 62.0629 69.0411 62.0981C69.0411 62.1005 69.0423 62.1028 69.0435 62.1052C69.0764 62.2121 69.1164 62.3403 69.1587 62.4825C69.1587 62.4825 69.1587 62.4825 69.1587 62.4837C69.1775 62.5471 69.1963 62.613 69.2163 62.6811C69.2163 62.6811 69.2163 62.6811 69.2163 62.6823C69.2363 62.7516 69.2562 62.8222 69.2762 62.895C69.2762 62.895 69.2762 62.8962 69.2762 62.8974C69.2868 62.9338 69.2962 62.9703 69.3068 63.0067C69.3068 63.0067 69.3068 63.0067 69.3068 63.0079C69.3162 63.0431 69.3268 63.0796 69.3362 63.1148C69.3362 63.116 69.3362 63.1184 69.3373 63.1195C69.3467 63.156 69.3561 63.1912 69.3655 63.2277C69.3655 63.2289 69.3655 63.23 69.3655 63.2312C69.375 63.2676 69.3844 63.3053 69.3938 63.3417C69.3938 63.3417 69.3938 63.3417 69.3938 63.3429C69.4032 63.3805 69.4126 63.4169 69.422 63.4545C69.422 63.4557 69.422 63.4569 69.422 63.4581C69.4314 63.4945 69.4396 63.5321 69.449 63.5685C69.449 63.5697 69.449 63.5721 69.449 63.5732C69.4572 63.6097 69.4666 63.6461 69.4749 63.6826C69.4749 63.6837 69.4749 63.6861 69.4749 63.6873C69.4831 63.7237 69.4913 63.759 69.4995 63.7954C69.5078 63.833 69.516 63.8706 69.523 63.9071C69.523 63.9071 69.523 63.9106 69.523 63.9118C69.5301 63.947 69.5371 63.9823 69.5442 64.0164C69.5442 64.0164 69.5442 64.0164 69.5442 64.0175C69.5513 64.0528 69.5583 64.0881 69.5642 64.1233C69.5642 64.1245 69.5642 64.1257 69.5642 64.128C69.59 64.2667 69.6089 64.3984 69.6218 64.5159C70.1248 62.8386 69.8051 60.9357 68.779 59.5158L68.7908 59.5323Z" fill="#DCC5FF"/>
<g style="mix-blend-mode:multiply" opacity="0.6">
<path d="M59.4627 42.4129C60.3701 42.6645 61.5537 42.581 62.2507 42.5434C63.9256 42.4552 67.2848 42.3354 68.9574 42.4505C71.7725 42.6433 75.8134 44.1219 77.265 44.8707C77.8527 45.1739 78.2112 45.8439 78.029 46.4798C77.6271 47.882 76.2366 49.5123 76.2366 49.5123C73.7412 52.7834 70.878 54.0704 69.0526 54.5758C67.5517 54.9919 65.9332 54.7604 64.6414 53.8894C64.5873 53.853 64.5333 53.8153 64.4804 53.7777C63.3602 52.9785 62.4728 51.883 61.9345 50.6171C61.6618 49.9742 61.221 48.378 60.8943 47.9314C59.9422 46.629 58.7845 46.7219 57.4128 47.5717C55.7473 48.6037 52.964 50.6077 52.3763 50.8498C46.6592 53.2065 42.6488 48.1441 39.9607 44.0455C38.2246 41.3986 37.3266 39.1959 37.4865 38.1533C37.5711 37.6009 37.9954 37.1531 38.5467 37.0614C41.9388 36.4984 51.6628 37.9841 55.8107 40.7768C57.2964 41.6689 58.5247 42.1532 59.4627 42.4129Z" fill="#4D5E62"/>
</g>
<path d="M38.4114 38.293C38.4114 38.293 32.3641 43.7315 29.3809 47.83L29.3257 50.4841C31.4108 49.0336 38.08 42.8441 39.9312 42.9957C39.9312 42.9957 38.1258 39.9467 38.4114 38.2941V38.293Z" fill="url(#paint1_linear_1_13242)"/>
<path d="M38.4336 39.1212L29.2785 48.7394L29.1128 47.3748L37.7997 37.8008L38.4336 39.1212Z" fill="#FFF0A4"/>
<path d="M38.1444 39.3882C38.0481 39.7279 38.0657 41.927 38.3654 43.3845C38.3854 43.4797 38.5253 43.4691 38.6134 43.4292L39.8347 42.9226C39.9169 42.8861 39.9545 42.7886 39.9193 42.7063L38.4642 39.3612C38.4207 39.2601 38.2925 39.2295 38.2079 39.3L38.1985 39.3083C38.1727 39.3294 38.1539 39.3576 38.1444 39.3894V39.3882Z" fill="#461691"/>
<path d="M28.3983 52.6543L28.3384 47.7024L28.4536 47.5449C31.4238 43.4652 37.0609 37.4049 37.1185 37.3438L38.4631 35.9004L38.127 37.8445C37.9507 38.8671 39.4293 41.3307 40.4025 42.6436L41.1748 43.685L39.883 43.5804C39.7843 43.5733 39.186 43.618 37.0656 45.3047C35.6751 46.4107 34.0743 47.8599 32.6614 49.1376C31.2463 50.4188 30.0239 51.5236 29.3081 52.022L28.3983 52.6543ZM29.5185 48.0797L29.5455 50.3365C30.1837 49.7946 30.99 49.0647 31.8728 48.2666C35.051 45.3916 37.4229 43.31 38.9603 42.6377C38.3879 41.7867 37.5029 40.3469 37.1232 39.0751C35.4636 40.8958 31.7693 45.0202 29.5185 48.0797Z" fill="#100024"/>
<path d="M59.9329 41.3543C60.8403 41.6059 62.0239 41.5224 62.7209 41.4848C64.3958 41.3967 67.7551 41.2768 69.4276 41.392C72.2427 41.5847 76.2837 43.0633 77.7353 43.8121C78.323 44.1153 78.6814 44.7853 78.4993 45.4212C78.0973 46.8234 76.7068 48.4537 76.7068 48.4537C74.2115 51.7248 71.3482 53.0118 69.5228 53.5172C68.0219 53.9333 66.4034 53.7018 65.1116 52.8308C65.0576 52.7944 65.0035 52.7568 64.9506 52.7191C63.8305 51.9199 62.943 50.8244 62.4047 49.5585C62.132 48.9156 61.6913 47.3194 61.3645 46.8728C60.4124 45.5704 59.2547 45.6633 57.883 46.5131C56.2175 47.5451 53.4342 49.5491 52.8465 49.7913C47.1294 52.1479 43.119 47.0855 40.4309 42.9869C38.6948 40.34 37.7968 38.1373 37.9567 37.0947C38.0413 36.5423 38.4656 36.0945 39.0169 36.0028C42.4091 35.4398 52.133 36.9255 56.281 39.7182C57.7666 40.6103 58.9949 41.0946 59.9329 41.3543Z" fill="url(#paint2_linear_1_13242)"/>
<path d="M77.7342 43.8132C76.2826 43.0645 72.2417 41.5859 69.4266 41.3931C67.754 41.2779 64.3948 41.3978 62.7199 41.486C62.5706 41.4942 62.3978 41.5036 62.2109 41.5118C62.4625 41.5824 62.7152 41.6494 62.9702 41.6905C63.7354 41.8163 64.5088 41.8797 65.2834 41.9209C66.8302 42.0031 68.3829 41.9902 69.9226 42.1712C71.7692 42.3887 73.5687 42.8882 75.36 43.3866C75.9136 43.5406 76.4883 43.7051 76.9221 44.0824C77.4545 44.5455 77.6978 45.2719 77.7237 45.9771C77.739 46.3991 77.6861 46.8175 77.6061 47.2324C77.9599 46.6882 78.3231 46.0335 78.4982 45.4223C78.6804 44.7865 78.3231 44.1165 77.7342 43.8132Z" fill="#FFF0A4"/>
<path d="M68.0065 52.9449C65.7838 52.7216 63.7245 51.2665 62.7725 49.2448C62.3117 48.2657 62.0637 47.1268 61.2527 46.4086C60.0585 45.352 58.1603 45.6858 56.7768 46.4803C55.3934 47.2749 54.2333 48.4526 52.7594 49.0626C50.4415 50.0206 47.7099 49.3824 45.5989 48.0271C43.4879 46.6719 41.8753 44.6855 40.2991 42.7344L40.2744 42.7497C40.325 42.8284 40.3767 42.9072 40.4284 42.9871C43.1165 47.0857 47.1269 52.1492 52.844 49.7914C53.4317 49.5493 56.215 47.5452 57.8805 46.5132C59.2522 45.6634 60.4099 45.5706 61.362 46.8729C61.6888 47.3196 62.1295 48.9157 62.4022 49.5587C62.9405 50.8246 63.828 51.92 64.9481 52.7193C65.001 52.7569 65.0551 52.7945 65.1091 52.8309C65.3689 53.0061 65.6439 53.1553 65.9272 53.2788C66.3656 53.4198 66.8052 53.5503 67.2472 53.6584C67.9971 53.7712 68.774 53.7242 69.5204 53.5174C70.6052 53.2165 72.0568 52.6405 73.5801 51.5357C73.7482 51.1642 73.8528 50.767 73.8716 50.3591C72.5364 52.1504 70.2291 53.1659 68.0065 52.9426V52.9449Z" fill="#92680D"/>
<path d="M38.6147 39.7339C38.3514 39.078 38.6946 38.2987 39.2517 37.8626C39.8089 37.4266 40.527 37.2632 41.2264 37.1562C45.2074 36.5497 49.2578 37.3995 53.1542 38.4186C51.2512 37.3737 49.1297 36.7766 46.9869 36.431C44.8442 36.0855 42.6697 35.9867 40.5012 35.8892C40.0851 35.8704 39.6643 35.8516 39.2564 35.935C38.8486 36.0185 38.4478 36.2148 38.2033 36.5521C37.7637 37.1551 37.9341 38.0002 38.2127 38.6925" fill="#FFF0A4"/>
<path d="M60.0198 41.0402C60.9801 41.2918 62.0203 41.193 63.0241 41.1484C64.0679 41.1002 65.1104 41.0637 66.1554 41.0414C67.721 41.0214 69.3348 40.965 70.8898 41.2565C73.2229 41.6926 75.4973 42.4248 77.6553 43.4098L77.8363 43.4991L77.8822 43.5215C78.5051 43.8388 78.9388 44.5276 78.866 45.2387C78.8542 45.388 78.8037 45.5514 78.7578 45.6877C78.404 46.7115 77.7811 47.6189 77.1229 48.4675C75.8382 50.153 74.2667 51.6563 72.4002 52.6812C71.4622 53.2055 70.4761 53.6122 69.43 53.8813C67.822 54.2845 66.0378 53.9483 64.7096 52.9516C63.6106 52.1547 62.7197 51.0686 62.1661 49.8274C61.8523 49.1116 61.6489 48.3229 61.3633 47.6118C61.2869 47.4214 61.2129 47.2369 61.1035 47.0688C61.0718 47.0276 60.9731 46.9042 60.939 46.8607L60.8203 46.735C60.0386 45.8664 58.8962 46.2331 57.9982 46.7667C56.2809 47.7235 54.7905 49.0211 53.098 50.0249C52.2223 50.4198 51.2844 50.6455 50.3288 50.7054C46.1091 50.8994 43.032 47.3497 40.834 44.182C39.936 42.8821 39.0827 41.5468 38.4127 40.1117C38.0777 39.3794 37.7639 38.6178 37.6358 37.8067C37.4665 36.9229 37.8462 35.9802 38.7818 35.711C39.3871 35.5735 40.0148 35.5641 40.6189 35.5488C43.2518 35.55 45.8647 35.9355 48.4329 36.4797C50.4886 36.9311 52.5197 37.5 54.4532 38.3545C55.1761 38.6683 55.886 39.0621 56.5489 39.4899C57.6362 40.1352 58.808 40.6994 60.0187 41.0391L60.0198 41.0402ZM59.8447 41.6714C58.5459 41.3082 57.3494 40.737 56.1998 40.0588C55.5522 39.6415 54.8905 39.2736 54.1817 38.9657C52.3023 38.1359 50.3006 37.5764 48.2918 37.1368C45.7742 36.6055 43.2012 36.2259 40.6272 36.2247C40.1006 36.2306 39.5787 36.2588 39.0745 36.3363C38.4315 36.4527 38.1753 37.0921 38.3069 37.7104C38.4268 38.445 38.7124 39.1455 39.0251 39.8296C39.6763 41.2283 40.5073 42.5306 41.3829 43.8047C43.3552 46.6092 45.8999 49.7534 49.5554 50.0496C50.5451 50.1224 51.5571 49.9402 52.4797 49.5853C52.9628 49.4231 53.3472 49.1281 53.7832 48.8695C55.055 48.082 56.4608 47.1499 57.7067 46.2966C58.9538 45.4373 60.3442 45.1623 61.4326 46.4364C61.5678 46.5998 61.7218 46.7973 61.8053 46.9912C62.3036 48.0585 62.4952 49.2174 63.104 50.2223C64.3758 52.3956 66.7101 53.8954 69.2748 53.2396C70.7382 52.8599 72.1369 52.1723 73.3616 51.2825C74.6087 50.3986 75.6724 49.2597 76.6057 48.0538C77.2146 47.2733 77.8105 46.4082 78.1337 45.4797C78.1713 45.3762 78.2007 45.2775 78.2113 45.1729C78.2571 44.7168 77.9492 44.2725 77.539 44.0821C75.8652 43.2735 74.0774 42.6869 72.2815 42.2168C71.2906 41.97 70.2833 41.769 69.2654 41.7067C67.2108 41.615 65.1175 41.6984 63.0559 41.7913C61.9921 41.843 60.9143 41.9488 59.8447 41.6702V41.6714Z" fill="#100024"/>
<path d="M61.5666 45.5811C61.5666 45.5811 59.4721 44.6702 57.146 46.6966C57.146 46.6966 57.6091 46.6343 58.5424 46.3639C59.2652 46.1547 58.8268 45.7057 61.5666 45.5811Z" fill="#100024"/>
<path d="M55.2231 41.5639C56.0412 42.3385 56.4185 43.4786 56.1834 44.5799C55.9484 45.6813 55.1902 47.1599 53.1768 48.2801C49.1793 50.5051 46.1597 47.7511 44.8515 45.8376C42.7864 42.8192 42.4056 40.4966 42.3362 39.7609C42.3162 39.5481 42.3679 39.3354 42.489 39.1591C42.7617 38.7618 43.8148 38.3292 45.1595 38.2869C48.0004 38.1976 52.0602 38.5667 55.2231 41.5627V41.5639Z" fill="#E91EF4"/>
<path d="M42.4136 38.9041L45.8516 38.3105L48.3481 38.602L43.3962 42.9286L42.4136 38.9041Z" fill="#F276FF"/>
<path d="M49.2637 48.8797L56.296 43.5117L56.182 44.5801C56.182 44.5801 54.5482 49.0043 50.137 49.0525C49.574 49.0584 49.2637 48.8797 49.2637 48.8797Z" fill="#F276FF"/>
<path d="M64.0575 43.1388C65.3445 42.5335 67.6577 42.2561 71.7951 43.462C71.7951 43.462 75.5986 44.2919 75.0015 47.0094C74.8899 47.5195 74.6324 47.9849 74.2857 48.3752C73.0845 49.7257 69.1081 53.7502 65.9945 51.7227C65.9945 51.7227 62.9479 49.9784 62.5295 45.9045C62.4108 44.7538 63.0114 43.6325 64.0587 43.14L64.0575 43.1388Z" fill="#E91EF4"/>
<path d="M65.0597 42.6919C65.0597 42.6919 63.3589 43.3219 62.7078 44.3245C62.2811 44.9815 62.9805 47.4475 62.9805 47.4475L68.7504 42.6719" fill="#F276FF"/>
<path d="M74.8577 47.1152L67.2612 52.1224L69.4004 52.0906L74.9083 47.9404" fill="#F276FF"/>
<path d="M55.2549 41.5298C56.187 42.4419 56.9051 43.6808 56.4926 45.0231C55.7721 47.938 52.2341 50.1666 49.2874 49.7223C46.8062 49.3555 44.8751 47.509 43.6115 45.4568C43.0344 44.5635 42.5443 43.6114 42.2069 42.5924C41.9295 41.7767 41.7274 40.9374 41.6486 40.0477C41.5487 39.3671 41.8026 38.7018 42.4044 38.3563C43.5986 37.6616 45.0008 37.7251 46.3208 37.818C49.6001 38.0425 52.8971 39.1826 55.2549 41.5286V41.5298ZM55.1902 41.598C54.0148 40.4967 52.6032 39.6257 51.0752 39.1121C49.546 38.5831 47.9252 38.3563 46.3102 38.334C45.5027 38.3292 44.687 38.3198 43.9089 38.5173C43.4411 38.6407 42.9392 38.7959 42.5936 39.145C42.3997 39.3659 42.3832 39.6657 42.435 39.9478C42.6841 41.6403 43.3858 43.2447 44.2486 44.7128C44.392 44.9408 44.5836 45.2558 44.7387 45.4756C45.8107 47.1176 47.4444 48.5633 49.4273 48.8748C51.9497 49.2968 55.2114 47.3362 55.8943 44.8491C56.2363 43.7419 56.0588 42.4231 55.1914 41.598H55.1902Z" fill="#100024"/>
<path d="M64.0375 43.0979C66.1825 42.0212 69.3561 42.5126 71.6351 42.9956C72.8 43.2154 73.9601 43.5927 74.8475 44.4402C76.0969 45.6168 75.9864 47.5432 74.9521 48.8314C74.8592 48.9466 74.6712 49.1688 74.5748 49.2793C73.5745 50.4558 72.3568 51.3985 70.9863 52.1284C69.0728 53.1439 66.9171 53.3872 65.1752 51.8569C63.8459 50.7344 62.8962 49.1911 62.4754 47.5091C62.4072 47.2458 62.359 46.9414 62.3096 46.6734C62.2979 46.5336 62.2638 46.2515 62.2509 46.1116C62.0581 44.7575 62.875 43.6797 64.0375 43.0967V43.0979ZM64.0774 43.1825C63.0348 43.6903 62.5353 44.9468 62.7093 46.0552C62.7504 46.3008 62.7763 46.6053 62.8444 46.845C63.284 48.8879 64.6334 50.8825 66.5093 51.8463C67.8245 52.4775 69.3408 52.0402 70.5573 51.362C71.8161 50.6603 72.9198 49.6977 73.9095 48.6539C74.154 48.393 74.402 48.1344 74.5842 47.8253C75.823 45.6544 74.0306 44.164 72.0442 43.5845C71.7515 43.5046 71.2943 43.3776 70.9957 43.2942C68.8213 42.7594 66.2025 42.2504 64.0774 43.1802V43.1825Z" fill="#100024"/>
<path d="M46.5298 42.2448L59.9797 25.2652L94.2222 11.9375L50.9927 46.8935L46.5298 42.2448Z" fill="#E91EF4"/>
<path d="M65.5137 47.2361L109.928 7.01562L101.518 28.5546L69.3384 49.1332L65.5137 47.2361Z" fill="#E91EF4"/>
<path d="M103.051 28.0313L69.5614 49.415L69.3628 49.1118L102.276 26.8535L103.051 28.0313Z" fill="#100024"/>
<path d="M65.3892 47.1015L110.814 4.60547L111.77 5.64451L65.6383 47.3719L65.3892 47.1015Z" fill="#100024"/>
<path d="M64.6958 23.4254L47.9971 43.4176L49.7026 45.4322L85.1992 15.4316L64.6958 23.4254Z" fill="#F276FF"/>
<path d="M108.419 10.8848L67.1216 47.5556L68.2923 48.4442L103.124 24.4946L108.419 10.8848Z" fill="#F276FF"/>
<path d="M95.7998 11.4146L51.0811 47.0029L50.9048 46.7866L94.9112 10.3203L95.7998 11.4146Z" fill="#100024"/>
<path d="M46.4111 42.1517L60.2019 23.8027L61.3091 24.6772L46.6474 42.3386L46.4111 42.1517Z" fill="#100024"/>
<path d="M24.6653 120.806L27.1277 117.634L13.5661 122.897L15.167 102.139L11.2354 99.881L101.288 64.9238L106.09 67.6825L105.323 77.6979L102.897 81.2817L101.983 81.6366L106.283 86.9059L99.5385 89.5246L97.0397 98.0779L94.8734 98.9183L98.3138 100.895L97.3794 113.019L23.0433 141.875L24.6653 120.806Z" fill="#100024"/>
<path fill-rule="evenodd" clip-rule="evenodd" d="M98.3535 73.1457L104.194 70.8795L104.37 68.5922L101.15 66.7422L86.6373 72.3758L89.7097 74.1412L87.5541 74.9781L87.366 77.4112L93.2053 75.145L98.3535 73.1457ZM85.5524 78.1153L82.0227 79.4858L76.1235 81.7755L70.2982 84.0369L70.4851 81.6039L72.6278 80.7717L69.5554 79.0074L85.9744 72.6333L85.5524 78.1153ZM68.1308 84.8784L68.5069 84.3342L68.9054 79.2589L50.9161 86.243L53.3233 90.626L60.6554 87.7804L68.1308 84.8784ZM44.0049 94.2438L49.8442 91.9765L50.0217 89.6904L46.8011 87.8403L33.444 93.025L33.0162 98.5093L35.3787 97.5925L44.0049 94.2438ZM15.041 100.169L22.8597 97.1342L22.4389 102.615L16.6055 104.88L16.8864 101.229L15.041 100.169ZM29.8638 114.806L15.4077 120.417L16.4291 107.166L22.2638 104.901L21.6678 112.669L27.7481 110.309L30.4727 106.905L29.8638 114.806ZM31.822 114.046L32.8411 100.796L43.8333 96.5289L49.6679 94.2639L48.6429 107.516L42.813 109.779L43.4019 102.014L38.2549 104.013L37.6519 111.783L31.822 114.046ZM50.4624 106.81L50.8339 101.987L58.5597 90.8118L66.0328 87.911L58.9064 98.2144L65.1536 95.7884L67.8922 92.3798L67.2834 100.281L50.4624 106.81ZM69.1029 99.5742L84.3512 93.655L84.9612 85.7541L82.2355 89.158L75.3489 91.8308L75.5205 89.54L80.8074 87.4866L81.1858 82.0575L70.1219 86.3241L69.1029 99.5742ZM104.019 73.1658L103.714 77.1374L101.822 79.9336L99.2762 80.9221L103.576 86.1926L97.579 88.5198L93.2794 83.2506L92.5554 83.5315L92.0006 90.6861L86.1707 92.9487L87.1909 79.6986L104.019 73.1658Z" fill="url(#paint3_linear_1_13242)"/>
<path d="M37.805 119.306L41.3347 117.936L41.7555 112.455L29.5538 117.191L26.2675 121.424L26.0806 123.857L31.9058 121.596L37.805 119.306Z" fill="white"/>
<path d="M24.8838 139.394L40.1332 133.474L40.7421 125.573L38.0175 128.977L31.1451 131.645L31.7328 123.881L25.904 126.143L24.8838 139.394Z" fill="white"/>
<path d="M42.9717 119.518L41.9526 132.768L47.7814 130.505L48.3843 122.735L53.5325 120.737L52.9437 128.501L58.7736 126.239L59.7973 112.986L53.9627 115.251L42.9717 119.518Z" fill="white"/>
<path d="M54.1357 112.966L59.975 110.699L60.1513 108.411L56.9319 106.562L43.5748 111.747L43.147 117.231L45.5095 116.315L54.1357 112.966Z" fill="white"/>
<path d="M65.6016 123.59L71.4315 121.326L72.4588 108.072L66.6183 110.341L65.6016 123.59Z" fill="white"/>
<path d="M72.6364 105.784L78.3829 103.554L78.8142 98.0684L60.0586 105.349L61.9051 106.409L61.6172 110.062L66.7936 108.052L72.6364 105.784Z" fill="white"/>
<path d="M80.0187 105.138L79.5991 110.619L90.5772 106.357L90.4044 108.643L81.7923 111.986L78.9961 118.389L95.817 111.86L96.5928 101.803L93.3722 99.9531L85.8592 102.87L80.0187 105.138Z" fill="white"/>
<path d="M95.688 96.8371L97.4405 90.8379L83.6791 96.18L80.3798 100.418L80.1929 102.852L86.0322 100.585L95.688 96.8371Z" fill="white"/>
<path d="M74.1738 121.625L79.1551 119.695L81.1239 118.889L81.0063 119.676L74.3313 122.374L74.1738 121.625Z" fill="#100024"/>
<path d="M96.5615 106.565C96.3793 107.162 96.0631 107.711 95.6235 108.154C90.1933 113.619 80.9735 110.983 75.5785 110.707C73.752 110.614 71.936 110.952 70.2952 111.773C69.6475 112.098 68.8553 112.592 68.3346 113.113L65.7417 115.709L67.9373 115.453C67.2873 116.233 66.7149 117.056 66.2965 117.844C64.1397 121.874 63.7682 125.488 64.4018 129.71C64.6662 129.802 67.7128 127.349 70.2399 126.598C71.3413 126.268 72.499 126.04 73.6309 125.847C78.0139 125.096 82.3088 124.794 86.7517 124.795C87.0667 124.795 87.4088 124.765 87.7579 124.724L85.7715 126.614L90.2238 125.642C91.7518 125.31 93.864 123.937 95.0793 123.034C95.4919 122.725 95.8868 122.392 96.2665 122.044C96.806 121.551 97.3525 120.988 97.8826 120.391L97.8556 121.271L100.083 119.232C101.126 118.276 101.985 115.639 102.341 114.349C102.677 113.143 102.826 111.591 102.775 109.906C102.69 107.136 101.731 104.45 99.9642 102.316C99.4118 101.648 98.8323 101.273 98.3116 100.895L96.5603 106.565H96.5615Z" fill="#100024"/>
<path d="M98.3666 103.244C98.3455 103.226 98.2949 103.211 98.2738 103.193L98.081 105.745C97.9458 107.308 97.511 108.833 96.7857 110.223C96.774 110.244 96.7634 110.267 96.7517 110.288C94.2081 115.135 91.1827 115.529 91.1827 115.529C91.1827 115.529 93.6228 114.747 95.2319 111.978C95.9829 110.692 96.5965 109.227 97.0455 108.027L96.8069 108.118C96.1851 108.923 95.4693 109.633 94.7218 110.188C91.446 112.613 86.8537 112.62 82.2568 112.757C83.6908 113.246 85.4045 114.1 85.4115 114.104L86.4165 114.556C86.4165 114.556 84.2338 114.84 82.513 115.651C81.5798 116.091 80.784 116.56 80.2422 116.904C80.4502 116.935 80.717 116.976 81.0544 117.029C82.8586 117.306 85.9452 119.297 85.951 119.3L84.8203 119.336C84.8203 119.336 83.9928 119.401 82.6153 120.043C81.7819 120.433 81.0038 121.133 80.5243 121.619C80.8087 121.679 81.1801 121.775 81.6503 121.921C83.0584 122.366 84.5347 122.965 84.5406 122.967L85.1741 123.221C85.1741 123.221 85.6208 123.516 86.7515 123.517C87.8834 123.517 91.7034 122.727 91.7034 122.727L89.952 124.394C89.952 124.394 91.5917 124.038 94.3174 122.008C97.042 119.979 99.2764 116.434 99.2764 116.434L99.2188 118.29C99.2188 118.29 100.163 117.427 101.111 114.006C101.5 112.603 101.441 110.561 101.236 108.637C101.011 106.536 99.9828 104.6 98.3643 103.244H98.3666Z" fill="#9A4DFF"/>
<path d="M78.6921 122.592C78.698 122.587 80.7737 120.062 82.2911 119.351C82.8506 119.089 83.3325 118.916 83.718 118.799C82.9846 118.421 81.8997 117.936 80.9394 117.788C79.1211 117.506 79.0224 117.425 79.0212 117.422L78.0997 117.354L79.0212 116.804C79.0212 116.804 80.3529 115.822 82.1853 114.959C82.8988 114.624 83.5076 114.413 83.9907 114.284C76.1156 110.703 67.9808 114.653 65.8263 123.24C65.6547 124.006 65.4526 125.235 65.3832 126.924C65.3691 127.285 65.3738 127.627 65.3926 127.943C65.3926 127.943 70.2234 121.525 73.8624 120.247C77.5038 118.965 77.7165 119.313 77.7165 119.313C77.7165 119.313 73.9294 119.709 70.5972 123.116C69.8461 123.887 69.2432 124.631 68.7613 125.327C69.1491 125.103 69.5817 124.872 70.0577 124.63C74.4678 122.418 76.0557 122.55 76.0557 122.55C76.0557 122.55 74.141 123.016 71.4294 124.479C70.9005 124.765 70.4338 125.032 70.0248 125.283C73.9647 123.97 78.8143 123.933 83.5088 123.427L83.5453 123.404C82.9952 123.196 82.1959 122.899 81.4178 122.656C79.891 122.172 80.0685 122.211 78.6909 122.592H78.6921Z" fill="#9A4DFF"/>
<path d="M93.3011 114.529C91.6461 115.87 89.9465 115.639 89.9465 115.639C89.9465 115.639 91.9317 114.905 93.6983 112.662C94.4106 111.762 94.9442 110.673 95.3345 109.692C95.8587 109.235 96.3582 108.701 96.8072 108.119L97.0458 108.028C96.5968 109.228 95.9833 110.693 95.2322 111.979C93.6231 114.748 91.183 115.53 91.183 115.53C91.183 115.53 92.0775 115.414 93.3034 114.527H93.3011V114.529ZM84.4998 117.369C86.6272 118.193 88.0741 119.477 88.0741 119.477L85.9514 119.303C85.9514 119.303 82.8589 117.31 81.0547 117.032C80.7162 116.979 80.4506 116.938 80.2425 116.908C80.2425 116.908 82.3711 116.544 84.4998 117.371V117.369ZM85.3037 121.989C86.7024 122.576 88.6618 122.497 90.3849 122.145C92.1069 121.792 93.086 121.005 93.086 121.005L91.7049 122.729C91.7049 122.729 87.8837 123.52 86.753 123.519C85.6211 123.519 85.1756 123.223 85.1756 123.223L84.5421 122.969C84.5421 122.969 83.0599 122.368 81.6518 121.923C81.1805 121.776 80.8102 121.681 80.5258 121.621C80.7691 121.378 81.0864 121.078 81.4485 120.79C82.1584 120.973 84.1683 121.51 85.3049 121.988L85.3037 121.989ZM95.7435 120.059C98.3317 117.622 99.1956 115.264 99.1956 115.264L99.2791 116.435C99.2791 116.435 97.0447 119.981 94.3201 122.009C91.5932 124.039 89.9547 124.395 89.9547 124.395L91.1689 123.238C91.1689 123.238 93.1588 122.493 95.7447 120.059H95.7435ZM98.2729 103.196L98.3011 102.865C98.7901 103.126 99.2379 103.594 99.6211 104.109C100.486 105.27 101 106.654 101.176 108.091C101.429 110.166 101.542 112.472 101.114 114.008C100.165 117.429 99.2215 118.292 99.2215 118.292L99.252 117.308C99.7093 116.429 101.367 112.925 101.026 109.072C100.992 108.687 100.954 108.327 100.916 107.991C100.726 106.289 99.9443 104.702 98.6843 103.542C98.4375 103.315 98.2729 103.197 98.2729 103.197V103.196ZM65.3927 127.944C65.3927 127.944 66.9712 125.848 69.0047 123.812C68.4158 124.163 67.8857 124.582 67.4508 125.072C66.4082 126.255 65.7688 127.128 65.3833 127.755C65.3845 127.82 65.3892 127.882 65.3927 127.944ZM70.5973 123.117C69.8462 123.888 69.2433 124.632 68.7614 125.328C69.1492 125.105 69.5818 124.873 70.0578 124.631C74.4679 122.419 76.0558 122.552 76.0558 122.552C76.0558 122.552 74.1411 123.017 71.4295 124.481C70.9006 124.766 70.4339 125.033 70.0249 125.285C73.9648 123.972 78.8144 123.934 83.5089 123.429L83.5454 123.405C82.9953 123.197 82.196 122.901 81.4179 122.658C79.8911 122.173 80.0686 122.212 78.691 122.593C78.6969 122.588 80.7726 120.063 82.29 119.352C82.8495 119.09 83.3314 118.917 83.717 118.8L83.6735 118.778C83.3138 118.815 81.3885 119.06 80.0627 120.223C78.5935 121.514 77.679 122.562 77.679 122.562L76.5835 122.662L77.4475 121.894C77.4475 121.894 73.8331 121.845 70.7101 123.007C70.6725 123.044 70.6337 123.081 70.5961 123.118L70.5973 123.117Z" fill="#461691"/>
<path d="M75.5139 111.98C71.4718 111.777 69.2385 114.011 69.2385 114.011L71.5094 113.744C67.2098 117.015 65.5619 121.679 65.3527 126.923C65.3457 127.105 65.3433 127.28 65.3445 127.451L65.2751 128.357C65.2751 128.357 65.656 126.843 70.059 124.629C74.469 122.417 76.0569 122.55 76.0569 122.55C76.0569 122.55 74.1422 123.016 71.4306 124.479C70.8359 124.799 70.3222 125.098 69.8791 125.371C73.3242 124.344 79.1153 123.847 79.7359 123.796H79.7665L79.7829 123.795H79.7888C81.0288 123.694 82.2794 123.592 83.5159 123.458L83.53 123.453L83.6182 123.396L83.5583 123.374C83.2832 123.268 82.9471 123.144 82.5803 123.013C82.2148 122.882 81.8199 122.748 81.4332 122.624L81.3391 122.595C80.6515 122.376 80.3259 122.274 80.0227 122.268C79.7477 122.262 79.495 122.331 79.0166 122.467L78.7838 122.532C79.1494 122.1 80.9536 120.012 82.3065 119.379C82.5839 119.247 82.8436 119.139 83.0811 119.047C83.3208 118.958 83.5371 118.885 83.7275 118.828L83.7346 118.77C83.3655 118.58 82.9118 118.363 82.4275 118.175C81.9433 117.988 81.4296 117.829 80.9454 117.753C79.14 117.474 79.0448 117.397 79.0436 117.396L79.0271 117.389L78.2044 117.328C78.4477 117.184 78.8273 116.985 79.0424 116.827C79.0953 116.791 80.4059 115.833 82.2007 114.988C82.5557 114.82 82.8848 114.684 83.1868 114.574C83.4889 114.463 83.7604 114.379 84.0002 114.314L84.0061 114.254C83.5336 114.039 83.0587 113.851 82.585 113.689C80.9548 113.052 78.155 112.115 75.5163 111.98H75.5139ZM65.274 128.357L65.2622 128.505C65.2681 128.458 65.2787 128.408 65.2904 128.36L65.274 128.357Z" fill="white"/>
<path d="M80.0638 120.22C78.5946 121.511 77.6802 122.559 77.6802 122.559L76.5847 122.659L77.4486 121.89C77.4486 121.89 70.3446 121.795 67.4508 125.07C66.34 126.33 65.69 127.235 65.3116 127.872L65.2728 128.357C65.2728 128.357 65.6536 126.843 70.0566 124.63C74.4667 122.418 76.0546 122.551 76.0546 122.551C76.0546 122.551 74.1399 123.016 71.4283 124.48C70.8335 124.799 70.3199 125.099 69.8768 125.372C73.3218 124.344 79.113 123.847 79.7336 123.797H79.7641L79.7806 123.796H79.7864C81.0265 123.694 82.2771 123.592 83.5136 123.458L83.5277 123.454L83.6159 123.397L83.5559 123.375C83.2809 123.269 82.9447 123.144 82.578 123.014C82.2124 122.882 81.8175 122.748 81.4308 122.625L81.3368 122.595C80.6492 122.377 80.3236 122.275 80.0203 122.269C79.7453 122.263 79.4926 122.332 79.0142 122.467L78.7815 122.533C79.147 122.101 80.9513 120.013 82.3041 119.38C82.5815 119.248 82.8413 119.14 83.0787 119.048C83.3185 118.959 83.5348 118.886 83.7252 118.828L83.7322 118.771C83.7322 118.771 81.5295 118.933 80.0627 120.221L80.0638 120.22ZM75.099 112.627C75.099 112.627 74.395 112.484 72.1406 113.014C69.8897 113.544 69.2385 114.012 69.2385 114.012L71.5094 113.745C72.8717 113.097 75.1002 112.627 75.1002 112.627H75.099ZM65.274 128.356L65.2622 128.504C65.2681 128.457 65.2787 128.408 65.2904 128.36L65.274 128.356Z" fill="#DCC5FF"/>
<path d="M56.4219 28.1603V29.6778L105.513 10.5707L84.7357 63.7628L86.8009 62.3523L107.995 8.0918L56.4219 28.1603Z" fill="#100024"/>
<path d="M54.0864 27.5601L56.5865 28.1055L107.995 8.09334L86.8009 62.3538H88.3148L110.479 5.61328L54.0864 27.5601Z" fill="white"/>
</g>
<defs>
<radialGradient id="paint0_radial_1_13242" cx="0" cy="0" r="1" gradientUnits="userSpaceOnUse" gradientTransform="translate(52.7398 71.0994) rotate(-122.957) scale(39.043 35.8374)">
<stop stop-color="#9A4DFF"/>
<stop offset="0.753162" stop-color="#100024"/>
</radialGradient>
<linearGradient id="paint1_linear_1_13242" x1="28.7138" y1="39.9862" x2="40.9576" y2="43.8434" gradientUnits="userSpaceOnUse">
<stop stop-color="#EDB524"/>
<stop offset="0.333333" stop-color="#FFF0A4"/>
<stop offset="0.666667" stop-color="#DFBB5F"/>
<stop offset="1" stop-color="#D29E18"/>
</linearGradient>
<linearGradient id="paint2_linear_1_13242" x1="35.5957" y1="38.3616" x2="66.2706" y2="63.6569" gradientUnits="userSpaceOnUse">
<stop stop-color="#EDB524"/>
<stop offset="0.333333" stop-color="#FFF0A4"/>
<stop offset="0.666667" stop-color="#DFBB5F"/>
<stop offset="1" stop-color="#D29E18"/>
</linearGradient>
<linearGradient id="paint3_linear_1_13242" x1="9.8874" y1="74.1971" x2="93.0452" y2="124.315" gradientUnits="userSpaceOnUse">
<stop stop-color="#EDB524"/>
<stop offset="0.333333" stop-color="#FFF0A4"/>
<stop offset="0.666667" stop-color="#DFBB5F"/>
<stop offset="1" stop-color="#D29E18"/>
</linearGradient>
<clipPath id="clip0_1_13242">
<rect width="115.445" height="144" fill="white"/>
</clipPath>
</defs>
</svg>
