<svg width="210" height="210" viewBox="0 0 210 210" fill="none" xmlns="http://www.w3.org/2000/svg">
<rect opacity="0.6" width="210" height="210" fill="#27153F"/>
<path d="M105.041 95.547C99.8027 95.547 95.6286 99.8029 95.6286 104.959C95.6286 110.197 99.8027 114.371 105.041 114.371C110.197 114.371 114.453 110.197 114.453 104.959C114.453 99.8029 110.197 95.547 105.041 95.547ZM105.041 111.098C101.685 111.098 98.9024 108.397 98.9024 104.959C98.9024 101.604 101.603 98.9026 105.041 98.9026C108.396 98.9026 111.097 101.604 111.097 104.959C111.097 108.397 108.396 111.098 105.041 111.098ZM116.99 95.2196C116.99 93.9919 116.008 93.0098 114.78 93.0098C113.553 93.0098 112.571 93.9919 112.571 95.2196C112.571 96.4473 113.553 97.4294 114.78 97.4294C116.008 97.4294 116.99 96.4473 116.99 95.2196ZM123.21 97.4294C123.047 94.483 122.392 91.8639 120.264 89.7359C118.136 87.608 115.517 86.9532 112.571 86.7895C109.542 86.6258 100.457 86.6258 97.4292 86.7895C94.4827 86.9532 91.9455 87.608 89.7357 89.7359C87.6077 91.8639 86.953 94.483 86.7893 97.4294C86.6256 100.458 86.6256 109.542 86.7893 112.571C86.953 115.517 87.6077 118.054 89.7357 120.264C91.9455 122.392 94.4827 123.047 97.4292 123.211C100.457 123.374 109.542 123.374 112.571 123.211C115.517 123.047 118.136 122.392 120.264 120.264C122.392 118.054 123.047 115.517 123.21 112.571C123.374 109.542 123.374 100.458 123.21 97.4294ZM119.282 115.763C118.709 117.4 117.399 118.627 115.844 119.282C113.389 120.264 107.66 120.019 105.041 120.019C102.34 120.019 96.6107 120.264 94.2372 119.282C92.6003 118.627 91.3726 117.4 90.7178 115.763C89.7357 113.389 89.9812 107.66 89.9812 104.959C89.9812 102.34 89.7357 96.6109 90.7178 94.1556C91.3726 92.6005 92.6003 91.3728 94.2372 90.7181C96.6107 89.7359 102.34 89.9815 105.041 89.9815C107.66 89.9815 113.389 89.7359 115.844 90.7181C117.399 91.291 118.627 92.6005 119.282 94.1556C120.264 96.6109 120.018 102.34 120.018 104.959C120.018 107.66 120.264 113.389 119.282 115.763Z" fill="url(#paint0_linear_272_22503)"/>
<linearGradient id="paint0_linear_272_22503" x1="84.5511" y1="91.7593" x2="125.688" y2="106.656" gradientUnits="userSpaceOnUse">
<stop offset="0.0775189" stop-color="#EDB524"/>
<stop offset="0.332774" stop-color="#FFF0A4"/>
<stop offset="0.571439" stop-color="#DFBB5F"/>
<stop offset="1" stop-color="#D29E18"/>
</linearGradient>
<clipPath id="clip0_272_22503">
<rect width="210" height="210" fill="white"/>
</clipPath>
</svg>
