<svg width="171" height="32" viewBox="0 0 171 32" fill="none" xmlns="http://www.w3.org/2000/svg">
<path d="M51.1865 23.4552H59.9325L59.9325 21.335H53.5895L53.5895 17.9072H59.5792L59.5792 15.787H53.5895L53.5895 12.4123H59.9325L59.9325 10.292H51.1865L51.1865 23.4552Z" fill="white"/>
<path d="M61.5002 23.4552H63.8148L63.8148 17.8189C63.8148 17.1946 63.9915 16.694 64.3449 16.3171C64.71 15.9401 65.1812 15.7517 65.7584 15.7517C66.3356 15.7517 66.8008 15.9401 67.1542 16.3171C67.5194 16.6822 67.7019 17.1828 67.7019 17.8189L67.7019 23.4552H70.0165L70.0165 17.2712C70.0165 16.5526 69.8634 15.9225 69.5572 15.3806C69.2509 14.827 68.821 14.3971 68.2673 14.0908C67.7255 13.7845 67.1012 13.6314 66.3945 13.6314C65.7937 13.6314 65.2519 13.7492 64.7689 13.9848C64.2978 14.2204 63.9326 14.5679 63.6735 15.0272L63.6735 13.8434H61.5002L61.5002 23.4552Z" fill="white"/>
<path d="M76.603 23.6672C77.2979 23.6672 77.9399 23.5494 78.5289 23.3138C79.1178 23.0665 79.6243 22.7308 80.0484 22.3067C80.4724 21.8709 80.7787 21.3821 80.9671 20.8402L78.9352 19.9215C78.7468 20.428 78.4464 20.8285 78.0341 21.1229C77.6336 21.4056 77.1566 21.547 76.603 21.547C76.0965 21.547 75.643 21.4233 75.2425 21.1759C74.8538 20.9286 74.5475 20.587 74.3237 20.1512C74.0999 19.7036 73.988 19.2029 73.988 18.6493C73.988 18.0839 74.0999 17.5833 74.3237 17.1475C74.5475 16.7117 74.8538 16.3701 75.2425 16.1227C75.643 15.8753 76.0965 15.7517 76.603 15.7517C77.1566 15.7517 77.6336 15.8989 78.0341 16.1934C78.4464 16.4879 78.7468 16.8766 78.9352 17.3595L80.9671 16.4761C80.7669 15.9107 80.4547 15.416 80.0307 14.9919C79.6066 14.5561 79.1001 14.2204 78.5112 13.9848C77.9222 13.7492 77.2862 13.6314 76.603 13.6314C75.6489 13.6314 74.789 13.8493 74.0233 14.2852C73.2695 14.721 72.6746 15.3158 72.2388 16.0697C71.803 16.8236 71.5851 17.6775 71.5851 18.6317C71.5851 19.5858 71.803 20.4456 72.2388 21.2113C72.6746 21.9651 73.2695 22.5659 74.0233 23.0135C74.789 23.4493 75.6489 23.6672 76.603 23.6672Z" fill="white"/>
<path d="M82.7234 23.4552H85.038L85.038 18.1016C85.038 17.3713 85.2382 16.8059 85.6387 16.4054C86.051 15.9931 86.5811 15.787 87.2289 15.787H88.0593L88.0593 13.7374H87.4939C86.905 13.7374 86.3867 13.8434 85.9391 14.0555C85.4915 14.2675 85.144 14.6503 84.8966 15.2039L84.8966 13.8434H82.7234L82.7234 23.4552Z" fill="white"/>
<path d="M90.498 27.36C91.405 27.36 92.1589 27.1008 92.7596 26.5826C93.3721 26.076 93.861 25.3575 94.2261 24.427L98.4136 13.8434H95.9047L93.431 20.4692L90.9397 13.8434H88.4485L92.2472 23.4552L92.0352 23.9676C91.8467 24.3681 91.6288 24.692 91.3815 24.9394C91.1459 25.1867 90.7631 25.3104 90.233 25.3104C90.0445 25.3104 89.8443 25.2927 89.6323 25.2574C89.4202 25.2338 89.2318 25.1985 89.0669 25.1514L89.0669 27.0949C89.2671 27.1892 89.4909 27.254 89.7383 27.2893C89.9856 27.3364 90.2389 27.36 90.498 27.36Z" fill="white"/>
<path d="M99.6847 26.9889H101.999L101.999 22.5364C102.353 22.9016 102.783 23.1843 103.289 23.3845C103.796 23.573 104.343 23.6672 104.932 23.6672C105.863 23.6672 106.693 23.4493 107.424 23.0135C108.154 22.5659 108.731 21.9651 109.155 21.2113C109.579 20.4456 109.791 19.5916 109.791 18.6493C109.791 17.707 109.579 16.8589 109.155 16.105C108.731 15.3394 108.154 14.7387 107.424 14.3028C106.693 13.8552 105.869 13.6314 104.95 13.6314C104.29 13.6314 103.695 13.7492 103.165 13.9848C102.635 14.2204 102.2 14.5502 101.858 14.9742L101.858 13.8434H99.6847L99.6847 26.9889ZM104.667 21.547C104.161 21.547 103.701 21.4233 103.289 21.1759C102.889 20.9286 102.571 20.587 102.335 20.1512C102.111 19.7153 101.999 19.2147 101.999 18.6493C101.999 18.0839 102.111 17.5833 102.335 17.1475C102.571 16.7117 102.889 16.3701 103.289 16.1227C103.701 15.8753 104.161 15.7517 104.667 15.7517C105.197 15.7517 105.663 15.8812 106.063 16.1404C106.475 16.3877 106.799 16.7293 107.035 17.1652C107.27 17.601 107.388 18.0957 107.388 18.6493C107.388 19.2029 107.27 19.7036 107.035 20.1512C106.799 20.587 106.475 20.9286 106.063 21.1759C105.663 21.4233 105.197 21.547 104.667 21.547Z" fill="white"/>
<path d="M115.765 23.5612C115.942 23.5612 116.136 23.5494 116.348 23.5259C116.56 23.5023 116.749 23.4788 116.914 23.4552L116.914 21.4763C116.69 21.5116 116.484 21.5293 116.295 21.5293C115.73 21.5293 115.318 21.3997 115.058 21.1406C114.799 20.8815 114.67 20.5104 114.67 20.0275L114.67 15.9107H116.878L116.878 13.8434H114.67L114.67 11.6525H112.355L112.355 12.3946C112.355 12.8658 112.225 13.225 111.966 13.4724C111.707 13.7198 111.342 13.8434 110.871 13.8434H110.694L110.694 15.9107H112.355L112.355 20.1512C112.355 21.2231 112.65 22.0594 113.238 22.6601C113.839 23.2608 114.681 23.5612 115.765 23.5612Z" fill="white"/>
<path d="M123.154 23.6672C124.132 23.6672 124.986 23.4493 125.716 23.0135C126.458 22.5659 126.977 22.0005 127.271 21.3173L125.398 20.3985C125.186 20.7637 124.892 21.064 124.515 21.2996C124.15 21.5234 123.702 21.6353 123.172 21.6353C122.477 21.6353 121.894 21.4233 121.423 20.9993C120.952 20.5752 120.681 20.0098 120.61 19.3031H127.536C127.583 19.1735 127.613 19.0263 127.624 18.8613C127.648 18.6847 127.66 18.508 127.66 18.3313C127.66 17.4714 127.477 16.6881 127.112 15.9814C126.747 15.2746 126.217 14.7092 125.522 14.2852C124.827 13.8493 123.979 13.6314 122.978 13.6314C122.082 13.6314 121.27 13.8493 120.539 14.2852C119.821 14.721 119.249 15.3158 118.825 16.0697C118.413 16.8118 118.207 17.6658 118.207 18.6317C118.207 19.5622 118.413 20.4103 118.825 21.1759C119.238 21.9416 119.815 22.5482 120.557 22.9958C121.299 23.4434 122.165 23.6672 123.154 23.6672ZM122.978 15.5396C123.59 15.5396 124.097 15.7281 124.497 16.105C124.909 16.4702 125.139 16.9472 125.186 17.5362H120.663C120.793 16.9001 121.063 16.4113 121.476 16.0697C121.9 15.7163 122.4 15.5396 122.978 15.5396Z" fill="white"/>
<path d="M133.885 23.6672C134.509 23.6672 135.086 23.5612 135.616 23.3492C136.146 23.1254 136.588 22.8073 136.941 22.3951L136.941 23.4552H139.132L139.132 10.08H136.818L136.818 14.8152C136.099 14.026 135.115 13.6314 133.867 13.6314C132.96 13.6314 132.135 13.8552 131.393 14.3028C130.663 14.7387 130.086 15.3394 129.662 16.105C129.238 16.8589 129.026 17.707 129.026 18.6493C129.026 19.5916 129.238 20.4456 129.662 21.2113C130.086 21.9651 130.663 22.5659 131.393 23.0135C132.124 23.4493 132.954 23.6672 133.885 23.6672ZM134.132 21.547C133.614 21.547 133.148 21.4233 132.736 21.1759C132.324 20.9286 132 20.587 131.764 20.1512C131.54 19.7036 131.429 19.2029 131.429 18.6493C131.429 18.0957 131.54 17.601 131.764 17.1652C132 16.7293 132.324 16.3877 132.736 16.1404C133.148 15.8812 133.614 15.7517 134.132 15.7517C134.65 15.7517 135.11 15.8753 135.51 16.1227C135.922 16.3701 136.24 16.7117 136.464 17.1475C136.7 17.5833 136.818 18.0839 136.818 18.6493C136.818 19.2147 136.7 19.7153 136.464 20.1512C136.24 20.587 135.922 20.9286 135.51 21.1759C135.11 21.4233 134.65 21.547 134.132 21.547Z" fill="white"/>
<path d="M143.936 23.4552H146.692L149.219 13.9848L151.745 23.4552H154.502L158.035 10.292H155.456L153.018 20.1865L150.473 10.292H147.982L145.42 20.1865L142.982 10.292H140.402L143.936 23.4552Z" fill="white"/>
<path d="M159.299 12.7657H161.614L161.614 10.292H159.299L159.299 12.7657ZM159.299 23.4552H161.614L161.614 13.8434H159.299L159.299 23.4552Z" fill="white"/>
<path d="M163.751 23.4552H166.066L166.066 10.08H163.751L163.751 23.4552Z" fill="white"/>
<path d="M168.203 23.4552H170.517L170.517 10.08H168.203L168.203 23.4552Z" fill="white"/>
<g clip-path="url(#clip0_193_12720)">
<path d="M41.4323 5.22186H36.7849L36.7849 9.86923H41.4323L41.4323 5.22186Z" fill="white"/>
<path d="M36.785 2.78674H34.3499L34.3499 5.22189H36.785L36.785 2.78674Z" fill="white"/>
<path fill-rule="evenodd" clip-rule="evenodd" d="M34.6072 9.87785H34.6243L34.6243 9.86927C39.9405 9.895 44.2449 14.208 44.2449 19.5327C44.2449 23.8371 41.4325 27.4812 37.5397 28.7331C36.7765 28.9989 35.9276 29.1533 34.9845 29.1876C34.8473 29.1961 34.7186 29.1961 34.5815 29.1961H34.5729H34.5557H30.5467L34.7015 17.1147H30.9287L27.822 26.4844L24.5235 17.1233H21.351L18.0289 26.4908L14.9201 17.1147H11.1473L15.3021 29.1961H8.73793C4.25347 29.1961 0.626465 25.5606 0.626465 21.0847C0.626465 16.6088 4.25348 12.9732 8.74651 12.9732C8.74651 5.80498 14.5514 6.10352e-05 21.7197 6.10352e-05C25.9727 6.10352e-05 29.7454 2.05793 32.1034 5.23049L32.1034 9.87785H27.4561L27.4561 14.5252H32.1034L32.1034 17.1147H34.6929L34.6929 14.5252H32.1034L32.1034 9.87785H34.6072ZM20.4071 29.1961H25.4217L22.9328 21.9457L20.4071 29.1961Z" fill="white"/>
</g>
<defs>
<clipPath id="clip0_193_12720">
<rect width="43.6184" height="32" fill="white" transform="translate(0.626465 6.10352e-05)"/>
</clipPath>
</defs>
</svg>
