<svg width="114" height="32" viewBox="0 0 114 32" fill="none" xmlns="http://www.w3.org/2000/svg">
<g clip-path="url(#clip0_193_12729)">
<path d="M32.314 9.35977C32.9716 9.35977 33.4992 9.17956 33.897 8.82076C34.2947 8.46195 34.4928 7.97652 34.4928 7.36444C34.4928 6.85952 34.3175 6.46987 33.9652 6.19387C33.6129 5.91787 33.155 5.78149 32.5884 5.78149C31.9617 5.78149 31.4373 5.96171 31.0168 6.32051C30.5963 6.67931 30.3853 7.12741 30.3853 7.66155C30.3853 8.19569 30.546 8.61294 30.8674 8.91167C31.1889 9.2104 31.6695 9.35815 32.3124 9.35815L32.314 9.35977Z" fill="white"/>
<path d="M61.377 9.35977C62.0345 9.35977 62.5622 9.17956 62.96 8.82076C63.3577 8.46195 63.5558 7.97652 63.5558 7.36444C63.5558 6.85952 63.3805 6.46987 63.0282 6.19387C62.6758 5.91787 62.218 5.78149 61.6514 5.78149C61.0247 5.78149 60.5003 5.96171 60.0798 6.32051C59.6593 6.67931 59.4482 7.12741 59.4482 7.66155C59.4482 8.19569 59.609 8.61294 59.9304 8.91167C60.2519 9.2104 60.7325 9.35815 61.3754 9.35815L61.377 9.35977Z" fill="white"/>
<path d="M72.5014 10.7122H69.9329C71.9201 8.95389 72.9154 6.88875 72.9154 4.51839C72.9154 3.66279 72.7319 2.95168 72.365 2.38506C71.9981 1.82007 71.4931 1.53595 70.8518 1.53595C69.98 1.53595 69.165 1.94833 68.4084 2.77471C67.6518 3.60109 67.0057 4.70997 66.4699 6.10134C65.9341 7.49271 65.5364 9.0302 65.2766 10.7122H63.9696C63.2813 10.7122 62.9371 11.1408 62.9371 11.9964C62.9371 12.3633 63.0166 12.6312 63.1774 12.8001C63.3381 12.9689 63.6482 13.0517 64.106 13.0517H65.0006C64.9551 13.7401 64.9324 14.4203 64.9324 15.0941C64.9324 15.5844 64.9535 16.0504 64.9957 16.4936C64.8593 16.5423 64.7295 16.6316 64.6126 16.7696C63.9242 17.596 63.3738 18.1999 62.9614 18.5815C62.549 18.9646 62.2049 19.1546 61.9289 19.1546C61.6382 19.1546 61.432 19.0328 61.3103 18.7877C61.1885 18.5425 61.1268 18.1918 61.1268 17.7324C61.1268 17.1365 61.3103 15.9968 61.6772 14.3148C61.9678 12.9234 62.1123 12.037 62.1123 11.6538C62.1123 11.1343 61.7227 10.8745 60.9417 10.8745C60.4368 10.8745 60.0699 10.9671 59.841 11.1505C59.6121 11.334 59.4286 11.6701 59.2906 12.1604C59.0146 13.0939 58.7889 14.0989 58.6136 15.1769C58.4658 16.0812 58.3814 16.8475 58.3571 17.4775C57.9138 17.9726 57.5355 18.3509 57.2255 18.6074C56.7822 18.9744 56.3228 19.1578 55.8487 19.1578C55.4055 19.1578 55.0272 19.0312 54.7138 18.7795C54.4005 18.5279 54.2122 18.1951 54.1521 17.7811C55.1928 17.2307 55.9266 16.604 56.3536 15.8994C56.7822 15.1964 56.9965 14.4236 56.9965 13.5826C56.9965 12.8179 56.7627 12.175 56.2968 11.6555C55.8308 11.1359 55.2155 10.8762 54.4508 10.8762C53.6244 10.8762 52.738 11.308 51.7898 12.1717C50.8417 13.0355 50.0007 14.4236 49.2669 16.3345C49.2669 15.4935 49.2896 14.6752 49.335 13.8797C51.3693 11.662 52.837 9.72345 53.7397 8.06419C54.6424 6.40494 55.0937 4.80251 55.0937 3.25852C55.0937 2.29577 54.8762 1.5116 54.4395 0.907643C54.0043 0.303687 53.4345 0.00170898 52.7299 0.00170898C51.4148 0.00170898 50.2864 0.870301 49.3464 2.60586C48.4064 4.34142 47.6953 6.48612 47.2131 9.03994C46.7309 11.5938 46.4906 14.0486 46.4906 16.4027C46.4906 16.7112 46.4922 17.0001 46.4971 17.2745C45.9905 17.8574 45.5717 18.299 45.2405 18.5928C44.82 18.9679 44.4563 19.1546 44.1511 19.1546C43.7078 19.1546 43.4854 18.8494 43.4854 18.2373C43.4854 17.8087 43.6299 16.9303 43.9205 15.599C44.2566 14.0388 44.4255 12.9608 44.4255 12.3649C44.4255 11.3713 43.9286 10.8745 42.935 10.8745C42.4301 10.8745 41.8765 11.0499 41.2725 11.4022C40.6686 11.7545 40.0533 12.3422 39.4266 13.1686C38.7999 13.995 38.2333 15.0649 37.7283 16.38C37.79 15.7078 37.8663 15.1412 37.9573 14.6834C38.0498 14.2239 38.1716 13.6898 38.3242 13.0777C38.5531 12.2221 38.6684 11.6701 38.6684 11.4265C38.6684 11.2122 38.6067 11.0677 38.4849 10.9898C38.3631 10.9135 38.1488 10.8745 37.842 10.8745C37.2754 10.8745 36.837 10.9784 36.5237 11.1846C36.2103 11.3908 35.9847 11.7155 35.8467 12.1604C35.3206 13.8245 35.043 15.5747 35.0057 17.4093C34.5657 17.9158 34.1955 18.3071 33.8968 18.5831C33.4844 18.9662 33.1402 19.1562 32.8642 19.1562C32.5736 19.1562 32.3674 19.0344 32.2456 18.7893C32.1239 18.5441 32.0622 18.1934 32.0622 17.734C32.0622 17.1381 32.2456 15.9984 32.6126 14.3164C32.9032 12.9251 33.0477 12.0386 33.0477 11.6555C33.0477 11.1359 32.658 10.8762 31.8771 10.8762C31.3722 10.8762 31.0053 10.9687 30.7763 11.1522C30.5474 11.3356 30.364 11.6717 30.226 12.162C29.95 13.0955 29.7243 14.1005 29.5489 15.1785C29.4012 16.0877 29.3152 16.8556 29.2924 17.4872C28.8703 17.9661 28.5147 18.3379 28.2306 18.5961C27.8182 18.9711 27.4659 19.1578 27.1753 19.1578C26.9919 19.1578 26.8425 19.0896 26.7288 18.9516C26.6152 18.8136 26.5568 18.6302 26.5568 18.4013C26.5568 17.7129 26.7321 16.4904 27.0844 14.7304C27.3133 13.5225 27.4286 12.7578 27.4286 12.4364C27.4286 11.9006 27.0536 11.6327 26.3051 11.6327C25.9528 11.6327 25.6167 11.6636 25.2953 11.7253C25.219 11.3892 25.1232 11.1554 25.0079 11.0255C24.8926 10.8956 24.667 10.8307 24.3309 10.8307C23.2756 10.8307 22.2771 11.1635 21.3371 11.8292C20.397 12.4948 19.6437 13.3748 19.0771 14.4674C18.6322 15.3279 18.3644 16.2273 18.2702 17.1674C17.4552 17.7291 16.5785 18.3607 15.6368 19.0669L15.8885 17.3232C16.1482 15.5958 16.3008 14.4869 16.3479 13.9966C16.3934 13.5842 16.3057 13.266 16.0833 13.0452C15.8609 12.8244 15.5816 12.7124 15.2455 12.7124H10.9561C10.573 12.7124 10.2678 12.8341 10.0388 13.0793C9.80992 13.3245 9.69465 13.6605 9.69465 14.0891C9.69465 14.5632 9.80992 14.9042 10.0388 15.1103C10.2678 15.3165 10.5973 15.4204 11.026 15.4204H13.3655L13.044 18.2194C11.8978 18.6935 10.7954 18.9305 9.74011 18.9305C7.84382 18.9305 6.39399 18.4305 5.39389 17.4288C4.39217 16.427 3.89212 15.0081 3.89212 13.1735C3.89212 11.3389 4.18273 9.85171 4.76396 8.57399C5.34518 7.29789 6.11312 6.33675 7.06939 5.69545C8.02565 5.05253 9.06147 4.7327 10.1785 4.7327C11.0958 4.7327 11.7501 4.90804 12.1397 5.26035C12.5294 5.61265 12.7242 6.10946 12.7242 6.75075C12.7242 6.99591 12.6787 7.33198 12.5862 7.76059C12.5245 8.12751 12.4936 8.38728 12.4936 8.53989C12.4936 8.8922 12.6203 9.16658 12.8719 9.36627C13.1236 9.56597 13.4564 9.665 13.8704 9.665C14.4825 9.665 14.9517 9.39387 15.2813 8.84999C15.6092 8.30772 15.7748 7.58525 15.7748 6.68256C15.7748 5.3058 15.3283 4.2018 14.4321 3.3673C13.5376 2.53443 12.1949 2.11718 10.4058 2.11718C8.61662 2.11718 6.85345 2.59612 5.34681 3.55076C3.84016 4.50702 2.65985 5.85294 1.80262 7.5885C0.948634 9.31756 0.52002 11.3178 0.52002 13.581C0.52002 15.2013 0.878822 16.6235 1.59805 17.8476C2.31728 19.0718 3.3255 20.015 4.62596 20.6807C5.92479 21.3464 7.43144 21.6792 9.14427 21.6792C10.3067 21.6792 11.4919 21.4275 12.6998 20.9226L12.6316 21.3593C11.026 22.5981 9.78395 23.6989 8.90399 24.6632C8.02403 25.626 7.42494 26.4751 7.10348 27.2089C6.78202 27.9428 6.62129 28.6685 6.62129 29.3877C6.62129 30.167 6.86644 30.7986 7.35513 31.2808C7.84381 31.763 8.47862 32.0032 9.25954 32.0032C10.7126 32.0032 11.9124 31.0924 12.8606 29.2741C13.8087 27.4541 14.5815 24.962 15.1774 21.7961C16.5281 20.8642 17.6224 20.1157 18.4715 19.5426C18.6128 19.9582 18.8125 20.3284 19.0771 20.6499C19.6421 21.3382 20.4003 21.6824 21.3484 21.6824C22.5563 21.6824 23.5581 21.0411 24.3536 19.7553C24.5679 20.3511 24.8845 20.8219 25.305 21.1661C25.7255 21.5103 26.1882 21.6824 26.6931 21.6824C27.3507 21.6824 28.0309 21.4145 28.7355 20.8804C29.0554 20.6369 29.3671 20.3641 29.6723 20.0686C29.7551 20.2683 29.8525 20.455 29.9629 20.6271C30.4143 21.3301 31.1368 21.6824 32.1304 21.6824C33.124 21.6824 34.1143 21.1824 35.1875 20.1855C35.2346 20.4047 35.2898 20.5995 35.3531 20.7651C35.5901 21.3772 35.9993 21.6824 36.5805 21.6824C37.0546 21.6824 37.402 21.5558 37.6244 21.3041C37.8452 21.0525 38.0417 20.5671 38.2089 19.8478C38.4378 18.9143 38.7398 18.0278 39.1148 17.1868C39.4899 16.3459 39.8568 15.6688 40.2156 15.1574C40.5744 14.646 40.8537 14.3895 41.0534 14.3895C41.2222 14.3895 41.305 14.5129 41.305 14.7564C41.305 15.1233 41.206 15.789 41.0063 16.7517C40.792 17.8525 40.6848 18.6172 40.6848 19.0458C40.6848 19.903 40.8829 20.5557 41.2807 21.007C41.6784 21.4584 42.2678 21.684 43.0471 21.684C44.0098 21.684 44.8703 21.4243 45.6285 20.9047C45.9873 20.658 46.3347 20.3771 46.6724 20.0654C46.7569 20.5395 46.8835 20.908 47.0507 21.1678C47.2715 21.512 47.6206 21.684 48.0947 21.684C48.5687 21.684 48.9162 21.5574 49.1386 21.3058C49.3594 21.0541 49.5558 20.5687 49.7231 19.8494C49.9682 18.8558 50.3043 17.8882 50.7329 16.9482C51.1615 16.0082 51.6242 15.2386 52.121 14.6428C52.6178 14.0469 53.0724 13.7482 53.4864 13.7482C53.6553 13.7482 53.7965 13.8164 53.9102 13.9544C54.0238 14.0924 54.0823 14.2986 54.0823 14.573C54.0823 15.047 53.9362 15.448 53.6472 15.7776C53.3566 16.1072 52.8744 16.4157 52.2022 16.7063C51.5901 16.966 51.2849 17.3947 51.2849 17.9905C51.2849 19.1075 51.6437 20.0021 52.3629 20.6742C53.0822 21.348 54.0303 21.684 55.2074 21.684C56.1701 21.684 57.0046 21.4324 57.7076 20.9275C58.0518 20.6807 58.3928 20.3933 58.7337 20.0654C58.8181 20.2667 58.9156 20.455 59.026 20.6287C59.4773 21.3317 60.1998 21.684 61.1934 21.684C62.5085 21.684 63.9226 20.7586 65.4373 18.9078C65.4552 18.8867 65.4714 18.864 65.4877 18.8412C65.6159 19.2049 65.7669 19.5458 65.9406 19.8592C66.6128 21.0752 67.6762 21.6824 69.1293 21.6824C70.1391 21.6824 71.0402 21.3545 71.8357 20.6969C72.0646 20.5135 72.2367 20.2846 72.352 20.0086C72.4673 19.7326 72.5241 19.4501 72.5241 19.1594C72.5241 18.8688 72.4673 18.6204 72.352 18.4142C72.2367 18.2081 72.0873 18.1041 71.9039 18.1041C71.735 18.1041 71.5678 18.1805 71.399 18.3331C71.1246 18.5782 70.8177 18.7763 70.4817 18.9289C70.1456 19.0815 69.855 19.1578 69.6098 19.1578C69.1358 19.1578 68.764 19.0247 68.4977 18.7568C68.2298 18.4889 68.0382 18.0457 67.9246 17.4271C67.8093 16.8069 67.7525 15.9481 67.7525 14.8457C67.7525 14.4171 67.7671 13.8213 67.798 13.0566H70.5969C72.3244 13.0566 73.1897 12.5289 73.1897 11.4736C73.1897 11.183 73.1362 10.9849 73.029 10.8778C72.9218 10.7706 72.7465 10.7171 72.5014 10.7171L72.5014 10.7122ZM50.3546 6.64035C50.668 5.30256 50.9927 4.23914 51.3288 3.45173C51.6648 2.66431 51.9717 2.26979 52.2461 2.26979C52.4441 2.26979 52.5984 2.39967 52.7055 2.65944C52.8127 2.91921 52.8662 3.29424 52.8662 3.78293C52.8662 4.85284 52.5561 6.04614 51.9376 7.3612C51.319 8.67627 50.5348 9.8923 49.5867 11.0093C49.7848 9.43446 50.0413 7.97815 50.3546 6.63873L50.3546 6.64035ZM10.8198 28.4217C10.3457 29.3244 9.90896 29.7758 9.51282 29.7758C9.0842 29.7758 8.86989 29.477 8.86989 28.8812C8.86989 28.2853 9.12641 27.5629 9.63783 26.7592C10.1492 25.9572 10.987 25.0578 12.1494 24.0642C11.7371 26.0676 11.2922 27.5207 10.8181 28.4234L10.8198 28.4217ZM23.8032 17.182C23.6652 17.8395 23.4444 18.3672 23.1376 18.7649C22.8307 19.1627 22.5109 19.3608 22.1748 19.3608C21.8387 19.3608 21.5741 19.2455 21.3842 19.0166C21.1926 18.7877 21.0968 18.4353 21.0968 17.9613C21.0968 17.1057 21.2575 16.2939 21.579 15.5292C21.9004 14.7645 22.3323 14.1492 22.8746 13.6833C23.4168 13.2173 24.0094 12.9754 24.6523 12.9608L23.8032 17.182ZM68.0285 10.3696C68.1973 9.13086 68.4068 8.0025 68.6601 6.98617C68.9117 5.96983 69.1796 5.1743 69.4637 4.60119C69.7462 4.02808 70.0027 3.74071 70.2316 3.74071C70.5677 3.74071 70.7366 4.19206 70.7366 5.09474C70.7366 5.89028 70.5109 6.77348 70.0595 7.74436C69.6082 8.71523 68.9312 9.59032 68.0301 10.3712L68.0285 10.3696Z" fill="white"/>
<path d="M76.172 17.4109C75.469 17.4109 74.9219 17.6171 74.5322 18.0294C74.1426 18.4418 73.9478 18.9922 73.9478 19.6806C73.9478 20.2764 74.1199 20.7586 74.464 21.1255C74.8082 21.4924 75.3164 21.6759 75.9902 21.6759C76.6639 21.6759 77.2208 21.4665 77.6186 21.0443C78.0164 20.6238 78.2144 20.0621 78.2144 19.3591C78.2144 18.7162 78.0423 18.2307 77.6981 17.9028C77.3539 17.5748 76.8458 17.4092 76.172 17.4092L76.172 17.4109Z" fill="white"/>
<path d="M113.413 11.2512C113.161 10.9995 112.789 10.8729 112.301 10.8729C111.812 10.8729 111.245 11.045 110.65 11.3892C110.054 11.7334 109.445 12.3114 108.826 13.1215C108.208 13.9317 107.644 14.9788 107.139 16.2647C107.185 15.9887 107.269 15.5763 107.391 15.0259C107.682 13.7417 107.826 12.8553 107.826 12.3649C107.826 11.8746 107.716 11.4866 107.493 11.2415C107.271 10.9963 106.893 10.8745 106.359 10.8745C105.824 10.8745 105.253 11.0775 104.649 11.4817C104.045 11.8876 103.456 12.5029 102.883 13.3277C102.309 14.1541 101.816 15.1623 101.403 16.3556C101.465 15.6835 101.541 15.1201 101.632 14.6704C101.725 14.219 101.847 13.6881 101.999 13.0761C102.228 12.2204 102.343 11.6684 102.343 11.4249C102.343 11.2106 102.282 11.0661 102.16 10.9882C102.038 10.9119 101.824 10.8729 101.517 10.8729C100.95 10.8729 100.512 10.9768 100.199 11.183C99.8854 11.3892 99.6598 11.7139 99.5218 12.1588C99.2555 12.9997 99.0542 13.8635 98.9146 14.7483C98.2311 14.8993 97.6222 14.9935 97.0913 15.0275C96.9696 13.8505 96.5523 12.8601 95.8412 12.0565C95.1301 11.2544 94.1933 10.8518 93.0309 10.8518C92.0827 10.8518 91.219 11.1083 90.4381 11.6197C89.6588 12.1328 89.0467 12.8439 88.6035 13.7531C88.1602 14.6622 87.9378 15.6997 87.9378 16.8621C87.9378 17.1511 87.9589 17.432 87.9962 17.7064C87.579 18.096 87.1585 18.4159 86.7331 18.6626C86.0074 19.0831 85.3304 19.2942 84.7037 19.2942C83.1581 19.2942 82.3869 18.4077 82.3869 16.6332C82.3869 15.9903 82.4795 15.4026 82.6629 14.8668C82.8464 14.331 83.0915 13.9073 83.3968 13.594C83.702 13.2806 84.0316 13.1231 84.3839 13.1231C84.5673 13.1231 84.7086 13.1767 84.8076 13.2839C84.9066 13.391 84.957 13.5436 84.957 13.7433C84.957 13.943 84.918 14.1557 84.8417 14.3862C84.8255 14.4479 84.8027 14.547 84.7735 14.685C84.7427 14.823 84.7281 14.9447 84.7281 15.0519C84.7281 15.2971 84.8157 15.487 84.9911 15.625C85.1664 15.763 85.4002 15.8312 85.6908 15.8312C86.1503 15.8312 86.5205 15.6104 86.8029 15.1655C87.0854 14.7223 87.2267 14.1801 87.2267 13.5371C87.2267 12.7578 86.9929 12.1182 86.5269 11.6214C86.061 11.1246 85.4067 10.8762 84.5657 10.8762C83.7247 10.8762 82.8918 11.1278 82.1109 11.6327C81.3316 12.1376 80.6968 12.8569 80.2065 13.7888C79.7162 14.7223 79.4727 15.8068 79.4727 17.0456C79.4727 18.437 79.8899 19.5572 80.7228 20.4063C81.5557 21.2554 82.7214 21.6792 84.2215 21.6792C85.1534 21.6792 86.1211 21.4389 87.1228 20.9567C87.7284 20.6661 88.2804 20.2992 88.7837 19.8592C89.0857 20.3154 89.4639 20.7018 89.9218 21.0135C90.5712 21.4568 91.3554 21.6792 92.2727 21.6792C93.3588 21.6792 94.3297 21.2928 95.1853 20.5216C96.0409 19.7488 96.6156 18.7211 96.9062 17.4369C97.5297 17.4109 98.119 17.3362 98.6824 17.2226C98.6759 17.4239 98.671 17.6252 98.671 17.8281C98.671 19.1741 98.7896 20.1531 99.0266 20.7651C99.2636 21.3772 99.6728 21.6824 100.254 21.6824C100.728 21.6824 101.075 21.5558 101.298 21.3041C101.519 21.0525 101.715 20.5671 101.882 19.8478C102.08 19.0214 102.345 18.1805 102.675 17.3248C103.003 16.4692 103.344 15.7646 103.696 15.2143C104.048 14.6639 104.339 14.3879 104.568 14.3879C104.737 14.3879 104.819 14.5113 104.819 14.7548C104.819 15.0616 104.758 15.7029 104.636 16.6819C104.483 17.7827 104.407 18.6237 104.407 19.2049C104.407 19.8933 104.534 20.4778 104.785 20.96C105.037 21.4421 105.417 21.6824 105.92 21.6824C106.423 21.6824 106.764 21.5607 106.987 21.3155C107.208 21.0703 107.404 20.5817 107.571 19.8478C107.8 18.9143 108.099 18.0278 108.466 17.1868C108.833 16.3459 109.2 15.6688 109.567 15.1574C109.934 14.646 110.216 14.3895 110.416 14.3895C110.585 14.3895 110.667 14.5129 110.667 14.7564C110.667 15.0925 110.575 15.8734 110.391 17.0959C110.177 18.5035 110.07 19.5118 110.07 20.1238C110.07 20.6434 110.185 21.033 110.414 21.2944C110.643 21.5542 111.01 21.684 111.515 21.684C112.051 21.684 112.435 21.5574 112.674 21.3058C112.911 21.0541 113.03 20.6369 113.03 20.0556C113.03 19.0312 113.075 18.1025 113.168 17.268C113.26 16.4352 113.382 15.5519 113.535 14.6184C113.703 13.5177 113.786 12.7676 113.786 12.3698C113.786 11.8811 113.66 11.5093 113.408 11.2577L113.413 11.2512ZM93.7306 18.6497C93.3718 19.0474 92.9464 19.2455 92.4577 19.2455C92.0145 19.2455 91.6281 19.0247 91.2985 18.5798C90.969 18.1366 90.805 17.4937 90.805 16.6527C90.805 15.5828 91.0079 14.7532 91.4122 14.1638C91.8164 13.5745 92.3262 13.2806 92.9383 13.2806H93.0536C93.0081 13.5258 92.9854 13.7709 92.9854 14.0145C92.9854 14.5957 93.112 15.1461 93.3637 15.6656C93.6153 16.1851 93.979 16.6056 94.4531 16.9271C94.3297 17.6772 94.0894 18.2503 93.7306 18.648L93.7306 18.6497Z" fill="white"/>
</g>
<defs>
<clipPath id="clip0_193_12729">
<rect width="113.273" height="32" fill="white" transform="translate(0.52002 6.10352e-05)"/>
</clipPath>
</defs>
</svg>
