<svg width="127" height="29" viewBox="0 0 127 29" fill="none" xmlns="http://www.w3.org/2000/svg">
<path d="M51.6632 6.10352e-05H48.7764L48.8091 29.0001H51.6959L51.6632 6.10352e-05Z" fill="white"/>
<path d="M68.1451 13.7808C68.9156 13.4278 69.5579 12.8446 69.984 12.1112C70.4154 11.344 70.6328 10.4744 70.6134 9.59364C70.6114 7.82496 70.0092 6.50995 68.8069 5.64861C67.6046 4.78727 65.7717 4.35618 63.3082 4.35535H56.1807L56.1836 6.88669H58.688L58.7056 22.1161H56.2012L56.2041 24.6474H63.2165C66.0298 24.6474 68.1421 24.1424 69.5534 23.1322C70.9647 22.122 71.6685 20.6522 71.6646 18.723C71.6632 17.5472 71.3598 16.5308 70.7544 15.6736C70.149 14.8165 69.2793 14.1855 68.1451 13.7808ZM61.7246 6.88167H63.7281C64.9553 6.88167 65.9056 7.12209 66.579 7.60294C67.2524 8.08378 67.5872 8.79961 67.5832 9.75043C67.5856 11.7875 66.3095 12.8065 63.755 12.8074H61.7315L61.7246 6.88167ZM67.8379 20.9244C67.3204 21.4378 66.6559 21.7767 65.9369 21.8941C64.9511 22.0584 63.9525 22.1327 62.9531 22.1161H61.7422L61.7344 15.3299H63.6841C65.3537 15.3299 66.5841 15.6059 67.3753 16.1578C68.1665 16.7097 68.5636 17.546 68.5665 18.6666C68.5677 19.6743 68.3248 20.4269 67.8379 20.9244Z" fill="white"/>
<path d="M86.6475 15.489C86.6454 13.63 86.2071 12.2698 85.3326 11.4085C84.4581 10.5471 83.0748 10.1165 81.1825 10.1165C79.7746 10.1165 78.5603 10.3924 77.5397 10.9443C76.4966 11.5177 75.6497 12.3917 75.1088 13.4531L77.7713 14.1129C78.0667 13.5909 78.4995 13.1601 79.0225 12.8673C79.5282 12.5939 80.1577 12.4567 80.9109 12.4559C81.9781 12.4559 82.745 12.6938 83.2115 13.1696C83.678 13.6454 83.9119 14.4357 83.9132 15.5404L83.9149 17.062C82.7814 16.2728 81.4341 15.85 80.0543 15.8502C79.203 15.8563 78.3635 16.049 77.5949 16.4147C76.8137 16.7644 76.1427 17.3208 75.654 18.0241C75.197 18.7068 74.9479 19.5079 74.9368 20.3302C74.9258 21.1525 75.1533 21.9606 75.5917 22.6565C76.0364 23.3454 76.6476 23.9108 77.3685 24.3002C78.0894 24.6897 78.8966 24.8906 79.7153 24.8843C81.3645 24.8843 82.8606 24.2245 84.2035 22.9049L84.2055 24.6422H89.0192L89.0164 22.1673H86.6552L86.6475 15.489ZM83.9246 21.0358C82.7334 22.1765 81.4568 22.7464 80.0949 22.7456C79.36 22.7456 78.7589 22.5235 78.2916 22.0795C78.0618 21.8548 77.881 21.5848 77.7606 21.2867C77.6401 20.9886 77.5827 20.6688 77.5918 20.3475C77.601 20.0262 77.6766 19.7103 77.8138 19.4199C77.951 19.1294 78.1469 18.8707 78.3891 18.66C78.9147 18.2 79.5927 17.9527 80.291 17.9664C81.501 17.9664 82.7124 18.4376 83.9251 19.3801L83.9246 21.0358Z" fill="white"/>
<path d="M107.838 24.6467L107.835 22.1693H105.466L105.458 15.1272C105.456 13.4756 105.152 12.2593 104.546 11.4782C103.939 10.6972 103.004 10.3066 101.74 10.3066C100.217 10.3066 98.589 10.9397 96.8566 12.2058L96.8546 10.4948H91.6303L91.6332 12.986H94.1213L94.132 22.1693H91.6439L91.6467 24.6467H99.3127L99.3099 22.1693H96.8756L96.8669 14.643C98.4065 13.4229 99.7952 12.8129 101.033 12.8129C101.618 12.8129 102.035 13.0056 102.286 13.3912C102.537 13.7767 102.668 14.4143 102.677 15.3041L102.688 24.6492L107.838 24.6467Z" fill="white"/>
<path d="M126.397 12.8124L126.394 10.4955H118.571L118.574 12.8124H120.805L115.661 17.1475L115.646 4.35535H110.337L110.34 6.8064H112.867L112.884 22.17H110.357L110.36 24.6474H118.063L118.06 22.17H115.667L115.662 17.5113L122.741 24.6474H126.41L126.408 22.17H123.934L118.941 17.2014L124.219 12.8124H126.397Z" fill="white"/>
<path d="M41.5951 14.8206H37.1319L37.1347 17.2842H41.0881C40.5486 18.7077 39.5909 19.9335 38.3413 20.8003C37.0916 21.6671 35.6086 22.1342 34.0876 22.1399C29.9325 22.1399 26.5601 18.7205 26.5553 14.502C26.5504 10.2835 29.9148 6.86411 34.0699 6.86411C35.4798 6.86824 36.8606 7.26941 38.0546 8.0218C39.2485 8.77419 40.2074 9.84745 40.8217 11.119H43.7667C43.1095 9.14996 41.8506 7.4372 40.1682 6.2233C38.4858 5.0094 36.4652 4.35589 34.3927 4.35535H33.7438C32.4473 4.35535 31.1637 4.61109 29.9665 5.10798C28.7692 5.60486 27.6817 6.33315 26.766 7.25126C25.8503 8.16938 25.1244 9.25932 24.6298 10.4589C24.1351 11.6584 23.8814 12.944 23.883 14.2424L23.8836 14.7617C23.8867 17.3835 24.9297 19.898 26.7832 21.752C28.6368 23.6059 31.149 24.6474 33.7673 24.6474H34.4162C37.0241 24.6472 39.5247 23.6136 41.3721 21.7724C43.2194 19.9312 44.2633 17.4321 44.2758 14.8206H41.5951V14.8206Z" fill="white"/>
<path d="M18.7248 14.8206H14.2615L14.2644 17.2842H18.2178C17.6781 18.7076 16.7204 19.9333 15.4708 20.8001C14.2212 21.6669 12.7382 22.134 11.2173 22.1399C7.06094 22.1399 3.68856 18.7205 3.68368 14.502C3.6788 10.2835 7.04325 6.86411 11.1996 6.86411C12.6093 6.86847 13.9898 7.26976 15.1835 8.02213C16.3772 8.77451 17.3359 9.84764 17.9501 11.119H20.8964C20.239 9.15006 18.98 7.43741 17.2977 6.22354C15.6153 5.00966 13.5948 4.35608 11.5224 4.35535H10.8722C8.25385 4.35568 5.74401 5.39749 3.89479 7.25163C2.04557 9.10577 1.00841 11.6204 1.01145 14.2424L1.01205 14.7617C1.01542 17.3834 2.05854 19.8977 3.91202 21.7516C5.7655 23.6055 8.27756 24.6471 10.8957 24.6474H11.5459C14.1539 24.6475 16.6547 23.614 18.5021 21.7728C20.3495 19.9315 21.3933 17.4322 21.4055 14.8206H18.7248V14.8206Z" fill="white"/>
</svg>
