<svg width="159" height="36" viewBox="0 0 159 36" fill="none" xmlns="http://www.w3.org/2000/svg">
<g clip-path="url(#clip0_193_12703)">
<path d="M18.8008 6.10352e-05C8.86404 6.10352e-05 0.808105 8.05925 0.808105 18C0.808105 25.4357 5.31456 31.8167 11.7438 34.5606L11.7438 34.5363L12.1019 28.75L13.0986 26.9149L13.0191 23.6425L13.5385 22.1656L13.0589 21.8074L13.0191 20.4918L12.1019 18.3781C12.1019 18.3781 11.1051 18.6965 11.3438 19.8153C11.5825 20.934 11.3261 21.374 11.2642 21.803C11.2024 22.2319 10.2144 24.7237 10.6962 25.6966C11.1758 26.6694 11.4919 28.0602 10.7095 29.3757C10.7095 29.3757 7.88274 27.4079 7.36999 26.7159L7.28158 24.9272C7.28158 24.9272 8.28719 23.7863 7.99766 23.1163L7.86285 19.1144C7.86285 19.1144 8.39991 17.7723 9.78566 16.8348C9.78566 16.8348 9.40552 16.6115 9.40552 15.024L8.84635 14.1528L8.82425 13.1468L9.89617 12.2978L10.2321 12.656C10.2321 12.656 11.8853 10.0624 12.6898 9.27973L12.734 8.18306L15.0126 5.7244L15.8834 5.47898C15.8834 5.47898 15.2358 2.37028 18.7212 2.34817C18.7212 2.34817 21.4264 2.34817 21.2695 5.54531L22.0077 5.7244L24.22 8.09462L24.3327 9.27973L26.8147 12.5432L27.2833 12.3199L28.2889 13.1468L28.2447 14.2877L27.7076 14.8692L27.6192 16.5452L27.4623 16.9033L29.1906 18.6412L29.3387 23.3529L28.7751 23.8261L29.8404 24.9824L29.9001 26.7004L26.702 29.2785L25.6655 29.1591L24.9648 34.9144C31.8671 32.3982 36.7935 25.774 36.7935 18C36.7935 8.05925 28.7375 6.10352e-05 18.8008 6.10352e-05Z" fill="white"/>
<path d="M26.3308 25.6966C26.3772 25.6037 26.4236 25.5109 26.4347 25.407C26.4479 25.2809 26.4082 25.1549 26.3617 25.0377L26.2358 24.7923C25.754 23.804 25.5771 19.7047 25.5771 19.7047L25.8291 19.5787C25.4755 19.0724 24.7152 16.2378 24.7152 16.2378L23.4289 14.6724C22.8565 14.0423 22.0807 13.3524 22.1205 12.5034C22.1625 11.65 22.7791 12.0723 22.6421 10.0293C22.6023 9.43672 21.7713 8.83974 21.1768 8.8508C20.5822 8.86406 20.0408 9.3328 19.6894 9.81259C19.4308 10.1641 19.3623 10.7125 19.3799 11.1481C19.3998 11.5836 19.5214 11.9109 19.8971 12.132C19.8617 13.2706 19.3623 13.6111 18.7744 13.7482C18.1887 13.8853 17.4991 14.2302 17.4991 14.2302C17.4991 14.2302 15.8084 16.543 15.4989 17.0603C15.1895 17.5777 15.1188 20.2354 15.3619 21.3033C15.6028 22.3734 15.2934 23.9609 15.2934 23.9609C14.6038 24.8232 15.6735 25.617 15.6735 25.617C17.0195 26.2029 16.8803 24.4783 16.8118 23.9963C16.7433 23.5143 16.604 21.4426 16.7079 20.0629C16.8118 18.6832 17.95 19.4084 17.95 19.4084L18.0185 21.8583H18.3279C18.3279 21.8583 18.3964 22.0993 18.3964 22.2386C18.3964 22.3778 18.5003 23.7575 18.087 24.653C17.6737 25.5507 18.1909 26.1012 18.1909 26.3091C18.1909 26.5169 18.1224 27.6556 17.95 27.8966C17.7776 28.1376 17.5698 29.2762 17.5698 29.7936C17.5698 30.311 16.3079 35.487 16.2283 35.8142C17.0681 35.9336 17.9257 36 18.8009 36C19.1832 36 19.5634 35.9845 19.9413 35.9602C19.9767 35.8894 20.0098 35.8187 20.0386 35.7457C20.2397 35.2416 20.3192 34.6977 20.3966 34.1604C20.569 32.9797 20.7392 31.799 20.9116 30.6206C20.9447 30.395 20.9801 30.1651 21.0972 29.9705C21.2143 29.7759 21.442 29.63 21.663 29.6742C21.8862 29.7185 22.0652 30.0899 21.9282 30.269C22.3725 31.998 22.8189 33.7624 22.8454 35.5379C23.9947 35.2748 25.102 34.9011 26.154 34.4279C26.1076 31.9848 25.944 29.5394 25.6213 27.1205C25.8578 26.6473 26.0943 26.172 26.333 25.6988L26.3308 25.6966Z" fill="white"/>
<path d="M46.8428 15.4662C47.5324 15.4772 48.191 15.4817 48.8143 15.4817C49.8818 15.4817 50.7172 15.4772 51.3228 15.4662C51.2565 16.156 51.1902 17.1333 51.1239 18.398C51.0554 19.6627 51.0156 20.6179 51.0001 21.2613C50.421 21.3674 49.9414 21.4448 49.5613 21.4912C49.1812 21.5399 48.7237 21.5819 48.191 21.6195C47.6562 21.6571 47.181 21.677 46.7633 21.677C46.0781 21.677 45.4063 21.6217 44.7454 21.5111C44.0846 21.4006 43.4945 21.2215 42.9729 20.9738C42.4513 20.7262 42.0181 20.3923 41.6689 19.9678C41.3197 19.5433 41.0523 19.0436 40.8644 18.4643C40.6766 17.885 40.5815 17.2859 40.5815 16.6646C40.5815 15.6409 40.8357 14.6923 41.344 13.8145C41.8524 12.939 42.5839 12.2447 43.5387 11.7318C44.4935 11.221 45.7267 10.9645 47.2362 10.9645C48.3391 10.9645 49.5613 11.0972 50.9006 11.3647C50.9006 12.101 50.9338 12.9191 50.9979 13.8212C50.6354 13.6996 50.3415 13.6089 50.1183 13.5448C49.895 13.4829 49.632 13.4232 49.3337 13.3701C49.0331 13.3171 48.7502 13.2773 48.4805 13.2529C48.2109 13.2286 47.97 13.2154 47.76 13.2154C47.2053 13.2154 46.6815 13.295 46.1886 13.4542C45.6958 13.6133 45.2714 13.8566 44.9156 14.1882C44.5598 14.5177 44.2946 14.9134 44.1178 15.3711C43.9409 15.8288 43.8525 16.313 43.8525 16.8215C43.8525 17.3301 43.9542 17.8032 44.1553 18.2079C44.3564 18.6125 44.6769 18.922 45.1145 19.1343C45.5521 19.3465 46.0406 19.4527 46.5798 19.4527C47.0285 19.4527 47.5191 19.3863 48.054 19.2559L48.1402 17.6153C47.8131 17.5998 47.6186 17.5932 47.5567 17.5932L46.7544 17.5998L46.8075 16.6712C46.8119 16.5695 46.8207 16.4258 46.8296 16.2356C46.8406 16.0477 46.8451 15.789 46.8451 15.4618L46.8428 15.4662Z" fill="white"/>
<path d="M50.3835 21.4802L51.0112 20.3923L54.9187 13.0318L55.3342 12.2071C55.4558 11.9661 55.6238 11.6168 55.8404 11.1635C56.7266 11.1746 57.3742 11.179 57.7809 11.179C58.4903 11.179 59.1489 11.1746 59.7523 11.1635L60.8551 14.3142L63.0984 20.3746L63.536 21.4779C62.663 21.4691 62.1348 21.4625 61.947 21.4625C61.5226 21.4625 60.9016 21.4669 60.0794 21.4779C59.8584 20.6466 59.5379 19.6693 59.1224 18.5461H55.3188C54.8812 19.4327 54.4281 20.41 53.9595 21.4779C53.0224 21.4691 52.4478 21.4625 52.2356 21.4625C51.8533 21.4625 51.2344 21.4669 50.3835 21.4779L50.3835 21.4802ZM56.2316 16.3484H58.5787C57.9952 14.5729 57.677 13.5956 57.6217 13.4143C57.2902 14.1528 57.0073 14.7586 56.7775 15.2318L56.2338 16.3484H56.2316Z" fill="white"/>
<path d="M62.8198 21.4802L63.0077 19.9546L63.4718 14.657L63.7039 11.1658C64.6343 11.1768 65.3637 11.1812 65.8941 11.1812C66.3339 11.1812 67.0058 11.1768 67.9098 11.1658C67.9761 11.5991 68.0313 11.9286 68.0755 12.1519C68.1197 12.3752 68.2324 12.8152 68.4115 13.4674C68.5905 14.1197 68.7319 14.6835 68.8402 15.1611C68.9485 15.6365 69.1099 16.4523 69.3265 17.6065C69.5475 16.8149 69.7508 16.1362 69.932 15.5657C70.1133 14.9975 70.3409 14.3496 70.6127 13.6244C70.8846 12.8992 71.057 12.4238 71.1321 12.2005C71.2051 11.9772 71.3045 11.6323 71.4305 11.168C72.1864 11.179 72.9268 11.1835 73.6517 11.1835C74.1445 11.1835 74.8297 11.179 75.7071 11.168C75.6121 12.866 75.548 14.3253 75.5192 15.5436C75.4529 17.9315 75.422 19.5743 75.422 20.472C75.422 20.6577 75.4264 20.996 75.4375 21.4846C74.7722 21.4758 74.3059 21.4691 74.0407 21.4691C73.6539 21.4691 73.1765 21.4736 72.6129 21.4846C72.6549 21.0314 72.7057 19.9524 72.7654 18.2455C72.8273 16.5408 72.8582 15.4507 72.8582 14.9776C72.8582 14.772 72.8538 14.4845 72.8428 14.1153L71.8526 17.1908L70.4293 21.4824C69.7751 21.4736 69.3242 21.4669 69.0767 21.4669C68.7651 21.4669 68.2855 21.4714 67.6423 21.4824L66.7119 17.3257L66.166 15.1125C66.1461 15.0262 66.124 14.9201 66.0975 14.7941C66.0731 14.668 66.0311 14.4469 65.9759 14.1285L65.7858 16.2224L65.5339 20.514L65.5118 21.4824C64.8178 21.4736 64.3735 21.4669 64.1813 21.4669C63.9183 21.4669 63.4652 21.4714 62.822 21.4824L62.8198 21.4802Z" fill="white"/>
<path d="M76.3394 21.4802C76.4653 20.1801 76.5582 19.0922 76.6156 18.2145C76.6731 17.3367 76.7328 16.1737 76.7902 14.7188C76.8477 13.2662 76.8764 12.3022 76.8764 11.829L76.8698 11.1635C78.0589 11.1746 79.4954 11.179 81.1818 11.179C82.7377 11.179 84.1102 11.1746 85.297 11.1635L85.2816 11.4111C85.2771 11.4708 85.2639 11.6897 85.244 12.0656L85.1976 12.8859C85.1865 13.0628 85.1821 13.2397 85.1821 13.421C84.2097 13.3812 83.3941 13.3613 82.7355 13.3613C82.0106 13.3613 81.5199 13.3613 81.2658 13.3657C81.0116 13.3679 80.6138 13.379 80.0767 13.3989L79.9861 15.1367C80.5806 15.1522 81.2724 15.1588 82.0636 15.1588C82.3465 15.1588 83.0957 15.1411 84.3157 15.1058C84.2649 15.7514 84.2185 16.5186 84.1721 17.4097C83.3013 17.3986 82.6316 17.3942 82.1631 17.3942C81.4691 17.3942 80.6911 17.4119 79.8292 17.4472L79.7386 19.2846H80.6071C80.8635 19.2846 81.3939 19.278 82.2006 19.2625L83.7632 19.2249C83.9953 19.2205 84.382 19.2006 84.9257 19.1652C84.8661 19.9103 84.8152 20.682 84.7754 21.4779C83.5466 21.4691 82.1984 21.4625 80.7331 21.4625L77.4091 21.4691L76.3372 21.4757L76.3394 21.4802Z" fill="white"/>
<path d="M85.4605 21.4802C85.75 17.434 85.8959 14.3209 85.8959 12.1386L85.8892 11.1635C86.7711 11.1746 87.3612 11.179 87.6573 11.179C87.7944 11.179 88.3358 11.1746 89.2818 11.1635C89.1912 12.2978 89.1182 13.3701 89.0608 14.3828C88.99 15.7934 88.9392 17.1112 88.9083 18.3383C88.8773 19.5654 88.8619 20.6112 88.8619 21.4779L87.3148 21.4625C87.012 21.4625 86.3931 21.4669 85.4583 21.4779L85.4605 21.4802Z" fill="white"/>
<path d="M89.6133 21.4802L89.7636 19.8926L90.0575 14.511L90.1415 12.342L90.1415 11.1635C90.9239 11.1746 91.6134 11.179 92.2146 11.179C92.6434 11.179 93.2467 11.1746 94.0225 11.1635L97.2471 17.0294L97.6913 17.8917C97.7488 17.0448 97.8062 15.8575 97.8659 14.3319C97.9256 12.8041 97.9543 11.7494 97.9543 11.1635C98.5732 11.1746 99.0682 11.179 99.4417 11.179C99.6119 11.179 100.105 11.1746 100.92 11.1635L100.739 13.4165L100.399 19.6737L100.352 21.4802C99.6981 21.4713 99.0837 21.4647 98.5157 21.4647C98.0427 21.4647 97.3863 21.4691 96.5509 21.4802C96.2901 20.9871 96.0956 20.6289 95.9696 20.4056L94.7032 18.2498C94.2855 17.5445 93.9009 16.868 93.5495 16.2245C93.3175 15.8155 93.0788 15.3667 92.8334 14.878L92.6699 18.4621L92.5925 21.4779C91.9693 21.4691 91.4941 21.4625 91.167 21.4625C90.8907 21.4625 90.3714 21.4669 89.6133 21.4779L89.6133 21.4802Z" fill="white"/>
<path d="M101.099 21.3232C101.033 20.2508 100.958 19.3907 100.872 18.7451C101.438 18.9972 101.939 19.1718 102.381 19.2713C102.823 19.3708 103.21 19.4195 103.544 19.4195C103.984 19.4195 104.333 19.3553 104.591 19.2271C104.852 19.0989 104.98 18.9087 104.98 18.6567C104.98 18.5704 104.967 18.4886 104.943 18.4112C104.919 18.3339 104.87 18.2454 104.799 18.1459C104.729 18.0464 104.627 17.9403 104.496 17.8253L103.073 16.5849C102.739 16.3019 102.507 16.0985 102.377 15.9725C102.109 15.716 101.902 15.4772 101.751 15.2539C101.603 15.0328 101.495 14.8073 101.427 14.5773C101.358 14.3474 101.325 14.1042 101.325 13.8477C101.325 13.5404 101.378 13.2397 101.486 12.9456C101.595 12.6515 101.756 12.3751 101.975 12.1187C102.191 11.8622 102.479 11.6411 102.837 11.4531C103.195 11.2674 103.577 11.1392 103.986 11.0706C104.395 11.0021 104.815 10.9689 105.248 10.9689C106.099 10.9689 107.025 11.0662 108.028 11.263C108.044 11.6101 108.061 11.9285 108.081 12.2182C108.101 12.5078 108.15 13.0163 108.225 13.7416C107.761 13.5558 107.339 13.4254 106.956 13.3524C106.574 13.2795 106.245 13.2419 105.966 13.2419C105.573 13.2419 105.248 13.3148 104.987 13.4608C104.729 13.6067 104.598 13.788 104.598 14.0047C104.598 14.1064 104.618 14.2037 104.658 14.2987C104.698 14.3938 104.773 14.5066 104.885 14.6348C104.996 14.7631 105.142 14.9046 105.323 15.0571C105.504 15.2119 105.789 15.4396 106.176 15.7403L106.72 16.1715C106.881 16.3019 107.054 16.4611 107.241 16.6468C107.427 16.8326 107.588 17.0161 107.725 17.1996C107.862 17.3831 107.966 17.5467 108.039 17.6993C108.112 17.8496 108.165 18.0022 108.201 18.157C108.236 18.3117 108.254 18.4754 108.254 18.6522C108.254 19.1055 108.145 19.5367 107.929 19.9479C107.712 20.3592 107.405 20.6952 107.007 20.9606C106.609 21.2259 106.172 21.4094 105.697 21.5155C105.221 21.6217 104.717 21.6747 104.189 21.6747C103.374 21.6747 102.344 21.5553 101.099 21.3187L101.099 21.3232Z" fill="white"/>
<path d="M108.658 21.4802C108.948 17.434 109.093 14.3209 109.093 12.1386L109.087 11.1635C109.969 11.1746 110.559 11.179 110.855 11.179C110.992 11.179 111.533 11.1746 112.479 11.1635C112.389 12.2978 112.316 13.3701 112.258 14.3828C112.188 15.7934 112.137 17.1112 112.106 18.3383C112.075 19.5654 112.059 20.6112 112.059 21.4779L110.512 21.4625C110.209 21.4625 109.591 21.4669 108.656 21.4779L108.658 21.4802Z" fill="white"/>
<path d="M112.817 21.4802C112.928 20.3305 113.005 19.4129 113.045 18.7208C113.105 17.6927 113.167 16.3639 113.226 14.7299C113.273 13.4807 113.295 12.5852 113.295 12.048L113.295 11.1635C113.885 11.179 114.393 11.1857 114.82 11.1857C115.246 11.1857 115.775 11.1746 116.444 11.1525C117.114 11.1304 117.744 11.1193 118.332 11.1193C119.006 11.1193 119.598 11.1591 120.106 11.2409C120.615 11.3205 121.09 11.4886 121.53 11.7406C121.97 11.9927 122.339 12.3221 122.637 12.7312C122.935 13.1402 123.161 13.6156 123.318 14.1639C123.475 14.71 123.552 15.2738 123.552 15.8531C123.552 16.4324 123.492 16.9697 123.371 17.4959C123.249 18.0221 123.081 18.4975 122.865 18.9198C122.648 19.3421 122.396 19.7069 122.104 20.0121C121.815 20.3172 121.483 20.5781 121.112 20.7948C120.836 20.9562 120.555 21.0822 120.274 21.1729C119.991 21.2635 119.607 21.3365 119.118 21.3917C118.575 21.4514 117.958 21.4824 117.269 21.4824L114.216 21.4603C113.929 21.4603 113.463 21.4669 112.82 21.4824L112.817 21.4802ZM116.084 19.205C116.36 19.2294 116.65 19.2426 116.953 19.2426C117.465 19.2426 117.925 19.1962 118.327 19.1055C118.729 19.0149 119.083 18.8203 119.388 18.524C119.693 18.2278 119.919 17.8453 120.064 17.3787C120.21 16.9122 120.283 16.4346 120.283 15.946C120.283 15.3468 120.175 14.8405 119.958 14.4314C119.742 14.0202 119.452 13.735 119.094 13.5736C118.734 13.4122 118.243 13.3326 117.624 13.3326C117.262 13.3326 116.833 13.348 116.34 13.379L116.086 19.205H116.084Z" fill="white"/>
<path d="M123.645 21.4802C123.771 20.1801 123.864 19.0922 123.921 18.2145C123.979 17.3367 124.038 16.1737 124.096 14.7188C124.153 13.2662 124.182 12.3022 124.182 11.829L124.175 11.1635C125.364 11.1746 126.801 11.179 128.487 11.179C130.043 11.179 131.416 11.1746 132.602 11.1635L132.587 11.4111C132.583 11.4708 132.569 11.6897 132.549 12.0656L132.503 12.8859C132.492 13.0628 132.488 13.2397 132.488 13.421C131.515 13.3812 130.7 13.3613 130.041 13.3613C129.316 13.3613 128.825 13.3613 128.571 13.3657C128.317 13.3679 127.919 13.379 127.382 13.3989L127.289 15.1367C127.884 15.1522 128.576 15.1588 129.367 15.1588C129.65 15.1588 130.399 15.1411 131.619 15.1058C131.568 15.7514 131.522 16.5186 131.475 17.4097C130.604 17.3986 129.935 17.3942 129.466 17.3942C128.772 17.3942 127.994 17.4119 127.132 17.4472L127.042 19.2846H127.91C128.167 19.2846 128.697 19.278 129.504 19.2625L131.066 19.2249C131.298 19.2205 131.685 19.2006 132.229 19.1652C132.169 19.9103 132.118 20.682 132.079 21.4779C130.85 21.4691 129.502 21.4625 128.036 21.4625L124.712 21.4691L123.64 21.4757L123.645 21.4802Z" fill="white"/>
<path d="M132.722 21.4802C132.762 20.8058 132.797 19.8926 132.828 18.7451L134.384 18.7672C134.55 18.7672 134.987 18.7606 135.699 18.7451C135.659 19.2935 135.613 20.2066 135.562 21.4802L134.247 21.4647C134.152 21.4647 133.644 21.4691 132.722 21.4802Z" fill="white"/>
<path d="M136.641 11.1658C137.425 11.1768 137.98 11.1812 138.303 11.1812C138.705 11.1812 139.242 11.1768 139.912 11.1658L139.686 14.3784C139.642 14.982 139.606 15.5502 139.584 16.0787C139.562 16.6071 139.551 16.9719 139.551 17.1753C139.551 17.5578 139.578 17.8784 139.635 18.1349C139.69 18.3914 139.792 18.6103 139.938 18.7894C140.084 18.9685 140.287 19.1034 140.546 19.194C140.804 19.2847 141.076 19.3311 141.357 19.3311C141.598 19.3311 141.825 19.2979 142.035 19.2316C142.201 19.1785 142.349 19.1034 142.48 19.0061C142.595 18.9154 142.696 18.8115 142.782 18.6921C142.889 18.5484 142.981 18.3693 143.061 18.1526C143.141 17.9492 143.202 17.6839 143.242 17.3611C143.289 17.0316 143.348 16.2821 143.423 15.1125C143.49 14.1175 143.538 13.2043 143.574 12.3774C143.605 11.5726 143.631 11.1724 143.658 11.1724H146.988L146.621 16.5386C146.617 16.6403 146.615 16.7221 146.615 16.7884C146.595 17.8364 146.531 18.5749 146.423 19.0061C146.314 19.4372 146.135 19.8109 145.883 20.1293C145.631 20.4477 145.264 20.7329 144.78 20.9871C144.296 21.2414 143.748 21.4227 143.134 21.5266C142.519 21.6328 141.896 21.6858 141.269 21.6858C140.705 21.6858 140.161 21.646 139.637 21.5642C139.153 21.4846 138.718 21.3674 138.329 21.2127C137.942 21.0601 137.604 20.8788 137.317 20.6732C137.054 20.4808 136.853 20.2862 136.711 20.0873C136.57 19.8883 136.459 19.6495 136.38 19.3731C136.289 19.0613 136.243 18.7253 136.243 18.3671C136.243 18.2455 136.247 18.0642 136.258 17.8187C136.269 17.5755 136.291 17.224 136.327 16.7641L136.426 15.5547C136.45 15.2363 136.479 14.772 136.51 14.1573L136.647 11.1724L136.641 11.1658Z" fill="white"/>
<path d="M145.746 21.4802L146.374 20.3923L150.282 13.0318L150.697 12.2071C150.819 11.9661 150.987 11.6168 151.203 11.1635C152.089 11.1746 152.737 11.179 153.144 11.179C153.853 11.179 154.512 11.1746 155.115 11.1635L156.218 14.3142L158.459 20.3746L158.897 21.4779C158.024 21.4691 157.495 21.4625 157.308 21.4625C156.883 21.4625 156.262 21.4669 155.44 21.4779C155.219 20.6466 154.899 19.6693 154.483 18.5461H150.679C150.242 19.4327 149.789 20.41 149.32 21.4779C148.383 21.4691 147.808 21.4625 147.596 21.4625C147.214 21.4625 146.595 21.4669 145.744 21.4779L145.746 21.4802ZM151.594 16.3484H153.942C153.358 14.5729 153.04 13.5956 152.985 13.4143C152.653 14.1528 152.37 14.7586 152.14 15.2318L151.597 16.3484H151.594Z" fill="white"/>
</g>
<defs>
<clipPath id="clip0_193_12703">
<rect width="158.091" height="36" fill="white" transform="translate(0.808105 6.10352e-05)"/>
</clipPath>
</defs>
</svg>
