<svg width="184" height="48" viewBox="0 0 184 48" fill="none" xmlns="http://www.w3.org/2000/svg">
<g clip-path="url(#clip0_1_6875)">
<path d="M94.7917 8.20989C94.5816 8.2399 94.3715 8.99037 93.9512 9.41064C93.651 9.71082 93.2908 9.71082 93.0807 10.041C92.9906 10.1611 93.0507 10.4013 92.9606 10.6114C92.7805 11.0617 92.2101 11.1217 92.2101 11.572C92.2101 12.0823 92.7205 12.2024 93.1407 12.5626C93.4709 12.8628 93.531 13.0729 93.8912 13.193C94.2214 13.3131 94.7317 12.9528 95.182 13.0729C95.5722 13.193 95.9325 13.2831 96.0225 13.6433C96.1126 14.0035 96.0225 14.5438 95.5722 14.4838C95.3921 14.4838 94.7317 14.2437 93.9512 14.3037C92.9306 14.4238 91.8199 14.724 91.7298 15.8347C91.6998 16.465 92.4503 17.1555 93.1407 17.0354C93.651 16.9453 93.3809 16.315 93.6811 16.0448C94.0713 15.6846 96.1126 17.3356 98.0338 17.3356C98.8443 17.3356 99.4447 17.1255 100.045 16.4951C100.075 16.465 100.165 16.315 100.255 16.315C100.345 16.315 100.465 16.405 100.495 16.435C102.056 17.6658 103.227 20.1273 108.871 20.1574C109.681 20.1574 110.582 20.5176 111.332 21.208C111.993 21.8384 112.383 22.769 112.743 23.7296C113.343 25.1705 114.334 26.5814 115.895 28.1123C115.985 28.2024 117.246 29.193 117.366 29.223C117.366 29.223 117.486 29.4632 117.456 29.5832C117.426 30.5438 117.276 33.2455 119.347 33.3656C119.857 33.3956 119.737 33.0354 119.737 32.7952C119.737 32.345 119.647 31.8346 119.917 31.3844C120.248 30.724 119.197 30.4238 119.197 28.9829C119.227 27.9022 118.326 28.0823 117.846 27.2718C117.606 26.8215 117.336 26.5213 117.336 25.951C117.426 22.6789 116.615 20.5176 116.255 20.0073C115.955 19.587 115.655 19.4669 115.955 19.2568C117.666 18.1461 118.056 17.0954 118.056 17.0954C118.987 14.9941 119.767 13.0429 120.908 12.2024C121.118 12.0223 121.719 11.572 122.079 11.4219C123.129 10.9116 123.67 10.6414 123.97 10.3412C124.42 9.89094 124.841 8.90032 124.39 8.29994C123.79 7.54947 122.829 8.11983 122.379 8.42002C119.227 10.2812 118.777 13.5232 117.696 15.3844C116.826 16.8853 115.445 17.996 114.184 18.0861C113.223 18.1761 112.203 17.966 111.212 17.5157C108.75 16.435 107.4 15.0842 107.069 14.814C106.409 14.3037 101.276 9.29056 97.1032 9.08043C97.1032 9.08043 96.5929 8.02977 96.4728 8.02977C96.1726 7.99975 95.8424 8.66017 95.6323 8.75022C95.3621 8.96035 95.0019 8.14985 94.7917 8.20989ZM76.4803 38.0485C76.0901 38.0485 75.7899 37.7183 75.7599 37.3281V24.42H71.4371V38.6489C71.4371 39.3694 72.0375 39.9397 72.6979 39.9397H80.1726C80.8931 39.9397 81.4334 39.3694 81.4334 38.6489V24.45H77.2008V37.3581C77.1707 37.7483 76.8705 38.0485 76.4803 38.0485ZM90.8293 24.45H84.3152C83.5647 24.45 82.9343 25.0804 82.9343 25.8309V39.9397H87.197V27.0316C87.197 26.6114 87.5272 26.3112 87.9175 26.3112C88.3377 26.3112 88.6379 26.6114 88.6379 27.0316V39.9697H92.9006V26.9716C92.9006 26.6114 93.2308 26.2512 93.621 26.2512C94.0113 26.2512 94.3415 26.5814 94.3415 26.9716V39.9097H98.6041V25.8009C98.6041 25.0204 97.9737 24.42 97.2233 24.42H90.8293V24.45ZM68.5854 36.0373H64.2627V39.9397H60V24.45H68.6454C69.3959 24.45 70.0263 25.0804 70.0263 25.8609V34.6564C70.0263 35.4369 69.3959 36.0373 68.5854 36.0373ZM65.7336 27.0316C65.7336 26.6114 65.4034 26.2812 65.0131 26.2812H64.2927V34.1161H65.0131C65.4034 34.1161 65.7336 33.8159 65.7336 33.3656V27.0316ZM105.478 39.9998V36.1273H104.008V39.9998H99.7148V25.951C99.7148 25.1705 100.345 24.6001 101.096 24.6001H108.33C109.081 24.6001 109.711 25.2305 109.711 25.951V39.9998H105.478ZM105.478 34.2362V27.1517C105.478 26.7915 105.148 26.4613 104.758 26.4613C104.368 26.4613 104.038 26.7915 104.038 27.1517V34.2662L105.478 34.2362Z" fill="white"/>
<path d="M113.614 39.8198C112.443 39.8198 111.512 38.8892 111.512 37.7185C111.512 36.5478 112.443 35.6172 113.614 35.6172C114.784 35.6172 115.715 36.5478 115.715 37.7185C115.715 38.8892 114.784 39.8198 113.614 39.8198ZM113.614 35.9474C112.623 35.9474 111.842 36.7579 111.842 37.7185C111.842 38.6791 112.653 39.4896 113.614 39.4896C114.574 39.4896 115.385 38.6791 115.385 37.7185C115.385 36.7579 114.604 35.9474 113.614 35.9474Z" fill="white"/>
<path d="M112.983 36.8477H113.673C113.823 36.8477 113.944 36.8777 114.034 36.9677C114.154 37.0578 114.214 37.1779 114.214 37.358C114.214 37.5981 114.094 37.7782 113.883 37.8683L114.304 38.6788H113.974L113.613 37.8983H113.283V38.6788H113.013V36.8477H112.983ZM113.253 37.6582H113.673C113.763 37.6582 113.853 37.6281 113.913 37.5681C113.974 37.5081 114.004 37.448 114.004 37.358C114.004 37.2679 113.974 37.1779 113.913 37.1478C113.853 37.1178 113.793 37.0878 113.703 37.0878H113.283V37.6582H113.253Z" fill="white"/>
</g>
<defs>
<clipPath id="clip0_1_6875">
<rect width="64.6004" height="32" fill="white" transform="translate(60 8)"/>
</clipPath>
</defs>
</svg>
