<svg width="184" height="48" viewBox="0 0 184 48" fill="none" xmlns="http://www.w3.org/2000/svg">
<path d="M137.695 13.8947H133.306V8H123.667L119.234 13.8947H111.357L108.723 16.4211V13.8947H102.578V8H83.2633V13.8947H56.0909L51.6573 8H42V28.2106L54.2912 40H66.5823V36.6316L70.0941 40H93.7986V36.6316L97.31 40H108.723V36.6316L112.235 40H134.184L142.085 32.4211V18.1053L137.695 13.8947ZM56.925 22.3158H50.7794V24H56.925V30.7368H47.2677L43.7559 27.3684V9.68419H50.7794V15.579H56.925V22.3158ZM83.2633 30.7368H62.1926L58.6808 27.3684V15.579H65.7044V24H67.4603V15.579H74.484V24H76.2399V15.579H83.2633V30.7368ZM92.0426 30.7368H85.0193V15.579H92.0426V30.7368ZM92.0426 13.8947H85.0193V9.68419H92.0426V13.8947ZM106.968 22.3158H100.822V24H106.968V30.7368H97.31L93.7986 27.3684V9.68419H100.822V15.579H106.968V22.3158ZM122.771 22.3158H115.747V24H122.771V30.7368H112.235L108.723 27.3684V18.9473L112.235 15.579H122.771V22.3158ZM140.329 30.7368H133.306V22.3158H131.55V30.7368H124.527V9.68419H131.55V15.579H136.818L140.329 18.9473V30.7368Z" fill="white"/>
</svg>
