<svg width="184" height="48" viewBox="0 0 184 48" fill="none" xmlns="http://www.w3.org/2000/svg">
<path d="M64.8823 22.2117C59.8023 19.1948 51.4229 18.9174 46.5734 20.3893C45.7946 20.6254 44.9711 20.1858 44.7352 19.4071C44.4992 18.628 44.9384 17.805 45.7177 17.5683C51.2846 15.8783 60.5387 16.2048 66.3869 19.6764C67.0876 20.0921 67.3173 20.9967 66.902 21.6962C66.4865 22.3966 65.5811 22.6275 64.8823 22.2117V22.2117ZM64.716 26.68C64.3597 27.2584 63.6036 27.4396 63.026 27.0847C58.7908 24.4814 52.3326 23.7272 47.322 25.2481C46.6722 25.4445 45.9859 25.0781 45.7886 24.4295C45.5927 23.7798 45.9593 23.0947 46.6079 22.8972C52.3318 21.1603 59.4474 22.0015 64.3117 24.9909C64.8893 25.3465 65.0711 26.1031 64.716 26.68ZM62.7876 30.9714C62.5045 31.4357 61.8997 31.5813 61.4371 31.2983C57.7362 29.0365 53.0781 28.5255 47.5924 29.7787C47.0636 29.8999 46.5369 29.5685 46.4162 29.04C46.2952 28.5114 46.6252 27.9847 47.155 27.864C53.1583 26.4916 58.3079 27.0823 62.4618 29.6206C62.925 29.9034 63.0708 30.5085 62.7876 30.9714V30.9714ZM55.56 8.2404C46.8564 8.2404 39.8003 15.2961 39.8003 23.9998C39.8003 32.7043 46.8564 39.7598 55.56 39.7598C64.2641 39.7598 71.3198 32.7043 71.3198 23.9998C71.3198 15.2961 64.2641 8.2404 55.56 8.2404" fill="white"/>
<path d="M82.677 22.7897C79.956 22.1408 79.4714 21.6853 79.4714 20.7286C79.4714 19.8244 80.3227 19.2161 81.5885 19.2161C82.8155 19.2161 84.032 19.6781 85.3077 20.6293C85.3463 20.6581 85.3947 20.6695 85.4423 20.662C85.4899 20.6549 85.5319 20.6289 85.5599 20.5894L86.8885 18.7165C86.9431 18.6395 86.9282 18.533 86.8547 18.4741C85.3365 17.2559 83.627 16.6637 81.6288 16.6637C78.6908 16.6637 76.6385 18.4267 76.6385 20.9496C76.6385 23.6549 78.4088 24.6127 81.4681 25.352C84.0719 25.9518 84.5113 26.4542 84.5113 27.3526C84.5113 28.3479 83.6227 28.9667 82.1926 28.9667C80.6045 28.9667 79.3088 28.4317 77.8595 27.1766C77.8236 27.1458 77.7743 27.1315 77.7287 27.1341C77.6809 27.138 77.6371 27.1602 77.6066 27.1969L76.1169 28.9699C76.0544 29.0435 76.0623 29.1534 76.1344 29.2169C77.8207 30.7223 79.8944 31.5176 82.1324 31.5176C85.2983 31.5176 87.3441 29.7876 87.3441 27.1102C87.3441 24.8475 85.9922 23.596 82.677 22.7897" fill="white"/>
<path d="M96.8053 25.8222C96.8053 27.7329 95.6284 29.0662 93.9431 29.0662C92.2771 29.0662 91.0204 27.6723 91.0204 25.8222C91.0204 23.9723 92.2771 22.5782 93.9431 22.5782C95.6013 22.5782 96.8053 23.9422 96.8053 25.8222ZM94.5072 20.1059C93.1349 20.1059 92.0093 20.6464 91.0811 21.7539V20.5073C91.0811 20.4089 91.0013 20.3287 90.9029 20.3287H88.4666C88.3682 20.3287 88.2886 20.4089 88.2886 20.5073V34.3586C88.2886 34.457 88.3682 34.5371 88.4666 34.5371H90.9029C91.0013 34.5371 91.0811 34.457 91.0811 34.3586V29.9865C92.0095 31.0283 93.1352 31.5372 94.5072 31.5372C97.057 31.5372 99.6382 29.5743 99.6382 25.8222C99.6382 22.0692 97.057 20.1059 94.5072 20.1059" fill="white"/>
<path d="M106.254 29.0863C104.508 29.0863 103.191 27.683 103.191 25.8223C103.191 23.9538 104.462 22.5979 106.214 22.5979C107.972 22.5979 109.297 24.0012 109.297 25.8631C109.297 27.7313 108.018 29.0863 106.254 29.0863V29.0863ZM106.254 20.106C102.971 20.106 100.398 22.6346 100.398 25.8631C100.398 29.0565 102.953 31.5586 106.214 31.5586C109.509 31.5586 112.09 29.0385 112.09 25.8223C112.09 22.6169 109.527 20.106 106.254 20.106Z" fill="white"/>
<path d="M119.102 20.3289H116.421V17.5877C116.421 17.4893 116.342 17.4093 116.243 17.4093H113.807C113.709 17.4093 113.628 17.4893 113.628 17.5877V20.3289H112.457C112.359 20.3289 112.28 20.4091 112.28 20.5075V22.6015C112.28 22.6998 112.359 22.7799 112.457 22.7799H113.628V28.1983C113.628 30.3879 114.718 31.498 116.868 31.498C117.742 31.498 118.467 31.3176 119.15 30.9301C119.206 30.8991 119.24 30.8392 119.24 30.7756V28.7816C119.24 28.72 119.208 28.662 119.155 28.6297C119.102 28.5964 119.036 28.5947 118.982 28.6216C118.513 28.8577 118.059 28.9667 117.552 28.9667C116.77 28.9667 116.421 28.612 116.421 27.8165V22.7799H119.102C119.201 22.7799 119.28 22.6998 119.28 22.6015V20.5075C119.28 20.4091 119.201 20.3289 119.102 20.3289Z" fill="white"/>
<path d="M128.444 20.3392V20.0025C128.444 19.0121 128.823 18.5704 129.675 18.5704C130.183 18.5704 130.591 18.6712 131.048 18.8237C131.104 18.8414 131.163 18.8325 131.209 18.7988C131.256 18.7651 131.282 18.7111 131.282 18.6539V16.6008C131.282 16.5223 131.232 16.4528 131.156 16.4299C130.674 16.2863 130.056 16.1387 129.131 16.1387C126.881 16.1387 125.691 17.406 125.691 19.8023V20.3179H124.521C124.423 20.3179 124.342 20.3979 124.342 20.4963V22.601C124.342 22.6994 124.423 22.7795 124.521 22.7795H125.691V31.137C125.691 31.2354 125.771 31.3154 125.869 31.3154H128.305C128.404 31.3154 128.484 31.2354 128.484 31.137V22.7795H130.759L134.244 31.1348C133.848 32.0127 133.459 32.1873 132.928 32.1873C132.499 32.1873 132.047 32.0591 131.584 31.8063C131.541 31.7823 131.49 31.7784 131.442 31.7929C131.396 31.8094 131.357 31.8439 131.337 31.8892L130.511 33.7009C130.472 33.7865 130.505 33.8871 130.588 33.9315C131.45 34.3984 132.228 34.5977 133.19 34.5977C134.989 34.5977 135.984 33.7595 136.86 31.5049L141.087 20.5823C141.108 20.5274 141.102 20.4655 141.068 20.4165C141.035 20.3683 140.981 20.3392 140.922 20.3392H138.385C138.31 20.3392 138.241 20.3874 138.217 20.4587L135.618 27.8806L132.772 20.4538C132.746 20.3847 132.68 20.3392 132.606 20.3392H128.444" fill="white"/>
<path d="M123.028 20.3285H120.592C120.493 20.3285 120.413 20.4086 120.413 20.5071V31.137C120.413 31.2354 120.493 31.3154 120.592 31.3154H123.028C123.126 31.3154 123.207 31.2354 123.207 31.137V20.5071C123.207 20.4086 123.126 20.3285 123.028 20.3285Z" fill="white"/>
<path d="M121.822 15.4887C120.857 15.4887 120.074 16.2702 120.074 17.2353C120.074 18.2011 120.857 18.9834 121.822 18.9834C122.787 18.9834 123.57 18.2011 123.57 17.2353C123.57 16.2702 122.787 15.4887 121.822 15.4887Z" fill="white"/>
<path d="M143.267 21.3858H142.821V21.955H143.267C143.49 21.955 143.623 21.846 143.623 21.6703C143.623 21.4851 143.49 21.3858 143.267 21.3858ZM143.556 22.1978L144.041 22.877H143.632L143.196 22.2541H142.821V22.877H142.478V21.077H143.281C143.699 21.077 143.974 21.291 143.974 21.6511C143.974 21.9461 143.804 22.1265 143.556 22.1978V22.1978ZM143.176 20.4782C142.298 20.4782 141.633 21.1762 141.633 22.0313C141.633 22.8858 142.293 23.5746 143.167 23.5746C144.045 23.5746 144.711 22.877 144.711 22.0215C144.711 21.167 144.05 20.4782 143.176 20.4782V20.4782ZM143.167 23.7461C142.203 23.7461 141.453 22.9716 141.453 22.0313C141.453 21.0907 142.213 20.3075 143.176 20.3075C144.14 20.3075 144.891 21.0819 144.891 22.0215C144.891 22.962 144.131 23.7461 143.167 23.7461Z" fill="white"/>
</svg>
