<svg width="184" height="48" viewBox="0 0 184 48" fill="none" xmlns="http://www.w3.org/2000/svg">
<path fill-rule="evenodd" clip-rule="evenodd" d="M31.2193 33.1715V14.3555H28V33.1715H31.2193Z" fill="white"/>
<path fill-rule="evenodd" clip-rule="evenodd" d="M39.6044 19.4805C35.6114 19.4805 32.5918 22.5202 32.5918 26.4643C32.5918 30.4084 35.6863 33.5235 39.6044 33.5235C43.5226 33.5235 46.6171 30.4838 46.6171 26.5397C46.6171 22.5956 43.5974 19.4805 39.6044 19.4805ZM39.6044 30.333C37.4832 30.333 35.8361 28.675 35.8361 26.4643C35.8361 24.329 37.4832 22.6709 39.6044 22.6709C41.7257 22.6709 43.3728 24.329 43.3728 26.4643C43.3978 28.5996 41.8006 30.333 39.6044 30.333Z" fill="white"/>
<path fill-rule="evenodd" clip-rule="evenodd" d="M54.9274 19.4805C50.9344 19.4805 47.8398 22.5202 47.8398 26.5397C47.8398 30.5591 50.9344 33.5235 54.8525 33.5235C58.7706 33.5235 61.8651 30.4838 61.8651 26.5397C61.8651 25.158 61.4409 23.9019 60.7671 22.9473L61.7903 22.5202V19.9076H57.1984C56.4497 19.5559 55.676 19.4805 54.9274 19.4805ZM54.9274 30.333C52.8061 30.333 51.159 28.675 51.159 26.4643C51.159 24.329 52.8061 22.6709 54.9274 22.6709C57.0487 22.6709 58.6958 24.329 58.6958 26.4643C58.7207 28.5996 56.9987 30.333 54.9274 30.333Z" fill="white"/>
<path fill-rule="evenodd" clip-rule="evenodd" d="M58.7217 34.001C58.6468 36.2116 56.9997 37.7943 54.9533 37.7943C52.832 37.7943 51.1849 36.1363 51.1849 34.001H47.8657C47.8657 38.0204 50.9603 40.9848 54.8784 40.9848C58.7966 40.9848 61.9659 37.9451 61.9659 34.001H58.7217Z" fill="white"/>
<path fill-rule="evenodd" clip-rule="evenodd" d="M63.2383 19.9072V33.1714H66.4826V19.9072H63.2383Z" fill="white"/>
<path fill-rule="evenodd" clip-rule="evenodd" d="M64.9611 18.3755C66.2588 18.3755 67.2321 17.3958 67.2321 16.2402C67.0824 14.9338 66.1341 13.9541 64.9611 13.9541C63.7882 13.9541 62.8398 14.9338 62.8398 16.2402C62.8398 17.3958 63.7882 18.3755 64.9611 18.3755Z" fill="white"/>
<path fill-rule="evenodd" clip-rule="evenodd" d="M69.8519 19.9074H68.1299V22.7964H69.8519V33.0962H73.0712V22.7964H74.9182V19.9074H73.0712V15.8125H69.8519V19.9074Z" fill="white"/>
<path fill-rule="evenodd" clip-rule="evenodd" d="M82.2046 19.4805C78.2118 19.4805 75.2666 22.5202 75.2666 26.5397C75.2666 30.5591 77.9371 33.3979 82.2046 33.3979C84.4754 33.3979 86.597 32.4935 88.194 30.9108L85.9232 28.6247C84.8249 29.7301 83.6518 30.3581 82.2794 30.3581C80.4325 30.3581 79.1102 29.2528 78.7105 27.6701H88.9427V26.9165C88.9427 22.5202 86.1224 19.4805 82.2046 19.4805ZM78.6357 25.158C79.1102 23.4246 80.3576 22.47 82.0796 22.47C83.8015 22.47 85.0997 23.4497 85.4486 25.158H78.6357Z" fill="white"/>
<path fill-rule="evenodd" clip-rule="evenodd" d="M96.9801 19.5557C92.9868 19.5557 89.9673 22.5954 89.9673 26.5395C89.9673 30.4836 93.0616 33.5233 96.9801 33.5233C99.2509 33.5233 101.297 32.4179 102.62 30.8855L100.349 28.5995C99.4508 29.5792 98.2776 30.3328 96.9801 30.3328C94.8585 30.3328 93.3363 28.6748 93.3363 26.5395C93.1866 24.4041 94.9086 22.7461 96.9801 22.7461C98.3525 22.7461 99.4508 23.4495 100.349 24.4795L102.62 22.1934C101.297 20.5103 99.3759 19.5557 96.9801 19.5557Z" fill="white"/>
<path fill-rule="evenodd" clip-rule="evenodd" d="M141.425 8C132.566 8 125.354 15.1848 125.354 24.1029C125.354 33.0211 132.566 40.2058 141.425 40.2058V33.4984C136.209 33.4984 132.092 29.2026 132.092 24.1029C132.092 18.8525 136.209 14.7074 141.425 14.7074V8Z" fill="white"/>
<path fill-rule="evenodd" clip-rule="evenodd" d="M156 21.2139H141.625V27.7706H149.411V35.5834H156V21.2139Z" fill="white"/>
<path fill-rule="evenodd" clip-rule="evenodd" d="M116.494 25.3591C116.644 21.6914 114.297 19.4807 111.203 19.4807C109.556 19.4807 108.183 20.0334 107.21 21.1387V14.3057H103.99V33.1217H107.21V25.9118C107.21 23.9775 108.383 22.7214 110.379 22.7214C112.226 22.7214 113.274 23.9021 113.274 25.9118V33.0965H116.494V25.3591Z" fill="white"/>
</svg>
