<svg width="184" height="48" viewBox="0 0 184 48" fill="none" xmlns="http://www.w3.org/2000/svg">
<path d="M28 20.4836C28 14.1668 31.547 12.6768 37.5072 12.6768H47.4617C54.9718 12.6768 56.0147 15.3868 56.0147 19.5891V20.2755H49.5164C49.5164 18.13 48.2942 17.8621 46.1798 17.8621H38.9973C35.6585 17.8621 34.795 18.6658 34.795 22.3611V25.0424C34.795 28.7399 35.6585 29.5436 38.9973 29.5436H46.0602C47.7894 29.5436 49.5164 29.2757 49.5164 27.19V26.5634H41.2911V22.0932H56.1342V28.2329C56.1342 34.4301 52.915 34.729 45.4646 34.729H37.5072C31.547 34.729 28 33.2389 28 26.9221V20.4836Z" fill="white"/>
<path d="M57.7715 12.9141H81.3734V17.9201H64.3872V21.3785H80.4813V25.8487H64.3872V29.3049H81.7609V34.4902H57.7715V12.9141Z" fill="white"/>
<path d="M83.7656 12.9131H90.3836V34.4893H83.7656V12.9131Z" fill="white"/>
<path d="M92.3794 20.4827C92.3794 14.1659 95.9267 12.6758 101.887 12.6758H109.665C119.082 12.6758 120.306 14.7017 120.244 20.8103H113.628V20.2147C113.628 18.6649 112.496 18.2176 110.528 18.2176H103.317C99.83 18.2176 99.1744 19.8582 99.1744 22.5395V24.8643C99.1744 27.9928 99.8301 29.1862 102.961 29.1862H110.024C113.003 29.1862 113.896 28.8872 113.896 26.2038H120.512V28.2319C120.512 31.8674 119.201 34.728 112.554 34.728H101.887C95.9267 34.728 92.3794 33.2379 92.3794 26.9212V20.4827Z" fill="white"/>
<path d="M128.47 24.8643C128.47 27.9928 129.125 29.1862 132.256 29.1862H140.718C143.847 29.1862 144.502 27.9928 144.502 24.8643V22.5395C144.502 19.8582 143.847 18.2176 140.361 18.2176H132.612C129.125 18.2176 128.47 19.8582 128.47 22.5395V24.8643ZM121.675 20.4827C121.675 14.1659 125.222 12.6758 131.182 12.6758H141.789C147.752 12.6758 151.299 14.1659 151.299 20.4827V26.9212C151.299 33.2379 147.752 34.728 141.789 34.728H131.182C125.222 34.728 121.675 33.2379 121.675 26.9212V20.4827Z" fill="white"/>
<path d="M153.815 32.0371C154.149 32.0371 154.67 32.0925 154.67 31.6054C154.67 31.2378 154.344 31.1936 154.05 31.1936H153.368V32.0371H153.815ZM154.933 33.3678H154.588L153.904 32.2674H153.368V33.3678H153.075V30.9788H154.118C154.317 30.9788 154.519 30.9921 154.698 31.0961C154.876 31.198 154.966 31.4106 154.966 31.612C154.966 32.0814 154.636 32.2563 154.211 32.2674L154.933 33.3678ZM155.744 32.17C155.744 31.136 154.904 30.2991 153.87 30.2991C152.83 30.2991 151.993 31.136 151.993 32.17C151.993 33.2172 152.83 34.0542 153.87 34.0542C154.904 34.0542 155.744 33.2172 155.744 32.17ZM151.729 32.17C151.729 30.9965 152.686 30.04 153.87 30.04C155.048 30.04 156 30.9965 156 32.17C156 33.3545 155.048 34.3132 153.87 34.3132C152.686 34.3132 151.729 33.3545 151.729 32.17Z" fill="white"/>
</svg>
