<svg width="184" height="48" viewBox="0 0 184 48" fill="none" xmlns="http://www.w3.org/2000/svg">
<path d="M109.708 14.3076V16.4404H122.044L123.273 14.3076H109.708Z" fill="white"/>
<path d="M109.708 22.9307V25.0634H122.044L123.273 22.9307H109.708Z" fill="white"/>
<path d="M109.708 31.5537V33.6865H122.044L123.273 31.5537H109.708Z" fill="white"/>
<path d="M150.409 20.3126V19.0833C150.409 18.4562 150.286 17.8352 150.046 17.2557C149.806 16.6763 149.454 16.1499 149.011 15.7064C148.567 15.2629 148.041 14.9112 147.461 14.6712C146.882 14.4312 146.261 14.3076 145.634 14.3076H136.838V33.693H138.971V25.0882H142.966L147.945 33.693H150.403L145.425 25.0882H145.628C146.255 25.089 146.877 24.9661 147.457 24.7265C148.037 24.4868 148.564 24.1352 149.008 23.6916C149.453 23.2481 149.805 22.7214 150.045 22.1416C150.286 21.5617 150.409 20.9402 150.409 20.3126V20.3126ZM138.971 16.4404H145.634C146.334 16.442 147.005 16.721 147.501 17.2163C147.996 17.7116 148.275 18.3829 148.277 19.0833V20.3126C148.275 21.013 147.996 21.6843 147.501 22.1796C147.005 22.6749 146.334 22.9538 145.634 22.9555H138.971V16.4404Z" fill="white"/>
<path d="M41.8781 20.3126V19.0833C41.8781 18.4562 41.7546 17.8352 41.5146 17.2557C41.2746 16.6763 40.9228 16.1499 40.4794 15.7064C40.0359 15.2629 39.5094 14.9112 38.93 14.6712C38.3506 14.4312 37.7296 14.3076 37.1025 14.3076H28.3071V33.693H30.4399V25.0882H34.4534L39.4319 33.693H41.8904L36.9119 25.0882H37.1147C38.3792 25.085 39.5908 24.5804 40.4837 23.6851C41.3767 22.7899 41.8781 21.577 41.8781 20.3126H41.8781ZM30.4399 16.4404H37.1025C37.8029 16.442 38.4742 16.721 38.9695 17.2163C39.4648 17.7116 39.7437 18.3829 39.7454 19.0833V20.3126C39.7437 21.013 39.4648 21.6843 38.9695 22.1796C38.4742 22.6749 37.8029 22.9538 37.1025 22.9555H30.4399V16.4404Z" fill="white"/>
<path d="M62.1917 19.9991L67.7233 33.6868H70.0221L63.341 17.1533L62.1917 14.3076L61.0423 17.1533L54.3613 33.6868H56.66L62.1917 19.9991Z" fill="white"/>
<path d="M152.112 14.3076H153.47V14.5781H152.948V16.1884H152.64V14.5781H152.112V14.3076Z" fill="white"/>
<path d="M153.992 14.3135H154.515L154.92 15.7824L155.338 14.3135H155.867V16.1881H155.566V14.6454H155.535L155.092 16.1144H154.779L154.306 14.6454V16.1881H154.004L153.992 14.3135Z" fill="white"/>
<path d="M82.5728 14.3076V16.4404H92.5359L83.8082 31.5541L82.5728 33.6868H85.0374H94.9882L96.2175 31.5541H86.2667L94.9944 16.4404L96.2236 14.3076H93.7651H82.5728Z" fill="white"/>
<path d="M109.708 14.3076V16.4404H122.044L123.273 14.3076H109.708Z" fill="white"/>
<path d="M109.708 22.9307V25.0634H122.044L123.273 22.9307H109.708Z" fill="white"/>
<path d="M109.708 31.5537V33.6865H122.044L123.273 31.5537H109.708Z" fill="white"/>
<path d="M62.1917 19.9991L67.7233 33.6868H70.0221L63.341 17.1533L62.1917 14.3076L61.0423 17.1533L54.3613 33.6868H56.66L62.1917 19.9991Z" fill="white"/>
</svg>
