<svg width="184" height="48" viewBox="0 0 184 48" fill="none" xmlns="http://www.w3.org/2000/svg">
<g clip-path="url(#clip0_1_6912)">
<path d="M82.298 27.166H91.7815L86.759 19.0551L77.525 33.6859H73.3448L84.5753 16.1227C85.4176 14.906 87.1021 14.6253 88.2876 15.4675C88.5372 15.6547 88.7555 15.8419 88.9427 16.0915L100.204 33.6859H96.0242L94.0588 30.4104H84.4505L82.298 27.166ZM125.91 30.4416V15.1868H122.353V31.939C122.353 32.4069 122.541 32.8748 122.884 33.1868C123.227 33.5299 123.695 33.7171 124.194 33.7171H140.385L142.506 30.4416H125.91ZM66.9808 27.6963C70.4436 27.6963 73.2512 24.8887 73.2512 21.426C73.2512 17.9632 70.4436 15.1556 66.9808 15.1556H51.4141V33.6859H54.9392V18.4624H66.7313C68.3846 18.4624 69.7261 19.8038 69.7261 21.4572C69.7261 23.1105 68.3846 24.452 66.7313 24.452H56.6862L67.324 33.6859H72.5025L65.3586 27.6963H66.9808ZM29.5146 33.6859H40.2772C45.3933 33.5611 49.4176 29.2873 49.2928 24.2024C49.168 19.2734 45.1749 15.3116 40.2772 15.1868H29.5146C24.3985 15.062 20.1247 19.0863 19.9999 24.2024C19.8751 29.3185 23.8994 33.5611 29.0155 33.6859C29.1715 33.7171 29.3275 33.7171 29.5146 33.6859ZM40.0276 30.4416H29.733C26.4262 30.348 23.837 27.5715 23.9306 24.2648C24.0242 21.114 26.5822 18.5559 29.733 18.4624H40.0276C43.3344 18.3688 46.1108 20.958 46.2044 24.2648C46.298 27.5715 43.7087 30.348 40.402 30.4416C40.2772 30.4416 40.1524 30.4416 40.0276 30.4416ZM107.629 33.6859H118.61L120.7 30.4416H107.879C104.572 30.5351 101.795 27.9459 101.702 24.6391C101.608 21.3324 104.197 18.5559 107.504 18.4624C107.629 18.4624 107.754 18.4624 107.879 18.4624H118.329L120.451 15.1868H107.66C102.544 15.062 98.3015 19.0863 98.1767 24.2024C98.0519 29.3185 102.076 33.5611 107.192 33.6859C107.317 33.7171 107.473 33.7171 107.629 33.6859ZM151.178 30.4416C148.496 30.4416 146.125 28.6634 145.407 26.0741H160.631L162.721 22.7986H145.407C146.125 20.2093 148.496 18.4312 151.178 18.4312H161.629L163.719 15.1556H150.929C145.813 15.3116 141.788 19.5542 141.913 24.6703C142.038 29.5993 146 33.5611 150.929 33.6859H161.91L164 30.4416H151.178Z" fill="white"/>
</g>
<defs>
<clipPath id="clip0_1_6912">
<rect width="144" height="18.7175" fill="white" transform="translate(20 15)"/>
</clipPath>
</defs>
</svg>
