<svg width="184" height="48" viewBox="0 0 184 48" fill="none" xmlns="http://www.w3.org/2000/svg">
<g clip-path="url(#clip0_1_6896)">
<path d="M20 17.0421C20.186 17.7473 20.5574 18.3899 21.0757 18.903C21.5941 19.4161 22.2403 19.7811 22.9474 19.96H27.5495L27.7853 20.0526V31.6653H30.6568V20.0695L30.9179 19.9768H35.5242C36.2289 19.7931 36.8726 19.4265 37.3902 18.9142C37.9078 18.4018 38.2808 17.7618 38.4716 17.0589V17.0295H20V17.0421ZM120.467 17.0253H117.604V31.6989H130.716C131.337 31.4585 131.89 31.0695 132.326 30.566C132.762 30.0624 133.068 29.4597 133.217 28.8105H120.459L120.467 17.0253V17.0253ZM98.4337 19.9137C99.9579 19.4926 101.238 18.3053 101.545 17.0168L85.5032 17.0421V25.6947H98.6274V28.7389H88.3284C87.5433 28.9425 86.8103 29.3105 86.178 29.8186C85.5458 30.3267 85.0287 30.9633 84.6611 31.6863H101.457V22.8147H88.3368V19.9137H98.4337V19.9137ZM147.347 31.6905H150.194V25.7874H160.543V31.6905H163.385V22.84L147.347 22.8232V31.6905ZM55.9368 19.9474H66.8842C67.6014 19.7748 68.2574 19.4088 68.7808 18.8891C69.3043 18.3693 69.675 17.7159 69.8526 17H52.9684C53.1478 17.7151 53.5191 18.3676 54.0422 18.887C54.5654 19.4065 55.2205 19.7731 55.9368 19.9474V19.9474ZM55.9368 25.7453H66.8842C67.601 25.5719 68.2565 25.2055 68.7798 24.6859C69.3031 24.1664 69.6741 23.5134 69.8526 22.7979H52.9684C53.1486 23.5126 53.5202 24.1646 54.0432 24.6839C54.5662 25.2032 55.2209 25.5702 55.9368 25.7453V25.7453ZM55.9368 31.6989H66.8842C67.601 31.5256 68.2565 31.1592 68.7798 30.6396C69.3031 30.12 69.6741 29.4671 69.8526 28.7516H52.9684C53.1482 29.4665 53.5196 30.1187 54.0427 30.6381C54.5658 31.1575 55.2207 31.5243 55.9368 31.6989ZM149.878 19.9558H160.825C161.543 19.7835 162.2 19.4176 162.724 18.8979C163.248 18.3782 163.619 17.7247 163.798 17.0084H146.909C147.088 17.7239 147.459 18.3769 147.982 18.8965C148.506 19.416 149.161 19.7824 149.878 19.9558V19.9558Z" fill="white"/>
</g>
<defs>
<clipPath id="clip0_1_6896">
<rect width="144" height="14.7368" fill="white" transform="translate(20 17)"/>
</clipPath>
</defs>
</svg>
