<svg width="115" height="32" viewBox="0 0 115 32" fill="none" xmlns="http://www.w3.org/2000/svg">
<g clip-path="url(#clip0_192_52933)">
<path d="M32.7616 9.35978C33.4191 9.35978 33.9468 9.17957 34.3445 8.82076C34.7423 8.46196 34.9404 7.97652 34.9404 7.36445C34.9404 6.85953 34.765 6.46988 34.4127 6.19387C34.0604 5.91787 33.6026 5.78149 33.036 5.78149C32.4093 5.78149 31.8849 5.96171 31.4644 6.32051C31.0439 6.67931 30.8328 7.12741 30.8328 7.66155C30.8328 8.1957 30.9936 8.61295 31.315 8.91168C31.6365 9.21041 32.117 9.35816 32.76 9.35816L32.7616 9.35978Z" fill="#9A4DFF"/>
<path d="M61.8246 9.35978C62.4821 9.35978 63.0098 9.17957 63.4075 8.82076C63.8053 8.46196 64.0034 7.97652 64.0034 7.36445C64.0034 6.85953 63.828 6.46988 63.4757 6.19387C63.1234 5.91787 62.6656 5.78149 62.099 5.78149C61.4723 5.78149 60.9479 5.96171 60.5274 6.32051C60.1069 6.67931 59.8958 7.12741 59.8958 7.66155C59.8958 8.1957 60.0565 8.61295 60.378 8.91168C60.6995 9.21041 61.18 9.35816 61.823 9.35816L61.8246 9.35978Z" fill="#9A4DFF"/>
<path d="M72.9491 10.7122H70.3807C72.3679 8.95392 73.3631 6.88877 73.3631 4.5184C73.3631 3.66279 73.1796 2.95168 72.8127 2.38507C72.4458 1.82008 71.9409 1.53596 71.2996 1.53596C70.4277 1.53596 69.6127 1.94833 68.8561 2.77472C68.0996 3.6011 67.4534 4.70998 66.9176 6.10135C66.3819 7.49273 65.9841 9.03022 65.7243 10.7122H64.4174C63.729 10.7122 63.3848 11.1408 63.3848 11.9964C63.3848 12.3634 63.4644 12.6312 63.6251 12.8001C63.7858 12.9689 64.0959 13.0517 64.5538 13.0517H65.4483C65.4029 13.7401 65.3801 14.4204 65.3801 15.0941C65.3801 15.5845 65.4013 16.0504 65.4435 16.4936C65.3071 16.5423 65.1772 16.6316 65.0603 16.7696C64.3719 17.596 63.8216 18.2 63.4092 18.5815C62.9968 18.9647 62.6526 19.1546 62.3766 19.1546C62.086 19.1546 61.8798 19.0329 61.758 18.7877C61.6363 18.5426 61.5746 18.1919 61.5746 17.7324C61.5746 17.1366 61.758 15.9968 62.125 14.3148C62.4156 12.9235 62.5601 12.037 62.5601 11.6539C62.5601 11.1343 62.1704 10.8746 61.3895 10.8746C60.8846 10.8746 60.5176 10.9671 60.2887 11.1506C60.0598 11.334 59.8763 11.6701 59.7383 12.1604C59.4623 13.0939 59.2367 14.0989 59.0613 15.1769C58.9136 16.0813 58.8292 16.8476 58.8048 17.4775C58.3616 17.9727 57.9833 18.351 57.6732 18.6075C57.23 18.9744 56.7705 19.1579 56.2964 19.1579C55.8532 19.1579 55.4749 19.0312 55.1616 18.7796C54.8482 18.5279 54.6599 18.1951 54.5998 17.7811C55.6405 17.2307 56.3744 16.604 56.8014 15.8994C57.23 15.1964 57.4443 14.4236 57.4443 13.5826C57.4443 12.8179 57.2105 12.175 56.7445 11.6555C56.2786 11.136 55.6633 10.8762 54.8986 10.8762C54.0722 10.8762 53.1857 11.3081 52.2376 12.1718C51.2894 13.0355 50.4484 14.4236 49.7146 16.3345C49.7146 15.4935 49.7373 14.6753 49.7828 13.8797C51.8171 11.662 53.2848 9.72347 54.1875 8.06421C55.0901 6.40496 55.5415 4.80252 55.5415 3.25853C55.5415 2.29577 55.3239 1.5116 54.8872 0.907645C54.4521 0.303688 53.8822 0.00170898 53.1776 0.00170898C51.8625 0.00170898 50.7342 0.870303 49.7942 2.60587C48.8541 4.34143 48.143 6.48613 47.6608 9.03996C47.1786 11.5938 46.9383 14.0486 46.9383 16.4027C46.9383 16.7112 46.94 17.0002 46.9448 17.2746C46.4383 17.8574 46.0194 18.299 45.6882 18.5929C45.2677 18.9679 44.904 19.1546 44.5988 19.1546C44.1556 19.1546 43.9332 18.8494 43.9332 18.2373C43.9332 17.8087 44.0777 16.9304 44.3683 15.5991C44.7044 14.0388 44.8732 12.9608 44.8732 12.365C44.8732 11.3714 44.3764 10.8746 43.3828 10.8746C42.8779 10.8746 42.3242 11.0499 41.7203 11.4022C41.1163 11.7545 40.501 12.3422 39.8743 13.1686C39.2476 13.995 38.681 15.0649 38.1761 16.38C38.2378 15.7078 38.3141 15.1412 38.405 14.6834C38.4976 14.2239 38.6193 13.6898 38.7719 13.0777C39.0009 12.2221 39.1161 11.6701 39.1161 11.4266C39.1161 11.2123 39.0544 11.0678 38.9327 10.9898C38.8109 10.9135 38.5966 10.8746 38.2897 10.8746C37.7231 10.8746 37.2848 10.9785 36.9714 11.1847C36.6581 11.3909 36.4324 11.7156 36.2944 12.1604C35.7684 13.8245 35.4908 15.5747 35.4534 17.4093C35.0134 17.9159 34.6433 18.3071 34.3445 18.5831C33.9322 18.9663 33.588 19.1562 33.312 19.1562C33.0213 19.1562 32.8152 19.0345 32.6934 18.7893C32.5716 18.5442 32.5099 18.1935 32.5099 17.734C32.5099 17.1382 32.6934 15.9985 33.0603 14.3165C33.3509 12.9251 33.4954 12.0386 33.4954 11.6555C33.4954 11.136 33.1058 10.8762 32.3249 10.8762C31.8199 10.8762 31.453 10.9687 31.2241 11.1522C30.9952 11.3357 30.8117 11.6717 30.6737 12.162C30.3977 13.0956 30.172 14.1005 29.9967 15.1786C29.8489 16.0878 29.7629 16.8557 29.7402 17.4872C29.3181 17.9662 28.9625 18.338 28.6784 18.5961C28.266 18.9712 27.9137 19.1579 27.6231 19.1579C27.4396 19.1579 27.2902 19.0897 27.1766 18.9517C27.063 18.8137 27.0045 18.6302 27.0045 18.4013C27.0045 17.7129 27.1798 16.4904 27.5322 14.7305C27.7611 13.5226 27.8763 12.7579 27.8763 12.4364C27.8763 11.9006 27.5013 11.6328 26.7529 11.6328C26.4005 11.6328 26.0645 11.6636 25.743 11.7253C25.6667 11.3892 25.5709 11.1554 25.4556 11.0256C25.3404 10.8957 25.1147 10.8307 24.7786 10.8307C23.7233 10.8307 22.7248 11.1636 21.7848 11.8292C20.8448 12.4949 20.0915 13.3748 19.5249 14.4675C19.08 15.3279 18.8121 16.2274 18.718 17.1674C17.9029 17.7292 17.0262 18.3607 16.0846 19.067L16.3362 17.3233C16.596 15.5958 16.7486 14.4869 16.7957 13.9966C16.8411 13.5843 16.7535 13.266 16.531 13.0452C16.3086 12.8244 16.0294 12.7124 15.6933 12.7124H11.4039C11.0207 12.7124 10.7155 12.8342 10.4866 13.0793C10.2577 13.3245 10.1424 13.6606 10.1424 14.0892C10.1424 14.5632 10.2577 14.9042 10.4866 15.1104C10.7155 15.3166 11.0451 15.4205 11.4737 15.4205H13.8132L13.4918 18.2195C12.3456 18.6935 11.2432 18.9306 10.1879 18.9306C8.29157 18.9306 6.84175 18.4305 5.84164 17.4288C4.83992 16.4271 4.33987 15.0081 4.33987 13.1735C4.33987 11.3389 4.63048 9.85173 5.21171 8.57401C5.79294 7.2979 6.56087 6.33677 7.51714 5.69547C8.4734 5.05255 9.50922 4.73271 10.6262 4.73271C11.5435 4.73271 12.1978 4.90805 12.5875 5.26036C12.9771 5.61267 13.1719 6.10947 13.1719 6.75077C13.1719 6.99593 13.1265 7.332 13.0339 7.76061C12.9722 8.12753 12.9414 8.3873 12.9414 8.53991C12.9414 8.89222 13.068 9.1666 13.3197 9.36629C13.5713 9.56599 13.9042 9.66503 14.3182 9.66503C14.9302 9.66503 15.3994 9.3939 15.729 8.85001C16.057 8.30775 16.2226 7.58527 16.2226 6.68258C16.2226 5.30582 15.7761 4.20181 14.8799 3.36731C13.9853 2.53443 12.6427 2.11718 10.8535 2.11718C9.06437 2.11718 7.30121 2.59613 5.79456 3.55077C4.28792 4.50704 3.1076 5.85295 2.25037 7.58852C1.39639 9.31759 0.967773 11.3178 0.967773 13.581C0.967773 15.2013 1.32658 16.6235 2.0458 17.8477C2.76503 19.0718 3.77325 20.0151 5.07371 20.6808C6.37254 21.3464 7.87919 21.6792 9.59202 21.6792C10.7545 21.6792 11.9397 21.4276 13.1476 20.9227L13.0794 21.3594C11.4737 22.5982 10.2317 23.6989 9.35174 24.6633C8.47178 25.6261 7.87269 26.4752 7.55123 27.209C7.22977 27.9429 7.06904 28.6686 7.06904 29.3878C7.06904 30.1671 7.3142 30.7987 7.80288 31.2809C8.29157 31.763 8.92637 32.0033 9.7073 32.0033C11.1604 32.0033 12.3602 31.0925 13.3083 29.2742C14.2565 27.4542 15.0293 24.962 15.6251 21.7961C16.9759 20.8642 18.0702 20.1158 18.9193 19.5427C19.0605 19.9583 19.2602 20.3284 19.5249 20.6499C20.0898 21.3383 20.848 21.6825 21.7962 21.6825C23.0041 21.6825 24.0058 21.0412 24.8014 19.7553C25.0157 20.3512 25.3323 20.822 25.7528 21.1662C26.1733 21.5104 26.636 21.6825 27.1409 21.6825C27.7984 21.6825 28.4787 21.4146 29.1833 20.8805C29.5031 20.6369 29.8149 20.3642 30.1201 20.0687C30.2029 20.2684 30.3003 20.4551 30.4107 20.6272C30.862 21.3302 31.5845 21.6825 32.5781 21.6825C33.5717 21.6825 34.5621 21.1824 35.6353 20.1856C35.6823 20.4048 35.7375 20.5996 35.8008 20.7652C36.0379 21.3773 36.447 21.6825 37.0282 21.6825C37.5023 21.6825 37.8498 21.5558 38.0722 21.3042C38.293 21.0525 38.4894 20.5671 38.6567 19.8479C38.8856 18.9143 39.1876 18.0279 39.5626 17.1869C39.9376 16.3459 40.3046 15.6689 40.6634 15.1575C41.0222 14.6461 41.3014 14.3895 41.5011 14.3895C41.67 14.3895 41.7528 14.5129 41.7528 14.7565C41.7528 15.1234 41.6537 15.789 41.454 16.7518C41.2397 17.8525 41.1326 18.6172 41.1326 19.0458C41.1326 19.9031 41.3306 20.5557 41.7284 21.0071C42.1262 21.4584 42.7155 21.6841 43.4948 21.6841C44.4576 21.6841 45.3181 21.4243 46.0762 20.9048C46.435 20.658 46.7825 20.3772 47.1202 20.0654C47.2046 20.5395 47.3312 20.9081 47.4985 21.1678C47.7193 21.512 48.0683 21.6841 48.5424 21.6841C49.0165 21.6841 49.3639 21.5575 49.5863 21.3058C49.8071 21.0542 50.0036 20.5687 50.1708 19.8495C50.416 18.8559 50.752 17.8883 51.1807 16.9482C51.6093 16.0082 52.072 15.2386 52.5688 14.6428C53.0656 14.047 53.5202 13.7482 53.9342 13.7482C54.103 13.7482 54.2443 13.8164 54.3579 13.9544C54.4716 14.0924 54.53 14.2986 54.53 14.573C54.53 15.0471 54.3839 15.4481 54.0949 15.7777C53.8043 16.1072 53.3221 16.4157 52.65 16.7063C52.0379 16.9661 51.7327 17.3947 51.7327 17.9905C51.7327 19.1075 52.0915 20.0021 52.8107 20.6743C53.5299 21.348 54.4781 21.6841 55.6551 21.6841C56.6179 21.6841 57.4524 21.4325 58.1554 20.9275C58.4996 20.6808 58.8405 20.3934 59.1815 20.0654C59.2659 20.2668 59.3633 20.4551 59.4737 20.6288C59.925 21.3318 60.6475 21.6841 61.6411 21.6841C62.9562 21.6841 64.3703 20.7587 65.8851 18.9078C65.9029 18.8867 65.9192 18.864 65.9354 18.8413C66.0637 19.205 66.2147 19.5459 66.3884 19.8592C67.0605 21.0753 68.1239 21.6825 69.577 21.6825C70.5868 21.6825 71.4879 21.3545 72.2834 20.697C72.5124 20.5135 72.6845 20.2846 72.7997 20.0086C72.915 19.7326 72.9718 19.4501 72.9718 19.1595C72.9718 18.8689 72.915 18.6205 72.7997 18.4143C72.6845 18.2081 72.5351 18.1042 72.3516 18.1042C72.1828 18.1042 72.0156 18.1805 71.8467 18.3331C71.5723 18.5783 71.2655 18.7763 70.9294 18.929C70.5933 19.0816 70.3027 19.1579 70.0576 19.1579C69.5835 19.1579 69.2117 19.0247 68.9454 18.7569C68.6776 18.489 68.486 18.0457 68.3723 17.4272C68.2571 16.807 68.2002 15.9481 68.2002 14.8457C68.2002 14.4171 68.2149 13.8213 68.2457 13.0566H71.0447C72.7721 13.0566 73.6375 12.529 73.6375 11.4737C73.6375 11.183 73.5839 10.985 73.4767 10.8778C73.3696 10.7707 73.1943 10.7171 72.9491 10.7171L72.9491 10.7122ZM50.8024 6.64037C51.1157 5.30257 51.4404 4.23915 51.7765 3.45173C52.1126 2.66432 52.4194 2.2698 52.6938 2.2698C52.8919 2.2698 53.0461 2.39968 53.1533 2.65945C53.2604 2.91921 53.314 3.29425 53.314 3.78294C53.314 4.85285 53.0039 6.04615 52.3853 7.36122C51.7668 8.67629 50.9826 9.89232 50.0344 11.0093C50.2325 9.43448 50.489 7.97817 50.8024 6.63875L50.8024 6.64037ZM11.2675 28.4218C10.7934 29.3245 10.3567 29.7758 9.96057 29.7758C9.53195 29.7758 9.31765 29.4771 9.31765 28.8813C9.31765 28.2854 9.57417 27.5629 10.0856 26.7593C10.597 25.9573 11.4347 25.0578 12.5972 24.0642C12.1848 26.0677 11.74 27.5207 11.2659 28.4234L11.2675 28.4218ZM24.251 17.182C24.113 17.8396 23.8922 18.3672 23.5853 18.765C23.2785 19.1627 22.9586 19.3608 22.6226 19.3608C22.2865 19.3608 22.0219 19.2455 21.8319 19.0166C21.6403 18.7877 21.5445 18.4354 21.5445 17.9613C21.5445 17.1057 21.7053 16.2939 22.0267 15.5293C22.3482 14.7646 22.7801 14.1492 23.3223 13.6833C23.8646 13.2173 24.4572 12.9754 25.1001 12.9608L24.251 17.182ZM68.4762 10.3696C68.6451 9.13088 68.8545 8.00252 69.1078 6.98618C69.3595 5.96985 69.6273 5.17431 69.9115 4.6012C70.1939 4.02809 70.4505 3.74072 70.6794 3.74072C71.0155 3.74072 71.1843 4.19207 71.1843 5.09476C71.1843 5.89029 70.9586 6.7735 70.5073 7.74438C70.0559 8.71526 69.3789 9.59034 68.4779 10.3713L68.4762 10.3696Z" fill="#9A4DFF"/>
<path d="M76.6199 17.4108C75.9169 17.4108 75.3698 17.617 74.9801 18.0294C74.5905 18.4418 74.3956 18.9921 74.3956 19.6805C74.3956 20.2764 74.5677 20.7585 74.9119 21.1255C75.2561 21.4924 75.7643 21.6758 76.438 21.6758C77.1118 21.6758 77.6687 21.4664 78.0665 21.0443C78.4642 20.6238 78.6623 20.062 78.6623 19.3591C78.6623 18.7161 78.4902 18.2307 78.146 17.9027C77.8018 17.5748 77.2937 17.4092 76.6199 17.4092L76.6199 17.4108Z" fill="#9A4DFF"/>
<path d="M113.861 11.2512C113.609 10.9995 113.237 10.8729 112.749 10.8729C112.26 10.8729 111.693 11.045 111.097 11.3892C110.502 11.7334 109.893 12.3114 109.274 13.1215C108.656 13.9317 108.092 14.9788 107.587 16.2647C107.633 15.9887 107.717 15.5763 107.839 15.0259C108.13 13.7417 108.274 12.8553 108.274 12.3649C108.274 11.8746 108.164 11.4866 107.941 11.2415C107.719 10.9963 107.341 10.8745 106.806 10.8745C106.272 10.8745 105.701 11.0775 105.097 11.4817C104.493 11.8876 103.903 12.5029 103.33 13.3277C102.757 14.1541 102.264 15.1623 101.851 16.3556C101.913 15.6835 101.989 15.1201 102.08 14.6704C102.173 14.219 102.295 13.6881 102.447 13.0761C102.676 12.2205 102.791 11.6684 102.791 11.4249C102.791 11.2106 102.73 11.0661 102.608 10.9882C102.486 10.9119 102.272 10.8729 101.965 10.8729C101.398 10.8729 100.96 10.9768 100.647 11.183C100.333 11.3892 100.108 11.7139 99.9696 12.1588C99.7034 12.9998 99.5021 13.8635 99.3624 14.7483C98.6789 14.8993 98.0701 14.9935 97.5392 15.0276C97.4174 13.8505 97.0002 12.8601 96.2891 12.0565C95.578 11.2544 94.6412 10.8518 93.4787 10.8518C92.5306 10.8518 91.6669 11.1083 90.8859 11.6197C90.1066 12.1328 89.4946 12.8439 89.0513 13.7531C88.6081 14.6623 88.3857 15.6997 88.3857 16.8622C88.3857 17.1511 88.4068 17.432 88.4441 17.7064C88.0269 18.096 87.6064 18.4159 87.181 18.6627C86.4553 19.0832 85.7783 19.2942 85.1516 19.2942C83.606 19.2942 82.8348 18.4078 82.8348 16.6332C82.8348 15.9903 82.9273 15.4026 83.1108 14.8668C83.2943 14.3311 83.5394 13.9073 83.8446 13.594C84.1499 13.2806 84.4794 13.1231 84.8317 13.1231C85.0152 13.1231 85.1565 13.1767 85.2555 13.2839C85.3545 13.391 85.4049 13.5436 85.4049 13.7433C85.4049 13.943 85.3659 14.1557 85.2896 14.3863C85.2733 14.448 85.2506 14.547 85.2214 14.685C85.1906 14.823 85.1759 14.9448 85.1759 15.0519C85.1759 15.2971 85.2636 15.487 85.4389 15.625C85.6143 15.763 85.8481 15.8312 86.1387 15.8312C86.5982 15.8312 86.9683 15.6104 87.2508 15.1656C87.5333 14.7223 87.6746 14.1801 87.6746 13.5371C87.6746 12.7578 87.4408 12.1182 86.9748 11.6214C86.5089 11.1246 85.8546 10.8762 85.0136 10.8762C84.1726 10.8762 83.3397 11.1278 82.5588 11.6327C81.7795 12.1377 81.1447 12.8569 80.6544 13.7888C80.1641 14.7223 79.9205 15.8069 79.9205 17.0456C79.9205 18.437 80.3378 19.5572 81.1707 20.4063C82.0035 21.2555 83.1692 21.6792 84.6694 21.6792C85.6013 21.6792 86.5689 21.4389 87.5707 20.9567C88.1762 20.6661 88.7282 20.2992 89.2315 19.8592C89.5335 20.3154 89.9118 20.7018 90.3696 21.0136C91.0191 21.4568 91.8032 21.6792 92.7205 21.6792C93.8067 21.6792 94.7776 21.2928 95.6332 20.5216C96.4888 19.7488 97.0635 18.7211 97.3541 17.4369C97.9776 17.4109 98.5669 17.3362 99.1303 17.2226C99.1238 17.4239 99.1189 17.6252 99.1189 17.8282C99.1189 19.1741 99.2374 20.1531 99.4745 20.7652C99.7115 21.3772 100.121 21.6825 100.702 21.6825C101.176 21.6825 101.523 21.5558 101.746 21.3042C101.967 21.0525 102.163 20.5671 102.33 19.8478C102.528 19.0215 102.793 18.1805 103.123 17.3249C103.451 16.4693 103.791 15.7646 104.144 15.2143C104.496 14.6639 104.787 14.3879 105.016 14.3879C105.184 14.3879 105.267 14.5113 105.267 14.7548C105.267 15.0616 105.206 15.7029 105.084 16.6819C104.931 17.7827 104.855 18.6237 104.855 19.2049C104.855 19.8933 104.982 20.4778 105.233 20.96C105.485 21.4422 105.865 21.6825 106.368 21.6825C106.871 21.6825 107.212 21.5607 107.435 21.3155C107.655 21.0704 107.852 20.5817 108.019 19.8478C108.248 18.9143 108.547 18.0279 108.914 17.1869C109.281 16.3459 109.648 15.6689 110.014 15.1574C110.381 14.646 110.664 14.3895 110.864 14.3895C111.032 14.3895 111.115 14.5129 111.115 14.7564C111.115 15.0925 111.023 15.8734 110.839 17.0959C110.625 18.5036 110.518 19.5118 110.518 20.1239C110.518 20.6434 110.633 21.033 110.862 21.2944C111.091 21.5542 111.458 21.6841 111.963 21.6841C112.499 21.6841 112.883 21.5574 113.122 21.3058C113.359 21.0541 113.478 20.6369 113.478 20.0557C113.478 19.0312 113.523 18.1025 113.616 17.268C113.708 16.4352 113.83 15.552 113.982 14.6184C114.151 13.5177 114.234 12.7676 114.234 12.3698C114.234 11.8811 114.107 11.5093 113.856 11.2577L113.861 11.2512ZM94.1785 18.6497C93.8197 19.0474 93.3943 19.2455 92.9056 19.2455C92.4624 19.2455 92.076 19.0247 91.7464 18.5799C91.4168 18.1366 91.2528 17.4937 91.2528 16.6527C91.2528 15.5828 91.4558 14.7532 91.8601 14.1638C92.2643 13.5745 92.7741 13.2806 93.3862 13.2806H93.5015C93.456 13.5258 93.4333 13.7709 93.4333 14.0145C93.4333 14.5957 93.5599 15.1461 93.8116 15.6656C94.0632 16.1851 94.4269 16.6056 94.901 16.9271C94.7776 17.6772 94.5373 18.2503 94.1785 18.6481L94.1785 18.6497Z" fill="#9A4DFF"/>
</g>
<defs>
<clipPath id="clip0_192_52933">
<rect width="113.273" height="32" fill="white" transform="translate(0.967773)"/>
</clipPath>
</defs>
</svg>
