<svg width="171" height="32" viewBox="0 0 171 32" fill="none" xmlns="http://www.w3.org/2000/svg">
<path d="M51.5064 23.4553H60.2524L60.2524 21.335H53.9094L53.9094 17.9073H59.899L59.899 15.7871H53.9094L53.9094 12.4123H60.2524L60.2524 10.2921H51.5064L51.5064 23.4553Z" fill="#FF007A"/>
<path d="M61.8201 23.4553H64.1347L64.1347 17.819C64.1347 17.1947 64.3114 16.6941 64.6648 16.3171C65.0299 15.9402 65.5011 15.7517 66.0783 15.7517C66.6554 15.7517 67.1207 15.9402 67.4741 16.3171C67.8392 16.6823 68.0218 17.1829 68.0218 17.819L68.0218 23.4553H70.3364L70.3364 17.2712C70.3364 16.5527 70.1833 15.9225 69.877 15.3807C69.5708 14.8271 69.1408 14.3971 68.5872 14.0909C68.0454 13.7846 67.4211 13.6315 66.7143 13.6315C66.1136 13.6315 65.5718 13.7493 65.0888 13.9849C64.6177 14.2204 64.2525 14.5679 63.9934 15.0273L63.9934 13.8435H61.8201L61.8201 23.4553Z" fill="#FF007A"/>
<path d="M76.9229 23.6673C77.6178 23.6673 78.2598 23.5495 78.8487 23.3139C79.4377 23.0666 79.9442 22.7309 80.3682 22.3068C80.7923 21.871 81.0986 21.3822 81.287 20.8403L79.2551 19.9216C79.0667 20.4281 78.7663 20.8285 78.354 21.123C77.9535 21.4057 77.4765 21.5471 76.9229 21.5471C76.4163 21.5471 75.9629 21.4234 75.5624 21.176C75.1736 20.9287 74.8674 20.5871 74.6436 20.1512C74.4198 19.7036 74.3079 19.203 74.3079 18.6494C74.3079 18.084 74.4198 17.5834 74.6436 17.1476C74.8674 16.7117 75.1736 16.3701 75.5624 16.1228C75.9629 15.8754 76.4163 15.7517 76.9229 15.7517C77.4765 15.7517 77.9535 15.899 78.354 16.1935C78.7663 16.4879 79.0667 16.8766 79.2551 17.3596L81.287 16.4762C81.0868 15.9108 80.7746 15.416 80.3506 14.992C79.9265 14.5562 79.42 14.2204 78.8311 13.9849C78.2421 13.7493 77.606 13.6315 76.9229 13.6315C75.9687 13.6315 75.1089 13.8494 74.3432 14.2852C73.5894 14.7211 72.9945 15.3159 72.5587 16.0698C72.1229 16.8236 71.9049 17.6776 71.9049 18.6317C71.9049 19.5858 72.1229 20.4457 72.5587 21.2114C72.9945 21.9652 73.5894 22.566 74.3432 23.0136C75.1089 23.4494 75.9687 23.6673 76.9229 23.6673Z" fill="#FF007A"/>
<path d="M83.0433 23.4553H85.3579L85.3579 18.1017C85.3579 17.3714 85.5581 16.806 85.9586 16.4055C86.3709 15.9932 86.9009 15.7871 87.5488 15.7871H88.3792L88.3792 13.7375H87.8138C87.2249 13.7375 86.7066 13.8435 86.259 14.0555C85.8114 14.2676 85.4639 14.6504 85.2165 15.204L85.2165 13.8435H83.0433L83.0433 23.4553Z" fill="#FF007A"/>
<path d="M90.8179 27.3601C91.7249 27.3601 92.4788 27.1009 93.0795 26.5827C93.692 26.0762 94.1809 25.3576 94.546 24.4271L98.7335 13.8435H96.2245L93.7509 20.4693L91.2596 13.8435H88.7683L92.5671 23.4553L92.3551 23.9677C92.1666 24.3682 91.9487 24.6921 91.7013 24.9395C91.4658 25.1868 91.0829 25.3105 90.5529 25.3105C90.3644 25.3105 90.1642 25.2928 89.9521 25.2575C89.7401 25.2339 89.5517 25.1986 89.3867 25.1515L89.3867 27.095C89.587 27.1893 89.8108 27.2541 90.0582 27.2894C90.3055 27.3365 90.5588 27.3601 90.8179 27.3601Z" fill="#FF007A"/>
<path d="M100.005 26.989H102.319L102.319 22.5365C102.673 22.9017 103.102 23.1844 103.609 23.3846C104.115 23.5731 104.663 23.6673 105.252 23.6673C106.183 23.6673 107.013 23.4494 107.743 23.0136C108.474 22.566 109.051 21.9652 109.475 21.2114C109.899 20.4457 110.111 19.5917 110.111 18.6494C110.111 17.7071 109.899 16.859 109.475 16.1051C109.051 15.3395 108.474 14.7387 107.743 14.3029C107.013 13.8553 106.189 13.6315 105.27 13.6315C104.61 13.6315 104.015 13.7493 103.485 13.9849C102.955 14.2204 102.519 14.5503 102.178 14.9743L102.178 13.8435H100.005L100.005 26.989ZM104.987 21.5471C104.481 21.5471 104.021 21.4234 103.609 21.176C103.208 20.9287 102.89 20.5871 102.655 20.1512C102.431 19.7154 102.319 19.2148 102.319 18.6494C102.319 18.084 102.431 17.5834 102.655 17.1476C102.89 16.7117 103.208 16.3701 103.609 16.1228C104.021 15.8754 104.481 15.7517 104.987 15.7517C105.517 15.7517 105.982 15.8813 106.383 16.1404C106.795 16.3878 107.119 16.7294 107.355 17.1652C107.59 17.6011 107.708 18.0958 107.708 18.6494C107.708 19.203 107.59 19.7036 107.355 20.1512C107.119 20.5871 106.795 20.9287 106.383 21.176C105.982 21.4234 105.517 21.5471 104.987 21.5471Z" fill="#FF007A"/>
<path d="M116.085 23.5613C116.262 23.5613 116.456 23.5495 116.668 23.526C116.88 23.5024 117.069 23.4789 117.233 23.4553L117.233 21.4764C117.01 21.5117 116.804 21.5294 116.615 21.5294C116.05 21.5294 115.637 21.3998 115.378 21.1407C115.119 20.8816 114.99 20.5105 114.99 20.0276L114.99 15.9108H117.198L117.198 13.8435H114.99L114.99 11.6526H112.675L112.675 12.3947C112.675 12.8658 112.545 13.2251 112.286 13.4725C112.027 13.7198 111.662 13.8435 111.191 13.8435H111.014L111.014 15.9108H112.675L112.675 20.1512C112.675 21.2231 112.969 22.0595 113.558 22.6602C114.159 23.2609 115.001 23.5613 116.085 23.5613Z" fill="#FF007A"/>
<path d="M123.474 23.6673C124.452 23.6673 125.306 23.4494 126.036 23.0136C126.778 22.566 127.296 22.0006 127.591 21.3174L125.718 20.3986C125.506 20.7638 125.212 21.0641 124.835 21.2997C124.469 21.5235 124.022 21.6354 123.492 21.6354C122.797 21.6354 122.214 21.4234 121.743 20.9993C121.271 20.5753 121 20.0099 120.93 19.3031H127.856C127.903 19.1736 127.933 19.0263 127.944 18.8614C127.968 18.6847 127.98 18.5081 127.98 18.3314C127.98 17.4715 127.797 16.6882 127.432 15.9814C127.067 15.2747 126.537 14.7093 125.842 14.2852C125.147 13.8494 124.299 13.6315 123.297 13.6315C122.402 13.6315 121.589 13.8494 120.859 14.2852C120.141 14.7211 119.569 15.3159 119.145 16.0698C118.733 16.8119 118.527 17.6658 118.527 18.6317C118.527 19.5623 118.733 20.4104 119.145 21.176C119.558 21.9417 120.135 22.5483 120.877 22.9959C121.619 23.4435 122.485 23.6673 123.474 23.6673ZM123.297 15.5397C123.91 15.5397 124.416 15.7282 124.817 16.1051C125.229 16.4703 125.459 16.9473 125.506 17.5363H120.983C121.112 16.9002 121.383 16.4114 121.796 16.0698C122.22 15.7164 122.72 15.5397 123.297 15.5397Z" fill="#FF007A"/>
<path d="M134.204 23.6673C134.829 23.6673 135.406 23.5613 135.936 23.3493C136.466 23.1255 136.908 22.8074 137.261 22.3952L137.261 23.4553H139.452L139.452 10.0801H137.137L137.137 14.8153C136.419 14.0261 135.435 13.6315 134.187 13.6315C133.28 13.6315 132.455 13.8553 131.713 14.3029C130.983 14.7387 130.406 15.3395 129.982 16.1051C129.558 16.859 129.346 17.7071 129.346 18.6494C129.346 19.5917 129.558 20.4457 129.982 21.2114C130.406 21.9652 130.983 22.566 131.713 23.0136C132.443 23.4494 133.274 23.6673 134.204 23.6673ZM134.452 21.5471C133.933 21.5471 133.468 21.4234 133.056 21.176C132.644 20.9287 132.32 20.5871 132.084 20.1512C131.86 19.7036 131.748 19.203 131.748 18.6494C131.748 18.0958 131.86 17.6011 132.084 17.1652C132.32 16.7294 132.644 16.3878 133.056 16.1404C133.468 15.8813 133.933 15.7517 134.452 15.7517C134.97 15.7517 135.429 15.8754 135.83 16.1228C136.242 16.3701 136.56 16.7117 136.784 17.1476C137.02 17.5834 137.137 18.084 137.137 18.6494C137.137 19.2148 137.02 19.7154 136.784 20.1512C136.56 20.5871 136.242 20.9287 135.83 21.176C135.429 21.4234 134.97 21.5471 134.452 21.5471Z" fill="#FF007A"/>
<path d="M144.256 23.4553H147.012L149.539 13.9849L152.065 23.4553H154.822L158.355 10.2921H155.776L153.337 20.1866L150.793 10.2921H148.302L145.74 20.1866L143.302 10.2921H140.722L144.256 23.4553Z" fill="#FF007A"/>
<path d="M159.619 12.7657H161.934L161.934 10.2921H159.619L159.619 12.7657ZM159.619 23.4553H161.934L161.934 13.8435H159.619L159.619 23.4553Z" fill="#FF007A"/>
<path d="M164.071 23.4553H166.385L166.385 10.0801H164.071L164.071 23.4553Z" fill="#FF007A"/>
<path d="M168.523 23.4553H170.837L170.837 10.0801H168.523L168.523 23.4553Z" fill="#FF007A"/>
<g clip-path="url(#clip0_192_52905)">
<path d="M41.7524 5.22168H37.105L37.105 9.86905H41.7524L41.7524 5.22168Z" fill="#FF007A"/>
<path d="M37.105 2.78662H34.6699L34.6699 5.22178H37.105L37.105 2.78662Z" fill="#FF007A"/>
<path fill-rule="evenodd" clip-rule="evenodd" d="M34.9271 9.87781H34.9443L34.9443 9.86924C40.2605 9.89496 44.5648 14.2079 44.5648 19.5327C44.5648 23.8371 41.7524 27.4812 37.8596 28.7331C37.0965 28.9989 36.2476 29.1533 35.3044 29.1876C35.1672 29.1961 35.0386 29.1961 34.9014 29.1961H34.8928H34.8757H30.8667L35.0214 17.1147H31.2486L28.142 26.4844L24.8435 17.1233H21.6709L18.3488 26.4908L15.2401 17.1147H11.4673L15.622 29.1961H9.05788C4.57342 29.1961 0.946411 25.5606 0.946411 21.0847C0.946411 16.6088 4.57342 12.9732 9.06645 12.9732C9.06645 5.80493 14.8714 0 22.0397 0C26.2926 0 30.0654 2.05788 32.4234 5.23044L32.4234 9.87781H27.776L27.776 14.5252H32.4234L32.4234 17.1147H35.0129L35.0129 14.5252H32.4234L32.4234 9.87781H34.9271ZM20.727 29.1961H25.7417L23.2528 21.9457L20.727 29.1961Z" fill="#FF007A"/>
</g>
<defs>
<clipPath id="clip0_192_52905">
<rect width="43.6184" height="32" fill="white" transform="translate(0.946411)"/>
</clipPath>
</defs>
</svg>
