<svg width="171" height="32" viewBox="0 0 171 32" fill="none" xmlns="http://www.w3.org/2000/svg">
<path d="M51.5063 23.4553H60.2523L60.2523 21.335H53.9092L53.9092 17.9073H59.8989L59.8989 15.7871H53.9092L53.9092 12.4123H60.2523L60.2523 10.2921H51.5063L51.5063 23.4553Z" fill="#9A4DFF"/>
<path d="M61.82 23.4553H64.1346L64.1346 17.819C64.1346 17.1947 64.3113 16.6941 64.6646 16.3171C65.0298 15.9402 65.501 15.7517 66.0781 15.7517C66.6553 15.7517 67.1206 15.9402 67.474 16.3171C67.8391 16.6823 68.0217 17.1829 68.0217 17.819L68.0217 23.4553H70.3363L70.3363 17.2712C70.3363 16.5527 70.1832 15.9225 69.8769 15.3807C69.5707 14.8271 69.1407 14.3971 68.5871 14.0909C68.0453 13.7846 67.421 13.6315 66.7142 13.6315C66.1135 13.6315 65.5716 13.7493 65.0887 13.9849C64.6175 14.2204 64.2524 14.5679 63.9932 15.0273L63.9932 13.8435H61.82L61.82 23.4553Z" fill="#9A4DFF"/>
<path d="M76.9227 23.6673C77.6177 23.6673 78.2597 23.5495 78.8486 23.3139C79.4376 23.0666 79.9441 22.7309 80.3681 22.3068C80.7922 21.871 81.0984 21.3822 81.2869 20.8403L79.255 19.9216C79.0665 20.4281 78.7662 20.8285 78.3539 21.123C77.9534 21.4057 77.4763 21.5471 76.9227 21.5471C76.4162 21.5471 75.9627 21.4234 75.5622 21.176C75.1735 20.9287 74.8673 20.5871 74.6435 20.1512C74.4197 19.7036 74.3078 19.203 74.3078 18.6494C74.3078 18.084 74.4197 17.5834 74.6435 17.1476C74.8673 16.7117 75.1735 16.3701 75.5622 16.1228C75.9627 15.8754 76.4162 15.7517 76.9227 15.7517C77.4763 15.7517 77.9534 15.899 78.3539 16.1935C78.7662 16.4879 79.0665 16.8766 79.255 17.3596L81.2869 16.4762C81.0867 15.9108 80.7745 15.416 80.3505 14.992C79.9264 14.5562 79.4199 14.2204 78.8309 13.9849C78.242 13.7493 77.6059 13.6315 76.9227 13.6315C75.9686 13.6315 75.1087 13.8494 74.3431 14.2852C73.5892 14.7211 72.9944 15.3159 72.5586 16.0698C72.1227 16.8236 71.9048 17.6776 71.9048 18.6317C71.9048 19.5858 72.1227 20.4457 72.5586 21.2114C72.9944 21.9652 73.5892 22.566 74.3431 23.0136C75.1087 23.4494 75.9686 23.6673 76.9227 23.6673Z" fill="#9A4DFF"/>
<path d="M83.0431 23.4553H85.3577L85.3577 18.1017C85.3577 17.3714 85.558 16.806 85.9585 16.4055C86.3708 15.9932 86.9008 15.7871 87.5487 15.7871H88.3791L88.3791 13.7375H87.8137C87.2247 13.7375 86.7065 13.8435 86.2589 14.0555C85.8112 14.2676 85.4638 14.6504 85.2164 15.204L85.2164 13.8435H83.0431L83.0431 23.4553Z" fill="#9A4DFF"/>
<path d="M90.8178 27.3601C91.7248 27.3601 92.4786 27.1009 93.0794 26.5827C93.6919 26.0762 94.1807 25.3576 94.5459 24.4271L98.7334 13.8435H96.2244L93.7508 20.4693L91.2595 13.8435H88.7682L92.567 23.4553L92.355 23.9677C92.1665 24.3682 91.9486 24.6921 91.7012 24.9395C91.4656 25.1868 91.0828 25.3105 90.5528 25.3105C90.3643 25.3105 90.164 25.2928 89.952 25.2575C89.74 25.2339 89.5515 25.1986 89.3866 25.1515L89.3866 27.095C89.5869 27.1893 89.8107 27.2541 90.058 27.2894C90.3054 27.3365 90.5587 27.3601 90.8178 27.3601Z" fill="#9A4DFF"/>
<path d="M100.004 26.989H102.319L102.319 22.5365C102.672 22.9017 103.102 23.1844 103.609 23.3846C104.115 23.5731 104.663 23.6673 105.252 23.6673C106.183 23.6673 107.013 23.4494 107.743 23.0136C108.474 22.566 109.051 21.9652 109.475 21.2114C109.899 20.4457 110.111 19.5917 110.111 18.6494C110.111 17.7071 109.899 16.859 109.475 16.1051C109.051 15.3395 108.474 14.7387 107.743 14.3029C107.013 13.8553 106.188 13.6315 105.27 13.6315C104.61 13.6315 104.015 13.7493 103.485 13.9849C102.955 14.2204 102.519 14.5503 102.178 14.9743L102.178 13.8435H100.004L100.004 26.989ZM104.987 21.5471C104.48 21.5471 104.021 21.4234 103.609 21.176C103.208 20.9287 102.89 20.5871 102.655 20.1512C102.431 19.7154 102.319 19.2148 102.319 18.6494C102.319 18.084 102.431 17.5834 102.655 17.1476C102.89 16.7117 103.208 16.3701 103.609 16.1228C104.021 15.8754 104.48 15.7517 104.987 15.7517C105.517 15.7517 105.982 15.8813 106.383 16.1404C106.795 16.3878 107.119 16.7294 107.355 17.1652C107.59 17.6011 107.708 18.0958 107.708 18.6494C107.708 19.203 107.59 19.7036 107.355 20.1512C107.119 20.5871 106.795 20.9287 106.383 21.176C105.982 21.4234 105.517 21.5471 104.987 21.5471Z" fill="#9A4DFF"/>
<path d="M116.085 23.5613C116.262 23.5613 116.456 23.5495 116.668 23.526C116.88 23.5024 117.068 23.4789 117.233 23.4553L117.233 21.4764C117.01 21.5117 116.803 21.5294 116.615 21.5294C116.05 21.5294 115.637 21.3998 115.378 21.1407C115.119 20.8816 114.989 20.5105 114.989 20.0276L114.989 15.9108H117.198L117.198 13.8435H114.989L114.989 11.6526H112.675L112.675 12.3947C112.675 12.8658 112.545 13.2251 112.286 13.4725C112.027 13.7198 111.662 13.8435 111.191 13.8435H111.014L111.014 15.9108H112.675L112.675 20.1512C112.675 21.2231 112.969 22.0595 113.558 22.6602C114.159 23.2609 115.001 23.5613 116.085 23.5613Z" fill="#9A4DFF"/>
<path d="M123.474 23.6673C124.452 23.6673 125.306 23.4494 126.036 23.0136C126.778 22.566 127.296 22.0006 127.591 21.3174L125.718 20.3986C125.506 20.7638 125.211 21.0641 124.834 21.2997C124.469 21.5235 124.022 21.6354 123.492 21.6354C122.797 21.6354 122.214 21.4234 121.742 20.9993C121.271 20.5753 121 20.0099 120.93 19.3031H127.856C127.903 19.1736 127.932 19.0263 127.944 18.8614C127.968 18.6847 127.98 18.5081 127.98 18.3314C127.98 17.4715 127.797 16.6882 127.432 15.9814C127.067 15.2747 126.537 14.7093 125.842 14.2852C125.147 13.8494 124.299 13.6315 123.297 13.6315C122.402 13.6315 121.589 13.8494 120.859 14.2852C120.14 14.7211 119.569 15.3159 119.145 16.0698C118.733 16.8119 118.527 17.6658 118.527 18.6317C118.527 19.5623 118.733 20.4104 119.145 21.176C119.557 21.9417 120.135 22.5483 120.877 22.9959C121.619 23.4435 122.485 23.6673 123.474 23.6673ZM123.297 15.5397C123.91 15.5397 124.416 15.7282 124.817 16.1051C125.229 16.4703 125.459 16.9473 125.506 17.5363H120.983C121.112 16.9002 121.383 16.4114 121.795 16.0698C122.22 15.7164 122.72 15.5397 123.297 15.5397Z" fill="#9A4DFF"/>
<path d="M134.204 23.6673C134.829 23.6673 135.406 23.5613 135.936 23.3493C136.466 23.1255 136.908 22.8074 137.261 22.3952L137.261 23.4553H139.452L139.452 10.0801H137.137L137.137 14.8153C136.419 14.0261 135.435 13.6315 134.187 13.6315C133.28 13.6315 132.455 13.8553 131.713 14.3029C130.983 14.7387 130.406 15.3395 129.981 16.1051C129.557 16.859 129.345 17.7071 129.345 18.6494C129.345 19.5917 129.557 20.4457 129.981 21.2114C130.406 21.9652 130.983 22.566 131.713 23.0136C132.443 23.4494 133.274 23.6673 134.204 23.6673ZM134.452 21.5471C133.933 21.5471 133.468 21.4234 133.056 21.176C132.644 20.9287 132.32 20.5871 132.084 20.1512C131.86 19.7036 131.748 19.203 131.748 18.6494C131.748 18.0958 131.86 17.6011 132.084 17.1652C132.32 16.7294 132.644 16.3878 133.056 16.1404C133.468 15.8813 133.933 15.7517 134.452 15.7517C134.97 15.7517 135.429 15.8754 135.83 16.1228C136.242 16.3701 136.56 16.7117 136.784 17.1476C137.019 17.5834 137.137 18.084 137.137 18.6494C137.137 19.2148 137.019 19.7154 136.784 20.1512C136.56 20.5871 136.242 20.9287 135.83 21.176C135.429 21.4234 134.97 21.5471 134.452 21.5471Z" fill="#9A4DFF"/>
<path d="M144.256 23.4553H147.012L149.539 13.9849L152.065 23.4553H154.821L158.355 10.2921H155.776L153.337 20.1866L150.793 10.2921H148.302L145.74 20.1866L143.301 10.2921H140.722L144.256 23.4553Z" fill="#9A4DFF"/>
<path d="M159.619 12.7657H161.934L161.934 10.2921H159.619L159.619 12.7657ZM159.619 23.4553H161.934L161.934 13.8435H159.619L159.619 23.4553Z" fill="#9A4DFF"/>
<path d="M164.071 23.4553H166.385L166.385 10.0801H164.071L164.071 23.4553Z" fill="#9A4DFF"/>
<path d="M168.522 23.4553H170.837L170.837 10.0801H168.522L168.522 23.4553Z" fill="#9A4DFF"/>
<g clip-path="url(#clip0_192_52915)">
<path d="M41.7523 5.22168H37.1049L37.1049 9.86905H41.7523L41.7523 5.22168Z" fill="#9A4DFF"/>
<path d="M37.1049 2.78662H34.6697L34.6697 5.22178H37.1049L37.1049 2.78662Z" fill="#9A4DFF"/>
<path fill-rule="evenodd" clip-rule="evenodd" d="M34.927 9.87781H34.9441L34.9441 9.86924C40.2603 9.89496 44.5647 14.2079 44.5647 19.5327C44.5647 23.8371 41.7523 27.4812 37.8595 28.7331C37.0963 28.9989 36.2475 29.1533 35.3043 29.1876C35.1671 29.1961 35.0385 29.1961 34.9013 29.1961H34.8927H34.8755H30.8665L35.0213 17.1147H31.2485L28.1419 26.4844L24.8434 17.1233H21.6708L18.3487 26.4908L15.2399 17.1147H11.4672L15.6219 29.1961H9.05776C4.5733 29.1961 0.946289 25.5606 0.946289 21.0847C0.946289 16.6088 4.5733 12.9732 9.06633 12.9732C9.06633 5.80493 14.8713 0 22.0395 0C26.2925 0 30.0653 2.05788 32.4232 5.23044L32.4232 9.87781H27.7759L27.7759 14.5252H32.4232L32.4232 17.1147H35.0127L35.0127 14.5252H32.4232L32.4232 9.87781H34.927ZM20.7269 29.1961H25.7415L23.2527 21.9457L20.7269 29.1961Z" fill="#9A4DFF"/>
</g>
<defs>
<clipPath id="clip0_192_52915">
<rect width="43.6184" height="32" fill="white" transform="translate(0.946289)"/>
</clipPath>
</defs>
</svg>
