<svg width="126" height="29" viewBox="0 0 126 29" fill="none" xmlns="http://www.w3.org/2000/svg">
<path d="M50.76 0H47.8405L47.8405 29H50.76L50.76 0Z" fill="#FF007A"/>
<path d="M67.2164 13.7806C67.9884 13.4277 68.6324 12.8445 69.06 12.1111C69.493 11.3439 69.7117 10.4743 69.6933 9.59351C69.6933 7.82484 69.0917 6.50983 67.8886 5.64849C66.6855 4.78715 64.8503 4.35606 62.3831 4.35522H55.2447L55.2447 6.88656H57.7529L57.7529 22.116H55.2447L55.2447 24.6473H62.2677C65.0853 24.6473 67.2014 24.1422 68.616 23.132C70.0306 22.1218 70.7371 20.6521 70.7354 18.7229C70.7354 17.5471 70.4328 16.5307 69.8275 15.6735C69.2222 14.8163 68.3518 14.1854 67.2164 13.7806ZM60.7941 6.88155H62.8007C64.0297 6.88155 64.9812 7.12197 65.6551 7.60281C66.3289 8.08366 66.6634 8.79949 66.6583 9.75031C66.6583 11.7874 65.3791 12.8064 62.8208 12.8072H60.7941L60.7941 6.88155ZM66.9004 20.9243C66.3815 21.4377 65.7157 21.7766 64.9954 21.894C64.008 22.0583 63.0077 22.1326 62.0068 22.116H60.7941L60.7941 15.3298H62.7468C64.4189 15.3298 65.6509 15.6058 66.4426 16.1577C67.2344 16.7096 67.6311 17.5459 67.6328 18.6664C67.6328 19.6741 67.3886 20.4268 66.9004 20.9243Z" fill="#FF007A"/>
<path d="M85.7197 15.489C85.7197 13.63 85.2824 12.2698 84.4079 11.4085C83.5333 10.5471 82.1488 10.1165 80.2542 10.1165C78.8446 10.1165 77.6286 10.3924 76.606 10.9443C75.561 11.5177 74.7121 12.3917 74.1693 13.4531L76.8343 14.1129C77.1306 13.5909 77.5644 13.1601 78.0884 12.8673C78.5951 12.5939 79.2255 12.4567 79.9796 12.4559C81.0481 12.4559 81.8156 12.6938 82.2821 13.1696C82.7487 13.6454 82.9819 14.4357 82.9819 15.5404L82.9819 17.062C81.8479 16.2728 80.4995 15.85 79.118 15.8502C78.2656 15.8563 77.4249 16.049 76.6549 16.4147C75.8724 16.7644 75.1999 17.3208 74.7098 18.0241C74.2515 18.7068 74.0012 19.5079 73.9891 20.3302C73.9771 21.1525 74.2039 21.9606 74.6421 22.6565C75.0866 23.3454 75.6978 23.9108 76.4192 24.3002C77.1405 24.6897 77.9485 24.8906 78.7681 24.8843C80.4194 24.8843 81.918 24.2245 83.2641 22.9049L83.2641 24.6422H88.0836L88.0836 22.1673H85.7197L85.7197 15.489ZM82.987 21.0358C81.793 22.1765 80.5143 22.7464 79.1506 22.7456C78.4149 22.7456 77.8133 22.5235 77.346 22.0795C77.1162 21.8548 76.9354 21.5848 76.8152 21.2867C76.6949 20.9886 76.6378 20.6688 76.6473 20.3475C76.6569 20.0262 76.7329 19.7103 76.8706 19.4199C77.0084 19.1294 77.2048 18.8707 77.4475 18.66C77.9743 18.2 78.6534 17.9527 79.3525 17.9664C80.564 17.9664 81.7763 18.4376 82.9895 19.3801L82.987 21.0358Z" fill="#FF007A"/>
<path d="M106.902 24.6467L106.902 22.1693H104.531L104.531 15.1272C104.531 13.4756 104.228 12.2593 103.621 11.4782C103.015 10.6972 102.08 10.3066 100.815 10.3066C99.2898 10.3066 97.6594 10.9397 95.9237 12.2058L95.9237 10.4948H90.6941L90.6941 12.986H93.1848L93.1848 22.1693H90.6941L90.6941 24.6467H98.368L98.368 22.1693H95.9313L95.9313 14.643C97.4738 13.4229 98.8646 12.8129 100.104 12.8129C100.689 12.8129 101.107 13.0056 101.358 13.3912C101.609 13.7767 101.738 14.4143 101.747 15.3041L101.747 24.6492L106.902 24.6467Z" fill="#FF007A"/>
<path d="M125.475 12.8123L125.475 10.4954H117.64L117.64 12.8123H119.875L114.718 17.1474L114.718 4.35522H109.401L109.401 6.80628H111.931L111.931 22.1699H109.401L109.401 24.6473H117.115L117.115 22.1699H114.718L114.718 17.5112L121.8 24.6473H125.475L125.475 22.1699H122.998L118.003 17.2013L123.294 12.8123H125.475Z" fill="#FF007A"/>
<path d="M40.6676 14.8205H36.1992L36.1992 17.2841H40.1572C39.6154 18.7075 38.6552 19.9334 37.4031 20.8002C36.1509 21.667 34.6657 22.134 33.1429 22.1398C28.9831 22.1398 25.6108 18.7204 25.6108 14.5019C25.6108 10.2834 28.9831 6.86398 33.1429 6.86398C34.5545 6.86812 35.9364 7.26929 37.1308 8.02168C38.3253 8.77407 39.284 9.84733 39.8976 11.1188H42.846C42.1903 9.14984 40.9319 7.43708 39.2489 6.22318C37.566 5.00928 35.5439 4.35577 33.469 4.35522H32.8194C31.5213 4.35522 30.236 4.61097 29.0368 5.10785C27.8376 5.60474 26.748 6.33303 25.8302 7.25114C24.9124 8.16925 24.1844 9.2592 23.6877 10.4587C23.1911 11.6583 22.9356 12.9439 22.9358 14.2422L22.9358 14.7616C22.9358 17.3834 23.9771 19.8979 25.8306 21.7518C27.6841 23.6058 30.1981 24.6473 32.8194 24.6473H33.469C36.0799 24.647 38.5846 23.6135 40.4362 21.7723C42.2878 19.9311 43.3358 17.4319 43.3514 14.8205H40.6676Z" fill="#FF007A"/>
<path d="M17.7971 14.8205H13.3288L13.3288 17.2841H17.2867C16.7448 18.7074 15.7845 19.9332 14.5325 20.8C13.2804 21.6667 11.7952 22.1339 10.2725 22.1398C6.11137 22.1398 2.73908 18.7204 2.73908 14.5019C2.73908 10.2834 6.11137 6.86398 10.2725 6.86398C11.6838 6.86835 13.0655 7.26964 14.2597 8.02201C15.4539 8.77439 16.4124 9.84752 17.0259 11.1188H19.9755C19.3197 9.14994 18.0612 7.43729 16.3783 6.22342C14.6954 5.00954 12.6734 4.35596 10.5986 4.35522H9.94769C7.32627 4.35556 4.81234 5.39737 2.95884 7.25151C1.10534 9.10565 0.0640716 11.6203 0.0640717 14.2422L0.0640717 14.7616C0.0644042 17.3833 1.10582 19.8976 2.95928 21.7515C4.81275 23.6054 7.32649 24.647 9.94769 24.6473H10.5986C13.2096 24.6474 15.7145 23.6139 17.5661 21.7726C19.4178 19.9314 20.4657 17.432 20.4809 14.8205H17.7971Z" fill="#FF007A"/>
</svg>
