<svg width="159" height="36" viewBox="0 0 159 36" fill="none" xmlns="http://www.w3.org/2000/svg">
<g clip-path="url(#clip0_192_52868)">
<path d="M17.9928 0C8.05602 0 9.15524e-05 8.05921 9.15519e-05 18C9.15516e-05 25.4357 4.50655 31.8167 10.9358 34.5606L10.9358 34.5363L11.2939 28.75L12.2906 26.9149L12.2111 23.6425L12.7304 22.1656L12.2508 21.8074L12.2111 20.4918L11.2939 18.3781C11.2939 18.3781 10.2971 18.6965 10.5358 19.8153C10.7745 20.934 10.5181 21.374 10.4562 21.803C10.3943 22.2319 9.40641 24.7237 9.88822 25.6966C10.3678 26.6694 10.6839 28.0602 9.90148 29.3757C9.90148 29.3757 7.07472 27.4079 6.56197 26.7159L6.47357 24.9272C6.47357 24.9272 7.47918 23.7863 7.18965 23.1163L7.05483 19.1144C7.05483 19.1144 7.59189 17.7723 8.97764 16.8348C8.97764 16.8348 8.5975 16.6115 8.5975 15.024L8.03834 14.1528L8.01624 13.1468L9.08815 12.2978L9.42409 12.6559C9.42409 12.6559 11.0773 10.0624 11.8818 9.27969L11.926 8.18302L14.2046 5.72436L15.0754 5.47893C15.0754 5.47893 14.4278 2.37022 17.9132 2.34811C17.9132 2.34811 20.6184 2.34811 20.4615 5.54526L21.1997 5.72436L23.412 8.09458L23.5247 9.27969L26.0067 12.5432L26.4753 12.3199L27.4809 13.1468L27.4367 14.2877L26.8996 14.8692L26.8112 16.5451L26.6543 16.9033L28.3826 18.6412L28.5307 23.3529L27.9671 23.8261L29.0324 24.9824L29.0921 26.7004L25.894 29.2785L24.8574 29.1591L24.1568 34.9144C31.0591 32.3982 35.9855 25.774 35.9855 18C35.9855 8.05921 27.9295 0 17.9928 0Z" fill="#FF007A"/>
<path d="M25.5227 25.6966C25.5691 25.6037 25.6155 25.5109 25.6266 25.4069C25.6398 25.2809 25.6 25.1549 25.5536 25.0377L25.4277 24.7923C24.9458 23.8039 24.769 19.7047 24.769 19.7047L25.021 19.5787C24.6674 19.0723 23.9071 16.2378 23.9071 16.2378L22.6208 14.6724C22.0484 14.0422 21.2726 13.3524 21.3124 12.5034C21.3544 11.6499 21.971 12.0722 21.834 10.0292C21.7942 9.43666 20.9632 8.83968 20.3687 8.85074C19.7741 8.864 19.2327 9.33274 18.8812 9.81254C18.6227 10.1641 18.5541 10.7124 18.5718 11.148C18.5917 11.5836 18.7133 11.9108 19.089 12.1319C19.0536 13.2706 18.5541 13.6111 17.9663 13.7482C17.3806 13.8853 16.691 14.2302 16.691 14.2302C16.691 14.2302 15.0003 16.5429 14.6908 17.0603C14.3814 17.5777 14.3107 20.2353 14.5538 21.3033C14.7947 22.3734 14.4853 23.9609 14.4853 23.9609C13.7957 24.8232 14.8654 25.617 14.8654 25.617C16.2114 26.2029 16.0722 24.4783 16.0037 23.9963C15.9351 23.5143 15.7959 21.4426 15.8998 20.0629C16.0037 18.6832 17.1419 19.4084 17.1419 19.4084L17.2104 21.8582H17.5198C17.5198 21.8582 17.5883 22.0992 17.5883 22.2385C17.5883 22.3778 17.6922 23.7575 17.2789 24.653C16.8656 25.5507 17.3828 26.1012 17.3828 26.309C17.3828 26.5169 17.3143 27.6556 17.1419 27.8966C16.9695 28.1376 16.7617 29.2762 16.7617 29.7936C16.7617 30.311 15.4997 35.487 15.4202 35.8143C16.26 35.9337 17.1176 36 17.9928 36C18.3751 36 18.7553 35.9845 19.1332 35.9602C19.1686 35.8894 19.2017 35.8187 19.2304 35.7457C19.4316 35.2416 19.5111 34.6977 19.5885 34.1604C19.7609 32.9797 19.9311 31.799 20.1035 30.6205C20.1366 30.395 20.172 30.1651 20.2891 29.9705C20.4062 29.7759 20.6339 29.63 20.8549 29.6742C21.0781 29.7184 21.2571 30.0899 21.1201 30.269C21.5643 31.998 22.0108 33.7624 22.0373 35.5379C23.1866 35.2748 24.2939 34.9011 25.3459 34.4279C25.2995 31.9848 25.1359 29.5394 24.8132 27.1205C25.0497 26.6473 25.2862 26.172 25.5249 25.6988L25.5227 25.6966Z" fill="#FF007A"/>
<path d="M46.0349 15.4663C46.7245 15.4773 47.3831 15.4817 48.0064 15.4817C49.0739 15.4817 49.9093 15.4773 50.5149 15.4663C50.4486 16.1561 50.3822 17.1334 50.3159 18.3981C50.2474 19.6628 50.2076 20.618 50.1922 21.2614C49.6131 21.3675 49.1335 21.4449 48.7534 21.4913C48.3732 21.54 47.9157 21.582 47.3831 21.6196C46.8482 21.6571 46.3731 21.677 45.9554 21.677C45.2702 21.677 44.5983 21.6218 43.9375 21.5112C43.2767 21.4007 42.6866 21.2216 42.165 20.9739C41.6434 20.7263 41.2102 20.3924 40.861 19.9679C40.5118 19.5434 40.2444 19.0437 40.0565 18.4644C39.8687 17.8851 39.7736 17.2859 39.7736 16.6646C39.7736 15.6409 40.0278 14.6924 40.5361 13.8146C41.0444 12.939 41.776 12.2448 42.7308 11.7318C43.6856 11.2211 44.9188 10.9646 46.4283 10.9646C47.5312 10.9646 48.7534 11.0973 50.0927 11.3648C50.0927 12.1011 50.1259 12.9192 50.19 13.8213C49.8275 13.6996 49.5336 13.609 49.3103 13.5449C49.0871 13.483 48.8241 13.4233 48.5257 13.3702C48.2252 13.3171 47.9423 13.2773 47.6726 13.253C47.403 13.2287 47.1621 13.2154 46.9521 13.2154C46.3974 13.2154 45.8736 13.295 45.3807 13.4542C44.8879 13.6134 44.4635 13.8566 44.1077 14.1883C43.7519 14.5177 43.4866 14.9135 43.3098 15.3712C43.133 15.8289 43.0446 16.3131 43.0446 16.8216C43.0446 17.3302 43.1463 17.8033 43.3474 18.2079C43.5485 18.6126 43.869 18.9221 44.3066 19.1344C44.7442 19.3466 45.2326 19.4527 45.7719 19.4527C46.2206 19.4527 46.7112 19.3864 47.2461 19.256L47.3323 17.6154C47.0052 17.5999 46.8107 17.5933 46.7488 17.5933L45.9465 17.5999L45.9996 16.6713C46.004 16.5696 46.0128 16.4258 46.0217 16.2357C46.0327 16.0478 46.0371 15.7891 46.0371 15.4618L46.0349 15.4663Z" fill="#FF007A"/>
<path d="M49.5756 21.4802L50.2032 20.3924L54.1108 13.0319L54.5263 12.2072C54.6478 11.9662 54.8158 11.6168 55.0324 11.1636C55.9186 11.1746 56.5662 11.1791 56.9729 11.1791C57.6823 11.1791 58.3409 11.1746 58.9443 11.1636L60.0472 14.3143L62.2904 20.3747L62.7281 21.478C61.8551 21.4692 61.3268 21.4626 61.139 21.4626C60.7146 21.4626 60.0936 21.467 59.2714 21.478C59.0504 20.6467 58.7299 19.6694 58.3144 18.5462H54.5108C54.0732 19.4328 53.6201 20.4101 53.1516 21.478C52.2145 21.4692 51.6398 21.4626 51.4277 21.4626C51.0453 21.4626 50.4265 21.467 49.5756 21.478L49.5756 21.4802ZM55.4236 16.3484H57.7707C57.1873 14.573 56.869 13.5957 56.8137 13.4144C56.4822 14.1529 56.1993 14.7587 55.9695 15.2319L55.4258 16.3484H55.4236Z" fill="#FF007A"/>
<path d="M62.012 21.4802L62.1998 19.9546L62.664 14.657L62.896 11.1658C63.8265 11.1768 64.5558 11.1812 65.0863 11.1812C65.5261 11.1812 66.198 11.1768 67.1019 11.1658C67.1682 11.5991 67.2235 11.9286 67.2677 12.1519C67.3119 12.3752 67.4246 12.8152 67.6036 13.4675C67.7826 14.1197 67.9241 14.6835 68.0324 15.1611C68.1407 15.6365 68.302 16.4523 68.5186 17.6065C68.7396 16.815 68.9429 16.1362 69.1242 15.5657C69.3054 14.9975 69.533 14.3497 69.8049 13.6244C70.0767 12.8992 70.2491 12.4238 70.3243 12.2005C70.3972 11.9772 70.4967 11.6323 70.6226 11.168C71.3785 11.179 72.1189 11.1835 72.8438 11.1835C73.3367 11.1835 74.0218 11.179 74.8992 11.168C74.8042 12.8661 74.7401 14.3253 74.7114 15.5436C74.6451 17.9315 74.6141 19.5743 74.6141 20.472C74.6141 20.6577 74.6186 20.996 74.6296 21.4846C73.9644 21.4758 73.498 21.4692 73.2328 21.4692C72.846 21.4692 72.3686 21.4736 71.8051 21.4846C71.8471 21.0314 71.8979 19.9524 71.9576 18.2455C72.0194 16.5408 72.0504 15.4507 72.0504 14.9776C72.0504 14.772 72.046 14.4845 72.0349 14.1153L71.0448 17.1908L69.6214 21.4824C68.9673 21.4736 68.5164 21.467 68.2689 21.467C67.9572 21.467 67.4776 21.4714 66.8345 21.4824L65.904 17.3257L65.3581 15.1125C65.3382 15.0262 65.3161 14.9201 65.2896 14.7941C65.2653 14.668 65.2233 14.4469 65.168 14.1286L64.978 16.2224L64.726 20.514L64.7039 21.4824C64.0099 21.4736 63.5657 21.467 63.3734 21.467C63.1104 21.467 62.6573 21.4714 62.0142 21.4824L62.012 21.4802Z" fill="#FF007A"/>
<path d="M75.5313 21.4802C75.6573 20.1802 75.7501 19.0923 75.8076 18.2145C75.8651 17.3368 75.9247 16.1738 75.9822 14.7189C76.0397 13.2663 76.0684 12.3023 76.0684 11.8291L76.0618 11.1636C77.2508 11.1746 78.6874 11.1791 80.3737 11.1791C81.9297 11.1791 83.3021 11.1746 84.489 11.1636L84.4735 11.4112C84.4691 11.4709 84.4558 11.6898 84.4359 12.0657L84.3895 12.886C84.3785 13.0628 84.3741 13.2397 84.3741 13.421C83.4016 13.3812 82.5861 13.3613 81.9274 13.3613C81.2025 13.3613 80.7119 13.3613 80.4577 13.3658C80.2035 13.368 79.8057 13.379 79.2687 13.3989L79.178 15.1368C79.7726 15.1523 80.4643 15.1589 81.2556 15.1589C81.5385 15.1589 82.2877 15.1412 83.5077 15.1058C83.4569 15.7515 83.4104 16.5187 83.364 17.4097C82.4932 17.3987 81.8236 17.3943 81.355 17.3943C80.661 17.3943 79.8831 17.4119 79.0211 17.4473L78.9305 19.2847H79.7991C80.0555 19.2847 80.5859 19.2781 81.3926 19.2626L82.9552 19.225C83.1872 19.2206 83.574 19.2007 84.1177 19.1653C84.058 19.9104 84.0072 20.6821 83.9674 21.478C82.7386 21.4692 81.3904 21.4626 79.9251 21.4626L76.601 21.4692L75.5291 21.4758L75.5313 21.4802Z" fill="#FF007A"/>
<path d="M84.6525 21.4802C84.9421 17.4341 85.0879 14.3209 85.0879 12.1386L85.0813 11.1636C85.9631 11.1746 86.5532 11.1791 86.8494 11.1791C86.9864 11.1791 87.5279 11.1746 88.4739 11.1636C88.3832 12.2978 88.3103 13.3702 88.2528 14.3828C88.1821 15.7935 88.1313 17.1112 88.1003 18.3384C88.0694 19.5655 88.0539 20.6113 88.0539 21.478L86.5068 21.4626C86.2041 21.4626 85.5852 21.467 84.6503 21.478L84.6525 21.4802Z" fill="#FF007A"/>
<path d="M88.8054 21.4802L88.9556 19.8927L89.2496 14.5111L89.3336 12.3421L89.3336 11.1636C90.116 11.1746 90.8055 11.1791 91.4067 11.1791C91.8354 11.1791 92.4388 11.1746 93.2146 11.1636L96.4392 17.0294L96.8834 17.8917C96.9408 17.0449 96.9983 15.8576 97.058 14.332C97.1177 12.8042 97.1464 11.7495 97.1464 11.1636C97.7652 11.1746 98.2603 11.1791 98.6338 11.1791C98.804 11.1791 99.2969 11.1746 100.112 11.1636L99.9312 13.4166L99.5908 19.6738L99.5444 21.4802C98.8902 21.4714 98.2758 21.4648 97.7078 21.4648C97.2348 21.4648 96.5784 21.4692 95.743 21.4802C95.4822 20.9872 95.2877 20.629 95.1617 20.4057L93.8953 18.2499C93.4776 17.5446 93.093 16.868 92.7416 16.2246C92.5095 15.8156 92.2708 15.3667 92.0255 14.8781L91.862 18.4622L91.7846 21.478C91.1614 21.4692 90.6862 21.4626 90.3591 21.4626C90.0828 21.4626 89.5634 21.467 88.8054 21.478L88.8054 21.4802Z" fill="#FF007A"/>
<path d="M100.291 21.3232C100.225 20.2509 100.15 19.3908 100.064 18.7452C100.63 18.9972 101.131 19.1719 101.573 19.2714C102.015 19.3709 102.402 19.4196 102.736 19.4196C103.176 19.4196 103.525 19.3554 103.783 19.2272C104.044 19.099 104.172 18.9088 104.172 18.6567C104.172 18.5705 104.159 18.4887 104.135 18.4113C104.111 18.3339 104.062 18.2455 103.991 18.146C103.92 18.0465 103.819 17.9404 103.688 17.8254L102.265 16.585C101.931 16.302 101.699 16.0986 101.569 15.9726C101.301 15.7161 101.094 15.4773 100.943 15.254C100.795 15.0329 100.687 14.8073 100.619 14.5774C100.55 14.3474 100.517 14.1042 100.517 13.8478C100.517 13.5404 100.57 13.2397 100.678 12.9457C100.786 12.6516 100.948 12.3752 101.167 12.1187C101.383 11.8623 101.671 11.6411 102.029 11.4532C102.387 11.2675 102.769 11.1392 103.178 11.0707C103.587 11.0022 104.007 10.969 104.44 10.969C105.291 10.969 106.217 11.0663 107.22 11.2631C107.236 11.6102 107.253 11.9286 107.273 12.2182C107.293 12.5079 107.342 13.0164 107.417 13.7416C106.953 13.5559 106.531 13.4254 106.148 13.3525C105.766 13.2795 105.437 13.2419 105.158 13.2419C104.765 13.2419 104.44 13.3149 104.179 13.4608C103.92 13.6068 103.79 13.7881 103.79 14.0047C103.79 14.1064 103.81 14.2037 103.85 14.2988C103.89 14.3939 103.965 14.5066 104.077 14.6349C104.188 14.7631 104.334 14.9046 104.515 15.0572C104.696 15.212 104.981 15.4397 105.368 15.7404L105.912 16.1715C106.073 16.302 106.246 16.4612 106.433 16.6469C106.619 16.8326 106.78 17.0162 106.917 17.1997C107.054 17.3832 107.158 17.5468 107.231 17.6994C107.304 17.8497 107.357 18.0023 107.393 18.1571C107.428 18.3118 107.446 18.4754 107.446 18.6523C107.446 19.1056 107.337 19.5367 107.121 19.948C106.904 20.3592 106.597 20.6953 106.199 20.9606C105.801 21.226 105.364 21.4095 104.888 21.5156C104.413 21.6217 103.909 21.6748 103.381 21.6748C102.566 21.6748 101.536 21.5554 100.291 21.3188L100.291 21.3232Z" fill="#FF007A"/>
<path d="M107.85 21.4802C108.14 17.4341 108.285 14.3209 108.285 12.1386L108.279 11.1636C109.161 11.1746 109.751 11.1791 110.047 11.1791C110.184 11.1791 110.725 11.1746 111.671 11.1636C111.581 12.2978 111.508 13.3702 111.45 14.3828C111.38 15.7935 111.329 17.1112 111.298 18.3384C111.267 19.5655 111.251 20.6113 111.251 21.478L109.704 21.4626C109.402 21.4626 108.783 21.467 107.848 21.478L107.85 21.4802Z" fill="#FF007A"/>
<path d="M112.01 21.4803C112.12 20.3305 112.197 19.413 112.237 18.7209C112.297 17.6928 112.359 16.3639 112.418 14.73C112.465 13.4808 112.487 12.5853 112.487 12.048L112.487 11.1636C113.077 11.1791 113.585 11.1857 114.012 11.1857C114.438 11.1857 114.967 11.1747 115.636 11.1525C116.306 11.1304 116.936 11.1194 117.524 11.1194C118.198 11.1194 118.79 11.1592 119.299 11.241C119.807 11.3206 120.282 11.4886 120.722 11.7407C121.162 11.9927 121.531 12.3222 121.829 12.7312C122.128 13.1403 122.353 13.6156 122.51 14.164C122.667 14.7101 122.744 15.2739 122.744 15.8532C122.744 16.4325 122.684 16.9698 122.563 17.496C122.441 18.0222 122.273 18.4976 122.057 18.9199C121.84 19.3422 121.588 19.707 121.296 20.0121C121.007 20.3173 120.675 20.5782 120.304 20.7949C120.028 20.9563 119.747 21.0823 119.467 21.1729C119.184 21.2636 118.799 21.3366 118.311 21.3918C117.767 21.4515 117.15 21.4825 116.461 21.4825L113.409 21.4604C113.121 21.4604 112.655 21.467 112.012 21.4825L112.01 21.4803ZM115.276 19.2051C115.552 19.2294 115.842 19.2427 116.145 19.2427C116.657 19.2427 117.117 19.1963 117.519 19.1056C117.922 19.015 118.275 18.8204 118.58 18.5241C118.885 18.2278 119.111 17.8453 119.257 17.3788C119.402 16.9123 119.475 16.4347 119.475 15.9461C119.475 15.3469 119.367 14.8405 119.15 14.4315C118.934 14.0203 118.644 13.735 118.286 13.5736C117.926 13.4122 117.435 13.3326 116.817 13.3326C116.454 13.3326 116.025 13.3481 115.532 13.3791L115.278 19.2051H115.276Z" fill="#FF007A"/>
<path d="M122.837 21.4802C122.963 20.1802 123.056 19.0923 123.113 18.2145C123.171 17.3368 123.23 16.1738 123.288 14.7189C123.345 13.2663 123.374 12.3023 123.374 11.8291L123.367 11.1636C124.556 11.1746 125.993 11.1791 127.679 11.1791C129.235 11.1791 130.608 11.1746 131.795 11.1636L131.779 11.4112C131.775 11.4709 131.762 11.6898 131.742 12.0657L131.695 12.886C131.684 13.0628 131.68 13.2397 131.68 13.421C130.707 13.3812 129.892 13.3613 129.233 13.3613C128.508 13.3613 128.018 13.3613 127.763 13.3658C127.509 13.368 127.111 13.379 126.574 13.3989L126.482 15.1368C127.076 15.1523 127.768 15.1589 128.559 15.1589C128.842 15.1589 129.591 15.1412 130.811 15.1058C130.76 15.7515 130.714 16.5187 130.667 17.4097C129.797 17.3987 129.127 17.3943 128.658 17.3943C127.965 17.3943 127.187 17.4119 126.325 17.4473L126.234 19.2847H127.103C127.359 19.2847 127.889 19.2781 128.696 19.2626L130.259 19.225C130.491 19.2206 130.877 19.2007 131.421 19.1653C131.361 19.9104 131.311 20.6821 131.271 21.478C130.042 21.4692 128.694 21.4626 127.229 21.4626L123.904 21.4692L122.833 21.4758L122.837 21.4802Z" fill="#FF007A"/>
<path d="M131.914 21.4802C131.954 20.8058 131.989 19.8926 132.02 18.7451L133.576 18.7672C133.742 18.7672 134.179 18.7606 134.891 18.7451C134.851 19.2935 134.805 20.2066 134.754 21.4802L133.439 21.4647C133.344 21.4647 132.836 21.4691 131.914 21.4802Z" fill="#FF007A"/>
<path d="M135.833 11.1658C136.617 11.1768 137.172 11.1812 137.495 11.1812C137.897 11.1812 138.434 11.1768 139.104 11.1658L138.878 14.3784C138.834 14.982 138.799 15.5502 138.776 16.0787C138.754 16.6071 138.743 16.9719 138.743 17.1754C138.743 17.5579 138.77 17.8785 138.827 18.1349C138.883 18.3914 138.984 18.6103 139.13 18.7894C139.276 18.9685 139.479 19.1034 139.738 19.194C139.996 19.2847 140.268 19.3311 140.549 19.3311C140.79 19.3311 141.017 19.2979 141.227 19.2316C141.393 19.1785 141.541 19.1034 141.672 19.0061C141.787 18.9154 141.888 18.8115 141.974 18.6921C142.081 18.5484 142.173 18.3693 142.253 18.1526C142.333 17.9492 142.394 17.6839 142.434 17.3611C142.481 17.0316 142.54 16.2821 142.615 15.1125C142.682 14.1175 142.73 13.2043 142.766 12.3774C142.797 11.5726 142.823 11.1724 142.85 11.1724H146.18L145.813 16.5386C145.809 16.6403 145.807 16.7221 145.807 16.7884C145.787 17.8365 145.723 18.5749 145.615 19.0061C145.506 19.4372 145.327 19.8109 145.075 20.1293C144.823 20.4477 144.456 20.7329 143.972 20.9872C143.488 21.2414 142.94 21.4227 142.326 21.5267C141.711 21.6328 141.088 21.6859 140.461 21.6859C139.897 21.6859 139.353 21.6461 138.829 21.5642C138.345 21.4847 137.91 21.3675 137.521 21.2127C137.134 21.0601 136.796 20.8788 136.509 20.6732C136.246 20.4808 136.045 20.2863 135.903 20.0873C135.762 19.8883 135.651 19.6495 135.572 19.3731C135.481 19.0614 135.435 18.7253 135.435 18.3671C135.435 18.2455 135.439 18.0642 135.45 17.8188C135.461 17.5755 135.483 17.224 135.519 16.7641L135.618 15.5547C135.642 15.2363 135.671 14.772 135.702 14.1573L135.839 11.1724L135.833 11.1658Z" fill="#FF007A"/>
<path d="M144.938 21.4802L145.566 20.3924L149.473 13.0319L149.889 12.2072C150.011 11.9662 150.179 11.6168 150.395 11.1636C151.281 11.1746 151.929 11.1791 152.336 11.1791C153.045 11.1791 153.704 11.1746 154.307 11.1636L155.41 14.3143L157.651 20.3747L158.089 21.478C157.216 21.4692 156.687 21.4626 156.499 21.4626C156.075 21.4626 155.454 21.467 154.632 21.478C154.411 20.6467 154.09 19.6694 153.675 18.5462H149.871C149.434 19.4328 148.981 20.4101 148.512 21.478C147.575 21.4692 147 21.4626 146.788 21.4626C146.406 21.4626 145.787 21.467 144.936 21.478L144.938 21.4802ZM150.786 16.3484H153.133C152.55 14.573 152.232 13.5957 152.176 13.4144C151.845 14.1529 151.562 14.7587 151.332 15.2319L150.789 16.3484H150.786Z" fill="#FF007A"/>
</g>
<defs>
<clipPath id="clip0_192_52868">
<rect width="158.091" height="36" fill="white"/>
</clipPath>
</defs>
</svg>
