<svg width="159" height="36" viewBox="0 0 159 36" fill="none" xmlns="http://www.w3.org/2000/svg">
<g clip-path="url(#clip0_192_52886)">
<path d="M17.9927 0C8.05593 0 -3.64291e-10 8.05921 -8.13633e-10 18C-1.14974e-09 25.4357 4.50646 31.8167 10.9357 34.5606L10.9357 34.5363L11.2938 28.75L12.2905 26.9149L12.211 23.6425L12.7304 22.1656L12.2508 21.8074L12.211 20.4918L11.2938 18.3781C11.2938 18.3781 10.297 18.6965 10.5357 19.8153C10.7744 20.934 10.518 21.374 10.4561 21.803C10.3942 22.2319 9.40632 24.7237 9.88813 25.6966C10.3677 26.6694 10.6838 28.0602 9.90139 29.3757C9.90139 29.3757 7.07463 27.4079 6.56188 26.7159L6.47347 24.9272C6.47347 24.9272 7.47908 23.7863 7.18956 23.1163L7.05474 19.1144C7.05474 19.1144 7.5918 17.7723 8.97755 16.8348C8.97755 16.8348 8.59741 16.6115 8.59741 15.024L8.03825 14.1528L8.01615 13.1468L9.08806 12.2978L9.424 12.6559C9.424 12.6559 11.0772 10.0624 11.8817 9.27969L11.9259 8.18302L14.2045 5.72436L15.0753 5.47893C15.0753 5.47893 14.4277 2.37022 17.9131 2.34811C17.9131 2.34811 20.6183 2.34811 20.4614 5.54526L21.1996 5.72436L23.4119 8.09458L23.5246 9.27969L26.0066 12.5432L26.4752 12.3199L27.4808 13.1468L27.4366 14.2877L26.8995 14.8692L26.8111 16.5451L26.6542 16.9033L28.3825 18.6412L28.5306 23.3529L27.967 23.8261L29.0323 24.9824L29.092 26.7004L25.8939 29.2785L24.8573 29.1591L24.1567 34.9144C31.059 32.3982 35.9854 25.774 35.9854 18C35.9854 8.05921 27.9294 0 17.9927 0Z" fill="#9A4DFF"/>
<path d="M25.5226 25.6966C25.569 25.6037 25.6154 25.5109 25.6265 25.4069C25.6397 25.2809 25.6 25.1549 25.5535 25.0377L25.4276 24.7923C24.9458 23.8039 24.7689 19.7047 24.7689 19.7047L25.0209 19.5787C24.6673 19.0723 23.907 16.2378 23.907 16.2378L22.6207 14.6724C22.0483 14.0422 21.2725 13.3524 21.3123 12.5034C21.3543 11.6499 21.9709 12.0722 21.8339 10.0292C21.7941 9.43666 20.9631 8.83968 20.3686 8.85074C19.7741 8.864 19.2326 9.33274 18.8812 9.81254C18.6226 10.1641 18.5541 10.7124 18.5717 11.148C18.5916 11.5836 18.7132 11.9108 19.0889 12.1319C19.0535 13.2706 18.5541 13.6111 17.9662 13.7482C17.3805 13.8853 16.6909 14.2302 16.6909 14.2302C16.6909 14.2302 15.0002 16.5429 14.6907 17.0603C14.3813 17.5777 14.3106 20.2353 14.5537 21.3033C14.7946 22.3734 14.4852 23.9609 14.4852 23.9609C13.7956 24.8232 14.8653 25.617 14.8653 25.617C16.2113 26.2029 16.0721 24.4783 16.0036 23.9963C15.9351 23.5143 15.7958 21.4426 15.8997 20.0629C16.0036 18.6832 17.1418 19.4084 17.1418 19.4084L17.2103 21.8582H17.5197C17.5197 21.8582 17.5882 22.0992 17.5882 22.2385C17.5882 22.3778 17.6921 23.7575 17.2788 24.653C16.8655 25.5507 17.3827 26.1012 17.3827 26.309C17.3827 26.5169 17.3142 27.6556 17.1418 27.8966C16.9694 28.1376 16.7616 29.2762 16.7616 29.7936C16.7616 30.311 15.4997 35.487 15.4201 35.8143C16.2599 35.9337 17.1175 36 17.9927 36C18.375 36 18.7552 35.9845 19.1331 35.9602C19.1685 35.8894 19.2016 35.8187 19.2304 35.7457C19.4315 35.2416 19.511 34.6977 19.5884 34.1604C19.7608 32.9797 19.931 31.799 20.1034 30.6205C20.1365 30.395 20.1719 30.1651 20.289 29.9705C20.4061 29.7759 20.6338 29.63 20.8548 29.6742C21.078 29.7184 21.257 30.0899 21.12 30.269C21.5643 31.998 22.0107 33.7624 22.0372 35.5379C23.1865 35.2748 24.2938 34.9011 25.3458 34.4279C25.2994 31.9848 25.1358 29.5394 24.8131 27.1205C25.0496 26.6473 25.2861 26.172 25.5248 25.6988L25.5226 25.6966Z" fill="#9A4DFF"/>
<path d="M46.0348 15.4663C46.7244 15.4773 47.383 15.4817 48.0063 15.4817C49.0738 15.4817 49.9092 15.4773 50.5148 15.4663C50.4485 16.1561 50.3822 17.1334 50.3159 18.3981C50.2473 19.6628 50.2076 20.618 50.1921 21.2614C49.613 21.3675 49.1334 21.4449 48.7533 21.4913C48.3731 21.54 47.9157 21.582 47.383 21.6196C46.8482 21.6571 46.373 21.677 45.9553 21.677C45.2701 21.677 44.5982 21.6218 43.9374 21.5112C43.2766 21.4007 42.6865 21.2216 42.1649 20.9739C41.6433 20.7263 41.2101 20.3924 40.8609 19.9679C40.5117 19.5434 40.2443 19.0437 40.0564 18.4644C39.8686 17.8851 39.7735 17.2859 39.7735 16.6646C39.7735 15.6409 40.0277 14.6924 40.536 13.8146C41.0444 12.939 41.7759 12.2448 42.7307 11.7318C43.6855 11.2211 44.9187 10.9646 46.4282 10.9646C47.5311 10.9646 48.7533 11.0973 50.0926 11.3648C50.0926 12.1011 50.1258 12.9192 50.1899 13.8213C49.8274 13.6996 49.5335 13.609 49.3102 13.5449C49.087 13.483 48.824 13.4233 48.5256 13.3702C48.2251 13.3171 47.9422 13.2773 47.6725 13.253C47.4029 13.2287 47.162 13.2154 46.952 13.2154C46.3973 13.2154 45.8735 13.295 45.3806 13.4542C44.8878 13.6134 44.4634 13.8566 44.1076 14.1883C43.7518 14.5177 43.4865 14.9135 43.3097 15.3712C43.1329 15.8289 43.0445 16.3131 43.0445 16.8216C43.0445 17.3302 43.1462 17.8033 43.3473 18.2079C43.5484 18.6126 43.8689 18.9221 44.3065 19.1344C44.7441 19.3466 45.2326 19.4527 45.7718 19.4527C46.2205 19.4527 46.7111 19.3864 47.246 19.256L47.3322 17.6154C47.0051 17.5999 46.8106 17.5933 46.7487 17.5933L45.9464 17.5999L45.9995 16.6713C46.0039 16.5696 46.0127 16.4258 46.0216 16.2357C46.0326 16.0478 46.037 15.7891 46.037 15.4618L46.0348 15.4663Z" fill="#9A4DFF"/>
<path d="M49.5755 21.4802L50.2031 20.3924L54.1107 13.0319L54.5262 12.2072C54.6477 11.9662 54.8157 11.6168 55.0323 11.1636C55.9185 11.1746 56.5661 11.1791 56.9728 11.1791C57.6822 11.1791 58.3409 11.1746 58.9442 11.1636L60.0471 14.3143L62.2904 20.3747L62.728 21.478C61.855 21.4692 61.3267 21.4626 61.1389 21.4626C60.7145 21.4626 60.0935 21.467 59.2713 21.478C59.0503 20.6467 58.7298 19.6694 58.3143 18.5462H54.5107C54.0731 19.4328 53.62 20.4101 53.1515 21.478C52.2144 21.4692 51.6397 21.4626 51.4276 21.4626C51.0452 21.4626 50.4264 21.467 49.5755 21.478L49.5755 21.4802ZM55.4235 16.3484H57.7706C57.1872 14.573 56.8689 13.5957 56.8136 13.4144C56.4821 14.1529 56.1992 14.7587 55.9694 15.2319L55.4257 16.3484H55.4235Z" fill="#9A4DFF"/>
<path d="M62.0119 21.4802L62.1997 19.9546L62.6639 14.657L62.8959 11.1658C63.8264 11.1768 64.5557 11.1812 65.0862 11.1812C65.526 11.1812 66.1979 11.1768 67.1018 11.1658C67.1681 11.5991 67.2234 11.9286 67.2676 12.1519C67.3118 12.3752 67.4245 12.8152 67.6035 13.4675C67.7825 14.1197 67.924 14.6835 68.0323 15.1611C68.1406 15.6365 68.3019 16.4523 68.5185 17.6065C68.7395 16.815 68.9428 16.1362 69.1241 15.5657C69.3053 14.9975 69.5329 14.3497 69.8048 13.6244C70.0766 12.8992 70.249 12.4238 70.3242 12.2005C70.3971 11.9772 70.4966 11.6323 70.6225 11.168C71.3784 11.179 72.1188 11.1835 72.8437 11.1835C73.3366 11.1835 74.0217 11.179 74.8992 11.168C74.8041 12.8661 74.74 14.3253 74.7113 15.5436C74.645 17.9315 74.614 19.5743 74.614 20.472C74.614 20.6577 74.6185 20.996 74.6295 21.4846C73.9643 21.4758 73.4979 21.4692 73.2327 21.4692C72.8459 21.4692 72.3686 21.4736 71.805 21.4846C71.847 21.0314 71.8978 19.9524 71.9575 18.2455C72.0193 16.5408 72.0503 15.4507 72.0503 14.9776C72.0503 14.772 72.0459 14.4845 72.0348 14.1153L71.0447 17.1908L69.6214 21.4824C68.9672 21.4736 68.5163 21.467 68.2688 21.467C67.9571 21.467 67.4775 21.4714 66.8344 21.4824L65.9039 17.3257L65.358 15.1125C65.3381 15.0262 65.316 14.9201 65.2895 14.7941C65.2652 14.668 65.2232 14.4469 65.1679 14.1286L64.9779 16.2224L64.7259 20.514L64.7038 21.4824C64.0098 21.4736 63.5656 21.467 63.3733 21.467C63.1103 21.467 62.6572 21.4714 62.0141 21.4824L62.0119 21.4802Z" fill="#9A4DFF"/>
<path d="M75.5313 21.4802C75.6572 20.1802 75.7501 19.0923 75.8075 18.2145C75.865 17.3368 75.9247 16.1738 75.9821 14.7189C76.0396 13.2663 76.0683 12.3023 76.0683 11.8291L76.0617 11.1636C77.2507 11.1746 78.6873 11.1791 80.3737 11.1791C81.9296 11.1791 83.3021 11.1746 84.4889 11.1636L84.4735 11.4112C84.469 11.4709 84.4558 11.6898 84.4359 12.0657L84.3895 12.886C84.3784 13.0628 84.374 13.2397 84.374 13.421C83.4015 13.3812 82.586 13.3613 81.9274 13.3613C81.2025 13.3613 80.7118 13.3613 80.4576 13.3658C80.2035 13.368 79.8057 13.379 79.2686 13.3989L79.178 15.1368C79.7725 15.1523 80.4643 15.1589 81.2555 15.1589C81.5384 15.1589 82.2876 15.1412 83.5076 15.1058C83.4568 15.7515 83.4104 16.5187 83.364 17.4097C82.4932 17.3987 81.8235 17.3943 81.355 17.3943C80.661 17.3943 79.883 17.4119 79.0211 17.4473L78.9304 19.2847H79.799C80.0554 19.2847 80.5858 19.2781 81.3925 19.2626L82.9551 19.225C83.1872 19.2206 83.5739 19.2007 84.1176 19.1653C84.058 19.9104 84.0071 20.6821 83.9673 21.478C82.7385 21.4692 81.3903 21.4626 79.925 21.4626L76.601 21.4692L75.5291 21.4758L75.5313 21.4802Z" fill="#9A4DFF"/>
<path d="M84.6525 21.4802C84.942 17.4341 85.0879 14.3209 85.0879 12.1386L85.0812 11.1636C85.9631 11.1746 86.5532 11.1791 86.8493 11.1791C86.9864 11.1791 87.5279 11.1746 88.4738 11.1636C88.3832 12.2978 88.3102 13.3702 88.2528 14.3828C88.1821 15.7935 88.1312 17.1112 88.1003 18.3384C88.0693 19.5655 88.0539 20.6113 88.0539 21.478L86.5068 21.4626C86.204 21.4626 85.5852 21.467 84.6503 21.478L84.6525 21.4802Z" fill="#9A4DFF"/>
<path d="M88.8053 21.4802L88.9556 19.8927L89.2495 14.5111L89.3335 12.3421L89.3335 11.1636C90.1159 11.1746 90.8055 11.1791 91.4066 11.1791C91.8354 11.1791 92.4388 11.1746 93.2145 11.1636L96.4391 17.0294L96.8833 17.8917C96.9408 17.0449 96.9983 15.8576 97.0579 14.332C97.1176 12.8042 97.1463 11.7495 97.1463 11.1636C97.7652 11.1746 98.2602 11.1791 98.6338 11.1791C98.8039 11.1791 99.2968 11.1746 100.112 11.1636L99.9311 13.4166L99.5907 19.6738L99.5443 21.4802C98.8901 21.4714 98.2757 21.4648 97.7077 21.4648C97.2347 21.4648 96.5783 21.4692 95.7429 21.4802C95.4821 20.9872 95.2876 20.629 95.1616 20.4057L93.8952 18.2499C93.4775 17.5446 93.093 16.868 92.7415 16.2246C92.5095 15.8156 92.2708 15.3667 92.0255 14.8781L91.8619 18.4622L91.7846 21.478C91.1613 21.4692 90.6861 21.4626 90.359 21.4626C90.0828 21.4626 89.5634 21.467 88.8053 21.478L88.8053 21.4802Z" fill="#9A4DFF"/>
<path d="M100.291 21.3232C100.225 20.2509 100.15 19.3908 100.064 18.7452C100.63 18.9972 101.131 19.1719 101.573 19.2714C102.015 19.3709 102.402 19.4196 102.736 19.4196C103.176 19.4196 103.525 19.3554 103.783 19.2272C104.044 19.099 104.172 18.9088 104.172 18.6567C104.172 18.5705 104.159 18.4887 104.135 18.4113C104.11 18.3339 104.062 18.2455 103.991 18.146C103.92 18.0465 103.819 17.9404 103.688 17.8254L102.265 16.585C101.931 16.302 101.699 16.0986 101.569 15.9726C101.301 15.7161 101.094 15.4773 100.943 15.254C100.795 15.0329 100.687 14.8073 100.618 14.5774C100.55 14.3474 100.517 14.1042 100.517 13.8478C100.517 13.5404 100.57 13.2397 100.678 12.9457C100.786 12.6516 100.948 12.3752 101.167 12.1187C101.383 11.8623 101.67 11.6411 102.029 11.4532C102.387 11.2675 102.769 11.1392 103.178 11.0707C103.587 11.0022 104.007 10.969 104.44 10.969C105.291 10.969 106.217 11.0663 107.22 11.2631C107.236 11.6102 107.253 11.9286 107.273 12.2182C107.293 12.5079 107.342 13.0164 107.417 13.7416C106.953 13.5559 106.531 13.4254 106.148 13.3525C105.766 13.2795 105.437 13.2419 105.158 13.2419C104.765 13.2419 104.44 13.3149 104.179 13.4608C103.92 13.6068 103.79 13.7881 103.79 14.0047C103.79 14.1064 103.81 14.2037 103.85 14.2988C103.889 14.3939 103.965 14.5066 104.077 14.6349C104.188 14.7631 104.334 14.9046 104.515 15.0572C104.696 15.212 104.981 15.4397 105.368 15.7404L105.912 16.1715C106.073 16.302 106.245 16.4612 106.433 16.6469C106.619 16.8326 106.78 17.0162 106.917 17.1997C107.054 17.3832 107.158 17.5468 107.231 17.6994C107.304 17.8497 107.357 18.0023 107.393 18.1571C107.428 18.3118 107.446 18.4754 107.446 18.6523C107.446 19.1056 107.337 19.5367 107.121 19.948C106.904 20.3592 106.597 20.6953 106.199 20.9606C105.801 21.226 105.364 21.4095 104.888 21.5156C104.413 21.6217 103.909 21.6748 103.381 21.6748C102.566 21.6748 101.536 21.5554 100.291 21.3188L100.291 21.3232Z" fill="#9A4DFF"/>
<path d="M107.85 21.4802C108.14 17.4341 108.285 14.3209 108.285 12.1386L108.279 11.1636C109.161 11.1746 109.751 11.1791 110.047 11.1791C110.184 11.1791 110.725 11.1746 111.671 11.1636C111.581 12.2978 111.508 13.3702 111.45 14.3828C111.38 15.7935 111.329 17.1112 111.298 18.3384C111.267 19.5655 111.251 20.6113 111.251 21.478L109.704 21.4626C109.401 21.4626 108.783 21.467 107.848 21.478L107.85 21.4802Z" fill="#9A4DFF"/>
<path d="M112.009 21.4803C112.12 20.3305 112.197 19.413 112.237 18.7209C112.297 17.6928 112.359 16.3639 112.418 14.73C112.465 13.4808 112.487 12.5853 112.487 12.048L112.487 11.1636C113.077 11.1791 113.585 11.1857 114.012 11.1857C114.438 11.1857 114.967 11.1747 115.636 11.1525C116.306 11.1304 116.936 11.1194 117.524 11.1194C118.198 11.1194 118.79 11.1592 119.298 11.241C119.807 11.3206 120.282 11.4886 120.722 11.7407C121.162 11.9927 121.531 12.3222 121.829 12.7312C122.127 13.1403 122.353 13.6156 122.51 14.164C122.667 14.7101 122.744 15.2739 122.744 15.8532C122.744 16.4325 122.684 16.9698 122.563 17.496C122.441 18.0222 122.273 18.4976 122.057 18.9199C121.84 19.3422 121.588 19.707 121.296 20.0121C121.007 20.3173 120.675 20.5782 120.304 20.7949C120.028 20.9563 119.747 21.0823 119.466 21.1729C119.184 21.2636 118.799 21.3366 118.311 21.3918C117.767 21.4515 117.15 21.4825 116.461 21.4825L113.408 21.4604C113.121 21.4604 112.655 21.467 112.012 21.4825L112.009 21.4803ZM115.276 19.2051C115.552 19.2294 115.842 19.2427 116.145 19.2427C116.657 19.2427 117.117 19.1963 117.519 19.1056C117.922 19.015 118.275 18.8204 118.58 18.5241C118.885 18.2278 119.111 17.8453 119.256 17.3788C119.402 16.9123 119.475 16.4347 119.475 15.9461C119.475 15.3469 119.367 14.8405 119.15 14.4315C118.934 14.0203 118.644 13.735 118.286 13.5736C117.926 13.4122 117.435 13.3326 116.816 13.3326C116.454 13.3326 116.025 13.3481 115.532 13.3791L115.278 19.2051H115.276Z" fill="#9A4DFF"/>
<path d="M122.837 21.4802C122.963 20.1802 123.056 19.0923 123.113 18.2145C123.171 17.3368 123.23 16.1738 123.288 14.7189C123.345 13.2663 123.374 12.3023 123.374 11.8291L123.367 11.1636C124.556 11.1746 125.993 11.1791 127.679 11.1791C129.235 11.1791 130.608 11.1746 131.795 11.1636L131.779 11.4112C131.775 11.4709 131.761 11.6898 131.741 12.0657L131.695 12.886C131.684 13.0628 131.68 13.2397 131.68 13.421C130.707 13.3812 129.892 13.3613 129.233 13.3613C128.508 13.3613 128.017 13.3613 127.763 13.3658C127.509 13.368 127.111 13.379 126.574 13.3989L126.481 15.1368C127.076 15.1523 127.768 15.1589 128.559 15.1589C128.842 15.1589 129.591 15.1412 130.811 15.1058C130.76 15.7515 130.714 16.5187 130.667 17.4097C129.797 17.3987 129.127 17.3943 128.658 17.3943C127.964 17.3943 127.186 17.4119 126.324 17.4473L126.234 19.2847H127.102C127.359 19.2847 127.889 19.2781 128.696 19.2626L130.258 19.225C130.491 19.2206 130.877 19.2007 131.421 19.1653C131.361 19.9104 131.311 20.6821 131.271 21.478C130.042 21.4692 128.694 21.4626 127.228 21.4626L123.904 21.4692L122.832 21.4758L122.837 21.4802Z" fill="#9A4DFF"/>
<path d="M131.914 21.4802C131.954 20.8058 131.989 19.8926 132.02 18.7451L133.576 18.7672C133.742 18.7672 134.179 18.7606 134.891 18.7451C134.851 19.2935 134.805 20.2066 134.754 21.4802L133.439 21.4647C133.344 21.4647 132.836 21.4691 131.914 21.4802Z" fill="#9A4DFF"/>
<path d="M135.832 11.1658C136.617 11.1768 137.172 11.1812 137.494 11.1812C137.897 11.1812 138.434 11.1768 139.103 11.1658L138.878 14.3784C138.834 14.982 138.798 15.5502 138.776 16.0787C138.754 16.6071 138.743 16.9719 138.743 17.1754C138.743 17.5579 138.77 17.8785 138.827 18.1349C138.882 18.3914 138.984 18.6103 139.13 18.7894C139.276 18.9685 139.479 19.1034 139.738 19.194C139.996 19.2847 140.268 19.3311 140.549 19.3311C140.79 19.3311 141.017 19.2979 141.227 19.2316C141.393 19.1785 141.541 19.1034 141.672 19.0061C141.787 18.9154 141.888 18.8115 141.974 18.6921C142.081 18.5484 142.173 18.3693 142.253 18.1526C142.332 17.9492 142.394 17.6839 142.434 17.3611C142.481 17.0316 142.54 16.2821 142.615 15.1125C142.682 14.1175 142.73 13.2043 142.766 12.3774C142.797 11.5726 142.823 11.1724 142.85 11.1724H146.18L145.813 16.5386C145.809 16.6403 145.807 16.7221 145.807 16.7884C145.787 17.8365 145.723 18.5749 145.614 19.0061C145.506 19.4372 145.327 19.8109 145.075 20.1293C144.823 20.4477 144.456 20.7329 143.972 20.9872C143.488 21.2414 142.94 21.4227 142.326 21.5267C141.711 21.6328 141.088 21.6859 140.46 21.6859C139.897 21.6859 139.353 21.6461 138.829 21.5642C138.345 21.4847 137.91 21.3675 137.521 21.2127C137.134 21.0601 136.796 20.8788 136.509 20.6732C136.246 20.4808 136.045 20.2863 135.903 20.0873C135.762 19.8883 135.651 19.6495 135.572 19.3731C135.481 19.0614 135.435 18.7253 135.435 18.3671C135.435 18.2455 135.439 18.0642 135.45 17.8188C135.461 17.5755 135.483 17.224 135.519 16.7641L135.618 15.5547C135.642 15.2363 135.671 14.772 135.702 14.1573L135.839 11.1724L135.832 11.1658Z" fill="#9A4DFF"/>
<path d="M144.938 21.4802L145.566 20.3924L149.473 13.0319L149.889 12.2072C150.01 11.9662 150.178 11.6168 150.395 11.1636C151.281 11.1746 151.929 11.1791 152.335 11.1791C153.045 11.1791 153.704 11.1746 154.307 11.1636L155.41 14.3143L157.651 20.3747L158.088 21.478C157.215 21.4692 156.687 21.4626 156.499 21.4626C156.075 21.4626 155.454 21.467 154.632 21.478C154.411 20.6467 154.09 19.6694 153.675 18.5462H149.871C149.434 19.4328 148.981 20.4101 148.512 21.478C147.575 21.4692 147 21.4626 146.788 21.4626C146.406 21.4626 145.787 21.467 144.936 21.478L144.938 21.4802ZM150.786 16.3484H153.133C152.55 14.573 152.232 13.5957 152.176 13.4144C151.845 14.1529 151.562 14.7587 151.332 15.2319L150.788 16.3484H150.786Z" fill="#9A4DFF"/>
</g>
<defs>
<clipPath id="clip0_192_52886">
<rect width="158.091" height="36" fill="white"/>
</clipPath>
</defs>
</svg>
