<svg width="126" height="29" viewBox="0 0 126 29" fill="none" xmlns="http://www.w3.org/2000/svg">
<path d="M50.7599 0H47.8403L47.8403 29H50.7599L50.7599 0Z" fill="#9A4DFF"/>
<path d="M67.2163 13.7806C67.9883 13.4277 68.6323 12.8445 69.0598 12.1111C69.4928 11.3439 69.7116 10.4743 69.6932 9.59351C69.6932 7.82484 69.0916 6.50983 67.8885 5.64849C66.6854 4.78715 64.8502 4.35606 62.383 4.35522H55.2446L55.2446 6.88656H57.7528L57.7528 22.116H55.2446L55.2446 24.6473H62.2676C65.0851 24.6473 67.2012 24.1422 68.6159 23.132C70.0305 22.1218 70.737 20.6521 70.7353 18.7229C70.7353 17.5471 70.4327 16.5307 69.8274 15.6735C69.222 14.8163 68.3517 14.1854 67.2163 13.7806ZM60.794 6.88155H62.8006C64.0296 6.88155 64.9811 7.12197 65.6549 7.60281C66.3288 8.08366 66.6632 8.79949 66.6582 9.75031C66.6582 11.7874 65.379 12.8064 62.8206 12.8072H60.794L60.794 6.88155ZM66.9003 20.9243C66.3814 21.4377 65.7156 21.7766 64.9953 21.894C64.0079 22.0583 63.0076 22.1326 62.0067 22.116H60.794L60.794 15.3298H62.7466C64.4188 15.3298 65.6507 15.6058 66.4425 16.1577C67.2343 16.7096 67.631 17.5459 67.6327 18.6664C67.6327 19.6741 67.3885 20.4268 66.9003 20.9243Z" fill="#9A4DFF"/>
<path d="M85.7196 15.489C85.7196 13.63 85.2823 12.2698 84.4078 11.4085C83.5332 10.5471 82.1487 10.1165 80.2542 10.1165C78.8445 10.1165 77.6285 10.3924 76.606 10.9443C75.5609 11.5177 74.712 12.3917 74.1692 13.4531L76.8342 14.1129C77.1306 13.5909 77.5643 13.1601 78.0883 12.8673C78.595 12.5939 79.2254 12.4567 79.9795 12.4559C81.048 12.4559 81.8155 12.6938 82.2821 13.1696C82.7486 13.6454 82.9818 14.4357 82.9818 15.5404L82.9818 17.062C81.8478 16.2728 80.4994 15.85 79.1179 15.8502C78.2656 15.8563 77.4248 16.049 76.6549 16.4147C75.8723 16.7644 75.1998 17.3208 74.7097 18.0241C74.2514 18.7068 74.0011 19.5079 73.989 20.3302C73.977 21.1525 74.2039 21.9606 74.642 22.6565C75.0865 23.3454 75.6977 23.9108 76.4191 24.3002C77.1404 24.6897 77.9484 24.8906 78.768 24.8843C80.4193 24.8843 81.9179 24.2245 83.264 22.9049L83.264 24.6422H88.0836L88.0836 22.1673H85.7196L85.7196 15.489ZM82.9869 21.0358C81.7929 22.1765 80.5142 22.7464 79.1505 22.7456C78.4148 22.7456 77.8132 22.5235 77.3459 22.0795C77.1161 21.8548 76.9353 21.5848 76.8151 21.2867C76.6948 20.9886 76.6377 20.6688 76.6472 20.3475C76.6568 20.0262 76.7328 19.7103 76.8705 19.4199C77.0083 19.1294 77.2047 18.8707 77.4475 18.66C77.9742 18.2 78.6533 17.9527 79.3524 17.9664C80.5639 17.9664 81.7762 18.4376 82.9894 19.3801L82.9869 21.0358Z" fill="#9A4DFF"/>
<path d="M106.902 24.6467L106.902 22.1693H104.531L104.531 15.1272C104.531 13.4756 104.228 12.2593 103.621 11.4782C103.015 10.6972 102.08 10.3066 100.815 10.3066C99.2897 10.3066 97.6593 10.9397 95.9237 12.2058L95.9237 10.4948H90.694L90.694 12.986H93.1847L93.1847 22.1693H90.694L90.694 24.6467H98.3679L98.3679 22.1693H95.9312L95.9312 14.643C97.4737 13.4229 98.8645 12.8129 100.104 12.8129C100.689 12.8129 101.107 13.0056 101.358 13.3912C101.609 13.7767 101.738 14.4143 101.746 15.3041L101.746 24.6492L106.902 24.6467Z" fill="#9A4DFF"/>
<path d="M125.474 12.8123L125.474 10.4954H117.64L117.64 12.8123H119.875L114.718 17.1474L114.718 4.35522H109.401L109.401 6.80628H111.931L111.931 22.1699H109.401L109.401 24.6473H117.115L117.115 22.1699H114.718L114.718 17.5112L121.8 24.6473H125.474L125.474 22.1699H122.998L118.002 17.2013L123.294 12.8123H125.474Z" fill="#9A4DFF"/>
<path d="M40.6675 14.8205H36.1991L36.1991 17.2841H40.157C39.6153 18.7075 38.6551 19.9334 37.403 20.8002C36.1508 21.667 34.6656 22.134 33.1428 22.1398C28.983 22.1398 25.6107 18.7204 25.6107 14.5019C25.6107 10.2834 28.983 6.86398 33.1428 6.86398C34.5544 6.86812 35.9363 7.26929 37.1307 8.02168C38.3251 8.77407 39.2839 9.84733 39.8974 11.1188H42.8459C42.1902 9.14984 40.9318 7.43708 39.2488 6.22318C37.5659 5.00928 35.5438 4.35577 33.4689 4.35522H32.8193C31.5212 4.35522 30.2359 4.61097 29.0367 5.10785C27.8375 5.60474 26.7478 6.33303 25.8301 7.25114C24.9123 8.16925 24.1843 9.2592 23.6876 10.4587C23.191 11.6583 22.9355 12.9439 22.9357 14.2422L22.9357 14.7616C22.9357 17.3834 23.977 19.8979 25.8305 21.7518C27.684 23.6058 30.198 24.6473 32.8193 24.6473H33.4689C36.0798 24.647 38.5845 23.6135 40.4361 21.7723C42.2877 19.9311 43.3357 17.4319 43.3513 14.8205H40.6675Z" fill="#9A4DFF"/>
<path d="M17.797 14.8205H13.3287L13.3287 17.2841H17.2866C16.7447 18.7074 15.7844 19.9332 14.5324 20.8C13.2803 21.6667 11.7951 22.1339 10.2724 22.1398C6.11127 22.1398 2.73897 18.7204 2.73897 14.5019C2.73897 10.2834 6.11127 6.86398 10.2724 6.86398C11.6837 6.86835 13.0654 7.26964 14.2596 8.02201C15.4537 8.77439 16.4123 9.84752 17.0258 11.1188H19.9754C19.3196 9.14994 18.0611 7.43729 16.3782 6.22342C14.6953 5.00954 12.6733 4.35596 10.5985 4.35522H9.94758C7.32617 4.35556 4.81223 5.39737 2.95873 7.25151C1.10523 9.10565 0.0639648 11.6203 0.0639648 14.2422L0.0639648 14.7616C0.0642974 17.3833 1.10571 19.8976 2.95918 21.7515C4.81264 23.6054 7.32638 24.647 9.94758 24.6473H10.5985C13.2095 24.6474 15.7144 23.6139 17.566 21.7726C19.4177 19.9314 20.4656 17.432 20.4808 14.8205H17.797Z" fill="#9A4DFF"/>
</svg>
