<svg width="115" height="32" viewBox="0 0 115 32" fill="none" xmlns="http://www.w3.org/2000/svg">
<g clip-path="url(#clip0_192_52926)">
<path d="M32.7617 9.35978C33.4192 9.35978 33.9469 9.17957 34.3447 8.82076C34.7424 8.46196 34.9405 7.97652 34.9405 7.36445C34.9405 6.85953 34.7652 6.46988 34.4129 6.19387C34.0605 5.91787 33.6027 5.78149 33.0361 5.78149C32.4094 5.78149 31.885 5.96171 31.4645 6.32051C31.044 6.67931 30.8329 7.12741 30.8329 7.66155C30.8329 8.1957 30.9937 8.61295 31.3151 8.91168C31.6366 9.21041 32.1172 9.35816 32.7601 9.35816L32.7617 9.35978Z" fill="#FF007A"/>
<path d="M61.8247 9.35978C62.4822 9.35978 63.0099 9.17957 63.4077 8.82076C63.8054 8.46196 64.0035 7.97652 64.0035 7.36445C64.0035 6.85953 63.8282 6.46988 63.4758 6.19387C63.1235 5.91787 62.6657 5.78149 62.0991 5.78149C61.4724 5.78149 60.948 5.96171 60.5275 6.32051C60.107 6.67931 59.8959 7.12741 59.8959 7.66155C59.8959 8.1957 60.0567 8.61295 60.3781 8.91168C60.6996 9.21041 61.1802 9.35816 61.8231 9.35816L61.8247 9.35978Z" fill="#FF007A"/>
<path d="M72.9492 10.7122H70.3808C72.368 8.95392 73.3632 6.88877 73.3632 4.5184C73.3632 3.66279 73.1798 2.95168 72.8128 2.38507C72.4459 1.82008 71.941 1.53596 71.2997 1.53596C70.4279 1.53596 69.6128 1.94833 68.8563 2.77472C68.0997 3.6011 67.4535 4.70998 66.9178 6.10135C66.382 7.49273 65.9842 9.03022 65.7245 10.7122H64.4175C63.7291 10.7122 63.3849 11.1408 63.3849 11.9964C63.3849 12.3634 63.4645 12.6312 63.6252 12.8001C63.786 12.9689 64.0961 13.0517 64.5539 13.0517H65.4485C65.403 13.7401 65.3803 14.4204 65.3803 15.0941C65.3803 15.5845 65.4014 16.0504 65.4436 16.4936C65.3072 16.5423 65.1773 16.6316 65.0604 16.7696C64.3721 17.596 63.8217 18.2 63.4093 18.5815C62.9969 18.9647 62.6527 19.1546 62.3767 19.1546C62.0861 19.1546 61.8799 19.0329 61.7581 18.7877C61.6364 18.5426 61.5747 18.1919 61.5747 17.7324C61.5747 17.1366 61.7582 15.9968 62.1251 14.3148C62.4157 12.9235 62.5602 12.037 62.5602 11.6539C62.5602 11.1343 62.1705 10.8746 61.3896 10.8746C60.8847 10.8746 60.5178 10.9671 60.2888 11.1506C60.0599 11.334 59.8765 11.6701 59.7385 12.1604C59.4625 13.0939 59.2368 14.0989 59.0615 15.1769C58.9137 16.0813 58.8293 16.8476 58.8049 17.4775C58.3617 17.9727 57.9834 18.351 57.6733 18.6075C57.2301 18.9744 56.7706 19.1579 56.2966 19.1579C55.8533 19.1579 55.475 19.0312 55.1617 18.7796C54.8484 18.5279 54.66 18.1951 54.6 17.7811C55.6406 17.2307 56.3745 16.604 56.8015 15.8994C57.2301 15.1964 57.4444 14.4236 57.4444 13.5826C57.4444 12.8179 57.2106 12.175 56.7447 11.6555C56.2787 11.136 55.6634 10.8762 54.8987 10.8762C54.0723 10.8762 53.1859 11.3081 52.2377 12.1718C51.2896 13.0355 50.4486 14.4236 49.7147 16.3345C49.7147 15.4935 49.7375 14.6753 49.7829 13.8797C51.8172 11.662 53.2849 9.72347 54.1876 8.06421C55.0903 6.40496 55.5416 4.80252 55.5416 3.25853C55.5416 2.29577 55.3241 1.5116 54.8873 0.907645C54.4522 0.303688 53.8824 0.00170898 53.1777 0.00170898C51.8627 0.00170898 50.7343 0.870303 49.7943 2.60587C48.8542 4.34143 48.1431 6.48613 47.6609 9.03996C47.1788 11.5938 46.9385 14.0486 46.9385 16.4027C46.9385 16.7112 46.9401 17.0002 46.945 17.2746C46.4384 17.8574 46.0195 18.299 45.6883 18.5929C45.2678 18.9679 44.9042 19.1546 44.5989 19.1546C44.1557 19.1546 43.9333 18.8494 43.9333 18.2373C43.9333 17.8087 44.0778 16.9304 44.3684 15.5991C44.7045 14.0388 44.8733 12.9608 44.8733 12.365C44.8733 11.3714 44.3765 10.8746 43.3829 10.8746C42.878 10.8746 42.3244 11.0499 41.7204 11.4022C41.1164 11.7545 40.5011 12.3422 39.8744 13.1686C39.2478 13.995 38.6811 15.0649 38.1762 16.38C38.2379 15.7078 38.3142 15.1412 38.4051 14.6834C38.4977 14.2239 38.6194 13.6898 38.7721 13.0777C39.001 12.2221 39.1162 11.6701 39.1162 11.4266C39.1162 11.2123 39.0546 11.0678 38.9328 10.9898C38.811 10.9135 38.5967 10.8746 38.2899 10.8746C37.7232 10.8746 37.2849 10.9785 36.9715 11.1847C36.6582 11.3909 36.4325 11.7156 36.2945 12.1604C35.7685 13.8245 35.4909 15.5747 35.4535 17.4093C35.0136 17.9159 34.6434 18.3071 34.3447 18.5831C33.9323 18.9663 33.5881 19.1562 33.3121 19.1562C33.0215 19.1562 32.8153 19.0345 32.6935 18.7893C32.5718 18.5442 32.5101 18.1935 32.5101 17.734C32.5101 17.1382 32.6935 15.9985 33.0604 14.3165C33.351 12.9251 33.4955 12.0386 33.4955 11.6555C33.4955 11.136 33.1059 10.8762 32.325 10.8762C31.82 10.8762 31.4531 10.9687 31.2242 11.1522C30.9953 11.3357 30.8118 11.6717 30.6738 12.162C30.3978 13.0956 30.1722 14.1005 29.9968 15.1786C29.8491 16.0878 29.763 16.8557 29.7403 17.4872C29.3182 17.9662 28.9626 18.338 28.6785 18.5961C28.2661 18.9712 27.9138 19.1579 27.6232 19.1579C27.4397 19.1579 27.2904 19.0897 27.1767 18.9517C27.0631 18.8137 27.0046 18.6302 27.0046 18.4013C27.0046 17.7129 27.18 16.4904 27.5323 14.7305C27.7612 13.5226 27.8765 12.7579 27.8765 12.4364C27.8765 11.9006 27.5014 11.6328 26.753 11.6328C26.4007 11.6328 26.0646 11.6636 25.7431 11.7253C25.6668 11.3892 25.571 11.1554 25.4558 11.0256C25.3405 10.8957 25.1148 10.8307 24.7788 10.8307C23.7234 10.8307 22.725 11.1636 21.7849 11.8292C20.8449 12.4949 20.0916 13.3748 19.525 14.4675C19.0801 15.3279 18.8122 16.2274 18.7181 17.1674C17.9031 17.7292 17.0263 18.3607 16.0847 19.067L16.3363 17.3233C16.5961 15.5958 16.7487 14.4869 16.7958 13.9966C16.8413 13.5843 16.7536 13.266 16.5312 13.0452C16.3087 12.8244 16.0295 12.7124 15.6934 12.7124H11.404C11.0209 12.7124 10.7156 12.8342 10.4867 13.0793C10.2578 13.3245 10.1425 13.6606 10.1425 14.0892C10.1425 14.5632 10.2578 14.9042 10.4867 15.1104C10.7156 15.3166 11.0452 15.4205 11.4738 15.4205H13.8134L13.4919 18.2195C12.3457 18.6935 11.2433 18.9306 10.188 18.9306C8.29169 18.9306 6.84187 18.4305 5.84177 17.4288C4.84004 16.4271 4.33999 15.0081 4.33999 13.1735C4.33999 11.3389 4.6306 9.85173 5.21183 8.57401C5.79306 7.2979 6.561 6.33677 7.51726 5.69547C8.47353 5.05255 9.50935 4.73271 10.6263 4.73271C11.5436 4.73271 12.1979 4.90805 12.5876 5.26036C12.9772 5.61267 13.1721 6.10947 13.1721 6.75077C13.1721 6.99593 13.1266 7.332 13.0341 7.76061C12.9724 8.12753 12.9415 8.3873 12.9415 8.53991C12.9415 8.89222 13.0681 9.1666 13.3198 9.36629C13.5714 9.56599 13.9043 9.66503 14.3183 9.66503C14.9304 9.66503 15.3996 9.3939 15.7291 8.85001C16.0571 8.30775 16.2227 7.58527 16.2227 6.68258C16.2227 5.30582 15.7762 4.20181 14.88 3.36731C13.9854 2.53443 12.6428 2.11718 10.8536 2.11718C9.0645 2.11718 7.30133 2.59613 5.79468 3.55077C4.28804 4.50704 3.10772 5.85295 2.25049 7.58852C1.39651 9.31759 0.967896 11.3178 0.967896 13.581C0.967896 15.2013 1.3267 16.6235 2.04593 17.8477C2.76516 19.0718 3.77338 20.0151 5.07383 20.6808C6.37266 21.3464 7.87931 21.6792 9.59215 21.6792C10.7546 21.6792 11.9398 21.4276 13.1477 20.9227L13.0795 21.3594C11.4738 22.5982 10.2318 23.6989 9.35186 24.6633C8.4719 25.6261 7.87282 26.4752 7.55136 27.209C7.22989 27.9429 7.06916 28.6686 7.06916 29.3878C7.06916 30.1671 7.31432 30.7987 7.803 31.2809C8.29169 31.763 8.9265 32.0033 9.70742 32.0033C11.1605 32.0033 12.3603 31.0925 13.3084 29.2742C14.2566 27.4542 15.0294 24.962 15.6252 21.7961C16.976 20.8642 18.0703 20.1158 18.9194 19.5427C19.0606 19.9583 19.2603 20.3284 19.525 20.6499C20.09 21.3383 20.8482 21.6825 21.7963 21.6825C23.0042 21.6825 24.0059 21.0412 24.8015 19.7553C25.0158 20.3512 25.3324 20.822 25.7529 21.1662C26.1734 21.5104 26.6361 21.6825 27.141 21.6825C27.7985 21.6825 28.4788 21.4146 29.1834 20.8805C29.5033 20.6369 29.815 20.3642 30.1202 20.0687C30.203 20.2684 30.3004 20.4551 30.4108 20.6272C30.8622 21.3302 31.5846 21.6825 32.5782 21.6825C33.5718 21.6825 34.5622 21.1824 35.6354 20.1856C35.6825 20.4048 35.7377 20.5996 35.801 20.7652C36.038 21.3773 36.4471 21.6825 37.0284 21.6825C37.5024 21.6825 37.8499 21.5558 38.0723 21.3042C38.2931 21.0525 38.4896 20.5671 38.6568 19.8479C38.8857 18.9143 39.1877 18.0279 39.5627 17.1869C39.9378 16.3459 40.3047 15.6689 40.6635 15.1575C41.0223 14.6461 41.3015 14.3895 41.5012 14.3895C41.6701 14.3895 41.7529 14.5129 41.7529 14.7565C41.7529 15.1234 41.6538 15.789 41.4541 16.7518C41.2398 17.8525 41.1327 18.6172 41.1327 19.0458C41.1327 19.9031 41.3308 20.5557 41.7285 21.0071C42.1263 21.4584 42.7156 21.6841 43.4949 21.6841C44.4577 21.6841 45.3182 21.4243 46.0764 20.9048C46.4352 20.658 46.7826 20.3772 47.1203 20.0654C47.2047 20.5395 47.3314 20.9081 47.4986 21.1678C47.7194 21.512 48.0685 21.6841 48.5425 21.6841C49.0166 21.6841 49.364 21.5575 49.5865 21.3058C49.8073 21.0542 50.0037 20.5687 50.1709 19.8495C50.4161 18.8559 50.7522 17.8883 51.1808 16.9482C51.6094 16.0082 52.0721 15.2386 52.5689 14.6428C53.0657 14.047 53.5203 13.7482 53.9343 13.7482C54.1032 13.7482 54.2444 13.8164 54.3581 13.9544C54.4717 14.0924 54.5301 14.2986 54.5301 14.573C54.5301 15.0471 54.384 15.4481 54.095 15.7777C53.8044 16.1072 53.3222 16.4157 52.6501 16.7063C52.038 16.9661 51.7328 17.3947 51.7328 17.9905C51.7328 19.1075 52.0916 20.0021 52.8108 20.6743C53.53 21.348 54.4782 21.6841 55.6553 21.6841C56.618 21.6841 57.4525 21.4325 58.1555 20.9275C58.4997 20.6808 58.8406 20.3934 59.1816 20.0654C59.266 20.2668 59.3634 20.4551 59.4738 20.6288C59.9252 21.3318 60.6476 21.6841 61.6413 21.6841C62.9563 21.6841 64.3704 20.7587 65.8852 18.9078C65.9031 18.8867 65.9193 18.864 65.9355 18.8413C66.0638 19.205 66.2148 19.5459 66.3885 19.8592C67.0606 21.0753 68.1241 21.6825 69.5771 21.6825C70.587 21.6825 71.488 21.3545 72.2836 20.697C72.5125 20.5135 72.6846 20.2846 72.7999 20.0086C72.9151 19.7326 72.972 19.4501 72.972 19.1595C72.972 18.8689 72.9151 18.6205 72.7999 18.4143C72.6846 18.2081 72.5352 18.1042 72.3518 18.1042C72.1829 18.1042 72.0157 18.1805 71.8468 18.3331C71.5725 18.5783 71.2656 18.7763 70.9295 18.929C70.5935 19.0816 70.3028 19.1579 70.0577 19.1579C69.5836 19.1579 69.2118 19.0247 68.9456 18.7569C68.6777 18.489 68.4861 18.0457 68.3725 17.4272C68.2572 16.807 68.2004 15.9481 68.2004 14.8457C68.2004 14.4171 68.215 13.8213 68.2458 13.0566H71.0448C72.7723 13.0566 73.6376 12.529 73.6376 11.4737C73.6376 11.183 73.584 10.985 73.4769 10.8778C73.3697 10.7707 73.1944 10.7171 72.9492 10.7171L72.9492 10.7122ZM50.8025 6.64037C51.1158 5.30257 51.4405 4.23915 51.7766 3.45173C52.1127 2.66432 52.4195 2.2698 52.6939 2.2698C52.892 2.2698 53.0462 2.39968 53.1534 2.65945C53.2605 2.91921 53.3141 3.29425 53.3141 3.78294C53.3141 4.85285 53.004 6.04615 52.3854 7.36122C51.7669 8.67629 50.9827 9.89232 50.0346 11.0093C50.2326 9.43448 50.4892 7.97817 50.8025 6.63875L50.8025 6.64037ZM11.2676 28.4218C10.7936 29.3245 10.3568 29.7758 9.96069 29.7758C9.53208 29.7758 9.31777 29.4771 9.31777 28.8813C9.31777 28.2854 9.57429 27.5629 10.0857 26.7593C10.5971 25.9573 11.4349 25.0578 12.5973 24.0642C12.1849 26.0677 11.7401 27.5207 11.266 28.4234L11.2676 28.4218ZM24.2511 17.182C24.1131 17.8396 23.8923 18.3672 23.5854 18.765C23.2786 19.1627 22.9588 19.3608 22.6227 19.3608C22.2866 19.3608 22.022 19.2455 21.832 19.0166C21.6404 18.7877 21.5447 18.4354 21.5447 17.9613C21.5447 17.1057 21.7054 16.2939 22.0268 15.5293C22.3483 14.7646 22.7802 14.1492 23.3224 13.6833C23.8647 13.2173 24.4573 12.9754 25.1002 12.9608L24.2511 17.182ZM68.4764 10.3696C68.6452 9.13088 68.8547 8.00252 69.1079 6.98618C69.3596 5.96985 69.6275 5.17431 69.9116 4.6012C70.1941 4.02809 70.4506 3.74072 70.6795 3.74072C71.0156 3.74072 71.1844 4.19207 71.1844 5.09476C71.1844 5.89029 70.9588 6.7735 70.5074 7.74438C70.0561 8.71526 69.3791 9.59034 68.478 10.3713L68.4764 10.3696Z" fill="#FF007A"/>
<path d="M76.62 17.4108C75.917 17.4108 75.3699 17.617 74.9802 18.0294C74.5906 18.4418 74.3958 18.9921 74.3958 19.6805C74.3958 20.2764 74.5679 20.7585 74.912 21.1255C75.2562 21.4924 75.7644 21.6758 76.4382 21.6758C77.1119 21.6758 77.6688 21.4664 78.0666 21.0443C78.4643 20.6238 78.6624 20.062 78.6624 19.3591C78.6624 18.7161 78.4903 18.2307 78.1461 17.9027C77.8019 17.5748 77.2938 17.4092 76.62 17.4092L76.62 17.4108Z" fill="#FF007A"/>
<path d="M113.861 11.2512C113.609 10.9995 113.237 10.8729 112.749 10.8729C112.26 10.8729 111.693 11.045 111.098 11.3892C110.502 11.7334 109.893 12.3114 109.274 13.1215C108.656 13.9317 108.092 14.9788 107.587 16.2647C107.633 15.9887 107.717 15.5763 107.839 15.0259C108.13 13.7417 108.274 12.8553 108.274 12.3649C108.274 11.8746 108.164 11.4866 107.941 11.2415C107.719 10.9963 107.341 10.8745 106.807 10.8745C106.272 10.8745 105.701 11.0775 105.097 11.4817C104.493 11.8876 103.904 12.5029 103.33 13.3277C102.757 14.1541 102.264 15.1623 101.851 16.3556C101.913 15.6835 101.989 15.1201 102.08 14.6704C102.173 14.219 102.295 13.6881 102.447 13.0761C102.676 12.2205 102.791 11.6684 102.791 11.4249C102.791 11.2106 102.73 11.0661 102.608 10.9882C102.486 10.9119 102.272 10.8729 101.965 10.8729C101.398 10.8729 100.96 10.9768 100.647 11.183C100.333 11.3892 100.108 11.7139 99.9698 12.1588C99.7035 12.9998 99.5022 13.8635 99.3626 14.7483C98.6791 14.8993 98.0702 14.9935 97.5393 15.0276C97.4176 13.8505 97.0003 12.8601 96.2892 12.0565C95.5781 11.2544 94.6413 10.8518 93.4788 10.8518C92.5307 10.8518 91.667 11.1083 90.8861 11.6197C90.1068 12.1328 89.4947 12.8439 89.0514 13.7531C88.6082 14.6623 88.3858 15.6997 88.3858 16.8622C88.3858 17.1511 88.4069 17.432 88.4442 17.7064C88.027 18.096 87.6065 18.4159 87.1811 18.6627C86.4554 19.0832 85.7784 19.2942 85.1517 19.2942C83.6061 19.2942 82.8349 18.4078 82.8349 16.6332C82.8349 15.9903 82.9275 15.4026 83.1109 14.8668C83.2944 14.3311 83.5395 13.9073 83.8448 13.594C84.15 13.2806 84.4796 13.1231 84.8319 13.1231C85.0153 13.1231 85.1566 13.1767 85.2556 13.2839C85.3546 13.391 85.405 13.5436 85.405 13.7433C85.405 13.943 85.366 14.1557 85.2897 14.3863C85.2735 14.448 85.2507 14.547 85.2215 14.685C85.1907 14.823 85.1761 14.9448 85.1761 15.0519C85.1761 15.2971 85.2637 15.487 85.4391 15.625C85.6144 15.763 85.8482 15.8312 86.1388 15.8312C86.5983 15.8312 86.9685 15.6104 87.2509 15.1656C87.5334 14.7223 87.6747 14.1801 87.6747 13.5371C87.6747 12.7578 87.4409 12.1182 86.9749 11.6214C86.509 11.1246 85.8547 10.8762 85.0137 10.8762C84.1727 10.8762 83.3398 11.1278 82.5589 11.6327C81.7796 12.1377 81.1448 12.8569 80.6545 13.7888C80.1642 14.7223 79.9207 15.8069 79.9207 17.0456C79.9207 18.437 80.3379 19.5572 81.1708 20.4063C82.0037 21.2555 83.1694 21.6792 84.6695 21.6792C85.6014 21.6792 86.5691 21.4389 87.5708 20.9567C88.1764 20.6661 88.7284 20.2992 89.2317 19.8592C89.5336 20.3154 89.9119 20.7018 90.3698 21.0136C91.0192 21.4568 91.8034 21.6792 92.7207 21.6792C93.8068 21.6792 94.7777 21.2928 95.6333 20.5216C96.4889 19.7488 97.0636 18.7211 97.3542 17.4369C97.9777 17.4109 98.567 17.3362 99.1304 17.2226C99.1239 17.4239 99.119 17.6252 99.119 17.8282C99.119 19.1741 99.2375 20.1531 99.4746 20.7652C99.7116 21.3772 100.121 21.6825 100.702 21.6825C101.176 21.6825 101.523 21.5558 101.746 21.3042C101.967 21.0525 102.163 20.5671 102.33 19.8478C102.528 19.0215 102.793 18.1805 103.123 17.3249C103.451 16.4693 103.792 15.7646 104.144 15.2143C104.496 14.6639 104.787 14.3879 105.016 14.3879C105.185 14.3879 105.267 14.5113 105.267 14.7548C105.267 15.0616 105.206 15.7029 105.084 16.6819C104.931 17.7827 104.855 18.6237 104.855 19.2049C104.855 19.8933 104.982 20.4778 105.233 20.96C105.485 21.4422 105.865 21.6825 106.368 21.6825C106.871 21.6825 107.212 21.5607 107.435 21.3155C107.656 21.0704 107.852 20.5817 108.019 19.8478C108.248 18.9143 108.547 18.0279 108.914 17.1869C109.281 16.3459 109.648 15.6689 110.015 15.1574C110.382 14.646 110.664 14.3895 110.864 14.3895C111.033 14.3895 111.115 14.5129 111.115 14.7564C111.115 15.0925 111.023 15.8734 110.839 17.0959C110.625 18.5036 110.518 19.5118 110.518 20.1239C110.518 20.6434 110.633 21.033 110.862 21.2944C111.091 21.5542 111.458 21.6841 111.963 21.6841C112.499 21.6841 112.883 21.5574 113.122 21.3058C113.359 21.0541 113.478 20.6369 113.478 20.0557C113.478 19.0312 113.523 18.1025 113.616 17.268C113.708 16.4352 113.83 15.552 113.983 14.6184C114.151 13.5177 114.234 12.7676 114.234 12.3698C114.234 11.8811 114.108 11.5093 113.856 11.2577L113.861 11.2512ZM94.1786 18.6497C93.8198 19.0474 93.3944 19.2455 92.9057 19.2455C92.4625 19.2455 92.0761 19.0247 91.7465 18.5799C91.417 18.1366 91.253 17.4937 91.253 16.6527C91.253 15.5828 91.4559 14.7532 91.8602 14.1638C92.2644 13.5745 92.7742 13.2806 93.3863 13.2806H93.5016C93.4561 13.5258 93.4334 13.7709 93.4334 14.0145C93.4334 14.5957 93.56 15.1461 93.8117 15.6656C94.0633 16.1851 94.427 16.6056 94.9011 16.9271C94.7777 17.6772 94.5374 18.2503 94.1786 18.6481L94.1786 18.6497Z" fill="#FF007A"/>
</g>
<defs>
<clipPath id="clip0_192_52926">
<rect width="113.273" height="32" fill="white" transform="translate(0.967896)"/>
</clipPath>
</defs>
</svg>
