<svg width="1480" height="128" viewBox="0 0 1480 128" fill="none" xmlns="http://www.w3.org/2000/svg">
<g opacity="0.1" clip-path="url(#clip0_192_27405)">
<path d="M1479.12 0.29821H0V0.532058H17.0535L9.06891 1.48082H0V1.71466H7.09741L0 2.5632V2.99081H34.5013L25.5704 4.11328H0V4.36049H23.6186L13.8794 5.58987H0V5.84376H11.8684L1.22233 7.18672H0V7.59429L1.14347 7.44729H39.1738L28.1531 8.9172H0V9.18445H26.1224L14.0174 10.7947H0V11.0753H11.9276L0 12.6588V13.1332H38.8583L24.9198 15.0975H0V15.3981H22.8103L7.3537 17.583H0V17.897H5.12591L0 18.6186V18.9927L7.68886 17.897H49.6227L33.3972 20.3357H0V20.6698H31.2089L13.0119 23.4024H0V23.7499H10.6855L0.138005 25.3267L0 25.3467V25.7944L13.5245 23.7432H57.6862L38.5034 26.8233H0V27.1975H36.1771L14.392 30.6918H0V31.0927H11.9079L0.138005 32.9902L0 33.0103V33.5448L15.082 31.0994H62.0826L38.878 35.1016H0V35.5359H36.3545L9.5815 40.1527H0V40.6271H6.86083L0.138005 41.7829L0 41.803V42.4444L10.449 40.6204H61.0969L32.2538 45.9922H0V46.5134H29.4345L0.11829 51.9787L0 52.0055V52.7671L33.1607 46.5201H86.2138L54.9261 52.854H0V53.442H52.0279L14.668 61.0053H0V61.6734H11.3559L0 63.9718V64.8872L15.6932 61.6734H74.6214L33.2592 70.8403H0V71.6287H29.7105L0 78.2099V79.3123L34.3041 71.622H97.2542L50.9436 82.967H0V83.9024H47.1386L0.0985751 95.4144L0 95.4412V96.7841L52.0082 83.8957H119.926L67.3662 98.2807H0V99.4299H63.1866L0.0985751 116.695L0 116.721V119.701H77.2632L51.5942 127.659L51.1211 127.806H57.1933L83.0002 119.701H165.389L142.717 127.806H148.356L170.712 119.701H253.496L234.313 127.806H239.577L258.464 119.701H341.602L325.889 127.806H330.798L346.235 119.701H429.669L417.426 127.806H422.039L434.026 119.701H517.716L508.943 127.806H513.32L521.857 119.701H605.724L600.48 127.706L600.421 127.806H604.62L609.707 119.701H693.693L691.859 127.719V127.806H695.96L697.577 119.701H781.602L783.219 127.806H787.339L785.486 119.701H869.472L874.499 127.739L874.539 127.806H878.738L873.435 119.701H957.302L965.78 127.752L965.839 127.806H970.216L961.443 119.701H1045.13L1057.06 127.759L1057.12 127.806H1061.73L1049.49 119.701H1132.92L1148.3 127.766L1148.38 127.806H1153.29L1137.58 119.701H1220.69L1239.52 127.772L1239.6 127.806H1244.87L1225.68 119.701H1308.47L1330.74 127.779L1330.82 127.806H1336.48L1313.81 119.701H1396.2L1421.93 127.786L1422.01 127.806H1428.08L1401.94 119.701H1479.2V116.721L1416.01 99.4299H1479.2V98.2807H1411.83L1359.27 83.8957H1427.19L1478.8 96.6906L1479.2 96.7908V95.4478L1432.06 83.9024H1479.2V82.967H1428.25L1381.94 71.622H1444.89L1478.8 79.2254L1479.18 79.3123V78.2099L1449.47 71.622H1479.18V70.8336H1445.92L1404.56 61.6668H1463.49L1479.18 64.8805V63.9652L1467.82 61.6668H1479.18V60.9986H1464.51L1427.15 53.4353H1479.16V52.8473H1424.23L1392.95 46.5134H1446L1478.78 52.687L1479.16 52.7538V51.9921L1449.72 46.5134H1479.16V45.9922H1446.92L1418.08 40.6204H1468.73L1479.16 42.4377V41.7963L1472.32 40.6137H1479.16V40.1393H1469.58L1442.8 35.5225H1479.16V35.0882H1440.3L1417.1 31.086H1464.08L1479.16 33.5314V32.9969L1467.25 31.086H1479.16V30.6852H1464.77L1442.98 27.1908H1479.16V26.8166H1440.66L1421.47 23.7365H1465.63L1479.16 25.7877V25.34L1468.47 23.7365H1479.16V23.3891H1466.17L1447.97 20.6564H1479.16V20.3223H1445.76L1429.54 17.8836H1471.47L1479.14 18.9794V18.6052L1474.03 17.8836H1479.14V17.5696H1471.81L1456.35 15.3848H1479.16V15.0841H1454.24L1440.3 13.1198H1479.16V12.6387L1467.23 11.0486H1479.16V10.7679H1465.14L1453.04 9.15773H1479.16V8.89047H1451.03L1440 7.42057H1478.04L1479.16 7.56088V7.16H1477.94L1467.29 5.82372H1479.14V5.56982H1465.28L1455.54 4.34045H1479.14V4.09324H1453.57L1444.64 2.97076H1479.14V2.54316L1472.06 1.69462H1479.14V1.46077H1470.09L1462.11 0.505333H1479.14V0.271484L1479.12 0.29821ZM496.681 1.48082L499.303 0.525377H535.657L533.41 1.48082H496.681ZM534.08 1.48082L536.308 0.525377H572.702L570.848 1.48082H534.08ZM571.479 1.48082L573.293 0.525377H609.726L608.287 1.48082H571.479ZM608.879 1.48082L610.298 0.525377H646.771L645.746 1.48082H608.898H608.879ZM646.278 1.48082L647.284 0.525377H683.776L683.145 1.48082H646.278ZM683.697 1.48082L684.289 0.525377H720.801L720.584 1.48082H683.697ZM758.319 0.525377H794.831L795.422 1.48082H758.535L758.319 0.525377ZM88.4219 35.5359L63.6401 40.1527H13.1499L39.6272 35.5359H88.4219ZM720.86 2.75028L721.057 1.71466H758.043L758.259 2.75028H720.86ZM1392.29 26.8233L1374.43 23.7432H1418.75L1437.74 26.8233H1392.29ZM1388.39 35.0949L1366.9 31.0927H1414.06L1437.01 35.0949H1388.37H1388.39ZM1332.79 98.2741L1286.41 83.889H1354.66L1406.57 98.2741H1332.79ZM701.598 99.4233H777.541L781.287 118.225H697.833L701.579 99.4233H701.598ZM192.714 83.8957L146.325 98.2807H72.571L124.481 83.8957H192.734H192.714ZM142.973 46.5134L114.406 52.8473H58.7705L89.7033 46.5134H142.973ZM76.8886 20.6631L59.8745 23.3958H15.8312L33.831 20.6631H76.8886ZM1282.17 83.8957L1327.94 98.2807H1253.84L1213.62 83.8957H1282.17ZM1209.67 83.8957L1249.34 98.2807H1174.9L1140.83 83.8957H1209.65H1209.67ZM1137.18 83.8957L1170.72 98.2807H1095.98L1068.08 83.8957H1137.16H1137.18ZM1064.67 83.8957L1092.07 98.2807H1017.08L995.333 83.8957H1064.65H1064.67ZM992.139 83.8957L1013.41 98.2807H938.218L922.643 83.8957H992.139ZM919.587 83.8957L934.729 98.2807H859.378L849.954 83.8957H919.587ZM847.016 83.8957L856.026 98.2807H780.577L777.304 83.8957H847.036H847.016ZM338.231 83.8957L304.183 98.2807H229.739L269.406 83.8957H338.231ZM265.463 83.8957L225.244 98.2807H151.135L196.914 83.8957H265.463ZM140.489 35.5359L117.679 40.1527H66.9916L91.4974 35.5359H140.47H140.489ZM87.4361 27.2042H133.175L114.387 30.6985H67.3662L87.4361 27.2042ZM104.706 23.7499L86.8447 26.83H41.4015L60.3871 23.7499H104.706ZM1343.97 26.83L1327.43 23.7499H1371.89L1389.55 26.83H1343.95H1343.97ZM1283.41 82.967L1246.84 71.622H1310.38L1351.31 82.967H1283.43H1283.41ZM701.835 98.2807L704.714 83.8957H774.465L777.344 98.2807H701.855H701.835ZM199.753 46.5201L173.906 52.854H118.034L146.285 46.5201H199.772H199.753ZM162.393 31.0994L142.618 35.1016H93.8041L115.057 31.0994H162.393ZM839.347 71.622L846.445 82.967H777.087L774.505 71.622H839.347ZM434.815 71.622L412.813 82.967H344.086L370.524 71.622H434.795H434.815ZM367.311 71.622L340.459 82.967H271.988L303.256 71.622H367.311ZM174.892 53.4353H231.218L203.597 60.9986H144.393L174.892 53.4353ZM192.537 35.5292L171.718 40.146H120.833L143.387 35.5292H192.557H192.537ZM151.707 23.7432L135.166 26.8233H89.5653L107.23 23.7432H151.707ZM81.4033 20.329L96.4262 17.8903H138.616L124.481 20.329H81.4033ZM1314.76 30.6918L1297.48 27.1975H1343.38L1361.95 30.6918H1314.76ZM1211.41 61.6601L1240.59 70.8269H1177.09L1151.46 61.6601H1211.41ZM1148.38 61.6601L1173.65 70.8269H1109.92L1088.21 61.6601H1148.38ZM1085.35 61.6601L1106.72 70.8269H1042.75L1024.96 61.6601H1085.33H1085.35ZM1022.3 61.6601L1039.77 70.8269H975.598L961.738 61.6601H1022.28H1022.3ZM959.254 61.6601L972.818 70.8269H908.488L898.552 61.6601H959.254ZM896.186 61.6601L905.846 70.8269H841.398L835.385 61.6601H896.186ZM704.851 82.9537L707.119 71.6087H771.981L774.248 82.9537H704.871H704.851ZM256.492 46.5067L233.347 52.8406H177.238L202.789 46.5067H256.492ZM212.528 31.086L194.469 35.0882H145.477L165.034 31.086H212.528ZM833.098 61.6534L838.835 70.8203H774.307L772.218 61.6534H833.098ZM580.529 61.6534L570.592 70.8203H506.262L519.826 61.6534H580.529ZM454.116 61.6534L436.333 70.8203H372.358L393.729 61.6534H454.096H454.116ZM244.604 35.5359L225.757 40.1527H174.675L195.258 35.5359H244.604ZM198.708 23.7499L183.488 26.83H137.729L154.093 23.7499H198.708ZM126.807 20.3357L140.785 17.897H183.113L170.022 20.3357H126.807ZM887.531 53.4353L895.496 60.9986H834.951L830.002 53.4353H887.531ZM707.276 70.8336L709.11 61.6668H770.01L771.843 70.8336H707.296H707.276ZM410.388 53.4353L392.487 60.9986H332.573L353.411 53.4353H410.388ZM350.671 53.4353L329.537 60.9986H269.84L293.912 53.4353H350.671ZM313.272 46.5134L292.847 52.8473H236.521L259.371 46.5134H313.272ZM262.703 31.0927L246.359 35.0949H197.17L215.012 31.0927H262.683H262.703ZM1247.31 26.8233L1233.41 23.7432H1278.16L1293.21 26.8233H1247.29H1247.31ZM1219.75 46.5134L1242.6 52.8473H1186.27L1165.85 46.5134H1219.75ZM1163.19 46.5134L1183.33 52.8473H1126.79L1109.09 46.5134H1163.19ZM1106.62 46.5134L1124.09 52.8473H1067.35L1052.35 46.5134H1106.62ZM1050.04 46.5134L1064.81 52.8473H1007.89L995.609 46.5134H1050.04ZM993.46 46.5134L1005.53 52.8473H948.45L938.888 46.5134H993.46ZM936.858 46.5134L946.222 52.8473H889.029L882.168 46.5134H936.858ZM827.952 53.4353L832.684 60.9986H772.08L770.365 53.4353H827.952ZM589.44 53.4353L581.258 60.9986H520.831L532.01 53.4353H589.44ZM470.085 53.4353L455.417 60.9986H395.306L412.931 53.4353H470.085ZM370.012 46.5134L352.307 52.8473H295.765L315.914 46.5134H370.012ZM296.632 35.5292L279.776 40.146H228.497L247.128 35.5292H296.652H296.632ZM245.689 23.7432L231.79 26.8233H185.873L200.916 23.7432H245.669H245.689ZM172.191 20.329L185.124 17.8903H227.57L215.525 20.329H172.171H172.191ZM880.236 46.5134L886.9 52.8473H829.608L825.448 46.5134H880.236ZM709.228 60.9919L710.727 53.4286H768.334L769.832 60.9919H709.208H709.228ZM540.211 46.5134L530.65 52.8473H473.575L485.64 46.5134H540.211ZM426.751 46.5134L411.748 52.8473H355.008L372.476 46.5134H426.751ZM312.838 31.0927L298.209 35.0949H248.863L265.009 31.0927H312.838ZM1214.78 30.6918L1200.51 27.1975H1246.7L1262.29 30.6918H1214.78ZM928.124 40.6137L936.069 45.9855H881.577L875.761 40.6137H928.124ZM823.615 46.5134L827.577 52.8473H770.226L768.787 46.5134H823.615ZM596.931 46.5134L590.071 52.8473H532.877L542.242 46.5134H596.931ZM386.493 40.6137L371.47 45.9855H317.57L334.663 40.6137H386.474H386.493ZM348.68 35.5225L333.795 40.1393H282.339L298.998 35.5225H348.68ZM292.689 23.7365L280.111 26.8166H234.057L247.798 23.7365H292.689ZM217.595 20.3223L229.503 17.8836H272.067L261.066 20.3223H217.595ZM1180.06 35.5225L1196.72 40.1393H1145.27L1130.38 35.5225H1180.06ZM1128.17 35.5225L1142.86 40.1393H1091.23L1078.31 35.5225H1128.15H1128.17ZM1076.28 35.5225L1089.02 40.1393H1037.23L1026.3 35.5225H1076.3H1076.28ZM1024.39 35.5225L1035.16 40.1393H983.228L974.277 35.5225H1024.39ZM972.483 35.5225L981.276 40.1393H929.208L922.229 35.5225H972.463H972.483ZM874.006 40.6137L879.665 45.9855H825.093L821.564 40.6137H874.006ZM710.825 52.8406L712.087 46.5067H766.934L768.196 52.8406H710.825ZM549.103 40.6137L540.98 45.9855H486.606L496.838 40.6137H549.083H549.103ZM440.69 40.6137L427.974 45.9855H373.915L388.741 40.6137H440.71H440.69ZM362.954 31.0927L350.04 35.0949H300.516L314.967 31.0927H362.954ZM1151.06 15.0975L1143.04 13.1332H1183.93L1192.7 15.0975H1151.06ZM920.573 35.5292L927.395 40.146H875.229L870.221 35.5292H920.554H920.573ZM819.889 40.6204L823.26 45.9922H768.63L767.407 40.6204H819.889ZM603.299 40.6204L597.483 45.9922H542.991L550.936 40.6204H603.299ZM504.783 35.5292L495.833 40.146H443.903L454.668 35.5292H504.803H504.783ZM339.69 23.7432L328.433 26.8233H282.221L294.641 23.7432H339.67H339.69ZM263.018 20.329L273.881 17.8903H316.564L306.628 20.329H263.018ZM1184.95 23.3891L1173.79 20.6564H1217.52L1229.7 23.3891H1184.93H1184.95ZM964.045 31.0927L971.675 35.0949H921.598L915.546 31.0927H964.045ZM868.664 35.5292L873.513 40.146H821.269L818.252 35.5292H868.664ZM712.205 45.9922L713.27 40.6204H765.771L766.835 45.9922H712.185H712.205ZM556.811 35.5292L549.832 40.146H497.765L506.558 35.5292H556.792H556.811ZM1150.02 27.1975L1162.63 30.6918H1114.81L1103.53 27.1975H1150.02ZM1101.68 27.1975L1112.81 30.6918H1064.85L1055.07 27.1975H1101.7H1101.68ZM1053.33 27.1975L1062.97 30.6918H1014.87L1006.59 27.1975H1053.33ZM1004.99 27.1975L1013.16 30.6918H964.932L958.15 27.1975H1005.01H1004.99ZM914.048 31.0927L919.962 35.0949H869.787L865.45 31.0927H914.028H914.048ZM816.734 35.5292L819.632 40.146H767.328L766.283 35.5292H816.734ZM608.839 35.5292L603.832 40.146H551.666L558.487 35.5292H608.82H608.839ZM513.399 31.0927L505.631 35.0949H455.673L464.999 31.0927H513.379H513.399ZM386.69 23.7432L376.754 26.8233H330.404L341.523 23.7432H386.69ZM308.422 20.329L318.26 17.8903H361.061L352.15 20.329H308.422ZM1138.11 23.3891L1128.13 20.6564H1172L1183.02 23.3891H1138.13H1138.11ZM1137.56 23.7365L1148.68 26.8166H1102.33L1092.39 23.7365H1137.56ZM956.632 27.1908L963.296 30.6852H914.954L909.671 27.1908H956.632ZM863.991 31.086L868.21 35.0882H817.976L815.354 31.086H864.011H863.991ZM713.368 40.1326L714.295 35.5158H764.765L765.692 40.1326H713.388H713.368ZM563.495 31.086L557.442 35.0882H507.366L514.996 31.086H563.495ZM472.47 27.1908L464.19 30.6852H416.086L425.726 27.1908H472.47ZM352.623 20.6564H396.607L387.794 23.3891H342.765L352.623 20.6564ZM671.849 20.3223L673.367 17.8836H716.799L716.247 20.3223H671.849ZM669.936 23.3824L671.651 20.6497H716.188L715.557 23.3824H669.936ZM716.7 23.3824L717.252 20.6497H761.788L762.34 23.3824H716.7ZM762.222 17.8836H805.654L807.172 20.3223H762.774L762.222 17.8836ZM996.91 23.7298L1004.09 26.81H957.381L951.407 23.7298H996.91ZM908.251 27.1841L913.417 30.6785H864.997L861.211 27.1841H908.251ZM813.935 31.0794L816.438 35.0815H766.145L765.239 31.0794H813.935ZM613.61 31.0794L609.273 35.0815H559.098L565.013 31.0794H613.591H613.61ZM520.93 27.1841L514.148 30.6785H465.925L474.087 27.1841H520.95H520.93ZM576.408 23.3824L580.45 20.6497H624.907L621.95 23.3824H576.408ZM763.484 23.3824L762.853 20.6497H807.389L809.104 23.3824H763.484ZM810.287 23.3824L808.493 20.6497H852.99L855.869 23.3824H810.287ZM857.091 23.3824L854.134 20.6497H898.591L902.633 23.3824H857.091ZM859.871 27.1841L863.557 30.6785H815.078L812.791 27.1841H859.89H859.871ZM907.68 26.81H860.797L857.465 23.7298H903.145L907.699 26.81H907.68ZM714.354 35.0815L715.162 31.0794H763.859L764.647 35.0815H714.354ZM569.37 27.1841L564.086 30.6785H515.745L522.409 27.1841H569.37ZM480.633 23.7298L473.338 26.81H426.732L435.229 23.7298H480.633ZM398.165 20.6497H442.267L434.618 23.3824H389.47L398.165 20.6497ZM399.21 20.3156L406.957 17.8769H449.976L443.154 20.3156H399.19H399.21ZM444.633 20.3156L451.356 17.8769H494.472L488.696 20.3156H444.633ZM490.056 20.3156L495.734 17.8769H538.95L534.218 20.3156H490.056ZM529.644 23.3757L534.849 20.643H579.227L575.107 23.3757H529.644ZM574.575 23.7232L569.922 26.8033H523.118L528.993 23.7232H574.594H574.575ZM528.284 23.3757H482.919L489.287 20.643H533.587L528.284 23.3757ZM527.613 23.7232L521.64 26.8033H474.935L482.111 23.7232H527.613ZM436.195 23.3757L443.726 20.643H487.927L481.461 23.3757H436.195ZM617.81 27.1774L614.024 30.6718H565.604L570.77 27.1774H617.81ZM571.322 26.8033L575.876 23.7232H621.555L618.224 26.8033H571.322ZM666.249 27.1774L663.963 30.6718H615.483L619.17 27.1774H666.269H666.249ZM666.486 26.8033H619.545L622.778 23.7232H668.497L666.486 26.8033ZM665.343 30.6718L667.531 27.1774H714.67L713.881 30.6718H665.343ZM715.222 30.6718L715.912 27.1774H763.07L763.76 30.6718H715.222ZM764.253 26.8033L763.543 23.7232H809.302L811.234 26.8033H764.253ZM810.485 23.7232H856.204L859.437 26.8033H812.495L810.485 23.7232ZM811.47 27.1774L813.659 30.6718H765.12L764.332 27.1774H811.47ZM667.768 26.8033L669.7 23.7232H715.458L714.748 26.8033H667.768ZM579.74 20.309H535.499L540.152 17.8703H583.446L579.76 20.309H579.74ZM663.687 31.0727L661.064 35.0748H610.831L615.05 31.0727H663.706H663.687ZM713.782 31.0727L712.875 35.0748H662.582L665.086 31.0727H713.782ZM945.414 20.6364H989.714L996.082 23.369H950.718L945.414 20.6364ZM944.783 20.3023L940.052 17.8636H983.267L988.945 20.3023H944.783ZM903.894 23.3624L899.774 20.6297H944.152L949.357 23.3624H903.894ZM950.008 23.7098L955.883 26.7899H909.079L904.427 23.7098H950.027H950.008ZM990.286 20.2956L984.509 17.8569H1027.63L1034.35 20.2956H990.286ZM1042.81 23.3557H997.541L991.074 20.623H1035.28L1042.81 23.3557ZM1035.81 20.2956L1028.99 17.8569H1072L1079.75 20.2956H1035.79H1035.81ZM1089.53 23.3557H1044.38L1036.73 20.623H1080.84L1089.53 23.3557ZM1082.41 20.623H1126.4L1136.26 23.3557H1091.23L1082.41 20.623ZM1081.35 20.2889L1073.48 17.8502H1116.4L1125.2 20.2889H1081.35ZM899.261 20.2889L895.575 17.8502H938.869L943.521 20.2889H899.281H899.261ZM853.759 20.2889L851.117 17.8502H894.471L898.078 20.2889H853.759ZM808.257 20.2889L806.66 17.8502H850.053L852.616 20.2889H808.257ZM716.01 26.7832L716.621 23.7031H762.4L763.011 26.7832H716.01ZM623.172 23.3557L626.05 20.623H670.547L668.753 23.3557H623.172ZM670.764 20.2956H626.405L628.968 17.8569H672.361L670.764 20.2956ZM625.262 20.2956H580.943L584.55 17.8569H627.904L625.262 20.2956ZM539.58 17.5429H496.483L501.57 15.3581H543.799L539.561 17.5429H539.58ZM495.241 17.5429H452.243L458.256 15.3581H500.407L495.241 17.5429ZM450.902 17.5429H408.002L414.942 15.3581H456.994L450.902 17.5429ZM363.762 17.5429L371.648 15.3581H413.601L406.563 17.5429H363.762ZM405.538 17.8569L397.672 20.2956H353.826L362.618 17.8569H405.538ZM433.671 23.7031L425.056 26.7832H378.588L388.386 23.7031H433.671ZM1043.79 23.7031L1052.29 26.7832H1005.68L998.388 23.7031H1043.79ZM1090.67 23.7031L1100.47 26.7832H1054L1045.39 23.7031H1090.67ZM1072.5 17.5429L1065.46 15.3581H1107.41L1115.3 17.5429H1072.5ZM1028.14 17.5429L1022.05 15.3581H1064.1L1071.04 17.5429H1028.14ZM983.799 17.5429L978.634 15.3581H1020.78L1026.8 17.5429H983.799ZM939.46 17.5429L935.221 15.3581H977.451L982.538 17.5429H939.46ZM895.121 17.5429L891.829 15.3581H934.137L938.297 17.5429H895.141H895.121ZM850.802 17.5429L848.436 15.3581H890.804L894.037 17.5429H850.802ZM717.331 20.2956L717.824 17.8569H761.256L761.749 20.2956H717.331ZM585.043 17.5429L588.277 15.3581H630.644L628.278 17.5429H585.043ZM583.939 17.5429H540.783L544.943 15.3581H587.251L583.959 17.5429H583.939ZM459.104 15.0574L464.525 13.0931H505.789L501.136 15.0574H459.104ZM415.908 15.0574L422.158 13.0931H463.342L457.842 15.0574H415.908ZM372.712 15.0574L379.81 13.0931H420.896L414.548 15.0574H372.712ZM377.385 27.1574H424.011L414.232 30.6518H366.266L377.405 27.1574H377.385ZM660.808 35.4891L657.792 40.1059H605.547L610.397 35.4891H660.808ZM712.797 35.4891L711.752 40.1059H659.448L662.346 35.4891H712.797ZM1150.63 26.7832L1139.37 23.7031H1184.4L1196.82 26.7832H1150.61H1150.63ZM1126.91 20.2889L1118 17.8502H1160.8L1170.64 20.2889H1126.91ZM1064.49 15.0574L1058.14 13.0931H1099.23L1106.33 15.0574H1064.49ZM1021.2 15.0574L1015.7 13.0931H1056.88L1063.13 15.0574H1021.2ZM977.924 15.0574L973.271 13.0931H1014.53L1019.96 15.0574H977.924ZM806.482 17.5429L805.043 15.3581H847.45L849.757 17.5429H806.482ZM762.163 17.5429L761.67 15.3581H804.097L805.457 17.5429H762.143H762.163ZM716.878 17.5429H673.564L674.924 15.3581H717.37L716.878 17.5429ZM672.558 17.5429H629.284L631.59 15.3581H673.997L672.558 17.5429ZM544.391 15.0574H502.28L506.873 13.0931H548.216L544.411 15.0574H544.391ZM378.43 13.0931L371.254 15.0574H329.517L337.442 13.0931H378.43ZM370.15 15.3581L362.185 17.5429H319.502L328.314 15.3581H370.169H370.15ZM307.061 20.623H350.927L340.952 23.3557H296.06L307.081 20.623H307.061ZM463.224 31.0593L453.741 35.0615H403.921L414.962 31.0593H463.224ZM1116.84 17.5429L1108.85 15.3581H1150.71L1159.52 17.5429H1116.84ZM1107.77 15.0574L1100.59 13.0931H1141.58L1149.5 15.0574H1107.77ZM934.63 15.0574L930.825 13.0931H972.167L976.761 15.0574H934.65H934.63ZM891.356 15.0574L888.379 13.0931H929.78L933.526 15.0574H891.336H891.356ZM848.081 15.0574L845.952 13.0931H887.413L890.33 15.0574H848.081ZM804.826 15.0574L803.545 13.0931H845.045L847.115 15.0574H804.826ZM717.844 17.5429L718.277 15.3581H760.724L761.158 17.5429H717.844ZM631.886 15.0574L633.956 13.0931H675.456L674.175 15.0574H631.886ZM630.92 15.0574H588.671L591.589 13.0931H633.049L630.92 15.0574ZM587.646 15.0574H545.456L549.201 13.0931H590.603L587.626 15.0574H587.646ZM506.439 12.8058H465.275L470.184 11.0285H510.639L506.439 12.8058ZM464.131 12.8058H423.065L428.723 11.0285H469.099L464.131 12.8058ZM421.803 12.8058H380.815L387.223 11.0285H427.52L421.783 12.8058H421.803ZM379.475 12.8058H338.586L345.762 11.0285H385.961L379.475 12.8058ZM286.321 15.0574L295.094 13.0931H335.983L327.959 15.0574H286.321ZM329.024 27.1574H375.512L364.235 30.6518H316.406L329.024 27.1574ZM413.089 31.0526L401.891 35.0548H352.209L364.945 31.0526H413.069H413.089ZM452.736 35.4891L441.814 40.1059H390.022L402.758 35.4891H452.755H452.736ZM657.457 40.5803L653.928 45.9521H599.356L605.015 40.5803H657.457ZM711.614 40.5803L710.391 45.9521H655.761L659.132 40.5803H711.614ZM1014.04 31.0593L1023.37 35.0615H973.409L965.642 31.0593H1014.02H1014.04ZM1064.06 31.0593L1075.1 35.0615H1025.28L1015.8 31.0593H1064.06ZM1114.06 31.0593L1126.79 35.0615H1077.11L1065.91 31.0593H1114.04H1114.06ZM1164.05 31.0593L1178.5 35.0615H1128.98L1116.07 31.0593H1164.05ZM1164.76 30.6584L1151.99 27.1641H1198.34L1212.45 30.6584H1164.78H1164.76ZM1172.43 20.2956L1162.5 17.8569H1205.18L1216.04 20.2956H1172.43ZM1099.55 12.8058L1093.06 11.0285H1133.26L1140.44 12.8058H1099.55ZM1057.22 12.8058L1051.48 11.0285H1091.78L1098.19 12.8058H1057.2H1057.22ZM1014.89 12.8058L1009.92 11.0285H1050.3L1055.96 12.8058H1014.89ZM972.581 12.8058L968.382 11.0285H1008.84L1013.75 12.8058H972.601H972.581ZM930.273 12.8058L926.823 11.0285H967.357L971.497 12.8058H930.273ZM887.965 12.8058L885.283 11.0285H925.877L929.268 12.8058H887.965ZM761.591 15.0574L761.138 13.0931H802.677L803.9 15.0574H761.591ZM718.356 15.0574L718.751 13.0931H760.29L760.684 15.0574H718.356ZM717.449 15.0574H675.141L676.363 13.0931H717.903L717.449 15.0574ZM549.793 12.8058L553.184 11.0285H593.777L591.096 12.8058H549.793ZM548.787 12.8058H507.563L511.703 11.0285H552.237L548.787 12.8058ZM429.63 10.7479L434.756 9.13768H474.403L469.888 10.7479H429.61H429.63ZM388.268 10.7479L394.084 9.13768H433.652L428.447 10.7479H388.248H388.268ZM346.906 10.7479L353.411 9.13768H392.901L387.006 10.7479H346.906ZM305.563 10.7479L312.759 9.13768H352.169L345.585 10.7479H305.583H305.563ZM344.441 11.0285L337.186 12.8058H296.396L304.321 11.0285H344.441ZM326.757 15.3581L317.846 17.5429H275.281L285.02 15.3581H326.757ZM261.539 20.623H305.267L294.109 23.3557H249.336L261.52 20.623H261.539ZM400.728 35.4891L387.814 40.1059H336.181L350.868 35.4891H400.708H400.728ZM1180.87 35.0548L1166.24 31.0526H1214.07L1230.22 35.0548H1180.87ZM1198.97 26.7832L1186.39 23.7031H1231.28L1245.02 26.7832H1198.97ZM1161.23 17.5429L1152.32 15.3581H1194.08L1203.82 17.5429H1161.25H1161.23ZM1141.89 12.8058L1134.64 11.0285H1174.76L1182.68 12.8058H1141.89ZM1133.52 10.7479L1126.93 9.13768H1166.34L1173.54 10.7479H1133.52ZM1092.07 10.7479L1086.18 9.13768H1125.67L1132.17 10.7479H1092.07ZM1050.63 10.7479L1045.43 9.13768H1085L1090.81 10.7479H1050.61H1050.63ZM1009.19 10.7479L1004.68 9.13768H1044.32L1049.45 10.7479H1009.17H1009.19ZM845.696 12.8058L843.764 11.0285H884.416L887.038 12.8058H845.696ZM803.407 12.8058L802.244 11.0285H842.935L844.808 12.8058H803.407ZM761.118 12.8058L760.724 11.0285H801.435L802.559 12.8058H761.138H761.118ZM676.58 12.8058L677.684 11.0285H718.396L717.982 12.8058H676.56H676.58ZM675.713 12.8058H634.311L636.184 11.0285H676.876L675.713 12.8058ZM633.424 12.8058H592.062L594.684 11.0285H635.336L633.404 12.8058H633.424ZM511.368 10.7479H471.012L475.447 9.13768H515.173L511.349 10.7479H511.368ZM254.205 12.8058L262.88 11.0285H302.902L294.878 12.8058H254.186H254.205ZM293.596 13.0931L284.724 15.0574H243.205L252.806 13.0931H293.596ZM280.762 27.1574H327.112L314.336 30.6518H266.665L280.781 27.1574H280.762ZM494.965 40.5736L484.536 45.9454H430.3L442.819 40.5736H494.946H494.965ZM653.671 46.4733L649.531 52.8072H592.239L598.903 46.4733H653.691H653.671ZM710.352 46.4733L708.913 52.8072H651.562L655.524 46.4733H710.352ZM1232.01 35.4891L1250.64 40.1059H1199.36L1182.51 35.4891H1232.03H1232.01ZM1194.43 15.0574L1185.56 13.0931H1226.35L1235.95 15.0574H1194.43ZM1184.26 12.8058L1176.24 11.0285H1216.26L1224.93 12.8058H1184.24H1184.26ZM967.791 10.7479L963.966 9.13768H1003.69L1008.13 10.7479H967.771H967.791ZM926.369 10.7479L923.235 9.13768H963.02L966.785 10.7479H926.369ZM884.948 10.7479L882.504 9.13768H922.348L925.423 10.7479H884.928H884.948ZM843.527 10.7479L841.772 9.13768H881.675L884.061 10.7479H843.527ZM718.908 12.8058L719.263 11.0285H759.975L760.33 12.8058H718.908ZM595.177 10.7479L597.562 9.13768H637.466L635.711 10.7479H595.177ZM594.29 10.7479H553.795L556.87 9.13768H596.715L594.27 10.7479H594.29ZM552.868 10.7479H512.453L516.218 9.13768H556.003L552.868 10.7479ZM475.25 8.87043H435.702L440.374 7.40052H479.351L475.25 8.87043ZM434.618 8.87043H395.148L400.432 7.40052H439.33L434.598 8.87043H434.618ZM393.985 8.87043H354.594L360.509 7.40052H399.347L393.985 8.87043ZM353.352 8.87043H314.041L320.586 7.40052H359.326L353.333 8.87043H353.352ZM312.72 8.87043H273.507L280.663 7.40052H319.324L312.7 8.87043H312.72ZM311.517 9.13768L304.242 10.7479H264.319L272.205 9.13768H311.517ZM283.443 15.3581L273.605 17.5429H231.159L241.824 15.3581H283.463H283.443ZM216.096 20.623H259.706L247.384 23.3557H202.769L216.116 20.623H216.096ZM483.59 46.4733L471.307 52.8072H414.39L429.157 46.4733H483.59ZM982.301 40.5736L992.533 45.9454H938.159L930.036 40.5736H982.281H982.301ZM1036.38 40.5736L1048.9 45.9454H994.682L984.253 40.5736H1036.38ZM1090.44 40.5736L1105.24 45.9454H1051.19L1038.47 40.5736H1090.44ZM1144.5 40.5736L1161.61 45.9454H1107.73L1092.71 40.5736H1144.52H1144.5ZM1198.56 40.5736L1217.95 45.9454H1164.25L1146.92 40.5736H1198.56ZM1232.84 35.0548L1216.5 31.0526H1264.17L1282.01 35.0548H1232.82H1232.84ZM1231.91 23.3557L1219.59 20.623H1263.2L1276.55 23.3557H1231.91ZM1218.09 20.2956L1207.09 17.8569H1249.66L1261.56 20.2956H1218.09ZM1205.69 17.5429L1195.85 15.3581H1237.49L1248.16 17.5429H1205.71H1205.69ZM1175.05 10.7546L1167.78 9.14437H1207.09L1214.98 10.7546H1175.05ZM1166.58 8.87711L1159.95 7.40721H1198.61L1205.77 8.87711H1166.56H1166.58ZM1125.94 8.87711L1119.95 7.40721H1158.69L1165.24 8.87711H1125.94ZM1085.31 8.87711L1079.95 7.40721H1118.77L1124.68 8.87711H1085.29H1085.31ZM1044.68 8.87711L1039.95 7.40721H1078.85L1084.13 8.87711H1044.66H1044.68ZM1004.05 8.87711L999.946 7.40721H1038.92L1043.59 8.87711H1004.05ZM963.414 8.87711L959.944 7.40721H999L1003.04 8.87711H963.414ZM922.781 8.87711L919.942 7.40721H959.057L962.468 8.87711H922.781ZM802.165 10.7546L801.1 9.14437H841.043L842.738 10.7546H802.165ZM760.763 10.7546L760.389 9.14437H800.351L801.357 10.7546H760.763ZM719.362 10.7546L719.677 9.14437H759.64L759.955 10.7546H719.342H719.362ZM718.573 10.7546H677.98L678.985 9.14437H718.948L718.573 10.7546ZM677.172 10.7546H636.598L638.294 9.14437H678.236L677.172 10.7546ZM516.869 8.87711L520.279 7.40721H559.394L556.555 8.87711H516.869ZM515.922 8.87711H476.295L480.337 7.40721H519.392L515.922 8.87711ZM279.342 7.40721L272.107 8.87711H232.992L240.78 7.40721H279.362H279.342ZM222.997 10.7546L231.553 9.14437H270.766L262.801 10.7546H222.977H222.997ZM261.441 11.0352L252.668 12.8124H212.094L221.538 11.0352H261.461H261.441ZM251.248 13.0997L241.529 15.0641H200.107L210.556 13.0997H251.248ZM232.519 27.1641H278.711L264.438 30.6584H216.924L232.519 27.1641ZM280.762 40.5803H332.395L315.066 45.9521H261.362L280.742 40.5803H280.762ZM649.216 53.3952L644.267 60.9585H583.722L591.687 53.3952H649.216ZM708.854 53.3952L707.138 60.9585H646.534L651.266 53.3952H708.854ZM1252.61 40.5803L1274.3 45.9521H1220.79L1201.16 40.5803H1252.61ZM1253.46 40.1059L1234.61 35.4891H1283.96L1304.54 40.1059H1253.46ZM1237.79 15.0574L1228.07 13.0931H1268.76L1279.21 15.0574H1237.79ZM1226.65 12.8058L1217.88 11.0285H1257.8L1267.24 12.8058H1226.67H1226.65ZM1216.5 10.7479L1208.53 9.13768H1247.74L1256.3 10.7479H1216.48H1216.5ZM1207.21 8.87043L1199.97 7.40052H1238.56L1246.34 8.87043H1207.23H1207.21ZM882.149 8.87043L879.941 7.40052H919.114L921.914 8.87043H882.168H882.149ZM841.536 8.87043L839.939 7.40052H879.152L881.321 8.87043H841.536ZM800.923 8.87043L799.957 7.40052H839.209L840.747 8.87043H800.923ZM760.31 8.87043L759.975 7.40052H799.247L800.174 8.87043H760.33H760.31ZM679.123 8.87043L680.05 7.40052H719.322L718.987 8.87043H679.143H679.123ZM638.55 8.87043L640.088 7.40052H679.34L678.374 8.87043H638.55ZM637.761 8.87043H597.976L600.145 7.40052H639.358L637.761 8.87043ZM597.148 8.87043H557.403L560.202 7.40052H599.376L597.168 8.87043H597.148ZM480.1 7.14663H441.222L445.481 5.81035H483.846L480.1 7.14663ZM440.197 7.14663H401.398L406.228 5.81035H444.515L440.197 7.14663ZM400.294 7.14663H361.573L366.975 5.81035H405.203L400.314 7.14663H400.294ZM360.391 7.14663H321.729L327.703 5.81035H365.852L360.391 7.14663ZM320.487 7.14663H281.925L288.47 5.81035H326.54L320.487 7.14663ZM280.584 7.14663H242.1L249.218 5.81035H287.208L280.584 7.14663ZM202.296 7.14663L209.985 5.81035H247.897L240.701 7.14663H202.316H202.296ZM239.991 15.3647L229.207 17.5496H186.879L198.471 15.3647H239.991ZM170.515 20.6297H213.987L200.482 23.3624H156.005L170.515 20.6297ZM529.841 53.4019L518.406 60.9652H458.118L472.53 53.4019H529.841ZM1264.84 30.6651L1249.06 27.1708H1295.12L1312.21 30.6651H1264.86H1264.84ZM1278.76 23.3624L1265.25 20.6297H1308.72L1323.23 23.3624H1278.76ZM1263.61 20.3023L1251.57 17.8636H1294.02L1306.95 20.3023H1263.59H1263.61ZM1250.03 17.5496L1239.25 15.3647H1280.77L1292.36 17.5496H1250.03ZM1238.56 7.15331L1231.36 5.81704H1269.27L1276.96 7.15331H1238.58H1238.56ZM1198.65 7.15331L1192.03 5.81704H1230.02L1237.14 7.15331H1198.65ZM1158.75 7.15331L1152.7 5.81704H1190.77L1197.31 7.15331H1158.75ZM1118.85 7.15331L1113.39 5.81704H1151.53L1157.51 7.15331H1118.87H1118.85ZM1078.94 7.15331L1074.05 5.81704H1112.28L1117.68 7.15331H1078.94ZM1039.04 7.15331L1034.72 5.81704H1073.01L1077.84 7.15331H1039.04ZM999.157 7.15331L995.411 5.81704H1033.78L1038.04 7.15331H999.157ZM959.274 7.15331L956.1 5.81704H994.524L998.211 7.15331H959.274ZM919.39 7.15331L916.788 5.81704H955.272L958.387 7.15331H919.371H919.39ZM879.507 7.15331L877.476 5.81704H916.019L918.582 7.15331H879.527H879.507ZM719.697 8.87711L719.993 7.40721H759.265L759.561 8.87711H719.697ZM560.676 7.15331L563.219 5.81704H601.762L599.731 7.15331H560.676ZM559.847 7.15331H520.831L523.946 5.81704H562.43L559.828 7.15331H559.847ZM519.964 7.15331H481.007L484.694 5.81704H523.118L519.944 7.15331H519.964ZM239.301 7.41389L231.435 8.88379H192.399L200.817 7.41389H239.301ZM229.976 9.15105L221.321 10.7613H181.595L190.841 9.15105H229.976ZM219.822 11.0419L210.28 12.8191H169.805L179.998 11.0419H219.822ZM208.743 13.1064L198.195 15.0708H156.892L168.169 13.1064H208.743ZM184.138 27.1708H230.193L214.421 30.6651H167.065L184.158 27.1708H184.138ZM226.664 40.587H278.12L258.484 45.9588H204.977L226.664 40.587ZM234.471 53.4019H291.033L266.646 60.9652H207.185L234.471 53.4019ZM517.421 61.6334L503.561 70.8002H439.389L456.856 61.6334H517.401H517.421ZM643.794 61.6334L637.781 70.8002H573.333L582.993 61.6334H643.794ZM706.961 61.6334L704.871 70.8002H640.344L646.081 61.6334H706.961ZM947.189 53.4019L958.367 60.9652H897.94L889.759 53.4019H947.189ZM1006.73 53.4019L1021.14 60.9652H960.851L949.416 53.4019H1006.73ZM1066.27 53.4019L1083.89 60.9652H1023.78L1009.11 53.4019H1066.27ZM1125.79 53.4019L1146.63 60.9652H1086.71L1068.81 53.4019H1125.77H1125.79ZM1185.31 53.4019L1209.38 60.9652H1149.68L1128.55 53.4019H1185.31ZM1244.81 53.4019L1272.09 60.9652H1212.63L1188.24 53.4019H1244.81ZM1276.39 46.48L1301.94 52.8139H1245.83L1222.69 46.48H1276.39ZM1277.32 45.9588L1255.37 40.587H1306.63L1330.59 45.9588H1277.3H1277.32ZM1284.71 35.0681L1266.65 31.066H1314.16L1333.72 35.0681H1284.73H1284.71ZM1281.08 15.0708L1270.53 13.1064H1311.11L1322.39 15.0708H1281.08ZM1268.98 12.8191L1259.44 11.0419H1299.26L1309.45 12.8191H1268.98ZM1257.94 10.7613L1249.28 9.15105H1288.4L1297.64 10.7613H1257.92H1257.94ZM1247.84 8.88379L1239.98 7.41389H1278.46L1286.88 8.88379H1247.86H1247.84ZM839.643 7.16L838.184 5.82372H876.766L878.758 7.16H839.643ZM799.779 7.16L798.892 5.82372H837.494L838.894 7.16H799.76H799.779ZM759.916 7.16L759.6 5.82372H798.222L799.07 7.16H759.916ZM719.362 7.16H680.208L681.055 5.82372H719.677L719.362 7.16ZM679.498 7.16H640.364L641.763 5.82372H680.365L679.478 7.16H679.498ZM639.634 7.16H600.52L602.511 5.82372H641.093L639.634 7.16ZM484.556 5.56982H446.289L450.193 4.34045H487.986L484.556 5.56982ZM445.343 5.56982H407.155L411.571 4.34045H449.286L445.323 5.56982H445.343ZM406.129 5.56982H368.001L372.949 4.34045H410.605L406.129 5.56982ZM366.916 5.56982H328.866L334.327 4.34045H371.904L366.897 5.56982H366.916ZM327.703 5.56982H289.732L295.725 4.34045H333.243L327.703 5.56982ZM288.49 5.56982H250.598L257.104 4.34045H294.542L288.49 5.56982ZM249.277 5.56982H211.463L218.502 4.34045H255.862L249.277 5.56982ZM210.064 5.56982H172.329L179.88 4.34045H217.161L210.044 5.56982H210.064ZM208.605 5.82372L200.837 7.16H162.531L170.791 5.82372H208.605ZM151.885 8.89047L160.914 7.42057H199.319L190.822 8.89047H151.885ZM196.618 15.3781L184.907 17.5629H142.697L155.216 15.3781H196.618ZM125.013 20.643H168.347L153.679 23.3757H109.34L125.013 20.643ZM327.762 61.6467L302.133 70.8136H238.631L267.809 61.6467H327.762ZM391.008 61.6467L369.302 70.8136H305.563L330.838 61.6467H391.008ZM1307.52 40.126L1286.7 35.5091H1335.87L1358.42 40.126H1307.54H1307.52ZM1295.75 26.8033L1280.53 23.7232H1325.15L1341.51 26.8033H1295.75ZM1296.12 17.8703H1338.45L1352.43 20.309H1309.22L1296.12 17.8703ZM1294.43 17.5562L1282.72 15.3714H1324.12L1336.64 17.5562H1294.43ZM1288.51 8.88379L1280.02 7.41389H1318.42L1327.45 8.88379H1288.51ZM1278.5 7.16L1270.73 5.82372H1308.55L1316.81 7.16H1278.5ZM1269.27 5.56982L1262.16 4.34045H1299.44L1306.99 5.56982H1269.25H1269.27ZM1230.06 5.56982L1223.47 4.34045H1260.83L1267.87 5.56982H1230.06ZM1190.85 5.56982L1184.79 4.34045H1222.23L1228.74 5.56982H1190.85ZM1151.63 5.56982L1146.09 4.34045H1183.61L1189.6 5.56982H1151.63ZM1112.42 5.56982L1107.41 4.34045H1144.99L1150.45 5.56982H1112.4H1112.42ZM1073.21 5.56982L1068.73 4.34045H1106.39L1111.34 5.56982H1073.21ZM1033.99 5.56982L1030.03 4.34045H1067.75L1072.18 5.56982H1033.99ZM994.781 5.56982L991.35 4.34045H1029.14L1033.05 5.56982H994.781ZM955.567 5.56982L952.669 4.34045H990.522L993.893 5.56982H955.567ZM916.354 5.56982L913.969 4.34045H951.881L954.739 5.56982H916.354ZM877.161 5.56982L875.308 4.34045H913.259L915.605 5.56982H877.161ZM837.967 5.56982L836.646 4.34045H874.637L876.451 5.56982H837.967ZM798.774 5.56982L797.966 4.34045H835.976L837.258 5.56982H798.754H798.774ZM720.091 7.16L720.367 5.82372H759.009L759.285 7.16H720.111H720.091ZM642.079 5.56982L643.36 4.34045H681.391L680.582 5.56982H642.079ZM602.925 5.56982L604.739 4.34045H642.729L641.409 5.56982H602.925ZM602.215 5.56982H563.771L566.117 4.34045H604.068L602.215 5.56982ZM563.022 5.56982H524.636L527.495 4.34045H565.407L563.022 5.56982ZM523.828 5.56982H485.502L488.873 4.34045H526.726L523.828 5.56982ZM178.539 4.34045L170.91 5.56982H133.274L141.357 4.34045H178.559H178.539ZM189.323 9.15773L179.978 10.7679H140.371L150.307 9.15773H189.343H189.323ZM178.362 11.0486L168.051 12.8258H127.694L138.636 11.0486H178.362ZM166.395 13.1131L155 15.0774H113.815L125.92 13.1131H166.395ZM135.915 27.1774H181.812L164.542 30.6718H117.344L135.915 27.1774ZM223.982 40.5937L202.04 45.9655H148.75L172.704 40.5937H223.963H223.982ZM204.859 61.64H264.576L235.003 70.8069H171.777L204.859 61.64ZM502.457 71.5953L485.325 82.9403H416.381L437.989 71.5953H502.457ZM569.922 71.5953L557.639 82.9403H488.499L505.276 71.5953H569.922ZM637.367 71.5953L629.934 82.9403H560.676L572.623 71.5953H637.387H637.367ZM704.773 71.5953L702.19 82.9403H632.832L639.93 71.5953H704.773ZM1274.6 61.64L1307.68 70.8069H1244.45L1214.88 61.64H1274.6ZM1304.39 53.4086L1334.88 60.9719H1275.68L1248.06 53.4086H1304.39ZM1305.39 52.8206L1279.54 46.4866H1333.03L1361.28 52.8206H1305.41H1305.39ZM1325.7 23.369L1311.03 20.6364H1354.36L1370.04 23.369H1325.7ZM1324.46 15.0708L1313.06 13.1064H1353.53L1365.64 15.0708H1324.46ZM1311.38 12.8191L1301.07 11.0419H1340.8L1351.74 12.8191H1311.38ZM1299.48 10.7613L1290.13 9.15105H1329.17L1339.1 10.7613H1299.5H1299.48ZM1308.55 5.56314L1300.92 4.33377H1338.12L1346.2 5.56314H1308.56H1308.55ZM759.64 5.56314L759.364 4.33377H797.394L798.163 5.56314H759.64ZM720.466 5.56314L720.702 4.33377H758.752L758.989 5.56314H720.446H720.466ZM719.815 5.56314H681.292L682.061 4.33377H720.091L719.815 5.56314ZM488.755 4.08656H451.06L454.648 2.96408H491.909L488.775 4.08656H488.755ZM450.173 4.08656H412.537L416.598 2.96408H453.8L450.173 4.08656ZM411.591 4.08656H374.033L378.568 2.96408H415.711L411.61 4.08656H411.591ZM373.008 4.08656H335.51L340.518 2.96408H377.582L372.988 4.08656H373.008ZM334.426 4.08656H297.007L302.507 2.96408H339.512L334.446 4.08656H334.426ZM295.844 4.08656H258.503L264.477 2.96408H301.403L295.844 4.08656ZM257.261 4.08656H220L226.447 2.96408H263.314L257.281 4.08656H257.261ZM218.679 4.08656H181.477L188.397 2.96408H225.185L218.659 4.08656H218.679ZM180.097 4.08656H142.973L150.386 2.96408H187.096L180.097 4.08656ZM104.47 4.08656L112.356 2.96408H148.986L141.495 4.08656H104.45H104.47ZM169.352 5.81035L161.013 7.14663H122.805L131.637 5.81035H169.372H169.352ZM159.396 7.40721L150.268 8.87711H111.429L121.09 7.40721H159.396ZM153.284 15.3647L140.627 17.5496H98.5554L112.001 15.3647H153.284ZM79.5698 20.6297H122.765L106.915 23.3624H62.536L79.3727 20.6297H79.5698ZM300.023 71.5886L268.302 82.9336H200.107L236.206 71.5886H300.003H300.023ZM906.891 71.5886L918.838 82.9336H849.579L842.147 71.5886H906.911H906.891ZM974.198 71.5886L990.976 82.9336H921.835L909.553 71.5886H974.198ZM1041.49 71.5886L1063.09 82.9336H994.15L977.017 71.5886H1041.49ZM1108.77 71.5886L1135.21 82.9336H1066.48L1044.48 71.5886H1108.75H1108.77ZM1176.04 71.5886L1207.31 82.9336H1138.84L1111.99 71.5886H1176.04ZM1243.29 71.5886L1279.39 82.9336H1211.19L1179.47 71.5886H1243.27H1243.29ZM1333.96 45.9588L1309.73 40.587H1360.79L1387.03 45.9588H1333.96ZM1336.68 35.0681L1316.9 31.066H1364.24L1385.49 35.0681H1336.68ZM1340.68 17.8636H1382.87L1397.87 20.3023H1354.8L1340.66 17.8636H1340.68ZM1338.87 17.5496L1326.21 15.3647H1367.49L1380.94 17.5496H1338.87ZM1329.23 8.87711L1320.1 7.40721H1358.4L1368.06 8.87711H1329.23ZM1318.46 7.15331L1310.12 5.81704H1347.86L1356.69 7.15331H1318.48H1318.46ZM1337.96 4.08656L1330.47 2.96408H1367.1L1374.98 4.08656H1337.94H1337.96ZM1299.38 4.08656L1292.38 2.96408H1329.09L1336.5 4.08656H1299.38ZM1260.8 4.08656L1254.27 2.96408H1291.06L1297.98 4.08656H1260.78H1260.8ZM1222.21 4.08656L1216.18 2.96408H1253.05L1259.49 4.08656H1222.23H1222.21ZM1183.63 4.08656L1178.07 2.96408H1215L1220.97 4.08656H1183.63ZM1145.05 4.08656L1139.98 2.96408H1176.99L1182.49 4.08656H1145.07H1145.05ZM1106.47 4.08656L1101.87 2.96408H1138.94L1143.94 4.08656H1106.45H1106.47ZM1067.88 4.08656L1063.78 2.96408H1100.93L1105.46 4.08656H1067.9H1067.88ZM1029.3 4.08656L1025.67 2.96408H1062.88L1066.94 4.08656H1029.3ZM990.719 4.08656L987.585 2.96408H1024.85L1028.43 4.08656H990.739H990.719ZM952.137 4.08656L949.475 2.96408H986.796L989.891 4.08656H952.137ZM913.555 4.08656L911.366 2.96408H948.726L951.348 4.08656H913.535H913.555ZM874.992 4.08656L873.297 2.96408H910.716L912.865 4.08656H875.012H874.992ZM836.43 4.08656L835.207 2.96408H872.666L874.322 4.08656H836.43ZM797.867 4.08656L797.137 2.96408H834.616L835.799 4.08656H797.867ZM759.324 4.08656L759.068 2.96408H796.566L797.275 4.08656H759.344H759.324ZM682.238 4.08656L682.948 2.96408H720.446L720.19 4.08656H682.238ZM681.627 4.08656H643.715L644.898 2.96408H682.376L681.647 4.08656H681.627ZM643.065 4.08656H605.172L606.828 2.96408H644.287L643.065 4.08656ZM604.502 4.08656H566.649L568.798 2.96408H606.217L604.522 4.08656H604.502ZM565.939 4.08656H528.126L530.748 2.96408H568.108L565.92 4.08656H565.939ZM527.377 4.08656H489.623L492.718 2.96408H530.038L527.377 4.08656ZM139.898 4.33377L131.736 5.56314H94.1787L102.774 4.33377H139.898ZM83.0002 7.15331L92.3846 5.81704H130.04L121.129 7.15331H83.0002ZM148.612 9.15105L138.577 10.7613H99.068L109.675 9.15105H148.612ZM136.842 11.0419L125.782 12.8191H85.5238L97.2345 11.0419H136.842ZM123.988 13.1064L111.745 15.0708H70.6784L83.6311 13.1064H123.988ZM169.786 40.5937L145.556 45.9655H92.4832L118.724 40.5937H169.786ZM171.698 53.4086L140.824 60.9719H81.8765L115.589 53.4086H171.678H171.698ZM141.889 61.64H201.35L167.854 70.8069H104.904L141.889 61.64ZM232.499 71.5953L195.908 82.9403H128.029L168.958 71.5953H232.499ZM411.216 83.869L383.319 98.254H308.58L342.115 83.869H411.196H411.216ZM483.945 83.869L462.199 98.254H387.203L414.607 83.869H483.925H483.945ZM556.654 83.869L541.079 98.254H465.886L487.158 83.869H556.654ZM629.343 83.869L619.919 98.254H544.568L559.709 83.869H629.343ZM702.012 83.869L698.74 98.254H623.271L632.28 83.869H702.012ZM1337.62 61.64L1374.61 70.8069H1311.66L1278.16 61.64H1337.62ZM1363.92 53.4086L1397.64 60.9719H1338.69L1307.82 53.4086H1363.9H1363.92ZM1387.82 35.5024L1412.32 40.1193H1361.64L1338.83 35.5024H1387.8H1387.82ZM1364.95 30.6718L1346.16 27.1774H1391.9L1411.97 30.6718H1364.95ZM1372.6 23.369L1356.75 20.6364H1399.94L1416.78 23.369H1372.58H1372.6ZM1367.79 15.0708L1355.55 13.1064H1395.9L1408.86 15.0708H1367.79ZM1353.75 12.8191L1342.69 11.0419H1382.3L1394.01 12.8191H1353.75ZM1340.96 10.7613L1330.92 9.15105H1369.86L1380.49 10.7613H1340.98H1340.96ZM1358.38 7.15331L1349.47 5.81704H1387.13L1396.51 7.15331H1358.38ZM1347.78 5.56314L1339.62 4.33377H1376.74L1385.34 5.56314H1347.78ZM720.781 4.08656L720.998 2.96408H758.496L758.713 4.08656H720.761H720.781ZM492.6 2.72355H455.437L458.729 1.68794H495.498L492.6 2.72355ZM454.609 2.72355H417.505L421.231 1.68794H457.941L454.609 2.72355ZM416.618 2.72355H379.573L383.753 1.68794H420.403L416.618 2.72355ZM378.627 2.72355H341.642L346.255 1.68794H382.846L378.627 2.72355ZM340.636 2.72355H303.73L308.777 1.68794H345.309L340.636 2.72355ZM302.645 2.72355H265.798L271.298 1.68794H307.751L302.645 2.72355ZM264.654 2.72355H227.886L233.82 1.68794H270.214L264.654 2.72355ZM226.644 2.72355H189.954L196.322 1.68794H232.637L226.644 2.72355ZM188.653 2.72355H152.023L158.844 1.68794H195.1L188.653 2.72355ZM150.662 2.72355H114.111L121.366 1.68794H157.543L150.662 2.72355ZM112.652 2.72355H76.1788L83.8677 1.68794H119.986L112.652 2.72355ZM110.936 2.96408L102.972 4.08656H66.0059L74.3651 2.96408H110.917H110.936ZM81.1865 7.41389H119.394L109.635 8.88379H70.8952L81.1865 7.41389ZM109.872 15.3714L96.2882 17.5562H54.1177L68.49 15.3714H109.655H109.872ZM94.3167 17.8703L79.1361 20.309H35.9996L52.0477 17.8703H94.1195H94.3167ZM1364.91 52.8206L1336.34 46.4866H1389.61L1420.55 52.8206H1364.91ZM1400.38 20.309L1385.2 17.8703H1427.27L1443.32 20.309H1400.38ZM1383.25 17.5562L1369.66 15.3714H1410.83L1425.2 17.5562H1383.25ZM1369.88 8.88379L1360.12 7.41389H1398.33L1408.62 8.88379H1369.88ZM1376.56 4.09324L1368.6 2.97076H1405.15L1413.51 4.09324H1376.54H1376.56ZM1366.88 2.73024L1359.55 1.69462H1395.67L1403.35 2.73024H1366.88ZM1328.87 2.73024L1321.99 1.69462H1358.17L1365.42 2.73024H1328.87ZM1290.88 2.73024L1284.43 1.69462H1320.69L1327.49 2.73024H1290.86H1290.88ZM1252.89 2.73024L1246.9 1.69462H1283.21L1289.58 2.73024H1252.89ZM1214.9 2.73024L1209.34 1.69462H1245.73L1251.67 2.73024H1214.9ZM1176.91 2.73024L1171.8 1.69462H1208.25L1213.76 2.73024H1176.91ZM1138.92 2.73024L1134.24 1.69462H1170.76L1175.8 2.73024H1138.9H1138.92ZM1100.93 2.73024L1096.71 1.69462H1133.3L1137.91 2.73024H1100.93ZM1062.94 2.73024L1059.15 1.69462H1095.8L1099.98 2.73024H1062.94ZM1024.94 2.73024L1021.61 1.69462H1058.32L1062.05 2.73024H1024.94ZM986.954 2.73024L984.056 1.69462H1020.82L1024.12 2.73024H986.954ZM948.963 2.73024L946.518 1.69462H983.326L986.185 2.73024H948.963ZM910.972 2.73024L908.961 1.69462H945.828L948.233 2.73024H910.952H910.972ZM872.981 2.73024L871.424 1.69462H908.33L910.302 2.73024H872.981ZM835.01 2.73024L833.886 1.69462H870.832L872.37 2.73024H835.01ZM797.039 2.73024L796.369 1.69462H833.334L834.419 2.73024H797.039ZM759.068 2.73024L758.831 1.69462H795.817L796.467 2.73024H759.068ZM720.545 2.73024H683.145L683.796 1.69462H720.781L720.545 2.73024ZM682.573 2.73024H645.194L646.278 1.69462H683.244L682.573 2.73024ZM644.602 2.73024H607.242L608.78 1.69462H645.726L644.602 2.73024ZM606.631 2.73024H569.311L571.282 1.69462H608.189L606.631 2.73024ZM568.64 2.73024H531.359L533.764 1.69462H570.632L568.621 2.73024H568.64ZM530.65 2.73024H493.428L496.286 1.69462H533.094L530.65 2.73024ZM82.2116 1.72135L74.4439 2.75696H38.0303L46.1529 1.72135H82.1919H82.2116ZM101.02 4.36718L92.3255 5.59655H54.8472L63.9752 4.36718H101.02ZM90.5314 5.84376L81.0287 7.18004H42.9985L52.9546 5.84376H90.5117H90.5314ZM107.664 9.17777L96.9388 10.788H57.5087L68.8054 9.17777H107.644H107.664ZM95.0855 11.0686L83.2565 12.8459H43.097L55.5569 11.0686H95.0658H95.0855ZM81.3442 13.1332L68.2534 15.0975H27.2856L41.0664 13.1332H81.3048H81.3442ZM84.6957 27.1975L64.409 30.6918H17.5464L39.0949 27.1975H84.676H84.6957ZM42.1507 35.0949L65.099 31.0927H112.257L90.768 35.0949H42.1113H42.1507ZM115.372 40.6137L88.8359 45.9855H35.9405L64.4681 40.6137H115.333H115.372ZM111.784 53.4286L77.6772 60.9919H18.9659L55.9118 53.4286H111.764H111.784ZM137.907 61.6601L100.487 70.8269H37.8134L78.7024 61.6601H137.907ZM164.798 71.6153L123.357 82.9603H55.7738L101.532 71.6153H164.778H164.798ZM222.09 99.4233L169.51 118.225H87.6727L147.528 99.4233H222.09ZM301.522 99.4233L257.005 118.225H174.793L226.644 99.4233H301.522ZM380.934 99.4233L344.461 118.225H261.914L305.76 99.4233H380.934ZM460.326 99.4233L431.917 118.225H349.054L384.877 99.4233H460.326ZM539.679 99.4233L519.313 118.225H436.215L464.032 99.4233H539.699H539.679ZM619.012 99.4233L606.69 118.225H523.394L543.188 99.4233H619.012ZM698.306 99.4233L694.028 118.225H610.614L622.384 99.4233H698.306ZM856.795 99.4233L868.565 118.225H785.151L780.873 99.4233H856.795ZM935.99 99.4233L955.784 118.225H872.488L860.166 99.4233H935.99ZM1015.17 99.4233L1042.98 118.225H959.885L939.519 99.4233H1015.19H1015.17ZM1094.3 99.4233L1130.12 118.225H1047.26L1018.85 99.4233H1094.3ZM1173.42 99.4233L1217.26 118.225H1134.72L1098.24 99.4233H1173.42ZM1252.53 99.4233L1304.39 118.225H1222.17L1177.66 99.4233H1252.53ZM1331.63 99.4233L1391.49 118.225H1309.67L1257.09 99.4233H1331.65H1331.63ZM1377.61 71.6153L1423.37 82.9603H1355.8L1314.36 71.6153H1377.61ZM1400.46 61.6601L1441.35 70.8269H1378.69L1341.27 61.6601H1400.48H1400.46ZM1423.25 53.4286L1460.19 60.9919H1401.5L1367.39 53.4286H1423.25ZM1414.67 40.6137L1443.2 45.9855H1390.34L1363.81 40.6137H1414.67ZM1439.51 35.5225L1465.99 40.1393H1415.5L1390.72 35.5225H1439.51ZM1440.04 27.1908L1461.59 30.6852H1414.75L1394.46 27.1908H1440.04ZM1445.31 20.6564L1463.31 23.3891H1419.26L1402.25 20.6564H1445.31ZM1410.91 15.0908L1397.81 13.1265H1438.05L1451.83 15.0908H1410.89H1410.91ZM1395.9 12.8392L1384.07 11.0619H1423.58L1436.04 12.8392H1395.9ZM1382.22 10.7813L1371.5 9.17109H1410.33L1421.63 10.7813H1382.22ZM1398.11 7.17336L1388.61 5.83708H1426.17L1436.12 7.17336H1398.09H1398.11ZM1386.81 5.58319L1378.12 4.35381H1415.16L1424.29 5.58319H1386.81ZM1404.7 2.7436L1396.93 1.70798H1432.97L1441.09 2.7436H1404.7ZM1395.15 1.47413L1388 0.518696H1423.62L1431.11 1.47413H1395.15ZM1357.69 1.47413L1350.93 0.518696H1386.64L1393.73 1.47413H1357.71H1357.69ZM1320.24 1.47413L1313.89 0.518696H1349.65L1356.33 1.47413H1320.24ZM1282.78 1.47413L1276.84 0.518696H1312.67L1318.95 1.47413H1282.78ZM1245.32 1.47413L1239.8 0.518696H1275.68L1281.56 1.47413H1245.32ZM1207.86 1.47413L1202.73 0.518696H1238.69L1244.18 1.47413H1207.86ZM1170.4 1.47413L1165.69 0.518696H1201.71L1206.78 1.47413H1170.4ZM1132.94 1.47413L1128.65 0.518696H1164.72L1169.38 1.47413H1132.94ZM1095.48 1.47413L1091.6 0.518696H1127.74L1132 1.47413H1095.5H1095.48ZM1058.03 1.47413L1054.54 0.518696H1090.73L1094.58 1.47413H1058.03ZM1020.57 1.47413L1017.49 0.518696H1053.75L1057.2 1.47413H1020.59H1020.57ZM983.109 1.47413L980.448 0.518696H1016.76L1019.8 1.47413H983.129H983.109ZM945.67 1.47413L943.403 0.518696H979.758L982.38 1.47413H945.651H945.67ZM908.232 1.47413L906.378 0.518696H942.772L945 1.47413H908.232ZM870.793 1.47413L869.354 0.518696H905.787L907.601 1.47413H870.793ZM833.354 1.47413L832.329 0.518696H868.802L870.221 1.47413H833.374H833.354ZM795.915 1.47413L795.284 0.518696H831.777L832.782 1.47413H795.915ZM495.912 1.47413H459.242L462.278 0.518696H498.573L495.912 1.47413ZM458.453 1.47413H421.842L425.292 0.518696H461.548L458.473 1.47413H458.453ZM420.995 1.47413H384.443L388.287 0.518696H424.484L420.995 1.47413ZM383.536 1.47413H347.044L351.302 0.518696H387.44L383.556 1.47413H383.536ZM346.077 1.47413H309.644L314.297 0.518696H350.375L346.077 1.47413ZM308.619 1.47413H272.245L277.311 0.518696H313.331L308.619 1.47413ZM271.16 1.47413H234.865L240.326 0.518696H276.286L271.16 1.47413ZM233.702 1.47413H197.466L203.341 0.518696H239.222L233.702 1.47413ZM196.243 1.47413H160.066L166.355 0.518696H202.178L196.243 1.47413ZM158.785 1.47413H122.687L129.37 0.518696H165.133L158.785 1.47413ZM121.326 1.47413H85.3069L92.4043 0.518696H128.108L121.346 1.47413H121.326ZM83.8677 1.47413H48.0258L55.5175 0.518696H91.1425L83.986 1.47413H83.8677ZM10.6264 1.48082L18.5321 0.532058H54.098L46.5275 1.4875H10.6264V1.48082ZM36.1179 2.99081H72.6104L64.1527 4.11328H27.2856L36.1179 2.99081ZM15.7129 5.58987L25.3535 4.36049H62.3192L53.1123 5.58987H15.7129ZM3.17412 7.18672L13.7019 5.85044H51.1999L41.1255 7.18672H3.17412ZM41.0467 7.44729H79.1755L68.7857 8.9172H30.1443L41.0467 7.44729ZM16.1466 10.7947L28.1333 9.18445H66.8734L55.4584 10.7947H16.1663H16.1466ZM66.2228 15.4048L51.6928 17.5896H9.87723L25.1761 15.4048H66.2228ZM1427.41 17.5896L1412.88 15.4048H1453.92L1469.22 17.5896H1427.41ZM1423.66 10.8014L1412.25 9.19114H1450.99L1462.97 10.8014H1423.66ZM1410.33 8.92388L1399.94 7.45398H1438.07L1448.98 8.92388H1410.33ZM1437.99 7.20008L1427.92 5.86381H1465.4L1475.93 7.20008H1437.97H1437.99ZM1426.03 5.60991L1416.82 4.38054H1453.79L1463.43 5.60991H1426.05H1426.03ZM1414.95 4.13333L1406.49 3.01085H1442.98L1451.81 4.13333H1414.95ZM1432.59 1.49418L1425.02 0.53874H1460.59L1468.49 1.49418H1432.61H1432.59ZM721.097 1.49418L721.294 0.53874H757.806L758.003 1.49418H721.116H721.097ZM14.0962 11.0686H53.5066L40.9087 12.8459H0.887176L14.0962 11.0686ZM68.4308 99.4233H142.638L81.9948 118.225H0.571736L68.4308 99.4233ZM1397.12 118.225L1336.48 99.4233H1410.69L1478.55 118.225H1397.12ZM1438.21 12.8459L1425.61 11.0686H1465.02L1478.23 12.8459H1438.21ZM8.67461 1.72135H44.6545L36.4334 2.75696H0.11829L8.69432 1.72135H8.67461ZM1442.69 2.75696L1434.46 1.72135H1470.43L1478.98 2.75696H1442.67H1442.69Z" fill="url(#paint0_linear_192_27405)"/>
<rect width="1479.12" height="128" fill="url(#paint1_linear_192_27405)"/>
</g>
<defs>
<linearGradient id="paint0_linear_192_27405" x1="739.57" y1="127.799" x2="739.57" y2="0.298205" gradientUnits="userSpaceOnUse">
<stop stop-color="#9B3EFF"/>
<stop offset="0.22" stop-color="#9F43FF"/>
<stop offset="0.5" stop-color="#AD54FF"/>
<stop offset="0.82" stop-color="#C36FFF"/>
<stop offset="1" stop-color="#D282FF"/>
</linearGradient>
<linearGradient id="paint1_linear_192_27405" x1="739.56" y1="0" x2="739.56" y2="128" gradientUnits="userSpaceOnUse">
<stop offset="0.317708" stop-color="#100024"/>
<stop offset="1" stop-color="#100024" stop-opacity="0"/>
</linearGradient>
<clipPath id="clip0_192_27405">
<rect width="1480" height="128" fill="white"/>
</clipPath>
</defs>
</svg>
