<svg width="17" height="11" viewBox="0 0 17 11" fill="none" xmlns="http://www.w3.org/2000/svg">
<path d="M6 10L5.64645 10.3536L6 10.7071L6.35355 10.3536L6 10ZM14.7071 1.29289L15.0607 1.64645L14.7071 1.29289ZM0.646447 5.35355L5.64645 10.3536L6.35355 9.64645L1.35355 4.64645L0.646447 5.35355ZM6.35355 10.3536L15.0607 1.64645L14.3536 0.939339L5.64645 9.64645L6.35355 10.3536ZM15.4142 1.5H17V0.5H15.4142V1.5ZM15.0607 1.64645C15.1544 1.55268 15.2816 1.5 15.4142 1.5V0.5C15.0164 0.5 14.6349 0.658034 14.3536 0.939339L15.0607 1.64645Z" fill="#FF7800"/>
</svg>
