<svg width="24" height="24" viewBox="0 0 24 24" fill="none" xmlns="http://www.w3.org/2000/svg">
<path d="M9 16L8.64645 16.3536L9 16.7071L9.35355 16.3536L9 16ZM17.7071 7.29289L18.0607 7.64645L17.7071 7.29289ZM3.64645 11.3536L8.64645 16.3536L9.35355 15.6464L4.35355 10.6464L3.64645 11.3536ZM9.35355 16.3536L18.0607 7.64645L17.3536 6.93934L8.64645 15.6464L9.35355 16.3536ZM18.4142 7.5H20V6.5H18.4142V7.5ZM18.0607 7.64645C18.1544 7.55268 18.2816 7.5 18.4142 7.5V6.5C18.0164 6.5 17.6349 6.65803 17.3536 6.93934L18.0607 7.64645Z" fill="#023DFF"/>
</svg>
