<svg width="155" height="154" viewBox="0 0 155 154" fill="none" xmlns="http://www.w3.org/2000/svg">
<path d="M77.7098 0.849915C120.128 0.849915 154.681 35.1006 154.681 77.2483C154.681 119.396 120.128 153.602 77.7098 153.602C35.2914 153.602 0.738429 119.351 0.738429 77.2032C0.738429 35.0555 35.246 0.804796 77.7098 0.804796V0.849915ZM77.7098 148.547C117.309 148.547 149.544 116.553 149.544 77.2483C149.544 37.9435 117.309 5.94916 77.7098 5.94916C38.1102 5.94916 5.87592 37.9435 5.87592 77.2483C5.87592 116.553 38.1102 148.547 77.7098 148.547Z" fill="#023DFF"/>
<path d="M77.71 18.5843C110.263 18.5843 136.768 44.8928 136.768 77.2031C136.768 109.513 110.263 135.822 77.71 135.822C45.1574 135.822 18.6516 109.513 18.6516 77.2031C18.6516 44.8928 45.1574 18.5843 77.71 18.5843V18.5843ZM77.71 130.768C107.444 130.768 131.631 106.761 131.631 77.2482C131.631 47.7358 107.444 23.7287 77.71 23.7287C47.9762 23.7287 23.7891 47.7358 23.7891 77.2482C23.7891 106.761 47.9762 130.768 77.71 130.768V130.768Z" fill="#023DFF"/>
<path d="M18.606 77.2483H23.7435C23.7435 111.679 51.9315 139.658 86.6209 139.658C121.31 139.658 149.498 111.679 149.498 77.2483H154.636C154.636 114.477 124.129 144.757 86.6209 144.757C49.1127 144.757 18.606 114.477 18.606 77.2483Z" fill="#023DFF"/>
<path d="M77.71 55.0914C65.4064 55.0914 55.4324 64.9912 55.4324 77.2032C55.4324 89.4152 65.4064 99.3149 77.71 99.3149C90.0135 99.3149 99.9875 89.4152 99.9875 77.2032C99.9875 64.9912 90.0135 55.0914 77.71 55.0914Z" fill="#FF7800"/>
</svg>
