<svg width="249" height="255" viewBox="0 0 249 255" fill="none" xmlns="http://www.w3.org/2000/svg">
<path d="M126.71 24C184.041 24 230.733 70.2994 230.733 127.248C230.733 184.197 184.041 230.452 126.71 230.452C69.3792 230.452 22.6872 184.152 22.6872 127.203C22.6872 70.2542 69.3338 23.9549 126.71 23.9549V24ZM126.71 225.352C181.222 225.352 225.55 181.355 225.55 127.248C225.55 73.1423 181.176 29.0993 126.664 29.0993C72.1526 29.0993 27.7792 73.1423 27.7792 127.248C27.7792 181.355 72.198 225.352 126.71 225.352Z" fill="#FF7800"/>
<path d="M124.36 231.063L123.315 256.333L119.496 256.198L120.541 230.928L124.36 231.063Z" fill="#023DFF"/>
<path d="M116.268 230.882L113.085 248.662L109.857 248.075V246.225H109.63C109.13 246.541 108.63 246.812 108.13 247.038C106.857 247.534 105.493 247.669 104.083 247.399C101.901 246.992 100.31 246.045 99.2186 244.465C98.173 242.886 97.8547 240.946 98.2639 238.644L100.173 227.994L103.765 228.626L101.856 239.276C101.628 240.449 101.856 241.532 102.538 242.48C103.22 243.473 104.174 244.059 105.356 244.285C106.675 244.511 107.857 244.285 108.903 243.608C109.948 242.931 110.585 241.983 110.767 240.855L112.676 230.206L116.268 230.837V230.882Z" fill="#023DFF"/>
<path d="M94.8086 230.16L91.3079 240.404L94.0812 241.307L92.99 244.556L90.2167 243.653L88.58 248.437L85.1247 247.263L86.7614 242.48L82.806 241.171L83.8972 237.922L87.8526 239.231L91.1715 229.484C91.3988 228.807 91.1715 228.355 90.4895 228.13L87.5798 227.137L88.6255 224.068L92.2626 225.287C93.4902 225.693 94.3085 226.325 94.7632 227.182C95.2178 228.04 95.2178 229.032 94.8541 230.16H94.8086Z" fill="#023DFF"/>
<path d="M72.8038 222.398L69.394 220.684C70.5306 219.646 71.9855 218.924 73.7586 218.518C75.5317 218.112 77.3503 218.427 79.2598 219.375C81.6239 220.548 83.1697 222.308 83.8972 224.655C84.6246 226.956 84.3518 229.348 83.0788 231.875C81.8058 234.357 79.9872 235.981 77.6685 236.749C75.3498 237.516 73.0312 237.29 70.667 236.117C68.4847 234.989 66.9844 233.319 66.3024 231.063C65.575 228.806 65.8023 226.55 66.9389 224.294C67.0298 224.113 67.2572 223.752 67.6209 223.166L67.9391 222.759L80.3964 229.077C80.942 227.633 80.942 226.279 80.4873 225.016C80.0327 223.752 79.1234 222.805 77.8504 222.128C76.9411 221.676 76.0318 221.496 75.0771 221.586C74.1678 221.676 73.3949 221.947 72.8038 222.444V222.398ZM79.1689 231.514L69.6213 226.685C69.1212 228.084 69.0757 229.393 69.5304 230.611C69.985 231.83 70.8034 232.777 72.0764 233.409C73.3949 234.086 74.7133 234.222 75.8954 233.861C77.123 233.499 78.2141 232.732 79.1234 231.514H79.1689Z" fill="#023DFF"/>
<path d="M69.0756 213.96L58.4369 228.626L55.9364 226.821L56.6184 225.287L56.482 225.196L56.1182 225.287C56.1182 225.287 55.8 225.377 55.7545 225.377C55.7091 225.377 55.5727 225.377 55.3908 225.422C55.209 225.422 55.0271 225.422 54.9362 225.422C54.8452 225.422 54.6634 225.422 54.4815 225.332C54.2997 225.332 54.1178 225.242 53.9359 225.151C53.7541 225.061 53.5722 224.971 53.3449 224.881C53.1176 224.79 52.8903 224.655 52.7084 224.474L50.0715 222.579L51.981 219.962L54.3451 221.631C56.4365 223.121 58.1642 222.85 59.6645 220.819L66.1659 211.839L69.1211 213.96H69.0756Z" fill="#023DFF"/>
<path d="M59.21 206.92L46.4799 219.781L44.1612 217.525L45.1614 215.991L45.025 215.855C44.434 215.855 43.8884 215.81 43.2974 215.675C41.9789 215.359 40.7514 214.727 39.7057 213.734C38.1144 212.2 37.3415 210.485 37.387 208.59C37.387 206.695 38.2508 204.935 39.8876 203.265L47.5256 195.549L50.1171 198.076L42.479 205.792C41.6607 206.65 41.2515 207.642 41.206 208.861C41.206 210.034 41.6152 211.072 42.5245 211.929C43.4793 212.877 44.5704 213.328 45.8434 213.373C47.1164 213.373 48.1166 212.967 48.9805 212.155L56.6185 204.438L59.21 206.965V206.92Z" fill="#023DFF"/>
<path d="M38.5689 183.319L37.1595 184.763L37.2504 184.899C37.8415 184.899 38.4325 185.034 38.9781 185.26C40.2965 185.756 41.3877 186.659 42.297 187.967C43.4336 189.592 43.9337 191.171 43.7518 192.706C43.57 194.24 42.7971 195.503 41.4332 196.496C39.8874 197.579 38.3416 197.895 36.7503 197.489C35.1591 197.083 33.6587 195.864 32.2039 193.879L29.5669 190.179L29.2487 190.404C28.2939 191.081 27.7029 191.893 27.521 192.841C27.3392 193.789 27.612 194.736 28.2939 195.684C28.9759 196.632 29.7033 197.218 30.4762 197.399C31.2491 197.579 31.9765 197.579 32.5676 197.308L34.659 200.242C33.295 201.099 31.7947 201.28 30.1125 200.783C28.4758 200.332 27.0209 199.204 25.7479 197.399C24.384 195.503 23.8384 193.653 24.1112 191.893C24.384 190.133 25.3842 188.644 27.1119 187.426L36.6139 180.792L38.387 183.319H38.5689ZM32.6585 188.148L32.0675 188.554L34.568 192.074C35.3409 193.157 36.1138 193.834 36.9322 194.059C37.7505 194.285 38.5234 194.15 39.2509 193.653C39.9328 193.157 40.342 192.57 40.3875 191.848C40.4329 191.126 40.2056 190.314 39.5691 189.457C38.6144 188.103 37.5232 187.336 36.3411 187.11C35.1136 186.884 33.8861 187.245 32.613 188.103L32.6585 188.148Z" fill="#023DFF"/>
<path d="M31.4312 178.671L21.7018 183.59L23.0203 186.162L19.9287 187.742L18.6102 185.17L14.0638 187.471L12.4271 184.267L16.9735 181.966L15.064 178.265L18.1556 176.686L20.0651 180.386L29.2944 175.693C29.9309 175.377 30.1127 174.881 29.749 174.249L28.3396 171.541L31.2494 170.052L32.977 173.437C33.568 174.565 33.7044 175.603 33.4317 176.505C33.1589 177.408 32.4769 178.13 31.4312 178.671V178.671Z" fill="#023DFF"/>
<path d="M29.9761 166.848L13.0633 173.437L11.7448 170.098L28.6576 163.509L29.9761 166.848ZM9.88079 174.881L6.33454 176.28L4.87968 172.579L8.42592 171.181L9.88079 174.881Z" fill="#023DFF"/>
<path d="M21.338 146.271C23.4293 147.489 24.7932 149.385 25.4297 151.957C26.0663 154.529 25.748 156.83 24.4295 158.861C23.1565 160.937 21.1106 162.291 18.3828 162.968C15.6549 163.644 13.2453 163.329 11.1539 162.11C9.06255 160.892 7.69862 158.996 7.06212 156.424C6.42562 153.852 6.74386 151.551 8.06233 149.52C9.33533 147.444 11.3812 146.09 14.1091 145.414C16.837 144.737 19.2466 145.053 21.338 146.271ZM21.5653 156.876C22.4291 155.612 22.6564 154.213 22.2927 152.724C21.929 151.19 21.0652 150.107 19.7012 149.34C18.3373 148.572 16.7915 148.482 14.9729 148.933C13.1543 149.385 11.8359 150.242 10.972 151.506C10.1082 152.769 9.8809 154.168 10.2446 155.657C10.6083 157.191 11.4722 158.32 12.8361 159.042C14.2 159.764 15.7458 159.899 17.5644 159.448C19.383 158.996 20.7015 158.139 21.5653 156.876Z" fill="#023DFF"/>
<path d="M22.6565 140.675L4.51618 141.623L4.33432 138.374L6.15291 137.923V137.742C5.69826 137.336 5.33454 136.93 4.97082 136.479C4.19792 135.351 3.74329 134.087 3.65236 132.643C3.51597 130.477 4.15247 128.672 5.42548 127.273C6.74395 125.874 8.56251 125.152 10.8812 125.017L21.7927 124.475L21.9745 128.085L11.0631 128.627C9.88098 128.672 8.88077 129.168 8.06241 130.026C7.24405 130.883 6.88033 131.966 6.92579 133.184C7.01672 134.493 7.47137 135.576 8.38066 136.434C9.28994 137.291 10.3356 137.697 11.5177 137.607L22.4292 137.02L22.611 140.63L22.6565 140.675Z" fill="#023DFF"/>
<path d="M23.5203 109.313L21.4744 109.403V109.584C21.8835 109.99 22.2018 110.486 22.4746 111.028C23.1111 112.291 23.2929 113.69 23.1111 115.27C22.8383 117.255 22.1563 118.744 20.9742 119.782C19.7922 120.82 18.3828 121.226 16.7006 121.001C14.8365 120.775 13.4726 119.963 12.5633 118.609C11.654 117.255 11.3812 115.36 11.6995 112.923L12.2905 108.456H11.9268C10.7447 108.275 9.78998 108.456 9.01708 109.042C8.24418 109.629 7.78954 110.486 7.65315 111.66C7.51676 112.788 7.65315 113.735 8.06233 114.412C8.51697 115.089 9.01709 115.54 9.6536 115.721L9.19894 119.286C7.60768 118.97 6.38015 118.113 5.47086 116.668C4.56157 115.224 4.24331 113.419 4.56156 111.253C4.87981 108.952 5.69818 107.192 7.10758 106.064C8.51698 104.936 10.2446 104.484 12.3815 104.755L23.9294 106.244L23.5203 109.268V109.313ZM15.8822 108.862L15.1548 108.771L14.6092 113.058C14.4274 114.367 14.6092 115.405 15.0184 116.127C15.4276 116.849 16.1095 117.255 16.9734 117.391C17.8372 117.481 18.5192 117.3 19.0647 116.804C19.6103 116.307 19.974 115.54 20.1104 114.502C20.3377 112.878 20.065 111.569 19.3375 110.622C18.6101 109.674 17.4735 109.087 15.9277 108.862H15.8822Z" fill="#023DFF"/>
<path d="M24.9752 102.589L0.333481 96.2261L1.24277 92.7514L25.8845 99.1142L24.9752 102.589Z" fill="#023DFF"/>
<path d="M36.023 90.811L13.3362 79.349L14.8366 76.461L16.9279 77.1379L17.0189 76.9573C16.7915 76.4158 16.6551 75.9646 16.5187 75.6036C16.4278 75.2426 16.3824 74.6108 16.4733 73.6631C16.5642 72.7155 16.837 71.7679 17.2917 70.8202C18.3828 68.6542 20.065 67.3004 22.2927 66.6686C24.5205 66.0369 26.9301 66.3979 29.4761 67.6614C32.0221 68.97 33.7043 70.6848 34.5227 72.8509C35.341 75.0169 35.2046 77.183 34.1135 79.3039C32.9769 81.5151 31.3856 82.7786 29.2943 83.1396L29.2033 83.3201L37.6143 87.562L35.9775 90.7659L36.023 90.811ZM27.7485 80.9284C29.2033 80.5674 30.2945 79.71 30.9764 78.3563C31.6584 77.0476 31.7039 75.6487 31.1583 74.2498C30.6127 72.8509 29.4761 71.7227 27.8394 70.9105C26.2027 70.0982 24.6569 69.8726 23.1566 70.2336C21.7017 70.5946 20.6105 71.452 19.9286 72.8058C19.2466 74.1144 19.2011 75.5133 19.7467 76.9122C20.2923 78.3111 21.4289 79.4393 23.0656 80.2515C24.7023 81.0638 26.2481 81.2895 27.7485 80.9284Z" fill="#023DFF"/>
<path d="M39.6147 69.4214L18.701 55.0262L20.7924 52.0479L41.7061 66.4431L39.6147 69.4214Z" fill="#023DFF"/>
<path d="M51.9356 54.2593L50.208 53.1762L50.0716 53.3116C50.1625 53.8983 50.1625 54.4849 50.0716 55.0716C49.8897 56.4253 49.2532 57.734 48.162 58.9073C46.8436 60.3964 45.3887 61.2087 43.7975 61.3892C42.2517 61.5697 40.8423 61.1184 39.5693 59.9903C38.2053 58.7719 37.5234 57.3278 37.5688 55.7033C37.5688 54.0788 38.4781 52.364 40.1148 50.5138L43.161 47.1745L42.8882 46.9489C42.0243 46.1817 41.0696 45.7756 40.1148 45.8207C39.1601 45.8658 38.2963 46.3171 37.4779 47.2196C36.705 48.077 36.2958 48.9344 36.2504 49.7015C36.2504 50.5138 36.3868 51.1907 36.7959 51.6871L34.3409 54.3495C33.2043 53.2214 32.7042 51.7773 32.7951 50.1077C32.886 48.3929 33.6589 46.7232 35.1592 45.0987C36.7505 43.3839 38.4327 42.4363 40.2058 42.3009C41.9789 42.1655 43.7065 42.7973 45.2978 44.1962L53.936 51.9127L51.8447 54.169L51.9356 54.2593ZM45.8888 49.5662L45.3433 49.0698L42.4335 52.2737C41.5242 53.2665 41.0696 54.169 41.0241 55.0264C40.9787 55.8838 41.2515 56.5607 41.9334 57.1473C42.5699 57.6889 43.2519 57.9596 43.9793 57.8694C44.7068 57.7791 45.4342 57.3278 46.1616 56.5607C47.2528 55.3423 47.7983 54.1239 47.7529 52.9055C47.7074 51.6871 47.0709 50.5589 45.9343 49.521L45.8888 49.5662Z" fill="#023DFF"/>
<path d="M54.8908 46.3171L47.8893 38.0139L45.6615 39.8641L43.4338 37.2468L45.6615 35.3966L42.3881 31.5158L45.1614 29.2144L48.4349 33.0952L51.6174 30.4328L53.8451 33.0501L50.6172 35.7125L57.3004 43.6096C57.7551 44.1511 58.2552 44.1962 58.8462 43.745L61.2104 41.7594L63.3018 44.2413L60.392 46.6782C59.3918 47.4904 58.437 47.8514 57.4823 47.8063C56.5275 47.7161 55.6637 47.2648 54.8908 46.3171V46.3171Z" fill="#023DFF"/>
<path d="M67.2571 41.5337L59.119 29.3497L56.7093 30.9291L54.7998 28.0861L57.2095 26.5067L55.3909 23.7992C54.7998 22.8966 54.5725 21.949 54.7998 20.9562C55.0272 19.9635 55.5727 19.1512 56.482 18.5645L59.5281 16.579L61.3467 19.2866L59.0735 20.7757C58.4825 21.1818 58.3461 21.6782 58.7552 22.2649L60.2556 24.5212L63.4381 22.4454L65.3476 25.2883L62.1651 27.3641L70.3032 39.5481L67.2571 41.5337V41.5337Z" fill="#023DFF"/>
<path d="M87.1251 28.2215C86.3068 30.5229 84.7155 32.2377 82.3514 33.3207C79.9418 34.4489 77.6231 34.5843 75.3498 33.7269C73.0766 32.8695 71.3035 31.1998 70.1214 28.6728C68.9394 26.1457 68.712 23.754 69.5304 21.4526C70.3488 19.1512 71.94 17.4364 74.3042 16.3533C76.6683 15.2703 79.0325 15.0898 81.3057 15.9472C83.5789 16.8046 85.352 18.4743 86.5341 21.0013C87.7162 23.5284 87.9435 25.9201 87.1251 28.2215ZM76.6683 30.5229C78.0777 31.1096 79.4871 31.0644 80.942 30.3875C82.3969 29.7107 83.3061 28.6728 83.7608 27.2287C84.2154 25.7847 84.0336 24.2053 83.2607 22.5356C82.4878 20.8659 81.3512 19.7378 79.9418 19.1512C78.5324 18.5645 77.123 18.6097 75.6681 19.2865C74.2587 19.9634 73.3039 21.0013 72.8493 22.4454C72.3947 23.8894 72.5765 25.4688 73.3494 27.1385C74.1223 28.8081 75.2589 29.9363 76.6683 30.5229Z" fill="#023DFF"/>
<path d="M93.2173 28.5371L88.0798 11.2087L91.035 10.3513L91.8533 11.7954H92.0352C92.0352 11.7954 92.0807 11.6148 92.1716 11.4343C92.2625 11.2538 92.308 11.1636 92.3534 11.0733C92.3989 10.9831 92.4444 10.8928 92.5353 10.7123C92.6262 10.5318 92.7172 10.4416 92.8081 10.3513C92.899 10.2611 92.9899 10.1708 93.1263 10.0354C93.2627 9.90005 93.3991 9.8098 93.581 9.71954C93.7628 9.62929 93.9447 9.53905 94.172 9.4488C94.3994 9.35855 94.6267 9.26829 94.8995 9.17804L98.0365 8.27551L98.9458 11.3892L96.1725 12.2015C93.7174 12.9235 92.8536 14.4578 93.581 16.8946L96.718 27.4992L93.2173 28.5371V28.5371Z" fill="#023DFF"/>
<path d="M104.493 24.7017L102.901 6.7415L106.175 6.47076L106.675 8.23067H106.857C107.175 7.77941 107.539 7.4184 108.039 7.01226C109.084 6.19999 110.221 5.74873 111.403 5.61335C112.903 5.47797 114.222 5.79387 115.313 6.56101C115.813 6.96714 116.222 7.32815 116.495 7.73428H116.677C116.95 7.28302 117.404 6.83175 117.995 6.33537C119.268 5.38772 120.769 4.84621 122.451 4.66571C124.315 4.4852 125.952 5.02672 127.316 6.19999C128.68 7.4184 129.407 8.99782 129.589 11.0736L130.589 22.4454L126.952 22.7613L125.952 11.4346C125.861 10.3065 125.452 9.40394 124.724 8.77218C123.997 8.14041 123.087 7.86965 121.996 7.95991C120.905 8.05016 119.996 8.50142 119.268 9.26857C118.541 10.0357 118.268 10.9833 118.359 12.0664L119.359 23.393L115.722 23.7089L114.722 12.3823C114.631 11.2541 114.222 10.3516 113.494 9.71982C112.767 9.08805 111.858 8.8173 110.767 8.90755C109.63 8.9978 108.721 9.44907 108.039 10.2162C107.311 10.9834 107.039 11.931 107.129 13.014L108.13 24.3407L104.493 24.6565V24.7017Z" fill="#023DFF"/>
<path d="M143.456 24.4307L146.092 10.0354L143.228 9.49394L143.865 6.10948L146.729 6.60587L147.32 3.40193C147.502 2.31891 148.047 1.50664 148.866 0.920001C149.684 0.333363 150.684 0.152854 151.73 0.333358L155.322 0.96512L154.731 4.16906L152.048 3.67267C151.321 3.5373 150.912 3.85319 150.775 4.53008L150.275 7.19252L154.049 7.8694L153.412 11.2538L149.639 10.577L147.002 24.9722L143.41 24.3404L143.456 24.4307Z" fill="#023DFF"/>
<path d="M167.188 28.4921C165.006 29.5751 162.687 29.7105 160.187 28.8982C157.686 28.0408 155.913 26.5517 154.822 24.3856C153.776 22.2196 153.685 19.7828 154.594 17.1655C155.504 14.503 157.05 12.6529 159.186 11.5247C161.323 10.3966 163.687 10.3063 166.188 11.1186C168.688 11.976 170.462 13.4651 171.553 15.6312C172.598 17.7972 172.689 20.2341 171.78 22.8965C170.871 25.5589 169.325 27.4091 167.188 28.5372V28.4921ZM158.05 22.9867C158.686 24.3856 159.732 25.3333 161.232 25.8297C162.733 26.3261 164.142 26.1907 165.46 25.4687C166.779 24.7467 167.779 23.4831 168.37 21.7232C168.961 19.9633 168.961 18.3839 168.37 17.0301C167.734 15.6312 166.688 14.6835 165.188 14.1872C163.687 13.6908 162.278 13.8261 160.959 14.5482C159.641 15.2702 158.641 16.5337 158.05 18.2936C157.459 20.0535 157.459 21.633 158.05 22.9867Z" fill="#023DFF"/>
<path d="M171.371 32.9145L179.736 16.8948L182.464 18.2937L182.009 19.9182L182.191 20.0085C182.191 20.0085 182.328 19.9633 182.509 19.8731C182.691 19.828 182.828 19.7377 182.873 19.7377C182.919 19.7377 183.055 19.6926 183.237 19.6023C183.419 19.5121 183.555 19.5121 183.692 19.5121C183.782 19.5121 183.964 19.5121 184.146 19.5121C184.328 19.5121 184.51 19.5121 184.692 19.6023C184.874 19.6475 185.055 19.7377 185.328 19.7829C185.556 19.8731 185.783 19.9634 186.01 20.0987L188.92 21.5879L187.42 24.476L184.828 23.1673C182.555 21.994 180.873 22.5355 179.691 24.7467L174.553 34.5391L171.325 32.8694L171.371 32.9145Z" fill="#023DFF"/>
<path d="M200.65 49.927C198.24 50.1527 196.013 49.4306 193.967 47.761C191.921 46.0913 190.83 44.0155 190.648 41.6238C190.466 39.187 191.284 36.9307 193.103 34.8098C194.921 32.6889 197.013 31.4705 199.468 31.2449C201.878 31.0192 204.105 31.7412 206.151 33.4109C208.197 35.0806 209.288 37.1564 209.47 39.5932C209.652 42.03 208.834 44.2863 207.015 46.4072C205.196 48.5281 203.105 49.7465 200.65 49.9722V49.927ZM194.149 41.4885C194.194 42.9776 194.831 44.2412 196.058 45.2791C197.286 46.2718 198.604 46.678 200.15 46.4975C201.696 46.317 203.014 45.5047 204.242 44.0606C205.469 42.6166 206.015 41.1726 205.969 39.6834C205.924 38.1491 205.287 36.8856 204.06 35.8928C202.832 34.9001 201.514 34.4939 199.968 34.6744C198.468 34.8549 197.104 35.6672 195.876 37.1112C194.649 38.5553 194.103 39.9993 194.149 41.5336V41.4885Z" fill="#023DFF"/>
<path d="M202.969 55.2521L217.062 43.8352L219.154 46.3623L217.972 47.7612L218.063 47.8966C218.654 47.9417 219.199 48.0771 219.745 48.2576C221.063 48.7088 222.155 49.476 223.064 50.6041C224.473 52.3189 225.064 54.0788 224.837 55.9741C224.61 57.8694 223.564 59.5391 221.745 60.9831L213.289 67.8423L210.97 65.0445L219.427 58.1853C220.336 57.4182 220.882 56.4705 221.018 55.2973C221.154 54.124 220.836 53.041 220.063 52.0933C219.199 51.0554 218.199 50.4688 216.926 50.3334C215.699 50.1529 214.607 50.4688 213.698 51.2359L205.242 58.0951L202.923 55.2973L202.969 55.2521Z" fill="#023DFF"/>
<path d="M215.198 71.2718L236.885 58.0498L238.794 61.1184L217.108 74.3403L215.198 71.2718Z" fill="#023DFF"/>
<path d="M238.476 68.248L241.886 66.5332L243.705 70.053L240.295 71.7678L238.476 68.248ZM219.29 78.2208L235.476 70.0079L237.112 73.2119L220.927 81.4248L219.29 78.2208V78.2208Z" fill="#023DFF"/>
<path d="M222.882 84.8544L240.022 78.8526L241.113 81.9212L239.522 82.8689V83.0494C240.113 83.275 240.613 83.5909 241.068 83.9519C242.159 84.8093 242.932 85.8923 243.386 87.2461C244.114 89.3219 244.068 91.172 243.205 92.8868C242.341 94.5565 240.84 95.82 238.613 96.5872L228.338 100.197L227.11 96.8128L237.385 93.2027C238.522 92.7966 239.34 92.0746 239.886 90.9915C240.431 89.9085 240.477 88.8255 240.068 87.6522C239.613 86.3887 238.84 85.4862 237.749 84.9447C236.612 84.358 235.521 84.3129 234.384 84.6739L224.109 88.284L222.882 84.8995V84.8544Z" fill="#023DFF"/>
<path d="M236.249 114.863L236.84 118.609C235.339 118.293 233.884 117.571 232.52 116.353C231.157 115.179 230.338 113.51 230.02 111.434C229.611 108.817 230.156 106.56 231.611 104.62C233.066 102.679 235.203 101.506 237.976 101.055C240.75 100.604 243.159 101.145 245.114 102.544C247.069 103.943 248.297 105.974 248.706 108.546C249.07 110.983 248.569 113.149 247.115 115.044C245.705 116.939 243.705 118.067 241.204 118.474C240.977 118.474 240.568 118.519 239.886 118.564H239.386L237.249 104.845C235.748 105.252 234.612 106.019 233.839 107.147C233.066 108.275 232.793 109.539 233.021 110.937C233.157 111.93 233.566 112.788 234.157 113.465C234.748 114.141 235.43 114.593 236.203 114.818L236.249 114.863ZM239.977 104.439L241.613 114.954C243.023 114.548 244.114 113.78 244.887 112.743C245.614 111.659 245.887 110.441 245.66 109.042C245.432 107.553 244.796 106.425 243.796 105.658C242.795 104.891 241.522 104.484 239.977 104.394V104.439Z" fill="#023DFF"/>
<path d="M224.655 129.755L249.933 132.598L249.57 135.847L247.342 135.982V136.163C247.706 136.614 248.024 136.975 248.251 137.246C248.478 137.517 248.706 138.149 248.979 139.051C249.251 139.954 249.342 140.946 249.206 141.984C248.933 144.376 247.842 146.271 245.978 147.625C244.068 148.979 241.704 149.52 238.885 149.204C236.021 148.889 233.839 147.851 232.339 146.091C230.793 144.331 230.156 142.255 230.429 139.863C230.702 137.381 231.748 135.621 233.612 134.584V134.403L224.246 133.365L224.655 129.8V129.755ZM235.885 136.163C234.657 137.02 233.93 138.194 233.748 139.683C233.566 141.172 234.021 142.481 235.021 143.564C236.021 144.692 237.476 145.369 239.295 145.549C241.113 145.73 242.659 145.414 243.932 144.556C245.16 143.699 245.887 142.526 246.069 141.037C246.251 139.547 245.796 138.239 244.796 137.156C243.796 136.028 242.341 135.351 240.522 135.17C238.704 134.99 237.158 135.306 235.93 136.163H235.885Z" fill="#023DFF"/>
<path d="M225.655 161.975L227.656 162.2V162.02C227.383 161.524 227.11 161.027 226.928 160.44C226.519 159.132 226.565 157.688 227.019 156.154C227.61 154.258 228.565 152.904 229.929 152.092C231.293 151.28 232.748 151.099 234.339 151.596C236.112 152.137 237.34 153.175 237.976 154.664C238.613 156.154 238.613 158.094 237.885 160.44L236.567 164.773L236.931 164.863C238.067 165.224 239.067 165.179 239.886 164.727C240.75 164.276 241.341 163.509 241.704 162.381C242.068 161.298 242.068 160.35 241.704 159.583C241.386 158.816 240.931 158.32 240.34 158.004L241.432 154.574C242.932 155.116 244.023 156.199 244.66 157.778C245.296 159.357 245.296 161.208 244.66 163.283C243.978 165.495 242.841 167.074 241.25 167.931C239.704 168.834 237.885 168.924 235.839 168.338L224.701 164.953L225.61 162.02L225.655 161.975ZM233.112 163.69L233.794 163.915L235.067 159.764C235.476 158.5 235.476 157.462 235.203 156.695C234.93 155.928 234.294 155.386 233.475 155.116C232.657 154.89 231.93 154.935 231.338 155.341C230.702 155.747 230.247 156.424 229.929 157.417C229.429 158.996 229.474 160.305 230.065 161.388C230.657 162.471 231.657 163.238 233.157 163.69H233.112Z" fill="#023DFF"/>
<path d="M217.245 164.051L220.154 165.495L218.518 168.744C218.381 169.015 218.336 169.33 218.472 169.601C218.563 169.917 218.745 170.143 218.927 170.323L220.109 171.587L240.841 173.617L239.113 177.002L224.382 175.513L224.064 176.144L234.294 186.478L232.566 189.863L216.153 172.805C215.38 171.993 214.926 171.181 214.744 170.368C214.608 169.556 214.835 168.563 215.426 167.39L217.154 164.006L217.245 164.051Z" fill="#023DFF"/>
<path d="M216.108 183.049L230.156 194.511L228.065 197.038L226.428 196.18L226.292 196.316C226.383 196.812 226.383 197.354 226.292 197.985C226.155 199.294 225.701 200.422 224.928 201.325C223.973 202.498 222.836 203.175 221.518 203.446C220.881 203.536 220.336 203.536 219.836 203.446L219.699 203.581C219.836 204.077 219.836 204.709 219.79 205.476C219.563 207.056 218.927 208.5 217.881 209.808C216.699 211.252 215.198 212.065 213.38 212.155C211.561 212.245 209.879 211.704 208.288 210.395L199.422 203.175L201.741 200.377L210.607 207.597C211.516 208.319 212.425 208.68 213.38 208.59C214.335 208.5 215.153 208.048 215.835 207.236C216.562 206.379 216.881 205.431 216.79 204.393C216.699 203.355 216.244 202.453 215.426 201.776L206.56 194.556L208.879 191.758L217.744 198.978C218.654 199.7 219.563 200.061 220.518 199.971C221.473 199.881 222.291 199.429 222.973 198.617C223.7 197.76 224.019 196.812 223.928 195.774C223.837 194.736 223.382 193.834 222.564 193.157L213.698 185.937L216.017 183.139L216.108 183.049Z" fill="#023DFF"/>
<path d="M189.966 216.668L186.92 218.969C186.465 217.48 186.42 215.9 186.829 214.14C187.238 212.381 188.284 210.891 189.966 209.583C192.057 208.003 194.33 207.372 196.74 207.733C199.15 208.094 201.241 209.357 202.923 211.568C204.651 213.779 205.333 216.081 205.015 218.518C204.696 220.909 203.514 222.94 201.423 224.519C199.468 226.009 197.286 226.595 194.921 226.279C192.557 225.964 190.602 224.79 189.057 222.76C188.92 222.579 188.693 222.218 188.329 221.677L188.056 221.225L199.195 212.787C198.104 211.659 196.876 211.072 195.512 210.937C194.149 210.801 192.921 211.207 191.739 212.065C190.921 212.696 190.375 213.418 190.057 214.276C189.739 215.133 189.648 215.946 189.829 216.713L189.966 216.668ZM200.968 214.908L192.421 221.361C193.467 222.399 194.649 222.985 195.922 223.121C197.195 223.256 198.422 222.895 199.559 222.038C200.741 221.135 201.468 220.052 201.65 218.788C201.832 217.525 201.605 216.216 200.923 214.863L200.968 214.908Z" fill="#023DFF"/>
<path d="M181.055 216.487L189.238 232.597L186.329 234.041L185.192 232.597L185.01 232.687C184.828 233.229 184.601 233.77 184.283 234.267C183.555 235.44 182.555 236.342 181.282 236.974C179.327 237.967 177.418 238.148 175.644 237.516C173.871 236.884 172.416 235.53 171.371 233.454L166.461 223.797L169.689 222.173L174.599 231.83C175.144 232.868 175.963 233.59 177.099 233.996C178.236 234.402 179.372 234.312 180.464 233.77C181.646 233.184 182.464 232.281 182.873 231.108C183.282 229.935 183.237 228.806 182.691 227.769L177.781 218.112L181.009 216.487H181.055Z" fill="#023DFF"/>
<path d="M163.369 228.671L166.779 238.96L169.552 238.057L170.643 241.307L167.87 242.209L169.461 246.992L166.006 248.121L164.415 243.337L160.459 244.646L159.368 241.397L163.324 240.088L160.096 230.296C159.868 229.619 159.414 229.393 158.732 229.619L155.776 230.567L154.776 227.498L158.413 226.325C159.641 225.919 160.687 225.964 161.55 226.325C162.414 226.731 163.051 227.543 163.414 228.626L163.369 228.671Z" fill="#023DFF"/>
<path d="M154.094 233.409L150.503 234.041C150.366 233.409 149.912 232.868 149.093 232.416C148.275 231.965 147.229 231.875 145.911 232.101C144.683 232.326 143.774 232.732 143.228 233.319C142.683 233.906 142.455 234.492 142.592 235.124C142.728 235.756 143.001 236.252 143.456 236.523C143.91 236.839 144.683 236.974 145.683 236.974H149.002C152.548 236.884 154.594 238.283 155.14 241.171C155.413 242.66 155.004 244.014 153.958 245.187C152.912 246.36 151.23 247.173 148.911 247.579C147.684 247.804 146.547 247.804 145.501 247.579C144.456 247.398 143.592 247.037 142.91 246.541C142.228 246.045 141.728 245.548 141.319 244.962C140.91 244.375 140.682 243.878 140.591 243.337L144.183 242.705C144.274 243.337 144.729 243.833 145.456 244.239C146.183 244.646 147.184 244.736 148.411 244.51C149.593 244.285 150.457 243.924 151.003 243.427C151.503 242.886 151.73 242.344 151.639 241.758C151.457 240.675 150.412 240.133 148.548 240.088H145.229C141.682 240.178 139.591 238.734 139.091 235.711C138.818 234.176 139.227 232.823 140.273 231.559C141.319 230.296 143.046 229.483 145.456 229.077C146.775 228.852 148.048 228.806 149.139 229.077C150.275 229.303 151.185 229.664 151.867 230.16C152.548 230.657 153.049 231.198 153.458 231.785C153.867 232.371 154.094 232.868 154.185 233.454L154.094 233.409Z" fill="#023DFF"/>
</svg>
