<svg width="20" height="20" viewBox="0 0 20 20" fill="none" xmlns="http://www.w3.org/2000/svg">
<path d="M12.7412 9.66636C12.7412 9.06978 12.2938 8.58505 11.7717 8.58505C11.2124 8.58505 10.765 9.06978 10.765 9.66636C10.765 10.2256 11.2124 10.7104 11.7717 10.7104C12.2938 10.7104 12.7412 10.2256 12.7412 9.66636ZM8.26678 8.58505C7.74477 8.58505 7.29732 9.06978 7.29732 9.66636C7.29732 10.2256 7.74477 10.7104 8.26678 10.7104C8.82608 10.7104 9.23624 10.2256 9.23624 9.66636C9.27353 9.06978 8.82608 8.58505 8.26678 8.58505ZM18.3715 2.54457C18.3715 1.46325 17.4766 0.568359 16.3954 0.568359L3.60591 0.568359C2.52459 0.568359 1.66699 1.46325 1.66699 2.54457L1.66699 15.4458C1.66699 16.5645 2.52459 17.4221 3.60591 17.4221H14.4191L13.9344 15.6695C16.7309 18.2424 15.9479 17.5712 18.3715 19.6593L18.3715 2.54457ZM15.6496 11.6053C15.6496 11.6053 14.8293 12.9849 12.7039 13.0595C12.7039 13.0595 12.3684 12.6494 12.0701 12.2765C13.3378 11.9409 13.8225 11.1578 13.8225 11.1578C13.4124 11.4188 13.0395 11.568 12.7039 11.7172C10.6531 12.5747 8.37864 12.2765 6.73801 11.3815C6.73801 11.3443 6.51429 11.2325 6.36515 11.1205C6.36515 11.1205 6.81259 11.9036 8.04306 12.2765C7.74477 12.612 7.40918 13.0595 7.40918 13.0595C5.28383 12.9849 4.5008 11.6053 4.5008 11.6053C4.5008 8.51048 5.84313 6.04954 5.84313 6.04954C7.22275 5.00551 8.52779 5.0428 8.52779 5.0428L8.63965 5.15465C6.92445 5.63938 6.14143 6.38512 6.14143 6.38512C6.14143 6.38512 6.32786 6.27326 6.70073 6.12411C8.90066 5.15465 11.548 5.15465 13.8225 6.38512C13.8225 6.38512 13.0768 5.67667 11.4362 5.19194L11.5854 5.0428C11.5854 5.0428 12.8904 5.00551 14.27 6.04954C14.27 6.04954 15.6496 8.51048 15.6496 11.6053Z" fill="white"/>
</svg>
