<svg width="20" height="20" viewBox="0 0 20 20" fill="none" xmlns="http://www.w3.org/2000/svg">
<g clip-path="url(#clip0_152_12320)">
<path d="M17.2021 0.833496C17.7477 0.833496 18.2115 1.02447 18.5934 1.40641C18.9753 1.78835 19.1663 2.25215 19.1663 2.79778L19.1663 17.2025C19.1663 17.7482 18.9753 18.212 18.5934 18.5939C18.2115 18.9758 17.7477 19.1668 17.2021 19.1668L11.5957 19.1668V12.9466H13.9692L14.4193 10.0002H11.5957L11.5957 8.0768C11.5957 7.04009 12.1413 6.52174 13.2326 6.52174H14.5012V4.02546C13.7373 3.88905 12.987 3.82085 12.2504 3.82085C11.4593 3.82085 10.7772 3.9709 10.2043 4.271C9.65867 4.57109 9.22214 5.02124 8.89476 5.62144C8.56738 6.22164 8.40369 6.93097 8.40369 7.74942V10.0002L5.82557 10.0002L5.82557 12.9466L8.40369 12.9466L8.40369 19.1668H2.79729C2.25166 19.1668 1.78787 18.9758 1.40592 18.5939C1.02398 18.212 0.833008 17.7482 0.833008 17.2025L0.833008 2.79778C0.833008 2.25215 1.02398 1.78835 1.40592 1.40641C1.78787 1.02447 2.25166 0.833496 2.79729 0.833496L17.2021 0.833496Z" fill="white"/>
</g>
<defs>
<clipPath id="clip0_152_12320">
<rect width="20" height="20" fill="white"/>
</clipPath>
</defs>
</svg>
