<svg width="40" height="40" viewBox="0 0 40 40" fill="none" xmlns="http://www.w3.org/2000/svg">
<path fill-rule="evenodd" clip-rule="evenodd" d="M40 0H0V40H40V0ZM8.7373 20.3722C8.7373 14.1853 13.7683 9.17432 19.9799 9.17432C26.1914 9.17432 31.2224 14.1853 31.2224 20.3722C31.2224 25.3132 28.0042 29.5124 23.5634 30.9961C23.0013 31.1081 22.7905 30.7581 22.7905 30.4642C22.7905 30.3378 22.7921 30.1191 22.7942 29.828C22.7983 29.2484 22.8045 28.3817 22.8045 27.3848C22.8045 26.335 22.4532 25.6631 22.0457 25.3132C24.5471 25.0332 27.1751 24.0814 27.1751 19.7843C27.1751 18.5525 26.7394 17.5587 26.0227 16.7748C26.1351 16.4949 26.5286 15.3471 25.9103 13.8074C25.9103 13.8074 24.9687 13.4995 22.8186 14.9552C21.9192 14.7032 20.9636 14.5773 20.008 14.5773C19.0523 14.5773 18.0967 14.7032 17.1973 14.9552C15.0472 13.5135 14.1056 13.8074 14.1056 13.8074C13.4873 15.3471 13.8808 16.4949 13.9932 16.7748C13.2765 17.5587 12.8408 18.5665 12.8408 19.7843C12.8408 24.0674 15.4547 25.0332 17.9562 25.3132C17.633 25.5931 17.3379 26.083 17.2395 26.8109C16.593 27.1048 14.9769 27.5808 13.9651 25.8871C13.7543 25.5511 13.1219 24.7253 12.2365 24.7393C11.295 24.7533 11.8571 25.2712 12.2506 25.4812C12.7284 25.7471 13.2765 26.7409 13.403 27.0629C13.6278 27.6927 14.3586 28.8965 17.1833 28.3786C17.1833 28.9905 17.1893 29.5787 17.1934 29.9874C17.1956 30.205 17.1973 30.3718 17.1973 30.4642C17.1973 30.7581 16.9865 31.0941 16.4244 30.9961C11.9555 29.5124 8.7373 25.3272 8.7373 20.3722Z" fill="white" fill-opacity="0.6"/>
</svg>
