<svg width="20" height="20" viewBox="0 0 20 20" fill="none" xmlns="http://www.w3.org/2000/svg">
<g clip-path="url(#clip0_152_12318)">
<path d="M10.0201 5.2736C7.40109 5.2736 5.31403 7.40158 5.31403 9.9797C5.31403 12.5987 7.40109 14.6858 10.0201 14.6858C12.5983 14.6858 14.7262 12.5987 14.7262 9.9797C14.7262 7.40158 12.5983 5.2736 10.0201 5.2736ZM10.0201 13.0489C8.34231 13.0489 6.95094 11.6985 6.95094 9.9797C6.95094 8.30187 8.30139 6.95143 10.0201 6.95143C11.698 6.95143 13.0484 8.30187 13.0484 9.9797C13.0484 11.6985 11.698 13.0489 10.0201 13.0489ZM15.9948 5.10991C15.9948 4.49607 15.5038 4.005 14.8899 4.005C14.2761 4.005 13.785 4.49607 13.785 5.10991C13.785 5.72375 14.2761 6.21482 14.8899 6.21482C15.5038 6.21482 15.9948 5.72375 15.9948 5.10991ZM19.105 6.21482C19.0231 4.74161 18.6957 3.43208 17.6317 2.36809C16.5678 1.30411 15.2582 0.976725 13.785 0.89488C12.2709 0.813035 7.72847 0.813035 6.21433 0.89488C4.74112 0.976725 3.47252 1.30411 2.36761 2.36809C1.30362 3.43208 0.976237 4.74161 0.894392 6.21482C0.812547 7.72896 0.812547 12.2714 0.894392 13.7855C0.976237 15.2587 1.30362 16.5273 2.36761 17.6322C3.47252 18.6962 4.74112 19.0236 6.21433 19.1054C7.72847 19.1873 12.2709 19.1873 13.785 19.1054C15.2582 19.0236 16.5678 18.6962 17.6317 17.6322C18.6957 16.5273 19.0231 15.2587 19.105 13.7855C19.1868 12.2714 19.1868 7.72896 19.105 6.21482ZM17.1407 15.3815C16.8542 16.1999 16.1995 16.8138 15.4219 17.1412C14.1942 17.6322 11.3297 17.5095 10.0201 17.5095C8.66969 17.5095 5.80511 17.6322 4.61835 17.1412C3.7999 16.8138 3.18606 16.1999 2.85868 15.3815C2.36761 14.1947 2.49037 11.3301 2.49037 9.9797C2.49037 8.67018 2.36761 5.80559 2.85868 4.57792C3.18606 3.80039 3.7999 3.18655 4.61835 2.85917C5.80511 2.36809 8.66969 2.49086 10.0201 2.49086C11.3297 2.49086 14.1942 2.36809 15.4219 2.85917C16.1995 3.14562 16.8133 3.80039 17.1407 4.57792C17.6317 5.80559 17.509 8.67018 17.509 9.9797C17.509 11.3301 17.6317 14.1947 17.1407 15.3815Z" fill="white"/>
</g>
<defs>
<clipPath id="clip0_152_12318">
<rect width="20" height="20" fill="white"/>
</clipPath>
</defs>
</svg>
