<svg width="40" height="40" viewBox="0 0 40 40" fill="none" xmlns="http://www.w3.org/2000/svg">
<path fill-rule="evenodd" clip-rule="evenodd" d="M0 0H40V40H0V0ZM16.6713 20.0514C16.6713 18.2089 18.1641 16.7148 20.0061 16.7148C21.8481 16.7148 23.3417 18.2089 23.3417 20.0514C23.3417 21.8939 21.8481 23.3879 20.0061 23.3879C18.1641 23.3879 16.6713 21.8939 16.6713 20.0514ZM14.8682 20.0514C14.8682 22.8899 17.1684 25.1908 20.0061 25.1908C22.8438 25.1908 25.1441 22.8899 25.1441 20.0514C25.1441 17.2128 22.8438 14.9119 20.0061 14.9119C17.1684 14.9119 14.8682 17.2128 14.8682 20.0514ZM24.1468 14.7081C24.1467 14.9457 24.217 15.1779 24.3489 15.3755C24.4807 15.5731 24.6682 15.7271 24.8875 15.8181C25.1069 15.9091 25.3483 15.933 25.5813 15.8867C25.8142 15.8405 26.0282 15.7262 26.1962 15.5582C26.3642 15.3903 26.4786 15.1764 26.525 14.9434C26.5715 14.7104 26.5478 14.4689 26.457 14.2494C26.3662 14.0299 26.2124 13.8423 26.015 13.7102C25.8176 13.5782 25.5854 13.5077 25.348 13.5076H25.3475C25.0292 13.5077 24.7239 13.6342 24.4988 13.8593C24.2736 14.0844 24.147 14.3897 24.1468 14.7081ZM15.9637 28.1984C14.9882 28.1539 14.4579 27.9914 14.1055 27.8541C13.6384 27.6721 13.3051 27.4555 12.9546 27.1054C12.6042 26.7553 12.3872 26.4222 12.2062 25.9549C12.0688 25.6026 11.9063 25.0721 11.862 24.0962C11.8134 23.0412 11.8038 22.7243 11.8038 20.0514C11.8038 17.3786 11.8142 17.0626 11.862 16.0067C11.9064 15.0308 12.0701 14.5013 12.2062 14.148C12.388 13.6807 12.6046 13.3473 12.9546 12.9967C13.3046 12.6462 13.6376 12.4292 14.1055 12.248C14.4578 12.1106 14.9882 11.9481 15.9637 11.9037C17.0184 11.8552 17.3352 11.8455 20.0061 11.8455C22.677 11.8455 22.9942 11.856 24.0497 11.9037C25.0253 11.9482 25.5546 12.1119 25.9079 12.248C26.3751 12.4292 26.7084 12.6466 27.0588 12.9967C27.4093 13.3468 27.6254 13.6807 27.8073 14.148C27.9446 14.5003 28.1071 15.0308 28.1515 16.0067C28.2 17.0626 28.2097 17.3786 28.2097 20.0514C28.2097 22.7243 28.2 23.0403 28.1515 24.0962C28.1071 25.0721 27.9438 25.6025 27.8073 25.9549C27.6254 26.4222 27.4088 26.7556 27.0588 27.1054C26.7089 27.4551 26.3751 27.6721 25.9079 27.8541C25.5557 27.9915 25.0253 28.154 24.0497 28.1984C22.995 28.2469 22.6782 28.2566 20.0061 28.2566C17.334 28.2566 17.0181 28.2469 15.9637 28.1984ZM15.8808 10.1031C14.8156 10.1516 14.0878 10.3206 13.4521 10.568C12.7938 10.8235 12.2365 11.1663 11.6796 11.7225C11.1227 12.2786 10.7809 12.837 10.5255 13.4955C10.2781 14.1317 10.1092 14.8594 10.0607 15.9249C10.0114 16.9921 10.0001 17.3333 10.0001 20.0514C10.0001 22.7695 10.0114 23.1106 10.0607 24.1778C10.1092 25.2434 10.2781 25.971 10.5255 26.6073C10.7809 27.2654 11.1228 27.8244 11.6796 28.3803C12.2364 28.9362 12.7938 29.2785 13.4521 29.5348C14.089 29.7822 14.8156 29.9511 15.8808 29.9996C16.9483 30.0482 17.2888 30.0603 20.0061 30.0603C22.7234 30.0603 23.0645 30.049 24.1314 29.9996C25.1967 29.9511 25.9241 29.7822 26.5601 29.5348C27.218 29.2785 27.7757 28.9365 28.3326 28.3803C28.8895 27.8241 29.2306 27.2654 29.4868 26.6073C29.7341 25.971 29.9038 25.2433 29.9515 24.1778C30 23.1098 30.0113 22.7695 30.0113 20.0514C30.0113 17.3333 30 16.9921 29.9515 15.9249C29.903 14.8593 29.7341 14.1313 29.4868 13.4955C29.2306 12.8374 28.8886 12.2795 28.3326 11.7225C27.7766 11.1654 27.218 10.8235 26.5609 10.568C25.9241 10.3206 25.1966 10.1508 24.1322 10.1031C23.0653 10.0546 22.7242 10.0425 20.0069 10.0425C17.2896 10.0425 16.9483 10.0538 15.8808 10.1031Z" fill="white" fill-opacity="0.6"/>
</svg>
