<svg width="40" height="40" viewBox="0 0 40 40" fill="none" xmlns="http://www.w3.org/2000/svg">
<path fill-rule="evenodd" clip-rule="evenodd" d="M40 0H0V40H40V0ZM15.3989 17.3V28.1052H11.8106V17.3H15.3989ZM15.6354 13.9584C15.6354 14.9953 14.8566 15.825 13.6055 15.825L13.6052 15.8249H13.582C12.3777 15.8249 11.5991 14.9952 11.5991 13.9583C11.5991 12.8979 12.4012 12.0913 13.6293 12.0913C14.8566 12.0913 15.612 12.8979 15.6354 13.9584ZM20.9731 28.1052H17.3851L17.385 28.1055C17.385 28.1055 17.4321 18.314 17.3853 17.3004H20.9733V18.8298C21.4503 18.0937 22.304 17.0467 24.2073 17.0467C26.568 17.0467 28.338 18.5911 28.338 21.9098V28.1052H24.7501V22.3253C24.7501 20.8726 24.2305 19.8819 22.9324 19.8819C21.9409 19.8819 21.3505 20.55 21.0913 21.1955C20.9965 21.4259 20.9731 21.7492 20.9731 22.0717V28.1052Z" fill="white" fill-opacity="0.6"/>
</svg>
