<svg width="40" height="40" viewBox="0 0 40 40" fill="none" xmlns="http://www.w3.org/2000/svg">
<path fill-rule="evenodd" clip-rule="evenodd" d="M40 0H0V40H40V0ZM9.99841 18.5056C9.99841 12.9298 14.3685 8.7998 20.0044 8.7998C25.6403 8.7998 30.0104 12.9323 30.0104 18.5081C30.0104 24.084 25.6403 28.2139 20.0044 28.2139C18.9913 28.2139 18.0207 28.0789 17.1077 27.8287C16.9301 27.7812 16.74 27.7937 16.5724 27.8687L14.5862 28.7443C14.4662 28.7972 14.3351 28.8198 14.2043 28.8102C14.0736 28.8006 13.9472 28.759 13.8363 28.6891C13.7254 28.6192 13.6333 28.5231 13.5682 28.4093C13.5031 28.2954 13.467 28.1674 13.463 28.0363L13.408 26.2553C13.403 26.0351 13.3029 25.83 13.1403 25.6849C11.1941 23.9439 9.99841 21.4224 9.99841 18.5056Z" fill="white" fill-opacity="0.6"/>
<path d="M13.9974 20.8093L16.9367 16.1465C17.0473 15.9709 17.193 15.8202 17.3648 15.7038C17.5366 15.5875 17.7306 15.508 17.9346 15.4704C18.1386 15.4327 18.3483 15.4378 18.5502 15.4853C18.7522 15.5328 18.9421 15.6217 19.108 15.7463L21.4469 17.4998C21.5513 17.578 21.6784 17.62 21.8088 17.6196C21.9392 17.6191 22.066 17.5762 22.1698 17.4973L25.3267 15.1009C25.747 14.7807 26.2973 15.286 26.0171 15.7337L23.0754 20.394C22.9648 20.5696 22.819 20.7203 22.6473 20.8367C22.4755 20.9531 22.2815 21.0326 22.0775 21.0702C21.8734 21.1078 21.6638 21.1027 21.4619 21.0552C21.2599 21.0077 21.07 20.9189 20.9041 20.7943L18.5652 19.0407C18.4608 18.9626 18.3337 18.9205 18.2033 18.921C18.0729 18.9214 17.9461 18.9643 17.8422 19.0432L14.6853 21.4397C14.2651 21.7599 13.7148 21.2571 13.9974 20.8093Z" fill="white" fill-opacity="0.6"/>
</svg>
