<svg width="20" height="20" viewBox="0 0 20 20" fill="none" xmlns="http://www.w3.org/2000/svg">
<path d="M8.84369 8.08583V10.6617C8.51258 10.576 8.16666 10.5643 7.83052 10.6274C7.49437 10.6905 7.17623 10.8268 6.89869 11.0267C6.62444 11.2232 6.39838 11.4795 6.23757 11.7761C6.07676 12.0728 5.9854 12.4021 5.97036 12.7392C5.93119 13.3242 6.15203 13.8975 6.57703 14.3108C7.00119 14.7242 7.58786 14.9375 8.18536 14.8958C8.48188 14.9183 8.77979 14.8772 9.05916 14.7754C9.33853 14.6735 9.59294 14.5131 9.80536 14.305C10.2304 13.8858 10.447 13.305 10.397 12.715V2.5L13.0012 2.5C13.4445 5.19667 14.8212 5.8225 16.6662 6.11083V8.695C15.391 8.59395 14.1589 8.18689 13.0745 7.50833L13.0745 12.6125C13.0737 14.9217 11.6745 17.5 8.20453 17.5C6.89479 17.4965 5.63994 16.9735 4.71536 16.0458C4.26374 15.5926 3.90863 15.0526 3.67145 14.4583C3.43427 13.8641 3.31994 13.228 3.33536 12.5883C3.3576 11.9215 3.52274 11.2673 3.81962 10.6698C4.11649 10.0723 4.53819 9.54548 5.05619 9.125C5.5809 8.69827 6.18872 8.38549 6.84096 8.20658C7.49319 8.02767 8.17553 7.98655 8.84453 8.08583H8.84369Z" fill="white"/>
</svg>
