<svg width="20" height="20" viewBox="0 0 20 20" fill="none" xmlns="http://www.w3.org/2000/svg">
<path d="M17.9297 5.729C17.9557 5.83317 17.9688 6.00244 17.9688 6.23682C17.9688 7.61702 17.7083 8.99725 17.1875 10.3774C16.6667 11.7316 15.9245 12.9816 14.9609 14.1274C14.0234 15.2473 12.7995 16.1587 11.2891 16.8618C9.77863 17.5649 8.112 17.9165 6.28906 17.9165C3.99739 17.9165 1.90104 17.3045 0 16.0806C0.286458 16.1066 0.611979 16.1196 0.976563 16.1196C2.87761 16.1196 4.58333 15.5337 6.09375 14.3618C5.18229 14.3618 4.375 14.1014 3.67188 13.5806C2.99479 13.0337 2.52604 12.3566 2.26563 11.5493C2.52604 11.5754 2.77344 11.5884 3.00781 11.5884C3.37239 11.5884 3.73698 11.5493 4.10156 11.4712C3.47656 11.341 2.91667 11.0806 2.42188 10.6899C1.92708 10.2993 1.53646 9.83057 1.25 9.28369C0.963544 8.71075 0.820313 8.09882 0.820313 7.44775V7.36963C1.39323 7.70817 2.00521 7.89046 2.65625 7.9165C1.43229 7.08317 0.820313 5.93734 0.820313 4.479C0.820313 3.74984 1.01563 3.05974 1.40625 2.40869C2.42188 3.68474 3.65886 4.70036 5.11719 5.45557C6.60156 6.21077 8.17706 6.62744 9.84375 6.70557C9.79169 6.39307 9.76562 6.08057 9.76562 5.76807C9.76562 4.64827 10.1562 3.68474 10.9375 2.87744C11.7448 2.07015 12.7083 1.6665 13.8281 1.6665C15.0261 1.6665 16.0286 2.09619 16.8359 2.95557C17.7734 2.77327 18.6458 2.44775 19.4531 1.979C19.1406 2.94255 18.5417 3.69775 17.6562 4.24463C18.4375 4.14046 19.2188 3.91911 20 3.58057C19.4271 4.4139 18.737 5.13005 17.9297 5.729Z" fill="white"/>
</svg>
