<svg width="20" height="20" viewBox="0 0 20 20" fill="none" xmlns="http://www.w3.org/2000/svg">
<path d="M18.9111 4.84375C18.9792 5.15625 19.0359 5.54687 19.0812 6.01562C19.1492 6.48437 19.1946 6.95312 19.2173 7.42187C19.24 7.86458 19.2513 8.28125 19.2513 8.67187C19.274 9.0625 19.2853 9.388 19.2853 9.64844V10C19.2853 12.3437 19.1606 14.0755 18.9111 15.1953C18.7978 15.638 18.5937 16.0286 18.2989 16.3672C18.0041 16.7058 17.6526 16.9401 17.2445 17.0703C16.8136 17.2005 15.9973 17.3047 14.7955 17.3828C13.5937 17.4349 12.4939 17.4739 11.4962 17.5H9.99958C6.12203 17.5 3.70706 17.3567 2.75468 17.0703C1.87033 16.7839 1.31478 16.1589 1.08802 15.1953C0.97464 14.7005 0.883935 14.0234 0.815908 13.1641C0.770558 12.2786 0.736543 11.5364 0.713867 10.9375L0.713867 10C0.713867 7.68229 0.838586 5.96354 1.08802 4.84375C1.20139 4.375 1.40548 3.97136 1.70026 3.63281C1.99505 3.29427 2.34652 3.0599 2.75468 2.92969C3.18552 2.79948 4.00185 2.70833 5.20366 2.65625C6.40546 2.57812 7.50527 2.52604 8.50298 2.5L9.99958 2.5C13.8771 2.5 16.2921 2.64323 17.2445 2.92969C17.6526 3.0599 18.0041 3.29427 18.2989 3.63281C18.5937 3.97136 18.7978 4.375 18.9111 4.84375ZM8.09482 13.2031L12.9588 10L8.09482 6.83594V13.2031Z" fill="white"/>
</svg>
